{
    "asset": {
        "version": "2.0",
        "generator": "Open Asset Import Library (assimp v6.0.e3f9cf55)"
    },
    "extensionsUsed": [
        "KHR_materials_specular",
        "KHR_materials_volume",
        "FB_ngon_encoding"
    ],
    "accessors": [
        {
            "bufferView": 0,
            "byteOffset": 0,
            "componentType": 5126,
            "count": 452448,
            "type": "VEC3",
            "max": [
                0.1569555103778839,
                0.13383467495441437,
                0.0828976258635521
            ],
            "min": [
                -0.23670607805252075,
                -0.008709910325706005,
                -0.08102001994848251
            ]
        },
        {
            "bufferView": 1,
            "byteOffset": 0,
            "componentType": 5126,
            "count": 452448,
            "type": "VEC3",
            "max": [
                0.9999995827674866,
                0.9999991655349731,
                0.9999963641166687
            ],
            "min": [
                -0.9997654557228088,
                -0.9999584555625916,
                -0.9999658465385437
            ]
        },
        {
            "bufferView": 2,
            "byteOffset": 0,
            "componentType": 5126,
            "count": 452448,
            "type": "VEC3",
            "max": [
                0.9999942779541016,
                0.9999998807907104,
                0.9999735951423645
            ],
            "min": [
                -0.9999527931213379,
                -0.999997079372406,
                -0.9999996423721313
            ]
        },
        {
            "bufferView": 3,
            "byteOffset": 0,
            "componentType": 5126,
            "count": 452448,
            "type": "VEC2",
            "max": [
                0.9995957612991333,
                1.0
            ],
            "min": [
                -1.715365272048075e-8,
                2.2250738585072014e-308
            ]
        },
        {
            "bufferView": 4,
            "byteOffset": 0,
            "componentType": 5126,
            "count": 452448,
            "type": "VEC4",
            "max": [
                0.9999716877937317,
                0.9999716877937317,
                0.9999716877937317,
                1.0
            ],
            "min": [
                2.2250738585072014e-308,
                2.2250738585072014e-308,
                2.2250738585072014e-308,
                2.2250738585072014e-308
            ]
        },
        {
            "bufferView": 5,
            "byteOffset": 0,
            "componentType": 5125,
            "count": 452448,
            "type": "SCALAR",
            "max": [
                452447
            ],
            "min": [
                0
            ]
        }
    ],
    "buffers": [
        {
            "byteLength": 28956672,
            "uri": "3DModel.bin"
        }
    ],
    "bufferViews": [
        {
            "buffer": 0,
            "byteOffset": 0,
            "byteLength": 5429376,
            "target": 34962
        },
        {
            "buffer": 0,
            "byteOffset": 5429376,
            "byteLength": 5429376,
            "target": 34962
        },
        {
            "buffer": 0,
            "byteOffset": 10858752,
            "byteLength": 5429376,
            "target": 34962
        },
        {
            "buffer": 0,
            "byteOffset": 16288128,
            "byteLength": 3619584,
            "target": 34962
        },
        {
            "buffer": 0,
            "byteOffset": 19907712,
            "byteLength": 7239168,
            "target": 34962
        },
        {
            "buffer": 0,
            "byteOffset": 27146880,
            "byteLength": 1809792,
            "target": 34963
        }
    ],
    "materials": [
        {
            "name": "3DModel",
            "pbrMetallicRoughness": {
                "metallicFactor": 0.0
            },
            "extensions": {
                "KHR_materials_specular": {
                    "specularFactor": 1.0
                }
            }
        }
    ],
    "meshes": [
        {
            "name": "3DModel",
            "primitives": [
                {
                    "mode": 4,
                    "material": 0,
                    "indices": 5,
                    "attributes": {
                        "POSITION": 0,
                        "NORMAL": 1,
                        "TANGENT": 2,
                        "TEXCOORD_0": 3,
                        "COLOR_0": 4
                    }
                }
            ]
        }
    ],
    "nodes": [
        {
            "name": "3DModel",
            "mesh": 0
        }
    ],
    "scenes": [
        {
            "nodes": [
                0
            ]
        }
    ],
    "scene": 0
}