{
    "asset": {
        "version": "2.0",
        "generator": "Open Asset Import Library (assimp v6.0.44188438)"
    },
    "extensionsUsed": [
        "KHR_materials_specular",
        "KHR_materials_volume",
        "FB_ngon_encoding"
    ],
    "accessors": [
        {
            "bufferView": 0,
            "byteOffset": 0,
            "componentType": 5126,
            "count": 6532,
            "type": "VEC3",
            "max": [
                1123.7696533203125,
                -419.06884765625,
                719.7156982421875
            ],
            "min": [
                2.2250738585072014e-308,
                -873.1978759765625,
                2.2250738585072014e-308
            ]
        },
        {
            "bufferView": 1,
            "byteOffset": 0,
            "componentType": 5126,
            "count": 6532,
            "type": "VEC3",
            "max": [
                0.9780813455581665,
                0.9973500370979309,
                0.999422550201416
            ],
            "min": [
                -0.9931656718254089,
                -0.999796986579895,
                -0.9218947291374207
            ]
        },
        {
            "bufferView": 2,
            "byteOffset": 0,
            "componentType": 5126,
            "count": 6532,
            "type": "VEC3",
            "max": [
                0.9941740036010742,
                0.9994627237319946,
                0.992995023727417
            ],
            "min": [
                -0.9995778799057007,
                -0.973397970199585,
                -0.9742550849914551
            ]
        },
        {
            "bufferView": 3,
            "byteOffset": 0,
            "componentType": 5126,
            "count": 6532,
            "type": "VEC2",
            "max": [
                0.99951171875,
                1.0000001192092896
            ],
            "min": [
                -1.1920928955078125e-7,
                2.2250738585072014e-308
            ]
        },
        {
            "bufferView": 4,
            "byteOffset": 0,
            "componentType": 5126,
            "count": 6532,
            "type": "VEC2",
            "max": [
                0.97705078125,
                0.9921875
            ],
            "min": [
                2.2250738585072014e-308,
                2.2250738585072014e-308
            ]
        },
        {
            "bufferView": 5,
            "byteOffset": 0,
            "componentType": 5125,
            "count": 8052,
            "type": "SCALAR",
            "max": [
                6531
            ],
            "min": [
                0
            ]
        }
    ],
    "buffers": [
        {
            "byteLength": 371872,
            "uri": "Bistro_Research_Exterior_Ivy_Ivy_4031.bin"
        }
    ],
    "bufferViews": [
        {
            "buffer": 0,
            "byteOffset": 0,
            "byteLength": 78384,
            "target": 34962
        },
        {
            "buffer": 0,
            "byteOffset": 78384,
            "byteLength": 78384,
            "target": 34962
        },
        {
            "buffer": 0,
            "byteOffset": 156768,
            "byteLength": 78384,
            "target": 34962
        },
        {
            "buffer": 0,
            "byteOffset": 235152,
            "byteLength": 52256,
            "target": 34962
        },
        {
            "buffer": 0,
            "byteOffset": 287408,
            "byteLength": 52256,
            "target": 34962
        },
        {
            "buffer": 0,
            "byteOffset": 339664,
            "byteLength": 32208,
            "target": 34963
        }
    ],
    "images": [
        {
            "uri": "Textures\\Foliage_Ivy_leaf_a_BaseColor.dds"
        },
        {
            "uri": "Textures\\Foliage_Ivy_leaf_a_Normal.dds"
        },
        {
            "uri": "Textures\\Foliage_Ivy_leaf_a_Specular.dds"
        }
    ],
    "materials": [
        {
            "name": "Foliage_Ivy_leaf_a.DoubleSided",
            "pbrMetallicRoughness": {
                "baseColorTexture": {
                    "index": 0
                },
                "metallicFactor": 0.0,
                "roughnessFactor": 0.5527864098548889
            },
            "normalTexture": {
                "index": 1
            },
            "extensions": {
                "KHR_materials_specular": {
                    "specularFactor": 1.0,
                    "specularColorFactor": [
                        0.5,
                        0.5,
                        0.5
                    ],
                    "specularTexture": {
                        "index": 2
                    }
                }
            }
        }
    ],
    "meshes": [
        {
            "name": "Bistro_Research_Exterior_Ivy_Ivy_4031",
            "primitives": [
                {
                    "mode": 4,
                    "material": 0,
                    "indices": 5,
                    "attributes": {
                        "POSITION": 0,
                        "NORMAL": 1,
                        "TANGENT": 2,
                        "TEXCOORD_0": 3,
                        "TEXCOORD_1": 4
                    }
                }
            ]
        }
    ],
    "nodes": [
        {
            "name": "Bistro_Research_Exterior_Ivy_Ivy_4031",
            "mesh": 0
        }
    ],
    "samplers": [
        {},
        {},
        {}
    ],
    "scenes": [
        {
            "nodes": [
                0
            ]
        }
    ],
    "textures": [
        {
            "source": 0,
            "sampler": 0
        },
        {
            "source": 1,
            "sampler": 1
        },
        {
            "source": 2,
            "sampler": 2
        }
    ],
    "scene": 0
}