{
    "asset": {
        "version": "2.0",
        "generator": "Open Asset Import Library (assimp v6.0.44188438)"
    },
    "extensionsUsed": [
        "KHR_materials_specular",
        "KHR_materials_volume",
        "FB_ngon_encoding"
    ],
    "accessors": [
        {
            "bufferView": 0,
            "byteOffset": 0,
            "componentType": 5126,
            "count": 164,
            "type": "VEC3",
            "max": [
                1033.708740234375,
                1971.5081787109375,
                1954.54248046875
            ],
            "min": [
                2.2250738585072014e-308,
                2.2250738585072014e-308,
                2.2250738585072014e-308
            ]
        },
        {
            "bufferView": 1,
            "byteOffset": 0,
            "componentType": 5126,
            "count": 164,
            "type": "VEC3",
            "max": [
                -0.7774208784103394,
                0.6289686560630798,
                -0.003906577825546265
            ],
            "min": [
                -0.7774208784103394,
                2.2250738585072014e-308,
                -0.003906577825546265
            ]
        },
        {
            "bufferView": 2,
            "byteOffset": 0,
            "componentType": 5126,
            "count": 164,
            "type": "VEC3",
            "max": [
                0.6289734840393066,
                0.7774269580841064,
                0.000010885699339269195
            ],
            "min": [
                -0.6289734840393066,
                -0.7774269580841064,
                -0.000008461147444904782
            ]
        },
        {
            "bufferView": 3,
            "byteOffset": 0,
            "componentType": 5126,
            "count": 164,
            "type": "VEC2",
            "max": [
                1.0048828125,
                0.9992084503173828
            ],
            "min": [
                2.2250738585072014e-308,
                2.2250738585072014e-308
            ]
        },
        {
            "bufferView": 4,
            "byteOffset": 0,
            "componentType": 5126,
            "count": 164,
            "type": "VEC2",
            "max": [
                0.986328125,
                0.9921875
            ],
            "min": [
                2.2250738585072014e-308,
                2.2250738585072014e-308
            ]
        },
        {
            "bufferView": 5,
            "byteOffset": 0,
            "componentType": 5125,
            "count": 246,
            "type": "SCALAR",
            "max": [
                163
            ],
            "min": [
                0
            ]
        }
    ],
    "buffers": [
        {
            "byteLength": 9512,
            "uri": "Bistro_Research_Exterior_paris_building_04_5015.bin"
        }
    ],
    "bufferViews": [
        {
            "buffer": 0,
            "byteOffset": 0,
            "byteLength": 1968,
            "target": 34962
        },
        {
            "buffer": 0,
            "byteOffset": 1968,
            "byteLength": 1968,
            "target": 34962
        },
        {
            "buffer": 0,
            "byteOffset": 3936,
            "byteLength": 1968,
            "target": 34962
        },
        {
            "buffer": 0,
            "byteOffset": 5904,
            "byteLength": 1312,
            "target": 34962
        },
        {
            "buffer": 0,
            "byteOffset": 7216,
            "byteLength": 1312,
            "target": 34962
        },
        {
            "buffer": 0,
            "byteOffset": 8528,
            "byteLength": 984,
            "target": 34963
        }
    ],
    "images": [
        {
            "uri": "Textures\\MASTER_Curtains_BaseColor.dds"
        },
        {
            "uri": "Textures\\MASTER_Curtains_Normal.dds"
        },
        {
            "uri": "Textures\\MASTER_Curtains_Specular.dds"
        }
    ],
    "materials": [
        {
            "name": "MASTER_Curtains",
            "pbrMetallicRoughness": {
                "baseColorTexture": {
                    "index": 0
                },
                "metallicFactor": 0.0,
                "roughnessFactor": 0.5527864098548889
            },
            "normalTexture": {
                "index": 1
            },
            "extensions": {
                "KHR_materials_specular": {
                    "specularFactor": 1.0,
                    "specularColorFactor": [
                        0.5,
                        0.5,
                        0.5
                    ],
                    "specularTexture": {
                        "index": 2
                    }
                }
            }
        }
    ],
    "meshes": [
        {
            "name": "Bistro_Research_Exterior_paris_building_04_5015",
            "primitives": [
                {
                    "mode": 4,
                    "material": 0,
                    "indices": 5,
                    "attributes": {
                        "POSITION": 0,
                        "NORMAL": 1,
                        "TANGENT": 2,
                        "TEXCOORD_0": 3,
                        "TEXCOORD_1": 4
                    }
                }
            ]
        }
    ],
    "nodes": [
        {
            "name": "Bistro_Research_Exterior_paris_building_04_5015",
            "mesh": 0
        }
    ],
    "samplers": [
        {},
        {},
        {}
    ],
    "scenes": [
        {
            "nodes": [
                0
            ]
        }
    ],
    "textures": [
        {
            "source": 0,
            "sampler": 0
        },
        {
            "source": 1,
            "sampler": 1
        },
        {
            "source": 2,
            "sampler": 2
        }
    ],
    "scene": 0
}