{
    "asset": {
        "version": "2.0",
        "generator": "Open Asset Import Library (assimp v6.0.44188438)"
    },
    "extensionsUsed": [
        "KHR_materials_specular",
        "KHR_materials_volume",
        "FB_ngon_encoding"
    ],
    "accessors": [
        {
            "bufferView": 0,
            "byteOffset": 0,
            "componentType": 5126,
            "count": 524,
            "type": "VEC3",
            "max": [
                241.52748107910156,
                3030.574462890625,
                1884.2357177734375
            ],
            "min": [
                -1837.884765625,
                2.2250738585072014e-308,
                2.2250738585072014e-308
            ]
        },
        {
            "bufferView": 1,
            "byteOffset": 0,
            "componentType": 5126,
            "count": 524,
            "type": "VEC3",
            "max": [
                0.7454417943954468,
                0.7415300607681274,
                0.999984622001648
            ],
            "min": [
                -0.7376343607902527,
                -0.7340449094772339,
                -0.999984622001648
            ]
        },
        {
            "bufferView": 2,
            "byteOffset": 0,
            "componentType": 5126,
            "count": 524,
            "type": "VEC3",
            "max": [
                0.7699697613716125,
                0.7364944815635681,
                0.992160439491272
            ],
            "min": [
                -0.7388505339622498,
                -0.755429208278656,
                -0.9619637131690979
            ]
        },
        {
            "bufferView": 3,
            "byteOffset": 0,
            "componentType": 5126,
            "count": 524,
            "type": "VEC2",
            "max": [
                5.703125,
                12.2890625
            ],
            "min": [
                -4.12109375,
                -0.43359375
            ]
        },
        {
            "bufferView": 4,
            "byteOffset": 0,
            "componentType": 5126,
            "count": 524,
            "type": "VEC2",
            "max": [
                0.98828125,
                0.9921875
            ],
            "min": [
                2.2250738585072014e-308,
                2.2250738585072014e-308
            ]
        },
        {
            "bufferView": 5,
            "byteOffset": 0,
            "componentType": 5125,
            "count": 1908,
            "type": "SCALAR",
            "max": [
                523
            ],
            "min": [
                0
            ]
        }
    ],
    "buffers": [
        {
            "byteLength": 34880,
            "uri": "Bistro_Research_Exterior_paris_building_09_5453.bin"
        }
    ],
    "bufferViews": [
        {
            "buffer": 0,
            "byteOffset": 0,
            "byteLength": 6288,
            "target": 34962
        },
        {
            "buffer": 0,
            "byteOffset": 6288,
            "byteLength": 6288,
            "target": 34962
        },
        {
            "buffer": 0,
            "byteOffset": 12576,
            "byteLength": 6288,
            "target": 34962
        },
        {
            "buffer": 0,
            "byteOffset": 18864,
            "byteLength": 4192,
            "target": 34962
        },
        {
            "buffer": 0,
            "byteOffset": 23056,
            "byteLength": 4192,
            "target": 34962
        },
        {
            "buffer": 0,
            "byteOffset": 27248,
            "byteLength": 7632,
            "target": 34963
        }
    ],
    "images": [
        {
            "uri": "Textures\\MASTER_Roofing_Metal_01_BaseColor.dds"
        },
        {
            "uri": "Textures\\MASTER_Roofing_Metal_01_Normal.dds"
        },
        {
            "uri": "Textures\\MASTER_Roofing_Metal_01_Specular.dds"
        }
    ],
    "materials": [
        {
            "name": "MASTER_Roofing_Metal_01",
            "pbrMetallicRoughness": {
                "baseColorTexture": {
                    "index": 0
                },
                "metallicFactor": 0.0,
                "roughnessFactor": 0.5527864098548889
            },
            "normalTexture": {
                "index": 1
            },
            "extensions": {
                "KHR_materials_specular": {
                    "specularFactor": 1.0,
                    "specularColorFactor": [
                        0.5,
                        0.5,
                        0.5
                    ],
                    "specularTexture": {
                        "index": 2
                    }
                }
            }
        }
    ],
    "meshes": [
        {
            "name": "Bistro_Research_Exterior_paris_building_09_5453",
            "primitives": [
                {
                    "mode": 4,
                    "material": 0,
                    "indices": 5,
                    "attributes": {
                        "POSITION": 0,
                        "NORMAL": 1,
                        "TANGENT": 2,
                        "TEXCOORD_0": 3,
                        "TEXCOORD_1": 4
                    }
                }
            ]
        }
    ],
    "nodes": [
        {
            "name": "Bistro_Research_Exterior_paris_building_09_5453",
            "mesh": 0
        }
    ],
    "samplers": [
        {},
        {},
        {}
    ],
    "scenes": [
        {
            "nodes": [
                0
            ]
        }
    ],
    "textures": [
        {
            "source": 0,
            "sampler": 0
        },
        {
            "source": 1,
            "sampler": 1
        },
        {
            "source": 2,
            "sampler": 2
        }
    ],
    "scene": 0
}