{
    "asset": {
        "version": "2.0",
        "generator": "Open Asset Import Library (assimp v6.0.44188438)"
    },
    "extensionsUsed": [
        "KHR_materials_specular",
        "KHR_materials_volume",
        "FB_ngon_encoding"
    ],
    "accessors": [
        {
            "bufferView": 0,
            "byteOffset": 0,
            "componentType": 5126,
            "count": 4285,
            "type": "VEC3",
            "max": [
                3022.95947265625,
                4314.34228515625,
                2150.608642578125
            ],
            "min": [
                2.2250738585072014e-308,
                2.2250738585072014e-308,
                2.2250738585072014e-308
            ]
        },
        {
            "bufferView": 1,
            "byteOffset": 0,
            "componentType": 5126,
            "count": 4285,
            "type": "VEC3",
            "max": [
                0.9986746907234192,
                0.9999231100082397,
                0.9999843835830688
            ],
            "min": [
                -0.9982667565345764,
                -0.9999843835830688,
                -0.999984622001648
            ]
        },
        {
            "bufferView": 2,
            "byteOffset": 0,
            "componentType": 5126,
            "count": 4285,
            "type": "VEC3",
            "max": [
                0.9976658225059509,
                0.9992697238922119,
                0.9999924898147583
            ],
            "min": [
                -0.9981908202171326,
                -0.9988427758216858,
                -0.9999924302101135
            ]
        },
        {
            "bufferView": 3,
            "byteOffset": 0,
            "componentType": 5126,
            "count": 4285,
            "type": "VEC2",
            "max": [
                2.005859375,
                3.095703125
            ],
            "min": [
                -1.060546875,
                -0.91015625
            ]
        },
        {
            "bufferView": 4,
            "byteOffset": 0,
            "componentType": 5126,
            "count": 4285,
            "type": "VEC2",
            "max": [
                0.99755859375,
                0.9921913146972656
            ],
            "min": [
                2.2250738585072014e-308,
                2.2250738585072014e-308
            ]
        },
        {
            "bufferView": 5,
            "byteOffset": 0,
            "componentType": 5125,
            "count": 11280,
            "type": "SCALAR",
            "max": [
                4284
            ],
            "min": [
                0
            ]
        }
    ],
    "buffers": [
        {
            "byteLength": 267940,
            "uri": "Bistro_Research_Exterior_Paris_Building_08_paris_building_08_5___2__5415.bin"
        }
    ],
    "bufferViews": [
        {
            "buffer": 0,
            "byteOffset": 0,
            "byteLength": 51420,
            "target": 34962
        },
        {
            "buffer": 0,
            "byteOffset": 51420,
            "byteLength": 51420,
            "target": 34962
        },
        {
            "buffer": 0,
            "byteOffset": 102840,
            "byteLength": 51420,
            "target": 34962
        },
        {
            "buffer": 0,
            "byteOffset": 154260,
            "byteLength": 34280,
            "target": 34962
        },
        {
            "buffer": 0,
            "byteOffset": 188540,
            "byteLength": 34280,
            "target": 34962
        },
        {
            "buffer": 0,
            "byteOffset": 222820,
            "byteLength": 45120,
            "target": 34963
        }
    ],
    "images": [
        {
            "uri": "Textures\\MASTER_Grain_Metal_BaseColor.dds"
        },
        {
            "uri": "Textures\\MASTER_Grain_Metal_Normal.dds"
        },
        {
            "uri": "Textures\\MASTER_Grain_Metal_Specular.dds"
        }
    ],
    "materials": [
        {
            "name": "MASTER_Grain_Metal",
            "pbrMetallicRoughness": {
                "baseColorTexture": {
                    "index": 0
                },
                "metallicFactor": 0.0,
                "roughnessFactor": 0.5527864098548889
            },
            "normalTexture": {
                "index": 1
            },
            "extensions": {
                "KHR_materials_specular": {
                    "specularFactor": 1.0,
                    "specularColorFactor": [
                        0.5,
                        0.5,
                        0.5
                    ],
                    "specularTexture": {
                        "index": 2
                    }
                }
            }
        }
    ],
    "meshes": [
        {
            "name": "Bistro_Research_Exterior_Paris_Building_08_paris_building_08_5___2__5415",
            "primitives": [
                {
                    "mode": 4,
                    "material": 0,
                    "indices": 5,
                    "attributes": {
                        "POSITION": 0,
                        "NORMAL": 1,
                        "TANGENT": 2,
                        "TEXCOORD_0": 3,
                        "TEXCOORD_1": 4
                    }
                }
            ]
        }
    ],
    "nodes": [
        {
            "name": "Bistro_Research_Exterior_Paris_Building_08_paris_building_08_5___2__5415",
            "mesh": 0
        }
    ],
    "samplers": [
        {},
        {},
        {}
    ],
    "scenes": [
        {
            "nodes": [
                0
            ]
        }
    ],
    "textures": [
        {
            "source": 0,
            "sampler": 0
        },
        {
            "source": 1,
            "sampler": 1
        },
        {
            "source": 2,
            "sampler": 2
        }
    ],
    "scene": 0
}