{
    "asset": {
        "version": "2.0",
        "generator": "Open Asset Import Library (assimp v6.0.44188438)"
    },
    "extensionsUsed": [
        "KHR_materials_specular",
        "KHR_materials_volume",
        "FB_ngon_encoding"
    ],
    "accessors": [
        {
            "bufferView": 0,
            "byteOffset": 0,
            "componentType": 5126,
            "count": 1444,
            "type": "VEC3",
            "max": [
                1049.0201416015625,
                -461.7859802246094,
                1377.4005126953125
            ],
            "min": [
                2.2250738585072014e-308,
                -523.4473876953125,
                2.2250738585072014e-308
            ]
        },
        {
            "bufferView": 1,
            "byteOffset": 0,
            "componentType": 5126,
            "count": 1444,
            "type": "VEC3",
            "max": [
                0.9308874607086182,
                0.37056541442871094,
                0.9999843835830688
            ],
            "min": [
                -0.995949387550354,
                -0.9555162191390991,
                -0.999984622001648
            ]
        },
        {
            "bufferView": 2,
            "byteOffset": 0,
            "componentType": 5126,
            "count": 1444,
            "type": "VEC3",
            "max": [
                0.9996621012687683,
                0.9999474883079529,
                0.9999924898147583
            ],
            "min": [
                -0.9935357570648193,
                -0.9967504143714905,
                -0.9999865293502808
            ]
        },
        {
            "bufferView": 3,
            "byteOffset": 0,
            "componentType": 5126,
            "count": 1444,
            "type": "VEC2",
            "max": [
                4.0859375,
                3.6484375
            ],
            "min": [
                2.2250738585072014e-308,
                2.2250738585072014e-308
            ]
        },
        {
            "bufferView": 4,
            "byteOffset": 0,
            "componentType": 5126,
            "count": 1444,
            "type": "VEC2",
            "max": [
                0.95849609375,
                0.9921875
            ],
            "min": [
                2.2250738585072014e-308,
                2.2250738585072014e-308
            ]
        },
        {
            "bufferView": 5,
            "byteOffset": 0,
            "componentType": 5125,
            "count": 5700,
            "type": "SCALAR",
            "max": [
                1443
            ],
            "min": [
                0
            ]
        }
    ],
    "buffers": [
        {
            "byteLength": 97888,
            "uri": "Bistro_Research_Exterior_Paris_Building_01_paris_building_01_4423_1.bin"
        }
    ],
    "bufferViews": [
        {
            "buffer": 0,
            "byteOffset": 0,
            "byteLength": 17328,
            "target": 34962
        },
        {
            "buffer": 0,
            "byteOffset": 17328,
            "byteLength": 17328,
            "target": 34962
        },
        {
            "buffer": 0,
            "byteOffset": 34656,
            "byteLength": 17328,
            "target": 34962
        },
        {
            "buffer": 0,
            "byteOffset": 51984,
            "byteLength": 11552,
            "target": 34962
        },
        {
            "buffer": 0,
            "byteOffset": 63536,
            "byteLength": 11552,
            "target": 34962
        },
        {
            "buffer": 0,
            "byteOffset": 75088,
            "byteLength": 22800,
            "target": 34963
        }
    ],
    "images": [
        {
            "uri": "Textures\\MASTER_Concrete_Smooth_BaseColor.dds"
        },
        {
            "uri": "Textures\\MASTER_Concrete_Smooth_Normal.dds"
        },
        {
            "uri": "Textures\\MASTER_Concrete_Smooth_Specular.dds"
        }
    ],
    "materials": [
        {
            "name": "MASTER_Concrete_Smooth",
            "pbrMetallicRoughness": {
                "baseColorTexture": {
                    "index": 0
                },
                "metallicFactor": 0.0,
                "roughnessFactor": 0.5527864098548889
            },
            "normalTexture": {
                "index": 1
            },
            "extensions": {
                "KHR_materials_specular": {
                    "specularFactor": 1.0,
                    "specularColorFactor": [
                        0.5,
                        0.5,
                        0.5
                    ],
                    "specularTexture": {
                        "index": 2
                    }
                }
            }
        }
    ],
    "meshes": [
        {
            "name": "Bistro_Research_Exterior_Paris_Building_01_paris_building_01_4423",
            "primitives": [
                {
                    "mode": 4,
                    "material": 0,
                    "indices": 5,
                    "attributes": {
                        "POSITION": 0,
                        "NORMAL": 1,
                        "TANGENT": 2,
                        "TEXCOORD_0": 3,
                        "TEXCOORD_1": 4
                    }
                }
            ]
        }
    ],
    "nodes": [
        {
            "name": "Bistro_Research_Exterior_Paris_Building_01_paris_building_01_4423",
            "mesh": 0
        }
    ],
    "samplers": [
        {},
        {},
        {}
    ],
    "scenes": [
        {
            "nodes": [
                0
            ]
        }
    ],
    "textures": [
        {
            "source": 0,
            "sampler": 0
        },
        {
            "source": 1,
            "sampler": 1
        },
        {
            "source": 2,
            "sampler": 2
        }
    ],
    "scene": 0
}