{
    "asset": {
        "version": "2.0",
        "generator": "Open Asset Import Library (assimp v6.0.44188438)"
    },
    "extensionsUsed": [
        "KHR_materials_specular",
        "KHR_materials_volume",
        "FB_ngon_encoding"
    ],
    "accessors": [
        {
            "bufferView": 0,
            "byteOffset": 0,
            "componentType": 5126,
            "count": 120,
            "type": "VEC3",
            "max": [
                -111.123291015625,
                466.4779052734375,
                143.90460205078125
            ],
            "min": [
                -113.84879302978516,
                2.2250738585072014e-308,
                2.2250738585072014e-308
            ]
        },
        {
            "bufferView": 1,
            "byteOffset": 0,
            "componentType": 5126,
            "count": 120,
            "type": "VEC3",
            "max": [
                0.981174647808075,
                0.9993700385093689,
                0.999984622001648
            ],
            "min": [
                -0.9829089641571045,
                -0.9990483522415161,
                -0.999984622001648
            ]
        },
        {
            "bufferView": 2,
            "byteOffset": 0,
            "componentType": 5126,
            "count": 120,
            "type": "VEC3",
            "max": [
                0.9993767738342285,
                0.9813995361328125,
                0.01078486442565918
            ],
            "min": [
                -0.9996276497840881,
                -0.9829636812210083,
                -0.023720938712358475
            ]
        },
        {
            "bufferView": 3,
            "byteOffset": 0,
            "componentType": 5126,
            "count": 120,
            "type": "VEC2",
            "max": [
                0.9765625,
                0.73974609375
            ],
            "min": [
                2.2250738585072014e-308,
                2.2250738585072014e-308
            ]
        },
        {
            "bufferView": 4,
            "byteOffset": 0,
            "componentType": 5126,
            "count": 120,
            "type": "VEC2",
            "max": [
                0.96142578125,
                0.7109375
            ],
            "min": [
                2.2250738585072014e-308,
                2.2250738585072014e-308
            ]
        },
        {
            "bufferView": 5,
            "byteOffset": 0,
            "componentType": 5125,
            "count": 504,
            "type": "SCALAR",
            "max": [
                119
            ],
            "min": [
                0
            ]
        }
    ],
    "buffers": [
        {
            "byteLength": 8256,
            "uri": "Bistro_Research_Exterior_Paris_LiquorBottle_01A___7__6097_0.bin"
        }
    ],
    "bufferViews": [
        {
            "buffer": 0,
            "byteOffset": 0,
            "byteLength": 1440,
            "target": 34962
        },
        {
            "buffer": 0,
            "byteOffset": 1440,
            "byteLength": 1440,
            "target": 34962
        },
        {
            "buffer": 0,
            "byteOffset": 2880,
            "byteLength": 1440,
            "target": 34962
        },
        {
            "buffer": 0,
            "byteOffset": 4320,
            "byteLength": 960,
            "target": 34962
        },
        {
            "buffer": 0,
            "byteOffset": 5280,
            "byteLength": 960,
            "target": 34962
        },
        {
            "buffer": 0,
            "byteOffset": 6240,
            "byteLength": 2016,
            "target": 34963
        }
    ],
    "images": [
        {
            "uri": "Textures\\Paris_LiquorBottle_01_Caps_BaseColor.dds"
        },
        {
            "uri": "Textures\\Paris_LiquorBottle_01_Caps_Normal.dds"
        },
        {
            "uri": "Textures\\Paris_LiquorBottle_01_Caps_Specular.dds"
        }
    ],
    "materials": [
        {
            "name": "Paris_LiquorBottle_01_Caps",
            "pbrMetallicRoughness": {
                "baseColorTexture": {
                    "index": 0
                },
                "metallicFactor": 0.0,
                "roughnessFactor": 0.5527864098548889
            },
            "normalTexture": {
                "index": 1
            },
            "extensions": {
                "KHR_materials_specular": {
                    "specularFactor": 1.0,
                    "specularColorFactor": [
                        0.5,
                        0.5,
                        0.5
                    ],
                    "specularTexture": {
                        "index": 2
                    }
                }
            }
        }
    ],
    "meshes": [
        {
            "name": "Bistro_Research_Exterior_Paris_LiquorBottle_01A___7__6097",
            "primitives": [
                {
                    "mode": 4,
                    "material": 0,
                    "indices": 5,
                    "attributes": {
                        "POSITION": 0,
                        "NORMAL": 1,
                        "TANGENT": 2,
                        "TEXCOORD_0": 3,
                        "TEXCOORD_1": 4
                    }
                }
            ]
        }
    ],
    "nodes": [
        {
            "name": "Bistro_Research_Exterior_Paris_LiquorBottle_01A___7__6097",
            "mesh": 0
        }
    ],
    "samplers": [
        {},
        {},
        {}
    ],
    "scenes": [
        {
            "nodes": [
                0
            ]
        }
    ],
    "textures": [
        {
            "source": 0,
            "sampler": 0
        },
        {
            "source": 1,
            "sampler": 1
        },
        {
            "source": 2,
            "sampler": 2
        }
    ],
    "scene": 0
}