{
    "asset": {
        "version": "2.0",
        "generator": "Open Asset Import Library (assimp v6.0.44188438)"
    },
    "extensionsUsed": [
        "KHR_materials_specular",
        "KHR_materials_volume",
        "FB_ngon_encoding"
    ],
    "accessors": [
        {
            "bufferView": 0,
            "byteOffset": 0,
            "componentType": 5126,
            "count": 312,
            "type": "VEC3",
            "max": [
                -551.7118530273438,
                -454.7253112792969,
                1157.6168212890625
            ],
            "min": [
                -2414.70068359375,
                -2225.389404296875,
                2.2250738585072014e-308
            ]
        },
        {
            "bufferView": 1,
            "byteOffset": 0,
            "componentType": 5126,
            "count": 312,
            "type": "VEC3",
            "max": [
                0.7528150081634521,
                0.9799679517745972,
                0.999984622001648
            ],
            "min": [
                -0.9972280263900757,
                -0.7600840330123901,
                -0.999984622001648
            ]
        },
        {
            "bufferView": 2,
            "byteOffset": 0,
            "componentType": 5126,
            "count": 312,
            "type": "VEC3",
            "max": [
                0.8651520013809204,
                0.997434675693512,
                0.9999923706054688
            ],
            "min": [
                -0.997443437576294,
                -0.9974329471588135,
                -0.9999923706054688
            ]
        },
        {
            "bufferView": 3,
            "byteOffset": 0,
            "componentType": 5126,
            "count": 312,
            "type": "VEC2",
            "max": [
                9.578125,
                9.578125
            ],
            "min": [
                -8.5703125,
                -2.427734375
            ]
        },
        {
            "bufferView": 4,
            "byteOffset": 0,
            "componentType": 5126,
            "count": 312,
            "type": "VEC2",
            "max": [
                0.98388671875,
                0.9921875
            ],
            "min": [
                2.2250738585072014e-308,
                2.2250738585072014e-308
            ]
        },
        {
            "bufferView": 5,
            "byteOffset": 0,
            "componentType": 5125,
            "count": 861,
            "type": "SCALAR",
            "max": [
                311
            ],
            "min": [
                0
            ]
        }
    ],
    "buffers": [
        {
            "byteLength": 19668,
            "uri": "Bistro_Research_Exterior_paris_building_03_4933.bin"
        }
    ],
    "bufferViews": [
        {
            "buffer": 0,
            "byteOffset": 0,
            "byteLength": 3744,
            "target": 34962
        },
        {
            "buffer": 0,
            "byteOffset": 3744,
            "byteLength": 3744,
            "target": 34962
        },
        {
            "buffer": 0,
            "byteOffset": 7488,
            "byteLength": 3744,
            "target": 34962
        },
        {
            "buffer": 0,
            "byteOffset": 11232,
            "byteLength": 2496,
            "target": 34962
        },
        {
            "buffer": 0,
            "byteOffset": 13728,
            "byteLength": 2496,
            "target": 34962
        },
        {
            "buffer": 0,
            "byteOffset": 16224,
            "byteLength": 3444,
            "target": 34963
        }
    ],
    "images": [
        {
            "uri": "Textures\\MASTER_Concrete_Plaster_BaseColor.dds"
        },
        {
            "uri": "Textures\\MASTER_Concrete_Plaster_Normal.dds"
        },
        {
            "uri": "Textures\\MASTER_Concrete_Plaster_Specular.dds"
        }
    ],
    "materials": [
        {
            "name": "MASTER_Concrete_Plaster",
            "pbrMetallicRoughness": {
                "baseColorTexture": {
                    "index": 0
                },
                "metallicFactor": 0.0,
                "roughnessFactor": 0.5527864098548889
            },
            "normalTexture": {
                "index": 1
            },
            "extensions": {
                "KHR_materials_specular": {
                    "specularFactor": 1.0,
                    "specularColorFactor": [
                        0.5,
                        0.5,
                        0.5
                    ],
                    "specularTexture": {
                        "index": 2
                    }
                }
            }
        }
    ],
    "meshes": [
        {
            "name": "Bistro_Research_Exterior_paris_building_03_4933",
            "primitives": [
                {
                    "mode": 4,
                    "material": 0,
                    "indices": 5,
                    "attributes": {
                        "POSITION": 0,
                        "NORMAL": 1,
                        "TANGENT": 2,
                        "TEXCOORD_0": 3,
                        "TEXCOORD_1": 4
                    }
                }
            ]
        }
    ],
    "nodes": [
        {
            "name": "Bistro_Research_Exterior_paris_building_03_4933",
            "mesh": 0
        }
    ],
    "samplers": [
        {},
        {},
        {}
    ],
    "scenes": [
        {
            "nodes": [
                0
            ]
        }
    ],
    "textures": [
        {
            "source": 0,
            "sampler": 0
        },
        {
            "source": 1,
            "sampler": 1
        },
        {
            "source": 2,
            "sampler": 2
        }
    ],
    "scene": 0
}