{
    "asset": {
        "version": "2.0",
        "generator": "Open Asset Import Library (assimp v6.0.44188438)"
    },
    "extensionsUsed": [
        "KHR_materials_specular",
        "KHR_materials_volume",
        "FB_ngon_encoding"
    ],
    "accessors": [
        {
            "bufferView": 0,
            "byteOffset": 0,
            "componentType": 5126,
            "count": 8,
            "type": "VEC3",
            "max": [
                -142.03892517089844,
                344.87921142578125,
                290.4619140625
            ],
            "min": [
                -183.3612518310547,
                2.2250738585072014e-308,
                2.2250738585072014e-308
            ]
        },
        {
            "bufferView": 1,
            "byteOffset": 0,
            "componentType": 5126,
            "count": 8,
            "type": "VEC3",
            "max": [
                -0.87744140625,
                0.47966793179512024,
                -0.0038996802177280188
            ],
            "min": [
                -0.9013334512710571,
                -0.43310829997062683,
                -0.0039018169045448303
            ]
        },
        {
            "bufferView": 2,
            "byteOffset": 0,
            "componentType": 5126,
            "count": 8,
            "type": "VEC3",
            "max": [
                0.4796716570854187,
                0.9013403654098511,
                0.000010994257536367513
            ],
            "min": [
                -0.43311169743537903,
                2.2250738585072014e-308,
                -9.269301131098473e-7
            ]
        },
        {
            "bufferView": 3,
            "byteOffset": 0,
            "componentType": 5126,
            "count": 8,
            "type": "VEC2",
            "max": [
                0.88671875,
                1.16015625
            ],
            "min": [
                2.2250738585072014e-308,
                -0.064453125
            ]
        },
        {
            "bufferView": 4,
            "byteOffset": 0,
            "componentType": 5126,
            "count": 8,
            "type": "VEC2",
            "max": [
                0.9921875,
                0.9921875
            ],
            "min": [
                2.2250738585072014e-308,
                2.2250738585072014e-308
            ]
        },
        {
            "bufferView": 5,
            "byteOffset": 0,
            "componentType": 5125,
            "count": 12,
            "type": "SCALAR",
            "max": [
                7
            ],
            "min": [
                0
            ]
        }
    ],
    "buffers": [
        {
            "byteLength": 464,
            "uri": "Bistro_Research_Exterior_Paris_Building_01_paris_building_01_bottom_4757.bin"
        }
    ],
    "bufferViews": [
        {
            "buffer": 0,
            "byteOffset": 0,
            "byteLength": 96,
            "target": 34962
        },
        {
            "buffer": 0,
            "byteOffset": 96,
            "byteLength": 96,
            "target": 34962
        },
        {
            "buffer": 0,
            "byteOffset": 192,
            "byteLength": 96,
            "target": 34962
        },
        {
            "buffer": 0,
            "byteOffset": 288,
            "byteLength": 64,
            "target": 34962
        },
        {
            "buffer": 0,
            "byteOffset": 352,
            "byteLength": 64,
            "target": 34962
        },
        {
            "buffer": 0,
            "byteOffset": 416,
            "byteLength": 48,
            "target": 34963
        }
    ],
    "images": [
        {
            "uri": "Textures\\MASTER_Wood_Painted3_BaseColor.dds"
        },
        {
            "uri": "Textures\\MASTER_Wood_Painted3_Normal.dds"
        },
        {
            "uri": "Textures\\MASTER_Wood_Painted3_Specular.dds"
        }
    ],
    "materials": [
        {
            "name": "MASTER_Wood_Painted3",
            "pbrMetallicRoughness": {
                "baseColorTexture": {
                    "index": 0
                },
                "metallicFactor": 0.0,
                "roughnessFactor": 0.5527864098548889
            },
            "normalTexture": {
                "index": 1
            },
            "extensions": {
                "KHR_materials_specular": {
                    "specularFactor": 1.0,
                    "specularColorFactor": [
                        0.5,
                        0.5,
                        0.5
                    ],
                    "specularTexture": {
                        "index": 2
                    }
                }
            }
        }
    ],
    "meshes": [
        {
            "name": "Bistro_Research_Exterior_Paris_Building_01_paris_building_01_bottom_4757",
            "primitives": [
                {
                    "mode": 4,
                    "material": 0,
                    "indices": 5,
                    "attributes": {
                        "POSITION": 0,
                        "NORMAL": 1,
                        "TANGENT": 2,
                        "TEXCOORD_0": 3,
                        "TEXCOORD_1": 4
                    }
                }
            ]
        }
    ],
    "nodes": [
        {
            "name": "Bistro_Research_Exterior_Paris_Building_01_paris_building_01_bottom_4757",
            "mesh": 0
        }
    ],
    "samplers": [
        {},
        {},
        {}
    ],
    "scenes": [
        {
            "nodes": [
                0
            ]
        }
    ],
    "textures": [
        {
            "source": 0,
            "sampler": 0
        },
        {
            "source": 1,
            "sampler": 1
        },
        {
            "source": 2,
            "sampler": 2
        }
    ],
    "scene": 0
}