{
    "asset": {
        "version": "2.0",
        "generator": "Open Asset Import Library (assimp v6.0.44188438)"
    },
    "extensionsUsed": [
        "KHR_materials_specular",
        "KHR_materials_volume",
        "FB_ngon_encoding"
    ],
    "accessors": [
        {
            "bufferView": 0,
            "byteOffset": 0,
            "componentType": 5126,
            "count": 150,
            "type": "VEC3",
            "max": [
                371.5918884277344,
                -274.3961486816406,
                423.1122131347656
            ],
            "min": [
                2.2250738585072014e-308,
                -282.51983642578125,
                2.2250738585072014e-308
            ]
        },
        {
            "bufferView": 1,
            "byteOffset": 0,
            "componentType": 5126,
            "count": 150,
            "type": "VEC3",
            "max": [
                0.996812641620636,
                0.9938292503356934,
                0.9988614916801453
            ],
            "min": [
                -0.999984622001648,
                -0.9370675683021545,
                -0.875420093536377
            ]
        },
        {
            "bufferView": 2,
            "byteOffset": 0,
            "componentType": 5126,
            "count": 150,
            "type": "VEC3",
            "max": [
                0.9575626850128174,
                0.9980211853981018,
                0.9150015711784363
            ],
            "min": [
                -0.9994364380836487,
                -0.9931589365005493,
                -0.9496842622756958
            ]
        },
        {
            "bufferView": 3,
            "byteOffset": 0,
            "componentType": 5126,
            "count": 150,
            "type": "VEC2",
            "max": [
                0.61669921875,
                0.841796875
            ],
            "min": [
                2.2250738585072014e-308,
                2.2250738585072014e-308
            ]
        },
        {
            "bufferView": 4,
            "byteOffset": 0,
            "componentType": 5126,
            "count": 150,
            "type": "VEC2",
            "max": [
                0.9921875,
                0.9921875
            ],
            "min": [
                2.2250738585072014e-308,
                2.2250738585072014e-308
            ]
        },
        {
            "bufferView": 5,
            "byteOffset": 0,
            "componentType": 5125,
            "count": 720,
            "type": "SCALAR",
            "max": [
                149
            ],
            "min": [
                0
            ]
        }
    ],
    "buffers": [
        {
            "byteLength": 10680,
            "uri": "Bistro_Research_Exterior_Paris_Building_01_paris_building_01_bottom_4601.bin"
        }
    ],
    "bufferViews": [
        {
            "buffer": 0,
            "byteOffset": 0,
            "byteLength": 1800,
            "target": 34962
        },
        {
            "buffer": 0,
            "byteOffset": 1800,
            "byteLength": 1800,
            "target": 34962
        },
        {
            "buffer": 0,
            "byteOffset": 3600,
            "byteLength": 1800,
            "target": 34962
        },
        {
            "buffer": 0,
            "byteOffset": 5400,
            "byteLength": 1200,
            "target": 34962
        },
        {
            "buffer": 0,
            "byteOffset": 6600,
            "byteLength": 1200,
            "target": 34962
        },
        {
            "buffer": 0,
            "byteOffset": 7800,
            "byteLength": 2880,
            "target": 34963
        }
    ],
    "images": [
        {
            "uri": "Textures\\MASTER_Focus_BaseColor.dds"
        },
        {
            "uri": "Textures\\MASTER_Focus_Normal.dds"
        },
        {
            "uri": "Textures\\MASTER_Focus_Specular.dds"
        }
    ],
    "materials": [
        {
            "name": "MASTER_Focus",
            "pbrMetallicRoughness": {
                "baseColorTexture": {
                    "index": 0
                },
                "metallicFactor": 0.0,
                "roughnessFactor": 0.5527864098548889
            },
            "normalTexture": {
                "index": 1
            },
            "extensions": {
                "KHR_materials_specular": {
                    "specularFactor": 1.0,
                    "specularColorFactor": [
                        0.5,
                        0.5,
                        0.5
                    ],
                    "specularTexture": {
                        "index": 2
                    }
                }
            }
        }
    ],
    "meshes": [
        {
            "name": "Bistro_Research_Exterior_Paris_Building_01_paris_building_01_bottom_4601",
            "primitives": [
                {
                    "mode": 4,
                    "material": 0,
                    "indices": 5,
                    "attributes": {
                        "POSITION": 0,
                        "NORMAL": 1,
                        "TANGENT": 2,
                        "TEXCOORD_0": 3,
                        "TEXCOORD_1": 4
                    }
                }
            ]
        }
    ],
    "nodes": [
        {
            "name": "Bistro_Research_Exterior_Paris_Building_01_paris_building_01_bottom_4601",
            "mesh": 0
        }
    ],
    "samplers": [
        {},
        {},
        {}
    ],
    "scenes": [
        {
            "nodes": [
                0
            ]
        }
    ],
    "textures": [
        {
            "source": 0,
            "sampler": 0
        },
        {
            "source": 1,
            "sampler": 1
        },
        {
            "source": 2,
            "sampler": 2
        }
    ],
    "scene": 0
}