{
    "asset": {
        "version": "2.0",
        "generator": "Open Asset Import Library (assimp v6.0.44188438)"
    },
    "extensionsUsed": [
        "KHR_materials_specular",
        "KHR_materials_volume",
        "FB_ngon_encoding"
    ],
    "accessors": [
        {
            "bufferView": 0,
            "byteOffset": 0,
            "componentType": 5126,
            "count": 18,
            "type": "VEC3",
            "max": [
                1971.19384765625,
                -924.9526977539063,
                705.2587280273438
            ],
            "min": [
                2.2250738585072014e-308,
                -1815.62548828125,
                2.2250738585072014e-308
            ]
        },
        {
            "bufferView": 1,
            "byteOffset": 0,
            "componentType": 5126,
            "count": 18,
            "type": "VEC3",
            "max": [
                0.35583004355430603,
                0.9345425367355347,
                -0.003910160157829523
            ],
            "min": [
                -0.36528491973876953,
                -0.9308875799179077,
                -0.003927735146135092
            ]
        },
        {
            "bufferView": 2,
            "byteOffset": 0,
            "componentType": 5126,
            "count": 18,
            "type": "VEC3",
            "max": [
                0.9308947920799255,
                0.3558330535888672,
                0.00007948646089062095
            ],
            "min": [
                -0.9345496892929077,
                -0.3652878403663635,
                -0.00005010084350942634
            ]
        },
        {
            "bufferView": 3,
            "byteOffset": 0,
            "componentType": 5126,
            "count": 18,
            "type": "VEC2",
            "max": [
                2.71875,
                2.1875
            ],
            "min": [
                -2.25,
                -1.1875
            ]
        },
        {
            "bufferView": 4,
            "byteOffset": 0,
            "componentType": 5126,
            "count": 18,
            "type": "VEC2",
            "max": [
                0.72021484375,
                0.9921875
            ],
            "min": [
                2.2250738585072014e-308,
                2.2250738585072014e-308
            ]
        },
        {
            "bufferView": 5,
            "byteOffset": 0,
            "componentType": 5125,
            "count": 48,
            "type": "SCALAR",
            "max": [
                17
            ],
            "min": [
                0
            ]
        }
    ],
    "buffers": [
        {
            "byteLength": 1128,
            "uri": "Bistro_Research_Exterior_paris_building_02_4907.bin"
        }
    ],
    "bufferViews": [
        {
            "buffer": 0,
            "byteOffset": 0,
            "byteLength": 216,
            "target": 34962
        },
        {
            "buffer": 0,
            "byteOffset": 216,
            "byteLength": 216,
            "target": 34962
        },
        {
            "buffer": 0,
            "byteOffset": 432,
            "byteLength": 216,
            "target": 34962
        },
        {
            "buffer": 0,
            "byteOffset": 648,
            "byteLength": 144,
            "target": 34962
        },
        {
            "buffer": 0,
            "byteOffset": 792,
            "byteLength": 144,
            "target": 34962
        },
        {
            "buffer": 0,
            "byteOffset": 936,
            "byteLength": 192,
            "target": 34963
        }
    ],
    "images": [
        {
            "uri": "Textures\\MASTER_Brick_Large_Beige_BLENDSHADER_BaseColor.dds"
        },
        {
            "uri": "Textures\\MASTER_Brick_Large_Beige_BLENDSHADER_Normal.dds"
        },
        {
            "uri": "Textures\\MASTER_Brick_Large_Beige_BLENDSHADER_Specular.dds"
        }
    ],
    "materials": [
        {
            "name": "MASTER_Brick_Large_Beige_BLENDSHADER",
            "pbrMetallicRoughness": {
                "baseColorTexture": {
                    "index": 0
                },
                "metallicFactor": 0.0,
                "roughnessFactor": 0.5527864098548889
            },
            "normalTexture": {
                "index": 1
            },
            "extensions": {
                "KHR_materials_specular": {
                    "specularFactor": 1.0,
                    "specularColorFactor": [
                        0.5,
                        0.5,
                        0.5
                    ],
                    "specularTexture": {
                        "index": 2
                    }
                }
            }
        }
    ],
    "meshes": [
        {
            "name": "Bistro_Research_Exterior_paris_building_02_4907",
            "primitives": [
                {
                    "mode": 4,
                    "material": 0,
                    "indices": 5,
                    "attributes": {
                        "POSITION": 0,
                        "NORMAL": 1,
                        "TANGENT": 2,
                        "TEXCOORD_0": 3,
                        "TEXCOORD_1": 4
                    }
                }
            ]
        }
    ],
    "nodes": [
        {
            "name": "Bistro_Research_Exterior_paris_building_02_4907",
            "mesh": 0
        }
    ],
    "samplers": [
        {},
        {},
        {}
    ],
    "scenes": [
        {
            "nodes": [
                0
            ]
        }
    ],
    "textures": [
        {
            "source": 0,
            "sampler": 0
        },
        {
            "source": 1,
            "sampler": 1
        },
        {
            "source": 2,
            "sampler": 2
        }
    ],
    "scene": 0
}