{
    "asset": {
        "version": "2.0",
        "generator": "Open Asset Import Library (assimp v6.0.44188438)"
    },
    "extensionsUsed": [
        "KHR_materials_specular",
        "KHR_materials_volume",
        "FB_ngon_encoding"
    ],
    "accessors": [
        {
            "bufferView": 0,
            "byteOffset": 0,
            "componentType": 5126,
            "count": 20532,
            "type": "VEC3",
            "max": [
                203.10963439941406,
                2947.8232421875,
                1664.8079833984375
            ],
            "min": [
                -1728.85546875,
                2.2250738585072014e-308,
                2.2250738585072014e-308
            ]
        },
        {
            "bufferView": 1,
            "byteOffset": 0,
            "componentType": 5126,
            "count": 20532,
            "type": "VEC3",
            "max": [
                0.9990483522415161,
                0.9990631937980652,
                0.999984622001648
            ],
            "min": [
                -0.9993701577186584,
                -0.9993600845336914,
                -0.999984622001648
            ]
        },
        {
            "bufferView": 2,
            "byteOffset": 0,
            "componentType": 5126,
            "count": 20532,
            "type": "VEC3",
            "max": [
                0.9998962879180908,
                0.9998953938484192,
                0.9999924898147583
            ],
            "min": [
                -0.9998963475227356,
                -0.9990562200546265,
                -0.9999924898147583
            ]
        },
        {
            "bufferView": 3,
            "byteOffset": 0,
            "componentType": 5126,
            "count": 20532,
            "type": "VEC2",
            "max": [
                0.99560546875,
                0.9904327392578125
            ],
            "min": [
                2.2250738585072014e-308,
                2.2250738585072014e-308
            ]
        },
        {
            "bufferView": 4,
            "byteOffset": 0,
            "componentType": 5126,
            "count": 20532,
            "type": "VEC2",
            "max": [
                0.99560546875,
                0.9904327392578125
            ],
            "min": [
                2.2250738585072014e-308,
                2.2250738585072014e-308
            ]
        },
        {
            "bufferView": 5,
            "byteOffset": 0,
            "componentType": 5125,
            "count": 37422,
            "type": "SCALAR",
            "max": [
                20531
            ],
            "min": [
                0
            ]
        }
    ],
    "buffers": [
        {
            "byteLength": 1217352,
            "uri": "Bistro_Research_Exterior_paris_building_09_5465.bin"
        }
    ],
    "bufferViews": [
        {
            "buffer": 0,
            "byteOffset": 0,
            "byteLength": 246384,
            "target": 34962
        },
        {
            "buffer": 0,
            "byteOffset": 246384,
            "byteLength": 246384,
            "target": 34962
        },
        {
            "buffer": 0,
            "byteOffset": 492768,
            "byteLength": 246384,
            "target": 34962
        },
        {
            "buffer": 0,
            "byteOffset": 739152,
            "byteLength": 164256,
            "target": 34962
        },
        {
            "buffer": 0,
            "byteOffset": 903408,
            "byteLength": 164256,
            "target": 34962
        },
        {
            "buffer": 0,
            "byteOffset": 1067664,
            "byteLength": 149688,
            "target": 34963
        }
    ],
    "images": [
        {
            "uri": "Textures\\MASTER_Details_Dark_BaseColor.dds"
        },
        {
            "uri": "Textures\\MASTER_Details_Dark_Normal.dds"
        },
        {
            "uri": "Textures\\MASTER_Details_Dark_Specular.dds"
        }
    ],
    "materials": [
        {
            "name": "MASTER_Details_Dark",
            "pbrMetallicRoughness": {
                "baseColorTexture": {
                    "index": 0
                },
                "metallicFactor": 0.0,
                "roughnessFactor": 0.5527864098548889
            },
            "normalTexture": {
                "index": 1
            },
            "extensions": {
                "KHR_materials_specular": {
                    "specularFactor": 1.0,
                    "specularColorFactor": [
                        0.5,
                        0.5,
                        0.5
                    ],
                    "specularTexture": {
                        "index": 2
                    }
                }
            }
        }
    ],
    "meshes": [
        {
            "name": "Bistro_Research_Exterior_paris_building_09_5465",
            "primitives": [
                {
                    "mode": 4,
                    "material": 0,
                    "indices": 5,
                    "attributes": {
                        "POSITION": 0,
                        "NORMAL": 1,
                        "TANGENT": 2,
                        "TEXCOORD_0": 3,
                        "TEXCOORD_1": 4
                    }
                }
            ]
        }
    ],
    "nodes": [
        {
            "name": "Bistro_Research_Exterior_paris_building_09_5465",
            "mesh": 0
        }
    ],
    "samplers": [
        {},
        {},
        {}
    ],
    "scenes": [
        {
            "nodes": [
                0
            ]
        }
    ],
    "textures": [
        {
            "source": 0,
            "sampler": 0
        },
        {
            "source": 1,
            "sampler": 1
        },
        {
            "source": 2,
            "sampler": 2
        }
    ],
    "scene": 0
}