{
    "asset": {
        "version": "2.0",
        "generator": "Open Asset Import Library (assimp v6.0.44188438)"
    },
    "extensionsUsed": [
        "KHR_materials_specular",
        "KHR_materials_volume",
        "FB_ngon_encoding"
    ],
    "accessors": [
        {
            "bufferView": 0,
            "byteOffset": 0,
            "componentType": 5126,
            "count": 6429,
            "type": "VEC3",
            "max": [
                524.3925170898438,
                631.0003662109375,
                2408.728515625
            ],
            "min": [
                2.2250738585072014e-308,
                2.2250738585072014e-308,
                2.2250738585072014e-308
            ]
        },
        {
            "bufferView": 1,
            "byteOffset": 0,
            "componentType": 5126,
            "count": 6429,
            "type": "VEC3",
            "max": [
                0.9999219179153442,
                0.9990018606185913,
                0.999984622001648
            ],
            "min": [
                -0.999984622001648,
                -0.9992977380752563,
                -0.999984622001648
            ]
        },
        {
            "bufferView": 2,
            "byteOffset": 0,
            "componentType": 5126,
            "count": 6429,
            "type": "VEC3",
            "max": [
                0.9999876618385315,
                0.9999917149543762,
                0.9999924898147583
            ],
            "min": [
                -0.9966261982917786,
                -0.9920644760131836,
                -0.9999923706054688
            ]
        },
        {
            "bufferView": 3,
            "byteOffset": 0,
            "componentType": 5126,
            "count": 6429,
            "type": "VEC2",
            "max": [
                1.0048828125,
                0.9974842071533203
            ],
            "min": [
                -0.01495361328125,
                -0.01171875
            ]
        },
        {
            "bufferView": 4,
            "byteOffset": 0,
            "componentType": 5126,
            "count": 6429,
            "type": "VEC2",
            "max": [
                0.9833984375,
                0.9921875
            ],
            "min": [
                2.2250738585072014e-308,
                2.2250738585072014e-308
            ]
        },
        {
            "bufferView": 5,
            "byteOffset": 0,
            "componentType": 5125,
            "count": 14805,
            "type": "SCALAR",
            "max": [
                6428
            ],
            "min": [
                0
            ]
        }
    ],
    "buffers": [
        {
            "byteLength": 393528,
            "uri": "Bistro_Research_Exterior_Paris_Aerial_01B1_4055_0.bin"
        }
    ],
    "bufferViews": [
        {
            "buffer": 0,
            "byteOffset": 0,
            "byteLength": 77148,
            "target": 34962
        },
        {
            "buffer": 0,
            "byteOffset": 77148,
            "byteLength": 77148,
            "target": 34962
        },
        {
            "buffer": 0,
            "byteOffset": 154296,
            "byteLength": 77148,
            "target": 34962
        },
        {
            "buffer": 0,
            "byteOffset": 231444,
            "byteLength": 51432,
            "target": 34962
        },
        {
            "buffer": 0,
            "byteOffset": 282876,
            "byteLength": 51432,
            "target": 34962
        },
        {
            "buffer": 0,
            "byteOffset": 334308,
            "byteLength": 59220,
            "target": 34963
        }
    ],
    "images": [
        {
            "uri": "Textures\\Antenna_Plastic_Blue_BaseColor.dds"
        },
        {
            "uri": "Textures\\Antenna_Plastic_Blue_Normal.dds"
        },
        {
            "uri": "Textures\\Antenna_Plastic_Blue_Specular.dds"
        }
    ],
    "materials": [
        {
            "name": "Antenna_Plastic_Blue",
            "pbrMetallicRoughness": {
                "baseColorTexture": {
                    "index": 0
                },
                "metallicFactor": 0.0,
                "roughnessFactor": 0.5527864098548889
            },
            "normalTexture": {
                "index": 1
            },
            "extensions": {
                "KHR_materials_specular": {
                    "specularFactor": 1.0,
                    "specularColorFactor": [
                        0.5,
                        0.5,
                        0.5
                    ],
                    "specularTexture": {
                        "index": 2
                    }
                }
            }
        }
    ],
    "meshes": [
        {
            "name": "Bistro_Research_Exterior_Paris_Aerial_01B1_4055",
            "primitives": [
                {
                    "mode": 4,
                    "material": 0,
                    "indices": 5,
                    "attributes": {
                        "POSITION": 0,
                        "NORMAL": 1,
                        "TANGENT": 2,
                        "TEXCOORD_0": 3,
                        "TEXCOORD_1": 4
                    }
                }
            ]
        }
    ],
    "nodes": [
        {
            "name": "Bistro_Research_Exterior_Paris_Aerial_01B1_4055",
            "mesh": 0
        }
    ],
    "samplers": [
        {},
        {},
        {}
    ],
    "scenes": [
        {
            "nodes": [
                0
            ]
        }
    ],
    "textures": [
        {
            "source": 0,
            "sampler": 0
        },
        {
            "source": 1,
            "sampler": 1
        },
        {
            "source": 2,
            "sampler": 2
        }
    ],
    "scene": 0
}