{
    "asset": {
        "version": "2.0",
        "generator": "Open Asset Import Library (assimp v6.0.44188438)"
    },
    "extensionsUsed": [
        "KHR_materials_specular",
        "KHR_materials_volume",
        "FB_ngon_encoding"
    ],
    "accessors": [
        {
            "bufferView": 0,
            "byteOffset": 0,
            "componentType": 5126,
            "count": 10,
            "type": "VEC3",
            "max": [
                3513.01025390625,
                -2866.206787109375,
                27.3441219329834
            ],
            "min": [
                2.2250738585072014e-308,
                -3106.750732421875,
                2.2250738585072014e-308
            ]
        },
        {
            "bufferView": 1,
            "byteOffset": 0,
            "componentType": 5126,
            "count": 10,
            "type": "VEC3",
            "max": [
                -0.00392144825309515,
                0.00392144825309515,
                0.999984622001648
            ],
            "min": [
                -0.00392144825309515,
                2.2250738585072014e-308,
                2.2250738585072014e-308
            ]
        },
        {
            "bufferView": 2,
            "byteOffset": 0,
            "componentType": 5126,
            "count": 10,
            "type": "VEC3",
            "max": [
                0.7169674038887024,
                -0.6970846652984619,
                0.005545560270547867
            ],
            "min": [
                2.2250738585072014e-308,
                -0.7009791731834412,
                2.2250738585072014e-308
            ]
        },
        {
            "bufferView": 3,
            "byteOffset": 0,
            "componentType": 5126,
            "count": 10,
            "type": "VEC2",
            "max": [
                9.0703125,
                5.15234375
            ],
            "min": [
                2.2250738585072014e-308,
                2.2250738585072014e-308
            ]
        },
        {
            "bufferView": 4,
            "byteOffset": 0,
            "componentType": 5126,
            "count": 10,
            "type": "VEC2",
            "max": [
                0.9921875,
                0.9921875
            ],
            "min": [
                2.2250738585072014e-308,
                2.2250738585072014e-308
            ]
        },
        {
            "bufferView": 5,
            "byteOffset": 0,
            "componentType": 5125,
            "count": 24,
            "type": "SCALAR",
            "max": [
                9
            ],
            "min": [
                0
            ]
        }
    ],
    "buffers": [
        {
            "byteLength": 616,
            "uri": "Bistro_Research_Exterior_Paris_Street_6243.bin"
        }
    ],
    "bufferViews": [
        {
            "buffer": 0,
            "byteOffset": 0,
            "byteLength": 120,
            "target": 34962
        },
        {
            "buffer": 0,
            "byteOffset": 120,
            "byteLength": 120,
            "target": 34962
        },
        {
            "buffer": 0,
            "byteOffset": 240,
            "byteLength": 120,
            "target": 34962
        },
        {
            "buffer": 0,
            "byteOffset": 360,
            "byteLength": 80,
            "target": 34962
        },
        {
            "buffer": 0,
            "byteOffset": 440,
            "byteLength": 80,
            "target": 34962
        },
        {
            "buffer": 0,
            "byteOffset": 520,
            "byteLength": 96,
            "target": 34963
        }
    ],
    "images": [
        {
            "uri": "Textures\\Pavement_Ground_Wet_BaseColor.dds"
        },
        {
            "uri": "Textures\\Pavement_Ground_Wet_Normal.dds"
        },
        {
            "uri": "Textures\\Pavement_Ground_Wet_Specular.dds"
        }
    ],
    "materials": [
        {
            "name": "Pavement_Ground_Wet",
            "pbrMetallicRoughness": {
                "baseColorTexture": {
                    "index": 0
                },
                "metallicFactor": 0.0,
                "roughnessFactor": 0.5527864098548889
            },
            "normalTexture": {
                "index": 1
            },
            "extensions": {
                "KHR_materials_specular": {
                    "specularFactor": 1.0,
                    "specularColorFactor": [
                        0.5,
                        0.5,
                        0.5
                    ],
                    "specularTexture": {
                        "index": 2
                    }
                }
            }
        }
    ],
    "meshes": [
        {
            "name": "Bistro_Research_Exterior_Paris_Street_6243",
            "primitives": [
                {
                    "mode": 4,
                    "material": 0,
                    "indices": 5,
                    "attributes": {
                        "POSITION": 0,
                        "NORMAL": 1,
                        "TANGENT": 2,
                        "TEXCOORD_0": 3,
                        "TEXCOORD_1": 4
                    }
                }
            ]
        }
    ],
    "nodes": [
        {
            "name": "Bistro_Research_Exterior_Paris_Street_6243",
            "mesh": 0
        }
    ],
    "samplers": [
        {},
        {},
        {}
    ],
    "scenes": [
        {
            "nodes": [
                0
            ]
        }
    ],
    "textures": [
        {
            "source": 0,
            "sampler": 0
        },
        {
            "source": 1,
            "sampler": 1
        },
        {
            "source": 2,
            "sampler": 2
        }
    ],
    "scene": 0
}