{
    "asset": {
        "version": "2.0",
        "generator": "Open Asset Import Library (assimp v6.0.44188438)"
    },
    "extensionsUsed": [
        "KHR_materials_specular",
        "KHR_materials_volume",
        "FB_ngon_encoding"
    ],
    "accessors": [
        {
            "bufferView": 0,
            "byteOffset": 0,
            "componentType": 5126,
            "count": 245,
            "type": "VEC3",
            "max": [
                2052.437255859375,
                3352.256591796875,
                1898.708740234375
            ],
            "min": [
                2.2250738585072014e-308,
                2.2250738585072014e-308,
                2.2250738585072014e-308
            ]
        },
        {
            "bufferView": 1,
            "byteOffset": 0,
            "componentType": 5126,
            "count": 245,
            "type": "VEC3",
            "max": [
                0.9943459630012512,
                0.984298586845398,
                0.999984622001648
            ],
            "min": [
                -0.9935877919197083,
                -0.9826404452323914,
                -0.999984622001648
            ]
        },
        {
            "bufferView": 2,
            "byteOffset": 0,
            "componentType": 5126,
            "count": 245,
            "type": "VEC3",
            "max": [
                0.9843046069145203,
                0.8595298528671265,
                0.9999924302101135
            ],
            "min": [
                -0.8636392951011658,
                -0.9943529367446899,
                -0.9999924302101135
            ]
        },
        {
            "bufferView": 3,
            "byteOffset": 0,
            "componentType": 5126,
            "count": 245,
            "type": "VEC2",
            "max": [
                7.14453125,
                2.3447265625
            ],
            "min": [
                -2.68359375,
                -0.794921875
            ]
        },
        {
            "bufferView": 4,
            "byteOffset": 0,
            "componentType": 5126,
            "count": 245,
            "type": "VEC2",
            "max": [
                0.9921875,
                0.9921875
            ],
            "min": [
                2.2250738585072014e-308,
                2.2250738585072014e-308
            ]
        },
        {
            "bufferView": 5,
            "byteOffset": 0,
            "componentType": 5125,
            "count": 492,
            "type": "SCALAR",
            "max": [
                244
            ],
            "min": [
                0
            ]
        }
    ],
    "buffers": [
        {
            "byteLength": 14708,
            "uri": "Bistro_Research_Exterior_paris_building_05_5169.bin"
        }
    ],
    "bufferViews": [
        {
            "buffer": 0,
            "byteOffset": 0,
            "byteLength": 2940,
            "target": 34962
        },
        {
            "buffer": 0,
            "byteOffset": 2940,
            "byteLength": 2940,
            "target": 34962
        },
        {
            "buffer": 0,
            "byteOffset": 5880,
            "byteLength": 2940,
            "target": 34962
        },
        {
            "buffer": 0,
            "byteOffset": 8820,
            "byteLength": 1960,
            "target": 34962
        },
        {
            "buffer": 0,
            "byteOffset": 10780,
            "byteLength": 1960,
            "target": 34962
        },
        {
            "buffer": 0,
            "byteOffset": 12740,
            "byteLength": 1968,
            "target": 34963
        }
    ],
    "images": [
        {
            "uri": "Textures\\MASTER_Roofing_Shingle_Grey_BaseColor.dds"
        },
        {
            "uri": "Textures\\MASTER_Roofing_Shingle_Grey_Normal.dds"
        },
        {
            "uri": "Textures\\MASTER_Roofing_Shingle_Grey_Specular.dds"
        }
    ],
    "materials": [
        {
            "name": "MASTER_Roofing_Shingle_Grey",
            "pbrMetallicRoughness": {
                "baseColorTexture": {
                    "index": 0
                },
                "metallicFactor": 0.0,
                "roughnessFactor": 0.5527864098548889
            },
            "normalTexture": {
                "index": 1
            },
            "extensions": {
                "KHR_materials_specular": {
                    "specularFactor": 1.0,
                    "specularColorFactor": [
                        0.5,
                        0.5,
                        0.5
                    ],
                    "specularTexture": {
                        "index": 2
                    }
                }
            }
        }
    ],
    "meshes": [
        {
            "name": "Bistro_Research_Exterior_paris_building_05_5169",
            "primitives": [
                {
                    "mode": 4,
                    "material": 0,
                    "indices": 5,
                    "attributes": {
                        "POSITION": 0,
                        "NORMAL": 1,
                        "TANGENT": 2,
                        "TEXCOORD_0": 3,
                        "TEXCOORD_1": 4
                    }
                }
            ]
        }
    ],
    "nodes": [
        {
            "name": "Bistro_Research_Exterior_paris_building_05_5169",
            "mesh": 0
        }
    ],
    "samplers": [
        {},
        {},
        {}
    ],
    "scenes": [
        {
            "nodes": [
                0
            ]
        }
    ],
    "textures": [
        {
            "source": 0,
            "sampler": 0
        },
        {
            "source": 1,
            "sampler": 1
        },
        {
            "source": 2,
            "sampler": 2
        }
    ],
    "scene": 0
}