{
    "asset": {
        "version": "2.0",
        "generator": "Open Asset Import Library (assimp v6.0.44188438)"
    },
    "extensionsUsed": [
        "KHR_materials_specular",
        "KHR_materials_volume",
        "FB_ngon_encoding"
    ],
    "accessors": [
        {
            "bufferView": 0,
            "byteOffset": 0,
            "componentType": 5126,
            "count": 100,
            "type": "VEC3",
            "max": [
                -1231.880126953125,
                -223.94654846191406,
                862.4383544921875
            ],
            "min": [
                -1244.844970703125,
                -237.96607971191406,
                2.2250738585072014e-308
            ]
        },
        {
            "bufferView": 1,
            "byteOffset": 0,
            "componentType": 5126,
            "count": 100,
            "type": "VEC3",
            "max": [
                0.9338310956954956,
                0.9385250806808472,
                0.9914600253105164
            ],
            "min": [
                -0.9491390585899353,
                -0.9361010193824768,
                -0.9919626116752625
            ]
        },
        {
            "bufferView": 2,
            "byteOffset": 0,
            "componentType": 5126,
            "count": 100,
            "type": "VEC3",
            "max": [
                0.7775616645812988,
                0.6448405981063843,
                0.8054883480072021
            ],
            "min": [
                -0.7085165977478027,
                -0.8308995962142944,
                -0.8107303380966187
            ]
        },
        {
            "bufferView": 3,
            "byteOffset": 0,
            "componentType": 5126,
            "count": 100,
            "type": "VEC2",
            "max": [
                7.51171875,
                2.3349609375
            ],
            "min": [
                -3.609375,
                -2.33203125
            ]
        },
        {
            "bufferView": 4,
            "byteOffset": 0,
            "componentType": 5126,
            "count": 100,
            "type": "VEC2",
            "max": [
                0.58740234375,
                0.5546875
            ],
            "min": [
                2.2250738585072014e-308,
                2.2250738585072014e-308
            ]
        },
        {
            "bufferView": 5,
            "byteOffset": 0,
            "componentType": 5125,
            "count": 384,
            "type": "SCALAR",
            "max": [
                99
            ],
            "min": [
                0
            ]
        }
    ],
    "buffers": [
        {
            "byteLength": 6736,
            "uri": "Bistro_Research_Exterior_Spotlights_6521_1.bin"
        }
    ],
    "bufferViews": [
        {
            "buffer": 0,
            "byteOffset": 0,
            "byteLength": 1200,
            "target": 34962
        },
        {
            "buffer": 0,
            "byteOffset": 1200,
            "byteLength": 1200,
            "target": 34962
        },
        {
            "buffer": 0,
            "byteOffset": 2400,
            "byteLength": 1200,
            "target": 34962
        },
        {
            "buffer": 0,
            "byteOffset": 3600,
            "byteLength": 800,
            "target": 34962
        },
        {
            "buffer": 0,
            "byteOffset": 4400,
            "byteLength": 800,
            "target": 34962
        },
        {
            "buffer": 0,
            "byteOffset": 5200,
            "byteLength": 1536,
            "target": 34963
        }
    ],
    "images": [
        {
            "uri": "Textures\\Spotlight_Emissive_BaseColor.dds"
        },
        {
            "uri": "Textures\\Spotlight_Emissive_Normal.dds"
        },
        {
            "uri": "Textures\\Spotlight_Emissive_Specular.dds"
        }
    ],
    "materials": [
        {
            "name": "Spotlight_Emissive",
            "pbrMetallicRoughness": {
                "baseColorTexture": {
                    "index": 0
                },
                "metallicFactor": 0.0,
                "roughnessFactor": 0.5527864098548889
            },
            "normalTexture": {
                "index": 1
            },
            "extensions": {
                "KHR_materials_specular": {
                    "specularFactor": 1.0,
                    "specularColorFactor": [
                        0.5,
                        0.5,
                        0.5
                    ],
                    "specularTexture": {
                        "index": 2
                    }
                }
            }
        }
    ],
    "meshes": [
        {
            "name": "Bistro_Research_Exterior_Spotlights_6521",
            "primitives": [
                {
                    "mode": 4,
                    "material": 0,
                    "indices": 5,
                    "attributes": {
                        "POSITION": 0,
                        "NORMAL": 1,
                        "TANGENT": 2,
                        "TEXCOORD_0": 3,
                        "TEXCOORD_1": 4
                    }
                }
            ]
        }
    ],
    "nodes": [
        {
            "name": "Bistro_Research_Exterior_Spotlights_6521",
            "mesh": 0
        }
    ],
    "samplers": [
        {},
        {},
        {}
    ],
    "scenes": [
        {
            "nodes": [
                0
            ]
        }
    ],
    "textures": [
        {
            "source": 0,
            "sampler": 0
        },
        {
            "source": 1,
            "sampler": 1
        },
        {
            "source": 2,
            "sampler": 2
        }
    ],
    "scene": 0
}