{
    "asset": {
        "version": "2.0",
        "generator": "Open Asset Import Library (assimp v6.0.44188438)"
    },
    "extensionsUsed": [
        "KHR_materials_specular",
        "KHR_materials_volume",
        "FB_ngon_encoding"
    ],
    "accessors": [
        {
            "bufferView": 0,
            "byteOffset": 0,
            "componentType": 5126,
            "count": 179,
            "type": "VEC3",
            "max": [
                1611.076904296875,
                2057.716552734375,
                2421.6025390625
            ],
            "min": [
                2.2250738585072014e-308,
                2.2250738585072014e-308,
                2.2250738585072014e-308
            ]
        },
        {
            "bufferView": 1,
            "byteOffset": 0,
            "componentType": 5126,
            "count": 179,
            "type": "VEC3",
            "max": [
                0.994346022605896,
                0.7812455892562866,
                -0.003906577825546265
            ],
            "min": [
                -0.7774208784103394,
                -0.7743014693260193,
                -0.999984622001648
            ]
        },
        {
            "bufferView": 2,
            "byteOffset": 0,
            "componentType": 5126,
            "count": 179,
            "type": "VEC3",
            "max": [
                0.7743096351623535,
                0.994353175163269,
                0.033766988664865494
            ],
            "min": [
                -0.7812528610229492,
                -0.7774304747581482,
                -0.002343486063182354
            ]
        },
        {
            "bufferView": 3,
            "byteOffset": 0,
            "componentType": 5126,
            "count": 179,
            "type": "VEC2",
            "max": [
                5.44140625,
                7.4375
            ],
            "min": [
                -8.5078125,
                -6.47265625
            ]
        },
        {
            "bufferView": 4,
            "byteOffset": 0,
            "componentType": 5126,
            "count": 179,
            "type": "VEC2",
            "max": [
                0.9873046875,
                0.9921875
            ],
            "min": [
                2.2250738585072014e-308,
                2.2250738585072014e-308
            ]
        },
        {
            "bufferView": 5,
            "byteOffset": 0,
            "componentType": 5125,
            "count": 576,
            "type": "SCALAR",
            "max": [
                178
            ],
            "min": [
                0
            ]
        }
    ],
    "buffers": [
        {
            "byteLength": 11612,
            "uri": "Bistro_Research_Exterior_paris_building_04_4993.bin"
        }
    ],
    "bufferViews": [
        {
            "buffer": 0,
            "byteOffset": 0,
            "byteLength": 2148,
            "target": 34962
        },
        {
            "buffer": 0,
            "byteOffset": 2148,
            "byteLength": 2148,
            "target": 34962
        },
        {
            "buffer": 0,
            "byteOffset": 4296,
            "byteLength": 2148,
            "target": 34962
        },
        {
            "buffer": 0,
            "byteOffset": 6444,
            "byteLength": 1432,
            "target": 34962
        },
        {
            "buffer": 0,
            "byteOffset": 7876,
            "byteLength": 1432,
            "target": 34962
        },
        {
            "buffer": 0,
            "byteOffset": 9308,
            "byteLength": 2304,
            "target": 34963
        }
    ],
    "images": [
        {
            "uri": "Textures\\MASTER_Brick_Small_Red_BaseColor.dds"
        },
        {
            "uri": "Textures\\MASTER_Brick_Small_Red_Normal.dds"
        },
        {
            "uri": "Textures\\MASTER_Brick_Small_Red_Specular.dds"
        }
    ],
    "materials": [
        {
            "name": "MASTER_Brick_Small_Red",
            "pbrMetallicRoughness": {
                "baseColorTexture": {
                    "index": 0
                },
                "metallicFactor": 0.0,
                "roughnessFactor": 0.5527864098548889
            },
            "normalTexture": {
                "index": 1
            },
            "extensions": {
                "KHR_materials_specular": {
                    "specularFactor": 1.0,
                    "specularColorFactor": [
                        0.5,
                        0.5,
                        0.5
                    ],
                    "specularTexture": {
                        "index": 2
                    }
                }
            }
        }
    ],
    "meshes": [
        {
            "name": "Bistro_Research_Exterior_paris_building_04_4993",
            "primitives": [
                {
                    "mode": 4,
                    "material": 0,
                    "indices": 5,
                    "attributes": {
                        "POSITION": 0,
                        "NORMAL": 1,
                        "TANGENT": 2,
                        "TEXCOORD_0": 3,
                        "TEXCOORD_1": 4
                    }
                }
            ]
        }
    ],
    "nodes": [
        {
            "name": "Bistro_Research_Exterior_paris_building_04_4993",
            "mesh": 0
        }
    ],
    "samplers": [
        {},
        {},
        {}
    ],
    "scenes": [
        {
            "nodes": [
                0
            ]
        }
    ],
    "textures": [
        {
            "source": 0,
            "sampler": 0
        },
        {
            "source": 1,
            "sampler": 1
        },
        {
            "source": 2,
            "sampler": 2
        }
    ],
    "scene": 0
}