{
    "asset": {
        "version": "2.0",
        "generator": "Open Asset Import Library (assimp v6.0.44188438)"
    },
    "extensionsUsed": [
        "KHR_materials_specular",
        "KHR_materials_volume",
        "FB_ngon_encoding"
    ],
    "accessors": [
        {
            "bufferView": 0,
            "byteOffset": 0,
            "componentType": 5126,
            "count": 11226,
            "type": "VEC3",
            "max": [
                1788.763427734375,
                3357.4638671875,
                1432.9566650390625
            ],
            "min": [
                2.2250738585072014e-308,
                2.2250738585072014e-308,
                2.2250738585072014e-308
            ]
        },
        {
            "bufferView": 1,
            "byteOffset": 0,
            "componentType": 5126,
            "count": 11226,
            "type": "VEC3",
            "max": [
                0.9333674907684326,
                0.9998001456260681,
                0.999984622001648
            ],
            "min": [
                -0.9999231100082397,
                -0.9798367023468018,
                -0.999984622001648
            ]
        },
        {
            "bufferView": 2,
            "byteOffset": 0,
            "componentType": 5126,
            "count": 11226,
            "type": "VEC3",
            "max": [
                0.9993284940719604,
                0.9999675750732422,
                0.9999924898147583
            ],
            "min": [
                -0.9993772506713867,
                -0.971275269985199,
                -0.9999924302101135
            ]
        },
        {
            "bufferView": 3,
            "byteOffset": 0,
            "componentType": 5126,
            "count": 11226,
            "type": "VEC2",
            "max": [
                3.548828125,
                1.93115234375
            ],
            "min": [
                -1.046875,
                -0.6591796875
            ]
        },
        {
            "bufferView": 4,
            "byteOffset": 0,
            "componentType": 5126,
            "count": 11226,
            "type": "VEC2",
            "max": [
                0.986328125,
                0.9921913146972656
            ],
            "min": [
                2.2250738585072014e-308,
                2.2250738585072014e-308
            ]
        },
        {
            "bufferView": 5,
            "byteOffset": 0,
            "componentType": 5125,
            "count": 37092,
            "type": "SCALAR",
            "max": [
                11225
            ],
            "min": [
                0
            ]
        }
    ],
    "buffers": [
        {
            "byteLength": 732120,
            "uri": "Bistro_Research_Exterior_paris_building_05_5127.bin"
        }
    ],
    "bufferViews": [
        {
            "buffer": 0,
            "byteOffset": 0,
            "byteLength": 134712,
            "target": 34962
        },
        {
            "buffer": 0,
            "byteOffset": 134712,
            "byteLength": 134712,
            "target": 34962
        },
        {
            "buffer": 0,
            "byteOffset": 269424,
            "byteLength": 134712,
            "target": 34962
        },
        {
            "buffer": 0,
            "byteOffset": 404136,
            "byteLength": 89808,
            "target": 34962
        },
        {
            "buffer": 0,
            "byteOffset": 493944,
            "byteLength": 89808,
            "target": 34962
        },
        {
            "buffer": 0,
            "byteOffset": 583752,
            "byteLength": 148368,
            "target": 34963
        }
    ],
    "images": [
        {
            "uri": "Textures\\MASTER_Concrete_Smooth_BaseColor.dds"
        },
        {
            "uri": "Textures\\MASTER_Concrete_Smooth_Normal.dds"
        },
        {
            "uri": "Textures\\MASTER_Concrete_Smooth_Specular.dds"
        }
    ],
    "materials": [
        {
            "name": "MASTER_Concrete_Smooth",
            "pbrMetallicRoughness": {
                "baseColorTexture": {
                    "index": 0
                },
                "metallicFactor": 0.0,
                "roughnessFactor": 0.5527864098548889
            },
            "normalTexture": {
                "index": 1
            },
            "extensions": {
                "KHR_materials_specular": {
                    "specularFactor": 1.0,
                    "specularColorFactor": [
                        0.5,
                        0.5,
                        0.5
                    ],
                    "specularTexture": {
                        "index": 2
                    }
                }
            }
        }
    ],
    "meshes": [
        {
            "name": "Bistro_Research_Exterior_paris_building_05_5127",
            "primitives": [
                {
                    "mode": 4,
                    "material": 0,
                    "indices": 5,
                    "attributes": {
                        "POSITION": 0,
                        "NORMAL": 1,
                        "TANGENT": 2,
                        "TEXCOORD_0": 3,
                        "TEXCOORD_1": 4
                    }
                }
            ]
        }
    ],
    "nodes": [
        {
            "name": "Bistro_Research_Exterior_paris_building_05_5127",
            "mesh": 0
        }
    ],
    "samplers": [
        {},
        {},
        {}
    ],
    "scenes": [
        {
            "nodes": [
                0
            ]
        }
    ],
    "textures": [
        {
            "source": 0,
            "sampler": 0
        },
        {
            "source": 1,
            "sampler": 1
        },
        {
            "source": 2,
            "sampler": 2
        }
    ],
    "scene": 0
}