{
    "asset": {
        "version": "2.0",
        "generator": "Open Asset Import Library (assimp v6.0.44188438)"
    },
    "extensionsUsed": [
        "KHR_materials_specular",
        "KHR_materials_volume",
        "FB_ngon_encoding"
    ],
    "accessors": [
        {
            "bufferView": 0,
            "byteOffset": 0,
            "componentType": 5126,
            "count": 3016,
            "type": "VEC3",
            "max": [
                2831.667724609375,
                -2204.656494140625,
                369.77691650390625
            ],
            "min": [
                2.2250738585072014e-308,
                -2538.9951171875,
                2.2250738585072014e-308
            ]
        },
        {
            "bufferView": 1,
            "byteOffset": 0,
            "componentType": 5126,
            "count": 3016,
            "type": "VEC3",
            "max": [
                0.9272183179855347,
                0.9405240416526794,
                0.9998594522476196
            ],
            "min": [
                -0.9560179114341736,
                -0.9971842169761658,
                -0.9998001456260681
            ]
        },
        {
            "bufferView": 2,
            "byteOffset": 0,
            "componentType": 5126,
            "count": 3016,
            "type": "VEC3",
            "max": [
                0.9955539107322693,
                0.919459342956543,
                0.9993634819984436
            ],
            "min": [
                -0.9690235257148743,
                -0.9084435701370239,
                -0.9105790853500366
            ]
        },
        {
            "bufferView": 3,
            "byteOffset": 0,
            "componentType": 5126,
            "count": 3016,
            "type": "VEC2",
            "max": [
                0.98828125,
                0.9886245727539063
            ],
            "min": [
                2.2250738585072014e-308,
                2.2250738585072014e-308
            ]
        },
        {
            "bufferView": 4,
            "byteOffset": 0,
            "componentType": 5126,
            "count": 3016,
            "type": "VEC2",
            "max": [
                0.97900390625,
                0.9921875
            ],
            "min": [
                2.2250738585072014e-308,
                2.2250738585072014e-308
            ]
        },
        {
            "bufferView": 5,
            "byteOffset": 0,
            "componentType": 5125,
            "count": 13992,
            "type": "SCALAR",
            "max": [
                3015
            ],
            "min": [
                0
            ]
        }
    ],
    "buffers": [
        {
            "byteLength": 212800,
            "uri": "Bistro_Research_Exterior_paris_building_10_18__5525.bin"
        }
    ],
    "bufferViews": [
        {
            "buffer": 0,
            "byteOffset": 0,
            "byteLength": 36192,
            "target": 34962
        },
        {
            "buffer": 0,
            "byteOffset": 36192,
            "byteLength": 36192,
            "target": 34962
        },
        {
            "buffer": 0,
            "byteOffset": 72384,
            "byteLength": 36192,
            "target": 34962
        },
        {
            "buffer": 0,
            "byteOffset": 108576,
            "byteLength": 24128,
            "target": 34962
        },
        {
            "buffer": 0,
            "byteOffset": 132704,
            "byteLength": 24128,
            "target": 34962
        },
        {
            "buffer": 0,
            "byteOffset": 156832,
            "byteLength": 55968,
            "target": 34963
        }
    ],
    "images": [
        {
            "uri": "Textures\\MASTER_Awning_Fabric_Red_BaseColor.dds"
        },
        {
            "uri": "Textures\\MASTER_Awning_Fabric_Red_Normal.dds"
        },
        {
            "uri": "Textures\\MASTER_Awning_Fabric_Red_Specular.dds"
        }
    ],
    "materials": [
        {
            "name": "MASTER_Awning_Fabric_Red",
            "pbrMetallicRoughness": {
                "baseColorTexture": {
                    "index": 0
                },
                "metallicFactor": 0.0,
                "roughnessFactor": 0.5527864098548889
            },
            "normalTexture": {
                "index": 1
            },
            "extensions": {
                "KHR_materials_specular": {
                    "specularFactor": 1.0,
                    "specularColorFactor": [
                        0.5,
                        0.5,
                        0.5
                    ],
                    "specularTexture": {
                        "index": 2
                    }
                }
            }
        }
    ],
    "meshes": [
        {
            "name": "Bistro_Research_Exterior_paris_building_10_18__5525",
            "primitives": [
                {
                    "mode": 4,
                    "material": 0,
                    "indices": 5,
                    "attributes": {
                        "POSITION": 0,
                        "NORMAL": 1,
                        "TANGENT": 2,
                        "TEXCOORD_0": 3,
                        "TEXCOORD_1": 4
                    }
                }
            ]
        }
    ],
    "nodes": [
        {
            "name": "Bistro_Research_Exterior_paris_building_10_18__5525",
            "mesh": 0
        }
    ],
    "samplers": [
        {},
        {},
        {}
    ],
    "scenes": [
        {
            "nodes": [
                0
            ]
        }
    ],
    "textures": [
        {
            "source": 0,
            "sampler": 0
        },
        {
            "source": 1,
            "sampler": 1
        },
        {
            "source": 2,
            "sampler": 2
        }
    ],
    "scene": 0
}