{
    "asset": {
        "version": "2.0",
        "generator": "Open Asset Import Library (assimp v6.0.44188438)"
    },
    "extensionsUsed": [
        "KHR_materials_specular",
        "KHR_materials_volume",
        "FB_ngon_encoding"
    ],
    "accessors": [
        {
            "bufferView": 0,
            "byteOffset": 0,
            "componentType": 5126,
            "count": 9724,
            "type": "VEC3",
            "max": [
                3670.729248046875,
                -664.550048828125,
                1908.8702392578125
            ],
            "min": [
                2.2250738585072014e-308,
                -1535.9703369140625,
                2.2250738585072014e-308
            ]
        },
        {
            "bufferView": 1,
            "byteOffset": 0,
            "componentType": 5126,
            "count": 9724,
            "type": "VEC3",
            "max": [
                0.9847833514213562,
                0.9642333388328552,
                0.999984622001648
            ],
            "min": [
                -0.994433581829071,
                -0.9814794659614563,
                -0.999984622001648
            ]
        },
        {
            "bufferView": 2,
            "byteOffset": 0,
            "componentType": 5126,
            "count": 9724,
            "type": "VEC3",
            "max": [
                0.9911110401153564,
                0.9978943467140198,
                0.9999924898147583
            ],
            "min": [
                -0.9969958662986755,
                -0.9972541332244873,
                -0.9999922513961792
            ]
        },
        {
            "bufferView": 3,
            "byteOffset": 0,
            "componentType": 5126,
            "count": 9724,
            "type": "VEC2",
            "max": [
                13.46875,
                12.7265625
            ],
            "min": [
                -4.33984375,
                -6.0390625
            ]
        },
        {
            "bufferView": 4,
            "byteOffset": 0,
            "componentType": 5126,
            "count": 9724,
            "type": "VEC2",
            "max": [
                0.98974609375,
                0.9921875
            ],
            "min": [
                2.2250738585072014e-308,
                2.2250738585072014e-308
            ]
        },
        {
            "bufferView": 5,
            "byteOffset": 0,
            "componentType": 5125,
            "count": 32625,
            "type": "SCALAR",
            "max": [
                9723
            ],
            "min": [
                0
            ]
        }
    ],
    "buffers": [
        {
            "byteLength": 636148,
            "uri": "Bistro_Research_Exterior_paris_building_05_55__5269.bin"
        }
    ],
    "bufferViews": [
        {
            "buffer": 0,
            "byteOffset": 0,
            "byteLength": 116688,
            "target": 34962
        },
        {
            "buffer": 0,
            "byteOffset": 116688,
            "byteLength": 116688,
            "target": 34962
        },
        {
            "buffer": 0,
            "byteOffset": 233376,
            "byteLength": 116688,
            "target": 34962
        },
        {
            "buffer": 0,
            "byteOffset": 350064,
            "byteLength": 77792,
            "target": 34962
        },
        {
            "buffer": 0,
            "byteOffset": 427856,
            "byteLength": 77792,
            "target": 34962
        },
        {
            "buffer": 0,
            "byteOffset": 505648,
            "byteLength": 130500,
            "target": 34963
        }
    ],
    "images": [
        {
            "uri": "Textures\\MASTER_Concrete_BaseColor.dds"
        },
        {
            "uri": "Textures\\MASTER_Concrete_Normal.dds"
        },
        {
            "uri": "Textures\\MASTER_Concrete_Specular.dds"
        }
    ],
    "materials": [
        {
            "name": "MASTER_Concrete",
            "pbrMetallicRoughness": {
                "baseColorTexture": {
                    "index": 0
                },
                "metallicFactor": 0.0,
                "roughnessFactor": 0.5527864098548889
            },
            "normalTexture": {
                "index": 1
            },
            "extensions": {
                "KHR_materials_specular": {
                    "specularFactor": 1.0,
                    "specularColorFactor": [
                        0.5,
                        0.5,
                        0.5
                    ],
                    "specularTexture": {
                        "index": 2
                    }
                }
            }
        }
    ],
    "meshes": [
        {
            "name": "Bistro_Research_Exterior_paris_building_05_55__5269",
            "primitives": [
                {
                    "mode": 4,
                    "material": 0,
                    "indices": 5,
                    "attributes": {
                        "POSITION": 0,
                        "NORMAL": 1,
                        "TANGENT": 2,
                        "TEXCOORD_0": 3,
                        "TEXCOORD_1": 4
                    }
                }
            ]
        }
    ],
    "nodes": [
        {
            "name": "Bistro_Research_Exterior_paris_building_05_55__5269",
            "mesh": 0
        }
    ],
    "samplers": [
        {},
        {},
        {}
    ],
    "scenes": [
        {
            "nodes": [
                0
            ]
        }
    ],
    "textures": [
        {
            "source": 0,
            "sampler": 0
        },
        {
            "source": 1,
            "sampler": 1
        },
        {
            "source": 2,
            "sampler": 2
        }
    ],
    "scene": 0
}