{
    "asset": {
        "version": "2.0",
        "generator": "Open Asset Import Library (assimp v6.0.44188438)"
    },
    "extensionsUsed": [
        "KHR_materials_specular",
        "KHR_materials_volume",
        "FB_ngon_encoding"
    ],
    "accessors": [
        {
            "bufferView": 0,
            "byteOffset": 0,
            "componentType": 5126,
            "count": 286,
            "type": "VEC3",
            "max": [
                1111.7713623046875,
                -550.5554809570313,
                1377.28271484375
            ],
            "min": [
                2.2250738585072014e-308,
                -581.2772827148438,
                2.2250738585072014e-308
            ]
        },
        {
            "bufferView": 1,
            "byteOffset": 0,
            "componentType": 5126,
            "count": 286,
            "type": "VEC3",
            "max": [
                0.999984622001648,
                0.999984622001648,
                0.8665467500686646
            ],
            "min": [
                -0.999984622001648,
                -0.999984622001648,
                -0.8684804439544678
            ]
        },
        {
            "bufferView": 2,
            "byteOffset": 0,
            "componentType": 5126,
            "count": 286,
            "type": "VEC3",
            "max": [
                0.9999922513961792,
                0.9999017119407654,
                0.8556371331214905
            ],
            "min": [
                -0.9999920725822449,
                -0.9998940825462341,
                -0.8554620146751404
            ]
        },
        {
            "bufferView": 3,
            "byteOffset": 0,
            "componentType": 5126,
            "count": 286,
            "type": "VEC2",
            "max": [
                1.0,
                0.9999999403953552
            ],
            "min": [
                0.0,
                0.0
            ]
        },
        {
            "bufferView": 4,
            "byteOffset": 0,
            "componentType": 5126,
            "count": 286,
            "type": "VEC2",
            "max": [
                0.9921875,
                0.9921875
            ],
            "min": [
                2.2250738585072014e-308,
                2.2250738585072014e-308
            ]
        },
        {
            "bufferView": 5,
            "byteOffset": 0,
            "componentType": 5125,
            "count": 1512,
            "type": "SCALAR",
            "max": [
                285
            ],
            "min": [
                0
            ]
        }
    ],
    "buffers": [
        {
            "byteLength": 20920,
            "uri": "Bistro_Research_Exterior_Paris_Building_01_paris_building_01_4579.bin"
        }
    ],
    "bufferViews": [
        {
            "buffer": 0,
            "byteOffset": 0,
            "byteLength": 3432,
            "target": 34962
        },
        {
            "buffer": 0,
            "byteOffset": 3432,
            "byteLength": 3432,
            "target": 34962
        },
        {
            "buffer": 0,
            "byteOffset": 6864,
            "byteLength": 3432,
            "target": 34962
        },
        {
            "buffer": 0,
            "byteOffset": 10296,
            "byteLength": 2288,
            "target": 34962
        },
        {
            "buffer": 0,
            "byteOffset": 12584,
            "byteLength": 2288,
            "target": 34962
        },
        {
            "buffer": 0,
            "byteOffset": 14872,
            "byteLength": 6048,
            "target": 34963
        }
    ],
    "images": [
        {
            "uri": "Textures\\MASTER_Metal_Pipe_BaseColor.dds"
        },
        {
            "uri": "Textures\\MASTER_Metal_Pipe_Normal.dds"
        },
        {
            "uri": "Textures\\MASTER_Metal_Pipe_Specular.dds"
        }
    ],
    "materials": [
        {
            "name": "MASTER_Metal_Pipe",
            "pbrMetallicRoughness": {
                "baseColorTexture": {
                    "index": 0
                },
                "metallicFactor": 0.0,
                "roughnessFactor": 0.5527864098548889
            },
            "normalTexture": {
                "index": 1
            },
            "extensions": {
                "KHR_materials_specular": {
                    "specularFactor": 1.0,
                    "specularColorFactor": [
                        0.5,
                        0.5,
                        0.5
                    ],
                    "specularTexture": {
                        "index": 2
                    }
                }
            }
        }
    ],
    "meshes": [
        {
            "name": "Bistro_Research_Exterior_Paris_Building_01_paris_building_01_4579",
            "primitives": [
                {
                    "mode": 4,
                    "material": 0,
                    "indices": 5,
                    "attributes": {
                        "POSITION": 0,
                        "NORMAL": 1,
                        "TANGENT": 2,
                        "TEXCOORD_0": 3,
                        "TEXCOORD_1": 4
                    }
                }
            ]
        }
    ],
    "nodes": [
        {
            "name": "Bistro_Research_Exterior_Paris_Building_01_paris_building_01_4579",
            "mesh": 0
        }
    ],
    "samplers": [
        {},
        {},
        {}
    ],
    "scenes": [
        {
            "nodes": [
                0
            ]
        }
    ],
    "textures": [
        {
            "source": 0,
            "sampler": 0
        },
        {
            "source": 1,
            "sampler": 1
        },
        {
            "source": 2,
            "sampler": 2
        }
    ],
    "scene": 0
}