{
    "asset": {
        "version": "2.0",
        "generator": "Open Asset Import Library (assimp v6.0.44188438)"
    },
    "extensionsUsed": [
        "KHR_materials_specular",
        "KHR_materials_volume",
        "FB_ngon_encoding"
    ],
    "accessors": [
        {
            "bufferView": 0,
            "byteOffset": 0,
            "componentType": 5126,
            "count": 983,
            "type": "VEC3",
            "max": [
                -1229.137939453125,
                -215.49342346191406,
                860.0701904296875
            ],
            "min": [
                -1300.958251953125,
                -281.805908203125,
                2.2250738585072014e-308
            ]
        },
        {
            "bufferView": 1,
            "byteOffset": 0,
            "componentType": 5126,
            "count": 983,
            "type": "VEC3",
            "max": [
                0.9925135970115662,
                0.994070827960968,
                0.999984622001648
            ],
            "min": [
                -0.9926301836967468,
                -0.9928747415542603,
                -0.999984622001648
            ]
        },
        {
            "bufferView": 2,
            "byteOffset": 0,
            "componentType": 5126,
            "count": 983,
            "type": "VEC3",
            "max": [
                0.7458711266517639,
                0.999578058719635,
                0.999992311000824
            ],
            "min": [
                -0.999605655670166,
                -0.784614086151123,
                -0.9999924898147583
            ]
        },
        {
            "bufferView": 3,
            "byteOffset": 0,
            "componentType": 5126,
            "count": 983,
            "type": "VEC2",
            "max": [
                0.9951171875,
                0.89434814453125
            ],
            "min": [
                2.2250738585072014e-308,
                2.2250738585072014e-308
            ]
        },
        {
            "bufferView": 4,
            "byteOffset": 0,
            "componentType": 5126,
            "count": 983,
            "type": "VEC2",
            "max": [
                0.99169921875,
                0.9609375
            ],
            "min": [
                2.2250738585072014e-308,
                2.2250738585072014e-308
            ]
        },
        {
            "bufferView": 5,
            "byteOffset": 0,
            "componentType": 5125,
            "count": 2160,
            "type": "SCALAR",
            "max": [
                982
            ],
            "min": [
                0
            ]
        }
    ],
    "buffers": [
        {
            "byteLength": 59756,
            "uri": "Bistro_Research_Exterior_Spotlights_6521.bin"
        }
    ],
    "bufferViews": [
        {
            "buffer": 0,
            "byteOffset": 0,
            "byteLength": 11796,
            "target": 34962
        },
        {
            "buffer": 0,
            "byteOffset": 11796,
            "byteLength": 11796,
            "target": 34962
        },
        {
            "buffer": 0,
            "byteOffset": 23592,
            "byteLength": 11796,
            "target": 34962
        },
        {
            "buffer": 0,
            "byteOffset": 35388,
            "byteLength": 7864,
            "target": 34962
        },
        {
            "buffer": 0,
            "byteOffset": 43252,
            "byteLength": 7864,
            "target": 34962
        },
        {
            "buffer": 0,
            "byteOffset": 51116,
            "byteLength": 8640,
            "target": 34963
        }
    ],
    "images": [
        {
            "uri": "Textures\\Banner_Metal_BaseColor.dds"
        },
        {
            "uri": "Textures\\Banner_Metal_Normal.dds"
        },
        {
            "uri": "Textures\\Banner_Metal_Specular.dds"
        }
    ],
    "materials": [
        {
            "name": "Banner_Metal",
            "pbrMetallicRoughness": {
                "baseColorTexture": {
                    "index": 0
                },
                "metallicFactor": 0.0,
                "roughnessFactor": 0.5527864098548889
            },
            "normalTexture": {
                "index": 1
            },
            "extensions": {
                "KHR_materials_specular": {
                    "specularFactor": 1.0,
                    "specularColorFactor": [
                        0.5,
                        0.5,
                        0.5
                    ],
                    "specularTexture": {
                        "index": 2
                    }
                }
            }
        }
    ],
    "meshes": [
        {
            "name": "Bistro_Research_Exterior_Spotlights_6521",
            "primitives": [
                {
                    "mode": 4,
                    "material": 0,
                    "indices": 5,
                    "attributes": {
                        "POSITION": 0,
                        "NORMAL": 1,
                        "TANGENT": 2,
                        "TEXCOORD_0": 3,
                        "TEXCOORD_1": 4
                    }
                }
            ]
        }
    ],
    "nodes": [
        {
            "name": "Bistro_Research_Exterior_Spotlights_6521",
            "mesh": 0
        }
    ],
    "samplers": [
        {},
        {},
        {}
    ],
    "scenes": [
        {
            "nodes": [
                0
            ]
        }
    ],
    "textures": [
        {
            "source": 0,
            "sampler": 0
        },
        {
            "source": 1,
            "sampler": 1
        },
        {
            "source": 2,
            "sampler": 2
        }
    ],
    "scene": 0
}