{
    "asset": {
        "version": "2.0",
        "generator": "Open Asset Import Library (assimp v6.0.44188438)"
    },
    "extensionsUsed": [
        "KHR_materials_specular",
        "KHR_materials_volume",
        "FB_ngon_encoding"
    ],
    "accessors": [
        {
            "bufferView": 0,
            "byteOffset": 0,
            "componentType": 5126,
            "count": 291,
            "type": "VEC3",
            "max": [
                903.2228393554688,
                1108.8863525390625,
                327.3485412597656
            ],
            "min": [
                -198.80174255371094,
                -472.5520935058594,
                2.2250738585072014e-308
            ]
        },
        {
            "bufferView": 1,
            "byteOffset": 0,
            "componentType": 5126,
            "count": 291,
            "type": "VEC3",
            "max": [
                0.9575319290161133,
                0.8547191619873047,
                0.999984622001648
            ],
            "min": [
                -0.9186769127845764,
                -0.9335412979125977,
                -0.999984622001648
            ]
        },
        {
            "bufferView": 2,
            "byteOffset": 0,
            "componentType": 5126,
            "count": 291,
            "type": "VEC3",
            "max": [
                0.9335451126098633,
                0.9453564286231995,
                0.6605783700942993
            ],
            "min": [
                -0.995926558971405,
                -0.9609323143959045,
                -0.678965151309967
            ]
        },
        {
            "bufferView": 3,
            "byteOffset": 0,
            "componentType": 5126,
            "count": 291,
            "type": "VEC2",
            "max": [
                6.4140625,
                3.748046875
            ],
            "min": [
                -5.77734375,
                2.2250738585072014e-308
            ]
        },
        {
            "bufferView": 4,
            "byteOffset": 0,
            "componentType": 5126,
            "count": 291,
            "type": "VEC2",
            "max": [
                0.97802734375,
                0.9921875
            ],
            "min": [
                2.2250738585072014e-308,
                2.2250738585072014e-308
            ]
        },
        {
            "bufferView": 5,
            "byteOffset": 0,
            "componentType": 5125,
            "count": 954,
            "type": "SCALAR",
            "max": [
                290
            ],
            "min": [
                0
            ]
        }
    ],
    "buffers": [
        {
            "byteLength": 18948,
            "uri": "Bistro_Research_Exterior_Paris_Building_01_paris_building_01_bottom_4791.bin"
        }
    ],
    "bufferViews": [
        {
            "buffer": 0,
            "byteOffset": 0,
            "byteLength": 3492,
            "target": 34962
        },
        {
            "buffer": 0,
            "byteOffset": 3492,
            "byteLength": 3492,
            "target": 34962
        },
        {
            "buffer": 0,
            "byteOffset": 6984,
            "byteLength": 3492,
            "target": 34962
        },
        {
            "buffer": 0,
            "byteOffset": 10476,
            "byteLength": 2328,
            "target": 34962
        },
        {
            "buffer": 0,
            "byteOffset": 12804,
            "byteLength": 2328,
            "target": 34962
        },
        {
            "buffer": 0,
            "byteOffset": 15132,
            "byteLength": 3816,
            "target": 34963
        }
    ],
    "images": [
        {
            "uri": "Textures\\MASTER_Wood_Painted3_BaseColor.dds"
        },
        {
            "uri": "Textures\\MASTER_Wood_Painted3_Normal.dds"
        },
        {
            "uri": "Textures\\MASTER_Wood_Painted3_Specular.dds"
        }
    ],
    "materials": [
        {
            "name": "MASTER_Wood_Painted3",
            "pbrMetallicRoughness": {
                "baseColorTexture": {
                    "index": 0
                },
                "metallicFactor": 0.0,
                "roughnessFactor": 0.5527864098548889
            },
            "normalTexture": {
                "index": 1
            },
            "extensions": {
                "KHR_materials_specular": {
                    "specularFactor": 1.0,
                    "specularColorFactor": [
                        0.5,
                        0.5,
                        0.5
                    ],
                    "specularTexture": {
                        "index": 2
                    }
                }
            }
        }
    ],
    "meshes": [
        {
            "name": "Bistro_Research_Exterior_Paris_Building_01_paris_building_01_bottom_4791",
            "primitives": [
                {
                    "mode": 4,
                    "material": 0,
                    "indices": 5,
                    "attributes": {
                        "POSITION": 0,
                        "NORMAL": 1,
                        "TANGENT": 2,
                        "TEXCOORD_0": 3,
                        "TEXCOORD_1": 4
                    }
                }
            ]
        }
    ],
    "nodes": [
        {
            "name": "Bistro_Research_Exterior_Paris_Building_01_paris_building_01_bottom_4791",
            "mesh": 0
        }
    ],
    "samplers": [
        {},
        {},
        {}
    ],
    "scenes": [
        {
            "nodes": [
                0
            ]
        }
    ],
    "textures": [
        {
            "source": 0,
            "sampler": 0
        },
        {
            "source": 1,
            "sampler": 1
        },
        {
            "source": 2,
            "sampler": 2
        }
    ],
    "scene": 0
}