{
    "asset": {
        "version": "2.0",
        "generator": "Open Asset Import Library (assimp v6.0.44188438)"
    },
    "extensionsUsed": [
        "KHR_materials_specular",
        "KHR_materials_volume",
        "FB_ngon_encoding"
    ],
    "accessors": [
        {
            "bufferView": 0,
            "byteOffset": 0,
            "componentType": 5126,
            "count": 72,
            "type": "VEC3",
            "max": [
                387.10137939453125,
                -1348.709716796875,
                62.29996871948242
            ],
            "min": [
                2.2250738585072014e-308,
                -1459.2310791015625,
                2.2250738585072014e-308
            ]
        },
        {
            "bufferView": 1,
            "byteOffset": 0,
            "componentType": 5126,
            "count": 72,
            "type": "VEC3",
            "max": [
                0.9271028637886047,
                0.9281992316246033,
                0.999984622001648
            ],
            "min": [
                -0.9254776835441589,
                -0.9243447780609131,
                -0.999984622001648
            ]
        },
        {
            "bufferView": 2,
            "byteOffset": 0,
            "componentType": 5126,
            "count": 72,
            "type": "VEC3",
            "max": [
                0.9805748462677002,
                0.9809863567352295,
                0.8452625870704651
            ],
            "min": [
                -0.9845097064971924,
                -0.9820411801338196,
                -0.8482562303543091
            ]
        },
        {
            "bufferView": 3,
            "byteOffset": 0,
            "componentType": 5126,
            "count": 72,
            "type": "VEC2",
            "max": [
                0.92138671875,
                0.638427734375
            ],
            "min": [
                2.2250738585072014e-308,
                2.2250738585072014e-308
            ]
        },
        {
            "bufferView": 4,
            "byteOffset": 0,
            "componentType": 5126,
            "count": 72,
            "type": "VEC2",
            "max": [
                0.99072265625,
                0.9921875
            ],
            "min": [
                2.2250738585072014e-308,
                2.2250738585072014e-308
            ]
        },
        {
            "bufferView": 5,
            "byteOffset": 0,
            "componentType": 5125,
            "count": 132,
            "type": "SCALAR",
            "max": [
                71
            ],
            "min": [
                0
            ]
        }
    ],
    "buffers": [
        {
            "byteLength": 4272,
            "uri": "Bistro_Research_Exterior_paris_building_11_5895.bin"
        }
    ],
    "bufferViews": [
        {
            "buffer": 0,
            "byteOffset": 0,
            "byteLength": 864,
            "target": 34962
        },
        {
            "buffer": 0,
            "byteOffset": 864,
            "byteLength": 864,
            "target": 34962
        },
        {
            "buffer": 0,
            "byteOffset": 1728,
            "byteLength": 864,
            "target": 34962
        },
        {
            "buffer": 0,
            "byteOffset": 2592,
            "byteLength": 576,
            "target": 34962
        },
        {
            "buffer": 0,
            "byteOffset": 3168,
            "byteLength": 576,
            "target": 34962
        },
        {
            "buffer": 0,
            "byteOffset": 3744,
            "byteLength": 528,
            "target": 34963
        }
    ],
    "images": [
        {
            "uri": "Textures\\MASTER_Concrete_Plaster_BaseColor.dds"
        },
        {
            "uri": "Textures\\MASTER_Concrete_Plaster_Normal.dds"
        },
        {
            "uri": "Textures\\MASTER_Concrete_Plaster_Specular.dds"
        }
    ],
    "materials": [
        {
            "name": "MASTER_Concrete_Plaster",
            "pbrMetallicRoughness": {
                "baseColorTexture": {
                    "index": 0
                },
                "metallicFactor": 0.0,
                "roughnessFactor": 0.5527864098548889
            },
            "normalTexture": {
                "index": 1
            },
            "extensions": {
                "KHR_materials_specular": {
                    "specularFactor": 1.0,
                    "specularColorFactor": [
                        0.5,
                        0.5,
                        0.5
                    ],
                    "specularTexture": {
                        "index": 2
                    }
                }
            }
        }
    ],
    "meshes": [
        {
            "name": "Bistro_Research_Exterior_paris_building_11_5895",
            "primitives": [
                {
                    "mode": 4,
                    "material": 0,
                    "indices": 5,
                    "attributes": {
                        "POSITION": 0,
                        "NORMAL": 1,
                        "TANGENT": 2,
                        "TEXCOORD_0": 3,
                        "TEXCOORD_1": 4
                    }
                }
            ]
        }
    ],
    "nodes": [
        {
            "name": "Bistro_Research_Exterior_paris_building_11_5895",
            "mesh": 0
        }
    ],
    "samplers": [
        {},
        {},
        {}
    ],
    "scenes": [
        {
            "nodes": [
                0
            ]
        }
    ],
    "textures": [
        {
            "source": 0,
            "sampler": 0
        },
        {
            "source": 1,
            "sampler": 1
        },
        {
            "source": 2,
            "sampler": 2
        }
    ],
    "scene": 0
}