{
    "asset": {
        "version": "2.0",
        "generator": "Open Asset Import Library (assimp v6.0.44188438)"
    },
    "extensionsUsed": [
        "KHR_materials_specular",
        "KHR_materials_volume",
        "FB_ngon_encoding"
    ],
    "accessors": [
        {
            "bufferView": 0,
            "byteOffset": 0,
            "componentType": 5126,
            "count": 166,
            "type": "VEC3",
            "max": [
                681.4744873046875,
                -1446.0928955078125,
                352.21038818359375
            ],
            "min": [
                2.2250738585072014e-308,
                -1554.7003173828125,
                2.2250738585072014e-308
            ]
        },
        {
            "bufferView": 1,
            "byteOffset": 0,
            "componentType": 5126,
            "count": 166,
            "type": "VEC3",
            "max": [
                0.962488055229187,
                0.989104151725769,
                0.999984622001648
            ],
            "min": [
                -0.9227240085601807,
                -0.36797428131103516,
                -0.999984622001648
            ]
        },
        {
            "bufferView": 2,
            "byteOffset": 0,
            "componentType": 5126,
            "count": 166,
            "type": "VEC3",
            "max": [
                0.9312208294868469,
                0.9969752430915833,
                0.7831616997718811
            ],
            "min": [
                -0.999323844909668,
                -0.9234053492546082,
                -0.7886148691177368
            ]
        },
        {
            "bufferView": 3,
            "byteOffset": 0,
            "componentType": 5126,
            "count": 166,
            "type": "VEC2",
            "max": [
                1.228515625,
                0.576171875
            ],
            "min": [
                -0.356201171875,
                -0.451171875
            ]
        },
        {
            "bufferView": 4,
            "byteOffset": 0,
            "componentType": 5126,
            "count": 166,
            "type": "VEC2",
            "max": [
                0.9873046875,
                0.9921875
            ],
            "min": [
                2.2250738585072014e-308,
                2.2250738585072014e-308
            ]
        },
        {
            "bufferView": 5,
            "byteOffset": 0,
            "componentType": 5125,
            "count": 324,
            "type": "SCALAR",
            "max": [
                165
            ],
            "min": [
                0
            ]
        }
    ],
    "buffers": [
        {
            "byteLength": 9928,
            "uri": "Bistro_Research_Exterior_paris_building_11_5765.bin"
        }
    ],
    "bufferViews": [
        {
            "buffer": 0,
            "byteOffset": 0,
            "byteLength": 1992,
            "target": 34962
        },
        {
            "buffer": 0,
            "byteOffset": 1992,
            "byteLength": 1992,
            "target": 34962
        },
        {
            "buffer": 0,
            "byteOffset": 3984,
            "byteLength": 1992,
            "target": 34962
        },
        {
            "buffer": 0,
            "byteOffset": 5976,
            "byteLength": 1328,
            "target": 34962
        },
        {
            "buffer": 0,
            "byteOffset": 7304,
            "byteLength": 1328,
            "target": 34962
        },
        {
            "buffer": 0,
            "byteOffset": 8632,
            "byteLength": 1296,
            "target": 34963
        }
    ],
    "images": [
        {
            "uri": "Textures\\MASTER_Concrete_Plaster_BaseColor.dds"
        },
        {
            "uri": "Textures\\MASTER_Concrete_Plaster_Normal.dds"
        },
        {
            "uri": "Textures\\MASTER_Concrete_Plaster_Specular.dds"
        }
    ],
    "materials": [
        {
            "name": "MASTER_Concrete_Plaster",
            "pbrMetallicRoughness": {
                "baseColorTexture": {
                    "index": 0
                },
                "metallicFactor": 0.0,
                "roughnessFactor": 0.5527864098548889
            },
            "normalTexture": {
                "index": 1
            },
            "extensions": {
                "KHR_materials_specular": {
                    "specularFactor": 1.0,
                    "specularColorFactor": [
                        0.5,
                        0.5,
                        0.5
                    ],
                    "specularTexture": {
                        "index": 2
                    }
                }
            }
        }
    ],
    "meshes": [
        {
            "name": "Bistro_Research_Exterior_paris_building_11_5765",
            "primitives": [
                {
                    "mode": 4,
                    "material": 0,
                    "indices": 5,
                    "attributes": {
                        "POSITION": 0,
                        "NORMAL": 1,
                        "TANGENT": 2,
                        "TEXCOORD_0": 3,
                        "TEXCOORD_1": 4
                    }
                }
            ]
        }
    ],
    "nodes": [
        {
            "name": "Bistro_Research_Exterior_paris_building_11_5765",
            "mesh": 0
        }
    ],
    "samplers": [
        {},
        {},
        {}
    ],
    "scenes": [
        {
            "nodes": [
                0
            ]
        }
    ],
    "textures": [
        {
            "source": 0,
            "sampler": 0
        },
        {
            "source": 1,
            "sampler": 1
        },
        {
            "source": 2,
            "sampler": 2
        }
    ],
    "scene": 0
}