{
    "asset": {
        "version": "2.0",
        "generator": "Open Asset Import Library (assimp v6.0.44188438)"
    },
    "extensionsUsed": [
        "KHR_materials_specular",
        "KHR_materials_volume",
        "FB_ngon_encoding"
    ],
    "accessors": [
        {
            "bufferView": 0,
            "byteOffset": 0,
            "componentType": 5126,
            "count": 254,
            "type": "VEC3",
            "max": [
                775.67431640625,
                -1181.3671875,
                1119.968994140625
            ],
            "min": [
                -414.36541748046875,
                -2320.98828125,
                2.2250738585072014e-308
            ]
        },
        {
            "bufferView": 1,
            "byteOffset": 0,
            "componentType": 5126,
            "count": 254,
            "type": "VEC3",
            "max": [
                0.9999219179153442,
                0.9996158480644226,
                0.999984622001648
            ],
            "min": [
                -0.999984622001648,
                -0.9999843835830688,
                -0.9376721978187561
            ]
        },
        {
            "bufferView": 2,
            "byteOffset": 0,
            "componentType": 5126,
            "count": 254,
            "type": "VEC3",
            "max": [
                0.9999922513961792,
                0.999929666519165,
                0.8649442195892334
            ],
            "min": [
                -0.9995723366737366,
                -0.9999923706054688,
                -0.8621475100517273
            ]
        },
        {
            "bufferView": 3,
            "byteOffset": 0,
            "componentType": 5126,
            "count": 254,
            "type": "VEC2",
            "max": [
                11.3046875,
                1.440185546875
            ],
            "min": [
                -6.82421875,
                -2.349609375
            ]
        },
        {
            "bufferView": 4,
            "byteOffset": 0,
            "componentType": 5126,
            "count": 254,
            "type": "VEC2",
            "max": [
                0.92724609375,
                0.9921875
            ],
            "min": [
                2.2250738585072014e-308,
                2.2250738585072014e-308
            ]
        },
        {
            "bufferView": 5,
            "byteOffset": 0,
            "componentType": 5125,
            "count": 1095,
            "type": "SCALAR",
            "max": [
                253
            ],
            "min": [
                0
            ]
        }
    ],
    "buffers": [
        {
            "byteLength": 17588,
            "uri": "Bistro_Research_Exterior_paris_building_11_5577_0.bin"
        }
    ],
    "bufferViews": [
        {
            "buffer": 0,
            "byteOffset": 0,
            "byteLength": 3048,
            "target": 34962
        },
        {
            "buffer": 0,
            "byteOffset": 3048,
            "byteLength": 3048,
            "target": 34962
        },
        {
            "buffer": 0,
            "byteOffset": 6096,
            "byteLength": 3048,
            "target": 34962
        },
        {
            "buffer": 0,
            "byteOffset": 9144,
            "byteLength": 2032,
            "target": 34962
        },
        {
            "buffer": 0,
            "byteOffset": 11176,
            "byteLength": 2032,
            "target": 34962
        },
        {
            "buffer": 0,
            "byteOffset": 13208,
            "byteLength": 4380,
            "target": 34963
        }
    ],
    "images": [
        {
            "uri": "Textures\\MASTER_Brick_Small_Red_BLENDSHADER_BaseColor.dds"
        },
        {
            "uri": "Textures\\MASTER_Brick_Small_Red_BLENDSHADER_Normal.dds"
        },
        {
            "uri": "Textures\\MASTER_Brick_Small_Red_BLENDSHADER_Specular.dds"
        }
    ],
    "materials": [
        {
            "name": "MASTER_Brick_Small_Red_BLENDSHADER",
            "pbrMetallicRoughness": {
                "baseColorTexture": {
                    "index": 0
                },
                "metallicFactor": 0.0,
                "roughnessFactor": 0.5527864098548889
            },
            "normalTexture": {
                "index": 1
            },
            "extensions": {
                "KHR_materials_specular": {
                    "specularFactor": 1.0,
                    "specularColorFactor": [
                        0.5,
                        0.5,
                        0.5
                    ],
                    "specularTexture": {
                        "index": 2
                    }
                }
            }
        }
    ],
    "meshes": [
        {
            "name": "Bistro_Research_Exterior_paris_building_11_5577",
            "primitives": [
                {
                    "mode": 4,
                    "material": 0,
                    "indices": 5,
                    "attributes": {
                        "POSITION": 0,
                        "NORMAL": 1,
                        "TANGENT": 2,
                        "TEXCOORD_0": 3,
                        "TEXCOORD_1": 4
                    }
                }
            ]
        }
    ],
    "nodes": [
        {
            "name": "Bistro_Research_Exterior_paris_building_11_5577",
            "mesh": 0
        }
    ],
    "samplers": [
        {},
        {},
        {}
    ],
    "scenes": [
        {
            "nodes": [
                0
            ]
        }
    ],
    "textures": [
        {
            "source": 0,
            "sampler": 0
        },
        {
            "source": 1,
            "sampler": 1
        },
        {
            "source": 2,
            "sampler": 2
        }
    ],
    "scene": 0
}