{
    "asset": {
        "version": "2.0",
        "generator": "Open Asset Import Library (assimp v6.0.44188438)"
    },
    "extensionsUsed": [
        "KHR_materials_specular",
        "KHR_materials_volume",
        "FB_ngon_encoding"
    ],
    "accessors": [
        {
            "bufferView": 0,
            "byteOffset": 0,
            "componentType": 5126,
            "count": 320,
            "type": "VEC3",
            "max": [
                1000.0975341796875,
                4419.51318359375,
                1893.25927734375
            ],
            "min": [
                -799.5435180664063,
                2.2250738585072014e-308,
                2.2250738585072014e-308
            ]
        },
        {
            "bufferView": 1,
            "byteOffset": 0,
            "componentType": 5126,
            "count": 320,
            "type": "VEC3",
            "max": [
                0.9681223630905151,
                0.7415300607681274,
                0.999984622001648
            ],
            "min": [
                -0.7376343607902527,
                -0.9672166109085083,
                -0.999984622001648
            ]
        },
        {
            "bufferView": 2,
            "byteOffset": 0,
            "componentType": 5126,
            "count": 320,
            "type": "VEC3",
            "max": [
                0.9802209734916687,
                0.9908531904220581,
                0.5392556190490723
            ],
            "min": [
                -0.7602700591087341,
                -0.9680332541465759,
                -0.9293171763420105
            ]
        },
        {
            "bufferView": 3,
            "byteOffset": 0,
            "componentType": 5126,
            "count": 320,
            "type": "VEC2",
            "max": [
                7.625,
                7.453125
            ],
            "min": [
                -1.9111328125,
                -0.796875
            ]
        },
        {
            "bufferView": 4,
            "byteOffset": 0,
            "componentType": 5126,
            "count": 320,
            "type": "VEC2",
            "max": [
                0.94091796875,
                0.9921875
            ],
            "min": [
                2.2250738585072014e-308,
                2.2250738585072014e-308
            ]
        },
        {
            "bufferView": 5,
            "byteOffset": 0,
            "componentType": 5125,
            "count": 1074,
            "type": "SCALAR",
            "max": [
                319
            ],
            "min": [
                0
            ]
        }
    ],
    "buffers": [
        {
            "byteLength": 20936,
            "uri": "Bistro_Research_Exterior_paris_building_10_5493.bin"
        }
    ],
    "bufferViews": [
        {
            "buffer": 0,
            "byteOffset": 0,
            "byteLength": 3840,
            "target": 34962
        },
        {
            "buffer": 0,
            "byteOffset": 3840,
            "byteLength": 3840,
            "target": 34962
        },
        {
            "buffer": 0,
            "byteOffset": 7680,
            "byteLength": 3840,
            "target": 34962
        },
        {
            "buffer": 0,
            "byteOffset": 11520,
            "byteLength": 2560,
            "target": 34962
        },
        {
            "buffer": 0,
            "byteOffset": 14080,
            "byteLength": 2560,
            "target": 34962
        },
        {
            "buffer": 0,
            "byteOffset": 16640,
            "byteLength": 4296,
            "target": 34963
        }
    ],
    "images": [
        {
            "uri": "Textures\\MASTER_Roofing_Metal_01_BaseColor.dds"
        },
        {
            "uri": "Textures\\MASTER_Roofing_Metal_01_Normal.dds"
        },
        {
            "uri": "Textures\\MASTER_Roofing_Metal_01_Specular.dds"
        }
    ],
    "materials": [
        {
            "name": "MASTER_Roofing_Metal_01",
            "pbrMetallicRoughness": {
                "baseColorTexture": {
                    "index": 0
                },
                "metallicFactor": 0.0,
                "roughnessFactor": 0.5527864098548889
            },
            "normalTexture": {
                "index": 1
            },
            "extensions": {
                "KHR_materials_specular": {
                    "specularFactor": 1.0,
                    "specularColorFactor": [
                        0.5,
                        0.5,
                        0.5
                    ],
                    "specularTexture": {
                        "index": 2
                    }
                }
            }
        }
    ],
    "meshes": [
        {
            "name": "Bistro_Research_Exterior_paris_building_10_5493",
            "primitives": [
                {
                    "mode": 4,
                    "material": 0,
                    "indices": 5,
                    "attributes": {
                        "POSITION": 0,
                        "NORMAL": 1,
                        "TANGENT": 2,
                        "TEXCOORD_0": 3,
                        "TEXCOORD_1": 4
                    }
                }
            ]
        }
    ],
    "nodes": [
        {
            "name": "Bistro_Research_Exterior_paris_building_10_5493",
            "mesh": 0
        }
    ],
    "samplers": [
        {},
        {},
        {}
    ],
    "scenes": [
        {
            "nodes": [
                0
            ]
        }
    ],
    "textures": [
        {
            "source": 0,
            "sampler": 0
        },
        {
            "source": 1,
            "sampler": 1
        },
        {
            "source": 2,
            "sampler": 2
        }
    ],
    "scene": 0
}