{
    "asset": {
        "version": "2.0",
        "generator": "Open Asset Import Library (assimp v6.0.44188438)"
    },
    "extensionsUsed": [
        "KHR_materials_specular",
        "KHR_materials_volume",
        "FB_ngon_encoding"
    ],
    "accessors": [
        {
            "bufferView": 0,
            "byteOffset": 0,
            "componentType": 5126,
            "count": 94,
            "type": "VEC3",
            "max": [
                1265.28564453125,
                255.49732971191406,
                1898.221435546875
            ],
            "min": [
                2.2250738585072014e-308,
                2.2250738585072014e-308,
                2.2250738585072014e-308
            ]
        },
        {
            "bufferView": 1,
            "byteOffset": 0,
            "componentType": 5126,
            "count": 94,
            "type": "VEC3",
            "max": [
                0.9326156377792358,
                0.9336293339729309,
                0.999984622001648
            ],
            "min": [
                -0.932491660118103,
                -0.9314624667167664,
                -0.999984622001648
            ]
        },
        {
            "bufferView": 2,
            "byteOffset": 0,
            "componentType": 5126,
            "count": 94,
            "type": "VEC3",
            "max": [
                0.3224407136440277,
                0.8330431580543518,
                0.946108877658844
            ],
            "min": [
                -0.9829923510551453,
                -0.3330037295818329,
                -0.9451580047607422
            ]
        },
        {
            "bufferView": 3,
            "byteOffset": 0,
            "componentType": 5126,
            "count": 94,
            "type": "VEC2",
            "max": [
                1.2724609375,
                1.5859375
            ],
            "min": [
                -0.412841796875,
                -0.056640625
            ]
        },
        {
            "bufferView": 4,
            "byteOffset": 0,
            "componentType": 5126,
            "count": 94,
            "type": "VEC2",
            "max": [
                0.943359375,
                0.4765625
            ],
            "min": [
                2.2250738585072014e-308,
                2.2250738585072014e-308
            ]
        },
        {
            "bufferView": 5,
            "byteOffset": 0,
            "componentType": 5125,
            "count": 390,
            "type": "SCALAR",
            "max": [
                93
            ],
            "min": [
                0
            ]
        }
    ],
    "buffers": [
        {
            "byteLength": 6448,
            "uri": "Bistro_Research_Exterior_Paris_Chimney_02B_5973.bin"
        }
    ],
    "bufferViews": [
        {
            "buffer": 0,
            "byteOffset": 0,
            "byteLength": 1128,
            "target": 34962
        },
        {
            "buffer": 0,
            "byteOffset": 1128,
            "byteLength": 1128,
            "target": 34962
        },
        {
            "buffer": 0,
            "byteOffset": 2256,
            "byteLength": 1128,
            "target": 34962
        },
        {
            "buffer": 0,
            "byteOffset": 3384,
            "byteLength": 752,
            "target": 34962
        },
        {
            "buffer": 0,
            "byteOffset": 4136,
            "byteLength": 752,
            "target": 34962
        },
        {
            "buffer": 0,
            "byteOffset": 4888,
            "byteLength": 1560,
            "target": 34963
        }
    ],
    "images": [
        {
            "uri": "Textures\\Concrete_BaseColor.dds"
        },
        {
            "uri": "Textures\\Concrete_Normal.dds"
        },
        {
            "uri": "Textures\\Concrete_Specular.dds"
        }
    ],
    "materials": [
        {
            "name": "Concrete",
            "pbrMetallicRoughness": {
                "baseColorTexture": {
                    "index": 0
                },
                "metallicFactor": 0.0,
                "roughnessFactor": 0.5527864098548889
            },
            "normalTexture": {
                "index": 1
            },
            "extensions": {
                "KHR_materials_specular": {
                    "specularFactor": 1.0,
                    "specularColorFactor": [
                        0.5,
                        0.5,
                        0.5
                    ],
                    "specularTexture": {
                        "index": 2
                    }
                }
            }
        }
    ],
    "meshes": [
        {
            "name": "Bistro_Research_Exterior_Paris_Chimney_02B_5973",
            "primitives": [
                {
                    "mode": 4,
                    "material": 0,
                    "indices": 5,
                    "attributes": {
                        "POSITION": 0,
                        "NORMAL": 1,
                        "TANGENT": 2,
                        "TEXCOORD_0": 3,
                        "TEXCOORD_1": 4
                    }
                }
            ]
        }
    ],
    "nodes": [
        {
            "name": "Bistro_Research_Exterior_Paris_Chimney_02B_5973",
            "mesh": 0
        }
    ],
    "samplers": [
        {},
        {},
        {}
    ],
    "scenes": [
        {
            "nodes": [
                0
            ]
        }
    ],
    "textures": [
        {
            "source": 0,
            "sampler": 0
        },
        {
            "source": 1,
            "sampler": 1
        },
        {
            "source": 2,
            "sampler": 2
        }
    ],
    "scene": 0
}