{
    "asset": {
        "version": "2.0",
        "generator": "Open Asset Import Library (assimp v6.0.44188438)"
    },
    "extensionsUsed": [
        "KHR_materials_specular",
        "KHR_materials_volume",
        "FB_ngon_encoding"
    ],
    "accessors": [
        {
            "bufferView": 0,
            "byteOffset": 0,
            "componentType": 5126,
            "count": 8782,
            "type": "VEC3",
            "max": [
                5292.947265625,
                -4257.7548828125,
                1289.299072265625
            ],
            "min": [
                2.2250738585072014e-308,
                -5704.2763671875,
                2.2250738585072014e-308
            ]
        },
        {
            "bufferView": 1,
            "byteOffset": 0,
            "componentType": 5126,
            "count": 8782,
            "type": "VEC3",
            "max": [
                0.9983014464378357,
                0.998327910900116,
                0.999984622001648
            ],
            "min": [
                -0.9905586242675781,
                -0.9904097318649292,
                -0.999984622001648
            ]
        },
        {
            "bufferView": 2,
            "byteOffset": 0,
            "componentType": 5126,
            "count": 8782,
            "type": "VEC3",
            "max": [
                0.9999843835830688,
                0.9946099519729614,
                0.9999924898147583
            ],
            "min": [
                -0.9986717700958252,
                -0.9995918869972229,
                -0.9999925494194031
            ]
        },
        {
            "bufferView": 3,
            "byteOffset": 0,
            "componentType": 5126,
            "count": 8782,
            "type": "VEC2",
            "max": [
                1.5458984375,
                0.94818115234375
            ],
            "min": [
                -0.5458984375,
                -0.04296875
            ]
        },
        {
            "bufferView": 4,
            "byteOffset": 0,
            "componentType": 5126,
            "count": 8782,
            "type": "VEC2",
            "max": [
                0.9912109375,
                0.9921913146972656
            ],
            "min": [
                2.2250738585072014e-308,
                2.2250738585072014e-308
            ]
        },
        {
            "bufferView": 5,
            "byteOffset": 0,
            "componentType": 5125,
            "count": 29916,
            "type": "SCALAR",
            "max": [
                8781
            ],
            "min": [
                0
            ]
        }
    ],
    "buffers": [
        {
            "byteLength": 576328,
            "uri": "Bistro_Research_Exterior_paris_building_03_mirrored_9__4985.bin"
        }
    ],
    "bufferViews": [
        {
            "buffer": 0,
            "byteOffset": 0,
            "byteLength": 105384,
            "target": 34962
        },
        {
            "buffer": 0,
            "byteOffset": 105384,
            "byteLength": 105384,
            "target": 34962
        },
        {
            "buffer": 0,
            "byteOffset": 210768,
            "byteLength": 105384,
            "target": 34962
        },
        {
            "buffer": 0,
            "byteOffset": 316152,
            "byteLength": 70256,
            "target": 34962
        },
        {
            "buffer": 0,
            "byteOffset": 386408,
            "byteLength": 70256,
            "target": 34962
        },
        {
            "buffer": 0,
            "byteOffset": 456664,
            "byteLength": 119664,
            "target": 34963
        }
    ],
    "images": [
        {
            "uri": "Textures\\MASTER_Wood_Painted_Green_BaseColor.dds"
        },
        {
            "uri": "Textures\\MASTER_Wood_Painted_Green_Normal.dds"
        },
        {
            "uri": "Textures\\MASTER_Wood_Painted_Green_Specular.dds"
        }
    ],
    "materials": [
        {
            "name": "MASTER_Wood_Painted_Green",
            "pbrMetallicRoughness": {
                "baseColorTexture": {
                    "index": 0
                },
                "metallicFactor": 0.0,
                "roughnessFactor": 0.5527864098548889
            },
            "normalTexture": {
                "index": 1
            },
            "extensions": {
                "KHR_materials_specular": {
                    "specularFactor": 1.0,
                    "specularColorFactor": [
                        0.5,
                        0.5,
                        0.5
                    ],
                    "specularTexture": {
                        "index": 2
                    }
                }
            }
        }
    ],
    "meshes": [
        {
            "name": "Bistro_Research_Exterior_paris_building_03_mirrored_9__4985",
            "primitives": [
                {
                    "mode": 4,
                    "material": 0,
                    "indices": 5,
                    "attributes": {
                        "POSITION": 0,
                        "NORMAL": 1,
                        "TANGENT": 2,
                        "TEXCOORD_0": 3,
                        "TEXCOORD_1": 4
                    }
                }
            ]
        }
    ],
    "nodes": [
        {
            "name": "Bistro_Research_Exterior_paris_building_03_mirrored_9__4985",
            "mesh": 0
        }
    ],
    "samplers": [
        {},
        {},
        {}
    ],
    "scenes": [
        {
            "nodes": [
                0
            ]
        }
    ],
    "textures": [
        {
            "source": 0,
            "sampler": 0
        },
        {
            "source": 1,
            "sampler": 1
        },
        {
            "source": 2,
            "sampler": 2
        }
    ],
    "scene": 0
}