{
    "asset": {
        "version": "2.0",
        "generator": "Open Asset Import Library (assimp v6.0.44188438)"
    },
    "extensionsUsed": [
        "KHR_materials_specular",
        "KHR_materials_volume",
        "FB_ngon_encoding"
    ],
    "accessors": [
        {
            "bufferView": 0,
            "byteOffset": 0,
            "componentType": 5126,
            "count": 3694,
            "type": "VEC3",
            "max": [
                252.88180541992188,
                1213.2908935546875,
                402.3008728027344
            ],
            "min": [
                2.2250738585072014e-308,
                2.2250738585072014e-308,
                2.2250738585072014e-308
            ]
        },
        {
            "bufferView": 1,
            "byteOffset": 0,
            "componentType": 5126,
            "count": 3694,
            "type": "VEC3",
            "max": [
                0.9826404452323914,
                0.999984622001648,
                0.999984622001648
            ],
            "min": [
                -0.9990631937980652,
                -0.9993600845336914,
                -0.999984622001648
            ]
        },
        {
            "bufferView": 2,
            "byteOffset": 0,
            "componentType": 5126,
            "count": 3694,
            "type": "VEC3",
            "max": [
                0.9922940135002136,
                0.9984943866729736,
                0.9999924302101135
            ],
            "min": [
                -0.9999874234199524,
                -0.9990431070327759,
                -0.9999924302101135
            ]
        },
        {
            "bufferView": 3,
            "byteOffset": 0,
            "componentType": 5126,
            "count": 3694,
            "type": "VEC2",
            "max": [
                2.970703125,
                0.9593505859375
            ],
            "min": [
                2.2250738585072014e-308,
                -0.00390625
            ]
        },
        {
            "bufferView": 4,
            "byteOffset": 0,
            "componentType": 5126,
            "count": 3694,
            "type": "VEC2",
            "max": [
                0.99169921875,
                0.9921875
            ],
            "min": [
                2.2250738585072014e-308,
                2.2250738585072014e-308
            ]
        },
        {
            "bufferView": 5,
            "byteOffset": 0,
            "componentType": 5125,
            "count": 8850,
            "type": "SCALAR",
            "max": [
                3693
            ],
            "min": [
                0
            ]
        }
    ],
    "buffers": [
        {
            "byteLength": 227488,
            "uri": "Bistro_Research_Exterior_Paris_ShopSign_01C1_6163.bin"
        }
    ],
    "bufferViews": [
        {
            "buffer": 0,
            "byteOffset": 0,
            "byteLength": 44328,
            "target": 34962
        },
        {
            "buffer": 0,
            "byteOffset": 44328,
            "byteLength": 44328,
            "target": 34962
        },
        {
            "buffer": 0,
            "byteOffset": 88656,
            "byteLength": 44328,
            "target": 34962
        },
        {
            "buffer": 0,
            "byteOffset": 132984,
            "byteLength": 29552,
            "target": 34962
        },
        {
            "buffer": 0,
            "byteOffset": 162536,
            "byteLength": 29552,
            "target": 34962
        },
        {
            "buffer": 0,
            "byteOffset": 192088,
            "byteLength": 35400,
            "target": 34963
        }
    ],
    "images": [
        {
            "uri": "Textures\\Antenna_Metal_BaseColor.dds"
        },
        {
            "uri": "Textures\\Antenna_Metal_Normal.dds"
        },
        {
            "uri": "Textures\\Antenna_Metal_Specular.dds"
        }
    ],
    "materials": [
        {
            "name": "Antenna_Metal",
            "pbrMetallicRoughness": {
                "baseColorTexture": {
                    "index": 0
                },
                "metallicFactor": 0.0,
                "roughnessFactor": 0.5527864098548889
            },
            "normalTexture": {
                "index": 1
            },
            "extensions": {
                "KHR_materials_specular": {
                    "specularFactor": 1.0,
                    "specularColorFactor": [
                        0.5,
                        0.5,
                        0.5
                    ],
                    "specularTexture": {
                        "index": 2
                    }
                }
            }
        }
    ],
    "meshes": [
        {
            "name": "Bistro_Research_Exterior_Paris_ShopSign_01C1_6163",
            "primitives": [
                {
                    "mode": 4,
                    "material": 0,
                    "indices": 5,
                    "attributes": {
                        "POSITION": 0,
                        "NORMAL": 1,
                        "TANGENT": 2,
                        "TEXCOORD_0": 3,
                        "TEXCOORD_1": 4
                    }
                }
            ]
        }
    ],
    "nodes": [
        {
            "name": "Bistro_Research_Exterior_Paris_ShopSign_01C1_6163",
            "mesh": 0
        }
    ],
    "samplers": [
        {},
        {},
        {}
    ],
    "scenes": [
        {
            "nodes": [
                0
            ]
        }
    ],
    "textures": [
        {
            "source": 0,
            "sampler": 0
        },
        {
            "source": 1,
            "sampler": 1
        },
        {
            "source": 2,
            "sampler": 2
        }
    ],
    "scene": 0
}