{
    "asset": {
        "version": "2.0",
        "generator": "Open Asset Import Library (assimp v6.0.44188438)"
    },
    "extensionsUsed": [
        "KHR_materials_specular",
        "KHR_materials_volume",
        "FB_ngon_encoding"
    ],
    "accessors": [
        {
            "bufferView": 0,
            "byteOffset": 0,
            "componentType": 5126,
            "count": 392,
            "type": "VEC3",
            "max": [
                2719.22412109375,
                -2396.836669921875,
                1649.1107177734375
            ],
            "min": [
                2.2250738585072014e-308,
                -2555.524169921875,
                2.2250738585072014e-308
            ]
        },
        {
            "bufferView": 1,
            "byteOffset": 0,
            "componentType": 5126,
            "count": 392,
            "type": "VEC3",
            "max": [
                0.9203593134880066,
                0.921554446220398,
                0.999984622001648
            ],
            "min": [
                -0.9187331199645996,
                -0.9175006747245789,
                -0.999984622001648
            ]
        },
        {
            "bufferView": 2,
            "byteOffset": 0,
            "componentType": 5126,
            "count": 392,
            "type": "VEC3",
            "max": [
                0.9200024008750916,
                0.977534294128418,
                0.9999924302101135
            ],
            "min": [
                -0.9685068130493164,
                -0.9837951064109802,
                -0.9999921321868896
            ]
        },
        {
            "bufferView": 3,
            "byteOffset": 0,
            "componentType": 5126,
            "count": 392,
            "type": "VEC2",
            "max": [
                2.912109375,
                2.6611328125
            ],
            "min": [
                -0.59716796875,
                -0.6396484375
            ]
        },
        {
            "bufferView": 4,
            "byteOffset": 0,
            "componentType": 5126,
            "count": 392,
            "type": "VEC2",
            "max": [
                0.9912109375,
                0.9921875
            ],
            "min": [
                2.2250738585072014e-308,
                2.2250738585072014e-308
            ]
        },
        {
            "bufferView": 5,
            "byteOffset": 0,
            "componentType": 5125,
            "count": 1062,
            "type": "SCALAR",
            "max": [
                391
            ],
            "min": [
                0
            ]
        }
    ],
    "buffers": [
        {
            "byteLength": 24632,
            "uri": "Bistro_Research_Exterior_paris_building_10_5__5539.bin"
        }
    ],
    "bufferViews": [
        {
            "buffer": 0,
            "byteOffset": 0,
            "byteLength": 4704,
            "target": 34962
        },
        {
            "buffer": 0,
            "byteOffset": 4704,
            "byteLength": 4704,
            "target": 34962
        },
        {
            "buffer": 0,
            "byteOffset": 9408,
            "byteLength": 4704,
            "target": 34962
        },
        {
            "buffer": 0,
            "byteOffset": 14112,
            "byteLength": 3136,
            "target": 34962
        },
        {
            "buffer": 0,
            "byteOffset": 17248,
            "byteLength": 3136,
            "target": 34962
        },
        {
            "buffer": 0,
            "byteOffset": 20384,
            "byteLength": 4248,
            "target": 34963
        }
    ],
    "images": [
        {
            "uri": "Textures\\MASTER_Wood_Painted_Green_BaseColor.dds"
        },
        {
            "uri": "Textures\\MASTER_Wood_Painted_Green_Normal.dds"
        },
        {
            "uri": "Textures\\MASTER_Wood_Painted_Green_Specular.dds"
        }
    ],
    "materials": [
        {
            "name": "MASTER_Wood_Painted_Green",
            "pbrMetallicRoughness": {
                "baseColorTexture": {
                    "index": 0
                },
                "metallicFactor": 0.0,
                "roughnessFactor": 0.5527864098548889
            },
            "normalTexture": {
                "index": 1
            },
            "extensions": {
                "KHR_materials_specular": {
                    "specularFactor": 1.0,
                    "specularColorFactor": [
                        0.5,
                        0.5,
                        0.5
                    ],
                    "specularTexture": {
                        "index": 2
                    }
                }
            }
        }
    ],
    "meshes": [
        {
            "name": "Bistro_Research_Exterior_paris_building_10_5__5539",
            "primitives": [
                {
                    "mode": 4,
                    "material": 0,
                    "indices": 5,
                    "attributes": {
                        "POSITION": 0,
                        "NORMAL": 1,
                        "TANGENT": 2,
                        "TEXCOORD_0": 3,
                        "TEXCOORD_1": 4
                    }
                }
            ]
        }
    ],
    "nodes": [
        {
            "name": "Bistro_Research_Exterior_paris_building_10_5__5539",
            "mesh": 0
        }
    ],
    "samplers": [
        {},
        {},
        {}
    ],
    "scenes": [
        {
            "nodes": [
                0
            ]
        }
    ],
    "textures": [
        {
            "source": 0,
            "sampler": 0
        },
        {
            "source": 1,
            "sampler": 1
        },
        {
            "source": 2,
            "sampler": 2
        }
    ],
    "scene": 0
}