{
    "asset": {
        "version": "2.0",
        "generator": "Open Asset Import Library (assimp v6.0.44188438)"
    },
    "extensionsUsed": [
        "KHR_materials_specular",
        "KHR_materials_volume",
        "FB_ngon_encoding"
    ],
    "accessors": [
        {
            "bufferView": 0,
            "byteOffset": 0,
            "componentType": 5126,
            "count": 4,
            "type": "VEC3",
            "max": [
                1214.5247802734375,
                2237.22607421875,
                313.9612731933594
            ],
            "min": [
                2.2250738585072014e-308,
                2.2250738585072014e-308,
                2.2250738585072014e-308
            ]
        },
        {
            "bufferView": 1,
            "byteOffset": 0,
            "componentType": 5126,
            "count": 4,
            "type": "VEC3",
            "max": [
                -0.858177125453949,
                0.5133388042449951,
                -0.003918556962162256
            ],
            "min": [
                -0.858177125453949,
                2.2250738585072014e-308,
                -0.003918556962162256
            ]
        },
        {
            "bufferView": 2,
            "byteOffset": 0,
            "componentType": 5126,
            "count": 4,
            "type": "VEC3",
            "max": [
                -0.5133427381515503,
                -0.8581836819648743,
                3.652210409654799e-7
            ],
            "min": [
                -0.5133427381515503,
                -0.858183741569519,
                2.2250738585072014e-308
            ]
        },
        {
            "bufferView": 3,
            "byteOffset": 0,
            "componentType": 5126,
            "count": 4,
            "type": "VEC2",
            "max": [
                1.0361328125,
                1.13134765625
            ],
            "min": [
                2.2250738585072014e-308,
                -1.462890625
            ]
        },
        {
            "bufferView": 4,
            "byteOffset": 0,
            "componentType": 5126,
            "count": 4,
            "type": "VEC2",
            "max": [
                0.9921875,
                0.9921875
            ],
            "min": [
                2.2250738585072014e-308,
                2.2250738585072014e-308
            ]
        },
        {
            "bufferView": 5,
            "byteOffset": 0,
            "componentType": 5125,
            "count": 6,
            "type": "SCALAR",
            "max": [
                3
            ],
            "min": [
                0
            ]
        }
    ],
    "buffers": [
        {
            "byteLength": 232,
            "uri": "Bistro_Research_Exterior_paris_building_05_5159.bin"
        }
    ],
    "bufferViews": [
        {
            "buffer": 0,
            "byteOffset": 0,
            "byteLength": 48,
            "target": 34962
        },
        {
            "buffer": 0,
            "byteOffset": 48,
            "byteLength": 48,
            "target": 34962
        },
        {
            "buffer": 0,
            "byteOffset": 96,
            "byteLength": 48,
            "target": 34962
        },
        {
            "buffer": 0,
            "byteOffset": 144,
            "byteLength": 32,
            "target": 34962
        },
        {
            "buffer": 0,
            "byteOffset": 176,
            "byteLength": 32,
            "target": 34962
        },
        {
            "buffer": 0,
            "byteOffset": 208,
            "byteLength": 24,
            "target": 34963
        }
    ],
    "images": [
        {
            "uri": "Textures\\MASTER_Frosted_Glass_BaseColor.dds"
        },
        {
            "uri": "Textures\\MASTER_Frosted_Glass_Normal.dds"
        },
        {
            "uri": "Textures\\MASTER_Frosted_Glass_Specular.dds"
        }
    ],
    "materials": [
        {
            "name": "MASTER_Frosted_Glass",
            "pbrMetallicRoughness": {
                "baseColorTexture": {
                    "index": 0
                },
                "metallicFactor": 0.0,
                "roughnessFactor": 0.5527864098548889
            },
            "normalTexture": {
                "index": 1
            },
            "extensions": {
                "KHR_materials_specular": {
                    "specularFactor": 1.0,
                    "specularColorFactor": [
                        0.5,
                        0.5,
                        0.5
                    ],
                    "specularTexture": {
                        "index": 2
                    }
                }
            }
        }
    ],
    "meshes": [
        {
            "name": "Bistro_Research_Exterior_paris_building_05_5159",
            "primitives": [
                {
                    "mode": 4,
                    "material": 0,
                    "indices": 5,
                    "attributes": {
                        "POSITION": 0,
                        "NORMAL": 1,
                        "TANGENT": 2,
                        "TEXCOORD_0": 3,
                        "TEXCOORD_1": 4
                    }
                }
            ]
        }
    ],
    "nodes": [
        {
            "name": "Bistro_Research_Exterior_paris_building_05_5159",
            "mesh": 0
        }
    ],
    "samplers": [
        {},
        {},
        {}
    ],
    "scenes": [
        {
            "nodes": [
                0
            ]
        }
    ],
    "textures": [
        {
            "source": 0,
            "sampler": 0
        },
        {
            "source": 1,
            "sampler": 1
        },
        {
            "source": 2,
            "sampler": 2
        }
    ],
    "scene": 0
}