{
    "asset": {
        "version": "2.0",
        "generator": "Open Asset Import Library (assimp v6.0.44188438)"
    },
    "extensionsUsed": [
        "KHR_materials_specular",
        "KHR_materials_volume",
        "FB_ngon_encoding"
    ],
    "accessors": [
        {
            "bufferView": 0,
            "byteOffset": 0,
            "componentType": 5126,
            "count": 37,
            "type": "VEC3",
            "max": [
                241.3359832763672,
                -48.795082092285156,
                952.9798583984375
            ],
            "min": [
                2.2250738585072014e-308,
                -209.8119659423828,
                2.2250738585072014e-308
            ]
        },
        {
            "bufferView": 1,
            "byteOffset": 0,
            "componentType": 5126,
            "count": 37,
            "type": "VEC3",
            "max": [
                0.85164874792099,
                0.3382909893989563,
                -0.003933321684598923
            ],
            "min": [
                -0.851560115814209,
                -0.9367220997810364,
                -0.954454243183136
            ]
        },
        {
            "bufferView": 2,
            "byteOffset": 0,
            "componentType": 5126,
            "count": 37,
            "type": "VEC3",
            "max": [
                0.8865917921066284,
                0.8803209066390991,
                0.9145599007606506
            ],
            "min": [
                -0.9767018556594849,
                -0.5244495272636414,
                -0.9057908654212952
            ]
        },
        {
            "bufferView": 3,
            "byteOffset": 0,
            "componentType": 5126,
            "count": 37,
            "type": "VEC2",
            "max": [
                -0.2320556640625,
                0.7197265625
            ],
            "min": [
                -1.037109375,
                2.2250738585072014e-308
            ]
        },
        {
            "bufferView": 4,
            "byteOffset": 0,
            "componentType": 5126,
            "count": 37,
            "type": "VEC2",
            "max": [
                0.9921875,
                0.9921875
            ],
            "min": [
                2.2250738585072014e-308,
                2.2250738585072014e-308
            ]
        },
        {
            "bufferView": 5,
            "byteOffset": 0,
            "componentType": 5125,
            "count": 90,
            "type": "SCALAR",
            "max": [
                36
            ],
            "min": [
                0
            ]
        }
    ],
    "buffers": [
        {
            "byteLength": 2284,
            "uri": "Bistro_Research_Exterior_Paris_Building_01_paris_building_01_4381.bin"
        }
    ],
    "bufferViews": [
        {
            "buffer": 0,
            "byteOffset": 0,
            "byteLength": 444,
            "target": 34962
        },
        {
            "buffer": 0,
            "byteOffset": 444,
            "byteLength": 444,
            "target": 34962
        },
        {
            "buffer": 0,
            "byteOffset": 888,
            "byteLength": 444,
            "target": 34962
        },
        {
            "buffer": 0,
            "byteOffset": 1332,
            "byteLength": 296,
            "target": 34962
        },
        {
            "buffer": 0,
            "byteOffset": 1628,
            "byteLength": 296,
            "target": 34962
        },
        {
            "buffer": 0,
            "byteOffset": 1924,
            "byteLength": 360,
            "target": 34963
        }
    ],
    "images": [
        {
            "uri": "Textures\\MASTER_Concrete_Plaster1_BLENDSHADER_BaseColor.dds"
        },
        {
            "uri": "Textures\\MASTER_Concrete_Plaster1_BLENDSHADER_Normal.dds"
        },
        {
            "uri": "Textures\\MASTER_Concrete_Plaster1_BLENDSHADER_Specular.dds"
        }
    ],
    "materials": [
        {
            "name": "MASTER_Concrete_Plaster1_BLENDSHADER",
            "pbrMetallicRoughness": {
                "baseColorTexture": {
                    "index": 0
                },
                "metallicFactor": 0.0,
                "roughnessFactor": 0.5527864098548889
            },
            "normalTexture": {
                "index": 1
            },
            "extensions": {
                "KHR_materials_specular": {
                    "specularFactor": 1.0,
                    "specularColorFactor": [
                        0.5,
                        0.5,
                        0.5
                    ],
                    "specularTexture": {
                        "index": 2
                    }
                }
            }
        }
    ],
    "meshes": [
        {
            "name": "Bistro_Research_Exterior_Paris_Building_01_paris_building_01_4381",
            "primitives": [
                {
                    "mode": 4,
                    "material": 0,
                    "indices": 5,
                    "attributes": {
                        "POSITION": 0,
                        "NORMAL": 1,
                        "TANGENT": 2,
                        "TEXCOORD_0": 3,
                        "TEXCOORD_1": 4
                    }
                }
            ]
        }
    ],
    "nodes": [
        {
            "name": "Bistro_Research_Exterior_Paris_Building_01_paris_building_01_4381",
            "mesh": 0
        }
    ],
    "samplers": [
        {},
        {},
        {}
    ],
    "scenes": [
        {
            "nodes": [
                0
            ]
        }
    ],
    "textures": [
        {
            "source": 0,
            "sampler": 0
        },
        {
            "source": 1,
            "sampler": 1
        },
        {
            "source": 2,
            "sampler": 2
        }
    ],
    "scene": 0
}