{
    "asset": {
        "version": "2.0",
        "generator": "Open Asset Import Library (assimp v6.0.44188438)"
    },
    "extensionsUsed": [
        "KHR_materials_specular",
        "KHR_materials_volume",
        "FB_ngon_encoding"
    ],
    "accessors": [
        {
            "bufferView": 0,
            "byteOffset": 0,
            "componentType": 5126,
            "count": 56724,
            "type": "VEC3",
            "max": [
                -1253.2021484375,
                1291.197509765625,
                1570.5748291015625
            ],
            "min": [
                -2683.78857421875,
                -924.52197265625,
                2.2250738585072014e-308
            ]
        },
        {
            "bufferView": 1,
            "byteOffset": 0,
            "componentType": 5126,
            "count": 56724,
            "type": "VEC3",
            "max": [
                0.9999219179153442,
                0.99777752161026,
                0.999984622001648
            ],
            "min": [
                -0.9965576529502869,
                -0.998239278793335,
                -0.999984622001648
            ]
        },
        {
            "bufferView": 2,
            "byteOffset": 0,
            "componentType": 5126,
            "count": 56724,
            "type": "VEC3",
            "max": [
                0.9973359704017639,
                0.9999919533729553,
                0.9999924898147583
            ],
            "min": [
                -0.9990034699440002,
                -0.9999868869781494,
                -0.9999925494194031
            ]
        },
        {
            "bufferView": 3,
            "byteOffset": 0,
            "componentType": 5126,
            "count": 56724,
            "type": "VEC2",
            "max": [
                1.984375,
                1.98486328125
            ],
            "min": [
                -0.98486328125,
                -0.984375
            ]
        },
        {
            "bufferView": 4,
            "byteOffset": 0,
            "componentType": 5126,
            "count": 56724,
            "type": "VEC2",
            "max": [
                0.99169921875,
                0.9921913146972656
            ],
            "min": [
                2.2250738585072014e-308,
                2.2250738585072014e-308
            ]
        },
        {
            "bufferView": 5,
            "byteOffset": 0,
            "componentType": 5125,
            "count": 192996,
            "type": "SCALAR",
            "max": [
                56723
            ],
            "min": [
                0
            ]
        }
    ],
    "buffers": [
        {
            "byteLength": 3721632,
            "uri": "Bistro_Research_Exterior_paris_building_07_5321.bin"
        }
    ],
    "bufferViews": [
        {
            "buffer": 0,
            "byteOffset": 0,
            "byteLength": 680688,
            "target": 34962
        },
        {
            "buffer": 0,
            "byteOffset": 680688,
            "byteLength": 680688,
            "target": 34962
        },
        {
            "buffer": 0,
            "byteOffset": 1361376,
            "byteLength": 680688,
            "target": 34962
        },
        {
            "buffer": 0,
            "byteOffset": 2042064,
            "byteLength": 453792,
            "target": 34962
        },
        {
            "buffer": 0,
            "byteOffset": 2495856,
            "byteLength": 453792,
            "target": 34962
        },
        {
            "buffer": 0,
            "byteOffset": 2949648,
            "byteLength": 771984,
            "target": 34963
        }
    ],
    "images": [
        {
            "uri": "Textures\\MASTER_Wood_Painted_Green_BLENDSHADER_BaseColor.dds"
        },
        {
            "uri": "Textures\\MASTER_Wood_Painted_Green_BLENDSHADER_Normal.dds"
        },
        {
            "uri": "Textures\\MASTER_Wood_Painted_Green_BLENDSHADER_Specular.dds"
        }
    ],
    "materials": [
        {
            "name": "MASTER_Wood_Painted_Green_BLENDSHADER",
            "pbrMetallicRoughness": {
                "baseColorTexture": {
                    "index": 0
                },
                "metallicFactor": 0.0,
                "roughnessFactor": 0.5527864098548889
            },
            "normalTexture": {
                "index": 1
            },
            "extensions": {
                "KHR_materials_specular": {
                    "specularFactor": 1.0,
                    "specularColorFactor": [
                        0.5,
                        0.5,
                        0.5
                    ],
                    "specularTexture": {
                        "index": 2
                    }
                }
            }
        }
    ],
    "meshes": [
        {
            "name": "Bistro_Research_Exterior_paris_building_07_5321",
            "primitives": [
                {
                    "mode": 4,
                    "material": 0,
                    "indices": 5,
                    "attributes": {
                        "POSITION": 0,
                        "NORMAL": 1,
                        "TANGENT": 2,
                        "TEXCOORD_0": 3,
                        "TEXCOORD_1": 4
                    }
                }
            ]
        }
    ],
    "nodes": [
        {
            "name": "Bistro_Research_Exterior_paris_building_07_5321",
            "mesh": 0
        }
    ],
    "samplers": [
        {},
        {},
        {}
    ],
    "scenes": [
        {
            "nodes": [
                0
            ]
        }
    ],
    "textures": [
        {
            "source": 0,
            "sampler": 0
        },
        {
            "source": 1,
            "sampler": 1
        },
        {
            "source": 2,
            "sampler": 2
        }
    ],
    "scene": 0
}