{
    "asset": {
        "version": "2.0",
        "generator": "Open Asset Import Library (assimp v6.0.44188438)"
    },
    "extensionsUsed": [
        "KHR_materials_specular",
        "KHR_materials_volume",
        "FB_ngon_encoding"
    ],
    "accessors": [
        {
            "bufferView": 0,
            "byteOffset": 0,
            "componentType": 5126,
            "count": 4696,
            "type": "VEC3",
            "max": [
                1764.33056640625,
                3299.3828125,
                1402.2060546875
            ],
            "min": [
                2.2250738585072014e-308,
                2.2250738585072014e-308,
                2.2250738585072014e-308
            ]
        },
        {
            "bufferView": 1,
            "byteOffset": 0,
            "componentType": 5126,
            "count": 4696,
            "type": "VEC3",
            "max": [
                0.9999219179153442,
                0.9999231100082397,
                0.999984622001648
            ],
            "min": [
                -0.9998001456260681,
                -0.999796986579895,
                -0.999984622001648
            ]
        },
        {
            "bufferView": 2,
            "byteOffset": 0,
            "componentType": 5126,
            "count": 4696,
            "type": "VEC3",
            "max": [
                0.9999868273735046,
                0.9999297857284546,
                0.9999924898147583
            ],
            "min": [
                -0.999964714050293,
                -0.9999651908874512,
                -0.9999924898147583
            ]
        },
        {
            "bufferView": 3,
            "byteOffset": 0,
            "componentType": 5126,
            "count": 4696,
            "type": "VEC2",
            "max": [
                0.8583984375,
                0.980072021484375
            ],
            "min": [
                2.2250738585072014e-308,
                2.2250738585072014e-308
            ]
        },
        {
            "bufferView": 4,
            "byteOffset": 0,
            "componentType": 5126,
            "count": 4696,
            "type": "VEC2",
            "max": [
                0.98046875,
                0.9921875
            ],
            "min": [
                2.2250738585072014e-308,
                2.2250738585072014e-308
            ]
        },
        {
            "bufferView": 5,
            "byteOffset": 0,
            "componentType": 5125,
            "count": 7968,
            "type": "SCALAR",
            "max": [
                4695
            ],
            "min": [
                0
            ]
        }
    ],
    "buffers": [
        {
            "byteLength": 276064,
            "uri": "Bistro_Research_Exterior_paris_building_05_5165.bin"
        }
    ],
    "bufferViews": [
        {
            "buffer": 0,
            "byteOffset": 0,
            "byteLength": 56352,
            "target": 34962
        },
        {
            "buffer": 0,
            "byteOffset": 56352,
            "byteLength": 56352,
            "target": 34962
        },
        {
            "buffer": 0,
            "byteOffset": 112704,
            "byteLength": 56352,
            "target": 34962
        },
        {
            "buffer": 0,
            "byteOffset": 169056,
            "byteLength": 37568,
            "target": 34962
        },
        {
            "buffer": 0,
            "byteOffset": 206624,
            "byteLength": 37568,
            "target": 34962
        },
        {
            "buffer": 0,
            "byteOffset": 244192,
            "byteLength": 31872,
            "target": 34963
        }
    ],
    "images": [
        {
            "uri": "Textures\\MASTER_Building_Details_BaseColor.dds"
        },
        {
            "uri": "Textures\\MASTER_Building_Details_Normal.dds"
        },
        {
            "uri": "Textures\\MASTER_Building_Details_Specular.dds"
        }
    ],
    "materials": [
        {
            "name": "MASTER_Building_Details",
            "pbrMetallicRoughness": {
                "baseColorTexture": {
                    "index": 0
                },
                "metallicFactor": 0.0,
                "roughnessFactor": 0.5527864098548889
            },
            "normalTexture": {
                "index": 1
            },
            "extensions": {
                "KHR_materials_specular": {
                    "specularFactor": 1.0,
                    "specularColorFactor": [
                        0.5,
                        0.5,
                        0.5
                    ],
                    "specularTexture": {
                        "index": 2
                    }
                }
            }
        }
    ],
    "meshes": [
        {
            "name": "Bistro_Research_Exterior_paris_building_05_5165",
            "primitives": [
                {
                    "mode": 4,
                    "material": 0,
                    "indices": 5,
                    "attributes": {
                        "POSITION": 0,
                        "NORMAL": 1,
                        "TANGENT": 2,
                        "TEXCOORD_0": 3,
                        "TEXCOORD_1": 4
                    }
                }
            ]
        }
    ],
    "nodes": [
        {
            "name": "Bistro_Research_Exterior_paris_building_05_5165",
            "mesh": 0
        }
    ],
    "samplers": [
        {},
        {},
        {}
    ],
    "scenes": [
        {
            "nodes": [
                0
            ]
        }
    ],
    "textures": [
        {
            "source": 0,
            "sampler": 0
        },
        {
            "source": 1,
            "sampler": 1
        },
        {
            "source": 2,
            "sampler": 2
        }
    ],
    "scene": 0
}