{
    "asset": {
        "version": "2.0",
        "generator": "Open Asset Import Library (assimp v6.0.44188438)"
    },
    "extensionsUsed": [
        "KHR_materials_specular",
        "KHR_materials_volume",
        "FB_ngon_encoding"
    ],
    "accessors": [
        {
            "bufferView": 0,
            "byteOffset": 0,
            "componentType": 5126,
            "count": 2070,
            "type": "VEC3",
            "max": [
                -1013.2704467773438,
                -527.3743896484375,
                331.2156677246094
            ],
            "min": [
                -1133.81591796875,
                -665.5335693359375,
                2.2250738585072014e-308
            ]
        },
        {
            "bufferView": 1,
            "byteOffset": 0,
            "componentType": 5126,
            "count": 2070,
            "type": "VEC3",
            "max": [
                0.9990483522415161,
                0.9999231100082397,
                0.999984622001648
            ],
            "min": [
                -0.995949387550354,
                -0.998239278793335,
                -0.999984622001648
            ]
        },
        {
            "bufferView": 2,
            "byteOffset": 0,
            "componentType": 5126,
            "count": 2070,
            "type": "VEC3",
            "max": [
                0.9998895525932312,
                0.9950729012489319,
                0.9999923706054688
            ],
            "min": [
                -0.9998722672462463,
                -0.9951106309890747,
                -0.9999924302101135
            ]
        },
        {
            "bufferView": 3,
            "byteOffset": 0,
            "componentType": 5126,
            "count": 2070,
            "type": "VEC2",
            "max": [
                0.99853515625,
                0.9977798461914063
            ],
            "min": [
                2.2250738585072014e-308,
                2.2250738585072014e-308
            ]
        },
        {
            "bufferView": 4,
            "byteOffset": 0,
            "componentType": 5126,
            "count": 2070,
            "type": "VEC2",
            "max": [
                0.98779296875,
                0.9921875
            ],
            "min": [
                2.2250738585072014e-308,
                2.2250738585072014e-308
            ]
        },
        {
            "bufferView": 5,
            "byteOffset": 0,
            "componentType": 5125,
            "count": 5934,
            "type": "SCALAR",
            "max": [
                2069
            ],
            "min": [
                0
            ]
        }
    ],
    "buffers": [
        {
            "byteLength": 131376,
            "uri": "Bistro_Research_Exterior_paris_building_03_4941.bin"
        }
    ],
    "bufferViews": [
        {
            "buffer": 0,
            "byteOffset": 0,
            "byteLength": 24840,
            "target": 34962
        },
        {
            "buffer": 0,
            "byteOffset": 24840,
            "byteLength": 24840,
            "target": 34962
        },
        {
            "buffer": 0,
            "byteOffset": 49680,
            "byteLength": 24840,
            "target": 34962
        },
        {
            "buffer": 0,
            "byteOffset": 74520,
            "byteLength": 16560,
            "target": 34962
        },
        {
            "buffer": 0,
            "byteOffset": 91080,
            "byteLength": 16560,
            "target": 34962
        },
        {
            "buffer": 0,
            "byteOffset": 107640,
            "byteLength": 23736,
            "target": 34963
        }
    ],
    "images": [
        {
            "uri": "Textures\\MASTER_Doors_BaseColor.dds"
        },
        {
            "uri": "Textures\\MASTER_Doors_Normal.dds"
        },
        {
            "uri": "Textures\\MASTER_Doors_Specular.dds"
        }
    ],
    "materials": [
        {
            "name": "MASTER_Doors",
            "pbrMetallicRoughness": {
                "baseColorTexture": {
                    "index": 0
                },
                "metallicFactor": 0.0,
                "roughnessFactor": 0.5527864098548889
            },
            "normalTexture": {
                "index": 1
            },
            "extensions": {
                "KHR_materials_specular": {
                    "specularFactor": 1.0,
                    "specularColorFactor": [
                        0.5,
                        0.5,
                        0.5
                    ],
                    "specularTexture": {
                        "index": 2
                    }
                }
            }
        }
    ],
    "meshes": [
        {
            "name": "Bistro_Research_Exterior_paris_building_03_4941",
            "primitives": [
                {
                    "mode": 4,
                    "material": 0,
                    "indices": 5,
                    "attributes": {
                        "POSITION": 0,
                        "NORMAL": 1,
                        "TANGENT": 2,
                        "TEXCOORD_0": 3,
                        "TEXCOORD_1": 4
                    }
                }
            ]
        }
    ],
    "nodes": [
        {
            "name": "Bistro_Research_Exterior_paris_building_03_4941",
            "mesh": 0
        }
    ],
    "samplers": [
        {},
        {},
        {}
    ],
    "scenes": [
        {
            "nodes": [
                0
            ]
        }
    ],
    "textures": [
        {
            "source": 0,
            "sampler": 0
        },
        {
            "source": 1,
            "sampler": 1
        },
        {
            "source": 2,
            "sampler": 2
        }
    ],
    "scene": 0
}