{
    "asset": {
        "version": "2.0",
        "generator": "Open Asset Import Library (assimp v6.0.44188438)"
    },
    "extensionsUsed": [
        "KHR_materials_specular",
        "KHR_materials_volume",
        "FB_ngon_encoding"
    ],
    "accessors": [
        {
            "bufferView": 0,
            "byteOffset": 0,
            "componentType": 5126,
            "count": 603,
            "type": "VEC3",
            "max": [
                435.73992919921875,
                -1324.48974609375,
                371.5190734863281
            ],
            "min": [
                2.2250738585072014e-308,
                -1452.721435546875,
                2.2250738585072014e-308
            ]
        },
        {
            "bufferView": 1,
            "byteOffset": 0,
            "componentType": 5126,
            "count": 603,
            "type": "VEC3",
            "max": [
                0.9999219179153442,
                0.9996158480644226,
                0.999984622001648
            ],
            "min": [
                -0.9254776835441589,
                -0.37478625774383545,
                -0.999984622001648
            ]
        },
        {
            "bufferView": 2,
            "byteOffset": 0,
            "componentType": 5126,
            "count": 603,
            "type": "VEC3",
            "max": [
                0.9891058206558228,
                0.9999297857284546,
                0.8534531593322754
            ],
            "min": [
                -0.9997456073760986,
                -0.9257082939147949,
                -0.8564417362213135
            ]
        },
        {
            "bufferView": 3,
            "byteOffset": 0,
            "componentType": 5126,
            "count": 603,
            "type": "VEC2",
            "max": [
                1.13671875,
                1.373779296875
            ],
            "min": [
                -0.1331787109375,
                -0.373046875
            ]
        },
        {
            "bufferView": 4,
            "byteOffset": 0,
            "componentType": 5126,
            "count": 603,
            "type": "VEC2",
            "max": [
                0.98046875,
                0.9921875
            ],
            "min": [
                2.2250738585072014e-308,
                2.2250738585072014e-308
            ]
        },
        {
            "bufferView": 5,
            "byteOffset": 0,
            "componentType": 5125,
            "count": 1290,
            "type": "SCALAR",
            "max": [
                602
            ],
            "min": [
                0
            ]
        }
    ],
    "buffers": [
        {
            "byteLength": 36516,
            "uri": "Bistro_Research_Exterior_paris_building_11_5561.bin"
        }
    ],
    "bufferViews": [
        {
            "buffer": 0,
            "byteOffset": 0,
            "byteLength": 7236,
            "target": 34962
        },
        {
            "buffer": 0,
            "byteOffset": 7236,
            "byteLength": 7236,
            "target": 34962
        },
        {
            "buffer": 0,
            "byteOffset": 14472,
            "byteLength": 7236,
            "target": 34962
        },
        {
            "buffer": 0,
            "byteOffset": 21708,
            "byteLength": 4824,
            "target": 34962
        },
        {
            "buffer": 0,
            "byteOffset": 26532,
            "byteLength": 4824,
            "target": 34962
        },
        {
            "buffer": 0,
            "byteOffset": 31356,
            "byteLength": 5160,
            "target": 34963
        }
    ],
    "images": [
        {
            "uri": "Textures\\MASTER_Concrete_Plaster_BaseColor.dds"
        },
        {
            "uri": "Textures\\MASTER_Concrete_Plaster_Normal.dds"
        },
        {
            "uri": "Textures\\MASTER_Concrete_Plaster_Specular.dds"
        }
    ],
    "materials": [
        {
            "name": "MASTER_Concrete_Plaster",
            "pbrMetallicRoughness": {
                "baseColorTexture": {
                    "index": 0
                },
                "metallicFactor": 0.0,
                "roughnessFactor": 0.5527864098548889
            },
            "normalTexture": {
                "index": 1
            },
            "extensions": {
                "KHR_materials_specular": {
                    "specularFactor": 1.0,
                    "specularColorFactor": [
                        0.5,
                        0.5,
                        0.5
                    ],
                    "specularTexture": {
                        "index": 2
                    }
                }
            }
        }
    ],
    "meshes": [
        {
            "name": "Bistro_Research_Exterior_paris_building_11_5561",
            "primitives": [
                {
                    "mode": 4,
                    "material": 0,
                    "indices": 5,
                    "attributes": {
                        "POSITION": 0,
                        "NORMAL": 1,
                        "TANGENT": 2,
                        "TEXCOORD_0": 3,
                        "TEXCOORD_1": 4
                    }
                }
            ]
        }
    ],
    "nodes": [
        {
            "name": "Bistro_Research_Exterior_paris_building_11_5561",
            "mesh": 0
        }
    ],
    "samplers": [
        {},
        {},
        {}
    ],
    "scenes": [
        {
            "nodes": [
                0
            ]
        }
    ],
    "textures": [
        {
            "source": 0,
            "sampler": 0
        },
        {
            "source": 1,
            "sampler": 1
        },
        {
            "source": 2,
            "sampler": 2
        }
    ],
    "scene": 0
}