{
    "asset": {
        "version": "2.0",
        "generator": "Open Asset Import Library (assimp v6.0.44188438)"
    },
    "extensionsUsed": [
        "KHR_materials_specular",
        "KHR_materials_volume",
        "FB_ngon_encoding"
    ],
    "accessors": [
        {
            "bufferView": 0,
            "byteOffset": 0,
            "componentType": 5126,
            "count": 8,
            "type": "VEC3",
            "max": [
                -36.39640808105469,
                175.2459716796875,
                696.35595703125
            ],
            "min": [
                -116.56422424316406,
                -2.108135938644409,
                2.2250738585072014e-308
            ]
        },
        {
            "bufferView": 1,
            "byteOffset": 0,
            "componentType": 5126,
            "count": 8,
            "type": "VEC3",
            "max": [
                -0.9116947650909424,
                -0.40431350469589233,
                -0.003912793006747961
            ],
            "min": [
                -0.9146120548248291,
                -0.41084960103034973,
                -0.0039253137074410915
            ]
        },
        {
            "bufferView": 2,
            "byteOffset": 0,
            "componentType": 5126,
            "count": 8,
            "type": "VEC3",
            "max": [
                -0.0035671836230903864,
                0.0023158541880548,
                0.9999923706054688
            ],
            "min": [
                -0.005322422366589308,
                -0.0016078405315056443,
                2.2250738585072014e-308
            ]
        },
        {
            "bufferView": 3,
            "byteOffset": 0,
            "componentType": 5126,
            "count": 8,
            "type": "VEC2",
            "max": [
                1.5927734375,
                0.614990234375
            ],
            "min": [
                2.2250738585072014e-308,
                -0.109375
            ]
        },
        {
            "bufferView": 4,
            "byteOffset": 0,
            "componentType": 5126,
            "count": 8,
            "type": "VEC2",
            "max": [
                0.9921875,
                0.9921875
            ],
            "min": [
                2.2250738585072014e-308,
                2.2250738585072014e-308
            ]
        },
        {
            "bufferView": 5,
            "byteOffset": 0,
            "componentType": 5125,
            "count": 12,
            "type": "SCALAR",
            "max": [
                7
            ],
            "min": [
                0
            ]
        }
    ],
    "buffers": [
        {
            "byteLength": 464,
            "uri": "Bistro_Research_Exterior_Paris_Building_01_paris_building_01_4157.bin"
        }
    ],
    "bufferViews": [
        {
            "buffer": 0,
            "byteOffset": 0,
            "byteLength": 96,
            "target": 34962
        },
        {
            "buffer": 0,
            "byteOffset": 96,
            "byteLength": 96,
            "target": 34962
        },
        {
            "buffer": 0,
            "byteOffset": 192,
            "byteLength": 96,
            "target": 34962
        },
        {
            "buffer": 0,
            "byteOffset": 288,
            "byteLength": 64,
            "target": 34962
        },
        {
            "buffer": 0,
            "byteOffset": 352,
            "byteLength": 64,
            "target": 34962
        },
        {
            "buffer": 0,
            "byteOffset": 416,
            "byteLength": 48,
            "target": 34963
        }
    ],
    "images": [
        {
            "uri": "Textures\\MASTER_Glass_Dirty_MASKED_BaseColor.dds"
        },
        {
            "uri": "Textures\\MASTER_Glass_Dirty_MASKED_Normal.dds"
        },
        {
            "uri": "Textures\\MASTER_Glass_Dirty_MASKED_Specular.dds"
        }
    ],
    "materials": [
        {
            "name": "MASTER_Glass_Dirty_MASKED",
            "pbrMetallicRoughness": {
                "baseColorTexture": {
                    "index": 0
                },
                "metallicFactor": 0.0,
                "roughnessFactor": 0.5527864098548889
            },
            "normalTexture": {
                "index": 1
            },
            "extensions": {
                "KHR_materials_specular": {
                    "specularFactor": 1.0,
                    "specularColorFactor": [
                        0.5,
                        0.5,
                        0.5
                    ],
                    "specularTexture": {
                        "index": 2
                    }
                }
            }
        }
    ],
    "meshes": [
        {
            "name": "Bistro_Research_Exterior_Paris_Building_01_paris_building_01_4157",
            "primitives": [
                {
                    "mode": 4,
                    "material": 0,
                    "indices": 5,
                    "attributes": {
                        "POSITION": 0,
                        "NORMAL": 1,
                        "TANGENT": 2,
                        "TEXCOORD_0": 3,
                        "TEXCOORD_1": 4
                    }
                }
            ]
        }
    ],
    "nodes": [
        {
            "name": "Bistro_Research_Exterior_Paris_Building_01_paris_building_01_4157",
            "mesh": 0
        }
    ],
    "samplers": [
        {},
        {},
        {}
    ],
    "scenes": [
        {
            "nodes": [
                0
            ]
        }
    ],
    "textures": [
        {
            "source": 0,
            "sampler": 0
        },
        {
            "source": 1,
            "sampler": 1
        },
        {
            "source": 2,
            "sampler": 2
        }
    ],
    "scene": 0
}