{
    "asset": {
        "version": "2.0",
        "generator": "Open Asset Import Library (assimp v6.0.44188438)"
    },
    "extensionsUsed": [
        "KHR_materials_specular",
        "KHR_materials_volume",
        "FB_ngon_encoding"
    ],
    "accessors": [
        {
            "bufferView": 0,
            "byteOffset": 0,
            "componentType": 5126,
            "count": 465,
            "type": "VEC3",
            "max": [
                5360.54638671875,
                -4229.623046875,
                1109.48095703125
            ],
            "min": [
                2.2250738585072014e-308,
                -6003.2724609375,
                2.2250738585072014e-308
            ]
        },
        {
            "bufferView": 1,
            "byteOffset": 0,
            "componentType": 5126,
            "count": 465,
            "type": "VEC3",
            "max": [
                0.989301323890686,
                0.9960101842880249,
                0.458450049161911
            ],
            "min": [
                -0.9905586242675781,
                -0.9904097318649292,
                -0.48994746804237366
            ]
        },
        {
            "bufferView": 2,
            "byteOffset": 0,
            "componentType": 5126,
            "count": 465,
            "type": "VEC3",
            "max": [
                0.14583422243595123,
                0.9905663132667542,
                0.19024121761322021
            ],
            "min": [
                -0.9999129772186279,
                -0.9893090724945068,
                -0.1295786201953888
            ]
        },
        {
            "bufferView": 3,
            "byteOffset": 0,
            "componentType": 5126,
            "count": 465,
            "type": "VEC2",
            "max": [
                3.861328125,
                0.872802734375
            ],
            "min": [
                -19.71875,
                -4.51171875
            ]
        },
        {
            "bufferView": 4,
            "byteOffset": 0,
            "componentType": 5126,
            "count": 465,
            "type": "VEC2",
            "max": [
                0.99169921875,
                0.9921875
            ],
            "min": [
                2.2250738585072014e-308,
                2.2250738585072014e-308
            ]
        },
        {
            "bufferView": 5,
            "byteOffset": 0,
            "componentType": 5125,
            "count": 2247,
            "type": "SCALAR",
            "max": [
                464
            ],
            "min": [
                0
            ]
        }
    ],
    "buffers": [
        {
            "byteLength": 33168,
            "uri": "Bistro_Research_Exterior_paris_building_03_mirrored_10__4967.bin"
        }
    ],
    "bufferViews": [
        {
            "buffer": 0,
            "byteOffset": 0,
            "byteLength": 5580,
            "target": 34962
        },
        {
            "buffer": 0,
            "byteOffset": 5580,
            "byteLength": 5580,
            "target": 34962
        },
        {
            "buffer": 0,
            "byteOffset": 11160,
            "byteLength": 5580,
            "target": 34962
        },
        {
            "buffer": 0,
            "byteOffset": 16740,
            "byteLength": 3720,
            "target": 34962
        },
        {
            "buffer": 0,
            "byteOffset": 20460,
            "byteLength": 3720,
            "target": 34962
        },
        {
            "buffer": 0,
            "byteOffset": 24180,
            "byteLength": 8988,
            "target": 34963
        }
    ],
    "images": [
        {
            "uri": "Textures\\MASTER_Brick_Large_White_BaseColor.dds"
        },
        {
            "uri": "Textures\\MASTER_Brick_Large_White_Normal.dds"
        },
        {
            "uri": "Textures\\MASTER_Brick_Large_White_Specular.dds"
        }
    ],
    "materials": [
        {
            "name": "MASTER_Brick_Large_White",
            "pbrMetallicRoughness": {
                "baseColorTexture": {
                    "index": 0
                },
                "metallicFactor": 0.0,
                "roughnessFactor": 0.5527864098548889
            },
            "normalTexture": {
                "index": 1
            },
            "extensions": {
                "KHR_materials_specular": {
                    "specularFactor": 1.0,
                    "specularColorFactor": [
                        0.5,
                        0.5,
                        0.5
                    ],
                    "specularTexture": {
                        "index": 2
                    }
                }
            }
        }
    ],
    "meshes": [
        {
            "name": "Bistro_Research_Exterior_paris_building_03_mirrored_10__4967",
            "primitives": [
                {
                    "mode": 4,
                    "material": 0,
                    "indices": 5,
                    "attributes": {
                        "POSITION": 0,
                        "NORMAL": 1,
                        "TANGENT": 2,
                        "TEXCOORD_0": 3,
                        "TEXCOORD_1": 4
                    }
                }
            ]
        }
    ],
    "nodes": [
        {
            "name": "Bistro_Research_Exterior_paris_building_03_mirrored_10__4967",
            "mesh": 0
        }
    ],
    "samplers": [
        {},
        {},
        {}
    ],
    "scenes": [
        {
            "nodes": [
                0
            ]
        }
    ],
    "textures": [
        {
            "source": 0,
            "sampler": 0
        },
        {
            "source": 1,
            "sampler": 1
        },
        {
            "source": 2,
            "sampler": 2
        }
    ],
    "scene": 0
}