{
    "asset": {
        "version": "2.0",
        "generator": "Open Asset Import Library (assimp v6.0.44188438)"
    },
    "extensionsUsed": [
        "KHR_materials_specular",
        "KHR_materials_volume",
        "FB_ngon_encoding"
    ],
    "accessors": [
        {
            "bufferView": 0,
            "byteOffset": 0,
            "componentType": 5126,
            "count": 9707,
            "type": "VEC3",
            "max": [
                -1987.9769287109375,
                4015.541748046875,
                1294.0670166015625
            ],
            "min": [
                -3884.602783203125,
                2.2250738585072014e-308,
                2.2250738585072014e-308
            ]
        },
        {
            "bufferView": 1,
            "byteOffset": 0,
            "componentType": 5126,
            "count": 9707,
            "type": "VEC3",
            "max": [
                0.9994224309921265,
                0.7947959899902344,
                0.999984622001648
            ],
            "min": [
                -0.999984622001648,
                -0.9999843835830688,
                -0.999984622001648
            ]
        },
        {
            "bufferView": 2,
            "byteOffset": 0,
            "componentType": 5126,
            "count": 9707,
            "type": "VEC3",
            "max": [
                0.9995969533920288,
                0.9999838471412659,
                0.9999923706054688
            ],
            "min": [
                -0.9999812841415405,
                -0.9998049139976501,
                -0.9999923706054688
            ]
        },
        {
            "bufferView": 3,
            "byteOffset": 0,
            "componentType": 5126,
            "count": 9707,
            "type": "VEC2",
            "max": [
                9.0390625,
                9.046875
            ],
            "min": [
                -8.8046875,
                -2.255859375
            ]
        },
        {
            "bufferView": 4,
            "byteOffset": 0,
            "componentType": 5126,
            "count": 9707,
            "type": "VEC2",
            "max": [
                0.9873046875,
                0.9921913146972656
            ],
            "min": [
                2.2250738585072014e-308,
                2.2250738585072014e-308
            ]
        },
        {
            "bufferView": 5,
            "byteOffset": 0,
            "componentType": 5125,
            "count": 32823,
            "type": "SCALAR",
            "max": [
                9706
            ],
            "min": [
                0
            ]
        }
    ],
    "buffers": [
        {
            "byteLength": 636056,
            "uri": "Bistro_Research_Exterior_paris_building_03_mirrored_4959.bin"
        }
    ],
    "bufferViews": [
        {
            "buffer": 0,
            "byteOffset": 0,
            "byteLength": 116484,
            "target": 34962
        },
        {
            "buffer": 0,
            "byteOffset": 116484,
            "byteLength": 116484,
            "target": 34962
        },
        {
            "buffer": 0,
            "byteOffset": 232968,
            "byteLength": 116484,
            "target": 34962
        },
        {
            "buffer": 0,
            "byteOffset": 349452,
            "byteLength": 77656,
            "target": 34962
        },
        {
            "buffer": 0,
            "byteOffset": 427108,
            "byteLength": 77656,
            "target": 34962
        },
        {
            "buffer": 0,
            "byteOffset": 504764,
            "byteLength": 131292,
            "target": 34963
        }
    ],
    "images": [
        {
            "uri": "Textures\\MASTER_Concrete_BaseColor.dds"
        },
        {
            "uri": "Textures\\MASTER_Concrete_Normal.dds"
        },
        {
            "uri": "Textures\\MASTER_Concrete_Specular.dds"
        }
    ],
    "materials": [
        {
            "name": "MASTER_Concrete",
            "pbrMetallicRoughness": {
                "baseColorTexture": {
                    "index": 0
                },
                "metallicFactor": 0.0,
                "roughnessFactor": 0.5527864098548889
            },
            "normalTexture": {
                "index": 1
            },
            "extensions": {
                "KHR_materials_specular": {
                    "specularFactor": 1.0,
                    "specularColorFactor": [
                        0.5,
                        0.5,
                        0.5
                    ],
                    "specularTexture": {
                        "index": 2
                    }
                }
            }
        }
    ],
    "meshes": [
        {
            "name": "Bistro_Research_Exterior_paris_building_03_mirrored_4959",
            "primitives": [
                {
                    "mode": 4,
                    "material": 0,
                    "indices": 5,
                    "attributes": {
                        "POSITION": 0,
                        "NORMAL": 1,
                        "TANGENT": 2,
                        "TEXCOORD_0": 3,
                        "TEXCOORD_1": 4
                    }
                }
            ]
        }
    ],
    "nodes": [
        {
            "name": "Bistro_Research_Exterior_paris_building_03_mirrored_4959",
            "mesh": 0
        }
    ],
    "samplers": [
        {},
        {},
        {}
    ],
    "scenes": [
        {
            "nodes": [
                0
            ]
        }
    ],
    "textures": [
        {
            "source": 0,
            "sampler": 0
        },
        {
            "source": 1,
            "sampler": 1
        },
        {
            "source": 2,
            "sampler": 2
        }
    ],
    "scene": 0
}