{
    "asset": {
        "version": "2.0",
        "generator": "Open Asset Import Library (assimp v6.0.44188438)"
    },
    "extensionsUsed": [
        "KHR_materials_specular",
        "KHR_materials_volume",
        "FB_ngon_encoding"
    ],
    "accessors": [
        {
            "bufferView": 0,
            "byteOffset": 0,
            "componentType": 5126,
            "count": 724,
            "type": "VEC3",
            "max": [
                838.662841796875,
                -780.5050659179688,
                123.76625061035156
            ],
            "min": [
                2.2250738585072014e-308,
                -855.4620971679688,
                2.2250738585072014e-308
            ]
        },
        {
            "bufferView": 1,
            "byteOffset": 0,
            "componentType": 5126,
            "count": 724,
            "type": "VEC3",
            "max": [
                0.9998594522476196,
                0.9984504580497742,
                0.976025402545929
            ],
            "min": [
                -0.9986953735351563,
                -0.9976803064346313,
                -0.8335397243499756
            ]
        },
        {
            "bufferView": 2,
            "byteOffset": 0,
            "componentType": 5126,
            "count": 724,
            "type": "VEC3",
            "max": [
                0.9997212290763855,
                0.9993253946304321,
                0.9742212295532227
            ],
            "min": [
                -0.9999296069145203,
                -0.9996727705001831,
                -0.98988276720047
            ]
        },
        {
            "bufferView": 3,
            "byteOffset": 0,
            "componentType": 5126,
            "count": 724,
            "type": "VEC2",
            "max": [
                1.001953125,
                1.001434326171875
            ],
            "min": [
                0.0,
                0.0
            ]
        },
        {
            "bufferView": 4,
            "byteOffset": 0,
            "componentType": 5126,
            "count": 724,
            "type": "VEC2",
            "max": [
                0.990234375,
                0.9921875
            ],
            "min": [
                2.2250738585072014e-308,
                2.2250738585072014e-308
            ]
        },
        {
            "bufferView": 5,
            "byteOffset": 0,
            "componentType": 5125,
            "count": 1905,
            "type": "SCALAR",
            "max": [
                723
            ],
            "min": [
                0
            ]
        }
    ],
    "buffers": [
        {
            "byteLength": 45268,
            "uri": "Bistro_Research_Exterior_bux_hedge_ball_small_3953.bin"
        }
    ],
    "bufferViews": [
        {
            "buffer": 0,
            "byteOffset": 0,
            "byteLength": 8688,
            "target": 34962
        },
        {
            "buffer": 0,
            "byteOffset": 8688,
            "byteLength": 8688,
            "target": 34962
        },
        {
            "buffer": 0,
            "byteOffset": 17376,
            "byteLength": 8688,
            "target": 34962
        },
        {
            "buffer": 0,
            "byteOffset": 26064,
            "byteLength": 5792,
            "target": 34962
        },
        {
            "buffer": 0,
            "byteOffset": 31856,
            "byteLength": 5792,
            "target": 34962
        },
        {
            "buffer": 0,
            "byteOffset": 37648,
            "byteLength": 7620,
            "target": 34963
        }
    ],
    "images": [
        {
            "uri": "Textures\\Foliage_Bux_Hedges46_BaseColor.dds"
        },
        {
            "uri": "Textures\\Foliage_Bux_Hedges46_Normal.dds"
        },
        {
            "uri": "Textures\\Foliage_Bux_Hedges46_Specular.dds"
        }
    ],
    "materials": [
        {
            "name": "Foliage_Bux_Hedges46.DoubleSided",
            "pbrMetallicRoughness": {
                "baseColorTexture": {
                    "index": 0
                },
                "metallicFactor": 0.0,
                "roughnessFactor": 0.5527864098548889
            },
            "normalTexture": {
                "index": 1
            },
            "extensions": {
                "KHR_materials_specular": {
                    "specularFactor": 1.0,
                    "specularColorFactor": [
                        0.5,
                        0.5,
                        0.5
                    ],
                    "specularTexture": {
                        "index": 2
                    }
                }
            }
        }
    ],
    "meshes": [
        {
            "name": "Bistro_Research_Exterior_bux_hedge_ball_small_3953",
            "primitives": [
                {
                    "mode": 4,
                    "material": 0,
                    "indices": 5,
                    "attributes": {
                        "POSITION": 0,
                        "NORMAL": 1,
                        "TANGENT": 2,
                        "TEXCOORD_0": 3,
                        "TEXCOORD_1": 4
                    }
                }
            ]
        }
    ],
    "nodes": [
        {
            "name": "Bistro_Research_Exterior_bux_hedge_ball_small_3953",
            "mesh": 0
        }
    ],
    "samplers": [
        {},
        {},
        {}
    ],
    "scenes": [
        {
            "nodes": [
                0
            ]
        }
    ],
    "textures": [
        {
            "source": 0,
            "sampler": 0
        },
        {
            "source": 1,
            "sampler": 1
        },
        {
            "source": 2,
            "sampler": 2
        }
    ],
    "scene": 0
}