{
    "asset": {
        "version": "2.0",
        "generator": "Open Asset Import Library (assimp v6.0.44188438)"
    },
    "extensionsUsed": [
        "KHR_materials_specular",
        "KHR_materials_volume",
        "FB_ngon_encoding"
    ],
    "accessors": [
        {
            "bufferView": 0,
            "byteOffset": 0,
            "componentType": 5126,
            "count": 40599,
            "type": "VEC3",
            "max": [
                3484.55419921875,
                -2885.983154296875,
                502.4361267089844
            ],
            "min": [
                2.2250738585072014e-308,
                -3044.609375,
                2.2250738585072014e-308
            ]
        },
        {
            "bufferView": 1,
            "byteOffset": 0,
            "componentType": 5126,
            "count": 40599,
            "type": "VEC3",
            "max": [
                0.9999219179153442,
                0.999984622001648,
                0.9999843835830688
            ],
            "min": [
                -0.9999231100082397,
                -0.9999843835830688,
                -0.9999231100082397
            ]
        },
        {
            "bufferView": 2,
            "byteOffset": 0,
            "componentType": 5126,
            "count": 40599,
            "type": "VEC3",
            "max": [
                0.9999923706054688,
                0.9999292492866516,
                0.999992311000824
            ],
            "min": [
                -0.9999359846115112,
                -0.9999499917030334,
                -0.9999213218688965
            ]
        },
        {
            "bufferView": 3,
            "byteOffset": 0,
            "componentType": 5126,
            "count": 40599,
            "type": "VEC2",
            "max": [
                0.98974609375,
                0.9900054931640625
            ],
            "min": [
                2.2250738585072014e-308,
                2.2250738585072014e-308
            ]
        },
        {
            "bufferView": 4,
            "byteOffset": 0,
            "componentType": 5126,
            "count": 40599,
            "type": "VEC2",
            "max": [
                0.98974609375,
                0.9900054931640625
            ],
            "min": [
                2.2250738585072014e-308,
                2.2250738585072014e-308
            ]
        },
        {
            "bufferView": 5,
            "byteOffset": 0,
            "componentType": 5125,
            "count": 67665,
            "type": "SCALAR",
            "max": [
                40598
            ],
            "min": [
                0
            ]
        }
    ],
    "buffers": [
        {
            "byteLength": 2381808,
            "uri": "Bistro_Research_Exterior__lod0_Italian_Cypress5_3931.bin"
        }
    ],
    "bufferViews": [
        {
            "buffer": 0,
            "byteOffset": 0,
            "byteLength": 487188,
            "target": 34962
        },
        {
            "buffer": 0,
            "byteOffset": 487188,
            "byteLength": 487188,
            "target": 34962
        },
        {
            "buffer": 0,
            "byteOffset": 974376,
            "byteLength": 487188,
            "target": 34962
        },
        {
            "buffer": 0,
            "byteOffset": 1461564,
            "byteLength": 324792,
            "target": 34962
        },
        {
            "buffer": 0,
            "byteOffset": 1786356,
            "byteLength": 324792,
            "target": 34962
        },
        {
            "buffer": 0,
            "byteOffset": 2111148,
            "byteLength": 270660,
            "target": 34963
        }
    ],
    "images": [
        {
            "uri": "Textures\\Foliage_Leaves_BaseColor.dds"
        },
        {
            "uri": "Textures\\Foliage_Leaves_Normal.dds"
        },
        {
            "uri": "Textures\\Foliage_Leaves_Specular.dds"
        }
    ],
    "materials": [
        {
            "name": "Foliage_Leaves.DoubleSided",
            "pbrMetallicRoughness": {
                "baseColorTexture": {
                    "index": 0
                },
                "metallicFactor": 0.0,
                "roughnessFactor": 0.5527864098548889
            },
            "normalTexture": {
                "index": 1
            },
            "extensions": {
                "KHR_materials_specular": {
                    "specularFactor": 1.0,
                    "specularColorFactor": [
                        0.5,
                        0.5,
                        0.5
                    ],
                    "specularTexture": {
                        "index": 2
                    }
                }
            }
        }
    ],
    "meshes": [
        {
            "name": "Bistro_Research_Exterior__lod0_Italian_Cypress5_3931",
            "primitives": [
                {
                    "mode": 4,
                    "material": 0,
                    "indices": 5,
                    "attributes": {
                        "POSITION": 0,
                        "NORMAL": 1,
                        "TANGENT": 2,
                        "TEXCOORD_0": 3,
                        "TEXCOORD_1": 4
                    }
                }
            ]
        }
    ],
    "nodes": [
        {
            "name": "Bistro_Research_Exterior__lod0_Italian_Cypress5_3931",
            "mesh": 0
        }
    ],
    "samplers": [
        {},
        {},
        {}
    ],
    "scenes": [
        {
            "nodes": [
                0
            ]
        }
    ],
    "textures": [
        {
            "source": 0,
            "sampler": 0
        },
        {
            "source": 1,
            "sampler": 1
        },
        {
            "source": 2,
            "sampler": 2
        }
    ],
    "scene": 0
}