{
    "asset": {
        "version": "2.0",
        "generator": "Open Asset Import Library (assimp v6.0.44188438)"
    },
    "extensionsUsed": [
        "KHR_materials_specular",
        "KHR_materials_volume",
        "FB_ngon_encoding"
    ],
    "accessors": [
        {
            "bufferView": 0,
            "byteOffset": 0,
            "componentType": 5126,
            "count": 165,
            "type": "VEC3",
            "max": [
                528.3561401367188,
                -241.79119873046875,
                694.3723754882813
            ],
            "min": [
                2.2250738585072014e-308,
                -291.99822998046875,
                2.2250738585072014e-308
            ]
        },
        {
            "bufferView": 1,
            "byteOffset": 0,
            "componentType": 5126,
            "count": 165,
            "type": "VEC3",
            "max": [
                0.9904097318649292,
                0.6068639159202576,
                0.999984622001648
            ],
            "min": [
                -0.9999231100082397,
                -0.9999219179153442,
                -0.9991859197616577
            ]
        },
        {
            "bufferView": 2,
            "byteOffset": 0,
            "componentType": 5126,
            "count": 165,
            "type": "VEC3",
            "max": [
                0.9314677119255066,
                0.9292790293693542,
                0.9999924898147583
            ],
            "min": [
                -0.003929046913981438,
                -0.3815392851829529,
                -0.9999430179595947
            ]
        },
        {
            "bufferView": 3,
            "byteOffset": 0,
            "componentType": 5126,
            "count": 165,
            "type": "VEC2",
            "max": [
                1.0537109375,
                0.9919967651367188
            ],
            "min": [
                -0.000047087669372558594,
                2.2250738585072014e-308
            ]
        },
        {
            "bufferView": 4,
            "byteOffset": 0,
            "componentType": 5126,
            "count": 165,
            "type": "VEC2",
            "max": [
                0.77099609375,
                0.7890625
            ],
            "min": [
                2.2250738585072014e-308,
                2.2250738585072014e-308
            ]
        },
        {
            "bufferView": 5,
            "byteOffset": 0,
            "componentType": 5125,
            "count": 414,
            "type": "SCALAR",
            "max": [
                164
            ],
            "min": [
                0
            ]
        }
    ],
    "buffers": [
        {
            "byteLength": 10236,
            "uri": "Bistro_Research_Exterior_Paris_Building_01_paris_building_01_4213.bin"
        }
    ],
    "bufferViews": [
        {
            "buffer": 0,
            "byteOffset": 0,
            "byteLength": 1980,
            "target": 34962
        },
        {
            "buffer": 0,
            "byteOffset": 1980,
            "byteLength": 1980,
            "target": 34962
        },
        {
            "buffer": 0,
            "byteOffset": 3960,
            "byteLength": 1980,
            "target": 34962
        },
        {
            "buffer": 0,
            "byteOffset": 5940,
            "byteLength": 1320,
            "target": 34962
        },
        {
            "buffer": 0,
            "byteOffset": 7260,
            "byteLength": 1320,
            "target": 34962
        },
        {
            "buffer": 0,
            "byteOffset": 8580,
            "byteLength": 1656,
            "target": 34963
        }
    ],
    "images": [
        {
            "uri": "Textures\\MASTER_Wood_Painted3_BaseColor.dds"
        },
        {
            "uri": "Textures\\MASTER_Wood_Painted3_Normal.dds"
        },
        {
            "uri": "Textures\\MASTER_Wood_Painted3_Specular.dds"
        }
    ],
    "materials": [
        {
            "name": "MASTER_Wood_Painted3",
            "pbrMetallicRoughness": {
                "baseColorTexture": {
                    "index": 0
                },
                "metallicFactor": 0.0,
                "roughnessFactor": 0.5527864098548889
            },
            "normalTexture": {
                "index": 1
            },
            "extensions": {
                "KHR_materials_specular": {
                    "specularFactor": 1.0,
                    "specularColorFactor": [
                        0.5,
                        0.5,
                        0.5
                    ],
                    "specularTexture": {
                        "index": 2
                    }
                }
            }
        }
    ],
    "meshes": [
        {
            "name": "Bistro_Research_Exterior_Paris_Building_01_paris_building_01_4213",
            "primitives": [
                {
                    "mode": 4,
                    "material": 0,
                    "indices": 5,
                    "attributes": {
                        "POSITION": 0,
                        "NORMAL": 1,
                        "TANGENT": 2,
                        "TEXCOORD_0": 3,
                        "TEXCOORD_1": 4
                    }
                }
            ]
        }
    ],
    "nodes": [
        {
            "name": "Bistro_Research_Exterior_Paris_Building_01_paris_building_01_4213",
            "mesh": 0
        }
    ],
    "samplers": [
        {},
        {},
        {}
    ],
    "scenes": [
        {
            "nodes": [
                0
            ]
        }
    ],
    "textures": [
        {
            "source": 0,
            "sampler": 0
        },
        {
            "source": 1,
            "sampler": 1
        },
        {
            "source": 2,
            "sampler": 2
        }
    ],
    "scene": 0
}