{
    "asset": {
        "version": "2.0",
        "generator": "Open Asset Import Library (assimp v6.0.44188438)"
    },
    "extensionsUsed": [
        "KHR_materials_specular",
        "KHR_materials_volume",
        "FB_ngon_encoding"
    ],
    "accessors": [
        {
            "bufferView": 0,
            "byteOffset": 0,
            "componentType": 5126,
            "count": 147,
            "type": "VEC3",
            "max": [
                -857.4269409179688,
                -1116.141357421875,
                1258.7122802734375
            ],
            "min": [
                -992.3720703125,
                -1251.08642578125,
                2.2250738585072014e-308
            ]
        },
        {
            "bufferView": 1,
            "byteOffset": 0,
            "componentType": 5126,
            "count": 147,
            "type": "VEC3",
            "max": [
                0.7528150081634521,
                0.7562002539634705,
                0.46917709708213806
            ],
            "min": [
                -0.7600840330123901,
                -0.7567279934883118,
                -0.999984622001648
            ]
        },
        {
            "bufferView": 2,
            "byteOffset": 0,
            "componentType": 5126,
            "count": 147,
            "type": "VEC3",
            "max": [
                0.8147848844528198,
                0.8140413165092468,
                0.9990127682685852
            ],
            "min": [
                -0.8130847215652466,
                -0.8102051615715027,
                -0.9990941286087036
            ]
        },
        {
            "bufferView": 3,
            "byteOffset": 0,
            "componentType": 5126,
            "count": 147,
            "type": "VEC2",
            "max": [
                0.74169921875,
                0.955535888671875
            ],
            "min": [
                2.2250738585072014e-308,
                2.2250738585072014e-308
            ]
        },
        {
            "bufferView": 4,
            "byteOffset": 0,
            "componentType": 5126,
            "count": 147,
            "type": "VEC2",
            "max": [
                0.98974609375,
                0.9921875
            ],
            "min": [
                2.2250738585072014e-308,
                2.2250738585072014e-308
            ]
        },
        {
            "bufferView": 5,
            "byteOffset": 0,
            "componentType": 5125,
            "count": 372,
            "type": "SCALAR",
            "max": [
                146
            ],
            "min": [
                0
            ]
        }
    ],
    "buffers": [
        {
            "byteLength": 9132,
            "uri": "Bistro_Research_Exterior_Paris_Chimney_01A_5951_0.bin"
        }
    ],
    "bufferViews": [
        {
            "buffer": 0,
            "byteOffset": 0,
            "byteLength": 1764,
            "target": 34962
        },
        {
            "buffer": 0,
            "byteOffset": 1764,
            "byteLength": 1764,
            "target": 34962
        },
        {
            "buffer": 0,
            "byteOffset": 3528,
            "byteLength": 1764,
            "target": 34962
        },
        {
            "buffer": 0,
            "byteOffset": 5292,
            "byteLength": 1176,
            "target": 34962
        },
        {
            "buffer": 0,
            "byteOffset": 6468,
            "byteLength": 1176,
            "target": 34962
        },
        {
            "buffer": 0,
            "byteOffset": 7644,
            "byteLength": 1488,
            "target": 34963
        }
    ],
    "images": [
        {
            "uri": "Textures\\Plaster_BaseColor.dds"
        },
        {
            "uri": "Textures\\Plaster_Normal.dds"
        },
        {
            "uri": "Textures\\Plaster_Specular.dds"
        }
    ],
    "materials": [
        {
            "name": "Plaster",
            "pbrMetallicRoughness": {
                "baseColorTexture": {
                    "index": 0
                },
                "metallicFactor": 0.0,
                "roughnessFactor": 0.5527864098548889
            },
            "normalTexture": {
                "index": 1
            },
            "extensions": {
                "KHR_materials_specular": {
                    "specularFactor": 1.0,
                    "specularColorFactor": [
                        0.5,
                        0.5,
                        0.5
                    ],
                    "specularTexture": {
                        "index": 2
                    }
                }
            }
        }
    ],
    "meshes": [
        {
            "name": "Bistro_Research_Exterior_Paris_Chimney_01A_5951",
            "primitives": [
                {
                    "mode": 4,
                    "material": 0,
                    "indices": 5,
                    "attributes": {
                        "POSITION": 0,
                        "NORMAL": 1,
                        "TANGENT": 2,
                        "TEXCOORD_0": 3,
                        "TEXCOORD_1": 4
                    }
                }
            ]
        }
    ],
    "nodes": [
        {
            "name": "Bistro_Research_Exterior_Paris_Chimney_01A_5951",
            "mesh": 0
        }
    ],
    "samplers": [
        {},
        {},
        {}
    ],
    "scenes": [
        {
            "nodes": [
                0
            ]
        }
    ],
    "textures": [
        {
            "source": 0,
            "sampler": 0
        },
        {
            "source": 1,
            "sampler": 1
        },
        {
            "source": 2,
            "sampler": 2
        }
    ],
    "scene": 0
}