{
    "asset": {
        "version": "2.0",
        "generator": "Open Asset Import Library (assimp v6.0.44188438)"
    },
    "extensionsUsed": [
        "KHR_materials_specular",
        "KHR_materials_volume",
        "FB_ngon_encoding"
    ],
    "accessors": [
        {
            "bufferView": 0,
            "byteOffset": 0,
            "componentType": 5126,
            "count": 5477,
            "type": "VEC3",
            "max": [
                4751.0146484375,
                -2614.053955078125,
                135.99305725097656
            ],
            "min": [
                2.2250738585072014e-308,
                -2838.28466796875,
                2.2250738585072014e-308
            ]
        },
        {
            "bufferView": 1,
            "byteOffset": 0,
            "componentType": 5126,
            "count": 5477,
            "type": "VEC3",
            "max": [
                0.9998594522476196,
                0.9996158480644226,
                0.999984622001648
            ],
            "min": [
                -0.9984503388404846,
                -0.9990483522415161,
                -0.8965376019477844
            ]
        },
        {
            "bufferView": 2,
            "byteOffset": 0,
            "componentType": 5126,
            "count": 5477,
            "type": "VEC3",
            "max": [
                0.999954342842102,
                0.9999276995658875,
                0.5256317853927612
            ],
            "min": [
                -0.9999450445175171,
                -0.9998859763145447,
                -0.7515637278556824
            ]
        },
        {
            "bufferView": 3,
            "byteOffset": 0,
            "componentType": 5126,
            "count": 5477,
            "type": "VEC2",
            "max": [
                1.001953125,
                1.001434326171875
            ],
            "min": [
                0.0,
                0.0
            ]
        },
        {
            "bufferView": 4,
            "byteOffset": 0,
            "componentType": 5126,
            "count": 5477,
            "type": "VEC2",
            "max": [
                0.98974609375,
                0.9921875
            ],
            "min": [
                2.2250738585072014e-308,
                2.2250738585072014e-308
            ]
        },
        {
            "bufferView": 5,
            "byteOffset": 0,
            "componentType": 5125,
            "count": 5607,
            "type": "SCALAR",
            "max": [
                5476
            ],
            "min": [
                0
            ]
        }
    ],
    "buffers": [
        {
            "byteLength": 307232,
            "uri": "Bistro_Research_Exterior_bux_hedge_box_long_low_bend1_3989.bin"
        }
    ],
    "bufferViews": [
        {
            "buffer": 0,
            "byteOffset": 0,
            "byteLength": 65724,
            "target": 34962
        },
        {
            "buffer": 0,
            "byteOffset": 65724,
            "byteLength": 65724,
            "target": 34962
        },
        {
            "buffer": 0,
            "byteOffset": 131448,
            "byteLength": 65724,
            "target": 34962
        },
        {
            "buffer": 0,
            "byteOffset": 197172,
            "byteLength": 43816,
            "target": 34962
        },
        {
            "buffer": 0,
            "byteOffset": 240988,
            "byteLength": 43816,
            "target": 34962
        },
        {
            "buffer": 0,
            "byteOffset": 284804,
            "byteLength": 22428,
            "target": 34963
        }
    ],
    "images": [
        {
            "uri": "Textures\\Foliage_Bux_Hedges46_BaseColor.dds"
        },
        {
            "uri": "Textures\\Foliage_Bux_Hedges46_Normal.dds"
        },
        {
            "uri": "Textures\\Foliage_Bux_Hedges46_Specular.dds"
        }
    ],
    "materials": [
        {
            "name": "Foliage_Bux_Hedges46.DoubleSided",
            "pbrMetallicRoughness": {
                "baseColorTexture": {
                    "index": 0
                },
                "metallicFactor": 0.0,
                "roughnessFactor": 0.5527864098548889
            },
            "normalTexture": {
                "index": 1
            },
            "extensions": {
                "KHR_materials_specular": {
                    "specularFactor": 1.0,
                    "specularColorFactor": [
                        0.5,
                        0.5,
                        0.5
                    ],
                    "specularTexture": {
                        "index": 2
                    }
                }
            }
        }
    ],
    "meshes": [
        {
            "name": "Bistro_Research_Exterior_bux_hedge_box_long_low_bend1_3989",
            "primitives": [
                {
                    "mode": 4,
                    "material": 0,
                    "indices": 5,
                    "attributes": {
                        "POSITION": 0,
                        "NORMAL": 1,
                        "TANGENT": 2,
                        "TEXCOORD_0": 3,
                        "TEXCOORD_1": 4
                    }
                }
            ]
        }
    ],
    "nodes": [
        {
            "name": "Bistro_Research_Exterior_bux_hedge_box_long_low_bend1_3989",
            "mesh": 0
        }
    ],
    "samplers": [
        {},
        {},
        {}
    ],
    "scenes": [
        {
            "nodes": [
                0
            ]
        }
    ],
    "textures": [
        {
            "source": 0,
            "sampler": 0
        },
        {
            "source": 1,
            "sampler": 1
        },
        {
            "source": 2,
            "sampler": 2
        }
    ],
    "scene": 0
}