{
    "asset": {
        "version": "2.0",
        "generator": "Open Asset Import Library (assimp v6.0.44188438)"
    },
    "extensionsUsed": [
        "KHR_materials_specular",
        "KHR_materials_volume",
        "FB_ngon_encoding"
    ],
    "accessors": [
        {
            "bufferView": 0,
            "byteOffset": 0,
            "componentType": 5126,
            "count": 3090,
            "type": "VEC3",
            "max": [
                94.27398681640625,
                788.9415283203125,
                532.3770141601563
            ],
            "min": [
                2.2250738585072014e-308,
                2.2250738585072014e-308,
                2.2250738585072014e-308
            ]
        },
        {
            "bufferView": 1,
            "byteOffset": 0,
            "componentType": 5126,
            "count": 3090,
            "type": "VEC3",
            "max": [
                0.9989860653877258,
                0.9962533712387085,
                0.9997345209121704
            ],
            "min": [
                -0.9998615980148315,
                -0.9999219179153442,
                -0.7768992781639099
            ]
        },
        {
            "bufferView": 2,
            "byteOffset": 0,
            "componentType": 5126,
            "count": 3090,
            "type": "VEC3",
            "max": [
                0.9985861778259277,
                0.9973410367965698,
                0.9998515248298645
            ],
            "min": [
                -0.9963486194610596,
                -0.9995793104171753,
                -0.9889692664146423
            ]
        },
        {
            "bufferView": 3,
            "byteOffset": 0,
            "componentType": 5126,
            "count": 3090,
            "type": "VEC2",
            "max": [
                1.0,
                1.0
            ],
            "min": [
                2.2250738585072014e-308,
                0.0
            ]
        },
        {
            "bufferView": 4,
            "byteOffset": 0,
            "componentType": 5126,
            "count": 3090,
            "type": "VEC2",
            "max": [
                0.9912109375,
                0.9921875
            ],
            "min": [
                2.2250738585072014e-308,
                2.2250738585072014e-308
            ]
        },
        {
            "bufferView": 5,
            "byteOffset": 0,
            "componentType": 5125,
            "count": 10080,
            "type": "SCALAR",
            "max": [
                3089
            ],
            "min": [
                0
            ]
        }
    ],
    "buffers": [
        {
            "byteLength": 201000,
            "uri": "Bistro_Research_Exterior_Paris_flowers_01b1_6043_0.bin"
        }
    ],
    "bufferViews": [
        {
            "buffer": 0,
            "byteOffset": 0,
            "byteLength": 37080,
            "target": 34962
        },
        {
            "buffer": 0,
            "byteOffset": 37080,
            "byteLength": 37080,
            "target": 34962
        },
        {
            "buffer": 0,
            "byteOffset": 74160,
            "byteLength": 37080,
            "target": 34962
        },
        {
            "buffer": 0,
            "byteOffset": 111240,
            "byteLength": 24720,
            "target": 34962
        },
        {
            "buffer": 0,
            "byteOffset": 135960,
            "byteLength": 24720,
            "target": 34962
        },
        {
            "buffer": 0,
            "byteOffset": 160680,
            "byteLength": 40320,
            "target": 34963
        }
    ],
    "images": [
        {
            "uri": "Textures\\Foliage_Paris_Flowers_BaseColor.dds"
        },
        {
            "uri": "Textures\\Foliage_Paris_Flowers_Normal.dds"
        },
        {
            "uri": "Textures\\Foliage_Paris_Flowers_Specular.dds"
        }
    ],
    "materials": [
        {
            "name": "Foliage_Paris_Flowers",
            "pbrMetallicRoughness": {
                "baseColorTexture": {
                    "index": 0
                },
                "metallicFactor": 0.0,
                "roughnessFactor": 0.5527864098548889
            },
            "normalTexture": {
                "index": 1
            },
            "extensions": {
                "KHR_materials_specular": {
                    "specularFactor": 1.0,
                    "specularColorFactor": [
                        0.5,
                        0.5,
                        0.5
                    ],
                    "specularTexture": {
                        "index": 2
                    }
                }
            }
        }
    ],
    "meshes": [
        {
            "name": "Bistro_Research_Exterior_Paris_flowers_01b1_6043",
            "primitives": [
                {
                    "mode": 4,
                    "material": 0,
                    "indices": 5,
                    "attributes": {
                        "POSITION": 0,
                        "NORMAL": 1,
                        "TANGENT": 2,
                        "TEXCOORD_0": 3,
                        "TEXCOORD_1": 4
                    }
                }
            ]
        }
    ],
    "nodes": [
        {
            "name": "Bistro_Research_Exterior_Paris_flowers_01b1_6043",
            "mesh": 0
        }
    ],
    "samplers": [
        {},
        {},
        {}
    ],
    "scenes": [
        {
            "nodes": [
                0
            ]
        }
    ],
    "textures": [
        {
            "source": 0,
            "sampler": 0
        },
        {
            "source": 1,
            "sampler": 1
        },
        {
            "source": 2,
            "sampler": 2
        }
    ],
    "scene": 0
}