{
    "asset": {
        "version": "2.0",
        "generator": "Open Asset Import Library (assimp v6.0.44188438)"
    },
    "extensionsUsed": [
        "KHR_materials_specular",
        "KHR_materials_volume",
        "FB_ngon_encoding"
    ],
    "accessors": [
        {
            "bufferView": 0,
            "byteOffset": 0,
            "componentType": 5126,
            "count": 730,
            "type": "VEC3",
            "max": [
                64.3853530883789,
                -122.78662872314453,
                403.1058654785156
            ],
            "min": [
                2.2250738585072014e-308,
                -148.8839111328125,
                2.2250738585072014e-308
            ]
        },
        {
            "bufferView": 1,
            "byteOffset": 0,
            "componentType": 5126,
            "count": 730,
            "type": "VEC3",
            "max": [
                0.9308874607086182,
                0.3708137571811676,
                0.999984622001648
            ],
            "min": [
                -0.9784181118011475,
                -0.9842987060546875,
                -0.999984622001648
            ]
        },
        {
            "bufferView": 2,
            "byteOffset": 0,
            "componentType": 5126,
            "count": 730,
            "type": "VEC3",
            "max": [
                0.9300987124443054,
                0.3756846487522125,
                0.9999924898147583
            ],
            "min": [
                -0.9300329089164734,
                -0.3742843270301819,
                -0.9999924898147583
            ]
        },
        {
            "bufferView": 3,
            "byteOffset": 0,
            "componentType": 5126,
            "count": 730,
            "type": "VEC2",
            "max": [
                1.0400390625,
                0.546142578125
            ],
            "min": [
                -0.066650390625,
                2.2250738585072014e-308
            ]
        },
        {
            "bufferView": 4,
            "byteOffset": 0,
            "componentType": 5126,
            "count": 730,
            "type": "VEC2",
            "max": [
                0.99169921875,
                0.9921875
            ],
            "min": [
                2.2250738585072014e-308,
                2.2250738585072014e-308
            ]
        },
        {
            "bufferView": 5,
            "byteOffset": 0,
            "componentType": 5125,
            "count": 3888,
            "type": "SCALAR",
            "max": [
                729
            ],
            "min": [
                0
            ]
        }
    ],
    "buffers": [
        {
            "byteLength": 53512,
            "uri": "Bistro_Research_Exterior_Paris_Building_01_paris_building_01_bottom_4585.bin"
        }
    ],
    "bufferViews": [
        {
            "buffer": 0,
            "byteOffset": 0,
            "byteLength": 8760,
            "target": 34962
        },
        {
            "buffer": 0,
            "byteOffset": 8760,
            "byteLength": 8760,
            "target": 34962
        },
        {
            "buffer": 0,
            "byteOffset": 17520,
            "byteLength": 8760,
            "target": 34962
        },
        {
            "buffer": 0,
            "byteOffset": 26280,
            "byteLength": 5840,
            "target": 34962
        },
        {
            "buffer": 0,
            "byteOffset": 32120,
            "byteLength": 5840,
            "target": 34962
        },
        {
            "buffer": 0,
            "byteOffset": 37960,
            "byteLength": 15552,
            "target": 34963
        }
    ],
    "images": [
        {
            "uri": "Textures\\MASTER_Metal_BaseColor.dds"
        },
        {
            "uri": "Textures\\MASTER_Metal_Normal.dds"
        },
        {
            "uri": "Textures\\MASTER_Metal_Specular.dds"
        }
    ],
    "materials": [
        {
            "name": "MASTER_Metal",
            "pbrMetallicRoughness": {
                "baseColorTexture": {
                    "index": 0
                },
                "metallicFactor": 0.0,
                "roughnessFactor": 0.5527864098548889
            },
            "normalTexture": {
                "index": 1
            },
            "extensions": {
                "KHR_materials_specular": {
                    "specularFactor": 1.0,
                    "specularColorFactor": [
                        0.5,
                        0.5,
                        0.5
                    ],
                    "specularTexture": {
                        "index": 2
                    }
                }
            }
        }
    ],
    "meshes": [
        {
            "name": "Bistro_Research_Exterior_Paris_Building_01_paris_building_01_bottom_4585",
            "primitives": [
                {
                    "mode": 4,
                    "material": 0,
                    "indices": 5,
                    "attributes": {
                        "POSITION": 0,
                        "NORMAL": 1,
                        "TANGENT": 2,
                        "TEXCOORD_0": 3,
                        "TEXCOORD_1": 4
                    }
                }
            ]
        }
    ],
    "nodes": [
        {
            "name": "Bistro_Research_Exterior_Paris_Building_01_paris_building_01_bottom_4585",
            "mesh": 0
        }
    ],
    "samplers": [
        {},
        {},
        {}
    ],
    "scenes": [
        {
            "nodes": [
                0
            ]
        }
    ],
    "textures": [
        {
            "source": 0,
            "sampler": 0
        },
        {
            "source": 1,
            "sampler": 1
        },
        {
            "source": 2,
            "sampler": 2
        }
    ],
    "scene": 0
}