{
    "asset": {
        "version": "2.0",
        "generator": "Open Asset Import Library (assimp v6.0.44188438)"
    },
    "extensionsUsed": [
        "KHR_materials_specular",
        "KHR_materials_volume",
        "FB_ngon_encoding"
    ],
    "accessors": [
        {
            "bufferView": 0,
            "byteOffset": 0,
            "componentType": 5126,
            "count": 310,
            "type": "VEC3",
            "max": [
                -2014.49072265625,
                3333.572021484375,
                1309.0206298828125
            ],
            "min": [
                -3715.673583984375,
                2.2250738585072014e-308,
                2.2250738585072014e-308
            ]
        },
        {
            "bufferView": 1,
            "byteOffset": 0,
            "componentType": 5126,
            "count": 310,
            "type": "VEC3",
            "max": [
                0.771124541759491,
                0.7489159107208252,
                0.9999843835830688
            ],
            "min": [
                -0.7523294687271118,
                -0.7489160299301147,
                -0.999984622001648
            ]
        },
        {
            "bufferView": 2,
            "byteOffset": 0,
            "componentType": 5126,
            "count": 310,
            "type": "VEC3",
            "max": [
                0.9063665866851807,
                0.9706239104270935,
                0.9706252217292786
            ],
            "min": [
                -0.9069532752037048,
                -0.973521888256073,
                -0.9694182872772217
            ]
        },
        {
            "bufferView": 3,
            "byteOffset": 0,
            "componentType": 5126,
            "count": 310,
            "type": "VEC2",
            "max": [
                2.23046875,
                4.990234375
            ],
            "min": [
                -0.333984375,
                2.2250738585072014e-308
            ]
        },
        {
            "bufferView": 4,
            "byteOffset": 0,
            "componentType": 5126,
            "count": 310,
            "type": "VEC2",
            "max": [
                0.9716796875,
                0.9921875
            ],
            "min": [
                2.2250738585072014e-308,
                2.2250738585072014e-308
            ]
        },
        {
            "bufferView": 5,
            "byteOffset": 0,
            "componentType": 5125,
            "count": 846,
            "type": "SCALAR",
            "max": [
                309
            ],
            "min": [
                0
            ]
        }
    ],
    "buffers": [
        {
            "byteLength": 19504,
            "uri": "Bistro_Research_Exterior_paris_building_03_mirrored_4961.bin"
        }
    ],
    "bufferViews": [
        {
            "buffer": 0,
            "byteOffset": 0,
            "byteLength": 3720,
            "target": 34962
        },
        {
            "buffer": 0,
            "byteOffset": 3720,
            "byteLength": 3720,
            "target": 34962
        },
        {
            "buffer": 0,
            "byteOffset": 7440,
            "byteLength": 3720,
            "target": 34962
        },
        {
            "buffer": 0,
            "byteOffset": 11160,
            "byteLength": 2480,
            "target": 34962
        },
        {
            "buffer": 0,
            "byteOffset": 13640,
            "byteLength": 2480,
            "target": 34962
        },
        {
            "buffer": 0,
            "byteOffset": 16120,
            "byteLength": 3384,
            "target": 34963
        }
    ],
    "images": [
        {
            "uri": "Textures\\MASTER_Concrete_Grooved_BaseColor.dds"
        },
        {
            "uri": "Textures\\MASTER_Concrete_Grooved_Normal.dds"
        },
        {
            "uri": "Textures\\MASTER_Concrete_Grooved_Specular.dds"
        }
    ],
    "materials": [
        {
            "name": "MASTER_Concrete_Grooved",
            "pbrMetallicRoughness": {
                "baseColorTexture": {
                    "index": 0
                },
                "metallicFactor": 0.0,
                "roughnessFactor": 0.5527864098548889
            },
            "normalTexture": {
                "index": 1
            },
            "extensions": {
                "KHR_materials_specular": {
                    "specularFactor": 1.0,
                    "specularColorFactor": [
                        0.5,
                        0.5,
                        0.5
                    ],
                    "specularTexture": {
                        "index": 2
                    }
                }
            }
        }
    ],
    "meshes": [
        {
            "name": "Bistro_Research_Exterior_paris_building_03_mirrored_4961",
            "primitives": [
                {
                    "mode": 4,
                    "material": 0,
                    "indices": 5,
                    "attributes": {
                        "POSITION": 0,
                        "NORMAL": 1,
                        "TANGENT": 2,
                        "TEXCOORD_0": 3,
                        "TEXCOORD_1": 4
                    }
                }
            ]
        }
    ],
    "nodes": [
        {
            "name": "Bistro_Research_Exterior_paris_building_03_mirrored_4961",
            "mesh": 0
        }
    ],
    "samplers": [
        {},
        {},
        {}
    ],
    "scenes": [
        {
            "nodes": [
                0
            ]
        }
    ],
    "textures": [
        {
            "source": 0,
            "sampler": 0
        },
        {
            "source": 1,
            "sampler": 1
        },
        {
            "source": 2,
            "sampler": 2
        }
    ],
    "scene": 0
}