{
    "asset": {
        "version": "2.0",
        "generator": "Open Asset Import Library (assimp v6.0.44188438)"
    },
    "extensionsUsed": [
        "KHR_materials_specular",
        "KHR_materials_volume",
        "FB_ngon_encoding"
    ],
    "accessors": [
        {
            "bufferView": 0,
            "byteOffset": 0,
            "componentType": 5126,
            "count": 2754,
            "type": "VEC3",
            "max": [
                -841.91552734375,
                -1082.8741455078125,
                1689.9315185546875
            ],
            "min": [
                -1028.828369140625,
                -1156.849609375,
                2.2250738585072014e-308
            ]
        },
        {
            "bufferView": 1,
            "byteOffset": 0,
            "componentType": 5126,
            "count": 2754,
            "type": "VEC3",
            "max": [
                0.9999219179153442,
                0.9993700981140137,
                0.999984622001648
            ],
            "min": [
                -0.999984622001648,
                -0.9973081350326538,
                -0.999984622001648
            ]
        },
        {
            "bufferView": 2,
            "byteOffset": 0,
            "componentType": 5126,
            "count": 2754,
            "type": "VEC3",
            "max": [
                0.9999263286590576,
                0.996277928352356,
                0.9999924302101135
            ],
            "min": [
                -0.99993896484375,
                -0.9986530542373657,
                -0.9999924302101135
            ]
        },
        {
            "bufferView": 3,
            "byteOffset": 0,
            "componentType": 5126,
            "count": 2754,
            "type": "VEC2",
            "max": [
                0.98974609375,
                0.9882736206054688
            ],
            "min": [
                2.2250738585072014e-308,
                2.2250738585072014e-308
            ]
        },
        {
            "bufferView": 4,
            "byteOffset": 0,
            "componentType": 5126,
            "count": 2754,
            "type": "VEC2",
            "max": [
                0.98193359375,
                0.9921875
            ],
            "min": [
                2.2250738585072014e-308,
                2.2250738585072014e-308
            ]
        },
        {
            "bufferView": 5,
            "byteOffset": 0,
            "componentType": 5125,
            "count": 6204,
            "type": "SCALAR",
            "max": [
                2753
            ],
            "min": [
                0
            ]
        }
    ],
    "buffers": [
        {
            "byteLength": 168024,
            "uri": "Bistro_Research_Exterior_Paris_Aerial_01C2_4061_0.bin"
        }
    ],
    "bufferViews": [
        {
            "buffer": 0,
            "byteOffset": 0,
            "byteLength": 33048,
            "target": 34962
        },
        {
            "buffer": 0,
            "byteOffset": 33048,
            "byteLength": 33048,
            "target": 34962
        },
        {
            "buffer": 0,
            "byteOffset": 66096,
            "byteLength": 33048,
            "target": 34962
        },
        {
            "buffer": 0,
            "byteOffset": 99144,
            "byteLength": 22032,
            "target": 34962
        },
        {
            "buffer": 0,
            "byteOffset": 121176,
            "byteLength": 22032,
            "target": 34962
        },
        {
            "buffer": 0,
            "byteOffset": 143208,
            "byteLength": 24816,
            "target": 34963
        }
    ],
    "images": [
        {
            "uri": "Textures\\Antenna_Metal_BaseColor.dds"
        },
        {
            "uri": "Textures\\Antenna_Metal_Normal.dds"
        },
        {
            "uri": "Textures\\Antenna_Metal_Specular.dds"
        }
    ],
    "materials": [
        {
            "name": "Antenna_Metal",
            "pbrMetallicRoughness": {
                "baseColorTexture": {
                    "index": 0
                },
                "metallicFactor": 0.0,
                "roughnessFactor": 0.5527864098548889
            },
            "normalTexture": {
                "index": 1
            },
            "extensions": {
                "KHR_materials_specular": {
                    "specularFactor": 1.0,
                    "specularColorFactor": [
                        0.5,
                        0.5,
                        0.5
                    ],
                    "specularTexture": {
                        "index": 2
                    }
                }
            }
        }
    ],
    "meshes": [
        {
            "name": "Bistro_Research_Exterior_Paris_Aerial_01C2_4061",
            "primitives": [
                {
                    "mode": 4,
                    "material": 0,
                    "indices": 5,
                    "attributes": {
                        "POSITION": 0,
                        "NORMAL": 1,
                        "TANGENT": 2,
                        "TEXCOORD_0": 3,
                        "TEXCOORD_1": 4
                    }
                }
            ]
        }
    ],
    "nodes": [
        {
            "name": "Bistro_Research_Exterior_Paris_Aerial_01C2_4061",
            "mesh": 0
        }
    ],
    "samplers": [
        {},
        {},
        {}
    ],
    "scenes": [
        {
            "nodes": [
                0
            ]
        }
    ],
    "textures": [
        {
            "source": 0,
            "sampler": 0
        },
        {
            "source": 1,
            "sampler": 1
        },
        {
            "source": 2,
            "sampler": 2
        }
    ],
    "scene": 0
}