{
    "asset": {
        "version": "2.0",
        "generator": "Open Asset Import Library (assimp v6.0.44188438)"
    },
    "extensionsUsed": [
        "KHR_materials_specular",
        "KHR_materials_volume",
        "FB_ngon_encoding"
    ],
    "accessors": [
        {
            "bufferView": 0,
            "byteOffset": 0,
            "componentType": 5126,
            "count": 344,
            "type": "VEC3",
            "max": [
                599.5820922851563,
                -264.6485290527344,
                1487.5147705078125
            ],
            "min": [
                2.2250738585072014e-308,
                -356.38604736328125,
                2.2250738585072014e-308
            ]
        },
        {
            "bufferView": 1,
            "byteOffset": 0,
            "componentType": 5126,
            "count": 344,
            "type": "VEC3",
            "max": [
                0.9993600845336914,
                0.9993700981140137,
                0.9991730451583862
            ],
            "min": [
                -0.9996158480644226,
                -0.999609649181366,
                -0.999984622001648
            ]
        },
        {
            "bufferView": 2,
            "byteOffset": 0,
            "componentType": 5126,
            "count": 344,
            "type": "VEC3",
            "max": [
                0.999974250793457,
                0.9361668229103088,
                0.9999924898147583
            ],
            "min": [
                -0.9158766269683838,
                -0.9355859756469727,
                -0.9999924898147583
            ]
        },
        {
            "bufferView": 3,
            "byteOffset": 0,
            "componentType": 5126,
            "count": 344,
            "type": "VEC2",
            "max": [
                0.83740234375,
                0.9906005859375
            ],
            "min": [
                -0.05474853515625,
                2.2250738585072014e-308
            ]
        },
        {
            "bufferView": 4,
            "byteOffset": 0,
            "componentType": 5126,
            "count": 344,
            "type": "VEC2",
            "max": [
                0.9794921875,
                0.9921875
            ],
            "min": [
                2.2250738585072014e-308,
                2.2250738585072014e-308
            ]
        },
        {
            "bufferView": 5,
            "byteOffset": 0,
            "componentType": 5125,
            "count": 750,
            "type": "SCALAR",
            "max": [
                343
            ],
            "min": [
                0
            ]
        }
    ],
    "buffers": [
        {
            "byteLength": 20888,
            "uri": "Bistro_Research_Exterior_Paris_Building_01_paris_building_01_4259.bin"
        }
    ],
    "bufferViews": [
        {
            "buffer": 0,
            "byteOffset": 0,
            "byteLength": 4128,
            "target": 34962
        },
        {
            "buffer": 0,
            "byteOffset": 4128,
            "byteLength": 4128,
            "target": 34962
        },
        {
            "buffer": 0,
            "byteOffset": 8256,
            "byteLength": 4128,
            "target": 34962
        },
        {
            "buffer": 0,
            "byteOffset": 12384,
            "byteLength": 2752,
            "target": 34962
        },
        {
            "buffer": 0,
            "byteOffset": 15136,
            "byteLength": 2752,
            "target": 34962
        },
        {
            "buffer": 0,
            "byteOffset": 17888,
            "byteLength": 3000,
            "target": 34963
        }
    ],
    "images": [
        {
            "uri": "Textures\\MASTER_Grain_Metal_BaseColor.dds"
        },
        {
            "uri": "Textures\\MASTER_Grain_Metal_Normal.dds"
        },
        {
            "uri": "Textures\\MASTER_Grain_Metal_Specular.dds"
        }
    ],
    "materials": [
        {
            "name": "MASTER_Grain_Metal",
            "pbrMetallicRoughness": {
                "baseColorTexture": {
                    "index": 0
                },
                "metallicFactor": 0.0,
                "roughnessFactor": 0.5527864098548889
            },
            "normalTexture": {
                "index": 1
            },
            "extensions": {
                "KHR_materials_specular": {
                    "specularFactor": 1.0,
                    "specularColorFactor": [
                        0.5,
                        0.5,
                        0.5
                    ],
                    "specularTexture": {
                        "index": 2
                    }
                }
            }
        }
    ],
    "meshes": [
        {
            "name": "Bistro_Research_Exterior_Paris_Building_01_paris_building_01_4259",
            "primitives": [
                {
                    "mode": 4,
                    "material": 0,
                    "indices": 5,
                    "attributes": {
                        "POSITION": 0,
                        "NORMAL": 1,
                        "TANGENT": 2,
                        "TEXCOORD_0": 3,
                        "TEXCOORD_1": 4
                    }
                }
            ]
        }
    ],
    "nodes": [
        {
            "name": "Bistro_Research_Exterior_Paris_Building_01_paris_building_01_4259",
            "mesh": 0
        }
    ],
    "samplers": [
        {},
        {},
        {}
    ],
    "scenes": [
        {
            "nodes": [
                0
            ]
        }
    ],
    "textures": [
        {
            "source": 0,
            "sampler": 0
        },
        {
            "source": 1,
            "sampler": 1
        },
        {
            "source": 2,
            "sampler": 2
        }
    ],
    "scene": 0
}