{
    "asset": {
        "version": "2.0",
        "generator": "Open Asset Import Library (assimp v6.0.44188438)"
    },
    "extensionsUsed": [
        "KHR_materials_specular",
        "KHR_materials_volume",
        "FB_ngon_encoding"
    ],
    "accessors": [
        {
            "bufferView": 0,
            "byteOffset": 0,
            "componentType": 5126,
            "count": 758,
            "type": "VEC3",
            "max": [
                -587.5072021484375,
                -461.21820068359375,
                1109.911865234375
            ],
            "min": [
                -2452.099609375,
                -2261.6826171875,
                2.2250738585072014e-308
            ]
        },
        {
            "bufferView": 1,
            "byteOffset": 0,
            "componentType": 5126,
            "count": 758,
            "type": "VEC3",
            "max": [
                0.7528150081634521,
                0.7562002539634705,
                -0.003918075934052467
            ],
            "min": [
                -0.8128727674484253,
                -0.810208797454834,
                -0.5831936001777649
            ]
        },
        {
            "bufferView": 2,
            "byteOffset": 0,
            "componentType": 5126,
            "count": 758,
            "type": "VEC3",
            "max": [
                0.7562060356140137,
                0.8728454113006592,
                0.09582430869340897
            ],
            "min": [
                -0.9974045753479004,
                -0.7600942254066467,
                -0.36556896567344666
            ]
        },
        {
            "bufferView": 3,
            "byteOffset": 0,
            "componentType": 5126,
            "count": 758,
            "type": "VEC2",
            "max": [
                7.83203125,
                2.119140625
            ],
            "min": [
                -6.83203125,
                -4.53515625
            ]
        },
        {
            "bufferView": 4,
            "byteOffset": 0,
            "componentType": 5126,
            "count": 758,
            "type": "VEC2",
            "max": [
                0.9677734375,
                0.9921875
            ],
            "min": [
                2.2250738585072014e-308,
                2.2250738585072014e-308
            ]
        },
        {
            "bufferView": 5,
            "byteOffset": 0,
            "componentType": 5125,
            "count": 3087,
            "type": "SCALAR",
            "max": [
                757
            ],
            "min": [
                0
            ]
        }
    ],
    "buffers": [
        {
            "byteLength": 51764,
            "uri": "Bistro_Research_Exterior_paris_building_03_4943.bin"
        }
    ],
    "bufferViews": [
        {
            "buffer": 0,
            "byteOffset": 0,
            "byteLength": 9096,
            "target": 34962
        },
        {
            "buffer": 0,
            "byteOffset": 9096,
            "byteLength": 9096,
            "target": 34962
        },
        {
            "buffer": 0,
            "byteOffset": 18192,
            "byteLength": 9096,
            "target": 34962
        },
        {
            "buffer": 0,
            "byteOffset": 27288,
            "byteLength": 6064,
            "target": 34962
        },
        {
            "buffer": 0,
            "byteOffset": 33352,
            "byteLength": 6064,
            "target": 34962
        },
        {
            "buffer": 0,
            "byteOffset": 39416,
            "byteLength": 12348,
            "target": 34963
        }
    ],
    "images": [
        {
            "uri": "Textures\\MASTER_Brick_Large_Beige_BLENDSHADER_BaseColor.dds"
        },
        {
            "uri": "Textures\\MASTER_Brick_Large_Beige_BLENDSHADER_Normal.dds"
        },
        {
            "uri": "Textures\\MASTER_Brick_Large_Beige_BLENDSHADER_Specular.dds"
        }
    ],
    "materials": [
        {
            "name": "MASTER_Brick_Large_Beige_BLENDSHADER",
            "pbrMetallicRoughness": {
                "baseColorTexture": {
                    "index": 0
                },
                "metallicFactor": 0.0,
                "roughnessFactor": 0.5527864098548889
            },
            "normalTexture": {
                "index": 1
            },
            "extensions": {
                "KHR_materials_specular": {
                    "specularFactor": 1.0,
                    "specularColorFactor": [
                        0.5,
                        0.5,
                        0.5
                    ],
                    "specularTexture": {
                        "index": 2
                    }
                }
            }
        }
    ],
    "meshes": [
        {
            "name": "Bistro_Research_Exterior_paris_building_03_4943",
            "primitives": [
                {
                    "mode": 4,
                    "material": 0,
                    "indices": 5,
                    "attributes": {
                        "POSITION": 0,
                        "NORMAL": 1,
                        "TANGENT": 2,
                        "TEXCOORD_0": 3,
                        "TEXCOORD_1": 4
                    }
                }
            ]
        }
    ],
    "nodes": [
        {
            "name": "Bistro_Research_Exterior_paris_building_03_4943",
            "mesh": 0
        }
    ],
    "samplers": [
        {},
        {},
        {}
    ],
    "scenes": [
        {
            "nodes": [
                0
            ]
        }
    ],
    "textures": [
        {
            "source": 0,
            "sampler": 0
        },
        {
            "source": 1,
            "sampler": 1
        },
        {
            "source": 2,
            "sampler": 2
        }
    ],
    "scene": 0
}