{
    "asset": {
        "version": "2.0",
        "generator": "Open Asset Import Library (assimp v6.0.44188438)"
    },
    "extensionsUsed": [
        "KHR_materials_specular",
        "KHR_materials_volume",
        "FB_ngon_encoding"
    ],
    "accessors": [
        {
            "bufferView": 0,
            "byteOffset": 0,
            "componentType": 5126,
            "count": 96,
            "type": "VEC3",
            "max": [
                606.9659423828125,
                812.9608154296875,
                1575.7359619140625
            ],
            "min": [
                2.2250738585072014e-308,
                -331.3185729980469,
                2.2250738585072014e-308
            ]
        },
        {
            "bufferView": 1,
            "byteOffset": 0,
            "componentType": 5126,
            "count": 96,
            "type": "VEC3",
            "max": [
                0.8982464671134949,
                0.923171877861023,
                -0.29991525411605835
            ],
            "min": [
                -0.9402949810028076,
                -0.952926516532898,
                -0.9263255596160889
            ]
        },
        {
            "bufferView": 2,
            "byteOffset": 0,
            "componentType": 5126,
            "count": 96,
            "type": "VEC3",
            "max": [
                0.9948892593383789,
                0.8695576190948486,
                0.9422532916069031
            ],
            "min": [
                -0.9606425166130066,
                -0.9847217202186584,
                -0.9399533271789551
            ]
        },
        {
            "bufferView": 3,
            "byteOffset": 0,
            "componentType": 5126,
            "count": 96,
            "type": "VEC2",
            "max": [
                2.708984375,
                0.718994140625
            ],
            "min": [
                -2.53125,
                -0.0546875
            ]
        },
        {
            "bufferView": 4,
            "byteOffset": 0,
            "componentType": 5126,
            "count": 96,
            "type": "VEC2",
            "max": [
                0.9833984375,
                0.5234375
            ],
            "min": [
                2.2250738585072014e-308,
                2.2250738585072014e-308
            ]
        },
        {
            "bufferView": 5,
            "byteOffset": 0,
            "componentType": 5125,
            "count": 276,
            "type": "SCALAR",
            "max": [
                95
            ],
            "min": [
                0
            ]
        }
    ],
    "buffers": [
        {
            "byteLength": 6096,
            "uri": "Bistro_Research_Exterior_Paris_Building_01_paris_building_01_4345.bin"
        }
    ],
    "bufferViews": [
        {
            "buffer": 0,
            "byteOffset": 0,
            "byteLength": 1152,
            "target": 34962
        },
        {
            "buffer": 0,
            "byteOffset": 1152,
            "byteLength": 1152,
            "target": 34962
        },
        {
            "buffer": 0,
            "byteOffset": 2304,
            "byteLength": 1152,
            "target": 34962
        },
        {
            "buffer": 0,
            "byteOffset": 3456,
            "byteLength": 768,
            "target": 34962
        },
        {
            "buffer": 0,
            "byteOffset": 4224,
            "byteLength": 768,
            "target": 34962
        },
        {
            "buffer": 0,
            "byteOffset": 4992,
            "byteLength": 1104,
            "target": 34963
        }
    ],
    "images": [
        {
            "uri": "Textures\\MASTER_Concrete_Plaster1_BLENDSHADER_BaseColor.dds"
        },
        {
            "uri": "Textures\\MASTER_Concrete_Plaster1_BLENDSHADER_Normal.dds"
        },
        {
            "uri": "Textures\\MASTER_Concrete_Plaster1_BLENDSHADER_Specular.dds"
        }
    ],
    "materials": [
        {
            "name": "MASTER_Concrete_Plaster1_BLENDSHADER",
            "pbrMetallicRoughness": {
                "baseColorTexture": {
                    "index": 0
                },
                "metallicFactor": 0.0,
                "roughnessFactor": 0.5527864098548889
            },
            "normalTexture": {
                "index": 1
            },
            "extensions": {
                "KHR_materials_specular": {
                    "specularFactor": 1.0,
                    "specularColorFactor": [
                        0.5,
                        0.5,
                        0.5
                    ],
                    "specularTexture": {
                        "index": 2
                    }
                }
            }
        }
    ],
    "meshes": [
        {
            "name": "Bistro_Research_Exterior_Paris_Building_01_paris_building_01_4345",
            "primitives": [
                {
                    "mode": 4,
                    "material": 0,
                    "indices": 5,
                    "attributes": {
                        "POSITION": 0,
                        "NORMAL": 1,
                        "TANGENT": 2,
                        "TEXCOORD_0": 3,
                        "TEXCOORD_1": 4
                    }
                }
            ]
        }
    ],
    "nodes": [
        {
            "name": "Bistro_Research_Exterior_Paris_Building_01_paris_building_01_4345",
            "mesh": 0
        }
    ],
    "samplers": [
        {},
        {},
        {}
    ],
    "scenes": [
        {
            "nodes": [
                0
            ]
        }
    ],
    "textures": [
        {
            "source": 0,
            "sampler": 0
        },
        {
            "source": 1,
            "sampler": 1
        },
        {
            "source": 2,
            "sampler": 2
        }
    ],
    "scene": 0
}