{
    "asset": {
        "version": "2.0",
        "generator": "Open Asset Import Library (assimp v6.0.44188438)"
    },
    "extensionsUsed": [
        "KHR_materials_specular",
        "KHR_materials_volume",
        "FB_ngon_encoding"
    ],
    "accessors": [
        {
            "bufferView": 0,
            "byteOffset": 0,
            "componentType": 5126,
            "count": 3347,
            "type": "VEC3",
            "max": [
                1108.2271728515625,
                -493.6957702636719,
                235.6912078857422
            ],
            "min": [
                2.2250738585072014e-308,
                -630.2198486328125,
                2.2250738585072014e-308
            ]
        },
        {
            "bufferView": 1,
            "byteOffset": 0,
            "componentType": 5126,
            "count": 3347,
            "type": "VEC3",
            "max": [
                0.9916537404060364,
                0.9996158480644226,
                0.9826404452323914
            ],
            "min": [
                -0.999984622001648,
                -0.9992353320121765,
                -0.9968621730804443
            ]
        },
        {
            "bufferView": 2,
            "byteOffset": 0,
            "componentType": 5126,
            "count": 3347,
            "type": "VEC3",
            "max": [
                0.9966098666191101,
                0.9998025298118591,
                0.999801754951477
            ],
            "min": [
                -0.9999521970748901,
                -0.9999920129776001,
                -0.9938479661941528
            ]
        },
        {
            "bufferView": 3,
            "byteOffset": 0,
            "componentType": 5126,
            "count": 3347,
            "type": "VEC2",
            "max": [
                1.0,
                105.125
            ],
            "min": [
                0.0,
                0.0
            ]
        },
        {
            "bufferView": 4,
            "byteOffset": 0,
            "componentType": 5126,
            "count": 3347,
            "type": "VEC2",
            "max": [
                0.982421875,
                0.9921913146972656
            ],
            "min": [
                2.2250738585072014e-308,
                2.2250738585072014e-308
            ]
        },
        {
            "bufferView": 5,
            "byteOffset": 0,
            "componentType": 5125,
            "count": 13914,
            "type": "SCALAR",
            "max": [
                3346
            ],
            "min": [
                0
            ]
        }
    ],
    "buffers": [
        {
            "byteLength": 229700,
            "uri": "Bistro_Research_Exterior_Ivy_Ivy_4033.bin"
        }
    ],
    "bufferViews": [
        {
            "buffer": 0,
            "byteOffset": 0,
            "byteLength": 40164,
            "target": 34962
        },
        {
            "buffer": 0,
            "byteOffset": 40164,
            "byteLength": 40164,
            "target": 34962
        },
        {
            "buffer": 0,
            "byteOffset": 80328,
            "byteLength": 40164,
            "target": 34962
        },
        {
            "buffer": 0,
            "byteOffset": 120492,
            "byteLength": 26776,
            "target": 34962
        },
        {
            "buffer": 0,
            "byteOffset": 147268,
            "byteLength": 26776,
            "target": 34962
        },
        {
            "buffer": 0,
            "byteOffset": 174044,
            "byteLength": 55656,
            "target": 34963
        }
    ],
    "images": [
        {
            "uri": "Textures\\Foliage_Ivy_branches_BaseColor.dds"
        },
        {
            "uri": "Textures\\Foliage_Ivy_branches_Normal.dds"
        },
        {
            "uri": "Textures\\Foliage_Ivy_branches_Specular.dds"
        }
    ],
    "materials": [
        {
            "name": "Foliage_Ivy_branches",
            "pbrMetallicRoughness": {
                "baseColorTexture": {
                    "index": 0
                },
                "metallicFactor": 0.0,
                "roughnessFactor": 0.5527864098548889
            },
            "normalTexture": {
                "index": 1
            },
            "extensions": {
                "KHR_materials_specular": {
                    "specularFactor": 1.0,
                    "specularColorFactor": [
                        0.5,
                        0.5,
                        0.5
                    ],
                    "specularTexture": {
                        "index": 2
                    }
                }
            }
        }
    ],
    "meshes": [
        {
            "name": "Bistro_Research_Exterior_Ivy_Ivy_4033",
            "primitives": [
                {
                    "mode": 4,
                    "material": 0,
                    "indices": 5,
                    "attributes": {
                        "POSITION": 0,
                        "NORMAL": 1,
                        "TANGENT": 2,
                        "TEXCOORD_0": 3,
                        "TEXCOORD_1": 4
                    }
                }
            ]
        }
    ],
    "nodes": [
        {
            "name": "Bistro_Research_Exterior_Ivy_Ivy_4033",
            "mesh": 0
        }
    ],
    "samplers": [
        {},
        {},
        {}
    ],
    "scenes": [
        {
            "nodes": [
                0
            ]
        }
    ],
    "textures": [
        {
            "source": 0,
            "sampler": 0
        },
        {
            "source": 1,
            "sampler": 1
        },
        {
            "source": 2,
            "sampler": 2
        }
    ],
    "scene": 0
}