{
    "asset": {
        "version": "2.0",
        "generator": "Open Asset Import Library (assimp v6.0.44188438)"
    },
    "extensionsUsed": [
        "KHR_materials_specular",
        "KHR_materials_volume",
        "FB_ngon_encoding"
    ],
    "accessors": [
        {
            "bufferView": 0,
            "byteOffset": 0,
            "componentType": 5126,
            "count": 397,
            "type": "VEC3",
            "max": [
                191.1298370361328,
                3006.300048828125,
                845.0064697265625
            ],
            "min": [
                -1817.17431640625,
                2.2250738585072014e-308,
                2.2250738585072014e-308
            ]
        },
        {
            "bufferView": 1,
            "byteOffset": 0,
            "componentType": 5126,
            "count": 397,
            "type": "VEC3",
            "max": [
                0.9990483522415161,
                0.9990631937980652,
                0.7084290981292725
            ],
            "min": [
                -0.9993701577186584,
                -0.9993600845336914,
                -0.712338924407959
            ]
        },
        {
            "bufferView": 2,
            "byteOffset": 0,
            "componentType": 5126,
            "count": 397,
            "type": "VEC3",
            "max": [
                0.9993644952774048,
                0.9990559220314026,
                0.9974208474159241
            ],
            "min": [
                -0.99906325340271,
                -0.9993744492530823,
                -0.9999889135360718
            ]
        },
        {
            "bufferView": 3,
            "byteOffset": 0,
            "componentType": 5126,
            "count": 397,
            "type": "VEC2",
            "max": [
                5.2578125,
                2.1015625
            ],
            "min": [
                -4.2578125,
                -1.951171875
            ]
        },
        {
            "bufferView": 4,
            "byteOffset": 0,
            "componentType": 5126,
            "count": 397,
            "type": "VEC2",
            "max": [
                0.9921875,
                0.9921875
            ],
            "min": [
                2.2250738585072014e-308,
                2.2250738585072014e-308
            ]
        },
        {
            "bufferView": 5,
            "byteOffset": 0,
            "componentType": 5125,
            "count": 1422,
            "type": "SCALAR",
            "max": [
                396
            ],
            "min": [
                0
            ]
        }
    ],
    "buffers": [
        {
            "byteLength": 26332,
            "uri": "Bistro_Research_Exterior_paris_building_09_5449.bin"
        }
    ],
    "bufferViews": [
        {
            "buffer": 0,
            "byteOffset": 0,
            "byteLength": 4764,
            "target": 34962
        },
        {
            "buffer": 0,
            "byteOffset": 4764,
            "byteLength": 4764,
            "target": 34962
        },
        {
            "buffer": 0,
            "byteOffset": 9528,
            "byteLength": 4764,
            "target": 34962
        },
        {
            "buffer": 0,
            "byteOffset": 14292,
            "byteLength": 3176,
            "target": 34962
        },
        {
            "buffer": 0,
            "byteOffset": 17468,
            "byteLength": 3176,
            "target": 34962
        },
        {
            "buffer": 0,
            "byteOffset": 20644,
            "byteLength": 5688,
            "target": 34963
        }
    ],
    "images": [
        {
            "uri": "Textures\\MASTER_Brick_Large_Beige_BLENDSHADER_BaseColor.dds"
        },
        {
            "uri": "Textures\\MASTER_Brick_Large_Beige_BLENDSHADER_Normal.dds"
        },
        {
            "uri": "Textures\\MASTER_Brick_Large_Beige_BLENDSHADER_Specular.dds"
        }
    ],
    "materials": [
        {
            "name": "MASTER_Brick_Large_Beige_BLENDSHADER",
            "pbrMetallicRoughness": {
                "baseColorTexture": {
                    "index": 0
                },
                "metallicFactor": 0.0,
                "roughnessFactor": 0.5527864098548889
            },
            "normalTexture": {
                "index": 1
            },
            "extensions": {
                "KHR_materials_specular": {
                    "specularFactor": 1.0,
                    "specularColorFactor": [
                        0.5,
                        0.5,
                        0.5
                    ],
                    "specularTexture": {
                        "index": 2
                    }
                }
            }
        }
    ],
    "meshes": [
        {
            "name": "Bistro_Research_Exterior_paris_building_09_5449",
            "primitives": [
                {
                    "mode": 4,
                    "material": 0,
                    "indices": 5,
                    "attributes": {
                        "POSITION": 0,
                        "NORMAL": 1,
                        "TANGENT": 2,
                        "TEXCOORD_0": 3,
                        "TEXCOORD_1": 4
                    }
                }
            ]
        }
    ],
    "nodes": [
        {
            "name": "Bistro_Research_Exterior_paris_building_09_5449",
            "mesh": 0
        }
    ],
    "samplers": [
        {},
        {},
        {}
    ],
    "scenes": [
        {
            "nodes": [
                0
            ]
        }
    ],
    "textures": [
        {
            "source": 0,
            "sampler": 0
        },
        {
            "source": 1,
            "sampler": 1
        },
        {
            "source": 2,
            "sampler": 2
        }
    ],
    "scene": 0
}