{
    "asset": {
        "version": "2.0",
        "generator": "Open Asset Import Library (assimp v6.0.44188438)"
    },
    "extensionsUsed": [
        "KHR_materials_specular",
        "KHR_materials_volume",
        "FB_ngon_encoding"
    ],
    "accessors": [
        {
            "bufferView": 0,
            "byteOffset": 0,
            "componentType": 5126,
            "count": 687,
            "type": "VEC3",
            "max": [
                -820.0563354492188,
                -997.3358764648438,
                1445.86669921875
            ],
            "min": [
                -915.0733032226563,
                -1083.23876953125,
                2.2250738585072014e-308
            ]
        },
        {
            "bufferView": 1,
            "byteOffset": 0,
            "componentType": 5126,
            "count": 687,
            "type": "VEC3",
            "max": [
                0.999609649181366,
                0.9881380200386047,
                0.9931195378303528
            ],
            "min": [
                -0.9997386932373047,
                -0.9867294430732727,
                -0.47567427158355713
            ]
        },
        {
            "bufferView": 2,
            "byteOffset": 0,
            "componentType": 5126,
            "count": 687,
            "type": "VEC3",
            "max": [
                0.9889011383056641,
                0.9924423098564148,
                0.999778151512146
            ],
            "min": [
                -0.9887489080429077,
                -0.9908806085586548,
                -0.821113109588623
            ]
        },
        {
            "bufferView": 3,
            "byteOffset": 0,
            "componentType": 5126,
            "count": 687,
            "type": "VEC2",
            "max": [
                1.001953125,
                2.0048828125
            ],
            "min": [
                2.2250738585072014e-308,
                2.2250738585072014e-308
            ]
        },
        {
            "bufferView": 4,
            "byteOffset": 0,
            "componentType": 5126,
            "count": 687,
            "type": "VEC2",
            "max": [
                0.9873046875,
                0.4921875
            ],
            "min": [
                2.2250738585072014e-308,
                2.2250738585072014e-308
            ]
        },
        {
            "bufferView": 5,
            "byteOffset": 0,
            "componentType": 5125,
            "count": 1944,
            "type": "SCALAR",
            "max": [
                686
            ],
            "min": [
                0
            ]
        }
    ],
    "buffers": [
        {
            "byteLength": 43500,
            "uri": "Bistro_Research_Exterior_Paris_Chimney_02A_5965_1.bin"
        }
    ],
    "bufferViews": [
        {
            "buffer": 0,
            "byteOffset": 0,
            "byteLength": 8244,
            "target": 34962
        },
        {
            "buffer": 0,
            "byteOffset": 8244,
            "byteLength": 8244,
            "target": 34962
        },
        {
            "buffer": 0,
            "byteOffset": 16488,
            "byteLength": 8244,
            "target": 34962
        },
        {
            "buffer": 0,
            "byteOffset": 24732,
            "byteLength": 5496,
            "target": 34962
        },
        {
            "buffer": 0,
            "byteOffset": 30228,
            "byteLength": 5496,
            "target": 34962
        },
        {
            "buffer": 0,
            "byteOffset": 35724,
            "byteLength": 7776,
            "target": 34963
        }
    ],
    "images": [
        {
            "uri": "Textures\\Chimneys_Metal_BaseColor.dds"
        },
        {
            "uri": "Textures\\Chimneys_Metal_Normal.dds"
        },
        {
            "uri": "Textures\\Chimneys_Metal_Specular.dds"
        }
    ],
    "materials": [
        {
            "name": "Chimneys_Metal",
            "pbrMetallicRoughness": {
                "baseColorTexture": {
                    "index": 0
                },
                "metallicFactor": 0.0,
                "roughnessFactor": 0.5527864098548889
            },
            "normalTexture": {
                "index": 1
            },
            "extensions": {
                "KHR_materials_specular": {
                    "specularFactor": 1.0,
                    "specularColorFactor": [
                        0.5,
                        0.5,
                        0.5
                    ],
                    "specularTexture": {
                        "index": 2
                    }
                }
            }
        }
    ],
    "meshes": [
        {
            "name": "Bistro_Research_Exterior_Paris_Chimney_02A_5965",
            "primitives": [
                {
                    "mode": 4,
                    "material": 0,
                    "indices": 5,
                    "attributes": {
                        "POSITION": 0,
                        "NORMAL": 1,
                        "TANGENT": 2,
                        "TEXCOORD_0": 3,
                        "TEXCOORD_1": 4
                    }
                }
            ]
        }
    ],
    "nodes": [
        {
            "name": "Bistro_Research_Exterior_Paris_Chimney_02A_5965",
            "mesh": 0
        }
    ],
    "samplers": [
        {},
        {},
        {}
    ],
    "scenes": [
        {
            "nodes": [
                0
            ]
        }
    ],
    "textures": [
        {
            "source": 0,
            "sampler": 0
        },
        {
            "source": 1,
            "sampler": 1
        },
        {
            "source": 2,
            "sampler": 2
        }
    ],
    "scene": 0
}