{
    "asset": {
        "version": "2.0",
        "generator": "Open Asset Import Library (assimp v6.0.44188438)"
    },
    "extensionsUsed": [
        "KHR_materials_specular",
        "KHR_materials_volume",
        "FB_ngon_encoding"
    ],
    "accessors": [
        {
            "bufferView": 0,
            "byteOffset": 0,
            "componentType": 5126,
            "count": 1078,
            "type": "VEC3",
            "max": [
                1133.189453125,
                -1564.350830078125,
                2317.40673828125
            ],
            "min": [
                2.2250738585072014e-308,
                -1590.100341796875,
                2.2250738585072014e-308
            ]
        },
        {
            "bufferView": 1,
            "byteOffset": 0,
            "componentType": 5126,
            "count": 1078,
            "type": "VEC3",
            "max": [
                0.9903481006622314,
                0.9909840822219849,
                0.9826404452323914
            ],
            "min": [
                -0.9901943802833557,
                -0.9910889267921448,
                -0.9821261167526245
            ]
        },
        {
            "bufferView": 2,
            "byteOffset": 0,
            "componentType": 5126,
            "count": 1078,
            "type": "VEC3",
            "max": [
                0.9647738337516785,
                0.7211621999740601,
                0.999898374080658
            ],
            "min": [
                -0.9667261242866516,
                -0.7554008364677429,
                -0.9998889565467834
            ]
        },
        {
            "bufferView": 3,
            "byteOffset": 0,
            "componentType": 5126,
            "count": 1078,
            "type": "VEC2",
            "max": [
                0.78076171875,
                0.35986328125
            ],
            "min": [
                2.2250738585072014e-308,
                2.2250738585072014e-308
            ]
        },
        {
            "bufferView": 4,
            "byteOffset": 0,
            "componentType": 5126,
            "count": 1078,
            "type": "VEC2",
            "max": [
                0.9033203125,
                0.9921875
            ],
            "min": [
                2.2250738585072014e-308,
                2.2250738585072014e-308
            ]
        },
        {
            "bufferView": 5,
            "byteOffset": 0,
            "componentType": 5125,
            "count": 4638,
            "type": "SCALAR",
            "max": [
                1077
            ],
            "min": [
                0
            ]
        }
    ],
    "buffers": [
        {
            "byteLength": 74608,
            "uri": "Bistro_Research_Exterior_Paris_Aerial_01C_4057_1.bin"
        }
    ],
    "bufferViews": [
        {
            "buffer": 0,
            "byteOffset": 0,
            "byteLength": 12936,
            "target": 34962
        },
        {
            "buffer": 0,
            "byteOffset": 12936,
            "byteLength": 12936,
            "target": 34962
        },
        {
            "buffer": 0,
            "byteOffset": 25872,
            "byteLength": 12936,
            "target": 34962
        },
        {
            "buffer": 0,
            "byteOffset": 38808,
            "byteLength": 8624,
            "target": 34962
        },
        {
            "buffer": 0,
            "byteOffset": 47432,
            "byteLength": 8624,
            "target": 34962
        },
        {
            "buffer": 0,
            "byteOffset": 56056,
            "byteLength": 18552,
            "target": 34963
        }
    ],
    "images": [
        {
            "uri": "Textures\\Antenna_Plastic_BaseColor.dds"
        },
        {
            "uri": "Textures\\Antenna_Plastic_Normal.dds"
        },
        {
            "uri": "Textures\\Antenna_Plastic_Specular.dds"
        }
    ],
    "materials": [
        {
            "name": "Antenna_Plastic",
            "pbrMetallicRoughness": {
                "baseColorTexture": {
                    "index": 0
                },
                "metallicFactor": 0.0,
                "roughnessFactor": 0.5527864098548889
            },
            "normalTexture": {
                "index": 1
            },
            "extensions": {
                "KHR_materials_specular": {
                    "specularFactor": 1.0,
                    "specularColorFactor": [
                        0.5,
                        0.5,
                        0.5
                    ],
                    "specularTexture": {
                        "index": 2
                    }
                }
            }
        }
    ],
    "meshes": [
        {
            "name": "Bistro_Research_Exterior_Paris_Aerial_01C_4057",
            "primitives": [
                {
                    "mode": 4,
                    "material": 0,
                    "indices": 5,
                    "attributes": {
                        "POSITION": 0,
                        "NORMAL": 1,
                        "TANGENT": 2,
                        "TEXCOORD_0": 3,
                        "TEXCOORD_1": 4
                    }
                }
            ]
        }
    ],
    "nodes": [
        {
            "name": "Bistro_Research_Exterior_Paris_Aerial_01C_4057",
            "mesh": 0
        }
    ],
    "samplers": [
        {},
        {},
        {}
    ],
    "scenes": [
        {
            "nodes": [
                0
            ]
        }
    ],
    "textures": [
        {
            "source": 0,
            "sampler": 0
        },
        {
            "source": 1,
            "sampler": 1
        },
        {
            "source": 2,
            "sampler": 2
        }
    ],
    "scene": 0
}