{
    "asset": {
        "version": "2.0",
        "generator": "Open Asset Import Library (assimp v6.0.44188438)"
    },
    "extensionsUsed": [
        "KHR_materials_specular",
        "KHR_materials_volume",
        "FB_ngon_encoding"
    ],
    "accessors": [
        {
            "bufferView": 0,
            "byteOffset": 0,
            "componentType": 5126,
            "count": 160,
            "type": "VEC3",
            "max": [
                2585.468994140625,
                -1117.497314453125,
                174.76351928710938
            ],
            "min": [
                2.2250738585072014e-308,
                -1144.152587890625,
                2.2250738585072014e-308
            ]
        },
        {
            "bufferView": 1,
            "byteOffset": 0,
            "componentType": 5126,
            "count": 160,
            "type": "VEC3",
            "max": [
                0.9271028637886047,
                0.921554446220398,
                0.9938548803329468
            ],
            "min": [
                -0.9227240085601807,
                -0.9175006747245789,
                -0.9935274720191956
            ]
        },
        {
            "bufferView": 2,
            "byteOffset": 0,
            "componentType": 5126,
            "count": 160,
            "type": "VEC3",
            "max": [
                0.38981637358665466,
                0.913987398147583,
                0.999992311000824
            ],
            "min": [
                -0.9220611453056335,
                -0.48964470624923706,
                -0.999992311000824
            ]
        },
        {
            "bufferView": 3,
            "byteOffset": 0,
            "componentType": 5126,
            "count": 160,
            "type": "VEC2",
            "max": [
                0.861328125,
                0.93475341796875
            ],
            "min": [
                2.2250738585072014e-308,
                2.2250738585072014e-308
            ]
        },
        {
            "bufferView": 4,
            "byteOffset": 0,
            "componentType": 5126,
            "count": 160,
            "type": "VEC2",
            "max": [
                0.9912109375,
                0.9921875
            ],
            "min": [
                2.2250738585072014e-308,
                2.2250738585072014e-308
            ]
        },
        {
            "bufferView": 5,
            "byteOffset": 0,
            "componentType": 5125,
            "count": 384,
            "type": "SCALAR",
            "max": [
                159
            ],
            "min": [
                0
            ]
        }
    ],
    "buffers": [
        {
            "byteLength": 9856,
            "uri": "Bistro_Research_Exterior_paris_building_05_23__5199.bin"
        }
    ],
    "bufferViews": [
        {
            "buffer": 0,
            "byteOffset": 0,
            "byteLength": 1920,
            "target": 34962
        },
        {
            "buffer": 0,
            "byteOffset": 1920,
            "byteLength": 1920,
            "target": 34962
        },
        {
            "buffer": 0,
            "byteOffset": 3840,
            "byteLength": 1920,
            "target": 34962
        },
        {
            "buffer": 0,
            "byteOffset": 5760,
            "byteLength": 1280,
            "target": 34962
        },
        {
            "buffer": 0,
            "byteOffset": 7040,
            "byteLength": 1280,
            "target": 34962
        },
        {
            "buffer": 0,
            "byteOffset": 8320,
            "byteLength": 1536,
            "target": 34963
        }
    ],
    "images": [
        {
            "uri": "Textures\\MASTER_Black_Metal_BaseColor.dds"
        },
        {
            "uri": "Textures\\MASTER_Black_Metal_Normal.dds"
        },
        {
            "uri": "Textures\\MASTER_Black_Metal_Specular.dds"
        }
    ],
    "materials": [
        {
            "name": "MASTER_Black_Metal",
            "pbrMetallicRoughness": {
                "baseColorTexture": {
                    "index": 0
                },
                "metallicFactor": 0.0,
                "roughnessFactor": 0.5527864098548889
            },
            "normalTexture": {
                "index": 1
            },
            "extensions": {
                "KHR_materials_specular": {
                    "specularFactor": 1.0,
                    "specularColorFactor": [
                        0.5,
                        0.5,
                        0.5
                    ],
                    "specularTexture": {
                        "index": 2
                    }
                }
            }
        }
    ],
    "meshes": [
        {
            "name": "Bistro_Research_Exterior_paris_building_05_23__5199",
            "primitives": [
                {
                    "mode": 4,
                    "material": 0,
                    "indices": 5,
                    "attributes": {
                        "POSITION": 0,
                        "NORMAL": 1,
                        "TANGENT": 2,
                        "TEXCOORD_0": 3,
                        "TEXCOORD_1": 4
                    }
                }
            ]
        }
    ],
    "nodes": [
        {
            "name": "Bistro_Research_Exterior_paris_building_05_23__5199",
            "mesh": 0
        }
    ],
    "samplers": [
        {},
        {},
        {}
    ],
    "scenes": [
        {
            "nodes": [
                0
            ]
        }
    ],
    "textures": [
        {
            "source": 0,
            "sampler": 0
        },
        {
            "source": 1,
            "sampler": 1
        },
        {
            "source": 2,
            "sampler": 2
        }
    ],
    "scene": 0
}