{
    "asset": {
        "version": "2.0",
        "generator": "Open Asset Import Library (assimp v6.0.44188438)"
    },
    "extensionsUsed": [
        "KHR_materials_specular",
        "KHR_materials_volume",
        "FB_ngon_encoding"
    ],
    "accessors": [
        {
            "bufferView": 0,
            "byteOffset": 0,
            "componentType": 5126,
            "count": 2704,
            "type": "VEC3",
            "max": [
                -76.05049896240234,
                1790.6324462890625,
                446.7195739746094
            ],
            "min": [
                -175.83409118652344,
                2.2250738585072014e-308,
                2.2250738585072014e-308
            ]
        },
        {
            "bufferView": 1,
            "byteOffset": 0,
            "componentType": 5126,
            "count": 2704,
            "type": "VEC3",
            "max": [
                0.9993600845336914,
                0.9998617172241211,
                0.9998594522476196
            ],
            "min": [
                -0.9996158480644226,
                -0.9999843835830688,
                -0.5264008045196533
            ]
        },
        {
            "bufferView": 2,
            "byteOffset": 0,
            "componentType": 5126,
            "count": 2704,
            "type": "VEC3",
            "max": [
                0.9999284744262695,
                0.9989963173866272,
                0.998065173625946
            ],
            "min": [
                -0.999992311000824,
                -0.9999668002128601,
                -0.9999313354492188
            ]
        },
        {
            "bufferView": 3,
            "byteOffset": 0,
            "componentType": 5126,
            "count": 2704,
            "type": "VEC2",
            "max": [
                3.109375,
                5.97265625
            ],
            "min": [
                -3.728515625,
                -0.998046875
            ]
        },
        {
            "bufferView": 4,
            "byteOffset": 0,
            "componentType": 5126,
            "count": 2704,
            "type": "VEC2",
            "max": [
                3.109375,
                5.97265625
            ],
            "min": [
                -3.728515625,
                -0.998046875
            ]
        },
        {
            "bufferView": 5,
            "byteOffset": 0,
            "componentType": 5125,
            "count": 9759,
            "type": "SCALAR",
            "max": [
                2703
            ],
            "min": [
                0
            ]
        }
    ],
    "buffers": [
        {
            "byteLength": 179644,
            "uri": "Bistro_Research_Exterior__lod0_Italian_Cypress2_3925_0.bin"
        }
    ],
    "bufferViews": [
        {
            "buffer": 0,
            "byteOffset": 0,
            "byteLength": 32448,
            "target": 34962
        },
        {
            "buffer": 0,
            "byteOffset": 32448,
            "byteLength": 32448,
            "target": 34962
        },
        {
            "buffer": 0,
            "byteOffset": 64896,
            "byteLength": 32448,
            "target": 34962
        },
        {
            "buffer": 0,
            "byteOffset": 97344,
            "byteLength": 21632,
            "target": 34962
        },
        {
            "buffer": 0,
            "byteOffset": 118976,
            "byteLength": 21632,
            "target": 34962
        },
        {
            "buffer": 0,
            "byteOffset": 140608,
            "byteLength": 39036,
            "target": 34963
        }
    ],
    "images": [
        {
            "uri": "Textures\\Foliage_Trunk_BaseColor.dds"
        },
        {
            "uri": "Textures\\Foliage_Trunk_Normal.dds"
        },
        {
            "uri": "Textures\\Foliage_Trunk_Specular.dds"
        }
    ],
    "materials": [
        {
            "name": "Foliage_Trunk",
            "pbrMetallicRoughness": {
                "baseColorTexture": {
                    "index": 0
                },
                "metallicFactor": 0.0,
                "roughnessFactor": 0.5527864098548889
            },
            "normalTexture": {
                "index": 1
            },
            "extensions": {
                "KHR_materials_specular": {
                    "specularFactor": 1.0,
                    "specularColorFactor": [
                        0.5,
                        0.5,
                        0.5
                    ],
                    "specularTexture": {
                        "index": 2
                    }
                }
            }
        }
    ],
    "meshes": [
        {
            "name": "Bistro_Research_Exterior__lod0_Italian_Cypress2_3925",
            "primitives": [
                {
                    "mode": 4,
                    "material": 0,
                    "indices": 5,
                    "attributes": {
                        "POSITION": 0,
                        "NORMAL": 1,
                        "TANGENT": 2,
                        "TEXCOORD_0": 3,
                        "TEXCOORD_1": 4
                    }
                }
            ]
        }
    ],
    "nodes": [
        {
            "name": "Bistro_Research_Exterior__lod0_Italian_Cypress2_3925",
            "mesh": 0
        }
    ],
    "samplers": [
        {},
        {},
        {}
    ],
    "scenes": [
        {
            "nodes": [
                0
            ]
        }
    ],
    "textures": [
        {
            "source": 0,
            "sampler": 0
        },
        {
            "source": 1,
            "sampler": 1
        },
        {
            "source": 2,
            "sampler": 2
        }
    ],
    "scene": 0
}