{
    "asset": {
        "version": "2.0",
        "generator": "Open Asset Import Library (assimp v6.0.44188438)"
    },
    "extensionsUsed": [
        "KHR_materials_specular",
        "KHR_materials_volume",
        "FB_ngon_encoding"
    ],
    "accessors": [
        {
            "bufferView": 0,
            "byteOffset": 0,
            "componentType": 5126,
            "count": 4,
            "type": "VEC3",
            "max": [
                -8.438088417053223,
                -27.034021377563477,
                291.0735168457031
            ],
            "min": [
                -48.506797790527344,
                -112.76484680175781,
                2.2250738585072014e-308
            ]
        },
        {
            "bufferView": 1,
            "byteOffset": 0,
            "componentType": 5126,
            "count": 4,
            "type": "VEC3",
            "max": [
                -0.9087498784065247,
                -0.41732293367385864,
                -0.0039001544937491417
            ],
            "min": [
                -0.9087498784065247,
                -0.41732293367385864,
                -0.0039001544937491417
            ]
        },
        {
            "bufferView": 2,
            "byteOffset": 0,
            "componentType": 5126,
            "count": 4,
            "type": "VEC3",
            "max": [
                0.4173262417316437,
                -0.9087567329406738,
                -0.00002488365316821728
            ],
            "min": [
                2.2250738585072014e-308,
                -0.9087568521499634,
                -0.000025197661670972593
            ]
        },
        {
            "bufferView": 3,
            "byteOffset": 0,
            "componentType": 5126,
            "count": 4,
            "type": "VEC2",
            "max": [
                0.353271484375,
                1.197021484375
            ],
            "min": [
                -0.0885009765625,
                -0.02734375
            ]
        },
        {
            "bufferView": 4,
            "byteOffset": 0,
            "componentType": 5126,
            "count": 4,
            "type": "VEC2",
            "max": [
                0.9921875,
                0.9921875
            ],
            "min": [
                2.2250738585072014e-308,
                2.2250738585072014e-308
            ]
        },
        {
            "bufferView": 5,
            "byteOffset": 0,
            "componentType": 5125,
            "count": 6,
            "type": "SCALAR",
            "max": [
                3
            ],
            "min": [
                0
            ]
        }
    ],
    "buffers": [
        {
            "byteLength": 232,
            "uri": "Bistro_Research_Exterior_Paris_Building_01_paris_building_01_bottom_4785.bin"
        }
    ],
    "bufferViews": [
        {
            "buffer": 0,
            "byteOffset": 0,
            "byteLength": 48,
            "target": 34962
        },
        {
            "buffer": 0,
            "byteOffset": 48,
            "byteLength": 48,
            "target": 34962
        },
        {
            "buffer": 0,
            "byteOffset": 96,
            "byteLength": 48,
            "target": 34962
        },
        {
            "buffer": 0,
            "byteOffset": 144,
            "byteLength": 32,
            "target": 34962
        },
        {
            "buffer": 0,
            "byteOffset": 176,
            "byteLength": 32,
            "target": 34962
        },
        {
            "buffer": 0,
            "byteOffset": 208,
            "byteLength": 24,
            "target": 34963
        }
    ],
    "images": [
        {
            "uri": "Textures\\MASTER_Wood_Painted3_BaseColor.dds"
        },
        {
            "uri": "Textures\\MASTER_Wood_Painted3_Normal.dds"
        },
        {
            "uri": "Textures\\MASTER_Wood_Painted3_Specular.dds"
        }
    ],
    "materials": [
        {
            "name": "MASTER_Wood_Painted3",
            "pbrMetallicRoughness": {
                "baseColorTexture": {
                    "index": 0
                },
                "metallicFactor": 0.0,
                "roughnessFactor": 0.5527864098548889
            },
            "normalTexture": {
                "index": 1
            },
            "extensions": {
                "KHR_materials_specular": {
                    "specularFactor": 1.0,
                    "specularColorFactor": [
                        0.5,
                        0.5,
                        0.5
                    ],
                    "specularTexture": {
                        "index": 2
                    }
                }
            }
        }
    ],
    "meshes": [
        {
            "name": "Bistro_Research_Exterior_Paris_Building_01_paris_building_01_bottom_4785",
            "primitives": [
                {
                    "mode": 4,
                    "material": 0,
                    "indices": 5,
                    "attributes": {
                        "POSITION": 0,
                        "NORMAL": 1,
                        "TANGENT": 2,
                        "TEXCOORD_0": 3,
                        "TEXCOORD_1": 4
                    }
                }
            ]
        }
    ],
    "nodes": [
        {
            "name": "Bistro_Research_Exterior_Paris_Building_01_paris_building_01_bottom_4785",
            "mesh": 0
        }
    ],
    "samplers": [
        {},
        {},
        {}
    ],
    "scenes": [
        {
            "nodes": [
                0
            ]
        }
    ],
    "textures": [
        {
            "source": 0,
            "sampler": 0
        },
        {
            "source": 1,
            "sampler": 1
        },
        {
            "source": 2,
            "sampler": 2
        }
    ],
    "scene": 0
}