{
    "asset": {
        "version": "2.0",
        "generator": "Open Asset Import Library (assimp v6.0.44188438)"
    },
    "extensionsUsed": [
        "KHR_materials_specular",
        "KHR_materials_volume",
        "FB_ngon_encoding"
    ],
    "accessors": [
        {
            "bufferView": 0,
            "byteOffset": 0,
            "componentType": 5126,
            "count": 6514,
            "type": "VEC3",
            "max": [
                787.8253784179688,
                1826.6837158203125,
                423.054443359375
            ],
            "min": [
                2.2250738585072014e-308,
                2.2250738585072014e-308,
                2.2250738585072014e-308
            ]
        },
        {
            "bufferView": 1,
            "byteOffset": 0,
            "componentType": 5126,
            "count": 6514,
            "type": "VEC3",
            "max": [
                0.9971842169761658,
                0.9999231100082397,
                0.999984622001648
            ],
            "min": [
                -0.9966185688972473,
                -0.9999843835830688,
                -0.999984622001648
            ]
        },
        {
            "bufferView": 2,
            "byteOffset": 0,
            "componentType": 5126,
            "count": 6514,
            "type": "VEC3",
            "max": [
                0.9999308586120605,
                0.9977329969406128,
                0.9999924302101135
            ],
            "min": [
                -0.9999922513961792,
                -0.9990634918212891,
                -0.999992311000824
            ]
        },
        {
            "bufferView": 3,
            "byteOffset": 0,
            "componentType": 5126,
            "count": 6514,
            "type": "VEC2",
            "max": [
                1.37109375,
                0.9970684051513672
            ],
            "min": [
                -0.059967041015625,
                2.2250738585072014e-308
            ]
        },
        {
            "bufferView": 4,
            "byteOffset": 0,
            "componentType": 5126,
            "count": 6514,
            "type": "VEC2",
            "max": [
                0.98876953125,
                0.9921875
            ],
            "min": [
                2.2250738585072014e-308,
                2.2250738585072014e-308
            ]
        },
        {
            "bufferView": 5,
            "byteOffset": 0,
            "componentType": 5125,
            "count": 17856,
            "type": "SCALAR",
            "max": [
                6513
            ],
            "min": [
                0
            ]
        }
    ],
    "buffers": [
        {
            "byteLength": 410152,
            "uri": "Bistro_Research_Exterior_paris_building_04_5003.bin"
        }
    ],
    "bufferViews": [
        {
            "buffer": 0,
            "byteOffset": 0,
            "byteLength": 78168,
            "target": 34962
        },
        {
            "buffer": 0,
            "byteOffset": 78168,
            "byteLength": 78168,
            "target": 34962
        },
        {
            "buffer": 0,
            "byteOffset": 156336,
            "byteLength": 78168,
            "target": 34962
        },
        {
            "buffer": 0,
            "byteOffset": 234504,
            "byteLength": 52112,
            "target": 34962
        },
        {
            "buffer": 0,
            "byteOffset": 286616,
            "byteLength": 52112,
            "target": 34962
        },
        {
            "buffer": 0,
            "byteOffset": 338728,
            "byteLength": 71424,
            "target": 34963
        }
    ],
    "images": [
        {
            "uri": "Textures\\MASTER_Awning_Beams_BaseColor.dds"
        },
        {
            "uri": "Textures\\MASTER_Awning_Beams_Normal.dds"
        },
        {
            "uri": "Textures\\MASTER_Awning_Beams_Specular.dds"
        }
    ],
    "materials": [
        {
            "name": "MASTER_Awning_Beams",
            "pbrMetallicRoughness": {
                "baseColorTexture": {
                    "index": 0
                },
                "metallicFactor": 0.0,
                "roughnessFactor": 0.5527864098548889
            },
            "normalTexture": {
                "index": 1
            },
            "extensions": {
                "KHR_materials_specular": {
                    "specularFactor": 1.0,
                    "specularColorFactor": [
                        0.5,
                        0.5,
                        0.5
                    ],
                    "specularTexture": {
                        "index": 2
                    }
                }
            }
        }
    ],
    "meshes": [
        {
            "name": "Bistro_Research_Exterior_paris_building_04_5003",
            "primitives": [
                {
                    "mode": 4,
                    "material": 0,
                    "indices": 5,
                    "attributes": {
                        "POSITION": 0,
                        "NORMAL": 1,
                        "TANGENT": 2,
                        "TEXCOORD_0": 3,
                        "TEXCOORD_1": 4
                    }
                }
            ]
        }
    ],
    "nodes": [
        {
            "name": "Bistro_Research_Exterior_paris_building_04_5003",
            "mesh": 0
        }
    ],
    "samplers": [
        {},
        {},
        {}
    ],
    "scenes": [
        {
            "nodes": [
                0
            ]
        }
    ],
    "textures": [
        {
            "source": 0,
            "sampler": 0
        },
        {
            "source": 1,
            "sampler": 1
        },
        {
            "source": 2,
            "sampler": 2
        }
    ],
    "scene": 0
}