{
    "asset": {
        "version": "2.0",
        "generator": "Open Asset Import Library (assimp v6.0.44188438)"
    },
    "extensionsUsed": [
        "KHR_materials_specular",
        "KHR_materials_volume",
        "FB_ngon_encoding"
    ],
    "accessors": [
        {
            "bufferView": 0,
            "byteOffset": 0,
            "componentType": 5126,
            "count": 4680,
            "type": "VEC3",
            "max": [
                3406.263671875,
                3115.390625,
                26.83940315246582
            ],
            "min": [
                -832.5789184570313,
                -2281.39501953125,
                2.2250738585072014e-308
            ]
        },
        {
            "bufferView": 1,
            "byteOffset": 0,
            "componentType": 5126,
            "count": 4680,
            "type": "VEC3",
            "max": [
                0.9618943929672241,
                0.9692680239677429,
                0.9470078349113464
            ],
            "min": [
                -0.9624748826026917,
                -0.9704649448394775,
                -0.7919832468032837
            ]
        },
        {
            "bufferView": 2,
            "byteOffset": 0,
            "componentType": 5126,
            "count": 4680,
            "type": "VEC3",
            "max": [
                0.9952296614646912,
                0.9990094900131226,
                0.9710711240768433
            ],
            "min": [
                -0.9985725283622742,
                -0.9999728202819824,
                -0.9675133228302002
            ]
        },
        {
            "bufferView": 3,
            "byteOffset": 0,
            "componentType": 5126,
            "count": 4680,
            "type": "VEC2",
            "max": [
                0.994140625,
                0.735107421875
            ],
            "min": [
                2.2250738585072014e-308,
                2.2250738585072014e-308
            ]
        },
        {
            "bufferView": 4,
            "byteOffset": 0,
            "componentType": 5126,
            "count": 4680,
            "type": "VEC2",
            "max": [
                0.98193359375,
                0.9921875
            ],
            "min": [
                2.2250738585072014e-308,
                2.2250738585072014e-308
            ]
        },
        {
            "bufferView": 5,
            "byteOffset": 0,
            "componentType": 5125,
            "count": 19656,
            "type": "SCALAR",
            "max": [
                4679
            ],
            "min": [
                0
            ]
        }
    ],
    "buffers": [
        {
            "byteLength": 321984,
            "uri": "Bistro_Research_Exterior_Paris_Street_13_NormalFix_14.bin"
        }
    ],
    "bufferViews": [
        {
            "buffer": 0,
            "byteOffset": 0,
            "byteLength": 56160,
            "target": 34962
        },
        {
            "buffer": 0,
            "byteOffset": 56160,
            "byteLength": 56160,
            "target": 34962
        },
        {
            "buffer": 0,
            "byteOffset": 112320,
            "byteLength": 56160,
            "target": 34962
        },
        {
            "buffer": 0,
            "byteOffset": 168480,
            "byteLength": 37440,
            "target": 34962
        },
        {
            "buffer": 0,
            "byteOffset": 205920,
            "byteLength": 37440,
            "target": 34962
        },
        {
            "buffer": 0,
            "byteOffset": 243360,
            "byteLength": 78624,
            "target": 34963
        }
    ],
    "images": [
        {
            "uri": "Textures\\Pavement_Curbstones_BaseColor.dds"
        },
        {
            "uri": "Textures\\Pavement_Curbstones_Normal.dds"
        },
        {
            "uri": "Textures\\Pavement_Curbstones_Specular.dds"
        }
    ],
    "materials": [
        {
            "name": "Pavement_Curbstones",
            "pbrMetallicRoughness": {
                "baseColorTexture": {
                    "index": 0
                },
                "metallicFactor": 0.0,
                "roughnessFactor": 0.5527864098548889
            },
            "normalTexture": {
                "index": 1
            },
            "extensions": {
                "KHR_materials_specular": {
                    "specularFactor": 1.0,
                    "specularColorFactor": [
                        0.5,
                        0.5,
                        0.5
                    ],
                    "specularTexture": {
                        "index": 2
                    }
                }
            }
        }
    ],
    "meshes": [
        {
            "name": "Bistro_Research_Exterior_Paris_Street_13_NormalFix_14",
            "primitives": [
                {
                    "mode": 4,
                    "material": 0,
                    "indices": 5,
                    "attributes": {
                        "POSITION": 0,
                        "NORMAL": 1,
                        "TANGENT": 2,
                        "TEXCOORD_0": 3,
                        "TEXCOORD_1": 4
                    }
                }
            ]
        }
    ],
    "nodes": [
        {
            "name": "Bistro_Research_Exterior_Paris_Street_13_NormalFix_14",
            "mesh": 0
        }
    ],
    "samplers": [
        {},
        {},
        {}
    ],
    "scenes": [
        {
            "nodes": [
                0
            ]
        }
    ],
    "textures": [
        {
            "source": 0,
            "sampler": 0
        },
        {
            "source": 1,
            "sampler": 1
        },
        {
            "source": 2,
            "sampler": 2
        }
    ],
    "scene": 0
}