{
    "asset": {
        "version": "2.0",
        "generator": "Open Asset Import Library (assimp v6.0.44188438)"
    },
    "extensionsUsed": [
        "KHR_materials_specular",
        "KHR_materials_volume",
        "FB_ngon_encoding"
    ],
    "accessors": [
        {
            "bufferView": 0,
            "byteOffset": 0,
            "componentType": 5126,
            "count": 22049,
            "type": "VEC3",
            "max": [
                -33.764617919921875,
                211.3407745361328,
                776.5794067382813
            ],
            "min": [
                -229.63523864746094,
                -75.09589385986328,
                2.2250738585072014e-308
            ]
        },
        {
            "bufferView": 1,
            "byteOffset": 0,
            "componentType": 5126,
            "count": 22049,
            "type": "VEC3",
            "max": [
                0.9999219179153442,
                0.9999231100082397,
                0.999984622001648
            ],
            "min": [
                -0.999984622001648,
                -0.9999843835830688,
                -0.999984622001648
            ]
        },
        {
            "bufferView": 2,
            "byteOffset": 0,
            "componentType": 5126,
            "count": 22049,
            "type": "VEC3",
            "max": [
                0.9999922513961792,
                0.9999302625656128,
                0.9999924898147583
            ],
            "min": [
                -0.9999308586120605,
                -0.9999921321868896,
                -0.9999923706054688
            ]
        },
        {
            "bufferView": 3,
            "byteOffset": 0,
            "componentType": 5126,
            "count": 22049,
            "type": "VEC2",
            "max": [
                0.9931640625,
                0.9934654235839844
            ],
            "min": [
                2.2250738585072014e-308,
                2.2250738585072014e-308
            ]
        },
        {
            "bufferView": 4,
            "byteOffset": 0,
            "componentType": 5126,
            "count": 22049,
            "type": "VEC2",
            "max": [
                0.9814453125,
                0.9921913146972656
            ],
            "min": [
                2.2250738585072014e-308,
                2.2250738585072014e-308
            ]
        },
        {
            "bufferView": 5,
            "byteOffset": 0,
            "componentType": 5125,
            "count": 80574,
            "type": "SCALAR",
            "max": [
                22048
            ],
            "min": [
                0
            ]
        }
    ],
    "buffers": [
        {
            "byteLength": 1468844,
            "uri": "Bistro_Research_Exterior_Paris_MainBalcony_01_6103_1.bin"
        }
    ],
    "bufferViews": [
        {
            "buffer": 0,
            "byteOffset": 0,
            "byteLength": 264588,
            "target": 34962
        },
        {
            "buffer": 0,
            "byteOffset": 264588,
            "byteLength": 264588,
            "target": 34962
        },
        {
            "buffer": 0,
            "byteOffset": 529176,
            "byteLength": 264588,
            "target": 34962
        },
        {
            "buffer": 0,
            "byteOffset": 793764,
            "byteLength": 176392,
            "target": 34962
        },
        {
            "buffer": 0,
            "byteOffset": 970156,
            "byteLength": 176392,
            "target": 34962
        },
        {
            "buffer": 0,
            "byteOffset": 1146548,
            "byteLength": 322296,
            "target": 34963
        }
    ],
    "images": [
        {
            "uri": "Textures\\Balcony_Ornaments_BaseColor.dds"
        },
        {
            "uri": "Textures\\Balcony_Ornaments_Normal.dds"
        },
        {
            "uri": "Textures\\Balcony_Ornaments_Specular.dds"
        }
    ],
    "materials": [
        {
            "name": "Balcony_Ornaments",
            "pbrMetallicRoughness": {
                "baseColorTexture": {
                    "index": 0
                },
                "metallicFactor": 0.0,
                "roughnessFactor": 0.5527864098548889
            },
            "normalTexture": {
                "index": 1
            },
            "extensions": {
                "KHR_materials_specular": {
                    "specularFactor": 1.0,
                    "specularColorFactor": [
                        0.5,
                        0.5,
                        0.5
                    ],
                    "specularTexture": {
                        "index": 2
                    }
                }
            }
        }
    ],
    "meshes": [
        {
            "name": "Bistro_Research_Exterior_Paris_MainBalcony_01_6103",
            "primitives": [
                {
                    "mode": 4,
                    "material": 0,
                    "indices": 5,
                    "attributes": {
                        "POSITION": 0,
                        "NORMAL": 1,
                        "TANGENT": 2,
                        "TEXCOORD_0": 3,
                        "TEXCOORD_1": 4
                    }
                }
            ]
        }
    ],
    "nodes": [
        {
            "name": "Bistro_Research_Exterior_Paris_MainBalcony_01_6103",
            "mesh": 0
        }
    ],
    "samplers": [
        {},
        {},
        {}
    ],
    "scenes": [
        {
            "nodes": [
                0
            ]
        }
    ],
    "textures": [
        {
            "source": 0,
            "sampler": 0
        },
        {
            "source": 1,
            "sampler": 1
        },
        {
            "source": 2,
            "sampler": 2
        }
    ],
    "scene": 0
}