{
    "asset": {
        "version": "2.0",
        "generator": "Open Asset Import Library (assimp v6.0.44188438)"
    },
    "extensionsUsed": [
        "KHR_materials_specular",
        "KHR_materials_volume",
        "FB_ngon_encoding"
    ],
    "accessors": [
        {
            "bufferView": 0,
            "byteOffset": 0,
            "componentType": 5126,
            "count": 1848,
            "type": "VEC3",
            "max": [
                2113.937744140625,
                -664.5772094726563,
                309.6328430175781
            ],
            "min": [
                2.2250738585072014e-308,
                -1194.8819580078125,
                2.2250738585072014e-308
            ]
        },
        {
            "bufferView": 1,
            "byteOffset": 0,
            "componentType": 5126,
            "count": 1848,
            "type": "VEC3",
            "max": [
                0.9999219179153442,
                0.9986953735351563,
                0.999984622001648
            ],
            "min": [
                -0.999984622001648,
                -0.9990483522415161,
                -0.999984622001648
            ]
        },
        {
            "bufferView": 2,
            "byteOffset": 0,
            "componentType": 5126,
            "count": 1848,
            "type": "VEC3",
            "max": [
                0.9726108908653259,
                0.9988539814949036,
                0.9999923706054688
            ],
            "min": [
                -0.9747593998908997,
                -0.9991077780723572,
                -0.9999924898147583
            ]
        },
        {
            "bufferView": 3,
            "byteOffset": 0,
            "componentType": 5126,
            "count": 1848,
            "type": "VEC2",
            "max": [
                0.99853515625,
                0.9977798461914063
            ],
            "min": [
                2.2250738585072014e-308,
                2.2250738585072014e-308
            ]
        },
        {
            "bufferView": 4,
            "byteOffset": 0,
            "componentType": 5126,
            "count": 1848,
            "type": "VEC2",
            "max": [
                0.9892578125,
                0.9921875
            ],
            "min": [
                2.2250738585072014e-308,
                2.2250738585072014e-308
            ]
        },
        {
            "bufferView": 5,
            "byteOffset": 0,
            "componentType": 5125,
            "count": 5496,
            "type": "SCALAR",
            "max": [
                1847
            ],
            "min": [
                0
            ]
        }
    ],
    "buffers": [
        {
            "byteLength": 118080,
            "uri": "Bistro_Research_Exterior_paris_building_02_4905.bin"
        }
    ],
    "bufferViews": [
        {
            "buffer": 0,
            "byteOffset": 0,
            "byteLength": 22176,
            "target": 34962
        },
        {
            "buffer": 0,
            "byteOffset": 22176,
            "byteLength": 22176,
            "target": 34962
        },
        {
            "buffer": 0,
            "byteOffset": 44352,
            "byteLength": 22176,
            "target": 34962
        },
        {
            "buffer": 0,
            "byteOffset": 66528,
            "byteLength": 14784,
            "target": 34962
        },
        {
            "buffer": 0,
            "byteOffset": 81312,
            "byteLength": 14784,
            "target": 34962
        },
        {
            "buffer": 0,
            "byteOffset": 96096,
            "byteLength": 21984,
            "target": 34963
        }
    ],
    "images": [
        {
            "uri": "Textures\\MASTER_Doors_BaseColor.dds"
        },
        {
            "uri": "Textures\\MASTER_Doors_Normal.dds"
        },
        {
            "uri": "Textures\\MASTER_Doors_Specular.dds"
        }
    ],
    "materials": [
        {
            "name": "MASTER_Doors",
            "pbrMetallicRoughness": {
                "baseColorTexture": {
                    "index": 0
                },
                "metallicFactor": 0.0,
                "roughnessFactor": 0.5527864098548889
            },
            "normalTexture": {
                "index": 1
            },
            "extensions": {
                "KHR_materials_specular": {
                    "specularFactor": 1.0,
                    "specularColorFactor": [
                        0.5,
                        0.5,
                        0.5
                    ],
                    "specularTexture": {
                        "index": 2
                    }
                }
            }
        }
    ],
    "meshes": [
        {
            "name": "Bistro_Research_Exterior_paris_building_02_4905",
            "primitives": [
                {
                    "mode": 4,
                    "material": 0,
                    "indices": 5,
                    "attributes": {
                        "POSITION": 0,
                        "NORMAL": 1,
                        "TANGENT": 2,
                        "TEXCOORD_0": 3,
                        "TEXCOORD_1": 4
                    }
                }
            ]
        }
    ],
    "nodes": [
        {
            "name": "Bistro_Research_Exterior_paris_building_02_4905",
            "mesh": 0
        }
    ],
    "samplers": [
        {},
        {},
        {}
    ],
    "scenes": [
        {
            "nodes": [
                0
            ]
        }
    ],
    "textures": [
        {
            "source": 0,
            "sampler": 0
        },
        {
            "source": 1,
            "sampler": 1
        },
        {
            "source": 2,
            "sampler": 2
        }
    ],
    "scene": 0
}