{
    "asset": {
        "version": "2.0",
        "generator": "Open Asset Import Library (assimp v6.0.44188438)"
    },
    "extensionsUsed": [
        "KHR_materials_specular",
        "KHR_materials_volume",
        "FB_ngon_encoding"
    ],
    "accessors": [
        {
            "bufferView": 0,
            "byteOffset": 0,
            "componentType": 5126,
            "count": 9865,
            "type": "VEC3",
            "max": [
                1079.911376953125,
                2078.494873046875,
                2422.9892578125
            ],
            "min": [
                2.2250738585072014e-308,
                2.2250738585072014e-308,
                2.2250738585072014e-308
            ]
        },
        {
            "bufferView": 1,
            "byteOffset": 0,
            "componentType": 5126,
            "count": 9865,
            "type": "VEC3",
            "max": [
                0.9999219179153442,
                0.9998001456260681,
                0.999984622001648
            ],
            "min": [
                -0.999984622001648,
                -0.9999219179153442,
                -0.999984622001648
            ]
        },
        {
            "bufferView": 2,
            "byteOffset": 0,
            "componentType": 5126,
            "count": 9865,
            "type": "VEC3",
            "max": [
                0.9998078942298889,
                0.9999778866767883,
                0.9999924898147583
            ],
            "min": [
                -0.9999297857284546,
                -0.9999081492424011,
                -0.9999921917915344
            ]
        },
        {
            "bufferView": 3,
            "byteOffset": 0,
            "componentType": 5126,
            "count": 9865,
            "type": "VEC2",
            "max": [
                5.9453125,
                2.4150390625
            ],
            "min": [
                -0.99853515625,
                -5.68359375
            ]
        },
        {
            "bufferView": 4,
            "byteOffset": 0,
            "componentType": 5126,
            "count": 9865,
            "type": "VEC2",
            "max": [
                0.99169921875,
                0.9921913146972656
            ],
            "min": [
                2.2250738585072014e-308,
                2.2250738585072014e-308
            ]
        },
        {
            "bufferView": 5,
            "byteOffset": 0,
            "componentType": 5125,
            "count": 28080,
            "type": "SCALAR",
            "max": [
                9864
            ],
            "min": [
                0
            ]
        }
    ],
    "buffers": [
        {
            "byteLength": 625300,
            "uri": "Bistro_Research_Exterior_paris_building_04_5027.bin"
        }
    ],
    "bufferViews": [
        {
            "buffer": 0,
            "byteOffset": 0,
            "byteLength": 118380,
            "target": 34962
        },
        {
            "buffer": 0,
            "byteOffset": 118380,
            "byteLength": 118380,
            "target": 34962
        },
        {
            "buffer": 0,
            "byteOffset": 236760,
            "byteLength": 118380,
            "target": 34962
        },
        {
            "buffer": 0,
            "byteOffset": 355140,
            "byteLength": 78920,
            "target": 34962
        },
        {
            "buffer": 0,
            "byteOffset": 434060,
            "byteLength": 78920,
            "target": 34962
        },
        {
            "buffer": 0,
            "byteOffset": 512980,
            "byteLength": 112320,
            "target": 34963
        }
    ],
    "images": [
        {
            "uri": "Textures\\MASTER_Grain_Metal_BaseColor.dds"
        },
        {
            "uri": "Textures\\MASTER_Grain_Metal_Normal.dds"
        },
        {
            "uri": "Textures\\MASTER_Grain_Metal_Specular.dds"
        }
    ],
    "materials": [
        {
            "name": "MASTER_Grain_Metal",
            "pbrMetallicRoughness": {
                "baseColorTexture": {
                    "index": 0
                },
                "metallicFactor": 0.0,
                "roughnessFactor": 0.5527864098548889
            },
            "normalTexture": {
                "index": 1
            },
            "extensions": {
                "KHR_materials_specular": {
                    "specularFactor": 1.0,
                    "specularColorFactor": [
                        0.5,
                        0.5,
                        0.5
                    ],
                    "specularTexture": {
                        "index": 2
                    }
                }
            }
        }
    ],
    "meshes": [
        {
            "name": "Bistro_Research_Exterior_paris_building_04_5027",
            "primitives": [
                {
                    "mode": 4,
                    "material": 0,
                    "indices": 5,
                    "attributes": {
                        "POSITION": 0,
                        "NORMAL": 1,
                        "TANGENT": 2,
                        "TEXCOORD_0": 3,
                        "TEXCOORD_1": 4
                    }
                }
            ]
        }
    ],
    "nodes": [
        {
            "name": "Bistro_Research_Exterior_paris_building_04_5027",
            "mesh": 0
        }
    ],
    "samplers": [
        {},
        {},
        {}
    ],
    "scenes": [
        {
            "nodes": [
                0
            ]
        }
    ],
    "textures": [
        {
            "source": 0,
            "sampler": 0
        },
        {
            "source": 1,
            "sampler": 1
        },
        {
            "source": 2,
            "sampler": 2
        }
    ],
    "scene": 0
}