{
    "asset": {
        "version": "2.0",
        "generator": "Open Asset Import Library (assimp v6.0.44188438)"
    },
    "extensionsUsed": [
        "KHR_materials_specular",
        "KHR_materials_volume",
        "FB_ngon_encoding"
    ],
    "accessors": [
        {
            "bufferView": 0,
            "byteOffset": 0,
            "componentType": 5126,
            "count": 2146,
            "type": "VEC3",
            "max": [
                121.25337219238281,
                2899.76708984375,
                1664.8079833984375
            ],
            "min": [
                -1053.2767333984375,
                2.2250738585072014e-308,
                2.2250738585072014e-308
            ]
        },
        {
            "bufferView": 1,
            "byteOffset": 0,
            "componentType": 5126,
            "count": 2146,
            "type": "VEC3",
            "max": [
                0.8616239428520203,
                0.8636305928230286,
                0.999984622001648
            ],
            "min": [
                -0.7376343607902527,
                -0.8153208494186401,
                -0.999984622001648
            ]
        },
        {
            "bufferView": 2,
            "byteOffset": 0,
            "componentType": 5126,
            "count": 2146,
            "type": "VEC3",
            "max": [
                0.7415357232093811,
                0.861632764339447,
                0.9999922513961792
            ],
            "min": [
                -0.8588552474975586,
                -0.8071588277816772,
                -0.9999924302101135
            ]
        },
        {
            "bufferView": 3,
            "byteOffset": 0,
            "componentType": 5126,
            "count": 2146,
            "type": "VEC2",
            "max": [
                0.98681640625,
                0.9904327392578125
            ],
            "min": [
                2.2250738585072014e-308,
                2.2250738585072014e-308
            ]
        },
        {
            "bufferView": 4,
            "byteOffset": 0,
            "componentType": 5126,
            "count": 2146,
            "type": "VEC2",
            "max": [
                0.978515625,
                0.9921875
            ],
            "min": [
                2.2250738585072014e-308,
                2.2250738585072014e-308
            ]
        },
        {
            "bufferView": 5,
            "byteOffset": 0,
            "componentType": 5125,
            "count": 3372,
            "type": "SCALAR",
            "max": [
                2145
            ],
            "min": [
                0
            ]
        }
    ],
    "buffers": [
        {
            "byteLength": 125080,
            "uri": "Bistro_Research_Exterior_paris_building_09_5459.bin"
        }
    ],
    "bufferViews": [
        {
            "buffer": 0,
            "byteOffset": 0,
            "byteLength": 25752,
            "target": 34962
        },
        {
            "buffer": 0,
            "byteOffset": 25752,
            "byteLength": 25752,
            "target": 34962
        },
        {
            "buffer": 0,
            "byteOffset": 51504,
            "byteLength": 25752,
            "target": 34962
        },
        {
            "buffer": 0,
            "byteOffset": 77256,
            "byteLength": 17168,
            "target": 34962
        },
        {
            "buffer": 0,
            "byteOffset": 94424,
            "byteLength": 17168,
            "target": 34962
        },
        {
            "buffer": 0,
            "byteOffset": 111592,
            "byteLength": 13488,
            "target": 34963
        }
    ],
    "images": [
        {
            "uri": "Textures\\MASTER_Building_Details_BaseColor.dds"
        },
        {
            "uri": "Textures\\MASTER_Building_Details_Normal.dds"
        },
        {
            "uri": "Textures\\MASTER_Building_Details_Specular.dds"
        }
    ],
    "materials": [
        {
            "name": "MASTER_Building_Details",
            "pbrMetallicRoughness": {
                "baseColorTexture": {
                    "index": 0
                },
                "metallicFactor": 0.0,
                "roughnessFactor": 0.5527864098548889
            },
            "normalTexture": {
                "index": 1
            },
            "extensions": {
                "KHR_materials_specular": {
                    "specularFactor": 1.0,
                    "specularColorFactor": [
                        0.5,
                        0.5,
                        0.5
                    ],
                    "specularTexture": {
                        "index": 2
                    }
                }
            }
        }
    ],
    "meshes": [
        {
            "name": "Bistro_Research_Exterior_paris_building_09_5459",
            "primitives": [
                {
                    "mode": 4,
                    "material": 0,
                    "indices": 5,
                    "attributes": {
                        "POSITION": 0,
                        "NORMAL": 1,
                        "TANGENT": 2,
                        "TEXCOORD_0": 3,
                        "TEXCOORD_1": 4
                    }
                }
            ]
        }
    ],
    "nodes": [
        {
            "name": "Bistro_Research_Exterior_paris_building_09_5459",
            "mesh": 0
        }
    ],
    "samplers": [
        {},
        {},
        {}
    ],
    "scenes": [
        {
            "nodes": [
                0
            ]
        }
    ],
    "textures": [
        {
            "source": 0,
            "sampler": 0
        },
        {
            "source": 1,
            "sampler": 1
        },
        {
            "source": 2,
            "sampler": 2
        }
    ],
    "scene": 0
}