{
    "asset": {
        "version": "2.0",
        "generator": "Open Asset Import Library (assimp v6.0.44188438)"
    },
    "extensionsUsed": [
        "KHR_materials_specular",
        "KHR_materials_volume",
        "FB_ngon_encoding"
    ],
    "accessors": [
        {
            "bufferView": 0,
            "byteOffset": 0,
            "componentType": 5126,
            "count": 2754,
            "type": "VEC3",
            "max": [
                -3088.75732421875,
                2081.6513671875,
                2534.6201171875
            ],
            "min": [
                -3203.4091796875,
                2.2250738585072014e-308,
                2.2250738585072014e-308
            ]
        },
        {
            "bufferView": 1,
            "byteOffset": 0,
            "componentType": 5126,
            "count": 2754,
            "type": "VEC3",
            "max": [
                0.994346022605896,
                0.9998001456260681,
                0.999984622001648
            ],
            "min": [
                -0.995220959186554,
                -0.9990483522415161,
                -0.999984622001648
            ]
        },
        {
            "bufferView": 2,
            "byteOffset": 0,
            "componentType": 5126,
            "count": 2754,
            "type": "VEC3",
            "max": [
                0.999762773513794,
                0.9943445920944214,
                0.9999924898147583
            ],
            "min": [
                -0.9970930218696594,
                -0.9995735287666321,
                -0.9999924302101135
            ]
        },
        {
            "bufferView": 3,
            "byteOffset": 0,
            "componentType": 5126,
            "count": 2754,
            "type": "VEC2",
            "max": [
                0.98974609375,
                0.9882736206054688
            ],
            "min": [
                2.2250738585072014e-308,
                2.2250738585072014e-308
            ]
        },
        {
            "bufferView": 4,
            "byteOffset": 0,
            "componentType": 5126,
            "count": 2754,
            "type": "VEC2",
            "max": [
                0.98193359375,
                0.9921875
            ],
            "min": [
                2.2250738585072014e-308,
                2.2250738585072014e-308
            ]
        },
        {
            "bufferView": 5,
            "byteOffset": 0,
            "componentType": 5125,
            "count": 6204,
            "type": "SCALAR",
            "max": [
                2753
            ],
            "min": [
                0
            ]
        }
    ],
    "buffers": [
        {
            "byteLength": 168024,
            "uri": "Bistro_Research_Exterior_Paris_Aerial_01C5_4067_0.bin"
        }
    ],
    "bufferViews": [
        {
            "buffer": 0,
            "byteOffset": 0,
            "byteLength": 33048,
            "target": 34962
        },
        {
            "buffer": 0,
            "byteOffset": 33048,
            "byteLength": 33048,
            "target": 34962
        },
        {
            "buffer": 0,
            "byteOffset": 66096,
            "byteLength": 33048,
            "target": 34962
        },
        {
            "buffer": 0,
            "byteOffset": 99144,
            "byteLength": 22032,
            "target": 34962
        },
        {
            "buffer": 0,
            "byteOffset": 121176,
            "byteLength": 22032,
            "target": 34962
        },
        {
            "buffer": 0,
            "byteOffset": 143208,
            "byteLength": 24816,
            "target": 34963
        }
    ],
    "images": [
        {
            "uri": "Textures\\Antenna_Metal_BaseColor.dds"
        },
        {
            "uri": "Textures\\Antenna_Metal_Normal.dds"
        },
        {
            "uri": "Textures\\Antenna_Metal_Specular.dds"
        }
    ],
    "materials": [
        {
            "name": "Antenna_Metal",
            "pbrMetallicRoughness": {
                "baseColorTexture": {
                    "index": 0
                },
                "metallicFactor": 0.0,
                "roughnessFactor": 0.5527864098548889
            },
            "normalTexture": {
                "index": 1
            },
            "extensions": {
                "KHR_materials_specular": {
                    "specularFactor": 1.0,
                    "specularColorFactor": [
                        0.5,
                        0.5,
                        0.5
                    ],
                    "specularTexture": {
                        "index": 2
                    }
                }
            }
        }
    ],
    "meshes": [
        {
            "name": "Bistro_Research_Exterior_Paris_Aerial_01C5_4067",
            "primitives": [
                {
                    "mode": 4,
                    "material": 0,
                    "indices": 5,
                    "attributes": {
                        "POSITION": 0,
                        "NORMAL": 1,
                        "TANGENT": 2,
                        "TEXCOORD_0": 3,
                        "TEXCOORD_1": 4
                    }
                }
            ]
        }
    ],
    "nodes": [
        {
            "name": "Bistro_Research_Exterior_Paris_Aerial_01C5_4067",
            "mesh": 0
        }
    ],
    "samplers": [
        {},
        {},
        {}
    ],
    "scenes": [
        {
            "nodes": [
                0
            ]
        }
    ],
    "textures": [
        {
            "source": 0,
            "sampler": 0
        },
        {
            "source": 1,
            "sampler": 1
        },
        {
            "source": 2,
            "sampler": 2
        }
    ],
    "scene": 0
}