{
    "asset": {
        "version": "2.0",
        "generator": "Open Asset Import Library (assimp v6.0.44188438)"
    },
    "extensionsUsed": [
        "KHR_materials_specular",
        "KHR_materials_volume",
        "FB_ngon_encoding"
    ],
    "accessors": [
        {
            "bufferView": 0,
            "byteOffset": 0,
            "componentType": 5126,
            "count": 80,
            "type": "VEC3",
            "max": [
                -96.24357604980469,
                404.5333251953125,
                553.8419799804688
            ],
            "min": [
                -104.50300598144531,
                2.2250738585072014e-308,
                2.2250738585072014e-308
            ]
        },
        {
            "bufferView": 1,
            "byteOffset": 0,
            "componentType": 5126,
            "count": 80,
            "type": "VEC3",
            "max": [
                0.8616239428520203,
                0.8722991347312927,
                0.9945918321609497
            ],
            "min": [
                -0.860221803188324,
                -0.8670268058776855,
                -0.9935274720191956
            ]
        },
        {
            "bufferView": 2,
            "byteOffset": 0,
            "componentType": 5126,
            "count": 80,
            "type": "VEC3",
            "max": [
                0.8587656021118164,
                0.513329267501831,
                0.9999923706054688
            ],
            "min": [
                -0.8581908345222473,
                -0.5041161179542542,
                -0.9999924898147583
            ]
        },
        {
            "bufferView": 3,
            "byteOffset": 0,
            "componentType": 5126,
            "count": 80,
            "type": "VEC2",
            "max": [
                0.94384765625,
                0.8634033203125
            ],
            "min": [
                -0.057830810546875,
                2.2250738585072014e-308
            ]
        },
        {
            "bufferView": 4,
            "byteOffset": 0,
            "componentType": 5126,
            "count": 80,
            "type": "VEC2",
            "max": [
                0.9921875,
                0.9921875
            ],
            "min": [
                2.2250738585072014e-308,
                2.2250738585072014e-308
            ]
        },
        {
            "bufferView": 5,
            "byteOffset": 0,
            "componentType": 5125,
            "count": 216,
            "type": "SCALAR",
            "max": [
                79
            ],
            "min": [
                0
            ]
        }
    ],
    "buffers": [
        {
            "byteLength": 5024,
            "uri": "Bistro_Research_Exterior_Paris_Building_01_paris_building_01_4543.bin"
        }
    ],
    "bufferViews": [
        {
            "buffer": 0,
            "byteOffset": 0,
            "byteLength": 960,
            "target": 34962
        },
        {
            "buffer": 0,
            "byteOffset": 960,
            "byteLength": 960,
            "target": 34962
        },
        {
            "buffer": 0,
            "byteOffset": 1920,
            "byteLength": 960,
            "target": 34962
        },
        {
            "buffer": 0,
            "byteOffset": 2880,
            "byteLength": 640,
            "target": 34962
        },
        {
            "buffer": 0,
            "byteOffset": 3520,
            "byteLength": 640,
            "target": 34962
        },
        {
            "buffer": 0,
            "byteOffset": 4160,
            "byteLength": 864,
            "target": 34963
        }
    ],
    "images": [
        {
            "uri": "Textures\\MASTER_Grain_Metal_BaseColor.dds"
        },
        {
            "uri": "Textures\\MASTER_Grain_Metal_Normal.dds"
        },
        {
            "uri": "Textures\\MASTER_Grain_Metal_Specular.dds"
        }
    ],
    "materials": [
        {
            "name": "MASTER_Grain_Metal",
            "pbrMetallicRoughness": {
                "baseColorTexture": {
                    "index": 0
                },
                "metallicFactor": 0.0,
                "roughnessFactor": 0.5527864098548889
            },
            "normalTexture": {
                "index": 1
            },
            "extensions": {
                "KHR_materials_specular": {
                    "specularFactor": 1.0,
                    "specularColorFactor": [
                        0.5,
                        0.5,
                        0.5
                    ],
                    "specularTexture": {
                        "index": 2
                    }
                }
            }
        }
    ],
    "meshes": [
        {
            "name": "Bistro_Research_Exterior_Paris_Building_01_paris_building_01_4543",
            "primitives": [
                {
                    "mode": 4,
                    "material": 0,
                    "indices": 5,
                    "attributes": {
                        "POSITION": 0,
                        "NORMAL": 1,
                        "TANGENT": 2,
                        "TEXCOORD_0": 3,
                        "TEXCOORD_1": 4
                    }
                }
            ]
        }
    ],
    "nodes": [
        {
            "name": "Bistro_Research_Exterior_Paris_Building_01_paris_building_01_4543",
            "mesh": 0
        }
    ],
    "samplers": [
        {},
        {},
        {}
    ],
    "scenes": [
        {
            "nodes": [
                0
            ]
        }
    ],
    "textures": [
        {
            "source": 0,
            "sampler": 0
        },
        {
            "source": 1,
            "sampler": 1
        },
        {
            "source": 2,
            "sampler": 2
        }
    ],
    "scene": 0
}