{
    "asset": {
        "version": "2.0",
        "generator": "Open Asset Import Library (assimp v6.0.44188438)"
    },
    "extensionsUsed": [
        "KHR_materials_specular",
        "KHR_materials_volume",
        "FB_ngon_encoding"
    ],
    "accessors": [
        {
            "bufferView": 0,
            "byteOffset": 0,
            "componentType": 5126,
            "count": 490,
            "type": "VEC3",
            "max": [
                172.1684112548828,
                2928.702392578125,
                1692.7235107421875
            ],
            "min": [
                -1732.41162109375,
                2.2250738585072014e-308,
                2.2250738585072014e-308
            ]
        },
        {
            "bufferView": 1,
            "byteOffset": 0,
            "componentType": 5126,
            "count": 490,
            "type": "VEC3",
            "max": [
                0.7379669547080994,
                0.7415300607681274,
                0.999984622001648
            ],
            "min": [
                -0.7376343607902527,
                -0.7340449094772339,
                -0.999984622001648
            ]
        },
        {
            "bufferView": 2,
            "byteOffset": 0,
            "componentType": 5126,
            "count": 490,
            "type": "VEC3",
            "max": [
                0.7363236546516418,
                0.7379726767539978,
                0.005540819838643074
            ],
            "min": [
                -0.7415356636047363,
                -0.7376400232315063,
                -0.005540819838643074
            ]
        },
        {
            "bufferView": 3,
            "byteOffset": 0,
            "componentType": 5126,
            "count": 490,
            "type": "VEC2",
            "max": [
                1.0,
                1.297119140625
            ],
            "min": [
                0.0,
                -0.5322265625
            ]
        },
        {
            "bufferView": 4,
            "byteOffset": 0,
            "componentType": 5126,
            "count": 490,
            "type": "VEC2",
            "max": [
                0.9658203125,
                0.9921913146972656
            ],
            "min": [
                2.2250738585072014e-308,
                2.2250738585072014e-308
            ]
        },
        {
            "bufferView": 5,
            "byteOffset": 0,
            "componentType": 5125,
            "count": 744,
            "type": "SCALAR",
            "max": [
                489
            ],
            "min": [
                0
            ]
        }
    ],
    "buffers": [
        {
            "byteLength": 28456,
            "uri": "Bistro_Research_Exterior_paris_building_09_5461.bin"
        }
    ],
    "bufferViews": [
        {
            "buffer": 0,
            "byteOffset": 0,
            "byteLength": 5880,
            "target": 34962
        },
        {
            "buffer": 0,
            "byteOffset": 5880,
            "byteLength": 5880,
            "target": 34962
        },
        {
            "buffer": 0,
            "byteOffset": 11760,
            "byteLength": 5880,
            "target": 34962
        },
        {
            "buffer": 0,
            "byteOffset": 17640,
            "byteLength": 3920,
            "target": 34962
        },
        {
            "buffer": 0,
            "byteOffset": 21560,
            "byteLength": 3920,
            "target": 34962
        },
        {
            "buffer": 0,
            "byteOffset": 25480,
            "byteLength": 2976,
            "target": 34963
        }
    ],
    "images": [
        {
            "uri": "Textures\\MASTER_Room_Interior_BaseColor.dds"
        },
        {
            "uri": "Textures\\MASTER_Room_Interior_Normal.dds"
        },
        {
            "uri": "Textures\\MASTER_Room_Interior_Specular.dds"
        }
    ],
    "materials": [
        {
            "name": "MASTER_Room_Interior",
            "pbrMetallicRoughness": {
                "baseColorTexture": {
                    "index": 0
                },
                "metallicFactor": 0.0,
                "roughnessFactor": 0.5527864098548889
            },
            "normalTexture": {
                "index": 1
            },
            "extensions": {
                "KHR_materials_specular": {
                    "specularFactor": 1.0,
                    "specularColorFactor": [
                        0.5,
                        0.5,
                        0.5
                    ],
                    "specularTexture": {
                        "index": 2
                    }
                }
            }
        }
    ],
    "meshes": [
        {
            "name": "Bistro_Research_Exterior_paris_building_09_5461",
            "primitives": [
                {
                    "mode": 4,
                    "material": 0,
                    "indices": 5,
                    "attributes": {
                        "POSITION": 0,
                        "NORMAL": 1,
                        "TANGENT": 2,
                        "TEXCOORD_0": 3,
                        "TEXCOORD_1": 4
                    }
                }
            ]
        }
    ],
    "nodes": [
        {
            "name": "Bistro_Research_Exterior_paris_building_09_5461",
            "mesh": 0
        }
    ],
    "samplers": [
        {},
        {},
        {}
    ],
    "scenes": [
        {
            "nodes": [
                0
            ]
        }
    ],
    "textures": [
        {
            "source": 0,
            "sampler": 0
        },
        {
            "source": 1,
            "sampler": 1
        },
        {
            "source": 2,
            "sampler": 2
        }
    ],
    "scene": 0
}