{
    "asset": {
        "version": "2.0",
        "generator": "Open Asset Import Library (assimp v6.0.44188438)"
    },
    "extensionsUsed": [
        "KHR_materials_specular",
        "KHR_materials_volume",
        "FB_ngon_encoding"
    ],
    "accessors": [
        {
            "bufferView": 0,
            "byteOffset": 0,
            "componentType": 5126,
            "count": 2036,
            "type": "VEC3",
            "max": [
                6952.9345703125,
                -1861.0928955078125,
                1627.4456787109375
            ],
            "min": [
                2.2250738585072014e-308,
                -4377.068359375,
                2.2250738585072014e-308
            ]
        },
        {
            "bufferView": 1,
            "byteOffset": 0,
            "componentType": 5126,
            "count": 2036,
            "type": "VEC3",
            "max": [
                0.325625479221344,
                0.9454907178878784,
                0.999984622001648
            ],
            "min": [
                -0.9430553317070007,
                -0.9421797394752502,
                -0.999984622001648
            ]
        },
        {
            "bufferView": 2,
            "byteOffset": 0,
            "componentType": 5126,
            "count": 2036,
            "type": "VEC3",
            "max": [
                0.945842981338501,
                0.9802179932594299,
                0.9999916553497314
            ],
            "min": [
                -0.9454988837242126,
                -0.9938031435012817,
                -0.9999924302101135
            ]
        },
        {
            "bufferView": 3,
            "byteOffset": 0,
            "componentType": 5126,
            "count": 2036,
            "type": "VEC2",
            "max": [
                4.37109375,
                2.484375
            ],
            "min": [
                -4.6796875,
                -1.376953125
            ]
        },
        {
            "bufferView": 4,
            "byteOffset": 0,
            "componentType": 5126,
            "count": 2036,
            "type": "VEC2",
            "max": [
                0.98974609375,
                0.9921875
            ],
            "min": [
                2.2250738585072014e-308,
                2.2250738585072014e-308
            ]
        },
        {
            "bufferView": 5,
            "byteOffset": 0,
            "componentType": 5125,
            "count": 8400,
            "type": "SCALAR",
            "max": [
                2035
            ],
            "min": [
                0
            ]
        }
    ],
    "buffers": [
        {
            "byteLength": 139472,
            "uri": "Bistro_Research_Exterior_paris_building_07_6__5359.bin"
        }
    ],
    "bufferViews": [
        {
            "buffer": 0,
            "byteOffset": 0,
            "byteLength": 24432,
            "target": 34962
        },
        {
            "buffer": 0,
            "byteOffset": 24432,
            "byteLength": 24432,
            "target": 34962
        },
        {
            "buffer": 0,
            "byteOffset": 48864,
            "byteLength": 24432,
            "target": 34962
        },
        {
            "buffer": 0,
            "byteOffset": 73296,
            "byteLength": 16288,
            "target": 34962
        },
        {
            "buffer": 0,
            "byteOffset": 89584,
            "byteLength": 16288,
            "target": 34962
        },
        {
            "buffer": 0,
            "byteOffset": 105872,
            "byteLength": 33600,
            "target": 34963
        }
    ],
    "images": [
        {
            "uri": "Textures\\MASTER_Brick_Large_Beige_BLENDSHADER_BaseColor.dds"
        },
        {
            "uri": "Textures\\MASTER_Brick_Large_Beige_BLENDSHADER_Normal.dds"
        },
        {
            "uri": "Textures\\MASTER_Brick_Large_Beige_BLENDSHADER_Specular.dds"
        }
    ],
    "materials": [
        {
            "name": "MASTER_Brick_Large_Beige_BLENDSHADER",
            "pbrMetallicRoughness": {
                "baseColorTexture": {
                    "index": 0
                },
                "metallicFactor": 0.0,
                "roughnessFactor": 0.5527864098548889
            },
            "normalTexture": {
                "index": 1
            },
            "extensions": {
                "KHR_materials_specular": {
                    "specularFactor": 1.0,
                    "specularColorFactor": [
                        0.5,
                        0.5,
                        0.5
                    ],
                    "specularTexture": {
                        "index": 2
                    }
                }
            }
        }
    ],
    "meshes": [
        {
            "name": "Bistro_Research_Exterior_paris_building_07_6__5359",
            "primitives": [
                {
                    "mode": 4,
                    "material": 0,
                    "indices": 5,
                    "attributes": {
                        "POSITION": 0,
                        "NORMAL": 1,
                        "TANGENT": 2,
                        "TEXCOORD_0": 3,
                        "TEXCOORD_1": 4
                    }
                }
            ]
        }
    ],
    "nodes": [
        {
            "name": "Bistro_Research_Exterior_paris_building_07_6__5359",
            "mesh": 0
        }
    ],
    "samplers": [
        {},
        {},
        {}
    ],
    "scenes": [
        {
            "nodes": [
                0
            ]
        }
    ],
    "textures": [
        {
            "source": 0,
            "sampler": 0
        },
        {
            "source": 1,
            "sampler": 1
        },
        {
            "source": 2,
            "sampler": 2
        }
    ],
    "scene": 0
}