{
    "asset": {
        "version": "2.0",
        "generator": "Open Asset Import Library (assimp v6.0.44188438)"
    },
    "extensionsUsed": [
        "KHR_materials_specular",
        "KHR_materials_volume",
        "FB_ngon_encoding"
    ],
    "accessors": [
        {
            "bufferView": 0,
            "byteOffset": 0,
            "componentType": 5126,
            "count": 501,
            "type": "VEC3",
            "max": [
                241.6302032470703,
                502.869140625,
                952.8529663085938
            ],
            "min": [
                -136.96067810058594,
                -207.94664001464844,
                2.2250738585072014e-308
            ]
        },
        {
            "bufferView": 1,
            "byteOffset": 0,
            "componentType": 5126,
            "count": 501,
            "type": "VEC3",
            "max": [
                0.9298275709152222,
                0.8982752561569214,
                0.9999843835830688
            ],
            "min": [
                -0.9486760497093201,
                -0.9689702987670898,
                -0.999984622001648
            ]
        },
        {
            "bufferView": 2,
            "byteOffset": 0,
            "componentType": 5126,
            "count": 501,
            "type": "VEC3",
            "max": [
                0.9331762790679932,
                0.9632668495178223,
                0.9999924898147583
            ],
            "min": [
                -0.9767524003982544,
                -0.9572948813438416,
                -0.9977909326553345
            ]
        },
        {
            "bufferView": 3,
            "byteOffset": 0,
            "componentType": 5126,
            "count": 501,
            "type": "VEC2",
            "max": [
                1.8837890625,
                2.2421875
            ],
            "min": [
                2.2250738585072014e-308,
                2.2250738585072014e-308
            ]
        },
        {
            "bufferView": 4,
            "byteOffset": 0,
            "componentType": 5126,
            "count": 501,
            "type": "VEC2",
            "max": [
                0.9912109375,
                0.9921875
            ],
            "min": [
                2.2250738585072014e-308,
                2.2250738585072014e-308
            ]
        },
        {
            "bufferView": 5,
            "byteOffset": 0,
            "componentType": 5125,
            "count": 1179,
            "type": "SCALAR",
            "max": [
                500
            ],
            "min": [
                0
            ]
        }
    ],
    "buffers": [
        {
            "byteLength": 30768,
            "uri": "Bistro_Research_Exterior_Paris_Building_01_paris_building_01_4395.bin"
        }
    ],
    "bufferViews": [
        {
            "buffer": 0,
            "byteOffset": 0,
            "byteLength": 6012,
            "target": 34962
        },
        {
            "buffer": 0,
            "byteOffset": 6012,
            "byteLength": 6012,
            "target": 34962
        },
        {
            "buffer": 0,
            "byteOffset": 12024,
            "byteLength": 6012,
            "target": 34962
        },
        {
            "buffer": 0,
            "byteOffset": 18036,
            "byteLength": 4008,
            "target": 34962
        },
        {
            "buffer": 0,
            "byteOffset": 22044,
            "byteLength": 4008,
            "target": 34962
        },
        {
            "buffer": 0,
            "byteOffset": 26052,
            "byteLength": 4716,
            "target": 34963
        }
    ],
    "images": [
        {
            "uri": "Textures\\MASTER_Concrete_Plaster1_BLENDSHADER_BaseColor.dds"
        },
        {
            "uri": "Textures\\MASTER_Concrete_Plaster1_BLENDSHADER_Normal.dds"
        },
        {
            "uri": "Textures\\MASTER_Concrete_Plaster1_BLENDSHADER_Specular.dds"
        }
    ],
    "materials": [
        {
            "name": "MASTER_Concrete_Plaster1_BLENDSHADER",
            "pbrMetallicRoughness": {
                "baseColorTexture": {
                    "index": 0
                },
                "metallicFactor": 0.0,
                "roughnessFactor": 0.5527864098548889
            },
            "normalTexture": {
                "index": 1
            },
            "extensions": {
                "KHR_materials_specular": {
                    "specularFactor": 1.0,
                    "specularColorFactor": [
                        0.5,
                        0.5,
                        0.5
                    ],
                    "specularTexture": {
                        "index": 2
                    }
                }
            }
        }
    ],
    "meshes": [
        {
            "name": "Bistro_Research_Exterior_Paris_Building_01_paris_building_01_4395",
            "primitives": [
                {
                    "mode": 4,
                    "material": 0,
                    "indices": 5,
                    "attributes": {
                        "POSITION": 0,
                        "NORMAL": 1,
                        "TANGENT": 2,
                        "TEXCOORD_0": 3,
                        "TEXCOORD_1": 4
                    }
                }
            ]
        }
    ],
    "nodes": [
        {
            "name": "Bistro_Research_Exterior_Paris_Building_01_paris_building_01_4395",
            "mesh": 0
        }
    ],
    "samplers": [
        {},
        {},
        {}
    ],
    "scenes": [
        {
            "nodes": [
                0
            ]
        }
    ],
    "textures": [
        {
            "source": 0,
            "sampler": 0
        },
        {
            "source": 1,
            "sampler": 1
        },
        {
            "source": 2,
            "sampler": 2
        }
    ],
    "scene": 0
}