{
    "asset": {
        "version": "2.0",
        "generator": "Open Asset Import Library (assimp v6.0.44188438)"
    },
    "extensionsUsed": [
        "KHR_materials_specular",
        "KHR_materials_volume",
        "FB_ngon_encoding"
    ],
    "accessors": [
        {
            "bufferView": 0,
            "byteOffset": 0,
            "componentType": 5126,
            "count": 328,
            "type": "VEC3",
            "max": [
                1868.010986328125,
                4652.79541015625,
                954.7428588867188
            ],
            "min": [
                2.2250738585072014e-308,
                2.2250738585072014e-308,
                2.2250738585072014e-308
            ]
        },
        {
            "bufferView": 1,
            "byteOffset": 0,
            "componentType": 5126,
            "count": 328,
            "type": "VEC3",
            "max": [
                0.9764556884765625,
                0.797653317451477,
                0.999984622001648
            ],
            "min": [
                -0.9784181118011475,
                -0.985633373260498,
                -0.999984622001648
            ]
        },
        {
            "bufferView": 2,
            "byteOffset": 0,
            "componentType": 5126,
            "count": 328,
            "type": "VEC3",
            "max": [
                0.8074522018432617,
                0.9824008941650391,
                0.999992311000824
            ],
            "min": [
                -0.7616298198699951,
                -0.9849461913108826,
                -0.9999924898147583
            ]
        },
        {
            "bufferView": 3,
            "byteOffset": 0,
            "componentType": 5126,
            "count": 328,
            "type": "VEC2",
            "max": [
                0.69580078125,
                0.798828125
            ],
            "min": [
                2.2250738585072014e-308,
                2.2250738585072014e-308
            ]
        },
        {
            "bufferView": 4,
            "byteOffset": 0,
            "componentType": 5126,
            "count": 328,
            "type": "VEC2",
            "max": [
                0.990234375,
                0.9921875
            ],
            "min": [
                2.2250738585072014e-308,
                2.2250738585072014e-308
            ]
        },
        {
            "bufferView": 5,
            "byteOffset": 0,
            "componentType": 5125,
            "count": 1020,
            "type": "SCALAR",
            "max": [
                327
            ],
            "min": [
                0
            ]
        }
    ],
    "buffers": [
        {
            "byteLength": 21136,
            "uri": "Bistro_Research_Exterior_Paris_Building_08_paris_building_08_9__5429.bin"
        }
    ],
    "bufferViews": [
        {
            "buffer": 0,
            "byteOffset": 0,
            "byteLength": 3936,
            "target": 34962
        },
        {
            "buffer": 0,
            "byteOffset": 3936,
            "byteLength": 3936,
            "target": 34962
        },
        {
            "buffer": 0,
            "byteOffset": 7872,
            "byteLength": 3936,
            "target": 34962
        },
        {
            "buffer": 0,
            "byteOffset": 11808,
            "byteLength": 2624,
            "target": 34962
        },
        {
            "buffer": 0,
            "byteOffset": 14432,
            "byteLength": 2624,
            "target": 34962
        },
        {
            "buffer": 0,
            "byteOffset": 17056,
            "byteLength": 4080,
            "target": 34963
        }
    ],
    "images": [
        {
            "uri": "Textures\\MASTER_Awning_Fabric_Cyan_BaseColor.dds"
        },
        {
            "uri": "Textures\\MASTER_Awning_Fabric_Cyan_Normal.dds"
        },
        {
            "uri": "Textures\\MASTER_Awning_Fabric_Cyan_Specular.dds"
        }
    ],
    "materials": [
        {
            "name": "MASTER_Awning_Fabric_Cyan",
            "pbrMetallicRoughness": {
                "baseColorTexture": {
                    "index": 0
                },
                "metallicFactor": 0.0,
                "roughnessFactor": 0.5527864098548889
            },
            "normalTexture": {
                "index": 1
            },
            "extensions": {
                "KHR_materials_specular": {
                    "specularFactor": 1.0,
                    "specularColorFactor": [
                        0.5,
                        0.5,
                        0.5
                    ],
                    "specularTexture": {
                        "index": 2
                    }
                }
            }
        }
    ],
    "meshes": [
        {
            "name": "Bistro_Research_Exterior_Paris_Building_08_paris_building_08_9__5429",
            "primitives": [
                {
                    "mode": 4,
                    "material": 0,
                    "indices": 5,
                    "attributes": {
                        "POSITION": 0,
                        "NORMAL": 1,
                        "TANGENT": 2,
                        "TEXCOORD_0": 3,
                        "TEXCOORD_1": 4
                    }
                }
            ]
        }
    ],
    "nodes": [
        {
            "name": "Bistro_Research_Exterior_Paris_Building_08_paris_building_08_9__5429",
            "mesh": 0
        }
    ],
    "samplers": [
        {},
        {},
        {}
    ],
    "scenes": [
        {
            "nodes": [
                0
            ]
        }
    ],
    "textures": [
        {
            "source": 0,
            "sampler": 0
        },
        {
            "source": 1,
            "sampler": 1
        },
        {
            "source": 2,
            "sampler": 2
        }
    ],
    "scene": 0
}