{
    "asset": {
        "version": "2.0",
        "generator": "Open Asset Import Library (assimp v6.0.44188438)"
    },
    "extensionsUsed": [
        "KHR_materials_specular",
        "KHR_materials_volume",
        "FB_ngon_encoding"
    ],
    "accessors": [
        {
            "bufferView": 0,
            "byteOffset": 0,
            "componentType": 5126,
            "count": 176,
            "type": "VEC3",
            "max": [
                -95.966064453125,
                436.5780944824219,
                418.8046569824219
            ],
            "min": [
                -118.95056915283203,
                2.2250738585072014e-308,
                2.2250738585072014e-308
            ]
        },
        {
            "bufferView": 1,
            "byteOffset": 0,
            "componentType": 5126,
            "count": 176,
            "type": "VEC3",
            "max": [
                0.8789410591125488,
                0.8807156085968018,
                0.999984622001648
            ],
            "min": [
                -0.87744140625,
                -0.8756282329559326,
                -0.999984622001648
            ]
        },
        {
            "bufferView": 2,
            "byteOffset": 0,
            "componentType": 5126,
            "count": 176,
            "type": "VEC3",
            "max": [
                0.8807243704795837,
                0.8817275166511536,
                0.9999924302101135
            ],
            "min": [
                -0.47967153787612915,
                -0.8817219138145447,
                -0.9999923706054688
            ]
        },
        {
            "bufferView": 3,
            "byteOffset": 0,
            "componentType": 5126,
            "count": 176,
            "type": "VEC2",
            "max": [
                0.99560546875,
                0.89434814453125
            ],
            "min": [
                2.2250738585072014e-308,
                2.2250738585072014e-308
            ]
        },
        {
            "bufferView": 4,
            "byteOffset": 0,
            "componentType": 5126,
            "count": 176,
            "type": "VEC2",
            "max": [
                0.9892578125,
                0.9921875
            ],
            "min": [
                2.2250738585072014e-308,
                2.2250738585072014e-308
            ]
        },
        {
            "bufferView": 5,
            "byteOffset": 0,
            "componentType": 5125,
            "count": 384,
            "type": "SCALAR",
            "max": [
                175
            ],
            "min": [
                0
            ]
        }
    ],
    "buffers": [
        {
            "byteLength": 10688,
            "uri": "Bistro_Research_Exterior_Paris_Building_01_paris_building_01_bottom_4639.bin"
        }
    ],
    "bufferViews": [
        {
            "buffer": 0,
            "byteOffset": 0,
            "byteLength": 2112,
            "target": 34962
        },
        {
            "buffer": 0,
            "byteOffset": 2112,
            "byteLength": 2112,
            "target": 34962
        },
        {
            "buffer": 0,
            "byteOffset": 4224,
            "byteLength": 2112,
            "target": 34962
        },
        {
            "buffer": 0,
            "byteOffset": 6336,
            "byteLength": 1408,
            "target": 34962
        },
        {
            "buffer": 0,
            "byteOffset": 7744,
            "byteLength": 1408,
            "target": 34962
        },
        {
            "buffer": 0,
            "byteOffset": 9152,
            "byteLength": 1536,
            "target": 34963
        }
    ],
    "images": [
        {
            "uri": "Textures\\MASTER_Focus_BaseColor.dds"
        },
        {
            "uri": "Textures\\MASTER_Focus_Normal.dds"
        },
        {
            "uri": "Textures\\MASTER_Focus_Specular.dds"
        }
    ],
    "materials": [
        {
            "name": "MASTER_Focus",
            "pbrMetallicRoughness": {
                "baseColorTexture": {
                    "index": 0
                },
                "metallicFactor": 0.0,
                "roughnessFactor": 0.5527864098548889
            },
            "normalTexture": {
                "index": 1
            },
            "extensions": {
                "KHR_materials_specular": {
                    "specularFactor": 1.0,
                    "specularColorFactor": [
                        0.5,
                        0.5,
                        0.5
                    ],
                    "specularTexture": {
                        "index": 2
                    }
                }
            }
        }
    ],
    "meshes": [
        {
            "name": "Bistro_Research_Exterior_Paris_Building_01_paris_building_01_bottom_4639",
            "primitives": [
                {
                    "mode": 4,
                    "material": 0,
                    "indices": 5,
                    "attributes": {
                        "POSITION": 0,
                        "NORMAL": 1,
                        "TANGENT": 2,
                        "TEXCOORD_0": 3,
                        "TEXCOORD_1": 4
                    }
                }
            ]
        }
    ],
    "nodes": [
        {
            "name": "Bistro_Research_Exterior_Paris_Building_01_paris_building_01_bottom_4639",
            "mesh": 0
        }
    ],
    "samplers": [
        {},
        {},
        {}
    ],
    "scenes": [
        {
            "nodes": [
                0
            ]
        }
    ],
    "textures": [
        {
            "source": 0,
            "sampler": 0
        },
        {
            "source": 1,
            "sampler": 1
        },
        {
            "source": 2,
            "sampler": 2
        }
    ],
    "scene": 0
}