{
    "asset": {
        "version": "2.0",
        "generator": "Open Asset Import Library (assimp v6.0.44188438)"
    },
    "extensionsUsed": [
        "KHR_materials_specular",
        "KHR_materials_volume",
        "FB_ngon_encoding"
    ],
    "accessors": [
        {
            "bufferView": 0,
            "byteOffset": 0,
            "componentType": 5126,
            "count": 80,
            "type": "VEC3",
            "max": [
                3451.049560546875,
                -982.5432739257813,
                1555.1607666015625
            ],
            "min": [
                2.2250738585072014e-308,
                -1465.378173828125,
                2.2250738585072014e-308
            ]
        },
        {
            "bufferView": 1,
            "byteOffset": 0,
            "componentType": 5126,
            "count": 80,
            "type": "VEC3",
            "max": [
                -0.3815379738807678,
                -0.9243447780609131,
                -0.003933321684598923
            ],
            "min": [
                -0.3815379738807678,
                -0.9243447780609131,
                -0.003933321684598923
            ]
        },
        {
            "bufferView": 2,
            "byteOffset": 0,
            "componentType": 5126,
            "count": 80,
            "type": "VEC3",
            "max": [
                0.9243520498275757,
                -0.38154077529907227,
                -0.00003357288733241148
            ],
            "min": [
                2.2250738585072014e-308,
                -0.3815408945083618,
                -0.000033587944926694036
            ]
        },
        {
            "bufferView": 3,
            "byteOffset": 0,
            "componentType": 5126,
            "count": 80,
            "type": "VEC2",
            "max": [
                0.57861328125,
                0.989898681640625
            ],
            "min": [
                2.2250738585072014e-308,
                2.2250738585072014e-308
            ]
        },
        {
            "bufferView": 4,
            "byteOffset": 0,
            "componentType": 5126,
            "count": 80,
            "type": "VEC2",
            "max": [
                0.96923828125,
                0.9921875
            ],
            "min": [
                2.2250738585072014e-308,
                2.2250738585072014e-308
            ]
        },
        {
            "bufferView": 5,
            "byteOffset": 0,
            "componentType": 5125,
            "count": 120,
            "type": "SCALAR",
            "max": [
                79
            ],
            "min": [
                0
            ]
        }
    ],
    "buffers": [
        {
            "byteLength": 4640,
            "uri": "Bistro_Research_Exterior_paris_building_05_54__5267.bin"
        }
    ],
    "bufferViews": [
        {
            "buffer": 0,
            "byteOffset": 0,
            "byteLength": 960,
            "target": 34962
        },
        {
            "buffer": 0,
            "byteOffset": 960,
            "byteLength": 960,
            "target": 34962
        },
        {
            "buffer": 0,
            "byteOffset": 1920,
            "byteLength": 960,
            "target": 34962
        },
        {
            "buffer": 0,
            "byteOffset": 2880,
            "byteLength": 640,
            "target": 34962
        },
        {
            "buffer": 0,
            "byteOffset": 3520,
            "byteLength": 640,
            "target": 34962
        },
        {
            "buffer": 0,
            "byteOffset": 4160,
            "byteLength": 480,
            "target": 34963
        }
    ],
    "images": [
        {
            "uri": "Textures\\MASTER_Forge_Metal_BaseColor.dds"
        },
        {
            "uri": "Textures\\MASTER_Forge_Metal_Normal.dds"
        },
        {
            "uri": "Textures\\MASTER_Forge_Metal_Specular.dds"
        }
    ],
    "materials": [
        {
            "name": "MASTER_Forge_Metal",
            "pbrMetallicRoughness": {
                "baseColorTexture": {
                    "index": 0
                },
                "metallicFactor": 0.0,
                "roughnessFactor": 0.5527864098548889
            },
            "normalTexture": {
                "index": 1
            },
            "extensions": {
                "KHR_materials_specular": {
                    "specularFactor": 1.0,
                    "specularColorFactor": [
                        0.5,
                        0.5,
                        0.5
                    ],
                    "specularTexture": {
                        "index": 2
                    }
                }
            }
        }
    ],
    "meshes": [
        {
            "name": "Bistro_Research_Exterior_paris_building_05_54__5267",
            "primitives": [
                {
                    "mode": 4,
                    "material": 0,
                    "indices": 5,
                    "attributes": {
                        "POSITION": 0,
                        "NORMAL": 1,
                        "TANGENT": 2,
                        "TEXCOORD_0": 3,
                        "TEXCOORD_1": 4
                    }
                }
            ]
        }
    ],
    "nodes": [
        {
            "name": "Bistro_Research_Exterior_paris_building_05_54__5267",
            "mesh": 0
        }
    ],
    "samplers": [
        {},
        {},
        {}
    ],
    "scenes": [
        {
            "nodes": [
                0
            ]
        }
    ],
    "textures": [
        {
            "source": 0,
            "sampler": 0
        },
        {
            "source": 1,
            "sampler": 1
        },
        {
            "source": 2,
            "sampler": 2
        }
    ],
    "scene": 0
}