{
    "asset": {
        "version": "2.0",
        "generator": "Open Asset Import Library (assimp v6.0.44188438)"
    },
    "extensionsUsed": [
        "KHR_materials_specular",
        "KHR_materials_volume",
        "FB_ngon_encoding"
    ],
    "accessors": [
        {
            "bufferView": 0,
            "byteOffset": 0,
            "componentType": 5126,
            "count": 2016,
            "type": "VEC3",
            "max": [
                -9.347685813903809,
                217.21084594726563,
                355.5599365234375
            ],
            "min": [
                -129.66668701171875,
                -19.15660858154297,
                2.2250738585072014e-308
            ]
        },
        {
            "bufferView": 1,
            "byteOffset": 0,
            "componentType": 5126,
            "count": 2016,
            "type": "VEC3",
            "max": [
                0.9999219179153442,
                0.9721594452857971,
                0.9999843835830688
            ],
            "min": [
                -0.43310827016830444,
                -0.9059737920761108,
                -0.999984622001648
            ]
        },
        {
            "bufferView": 2,
            "byteOffset": 0,
            "componentType": 5126,
            "count": 2016,
            "type": "VEC3",
            "max": [
                0.972936749458313,
                0.9684814214706421,
                0.999992311000824
            ],
            "min": [
                -0.9443273544311523,
                -0.9999135732650757,
                -0.008466238155961037
            ]
        },
        {
            "bufferView": 3,
            "byteOffset": 0,
            "componentType": 5126,
            "count": 2016,
            "type": "VEC2",
            "max": [
                1.0,
                1.0
            ],
            "min": [
                0.0,
                0.0
            ]
        },
        {
            "bufferView": 4,
            "byteOffset": 0,
            "componentType": 5126,
            "count": 2016,
            "type": "VEC2",
            "max": [
                0.9921875,
                0.9921875
            ],
            "min": [
                2.2250738585072014e-308,
                2.2250738585072014e-308
            ]
        },
        {
            "bufferView": 5,
            "byteOffset": 0,
            "componentType": 5125,
            "count": 11532,
            "type": "SCALAR",
            "max": [
                2015
            ],
            "min": [
                0
            ]
        }
    ],
    "buffers": [
        {
            "byteLength": 150960,
            "uri": "Bistro_Research_Exterior_Paris_Building_01_paris_building_01_bottom_4829.bin"
        }
    ],
    "bufferViews": [
        {
            "buffer": 0,
            "byteOffset": 0,
            "byteLength": 24192,
            "target": 34962
        },
        {
            "buffer": 0,
            "byteOffset": 24192,
            "byteLength": 24192,
            "target": 34962
        },
        {
            "buffer": 0,
            "byteOffset": 48384,
            "byteLength": 24192,
            "target": 34962
        },
        {
            "buffer": 0,
            "byteOffset": 72576,
            "byteLength": 16128,
            "target": 34962
        },
        {
            "buffer": 0,
            "byteOffset": 88704,
            "byteLength": 16128,
            "target": 34962
        },
        {
            "buffer": 0,
            "byteOffset": 104832,
            "byteLength": 46128,
            "target": 34963
        }
    ],
    "images": [
        {
            "uri": "Textures\\MASTER_Wood_Painted3_BaseColor.dds"
        },
        {
            "uri": "Textures\\MASTER_Wood_Painted3_Normal.dds"
        },
        {
            "uri": "Textures\\MASTER_Wood_Painted3_Specular.dds"
        }
    ],
    "materials": [
        {
            "name": "MASTER_Wood_Painted3",
            "pbrMetallicRoughness": {
                "baseColorTexture": {
                    "index": 0
                },
                "metallicFactor": 0.0,
                "roughnessFactor": 0.5527864098548889
            },
            "normalTexture": {
                "index": 1
            },
            "extensions": {
                "KHR_materials_specular": {
                    "specularFactor": 1.0,
                    "specularColorFactor": [
                        0.5,
                        0.5,
                        0.5
                    ],
                    "specularTexture": {
                        "index": 2
                    }
                }
            }
        }
    ],
    "meshes": [
        {
            "name": "Bistro_Research_Exterior_Paris_Building_01_paris_building_01_bottom_4829",
            "primitives": [
                {
                    "mode": 4,
                    "material": 0,
                    "indices": 5,
                    "attributes": {
                        "POSITION": 0,
                        "NORMAL": 1,
                        "TANGENT": 2,
                        "TEXCOORD_0": 3,
                        "TEXCOORD_1": 4
                    }
                }
            ]
        }
    ],
    "nodes": [
        {
            "name": "Bistro_Research_Exterior_Paris_Building_01_paris_building_01_bottom_4829",
            "mesh": 0
        }
    ],
    "samplers": [
        {},
        {},
        {}
    ],
    "scenes": [
        {
            "nodes": [
                0
            ]
        }
    ],
    "textures": [
        {
            "source": 0,
            "sampler": 0
        },
        {
            "source": 1,
            "sampler": 1
        },
        {
            "source": 2,
            "sampler": 2
        }
    ],
    "scene": 0
}