{
    "asset": {
        "version": "2.0",
        "generator": "Open Asset Import Library (assimp v6.0.44188438)"
    },
    "extensionsUsed": [
        "KHR_materials_specular",
        "KHR_materials_volume",
        "FB_ngon_encoding"
    ],
    "accessors": [
        {
            "bufferView": 0,
            "byteOffset": 0,
            "componentType": 5126,
            "count": 3245,
            "type": "VEC3",
            "max": [
                -38.63792419433594,
                211.264404296875,
                341.26580810546875
            ],
            "min": [
                -335.1457214355469,
                -128.31370544433594,
                2.2250738585072014e-308
            ]
        },
        {
            "bufferView": 1,
            "byteOffset": 0,
            "componentType": 5126,
            "count": 3245,
            "type": "VEC3",
            "max": [
                0.9971842169761658,
                0.995949387550354,
                0.999984622001648
            ],
            "min": [
                -0.9990631937980652,
                -0.9951457381248474,
                -0.999984622001648
            ]
        },
        {
            "bufferView": 2,
            "byteOffset": 0,
            "componentType": 5126,
            "count": 3245,
            "type": "VEC3",
            "max": [
                0.9951534271240234,
                0.9971920251846313,
                0.9999924898147583
            ],
            "min": [
                -0.9952285289764404,
                -0.999070942401886,
                -0.9999924898147583
            ]
        },
        {
            "bufferView": 3,
            "byteOffset": 0,
            "componentType": 5126,
            "count": 3245,
            "type": "VEC2",
            "max": [
                1.2958984375,
                0.9970684051513672
            ],
            "min": [
                -0.059967041015625,
                2.2250738585072014e-308
            ]
        },
        {
            "bufferView": 4,
            "byteOffset": 0,
            "componentType": 5126,
            "count": 3245,
            "type": "VEC2",
            "max": [
                0.99072265625,
                0.9921875
            ],
            "min": [
                2.2250738585072014e-308,
                2.2250738585072014e-308
            ]
        },
        {
            "bufferView": 5,
            "byteOffset": 0,
            "componentType": 5125,
            "count": 8904,
            "type": "SCALAR",
            "max": [
                3244
            ],
            "min": [
                0
            ]
        }
    ],
    "buffers": [
        {
            "byteLength": 204356,
            "uri": "Bistro_Research_Exterior_paris_Bistroawning_4095_0.bin"
        }
    ],
    "bufferViews": [
        {
            "buffer": 0,
            "byteOffset": 0,
            "byteLength": 38940,
            "target": 34962
        },
        {
            "buffer": 0,
            "byteOffset": 38940,
            "byteLength": 38940,
            "target": 34962
        },
        {
            "buffer": 0,
            "byteOffset": 77880,
            "byteLength": 38940,
            "target": 34962
        },
        {
            "buffer": 0,
            "byteOffset": 116820,
            "byteLength": 25960,
            "target": 34962
        },
        {
            "buffer": 0,
            "byteOffset": 142780,
            "byteLength": 25960,
            "target": 34962
        },
        {
            "buffer": 0,
            "byteOffset": 168740,
            "byteLength": 35616,
            "target": 34963
        }
    ],
    "images": [
        {
            "uri": "Textures\\Awnings_Beams_BaseColor.dds"
        },
        {
            "uri": "Textures\\Awnings_Beams_Normal.dds"
        },
        {
            "uri": "Textures\\Awnings_Beams_Specular.dds"
        }
    ],
    "materials": [
        {
            "name": "Awnings_Beams",
            "pbrMetallicRoughness": {
                "baseColorTexture": {
                    "index": 0
                },
                "metallicFactor": 0.0,
                "roughnessFactor": 0.5527864098548889
            },
            "normalTexture": {
                "index": 1
            },
            "extensions": {
                "KHR_materials_specular": {
                    "specularFactor": 1.0,
                    "specularColorFactor": [
                        0.5,
                        0.5,
                        0.5
                    ],
                    "specularTexture": {
                        "index": 2
                    }
                }
            }
        }
    ],
    "meshes": [
        {
            "name": "Bistro_Research_Exterior_paris_Bistroawning_4095",
            "primitives": [
                {
                    "mode": 4,
                    "material": 0,
                    "indices": 5,
                    "attributes": {
                        "POSITION": 0,
                        "NORMAL": 1,
                        "TANGENT": 2,
                        "TEXCOORD_0": 3,
                        "TEXCOORD_1": 4
                    }
                }
            ]
        }
    ],
    "nodes": [
        {
            "name": "Bistro_Research_Exterior_paris_Bistroawning_4095",
            "mesh": 0
        }
    ],
    "samplers": [
        {},
        {},
        {}
    ],
    "scenes": [
        {
            "nodes": [
                0
            ]
        }
    ],
    "textures": [
        {
            "source": 0,
            "sampler": 0
        },
        {
            "source": 1,
            "sampler": 1
        },
        {
            "source": 2,
            "sampler": 2
        }
    ],
    "scene": 0
}