{
    "asset": {
        "version": "2.0",
        "generator": "Open Asset Import Library (assimp v6.0.44188438)"
    },
    "extensionsUsed": [
        "KHR_materials_specular",
        "KHR_materials_volume",
        "FB_ngon_encoding"
    ],
    "accessors": [
        {
            "bufferView": 0,
            "byteOffset": 0,
            "componentType": 5126,
            "count": 2792,
            "type": "VEC3",
            "max": [
                919.8048706054688,
                1824.77734375,
                419.4152526855469
            ],
            "min": [
                2.2250738585072014e-308,
                2.2250738585072014e-308,
                2.2250738585072014e-308
            ]
        },
        {
            "bufferView": 1,
            "byteOffset": 0,
            "componentType": 5126,
            "count": 2792,
            "type": "VEC3",
            "max": [
                0.9743835926055908,
                0.999984622001648,
                0.999984622001648
            ],
            "min": [
                -0.994433581829071,
                -0.9997345209121704,
                -0.999984622001648
            ]
        },
        {
            "bufferView": 2,
            "byteOffset": 0,
            "componentType": 5126,
            "count": 2792,
            "type": "VEC3",
            "max": [
                0.9957751035690308,
                0.9682860374450684,
                0.9448176622390747
            ],
            "min": [
                -0.9998956918716431,
                -0.9977895617485046,
                -0.9182958006858826
            ]
        },
        {
            "bufferView": 3,
            "byteOffset": 0,
            "componentType": 5126,
            "count": 2792,
            "type": "VEC2",
            "max": [
                1.0,
                1.297119140625
            ],
            "min": [
                0.0,
                -0.5322265625
            ]
        },
        {
            "bufferView": 4,
            "byteOffset": 0,
            "componentType": 5126,
            "count": 2792,
            "type": "VEC2",
            "max": [
                0.96484375,
                0.9921913146972656
            ],
            "min": [
                2.2250738585072014e-308,
                2.2250738585072014e-308
            ]
        },
        {
            "bufferView": 5,
            "byteOffset": 0,
            "componentType": 5125,
            "count": 14988,
            "type": "SCALAR",
            "max": [
                2791
            ],
            "min": [
                0
            ]
        }
    ],
    "buffers": [
        {
            "byteLength": 205136,
            "uri": "Bistro_Research_Exterior_paris_building_04_5017.bin"
        }
    ],
    "bufferViews": [
        {
            "buffer": 0,
            "byteOffset": 0,
            "byteLength": 33504,
            "target": 34962
        },
        {
            "buffer": 0,
            "byteOffset": 33504,
            "byteLength": 33504,
            "target": 34962
        },
        {
            "buffer": 0,
            "byteOffset": 67008,
            "byteLength": 33504,
            "target": 34962
        },
        {
            "buffer": 0,
            "byteOffset": 100512,
            "byteLength": 22336,
            "target": 34962
        },
        {
            "buffer": 0,
            "byteOffset": 122848,
            "byteLength": 22336,
            "target": 34962
        },
        {
            "buffer": 0,
            "byteOffset": 145184,
            "byteLength": 59952,
            "target": 34963
        }
    ],
    "images": [
        {
            "uri": "Textures\\MASTER_Awning_Fabric_Cyan_BaseColor.dds"
        },
        {
            "uri": "Textures\\MASTER_Awning_Fabric_Cyan_Normal.dds"
        },
        {
            "uri": "Textures\\MASTER_Awning_Fabric_Cyan_Specular.dds"
        }
    ],
    "materials": [
        {
            "name": "MASTER_Awning_Fabric_Cyan",
            "pbrMetallicRoughness": {
                "baseColorTexture": {
                    "index": 0
                },
                "metallicFactor": 0.0,
                "roughnessFactor": 0.5527864098548889
            },
            "normalTexture": {
                "index": 1
            },
            "extensions": {
                "KHR_materials_specular": {
                    "specularFactor": 1.0,
                    "specularColorFactor": [
                        0.5,
                        0.5,
                        0.5
                    ],
                    "specularTexture": {
                        "index": 2
                    }
                }
            }
        }
    ],
    "meshes": [
        {
            "name": "Bistro_Research_Exterior_paris_building_04_5017",
            "primitives": [
                {
                    "mode": 4,
                    "material": 0,
                    "indices": 5,
                    "attributes": {
                        "POSITION": 0,
                        "NORMAL": 1,
                        "TANGENT": 2,
                        "TEXCOORD_0": 3,
                        "TEXCOORD_1": 4
                    }
                }
            ]
        }
    ],
    "nodes": [
        {
            "name": "Bistro_Research_Exterior_paris_building_04_5017",
            "mesh": 0
        }
    ],
    "samplers": [
        {},
        {},
        {}
    ],
    "scenes": [
        {
            "nodes": [
                0
            ]
        }
    ],
    "textures": [
        {
            "source": 0,
            "sampler": 0
        },
        {
            "source": 1,
            "sampler": 1
        },
        {
            "source": 2,
            "sampler": 2
        }
    ],
    "scene": 0
}