{
    "asset": {
        "version": "2.0",
        "generator": "Open Asset Import Library (assimp v6.0.44188438)"
    },
    "extensionsUsed": [
        "KHR_materials_specular",
        "KHR_materials_volume",
        "FB_ngon_encoding"
    ],
    "accessors": [
        {
            "bufferView": 0,
            "byteOffset": 0,
            "componentType": 5126,
            "count": 100,
            "type": "VEC3",
            "max": [
                -16.821439743041992,
                203.57606506347656,
                39.503299713134766
            ],
            "min": [
                -201.2255401611328,
                -46.61336135864258,
                2.2250738585072014e-308
            ]
        },
        {
            "bufferView": 1,
            "byteOffset": 0,
            "componentType": 5126,
            "count": 100,
            "type": "VEC3",
            "max": [
                0.42331525683403015,
                0.9057786464691162,
                0.999984622001648
            ],
            "min": [
                -0.998327910900116,
                -0.9992353320121765,
                -0.00395615678280592
            ]
        },
        {
            "bufferView": 2,
            "byteOffset": 0,
            "componentType": 5126,
            "count": 100,
            "type": "VEC3",
            "max": [
                0.9996166229248047,
                0.7041094303131104,
                0.8105865716934204
            ],
            "min": [
                -0.9043229222297668,
                -0.9987017512321472,
                -0.9999924302101135
            ]
        },
        {
            "bufferView": 3,
            "byteOffset": 0,
            "componentType": 5126,
            "count": 100,
            "type": "VEC2",
            "max": [
                0.99267578125,
                0.952117919921875
            ],
            "min": [
                2.2250738585072014e-308,
                2.2250738585072014e-308
            ]
        },
        {
            "bufferView": 4,
            "byteOffset": 0,
            "componentType": 5126,
            "count": 100,
            "type": "VEC2",
            "max": [
                0.9921875,
                0.9921875
            ],
            "min": [
                2.2250738585072014e-308,
                2.2250738585072014e-308
            ]
        },
        {
            "bufferView": 5,
            "byteOffset": 0,
            "componentType": 5125,
            "count": 270,
            "type": "SCALAR",
            "max": [
                99
            ],
            "min": [
                0
            ]
        }
    ],
    "buffers": [
        {
            "byteLength": 6280,
            "uri": "Bistro_Research_Exterior_Paris_Building_01_paris_building_01_bottom_4821.bin"
        }
    ],
    "bufferViews": [
        {
            "buffer": 0,
            "byteOffset": 0,
            "byteLength": 1200,
            "target": 34962
        },
        {
            "buffer": 0,
            "byteOffset": 1200,
            "byteLength": 1200,
            "target": 34962
        },
        {
            "buffer": 0,
            "byteOffset": 2400,
            "byteLength": 1200,
            "target": 34962
        },
        {
            "buffer": 0,
            "byteOffset": 3600,
            "byteLength": 800,
            "target": 34962
        },
        {
            "buffer": 0,
            "byteOffset": 4400,
            "byteLength": 800,
            "target": 34962
        },
        {
            "buffer": 0,
            "byteOffset": 5200,
            "byteLength": 1080,
            "target": 34963
        }
    ],
    "images": [
        {
            "uri": "Textures\\MASTER_Concrete1_BaseColor.dds"
        },
        {
            "uri": "Textures\\MASTER_Concrete1_Normal.dds"
        },
        {
            "uri": "Textures\\MASTER_Concrete1_Specular.dds"
        }
    ],
    "materials": [
        {
            "name": "MASTER_Concrete1",
            "pbrMetallicRoughness": {
                "baseColorTexture": {
                    "index": 0
                },
                "metallicFactor": 0.0,
                "roughnessFactor": 0.5527864098548889
            },
            "normalTexture": {
                "index": 1
            },
            "extensions": {
                "KHR_materials_specular": {
                    "specularFactor": 1.0,
                    "specularColorFactor": [
                        0.5,
                        0.5,
                        0.5
                    ],
                    "specularTexture": {
                        "index": 2
                    }
                }
            }
        }
    ],
    "meshes": [
        {
            "name": "Bistro_Research_Exterior_Paris_Building_01_paris_building_01_bottom_4821",
            "primitives": [
                {
                    "mode": 4,
                    "material": 0,
                    "indices": 5,
                    "attributes": {
                        "POSITION": 0,
                        "NORMAL": 1,
                        "TANGENT": 2,
                        "TEXCOORD_0": 3,
                        "TEXCOORD_1": 4
                    }
                }
            ]
        }
    ],
    "nodes": [
        {
            "name": "Bistro_Research_Exterior_Paris_Building_01_paris_building_01_bottom_4821",
            "mesh": 0
        }
    ],
    "samplers": [
        {},
        {},
        {}
    ],
    "scenes": [
        {
            "nodes": [
                0
            ]
        }
    ],
    "textures": [
        {
            "source": 0,
            "sampler": 0
        },
        {
            "source": 1,
            "sampler": 1
        },
        {
            "source": 2,
            "sampler": 2
        }
    ],
    "scene": 0
}