{
    "asset": {
        "version": "2.0",
        "generator": "Open Asset Import Library (assimp v6.0.44188438)"
    },
    "extensionsUsed": [
        "KHR_materials_specular",
        "KHR_materials_volume",
        "FB_ngon_encoding"
    ],
    "accessors": [
        {
            "bufferView": 0,
            "byteOffset": 0,
            "componentType": 5126,
            "count": 436,
            "type": "VEC3",
            "max": [
                1426.2086181640625,
                2788.232421875,
                607.7048950195313
            ],
            "min": [
                2.2250738585072014e-308,
                2.2250738585072014e-308,
                2.2250738585072014e-308
            ]
        },
        {
            "bufferView": 1,
            "byteOffset": 0,
            "componentType": 5126,
            "count": 436,
            "type": "VEC3",
            "max": [
                0.9840513467788696,
                0.984298586845398,
                0.9961942434310913
            ],
            "min": [
                -0.9829089641571045,
                -0.9826404452323914,
                -0.999984622001648
            ]
        },
        {
            "bufferView": 2,
            "byteOffset": 0,
            "componentType": 5126,
            "count": 436,
            "type": "VEC3",
            "max": [
                0.9826484322547913,
                0.9840593338012695,
                0.9999923706054688
            ],
            "min": [
                -0.9843063950538635,
                -0.9829168319702148,
                -0.9999924898147583
            ]
        },
        {
            "bufferView": 3,
            "byteOffset": 0,
            "componentType": 5126,
            "count": 436,
            "type": "VEC2",
            "max": [
                0.8359375,
                0.9193115234375
            ],
            "min": [
                -0.0225830078125,
                2.2250738585072014e-308
            ]
        },
        {
            "bufferView": 4,
            "byteOffset": 0,
            "componentType": 5126,
            "count": 436,
            "type": "VEC2",
            "max": [
                0.99169921875,
                0.9921875
            ],
            "min": [
                2.2250738585072014e-308,
                2.2250738585072014e-308
            ]
        },
        {
            "bufferView": 5,
            "byteOffset": 0,
            "componentType": 5125,
            "count": 1098,
            "type": "SCALAR",
            "max": [
                435
            ],
            "min": [
                0
            ]
        }
    ],
    "buffers": [
        {
            "byteLength": 27064,
            "uri": "Bistro_Research_Exterior_paris_building_05_5117.bin"
        }
    ],
    "bufferViews": [
        {
            "buffer": 0,
            "byteOffset": 0,
            "byteLength": 5232,
            "target": 34962
        },
        {
            "buffer": 0,
            "byteOffset": 5232,
            "byteLength": 5232,
            "target": 34962
        },
        {
            "buffer": 0,
            "byteOffset": 10464,
            "byteLength": 5232,
            "target": 34962
        },
        {
            "buffer": 0,
            "byteOffset": 15696,
            "byteLength": 3488,
            "target": 34962
        },
        {
            "buffer": 0,
            "byteOffset": 19184,
            "byteLength": 3488,
            "target": 34962
        },
        {
            "buffer": 0,
            "byteOffset": 22672,
            "byteLength": 4392,
            "target": 34963
        }
    ],
    "images": [
        {
            "uri": "Textures\\MASTER_Black_Metal_BaseColor.dds"
        },
        {
            "uri": "Textures\\MASTER_Black_Metal_Normal.dds"
        },
        {
            "uri": "Textures\\MASTER_Black_Metal_Specular.dds"
        }
    ],
    "materials": [
        {
            "name": "MASTER_Black_Metal",
            "pbrMetallicRoughness": {
                "baseColorTexture": {
                    "index": 0
                },
                "metallicFactor": 0.0,
                "roughnessFactor": 0.5527864098548889
            },
            "normalTexture": {
                "index": 1
            },
            "extensions": {
                "KHR_materials_specular": {
                    "specularFactor": 1.0,
                    "specularColorFactor": [
                        0.5,
                        0.5,
                        0.5
                    ],
                    "specularTexture": {
                        "index": 2
                    }
                }
            }
        }
    ],
    "meshes": [
        {
            "name": "Bistro_Research_Exterior_paris_building_05_5117",
            "primitives": [
                {
                    "mode": 4,
                    "material": 0,
                    "indices": 5,
                    "attributes": {
                        "POSITION": 0,
                        "NORMAL": 1,
                        "TANGENT": 2,
                        "TEXCOORD_0": 3,
                        "TEXCOORD_1": 4
                    }
                }
            ]
        }
    ],
    "nodes": [
        {
            "name": "Bistro_Research_Exterior_paris_building_05_5117",
            "mesh": 0
        }
    ],
    "samplers": [
        {},
        {},
        {}
    ],
    "scenes": [
        {
            "nodes": [
                0
            ]
        }
    ],
    "textures": [
        {
            "source": 0,
            "sampler": 0
        },
        {
            "source": 1,
            "sampler": 1
        },
        {
            "source": 2,
            "sampler": 2
        }
    ],
    "scene": 0
}