{
    "asset": {
        "version": "2.0",
        "generator": "Open Asset Import Library (assimp v6.0.44188438)"
    },
    "extensionsUsed": [
        "KHR_materials_specular",
        "KHR_materials_volume",
        "FB_ngon_encoding"
    ],
    "accessors": [
        {
            "bufferView": 0,
            "byteOffset": 0,
            "componentType": 5126,
            "count": 1078,
            "type": "VEC3",
            "max": [
                -880.2245483398438,
                -1097.34423828125,
                1650.2608642578125
            ],
            "min": [
                -943.0834350585938,
                -1117.9970703125,
                2.2250738585072014e-308
            ]
        },
        {
            "bufferView": 1,
            "byteOffset": 0,
            "componentType": 5126,
            "count": 1078,
            "type": "VEC3",
            "max": [
                0.980809211730957,
                0.995949387550354,
                0.9809918403625488
            ],
            "min": [
                -0.9814051389694214,
                -0.9957003593444824,
                -0.9828486442565918
            ]
        },
        {
            "bufferView": 2,
            "byteOffset": 0,
            "componentType": 5126,
            "count": 1078,
            "type": "VEC3",
            "max": [
                0.9796419143676758,
                0.7818875312805176,
                0.9998947978019714
            ],
            "min": [
                -0.9814143776893616,
                -0.9360516667366028,
                -0.9998882412910461
            ]
        },
        {
            "bufferView": 3,
            "byteOffset": 0,
            "componentType": 5126,
            "count": 1078,
            "type": "VEC2",
            "max": [
                0.78076171875,
                0.35986328125
            ],
            "min": [
                2.2250738585072014e-308,
                2.2250738585072014e-308
            ]
        },
        {
            "bufferView": 4,
            "byteOffset": 0,
            "componentType": 5126,
            "count": 1078,
            "type": "VEC2",
            "max": [
                0.9033203125,
                0.9921875
            ],
            "min": [
                2.2250738585072014e-308,
                2.2250738585072014e-308
            ]
        },
        {
            "bufferView": 5,
            "byteOffset": 0,
            "componentType": 5125,
            "count": 4638,
            "type": "SCALAR",
            "max": [
                1077
            ],
            "min": [
                0
            ]
        }
    ],
    "buffers": [
        {
            "byteLength": 74608,
            "uri": "Bistro_Research_Exterior_Paris_Aerial_01C2_4061_1.bin"
        }
    ],
    "bufferViews": [
        {
            "buffer": 0,
            "byteOffset": 0,
            "byteLength": 12936,
            "target": 34962
        },
        {
            "buffer": 0,
            "byteOffset": 12936,
            "byteLength": 12936,
            "target": 34962
        },
        {
            "buffer": 0,
            "byteOffset": 25872,
            "byteLength": 12936,
            "target": 34962
        },
        {
            "buffer": 0,
            "byteOffset": 38808,
            "byteLength": 8624,
            "target": 34962
        },
        {
            "buffer": 0,
            "byteOffset": 47432,
            "byteLength": 8624,
            "target": 34962
        },
        {
            "buffer": 0,
            "byteOffset": 56056,
            "byteLength": 18552,
            "target": 34963
        }
    ],
    "images": [
        {
            "uri": "Textures\\Antenna_Plastic_BaseColor.dds"
        },
        {
            "uri": "Textures\\Antenna_Plastic_Normal.dds"
        },
        {
            "uri": "Textures\\Antenna_Plastic_Specular.dds"
        }
    ],
    "materials": [
        {
            "name": "Antenna_Plastic",
            "pbrMetallicRoughness": {
                "baseColorTexture": {
                    "index": 0
                },
                "metallicFactor": 0.0,
                "roughnessFactor": 0.5527864098548889
            },
            "normalTexture": {
                "index": 1
            },
            "extensions": {
                "KHR_materials_specular": {
                    "specularFactor": 1.0,
                    "specularColorFactor": [
                        0.5,
                        0.5,
                        0.5
                    ],
                    "specularTexture": {
                        "index": 2
                    }
                }
            }
        }
    ],
    "meshes": [
        {
            "name": "Bistro_Research_Exterior_Paris_Aerial_01C2_4061",
            "primitives": [
                {
                    "mode": 4,
                    "material": 0,
                    "indices": 5,
                    "attributes": {
                        "POSITION": 0,
                        "NORMAL": 1,
                        "TANGENT": 2,
                        "TEXCOORD_0": 3,
                        "TEXCOORD_1": 4
                    }
                }
            ]
        }
    ],
    "nodes": [
        {
            "name": "Bistro_Research_Exterior_Paris_Aerial_01C2_4061",
            "mesh": 0
        }
    ],
    "samplers": [
        {},
        {},
        {}
    ],
    "scenes": [
        {
            "nodes": [
                0
            ]
        }
    ],
    "textures": [
        {
            "source": 0,
            "sampler": 0
        },
        {
            "source": 1,
            "sampler": 1
        },
        {
            "source": 2,
            "sampler": 2
        }
    ],
    "scene": 0
}