{
    "asset": {
        "version": "2.0",
        "generator": "Open Asset Import Library (assimp v6.0.44188438)"
    },
    "extensionsUsed": [
        "KHR_materials_specular",
        "KHR_materials_volume",
        "FB_ngon_encoding"
    ],
    "accessors": [
        {
            "bufferView": 0,
            "byteOffset": 0,
            "componentType": 5126,
            "count": 296,
            "type": "VEC3",
            "max": [
                -171.51806640625,
                272.0473327636719,
                434.1498718261719
            ],
            "min": [
                -195.66439819335938,
                2.2250738585072014e-308,
                2.2250738585072014e-308
            ]
        },
        {
            "bufferView": 1,
            "byteOffset": 0,
            "componentType": 5126,
            "count": 296,
            "type": "VEC3",
            "max": [
                -0.00392144825309515,
                0.999984622001648,
                0.6231366991996765
            ],
            "min": [
                -0.9972280263900757,
                -0.999984622001648,
                -0.5564454793930054
            ]
        },
        {
            "bufferView": 2,
            "byteOffset": 0,
            "componentType": 5126,
            "count": 296,
            "type": "VEC3",
            "max": [
                0.557397723197937,
                0.46472516655921936,
                0.9999924898147583
            ],
            "min": [
                -0.6239018440246582,
                -0.47108209133148193,
                -0.9999924898147583
            ]
        },
        {
            "bufferView": 3,
            "byteOffset": 0,
            "componentType": 5126,
            "count": 296,
            "type": "VEC2",
            "max": [
                2.2734375,
                0.84716796875
            ],
            "min": [
                -1.2744140625,
                2.2250738585072014e-308
            ]
        },
        {
            "bufferView": 4,
            "byteOffset": 0,
            "componentType": 5126,
            "count": 296,
            "type": "VEC2",
            "max": [
                0.9921875,
                0.9921875
            ],
            "min": [
                2.2250738585072014e-308,
                2.2250738585072014e-308
            ]
        },
        {
            "bufferView": 5,
            "byteOffset": 0,
            "componentType": 5125,
            "count": 1260,
            "type": "SCALAR",
            "max": [
                295
            ],
            "min": [
                0
            ]
        }
    ],
    "buffers": [
        {
            "byteLength": 20432,
            "uri": "Bistro_Research_Exterior_Paris_Building_01_paris_building_01_bottom_4725.bin"
        }
    ],
    "bufferViews": [
        {
            "buffer": 0,
            "byteOffset": 0,
            "byteLength": 3552,
            "target": 34962
        },
        {
            "buffer": 0,
            "byteOffset": 3552,
            "byteLength": 3552,
            "target": 34962
        },
        {
            "buffer": 0,
            "byteOffset": 7104,
            "byteLength": 3552,
            "target": 34962
        },
        {
            "buffer": 0,
            "byteOffset": 10656,
            "byteLength": 2368,
            "target": 34962
        },
        {
            "buffer": 0,
            "byteOffset": 13024,
            "byteLength": 2368,
            "target": 34962
        },
        {
            "buffer": 0,
            "byteOffset": 15392,
            "byteLength": 5040,
            "target": 34963
        }
    ],
    "images": [
        {
            "uri": "Textures\\MASTER_Wood_Painted3_BaseColor.dds"
        },
        {
            "uri": "Textures\\MASTER_Wood_Painted3_Normal.dds"
        },
        {
            "uri": "Textures\\MASTER_Wood_Painted3_Specular.dds"
        }
    ],
    "materials": [
        {
            "name": "MASTER_Wood_Painted3",
            "pbrMetallicRoughness": {
                "baseColorTexture": {
                    "index": 0
                },
                "metallicFactor": 0.0,
                "roughnessFactor": 0.5527864098548889
            },
            "normalTexture": {
                "index": 1
            },
            "extensions": {
                "KHR_materials_specular": {
                    "specularFactor": 1.0,
                    "specularColorFactor": [
                        0.5,
                        0.5,
                        0.5
                    ],
                    "specularTexture": {
                        "index": 2
                    }
                }
            }
        }
    ],
    "meshes": [
        {
            "name": "Bistro_Research_Exterior_Paris_Building_01_paris_building_01_bottom_4725",
            "primitives": [
                {
                    "mode": 4,
                    "material": 0,
                    "indices": 5,
                    "attributes": {
                        "POSITION": 0,
                        "NORMAL": 1,
                        "TANGENT": 2,
                        "TEXCOORD_0": 3,
                        "TEXCOORD_1": 4
                    }
                }
            ]
        }
    ],
    "nodes": [
        {
            "name": "Bistro_Research_Exterior_Paris_Building_01_paris_building_01_bottom_4725",
            "mesh": 0
        }
    ],
    "samplers": [
        {},
        {},
        {}
    ],
    "scenes": [
        {
            "nodes": [
                0
            ]
        }
    ],
    "textures": [
        {
            "source": 0,
            "sampler": 0
        },
        {
            "source": 1,
            "sampler": 1
        },
        {
            "source": 2,
            "sampler": 2
        }
    ],
    "scene": 0
}