{
    "asset": {
        "version": "2.0",
        "generator": "Open Asset Import Library (assimp v6.0.44188438)"
    },
    "extensionsUsed": [
        "KHR_materials_specular",
        "KHR_materials_volume",
        "FB_ngon_encoding"
    ],
    "accessors": [
        {
            "bufferView": 0,
            "byteOffset": 0,
            "componentType": 5126,
            "count": 228,
            "type": "VEC3",
            "max": [
                518.4984741210938,
                134.06724548339844,
                1885.8824462890625
            ],
            "min": [
                2.2250738585072014e-308,
                2.2250738585072014e-308,
                2.2250738585072014e-308
            ]
        },
        {
            "bufferView": 1,
            "byteOffset": 0,
            "componentType": 5126,
            "count": 228,
            "type": "VEC3",
            "max": [
                0.9986746907234192,
                0.992569088935852,
                0.051395490765571594
            ],
            "min": [
                -0.9990631937980652,
                -0.9914600253105164,
                -0.003958635497838259
            ]
        },
        {
            "bufferView": 2,
            "byteOffset": 0,
            "componentType": 5126,
            "count": 228,
            "type": "VEC3",
            "max": [
                0.9923168420791626,
                0.9990001320838928,
                0.26865139603614807
            ],
            "min": [
                -0.9912078380584717,
                -0.9984695911407471,
                -0.05338739976286888
            ]
        },
        {
            "bufferView": 3,
            "byteOffset": 0,
            "componentType": 5126,
            "count": 228,
            "type": "VEC2",
            "max": [
                1.32421875,
                0.298828125
            ],
            "min": [
                -0.305419921875,
                -1.59765625
            ]
        },
        {
            "bufferView": 4,
            "byteOffset": 0,
            "componentType": 5126,
            "count": 228,
            "type": "VEC2",
            "max": [
                0.978515625,
                0.3203125
            ],
            "min": [
                2.2250738585072014e-308,
                2.2250738585072014e-308
            ]
        },
        {
            "bufferView": 5,
            "byteOffset": 0,
            "componentType": 5125,
            "count": 648,
            "type": "SCALAR",
            "max": [
                227
            ],
            "min": [
                0
            ]
        }
    ],
    "buffers": [
        {
            "byteLength": 14448,
            "uri": "Bistro_Research_Exterior_Paris_Chimney_02A1_5967_0.bin"
        }
    ],
    "bufferViews": [
        {
            "buffer": 0,
            "byteOffset": 0,
            "byteLength": 2736,
            "target": 34962
        },
        {
            "buffer": 0,
            "byteOffset": 2736,
            "byteLength": 2736,
            "target": 34962
        },
        {
            "buffer": 0,
            "byteOffset": 5472,
            "byteLength": 2736,
            "target": 34962
        },
        {
            "buffer": 0,
            "byteOffset": 8208,
            "byteLength": 1824,
            "target": 34962
        },
        {
            "buffer": 0,
            "byteOffset": 10032,
            "byteLength": 1824,
            "target": 34962
        },
        {
            "buffer": 0,
            "byteOffset": 11856,
            "byteLength": 2592,
            "target": 34963
        }
    ],
    "images": [
        {
            "uri": "Textures\\Concrete2_BaseColor.dds"
        },
        {
            "uri": "Textures\\Concrete2_Normal.dds"
        },
        {
            "uri": "Textures\\Concrete2_Specular.dds"
        }
    ],
    "materials": [
        {
            "name": "Concrete2",
            "pbrMetallicRoughness": {
                "baseColorTexture": {
                    "index": 0
                },
                "metallicFactor": 0.0,
                "roughnessFactor": 0.5527864098548889
            },
            "normalTexture": {
                "index": 1
            },
            "extensions": {
                "KHR_materials_specular": {
                    "specularFactor": 1.0,
                    "specularColorFactor": [
                        0.5,
                        0.5,
                        0.5
                    ],
                    "specularTexture": {
                        "index": 2
                    }
                }
            }
        }
    ],
    "meshes": [
        {
            "name": "Bistro_Research_Exterior_Paris_Chimney_02A1_5967",
            "primitives": [
                {
                    "mode": 4,
                    "material": 0,
                    "indices": 5,
                    "attributes": {
                        "POSITION": 0,
                        "NORMAL": 1,
                        "TANGENT": 2,
                        "TEXCOORD_0": 3,
                        "TEXCOORD_1": 4
                    }
                }
            ]
        }
    ],
    "nodes": [
        {
            "name": "Bistro_Research_Exterior_Paris_Chimney_02A1_5967",
            "mesh": 0
        }
    ],
    "samplers": [
        {},
        {},
        {}
    ],
    "scenes": [
        {
            "nodes": [
                0
            ]
        }
    ],
    "textures": [
        {
            "source": 0,
            "sampler": 0
        },
        {
            "source": 1,
            "sampler": 1
        },
        {
            "source": 2,
            "sampler": 2
        }
    ],
    "scene": 0
}