{
    "asset": {
        "version": "2.0",
        "generator": "Open Asset Import Library (assimp v6.0.44188438)"
    },
    "extensionsUsed": [
        "KHR_materials_specular",
        "KHR_materials_volume",
        "FB_ngon_encoding"
    ],
    "accessors": [
        {
            "bufferView": 0,
            "byteOffset": 0,
            "componentType": 5126,
            "count": 430,
            "type": "VEC3",
            "max": [
                1965.7581787109375,
                4584.96484375,
                2267.857177734375
            ],
            "min": [
                2.2250738585072014e-308,
                2.2250738585072014e-308,
                2.2250738585072014e-308
            ]
        },
        {
            "bufferView": 1,
            "byteOffset": 0,
            "componentType": 5126,
            "count": 430,
            "type": "VEC3",
            "max": [
                0.7880778312683105,
                0.7910218834877014,
                0.999984622001648
            ],
            "min": [
                -0.7947959899902344,
                -0.8167412281036377,
                -0.999984622001648
            ]
        },
        {
            "bufferView": 2,
            "byteOffset": 0,
            "componentType": 5126,
            "count": 430,
            "type": "VEC3",
            "max": [
                0.9133638143539429,
                0.8933873176574707,
                0.9905802607536316
            ],
            "min": [
                -0.9113267064094543,
                -0.8974579572677612,
                -0.9904186129570007
            ]
        },
        {
            "bufferView": 3,
            "byteOffset": 0,
            "componentType": 5126,
            "count": 430,
            "type": "VEC2",
            "max": [
                0.76123046875,
                1.0158233642578125
            ],
            "min": [
                2.2250738585072014e-308,
                -0.017578125
            ]
        },
        {
            "bufferView": 4,
            "byteOffset": 0,
            "componentType": 5126,
            "count": 430,
            "type": "VEC2",
            "max": [
                0.96533203125,
                0.9921875
            ],
            "min": [
                2.2250738585072014e-308,
                2.2250738585072014e-308
            ]
        },
        {
            "bufferView": 5,
            "byteOffset": 0,
            "componentType": 5125,
            "count": 1314,
            "type": "SCALAR",
            "max": [
                429
            ],
            "min": [
                0
            ]
        }
    ],
    "buffers": [
        {
            "byteLength": 27616,
            "uri": "Bistro_Research_Exterior_Paris_Chimney_01B4_5963.bin"
        }
    ],
    "bufferViews": [
        {
            "buffer": 0,
            "byteOffset": 0,
            "byteLength": 5160,
            "target": 34962
        },
        {
            "buffer": 0,
            "byteOffset": 5160,
            "byteLength": 5160,
            "target": 34962
        },
        {
            "buffer": 0,
            "byteOffset": 10320,
            "byteLength": 5160,
            "target": 34962
        },
        {
            "buffer": 0,
            "byteOffset": 15480,
            "byteLength": 3440,
            "target": 34962
        },
        {
            "buffer": 0,
            "byteOffset": 18920,
            "byteLength": 3440,
            "target": 34962
        },
        {
            "buffer": 0,
            "byteOffset": 22360,
            "byteLength": 5256,
            "target": 34963
        }
    ],
    "images": [
        {
            "uri": "Textures\\Concrete_BaseColor.dds"
        },
        {
            "uri": "Textures\\Concrete_Normal.dds"
        },
        {
            "uri": "Textures\\Concrete_Specular.dds"
        }
    ],
    "materials": [
        {
            "name": "Concrete",
            "pbrMetallicRoughness": {
                "baseColorTexture": {
                    "index": 0
                },
                "metallicFactor": 0.0,
                "roughnessFactor": 0.5527864098548889
            },
            "normalTexture": {
                "index": 1
            },
            "extensions": {
                "KHR_materials_specular": {
                    "specularFactor": 1.0,
                    "specularColorFactor": [
                        0.5,
                        0.5,
                        0.5
                    ],
                    "specularTexture": {
                        "index": 2
                    }
                }
            }
        }
    ],
    "meshes": [
        {
            "name": "Bistro_Research_Exterior_Paris_Chimney_01B4_5963",
            "primitives": [
                {
                    "mode": 4,
                    "material": 0,
                    "indices": 5,
                    "attributes": {
                        "POSITION": 0,
                        "NORMAL": 1,
                        "TANGENT": 2,
                        "TEXCOORD_0": 3,
                        "TEXCOORD_1": 4
                    }
                }
            ]
        }
    ],
    "nodes": [
        {
            "name": "Bistro_Research_Exterior_Paris_Chimney_01B4_5963",
            "mesh": 0
        }
    ],
    "samplers": [
        {},
        {},
        {}
    ],
    "scenes": [
        {
            "nodes": [
                0
            ]
        }
    ],
    "textures": [
        {
            "source": 0,
            "sampler": 0
        },
        {
            "source": 1,
            "sampler": 1
        },
        {
            "source": 2,
            "sampler": 2
        }
    ],
    "scene": 0
}