{
    "asset": {
        "version": "2.0",
        "generator": "Open Asset Import Library (assimp v6.0.44188438)"
    },
    "extensionsUsed": [
        "KHR_materials_specular",
        "KHR_materials_volume",
        "FB_ngon_encoding"
    ],
    "accessors": [
        {
            "bufferView": 0,
            "byteOffset": 0,
            "componentType": 5126,
            "count": 3844,
            "type": "VEC3",
            "max": [
                1120.1190185546875,
                -501.7958984375,
                579.970703125
            ],
            "min": [
                2.2250738585072014e-308,
                -638.3199462890625,
                2.2250738585072014e-308
            ]
        },
        {
            "bufferView": 1,
            "byteOffset": 0,
            "componentType": 5126,
            "count": 3844,
            "type": "VEC3",
            "max": [
                0.999796986579895,
                0.9996158480644226,
                0.9826404452323914
            ],
            "min": [
                -0.999984622001648,
                -0.9992353320121765,
                -0.9968621730804443
            ]
        },
        {
            "bufferView": 2,
            "byteOffset": 0,
            "componentType": 5126,
            "count": 3844,
            "type": "VEC3",
            "max": [
                0.9966109395027161,
                0.9998030066490173,
                0.999801754951477
            ],
            "min": [
                -0.9999523162841797,
                -0.9999920129776001,
                -0.9938469529151917
            ]
        },
        {
            "bufferView": 3,
            "byteOffset": 0,
            "componentType": 5126,
            "count": 3844,
            "type": "VEC2",
            "max": [
                1.0,
                105.125
            ],
            "min": [
                0.0,
                0.0
            ]
        },
        {
            "bufferView": 4,
            "byteOffset": 0,
            "componentType": 5126,
            "count": 3844,
            "type": "VEC2",
            "max": [
                0.982421875,
                0.9921875
            ],
            "min": [
                2.2250738585072014e-308,
                2.2250738585072014e-308
            ]
        },
        {
            "bufferView": 5,
            "byteOffset": 0,
            "componentType": 5125,
            "count": 16119,
            "type": "SCALAR",
            "max": [
                3843
            ],
            "min": [
                0
            ]
        }
    ],
    "buffers": [
        {
            "byteLength": 264364,
            "uri": "Bistro_Research_Exterior_Ivy_Ivy_4039.bin"
        }
    ],
    "bufferViews": [
        {
            "buffer": 0,
            "byteOffset": 0,
            "byteLength": 46128,
            "target": 34962
        },
        {
            "buffer": 0,
            "byteOffset": 46128,
            "byteLength": 46128,
            "target": 34962
        },
        {
            "buffer": 0,
            "byteOffset": 92256,
            "byteLength": 46128,
            "target": 34962
        },
        {
            "buffer": 0,
            "byteOffset": 138384,
            "byteLength": 30752,
            "target": 34962
        },
        {
            "buffer": 0,
            "byteOffset": 169136,
            "byteLength": 30752,
            "target": 34962
        },
        {
            "buffer": 0,
            "byteOffset": 199888,
            "byteLength": 64476,
            "target": 34963
        }
    ],
    "images": [
        {
            "uri": "Textures\\Foliage_Ivy_branches_BaseColor.dds"
        },
        {
            "uri": "Textures\\Foliage_Ivy_branches_Normal.dds"
        },
        {
            "uri": "Textures\\Foliage_Ivy_branches_Specular.dds"
        }
    ],
    "materials": [
        {
            "name": "Foliage_Ivy_branches",
            "pbrMetallicRoughness": {
                "baseColorTexture": {
                    "index": 0
                },
                "metallicFactor": 0.0,
                "roughnessFactor": 0.5527864098548889
            },
            "normalTexture": {
                "index": 1
            },
            "extensions": {
                "KHR_materials_specular": {
                    "specularFactor": 1.0,
                    "specularColorFactor": [
                        0.5,
                        0.5,
                        0.5
                    ],
                    "specularTexture": {
                        "index": 2
                    }
                }
            }
        }
    ],
    "meshes": [
        {
            "name": "Bistro_Research_Exterior_Ivy_Ivy_4039",
            "primitives": [
                {
                    "mode": 4,
                    "material": 0,
                    "indices": 5,
                    "attributes": {
                        "POSITION": 0,
                        "NORMAL": 1,
                        "TANGENT": 2,
                        "TEXCOORD_0": 3,
                        "TEXCOORD_1": 4
                    }
                }
            ]
        }
    ],
    "nodes": [
        {
            "name": "Bistro_Research_Exterior_Ivy_Ivy_4039",
            "mesh": 0
        }
    ],
    "samplers": [
        {},
        {},
        {}
    ],
    "scenes": [
        {
            "nodes": [
                0
            ]
        }
    ],
    "textures": [
        {
            "source": 0,
            "sampler": 0
        },
        {
            "source": 1,
            "sampler": 1
        },
        {
            "source": 2,
            "sampler": 2
        }
    ],
    "scene": 0
}