{
    "asset": {
        "version": "2.0",
        "generator": "Open Asset Import Library (assimp v6.0.44188438)"
    },
    "extensionsUsed": [
        "KHR_materials_specular",
        "KHR_materials_volume",
        "FB_ngon_encoding"
    ],
    "accessors": [
        {
            "bufferView": 0,
            "byteOffset": 0,
            "componentType": 5126,
            "count": 14522,
            "type": "VEC3",
            "max": [
                914.0962524414063,
                -1073.025390625,
                1100.6590576171875
            ],
            "min": [
                2.2250738585072014e-308,
                -1555.2882080078125,
                2.2250738585072014e-308
            ]
        },
        {
            "bufferView": 1,
            "byteOffset": 0,
            "componentType": 5126,
            "count": 14522,
            "type": "VEC3",
            "max": [
                0.9996097683906555,
                0.9997386932373047,
                0.9995472431182861
            ],
            "min": [
                -0.9994314908981323,
                -0.952494740486145,
                -0.7731079459190369
            ]
        },
        {
            "bufferView": 2,
            "byteOffset": 0,
            "componentType": 5126,
            "count": 14522,
            "type": "VEC3",
            "max": [
                0.9997314214706421,
                0.9995640516281128,
                0.9912794232368469
            ],
            "min": [
                -0.9961792826652527,
                -0.9990435838699341,
                -0.9996164441108704
            ]
        },
        {
            "bufferView": 3,
            "byteOffset": 0,
            "componentType": 5126,
            "count": 14522,
            "type": "VEC2",
            "max": [
                0.99951171875,
                1.0000001192092896
            ],
            "min": [
                -1.1920928955078125e-7,
                2.2250738585072014e-308
            ]
        },
        {
            "bufferView": 4,
            "byteOffset": 0,
            "componentType": 5126,
            "count": 14522,
            "type": "VEC2",
            "max": [
                0.41455078125,
                0.9921875
            ],
            "min": [
                2.2250738585072014e-308,
                2.2250738585072014e-308
            ]
        },
        {
            "bufferView": 5,
            "byteOffset": 0,
            "componentType": 5125,
            "count": 21300,
            "type": "SCALAR",
            "max": [
                14521
            ],
            "min": [
                0
            ]
        }
    ],
    "buffers": [
        {
            "byteLength": 840344,
            "uri": "Bistro_Research_Exterior_Ivy_Ivy_4013.bin"
        }
    ],
    "bufferViews": [
        {
            "buffer": 0,
            "byteOffset": 0,
            "byteLength": 174264,
            "target": 34962
        },
        {
            "buffer": 0,
            "byteOffset": 174264,
            "byteLength": 174264,
            "target": 34962
        },
        {
            "buffer": 0,
            "byteOffset": 348528,
            "byteLength": 174264,
            "target": 34962
        },
        {
            "buffer": 0,
            "byteOffset": 522792,
            "byteLength": 116176,
            "target": 34962
        },
        {
            "buffer": 0,
            "byteOffset": 638968,
            "byteLength": 116176,
            "target": 34962
        },
        {
            "buffer": 0,
            "byteOffset": 755144,
            "byteLength": 85200,
            "target": 34963
        }
    ],
    "images": [
        {
            "uri": "Textures\\Foliage_Ivy_leaf_a_BaseColor.dds"
        },
        {
            "uri": "Textures\\Foliage_Ivy_leaf_a_Normal.dds"
        },
        {
            "uri": "Textures\\Foliage_Ivy_leaf_a_Specular.dds"
        }
    ],
    "materials": [
        {
            "name": "Foliage_Ivy_leaf_a.DoubleSided",
            "pbrMetallicRoughness": {
                "baseColorTexture": {
                    "index": 0
                },
                "metallicFactor": 0.0,
                "roughnessFactor": 0.5527864098548889
            },
            "normalTexture": {
                "index": 1
            },
            "extensions": {
                "KHR_materials_specular": {
                    "specularFactor": 1.0,
                    "specularColorFactor": [
                        0.5,
                        0.5,
                        0.5
                    ],
                    "specularTexture": {
                        "index": 2
                    }
                }
            }
        }
    ],
    "meshes": [
        {
            "name": "Bistro_Research_Exterior_Ivy_Ivy_4013",
            "primitives": [
                {
                    "mode": 4,
                    "material": 0,
                    "indices": 5,
                    "attributes": {
                        "POSITION": 0,
                        "NORMAL": 1,
                        "TANGENT": 2,
                        "TEXCOORD_0": 3,
                        "TEXCOORD_1": 4
                    }
                }
            ]
        }
    ],
    "nodes": [
        {
            "name": "Bistro_Research_Exterior_Ivy_Ivy_4013",
            "mesh": 0
        }
    ],
    "samplers": [
        {},
        {},
        {}
    ],
    "scenes": [
        {
            "nodes": [
                0
            ]
        }
    ],
    "textures": [
        {
            "source": 0,
            "sampler": 0
        },
        {
            "source": 1,
            "sampler": 1
        },
        {
            "source": 2,
            "sampler": 2
        }
    ],
    "scene": 0
}