{
    "asset": {
        "version": "2.0",
        "generator": "Open Asset Import Library (assimp v6.0.44188438)"
    },
    "extensionsUsed": [
        "KHR_materials_specular",
        "KHR_materials_volume",
        "FB_ngon_encoding"
    ],
    "accessors": [
        {
            "bufferView": 0,
            "byteOffset": 0,
            "componentType": 5126,
            "count": 5457,
            "type": "VEC3",
            "max": [
                2179.866455078125,
                -1891.8050537109375,
                135.9222869873047
            ],
            "min": [
                2.2250738585072014e-308,
                -2111.2548828125,
                2.2250738585072014e-308
            ]
        },
        {
            "bufferView": 1,
            "byteOffset": 0,
            "componentType": 5126,
            "count": 5457,
            "type": "VEC3",
            "max": [
                0.9997345209121704,
                0.9988792538642883,
                0.999984622001648
            ],
            "min": [
                -0.9990018606185913,
                -0.999796986579895,
                -0.8952213525772095
            ]
        },
        {
            "bufferView": 2,
            "byteOffset": 0,
            "componentType": 5126,
            "count": 5457,
            "type": "VEC3",
            "max": [
                0.9998636841773987,
                0.9999224543571472,
                0.5199578404426575
            ],
            "min": [
                -0.9999618530273438,
                -0.9995303153991699,
                -0.7429601550102234
            ]
        },
        {
            "bufferView": 3,
            "byteOffset": 0,
            "componentType": 5126,
            "count": 5457,
            "type": "VEC2",
            "max": [
                1.001953125,
                1.001434326171875
            ],
            "min": [
                0.0,
                0.0
            ]
        },
        {
            "bufferView": 4,
            "byteOffset": 0,
            "componentType": 5126,
            "count": 5457,
            "type": "VEC2",
            "max": [
                0.99169921875,
                0.9921875
            ],
            "min": [
                2.2250738585072014e-308,
                2.2250738585072014e-308
            ]
        },
        {
            "bufferView": 5,
            "byteOffset": 0,
            "componentType": 5125,
            "count": 5607,
            "type": "SCALAR",
            "max": [
                5456
            ],
            "min": [
                0
            ]
        }
    ],
    "buffers": [
        {
            "byteLength": 306192,
            "uri": "Bistro_Research_Exterior_bux_hedge_box_long_low_3963.bin"
        }
    ],
    "bufferViews": [
        {
            "buffer": 0,
            "byteOffset": 0,
            "byteLength": 65484,
            "target": 34962
        },
        {
            "buffer": 0,
            "byteOffset": 65484,
            "byteLength": 65484,
            "target": 34962
        },
        {
            "buffer": 0,
            "byteOffset": 130968,
            "byteLength": 65484,
            "target": 34962
        },
        {
            "buffer": 0,
            "byteOffset": 196452,
            "byteLength": 43656,
            "target": 34962
        },
        {
            "buffer": 0,
            "byteOffset": 240108,
            "byteLength": 43656,
            "target": 34962
        },
        {
            "buffer": 0,
            "byteOffset": 283764,
            "byteLength": 22428,
            "target": 34963
        }
    ],
    "images": [
        {
            "uri": "Textures\\Foliage_Bux_Hedges46_BaseColor.dds"
        },
        {
            "uri": "Textures\\Foliage_Bux_Hedges46_Normal.dds"
        },
        {
            "uri": "Textures\\Foliage_Bux_Hedges46_Specular.dds"
        }
    ],
    "materials": [
        {
            "name": "Foliage_Bux_Hedges46.DoubleSided",
            "pbrMetallicRoughness": {
                "baseColorTexture": {
                    "index": 0
                },
                "metallicFactor": 0.0,
                "roughnessFactor": 0.5527864098548889
            },
            "normalTexture": {
                "index": 1
            },
            "extensions": {
                "KHR_materials_specular": {
                    "specularFactor": 1.0,
                    "specularColorFactor": [
                        0.5,
                        0.5,
                        0.5
                    ],
                    "specularTexture": {
                        "index": 2
                    }
                }
            }
        }
    ],
    "meshes": [
        {
            "name": "Bistro_Research_Exterior_bux_hedge_box_long_low_3963",
            "primitives": [
                {
                    "mode": 4,
                    "material": 0,
                    "indices": 5,
                    "attributes": {
                        "POSITION": 0,
                        "NORMAL": 1,
                        "TANGENT": 2,
                        "TEXCOORD_0": 3,
                        "TEXCOORD_1": 4
                    }
                }
            ]
        }
    ],
    "nodes": [
        {
            "name": "Bistro_Research_Exterior_bux_hedge_box_long_low_3963",
            "mesh": 0
        }
    ],
    "samplers": [
        {},
        {},
        {}
    ],
    "scenes": [
        {
            "nodes": [
                0
            ]
        }
    ],
    "textures": [
        {
            "source": 0,
            "sampler": 0
        },
        {
            "source": 1,
            "sampler": 1
        },
        {
            "source": 2,
            "sampler": 2
        }
    ],
    "scene": 0
}