{
    "asset": {
        "version": "2.0",
        "generator": "Open Asset Import Library (assimp v6.0.44188438)"
    },
    "extensionsUsed": [
        "KHR_materials_specular",
        "KHR_materials_volume",
        "FB_ngon_encoding"
    ],
    "accessors": [
        {
            "bufferView": 0,
            "byteOffset": 0,
            "componentType": 5126,
            "count": 209,
            "type": "VEC3",
            "max": [
                737.3450317382813,
                -695.4848022460938,
                138.12423706054688
            ],
            "min": [
                2.2250738585072014e-308,
                -703.7094116210938,
                2.2250738585072014e-308
            ]
        },
        {
            "bufferView": 1,
            "byteOffset": 0,
            "componentType": 5126,
            "count": 209,
            "type": "VEC3",
            "max": [
                0.985998272895813,
                0.9968622922897339,
                0.7226768732070923
            ],
            "min": [
                -0.9849578738212585,
                -0.9973081350326538,
                -0.999984622001648
            ]
        },
        {
            "bufferView": 2,
            "byteOffset": 0,
            "componentType": 5126,
            "count": 209,
            "type": "VEC3",
            "max": [
                0.8033998608589172,
                0.9430585503578186,
                0.9990658164024353
            ],
            "min": [
                -0.8148120045661926,
                -0.8206594586372375,
                -0.574032723903656
            ]
        },
        {
            "bufferView": 3,
            "byteOffset": 0,
            "componentType": 5126,
            "count": 209,
            "type": "VEC2",
            "max": [
                1.0546875,
                1.216796875
            ],
            "min": [
                2.2250738585072014e-308,
                2.2250738585072014e-308
            ]
        },
        {
            "bufferView": 4,
            "byteOffset": 0,
            "componentType": 5126,
            "count": 209,
            "type": "VEC2",
            "max": [
                0.9658203125,
                0.9921875
            ],
            "min": [
                2.2250738585072014e-308,
                2.2250738585072014e-308
            ]
        },
        {
            "bufferView": 5,
            "byteOffset": 0,
            "componentType": 5125,
            "count": 966,
            "type": "SCALAR",
            "max": [
                208
            ],
            "min": [
                0
            ]
        }
    ],
    "buffers": [
        {
            "byteLength": 14732,
            "uri": "Bistro_Research_Exterior_Paris_LiquorBottle_01A___3__6089.bin"
        }
    ],
    "bufferViews": [
        {
            "buffer": 0,
            "byteOffset": 0,
            "byteLength": 2508,
            "target": 34962
        },
        {
            "buffer": 0,
            "byteOffset": 2508,
            "byteLength": 2508,
            "target": 34962
        },
        {
            "buffer": 0,
            "byteOffset": 5016,
            "byteLength": 2508,
            "target": 34962
        },
        {
            "buffer": 0,
            "byteOffset": 7524,
            "byteLength": 1672,
            "target": 34962
        },
        {
            "buffer": 0,
            "byteOffset": 9196,
            "byteLength": 1672,
            "target": 34962
        },
        {
            "buffer": 0,
            "byteOffset": 10868,
            "byteLength": 3864,
            "target": 34963
        }
    ],
    "images": [
        {
            "uri": "Textures\\Paris_LiquorBottle_01_Glass_Wine_BaseColor.dds"
        },
        {
            "uri": "Textures\\Paris_LiquorBottle_01_Glass_Wine_Normal.dds"
        },
        {
            "uri": "Textures\\Paris_LiquorBottle_01_Glass_Wine_Specular.dds"
        }
    ],
    "materials": [
        {
            "name": "Paris_LiquorBottle_01_Glass_Wine",
            "pbrMetallicRoughness": {
                "baseColorTexture": {
                    "index": 0
                },
                "metallicFactor": 0.0,
                "roughnessFactor": 0.5527864098548889
            },
            "normalTexture": {
                "index": 1
            },
            "extensions": {
                "KHR_materials_specular": {
                    "specularFactor": 1.0,
                    "specularColorFactor": [
                        0.5,
                        0.5,
                        0.5
                    ],
                    "specularTexture": {
                        "index": 2
                    }
                }
            }
        }
    ],
    "meshes": [
        {
            "name": "Bistro_Research_Exterior_Paris_LiquorBottle_01A___3__6089",
            "primitives": [
                {
                    "mode": 4,
                    "material": 0,
                    "indices": 5,
                    "attributes": {
                        "POSITION": 0,
                        "NORMAL": 1,
                        "TANGENT": 2,
                        "TEXCOORD_0": 3,
                        "TEXCOORD_1": 4
                    }
                }
            ]
        }
    ],
    "nodes": [
        {
            "name": "Bistro_Research_Exterior_Paris_LiquorBottle_01A___3__6089",
            "mesh": 0
        }
    ],
    "samplers": [
        {},
        {},
        {}
    ],
    "scenes": [
        {
            "nodes": [
                0
            ]
        }
    ],
    "textures": [
        {
            "source": 0,
            "sampler": 0
        },
        {
            "source": 1,
            "sampler": 1
        },
        {
            "source": 2,
            "sampler": 2
        }
    ],
    "scene": 0
}