{
    "asset": {
        "version": "2.0",
        "generator": "Open Asset Import Library (assimp v6.0.44188438)"
    },
    "extensionsUsed": [
        "KHR_materials_specular",
        "KHR_materials_volume",
        "FB_ngon_encoding"
    ],
    "accessors": [
        {
            "bufferView": 0,
            "byteOffset": 0,
            "componentType": 5126,
            "count": 5423,
            "type": "VEC3",
            "max": [
                208.2173614501953,
                3005.431640625,
                1484.233642578125
            ],
            "min": [
                -1832.13134765625,
                2.2250738585072014e-308,
                2.2250738585072014e-308
            ]
        },
        {
            "bufferView": 1,
            "byteOffset": 0,
            "componentType": 5126,
            "count": 5423,
            "type": "VEC3",
            "max": [
                0.9999843835830688,
                0.9858548045158386,
                0.999984622001648
            ],
            "min": [
                -0.9670671224594116,
                -0.9990483522415161,
                -0.999984622001648
            ]
        },
        {
            "bufferView": 2,
            "byteOffset": 0,
            "componentType": 5126,
            "count": 5423,
            "type": "VEC3",
            "max": [
                0.9993582367897034,
                0.9999921917915344,
                0.9999923706054688
            ],
            "min": [
                -0.9990549087524414,
                -0.999795138835907,
                -0.9999924302101135
            ]
        },
        {
            "bufferView": 3,
            "byteOffset": 0,
            "componentType": 5126,
            "count": 5423,
            "type": "VEC2",
            "max": [
                5.24609375,
                2.697265625
            ],
            "min": [
                -6.078125,
                -1.951171875
            ]
        },
        {
            "bufferView": 4,
            "byteOffset": 0,
            "componentType": 5126,
            "count": 5423,
            "type": "VEC2",
            "max": [
                0.98681640625,
                0.9921913146972656
            ],
            "min": [
                2.2250738585072014e-308,
                2.2250738585072014e-308
            ]
        },
        {
            "bufferView": 5,
            "byteOffset": 0,
            "componentType": 5125,
            "count": 17154,
            "type": "SCALAR",
            "max": [
                5422
            ],
            "min": [
                0
            ]
        }
    ],
    "buffers": [
        {
            "byteLength": 350612,
            "uri": "Bistro_Research_Exterior_paris_building_09_5443.bin"
        }
    ],
    "bufferViews": [
        {
            "buffer": 0,
            "byteOffset": 0,
            "byteLength": 65076,
            "target": 34962
        },
        {
            "buffer": 0,
            "byteOffset": 65076,
            "byteLength": 65076,
            "target": 34962
        },
        {
            "buffer": 0,
            "byteOffset": 130152,
            "byteLength": 65076,
            "target": 34962
        },
        {
            "buffer": 0,
            "byteOffset": 195228,
            "byteLength": 43384,
            "target": 34962
        },
        {
            "buffer": 0,
            "byteOffset": 238612,
            "byteLength": 43384,
            "target": 34962
        },
        {
            "buffer": 0,
            "byteOffset": 281996,
            "byteLength": 68616,
            "target": 34963
        }
    ],
    "images": [
        {
            "uri": "Textures\\MASTER_Concrete_BaseColor.dds"
        },
        {
            "uri": "Textures\\MASTER_Concrete_Normal.dds"
        },
        {
            "uri": "Textures\\MASTER_Concrete_Specular.dds"
        }
    ],
    "materials": [
        {
            "name": "MASTER_Concrete",
            "pbrMetallicRoughness": {
                "baseColorTexture": {
                    "index": 0
                },
                "metallicFactor": 0.0,
                "roughnessFactor": 0.5527864098548889
            },
            "normalTexture": {
                "index": 1
            },
            "extensions": {
                "KHR_materials_specular": {
                    "specularFactor": 1.0,
                    "specularColorFactor": [
                        0.5,
                        0.5,
                        0.5
                    ],
                    "specularTexture": {
                        "index": 2
                    }
                }
            }
        }
    ],
    "meshes": [
        {
            "name": "Bistro_Research_Exterior_paris_building_09_5443",
            "primitives": [
                {
                    "mode": 4,
                    "material": 0,
                    "indices": 5,
                    "attributes": {
                        "POSITION": 0,
                        "NORMAL": 1,
                        "TANGENT": 2,
                        "TEXCOORD_0": 3,
                        "TEXCOORD_1": 4
                    }
                }
            ]
        }
    ],
    "nodes": [
        {
            "name": "Bistro_Research_Exterior_paris_building_09_5443",
            "mesh": 0
        }
    ],
    "samplers": [
        {},
        {},
        {}
    ],
    "scenes": [
        {
            "nodes": [
                0
            ]
        }
    ],
    "textures": [
        {
            "source": 0,
            "sampler": 0
        },
        {
            "source": 1,
            "sampler": 1
        },
        {
            "source": 2,
            "sampler": 2
        }
    ],
    "scene": 0
}