{
    "asset": {
        "version": "2.0",
        "generator": "Open Asset Import Library (assimp v6.0.44188438)"
    },
    "extensionsUsed": [
        "KHR_materials_specular",
        "KHR_materials_volume",
        "FB_ngon_encoding"
    ],
    "accessors": [
        {
            "bufferView": 0,
            "byteOffset": 0,
            "componentType": 5126,
            "count": 1762,
            "type": "VEC3",
            "max": [
                1982.023193359375,
                -2112.171875,
                330.589599609375
            ],
            "min": [
                2.2250738585072014e-308,
                -2189.09423828125,
                2.2250738585072014e-308
            ]
        },
        {
            "bufferView": 1,
            "byteOffset": 0,
            "componentType": 5126,
            "count": 1762,
            "type": "VEC3",
            "max": [
                0.9999219179153442,
                0.9993700981140137,
                0.999984622001648
            ],
            "min": [
                -0.935745120048523,
                -0.9502413272857666,
                -0.999984622001648
            ]
        },
        {
            "bufferView": 2,
            "byteOffset": 0,
            "componentType": 5126,
            "count": 1762,
            "type": "VEC3",
            "max": [
                0.9993717670440674,
                0.9999215006828308,
                0.9999924302101135
            ],
            "min": [
                -0.967074990272522,
                -0.9483882188796997,
                -0.9999924302101135
            ]
        },
        {
            "bufferView": 3,
            "byteOffset": 0,
            "componentType": 5126,
            "count": 1762,
            "type": "VEC2",
            "max": [
                0.99609375,
                0.9980525970458984
            ],
            "min": [
                2.2250738585072014e-308,
                2.2250738585072014e-308
            ]
        },
        {
            "bufferView": 4,
            "byteOffset": 0,
            "componentType": 5126,
            "count": 1762,
            "type": "VEC2",
            "max": [
                0.98486328125,
                0.9921875
            ],
            "min": [
                2.2250738585072014e-308,
                2.2250738585072014e-308
            ]
        },
        {
            "bufferView": 5,
            "byteOffset": 0,
            "componentType": 5125,
            "count": 4458,
            "type": "SCALAR",
            "max": [
                1761
            ],
            "min": [
                0
            ]
        }
    ],
    "buffers": [
        {
            "byteLength": 109456,
            "uri": "Bistro_Research_Exterior_paris_building_10_16__5521.bin"
        }
    ],
    "bufferViews": [
        {
            "buffer": 0,
            "byteOffset": 0,
            "byteLength": 21144,
            "target": 34962
        },
        {
            "buffer": 0,
            "byteOffset": 21144,
            "byteLength": 21144,
            "target": 34962
        },
        {
            "buffer": 0,
            "byteOffset": 42288,
            "byteLength": 21144,
            "target": 34962
        },
        {
            "buffer": 0,
            "byteOffset": 63432,
            "byteLength": 14096,
            "target": 34962
        },
        {
            "buffer": 0,
            "byteOffset": 77528,
            "byteLength": 14096,
            "target": 34962
        },
        {
            "buffer": 0,
            "byteOffset": 91624,
            "byteLength": 17832,
            "target": 34963
        }
    ],
    "images": [
        {
            "uri": "Textures\\MASTER_Doors_BaseColor.dds"
        },
        {
            "uri": "Textures\\MASTER_Doors_Normal.dds"
        },
        {
            "uri": "Textures\\MASTER_Doors_Specular.dds"
        }
    ],
    "materials": [
        {
            "name": "MASTER_Doors",
            "pbrMetallicRoughness": {
                "baseColorTexture": {
                    "index": 0
                },
                "metallicFactor": 0.0,
                "roughnessFactor": 0.5527864098548889
            },
            "normalTexture": {
                "index": 1
            },
            "extensions": {
                "KHR_materials_specular": {
                    "specularFactor": 1.0,
                    "specularColorFactor": [
                        0.5,
                        0.5,
                        0.5
                    ],
                    "specularTexture": {
                        "index": 2
                    }
                }
            }
        }
    ],
    "meshes": [
        {
            "name": "Bistro_Research_Exterior_paris_building_10_16__5521",
            "primitives": [
                {
                    "mode": 4,
                    "material": 0,
                    "indices": 5,
                    "attributes": {
                        "POSITION": 0,
                        "NORMAL": 1,
                        "TANGENT": 2,
                        "TEXCOORD_0": 3,
                        "TEXCOORD_1": 4
                    }
                }
            ]
        }
    ],
    "nodes": [
        {
            "name": "Bistro_Research_Exterior_paris_building_10_16__5521",
            "mesh": 0
        }
    ],
    "samplers": [
        {},
        {},
        {}
    ],
    "scenes": [
        {
            "nodes": [
                0
            ]
        }
    ],
    "textures": [
        {
            "source": 0,
            "sampler": 0
        },
        {
            "source": 1,
            "sampler": 1
        },
        {
            "source": 2,
            "sampler": 2
        }
    ],
    "scene": 0
}