{
    "asset": {
        "version": "2.0",
        "generator": "Open Asset Import Library (assimp v6.0.44188438)"
    },
    "extensionsUsed": [
        "KHR_materials_specular",
        "KHR_materials_volume",
        "FB_ngon_encoding"
    ],
    "accessors": [
        {
            "bufferView": 0,
            "byteOffset": 0,
            "componentType": 5126,
            "count": 296,
            "type": "VEC3",
            "max": [
                -29.40999412536621,
                192.72215270996094,
                307.068359375
            ],
            "min": [
                -128.02081298828125,
                -2.110525369644165,
                2.2250738585072014e-308
            ]
        },
        {
            "bufferView": 1,
            "byteOffset": 0,
            "componentType": 5126,
            "count": 296,
            "type": "VEC3",
            "max": [
                0.9400783181190491,
                0.9430553317070007,
                -0.0039001547265797853
            ],
            "min": [
                -0.9350574612617493,
                -0.9421797394752502,
                -0.999984622001648
            ]
        },
        {
            "bufferView": 2,
            "byteOffset": 0,
            "componentType": 5126,
            "count": 296,
            "type": "VEC3",
            "max": [
                0.9421870708465576,
                0.9935325384140015,
                0.4205605983734131
            ],
            "min": [
                -0.9430624842643738,
                -0.9914085268974304,
                -0.9993845224380493
            ]
        },
        {
            "bufferView": 3,
            "byteOffset": 0,
            "componentType": 5126,
            "count": 296,
            "type": "VEC2",
            "max": [
                1.9599609375,
                0.9956321716308594
            ],
            "min": [
                2.2250738585072014e-308,
                2.2250738585072014e-308
            ]
        },
        {
            "bufferView": 4,
            "byteOffset": 0,
            "componentType": 5126,
            "count": 296,
            "type": "VEC2",
            "max": [
                0.97314453125,
                0.9921875
            ],
            "min": [
                2.2250738585072014e-308,
                2.2250738585072014e-308
            ]
        },
        {
            "bufferView": 5,
            "byteOffset": 0,
            "componentType": 5125,
            "count": 840,
            "type": "SCALAR",
            "max": [
                295
            ],
            "min": [
                0
            ]
        }
    ],
    "buffers": [
        {
            "byteLength": 18752,
            "uri": "Bistro_Research_Exterior_Paris_Building_01_paris_building_01_bottom_4839.bin"
        }
    ],
    "bufferViews": [
        {
            "buffer": 0,
            "byteOffset": 0,
            "byteLength": 3552,
            "target": 34962
        },
        {
            "buffer": 0,
            "byteOffset": 3552,
            "byteLength": 3552,
            "target": 34962
        },
        {
            "buffer": 0,
            "byteOffset": 7104,
            "byteLength": 3552,
            "target": 34962
        },
        {
            "buffer": 0,
            "byteOffset": 10656,
            "byteLength": 2368,
            "target": 34962
        },
        {
            "buffer": 0,
            "byteOffset": 13024,
            "byteLength": 2368,
            "target": 34962
        },
        {
            "buffer": 0,
            "byteOffset": 15392,
            "byteLength": 3360,
            "target": 34963
        }
    ],
    "images": [
        {
            "uri": "Textures\\MASTER_Bistro_Main_Door_BaseColor.dds"
        },
        {
            "uri": "Textures\\MASTER_Bistro_Main_Door_Normal.dds"
        },
        {
            "uri": "Textures\\MASTER_Bistro_Main_Door_Specular.dds"
        }
    ],
    "materials": [
        {
            "name": "MASTER_Bistro_Main_Door",
            "pbrMetallicRoughness": {
                "baseColorTexture": {
                    "index": 0
                },
                "metallicFactor": 0.0,
                "roughnessFactor": 0.5527864098548889
            },
            "normalTexture": {
                "index": 1
            },
            "extensions": {
                "KHR_materials_specular": {
                    "specularFactor": 1.0,
                    "specularColorFactor": [
                        0.5,
                        0.5,
                        0.5
                    ],
                    "specularTexture": {
                        "index": 2
                    }
                }
            }
        }
    ],
    "meshes": [
        {
            "name": "Bistro_Research_Exterior_Paris_Building_01_paris_building_01_bottom_4839",
            "primitives": [
                {
                    "mode": 4,
                    "material": 0,
                    "indices": 5,
                    "attributes": {
                        "POSITION": 0,
                        "NORMAL": 1,
                        "TANGENT": 2,
                        "TEXCOORD_0": 3,
                        "TEXCOORD_1": 4
                    }
                }
            ]
        }
    ],
    "nodes": [
        {
            "name": "Bistro_Research_Exterior_Paris_Building_01_paris_building_01_bottom_4839",
            "mesh": 0
        }
    ],
    "samplers": [
        {},
        {},
        {}
    ],
    "scenes": [
        {
            "nodes": [
                0
            ]
        }
    ],
    "textures": [
        {
            "source": 0,
            "sampler": 0
        },
        {
            "source": 1,
            "sampler": 1
        },
        {
            "source": 2,
            "sampler": 2
        }
    ],
    "scene": 0
}