{
    "asset": {
        "version": "2.0",
        "generator": "Open Asset Import Library (assimp v6.0.44188438)"
    },
    "extensionsUsed": [
        "KHR_materials_specular",
        "KHR_materials_volume",
        "FB_ngon_encoding"
    ],
    "accessors": [
        {
            "bufferView": 0,
            "byteOffset": 0,
            "componentType": 5126,
            "count": 76,
            "type": "VEC3",
            "max": [
                2092.341064453125,
                -1259.716064453125,
                415.35638427734375
            ],
            "min": [
                2.2250738585072014e-308,
                -1291.7027587890625,
                2.2250738585072014e-308
            ]
        },
        {
            "bufferView": 1,
            "byteOffset": 0,
            "componentType": 5126,
            "count": 76,
            "type": "VEC3",
            "max": [
                0.9886258244514465,
                0.988801896572113,
                0.09089067578315735
            ],
            "min": [
                -0.9879571795463562,
                -0.9877680540084839,
                -0.10664433985948563
            ]
        },
        {
            "bufferView": 2,
            "byteOffset": 0,
            "componentType": 5126,
            "count": 76,
            "type": "VEC3",
            "max": [
                0.994403064250946,
                0.9935536980628967,
                0.012813115492463112
            ],
            "min": [
                -0.9934527277946472,
                -0.9943153262138367,
                -0.0123035479336977
            ]
        },
        {
            "bufferView": 3,
            "byteOffset": 0,
            "componentType": 5126,
            "count": 76,
            "type": "VEC2",
            "max": [
                0.984375,
                0.9044189453125
            ],
            "min": [
                2.2250738585072014e-308,
                2.2250738585072014e-308
            ]
        },
        {
            "bufferView": 4,
            "byteOffset": 0,
            "componentType": 5126,
            "count": 76,
            "type": "VEC2",
            "max": [
                0.99072265625,
                0.9921875
            ],
            "min": [
                2.2250738585072014e-308,
                2.2250738585072014e-308
            ]
        },
        {
            "bufferView": 5,
            "byteOffset": 0,
            "componentType": 5125,
            "count": 216,
            "type": "SCALAR",
            "max": [
                75
            ],
            "min": [
                0
            ]
        }
    ],
    "buffers": [
        {
            "byteLength": 4816,
            "uri": "Bistro_Research_Exterior_Paris_StreetLight_Glass_01B___15__6351.bin"
        }
    ],
    "bufferViews": [
        {
            "buffer": 0,
            "byteOffset": 0,
            "byteLength": 912,
            "target": 34962
        },
        {
            "buffer": 0,
            "byteOffset": 912,
            "byteLength": 912,
            "target": 34962
        },
        {
            "buffer": 0,
            "byteOffset": 1824,
            "byteLength": 912,
            "target": 34962
        },
        {
            "buffer": 0,
            "byteOffset": 2736,
            "byteLength": 608,
            "target": 34962
        },
        {
            "buffer": 0,
            "byteOffset": 3344,
            "byteLength": 608,
            "target": 34962
        },
        {
            "buffer": 0,
            "byteOffset": 3952,
            "byteLength": 864,
            "target": 34963
        }
    ],
    "images": [
        {
            "uri": "Textures\\Emissive_StreetLight_BaseColor.dds"
        },
        {
            "uri": "Textures\\Emissive_StreetLight_Normal.dds"
        },
        {
            "uri": "Textures\\Emissive_StreetLight_Emissive.dds"
        },
        {
            "uri": "Textures\\Emissive_StreetLight_Specular.dds"
        }
    ],
    "materials": [
        {
            "name": "Emissive_StreetLight",
            "pbrMetallicRoughness": {
                "baseColorTexture": {
                    "index": 0
                },
                "metallicFactor": 0.0,
                "roughnessFactor": 0.5527864098548889
            },
            "normalTexture": {
                "index": 1
            },
            "emissiveTexture": {
                "index": 2
            },
            "emissiveFactor": [
                0.5,
                0.5,
                0.5
            ],
            "extensions": {
                "KHR_materials_specular": {
                    "specularFactor": 1.0,
                    "specularColorFactor": [
                        0.5,
                        0.5,
                        0.5
                    ],
                    "specularTexture": {
                        "index": 3
                    }
                }
            }
        }
    ],
    "meshes": [
        {
            "name": "Bistro_Research_Exterior_Paris_StreetLight_Glass_01B___15__6351",
            "primitives": [
                {
                    "mode": 4,
                    "material": 0,
                    "indices": 5,
                    "attributes": {
                        "POSITION": 0,
                        "NORMAL": 1,
                        "TANGENT": 2,
                        "TEXCOORD_0": 3,
                        "TEXCOORD_1": 4
                    }
                }
            ]
        }
    ],
    "nodes": [
        {
            "name": "Bistro_Research_Exterior_Paris_StreetLight_Glass_01B___15__6351",
            "mesh": 0
        }
    ],
    "samplers": [
        {},
        {},
        {},
        {}
    ],
    "scenes": [
        {
            "nodes": [
                0
            ]
        }
    ],
    "textures": [
        {
            "source": 0,
            "sampler": 0
        },
        {
            "source": 1,
            "sampler": 1
        },
        {
            "source": 2,
            "sampler": 2
        },
        {
            "source": 3,
            "sampler": 3
        }
    ],
    "scene": 0
}