{
    "asset": {
        "version": "2.0",
        "generator": "Open Asset Import Library (assimp v6.0.44188438)"
    },
    "extensionsUsed": [
        "KHR_materials_specular",
        "KHR_materials_volume",
        "FB_ngon_encoding"
    ],
    "accessors": [
        {
            "bufferView": 0,
            "byteOffset": 0,
            "componentType": 5126,
            "count": 2369,
            "type": "VEC3",
            "max": [
                1248.5450439453125,
                2500.55615234375,
                341.03106689453125
            ],
            "min": [
                2.2250738585072014e-308,
                2.2250738585072014e-308,
                2.2250738585072014e-308
            ]
        },
        {
            "bufferView": 1,
            "byteOffset": 0,
            "componentType": 5126,
            "count": 2369,
            "type": "VEC3",
            "max": [
                0.9990483522415161,
                0.9999231100082397,
                0.999984622001648
            ],
            "min": [
                -0.9986953735351563,
                -0.9999843835830688,
                -0.999984622001648
            ]
        },
        {
            "bufferView": 2,
            "byteOffset": 0,
            "componentType": 5126,
            "count": 2369,
            "type": "VEC3",
            "max": [
                0.9999922513961792,
                0.9990562200546265,
                0.9999924302101135
            ],
            "min": [
                -0.9999308586120605,
                -0.9998967051506042,
                -0.999992311000824
            ]
        },
        {
            "bufferView": 3,
            "byteOffset": 0,
            "componentType": 5126,
            "count": 2369,
            "type": "VEC2",
            "max": [
                0.9970703125,
                0.9970684051513672
            ],
            "min": [
                -0.059967041015625,
                2.2250738585072014e-308
            ]
        },
        {
            "bufferView": 4,
            "byteOffset": 0,
            "componentType": 5126,
            "count": 2369,
            "type": "VEC2",
            "max": [
                0.9921875,
                0.9921875
            ],
            "min": [
                2.2250738585072014e-308,
                2.2250738585072014e-308
            ]
        },
        {
            "bufferView": 5,
            "byteOffset": 0,
            "componentType": 5125,
            "count": 6480,
            "type": "SCALAR",
            "max": [
                2368
            ],
            "min": [
                0
            ]
        }
    ],
    "buffers": [
        {
            "byteLength": 149108,
            "uri": "Bistro_Research_Exterior_paris_building_05_5145.bin"
        }
    ],
    "bufferViews": [
        {
            "buffer": 0,
            "byteOffset": 0,
            "byteLength": 28428,
            "target": 34962
        },
        {
            "buffer": 0,
            "byteOffset": 28428,
            "byteLength": 28428,
            "target": 34962
        },
        {
            "buffer": 0,
            "byteOffset": 56856,
            "byteLength": 28428,
            "target": 34962
        },
        {
            "buffer": 0,
            "byteOffset": 85284,
            "byteLength": 18952,
            "target": 34962
        },
        {
            "buffer": 0,
            "byteOffset": 104236,
            "byteLength": 18952,
            "target": 34962
        },
        {
            "buffer": 0,
            "byteOffset": 123188,
            "byteLength": 25920,
            "target": 34963
        }
    ],
    "images": [
        {
            "uri": "Textures\\MASTER_Awning_Beams_BaseColor.dds"
        },
        {
            "uri": "Textures\\MASTER_Awning_Beams_Normal.dds"
        },
        {
            "uri": "Textures\\MASTER_Awning_Beams_Specular.dds"
        }
    ],
    "materials": [
        {
            "name": "MASTER_Awning_Beams",
            "pbrMetallicRoughness": {
                "baseColorTexture": {
                    "index": 0
                },
                "metallicFactor": 0.0,
                "roughnessFactor": 0.5527864098548889
            },
            "normalTexture": {
                "index": 1
            },
            "extensions": {
                "KHR_materials_specular": {
                    "specularFactor": 1.0,
                    "specularColorFactor": [
                        0.5,
                        0.5,
                        0.5
                    ],
                    "specularTexture": {
                        "index": 2
                    }
                }
            }
        }
    ],
    "meshes": [
        {
            "name": "Bistro_Research_Exterior_paris_building_05_5145",
            "primitives": [
                {
                    "mode": 4,
                    "material": 0,
                    "indices": 5,
                    "attributes": {
                        "POSITION": 0,
                        "NORMAL": 1,
                        "TANGENT": 2,
                        "TEXCOORD_0": 3,
                        "TEXCOORD_1": 4
                    }
                }
            ]
        }
    ],
    "nodes": [
        {
            "name": "Bistro_Research_Exterior_paris_building_05_5145",
            "mesh": 0
        }
    ],
    "samplers": [
        {},
        {},
        {}
    ],
    "scenes": [
        {
            "nodes": [
                0
            ]
        }
    ],
    "textures": [
        {
            "source": 0,
            "sampler": 0
        },
        {
            "source": 1,
            "sampler": 1
        },
        {
            "source": 2,
            "sampler": 2
        }
    ],
    "scene": 0
}