{
    "asset": {
        "version": "2.0",
        "generator": "Open Asset Import Library (assimp v6.0.44188438)"
    },
    "extensionsUsed": [
        "KHR_materials_specular",
        "KHR_materials_volume",
        "FB_ngon_encoding"
    ],
    "accessors": [
        {
            "bufferView": 0,
            "byteOffset": 0,
            "componentType": 5126,
            "count": 1248,
            "type": "VEC3",
            "max": [
                -24.884016036987305,
                -51.1965217590332,
                240.9098358154297
            ],
            "min": [
                -48.38011169433594,
                -90.71215057373047,
                2.2250738585072014e-308
            ]
        },
        {
            "bufferView": 1,
            "byteOffset": 0,
            "componentType": 5126,
            "count": 1248,
            "type": "VEC3",
            "max": [
                0.8998539447784424,
                0.9982666969299316,
                0.999984622001648
            ],
            "min": [
                -0.99777752161026,
                -0.985633373260498,
                -0.999984622001648
            ]
        },
        {
            "bufferView": 2,
            "byteOffset": 0,
            "componentType": 5126,
            "count": 1248,
            "type": "VEC3",
            "max": [
                0.9764627814292908,
                0.9965190291404724,
                0.9999924898147583
            ],
            "min": [
                -0.9982743859291077,
                -0.9944412708282471,
                -0.9999924898147583
            ]
        },
        {
            "bufferView": 3,
            "byteOffset": 0,
            "componentType": 5126,
            "count": 1248,
            "type": "VEC2",
            "max": [
                0.9951171875,
                0.9958534240722656
            ],
            "min": [
                2.2250738585072014e-308,
                2.2250738585072014e-308
            ]
        },
        {
            "bufferView": 4,
            "byteOffset": 0,
            "componentType": 5126,
            "count": 1248,
            "type": "VEC2",
            "max": [
                0.9912109375,
                0.9921875
            ],
            "min": [
                2.2250738585072014e-308,
                2.2250738585072014e-308
            ]
        },
        {
            "bufferView": 5,
            "byteOffset": 0,
            "componentType": 5125,
            "count": 4290,
            "type": "SCALAR",
            "max": [
                1247
            ],
            "min": [
                0
            ]
        }
    ],
    "buffers": [
        {
            "byteLength": 82056,
            "uri": "Bistro_Research_Exterior_Paris_MenuSign_01b2_6111.bin"
        }
    ],
    "bufferViews": [
        {
            "buffer": 0,
            "byteOffset": 0,
            "byteLength": 14976,
            "target": 34962
        },
        {
            "buffer": 0,
            "byteOffset": 14976,
            "byteLength": 14976,
            "target": 34962
        },
        {
            "buffer": 0,
            "byteOffset": 29952,
            "byteLength": 14976,
            "target": 34962
        },
        {
            "buffer": 0,
            "byteOffset": 44928,
            "byteLength": 9984,
            "target": 34962
        },
        {
            "buffer": 0,
            "byteOffset": 54912,
            "byteLength": 9984,
            "target": 34962
        },
        {
            "buffer": 0,
            "byteOffset": 64896,
            "byteLength": 17160,
            "target": 34963
        }
    ],
    "images": [
        {
            "uri": "Textures\\MenuSign_02_Mesh_BaseColor.dds"
        },
        {
            "uri": "Textures\\MenuSign_02_Mesh_Normal.dds"
        },
        {
            "uri": "Textures\\MenuSign_02_Mesh_Specular.dds"
        }
    ],
    "materials": [
        {
            "name": "MenuSign_02_Mesh",
            "pbrMetallicRoughness": {
                "baseColorTexture": {
                    "index": 0
                },
                "metallicFactor": 0.0,
                "roughnessFactor": 0.5527864098548889
            },
            "normalTexture": {
                "index": 1
            },
            "extensions": {
                "KHR_materials_specular": {
                    "specularFactor": 1.0,
                    "specularColorFactor": [
                        0.5,
                        0.5,
                        0.5
                    ],
                    "specularTexture": {
                        "index": 2
                    }
                }
            }
        }
    ],
    "meshes": [
        {
            "name": "Bistro_Research_Exterior_Paris_MenuSign_01b2_6111",
            "primitives": [
                {
                    "mode": 4,
                    "material": 0,
                    "indices": 5,
                    "attributes": {
                        "POSITION": 0,
                        "NORMAL": 1,
                        "TANGENT": 2,
                        "TEXCOORD_0": 3,
                        "TEXCOORD_1": 4
                    }
                }
            ]
        }
    ],
    "nodes": [
        {
            "name": "Bistro_Research_Exterior_Paris_MenuSign_01b2_6111",
            "mesh": 0
        }
    ],
    "samplers": [
        {},
        {},
        {}
    ],
    "scenes": [
        {
            "nodes": [
                0
            ]
        }
    ],
    "textures": [
        {
            "source": 0,
            "sampler": 0
        },
        {
            "source": 1,
            "sampler": 1
        },
        {
            "source": 2,
            "sampler": 2
        }
    ],
    "scene": 0
}