{
    "asset": {
        "version": "2.0",
        "generator": "Open Asset Import Library (assimp v6.0.44188438)"
    },
    "extensionsUsed": [
        "KHR_materials_specular",
        "KHR_materials_volume",
        "FB_ngon_encoding"
    ],
    "accessors": [
        {
            "bufferView": 0,
            "byteOffset": 0,
            "componentType": 5126,
            "count": 37,
            "type": "VEC3",
            "max": [
                -111.95708465576172,
                399.9814758300781,
                87.03937530517578
            ],
            "min": [
                -125.53069305419922,
                2.2250738585072014e-308,
                2.2250738585072014e-308
            ]
        },
        {
            "bufferView": 1,
            "byteOffset": 0,
            "componentType": 5126,
            "count": 37,
            "type": "VEC3",
            "max": [
                -0.87744140625,
                0.47966793179512024,
                -0.0038996802177280188
            ],
            "min": [
                -0.87744140625,
                2.2250738585072014e-308,
                -0.0038996802177280188
            ]
        },
        {
            "bufferView": 2,
            "byteOffset": 0,
            "componentType": 5126,
            "count": 37,
            "type": "VEC3",
            "max": [
                -0.4796656668186188,
                -0.8774449229240417,
                0.0013327630003914237
            ],
            "min": [
                -0.4796757698059082,
                -0.8774499893188477,
                -0.0015707446727901697
            ]
        },
        {
            "bufferView": 3,
            "byteOffset": 0,
            "componentType": 5126,
            "count": 37,
            "type": "VEC2",
            "max": [
                1.0,
                1.0
            ],
            "min": [
                0.0,
                0.0
            ]
        },
        {
            "bufferView": 4,
            "byteOffset": 0,
            "componentType": 5126,
            "count": 37,
            "type": "VEC2",
            "max": [
                0.9921875,
                0.9921875
            ],
            "min": [
                2.2250738585072014e-308,
                2.2250738585072014e-308
            ]
        },
        {
            "bufferView": 5,
            "byteOffset": 0,
            "componentType": 5125,
            "count": 108,
            "type": "SCALAR",
            "max": [
                36
            ],
            "min": [
                0
            ]
        }
    ],
    "buffers": [
        {
            "byteLength": 2356,
            "uri": "Bistro_Research_Exterior_Paris_Building_01_paris_building_01_bottom_4649.bin"
        }
    ],
    "bufferViews": [
        {
            "buffer": 0,
            "byteOffset": 0,
            "byteLength": 444,
            "target": 34962
        },
        {
            "buffer": 0,
            "byteOffset": 444,
            "byteLength": 444,
            "target": 34962
        },
        {
            "buffer": 0,
            "byteOffset": 888,
            "byteLength": 444,
            "target": 34962
        },
        {
            "buffer": 0,
            "byteOffset": 1332,
            "byteLength": 296,
            "target": 34962
        },
        {
            "buffer": 0,
            "byteOffset": 1628,
            "byteLength": 296,
            "target": 34962
        },
        {
            "buffer": 0,
            "byteOffset": 1924,
            "byteLength": 432,
            "target": 34963
        }
    ],
    "images": [
        {
            "uri": "Textures\\MASTER_Focus_Ornament_BaseColor.dds"
        },
        {
            "uri": "Textures\\MASTER_Focus_Ornament_Normal.dds"
        },
        {
            "uri": "Textures\\MASTER_Focus_Ornament_Specular.dds"
        }
    ],
    "materials": [
        {
            "name": "MASTER_Focus_Ornament",
            "pbrMetallicRoughness": {
                "baseColorTexture": {
                    "index": 0
                },
                "metallicFactor": 0.0,
                "roughnessFactor": 0.5527864098548889
            },
            "normalTexture": {
                "index": 1
            },
            "extensions": {
                "KHR_materials_specular": {
                    "specularFactor": 1.0,
                    "specularColorFactor": [
                        0.5,
                        0.5,
                        0.5
                    ],
                    "specularTexture": {
                        "index": 2
                    }
                }
            }
        }
    ],
    "meshes": [
        {
            "name": "Bistro_Research_Exterior_Paris_Building_01_paris_building_01_bottom_4649",
            "primitives": [
                {
                    "mode": 4,
                    "material": 0,
                    "indices": 5,
                    "attributes": {
                        "POSITION": 0,
                        "NORMAL": 1,
                        "TANGENT": 2,
                        "TEXCOORD_0": 3,
                        "TEXCOORD_1": 4
                    }
                }
            ]
        }
    ],
    "nodes": [
        {
            "name": "Bistro_Research_Exterior_Paris_Building_01_paris_building_01_bottom_4649",
            "mesh": 0
        }
    ],
    "samplers": [
        {},
        {},
        {}
    ],
    "scenes": [
        {
            "nodes": [
                0
            ]
        }
    ],
    "textures": [
        {
            "source": 0,
            "sampler": 0
        },
        {
            "source": 1,
            "sampler": 1
        },
        {
            "source": 2,
            "sampler": 2
        }
    ],
    "scene": 0
}