{
    "asset": {
        "version": "2.0",
        "generator": "Open Asset Import Library (assimp v6.0.44188438)"
    },
    "extensionsUsed": [
        "KHR_materials_specular",
        "KHR_materials_volume",
        "FB_ngon_encoding"
    ],
    "accessors": [
        {
            "bufferView": 0,
            "byteOffset": 0,
            "componentType": 5126,
            "count": 10,
            "type": "VEC3",
            "max": [
                265.4295959472656,
                1024.70068359375,
                1009.1901245117188
            ],
            "min": [
                2.2250738585072014e-308,
                2.2250738585072014e-308,
                2.2250738585072014e-308
            ]
        },
        {
            "bufferView": 1,
            "byteOffset": 0,
            "componentType": 5126,
            "count": 10,
            "type": "VEC3",
            "max": [
                -0.87744140625,
                0.47966793179512024,
                -0.0038996802177280188
            ],
            "min": [
                -0.8807156085968018,
                2.2250738585072014e-308,
                -0.003914231900125742
            ]
        },
        {
            "bufferView": 2,
            "byteOffset": 0,
            "componentType": 5126,
            "count": 10,
            "type": "VEC3",
            "max": [
                -0.003421768080443144,
                0.0018705663969740272,
                0.9999924898147583
            ],
            "min": [
                -0.0034473512787371874,
                2.2250738585072014e-308,
                2.2250738585072014e-308
            ]
        },
        {
            "bufferView": 3,
            "byteOffset": 0,
            "componentType": 5126,
            "count": 10,
            "type": "VEC2",
            "max": [
                1.1220703125,
                0.738037109375
            ],
            "min": [
                -0.017852783203125,
                2.2250738585072014e-308
            ]
        },
        {
            "bufferView": 4,
            "byteOffset": 0,
            "componentType": 5126,
            "count": 10,
            "type": "VEC2",
            "max": [
                0.939453125,
                0.9921875
            ],
            "min": [
                2.2250738585072014e-308,
                2.2250738585072014e-308
            ]
        },
        {
            "bufferView": 5,
            "byteOffset": 0,
            "componentType": 5125,
            "count": 18,
            "type": "SCALAR",
            "max": [
                9
            ],
            "min": [
                0
            ]
        }
    ],
    "buffers": [
        {
            "byteLength": 592,
            "uri": "Bistro_Research_Exterior_Paris_Building_01_paris_building_01_4195_0.bin"
        }
    ],
    "bufferViews": [
        {
            "buffer": 0,
            "byteOffset": 0,
            "byteLength": 120,
            "target": 34962
        },
        {
            "buffer": 0,
            "byteOffset": 120,
            "byteLength": 120,
            "target": 34962
        },
        {
            "buffer": 0,
            "byteOffset": 240,
            "byteLength": 120,
            "target": 34962
        },
        {
            "buffer": 0,
            "byteOffset": 360,
            "byteLength": 80,
            "target": 34962
        },
        {
            "buffer": 0,
            "byteOffset": 440,
            "byteLength": 80,
            "target": 34962
        },
        {
            "buffer": 0,
            "byteOffset": 520,
            "byteLength": 72,
            "target": 34963
        }
    ],
    "images": [
        {
            "uri": "Textures\\MASTER_Glass_Dirty_MASKED_BaseColor.dds"
        },
        {
            "uri": "Textures\\MASTER_Glass_Dirty_MASKED_Normal.dds"
        },
        {
            "uri": "Textures\\MASTER_Glass_Dirty_MASKED_Specular.dds"
        }
    ],
    "materials": [
        {
            "name": "MASTER_Glass_Dirty_MASKED",
            "pbrMetallicRoughness": {
                "baseColorTexture": {
                    "index": 0
                },
                "metallicFactor": 0.0,
                "roughnessFactor": 0.5527864098548889
            },
            "normalTexture": {
                "index": 1
            },
            "extensions": {
                "KHR_materials_specular": {
                    "specularFactor": 1.0,
                    "specularColorFactor": [
                        0.5,
                        0.5,
                        0.5
                    ],
                    "specularTexture": {
                        "index": 2
                    }
                }
            }
        }
    ],
    "meshes": [
        {
            "name": "Bistro_Research_Exterior_Paris_Building_01_paris_building_01_4195",
            "primitives": [
                {
                    "mode": 4,
                    "material": 0,
                    "indices": 5,
                    "attributes": {
                        "POSITION": 0,
                        "NORMAL": 1,
                        "TANGENT": 2,
                        "TEXCOORD_0": 3,
                        "TEXCOORD_1": 4
                    }
                }
            ]
        }
    ],
    "nodes": [
        {
            "name": "Bistro_Research_Exterior_Paris_Building_01_paris_building_01_4195",
            "mesh": 0
        }
    ],
    "samplers": [
        {},
        {},
        {}
    ],
    "scenes": [
        {
            "nodes": [
                0
            ]
        }
    ],
    "textures": [
        {
            "source": 0,
            "sampler": 0
        },
        {
            "source": 1,
            "sampler": 1
        },
        {
            "source": 2,
            "sampler": 2
        }
    ],
    "scene": 0
}