{
    "asset": {
        "version": "2.0",
        "generator": "Open Asset Import Library (assimp v6.0.44188438)"
    },
    "extensionsUsed": [
        "KHR_materials_specular",
        "KHR_materials_volume",
        "FB_ngon_encoding"
    ],
    "accessors": [
        {
            "bufferView": 0,
            "byteOffset": 0,
            "componentType": 5126,
            "count": 108,
            "type": "VEC3",
            "max": [
                1502.1107177734375,
                2875.59716796875,
                1566.117431640625
            ],
            "min": [
                2.2250738585072014e-308,
                2.2250738585072014e-308,
                2.2250738585072014e-308
            ]
        },
        {
            "bufferView": 1,
            "byteOffset": 0,
            "componentType": 5126,
            "count": 108,
            "type": "VEC3",
            "max": [
                0.9317503571510315,
                0.8601340055465698,
                0.999422550201416
            ],
            "min": [
                -0.8552926182746887,
                -0.8546023368835449,
                -0.8916312456130981
            ]
        },
        {
            "bufferView": 2,
            "byteOffset": 0,
            "componentType": 5126,
            "count": 108,
            "type": "VEC3",
            "max": [
                0.8629464507102966,
                0.5202280282974243,
                0.7801787853240967
            ],
            "min": [
                -0.8616194128990173,
                -0.9406923055648804,
                -0.8046315908432007
            ]
        },
        {
            "bufferView": 3,
            "byteOffset": 0,
            "componentType": 5126,
            "count": 108,
            "type": "VEC2",
            "max": [
                1.0537109375,
                0.551513671875
            ],
            "min": [
                -0.054595947265625,
                -0.2373046875
            ]
        },
        {
            "bufferView": 4,
            "byteOffset": 0,
            "componentType": 5126,
            "count": 108,
            "type": "VEC2",
            "max": [
                0.9921875,
                0.9921875
            ],
            "min": [
                2.2250738585072014e-308,
                2.2250738585072014e-308
            ]
        },
        {
            "bufferView": 5,
            "byteOffset": 0,
            "componentType": 5125,
            "count": 270,
            "type": "SCALAR",
            "max": [
                107
            ],
            "min": [
                0
            ]
        }
    ],
    "buffers": [
        {
            "byteLength": 6696,
            "uri": "Bistro_Research_Exterior_paris_building_05_5123_0.bin"
        }
    ],
    "bufferViews": [
        {
            "buffer": 0,
            "byteOffset": 0,
            "byteLength": 1296,
            "target": 34962
        },
        {
            "buffer": 0,
            "byteOffset": 1296,
            "byteLength": 1296,
            "target": 34962
        },
        {
            "buffer": 0,
            "byteOffset": 2592,
            "byteLength": 1296,
            "target": 34962
        },
        {
            "buffer": 0,
            "byteOffset": 3888,
            "byteLength": 864,
            "target": 34962
        },
        {
            "buffer": 0,
            "byteOffset": 4752,
            "byteLength": 864,
            "target": 34962
        },
        {
            "buffer": 0,
            "byteOffset": 5616,
            "byteLength": 1080,
            "target": 34963
        }
    ],
    "images": [
        {
            "uri": "Textures\\MASTER_Wood_Brown_BaseColor.dds"
        },
        {
            "uri": "Textures\\MASTER_Wood_Brown_Normal.dds"
        },
        {
            "uri": "Textures\\MASTER_Wood_Brown_Specular.dds"
        }
    ],
    "materials": [
        {
            "name": "MASTER_Wood_Brown",
            "pbrMetallicRoughness": {
                "baseColorTexture": {
                    "index": 0
                },
                "metallicFactor": 0.0,
                "roughnessFactor": 0.5527864098548889
            },
            "normalTexture": {
                "index": 1
            },
            "extensions": {
                "KHR_materials_specular": {
                    "specularFactor": 1.0,
                    "specularColorFactor": [
                        0.5,
                        0.5,
                        0.5
                    ],
                    "specularTexture": {
                        "index": 2
                    }
                }
            }
        }
    ],
    "meshes": [
        {
            "name": "Bistro_Research_Exterior_paris_building_05_5123",
            "primitives": [
                {
                    "mode": 4,
                    "material": 0,
                    "indices": 5,
                    "attributes": {
                        "POSITION": 0,
                        "NORMAL": 1,
                        "TANGENT": 2,
                        "TEXCOORD_0": 3,
                        "TEXCOORD_1": 4
                    }
                }
            ]
        }
    ],
    "nodes": [
        {
            "name": "Bistro_Research_Exterior_paris_building_05_5123",
            "mesh": 0
        }
    ],
    "samplers": [
        {},
        {},
        {}
    ],
    "scenes": [
        {
            "nodes": [
                0
            ]
        }
    ],
    "textures": [
        {
            "source": 0,
            "sampler": 0
        },
        {
            "source": 1,
            "sampler": 1
        },
        {
            "source": 2,
            "sampler": 2
        }
    ],
    "scene": 0
}