{
    "asset": {
        "version": "2.0",
        "generator": "Open Asset Import Library (assimp v6.0.44188438)"
    },
    "extensionsUsed": [
        "KHR_materials_specular",
        "KHR_materials_volume",
        "FB_ngon_encoding"
    ],
    "accessors": [
        {
            "bufferView": 0,
            "byteOffset": 0,
            "componentType": 5126,
            "count": 357,
            "type": "VEC3",
            "max": [
                -51.45433044433594,
                -1203.040283203125,
                139.0306396484375
            ],
            "min": [
                -77.27854919433594,
                -1226.270751953125,
                2.2250738585072014e-308
            ]
        },
        {
            "bufferView": 1,
            "byteOffset": 0,
            "componentType": 5126,
            "count": 357,
            "type": "VEC3",
            "max": [
                0.9971842169761658,
                0.9972280263900757,
                0.999984622001648
            ],
            "min": [
                -0.9980831742286682,
                -0.992569088935852,
                -0.999984622001648
            ]
        },
        {
            "bufferView": 2,
            "byteOffset": 0,
            "componentType": 5126,
            "count": 357,
            "type": "VEC3",
            "max": [
                0.9825860261917114,
                0.9937484860420227,
                0.9999924898147583
            ],
            "min": [
                -0.9875755310058594,
                -0.9895252585411072,
                -0.7049835920333862
            ]
        },
        {
            "bufferView": 3,
            "byteOffset": 0,
            "componentType": 5126,
            "count": 357,
            "type": "VEC2",
            "max": [
                0.90478515625,
                0.8865966796875
            ],
            "min": [
                2.2250738585072014e-308,
                2.2250738585072014e-308
            ]
        },
        {
            "bufferView": 4,
            "byteOffset": 0,
            "componentType": 5126,
            "count": 357,
            "type": "VEC2",
            "max": [
                0.990234375,
                0.9921875
            ],
            "min": [
                2.2250738585072014e-308,
                2.2250738585072014e-308
            ]
        },
        {
            "bufferView": 5,
            "byteOffset": 0,
            "componentType": 5125,
            "count": 1236,
            "type": "SCALAR",
            "max": [
                356
            ],
            "min": [
                0
            ]
        }
    ],
    "buffers": [
        {
            "byteLength": 23508,
            "uri": "Bistro_Research_Exterior_Paris_ElectricBox_5989.bin"
        }
    ],
    "bufferViews": [
        {
            "buffer": 0,
            "byteOffset": 0,
            "byteLength": 4284,
            "target": 34962
        },
        {
            "buffer": 0,
            "byteOffset": 4284,
            "byteLength": 4284,
            "target": 34962
        },
        {
            "buffer": 0,
            "byteOffset": 8568,
            "byteLength": 4284,
            "target": 34962
        },
        {
            "buffer": 0,
            "byteOffset": 12852,
            "byteLength": 2856,
            "target": 34962
        },
        {
            "buffer": 0,
            "byteOffset": 15708,
            "byteLength": 2856,
            "target": 34962
        },
        {
            "buffer": 0,
            "byteOffset": 18564,
            "byteLength": 4944,
            "target": 34963
        }
    ],
    "images": [
        {
            "uri": "Textures\\ElectricBox_BaseColor.dds"
        },
        {
            "uri": "Textures\\ElectricBox_Normal.dds"
        },
        {
            "uri": "Textures\\ElectricBox_Specular.dds"
        }
    ],
    "materials": [
        {
            "name": "ElectricBox",
            "pbrMetallicRoughness": {
                "baseColorTexture": {
                    "index": 0
                },
                "metallicFactor": 0.0,
                "roughnessFactor": 0.5527864098548889
            },
            "normalTexture": {
                "index": 1
            },
            "extensions": {
                "KHR_materials_specular": {
                    "specularFactor": 1.0,
                    "specularColorFactor": [
                        0.5,
                        0.5,
                        0.5
                    ],
                    "specularTexture": {
                        "index": 2
                    }
                }
            }
        }
    ],
    "meshes": [
        {
            "name": "Bistro_Research_Exterior_Paris_ElectricBox_5989",
            "primitives": [
                {
                    "mode": 4,
                    "material": 0,
                    "indices": 5,
                    "attributes": {
                        "POSITION": 0,
                        "NORMAL": 1,
                        "TANGENT": 2,
                        "TEXCOORD_0": 3,
                        "TEXCOORD_1": 4
                    }
                }
            ]
        }
    ],
    "nodes": [
        {
            "name": "Bistro_Research_Exterior_Paris_ElectricBox_5989",
            "mesh": 0
        }
    ],
    "samplers": [
        {},
        {},
        {}
    ],
    "scenes": [
        {
            "nodes": [
                0
            ]
        }
    ],
    "textures": [
        {
            "source": 0,
            "sampler": 0
        },
        {
            "source": 1,
            "sampler": 1
        },
        {
            "source": 2,
            "sampler": 2
        }
    ],
    "scene": 0
}