{
    "asset": {
        "version": "2.0",
        "generator": "Open Asset Import Library (assimp v6.0.44188438)"
    },
    "extensionsUsed": [
        "KHR_materials_specular",
        "KHR_materials_volume",
        "FB_ngon_encoding"
    ],
    "accessors": [
        {
            "bufferView": 0,
            "byteOffset": 0,
            "componentType": 5126,
            "count": 2720,
            "type": "VEC3",
            "max": [
                1033.7156982421875,
                1977.9176025390625,
                1957.90087890625
            ],
            "min": [
                2.2250738585072014e-308,
                2.2250738585072014e-308,
                2.2250738585072014e-308
            ]
        },
        {
            "bufferView": 1,
            "byteOffset": 0,
            "componentType": 5126,
            "count": 2720,
            "type": "VEC3",
            "max": [
                0.5755068063735962,
                0.9935877919197083,
                0.999984622001648
            ],
            "min": [
                -0.9944337010383606,
                -0.7743014693260193,
                -0.999984622001648
            ]
        },
        {
            "bufferView": 2,
            "byteOffset": 0,
            "componentType": 5126,
            "count": 2720,
            "type": "VEC3",
            "max": [
                0.8056193590164185,
                0.9705826640129089,
                0.9999924898147583
            ],
            "min": [
                -0.897472620010376,
                -0.912237823009491,
                -0.999992311000824
            ]
        },
        {
            "bufferView": 3,
            "byteOffset": 0,
            "componentType": 5126,
            "count": 2720,
            "type": "VEC2",
            "max": [
                2.31640625,
                1.3115234375
            ],
            "min": [
                -0.3984375,
                -0.025390625
            ]
        },
        {
            "bufferView": 4,
            "byteOffset": 0,
            "componentType": 5126,
            "count": 2720,
            "type": "VEC2",
            "max": [
                0.99072265625,
                0.9921875
            ],
            "min": [
                2.2250738585072014e-308,
                2.2250738585072014e-308
            ]
        },
        {
            "bufferView": 5,
            "byteOffset": 0,
            "componentType": 5125,
            "count": 7860,
            "type": "SCALAR",
            "max": [
                2719
            ],
            "min": [
                0
            ]
        }
    ],
    "buffers": [
        {
            "byteLength": 172880,
            "uri": "Bistro_Research_Exterior_paris_building_04_5025.bin"
        }
    ],
    "bufferViews": [
        {
            "buffer": 0,
            "byteOffset": 0,
            "byteLength": 32640,
            "target": 34962
        },
        {
            "buffer": 0,
            "byteOffset": 32640,
            "byteLength": 32640,
            "target": 34962
        },
        {
            "buffer": 0,
            "byteOffset": 65280,
            "byteLength": 32640,
            "target": 34962
        },
        {
            "buffer": 0,
            "byteOffset": 97920,
            "byteLength": 21760,
            "target": 34962
        },
        {
            "buffer": 0,
            "byteOffset": 119680,
            "byteLength": 21760,
            "target": 34962
        },
        {
            "buffer": 0,
            "byteOffset": 141440,
            "byteLength": 31440,
            "target": 34963
        }
    ],
    "images": [
        {
            "uri": "Textures\\MASTER_Wood_Brown_BaseColor.dds"
        },
        {
            "uri": "Textures\\MASTER_Wood_Brown_Normal.dds"
        },
        {
            "uri": "Textures\\MASTER_Wood_Brown_Specular.dds"
        }
    ],
    "materials": [
        {
            "name": "MASTER_Wood_Brown",
            "pbrMetallicRoughness": {
                "baseColorTexture": {
                    "index": 0
                },
                "metallicFactor": 0.0,
                "roughnessFactor": 0.5527864098548889
            },
            "normalTexture": {
                "index": 1
            },
            "extensions": {
                "KHR_materials_specular": {
                    "specularFactor": 1.0,
                    "specularColorFactor": [
                        0.5,
                        0.5,
                        0.5
                    ],
                    "specularTexture": {
                        "index": 2
                    }
                }
            }
        }
    ],
    "meshes": [
        {
            "name": "Bistro_Research_Exterior_paris_building_04_5025",
            "primitives": [
                {
                    "mode": 4,
                    "material": 0,
                    "indices": 5,
                    "attributes": {
                        "POSITION": 0,
                        "NORMAL": 1,
                        "TANGENT": 2,
                        "TEXCOORD_0": 3,
                        "TEXCOORD_1": 4
                    }
                }
            ]
        }
    ],
    "nodes": [
        {
            "name": "Bistro_Research_Exterior_paris_building_04_5025",
            "mesh": 0
        }
    ],
    "samplers": [
        {},
        {},
        {}
    ],
    "scenes": [
        {
            "nodes": [
                0
            ]
        }
    ],
    "textures": [
        {
            "source": 0,
            "sampler": 0
        },
        {
            "source": 1,
            "sampler": 1
        },
        {
            "source": 2,
            "sampler": 2
        }
    ],
    "scene": 0
}