{
    "asset": {
        "version": "2.0",
        "generator": "Open Asset Import Library (assimp v6.0.44188438)"
    },
    "extensionsUsed": [
        "KHR_materials_specular",
        "KHR_materials_volume",
        "FB_ngon_encoding"
    ],
    "accessors": [
        {
            "bufferView": 0,
            "byteOffset": 0,
            "componentType": 5126,
            "count": 142,
            "type": "VEC3",
            "max": [
                -15.627463340759277,
                212.20260620117188,
                344.7320251464844
            ],
            "min": [
                -121.97261047363281,
                -11.140458106994629,
                2.2250738585072014e-308
            ]
        },
        {
            "bufferView": 1,
            "byteOffset": 0,
            "componentType": 5126,
            "count": 142,
            "type": "VEC3",
            "max": [
                0.9073767066001892,
                0.8703835010528564,
                0.0039429692551493645
            ],
            "min": [
                -0.39990124106407166,
                -0.8586519360542297,
                -0.999984622001648
            ]
        },
        {
            "bufferView": 2,
            "byteOffset": 0,
            "componentType": 5126,
            "count": 142,
            "type": "VEC3",
            "max": [
                0.852141261100769,
                0.9479236602783203,
                0.5963897109031677
            ],
            "min": [
                -0.9237064719200134,
                -0.4488506317138672,
                -0.53251051902771
            ]
        },
        {
            "bufferView": 3,
            "byteOffset": 0,
            "componentType": 5126,
            "count": 142,
            "type": "VEC2",
            "max": [
                0.94580078125,
                0.8057861328125
            ],
            "min": [
                2.2250738585072014e-308,
                2.2250738585072014e-308
            ]
        },
        {
            "bufferView": 4,
            "byteOffset": 0,
            "componentType": 5126,
            "count": 142,
            "type": "VEC2",
            "max": [
                0.9921875,
                0.9921875
            ],
            "min": [
                2.2250738585072014e-308,
                2.2250738585072014e-308
            ]
        },
        {
            "bufferView": 5,
            "byteOffset": 0,
            "componentType": 5125,
            "count": 384,
            "type": "SCALAR",
            "max": [
                141
            ],
            "min": [
                0
            ]
        }
    ],
    "buffers": [
        {
            "byteLength": 8920,
            "uri": "Bistro_Research_Exterior_Paris_Building_01_paris_building_01_bottom_4855.bin"
        }
    ],
    "bufferViews": [
        {
            "buffer": 0,
            "byteOffset": 0,
            "byteLength": 1704,
            "target": 34962
        },
        {
            "buffer": 0,
            "byteOffset": 1704,
            "byteLength": 1704,
            "target": 34962
        },
        {
            "buffer": 0,
            "byteOffset": 3408,
            "byteLength": 1704,
            "target": 34962
        },
        {
            "buffer": 0,
            "byteOffset": 5112,
            "byteLength": 1136,
            "target": 34962
        },
        {
            "buffer": 0,
            "byteOffset": 6248,
            "byteLength": 1136,
            "target": 34962
        },
        {
            "buffer": 0,
            "byteOffset": 7384,
            "byteLength": 1536,
            "target": 34963
        }
    ],
    "images": [
        {
            "uri": "Textures\\MASTER_Bistro_Main_Door_BaseColor.dds"
        },
        {
            "uri": "Textures\\MASTER_Bistro_Main_Door_Normal.dds"
        },
        {
            "uri": "Textures\\MASTER_Bistro_Main_Door_Specular.dds"
        }
    ],
    "materials": [
        {
            "name": "MASTER_Bistro_Main_Door",
            "pbrMetallicRoughness": {
                "baseColorTexture": {
                    "index": 0
                },
                "metallicFactor": 0.0,
                "roughnessFactor": 0.5527864098548889
            },
            "normalTexture": {
                "index": 1
            },
            "extensions": {
                "KHR_materials_specular": {
                    "specularFactor": 1.0,
                    "specularColorFactor": [
                        0.5,
                        0.5,
                        0.5
                    ],
                    "specularTexture": {
                        "index": 2
                    }
                }
            }
        }
    ],
    "meshes": [
        {
            "name": "Bistro_Research_Exterior_Paris_Building_01_paris_building_01_bottom_4855",
            "primitives": [
                {
                    "mode": 4,
                    "material": 0,
                    "indices": 5,
                    "attributes": {
                        "POSITION": 0,
                        "NORMAL": 1,
                        "TANGENT": 2,
                        "TEXCOORD_0": 3,
                        "TEXCOORD_1": 4
                    }
                }
            ]
        }
    ],
    "nodes": [
        {
            "name": "Bistro_Research_Exterior_Paris_Building_01_paris_building_01_bottom_4855",
            "mesh": 0
        }
    ],
    "samplers": [
        {},
        {},
        {}
    ],
    "scenes": [
        {
            "nodes": [
                0
            ]
        }
    ],
    "textures": [
        {
            "source": 0,
            "sampler": 0
        },
        {
            "source": 1,
            "sampler": 1
        },
        {
            "source": 2,
            "sampler": 2
        }
    ],
    "scene": 0
}