{
    "asset": {
        "version": "2.0",
        "generator": "Open Asset Import Library (assimp v6.0.44188438)"
    },
    "extensionsUsed": [
        "KHR_materials_specular",
        "KHR_materials_volume",
        "FB_ngon_encoding"
    ],
    "accessors": [
        {
            "bufferView": 0,
            "byteOffset": 0,
            "componentType": 5126,
            "count": 32931,
            "type": "VEC3",
            "max": [
                5077.99365234375,
                -1727.40087890625,
                1382.864501953125
            ],
            "min": [
                2.2250738585072014e-308,
                -3308.086181640625,
                2.2250738585072014e-308
            ]
        },
        {
            "bufferView": 1,
            "byteOffset": 0,
            "componentType": 5126,
            "count": 32931,
            "type": "VEC3",
            "max": [
                0.999609649181366,
                0.999308705329895,
                0.999984622001648
            ],
            "min": [
                -0.9993086457252502,
                -0.9993600845336914,
                -0.999984622001648
            ]
        },
        {
            "bufferView": 2,
            "byteOffset": 0,
            "componentType": 5126,
            "count": 32931,
            "type": "VEC3",
            "max": [
                0.9999664425849915,
                0.9999829530715942,
                0.9998878836631775
            ],
            "min": [
                -0.9999918937683105,
                -0.9999922513961792,
                -0.9999906420707703
            ]
        },
        {
            "bufferView": 3,
            "byteOffset": 0,
            "componentType": 5126,
            "count": 32931,
            "type": "VEC2",
            "max": [
                1.046875,
                0.9961833953857422
            ],
            "min": [
                -0.04693603515625,
                0.0
            ]
        },
        {
            "bufferView": 4,
            "byteOffset": 0,
            "componentType": 5126,
            "count": 32931,
            "type": "VEC2",
            "max": [
                1.046875,
                0.9961833953857422
            ],
            "min": [
                -0.04693603515625,
                0.0
            ]
        },
        {
            "bufferView": 5,
            "byteOffset": 0,
            "componentType": 5125,
            "count": 79191,
            "type": "SCALAR",
            "max": [
                32930
            ],
            "min": [
                0
            ]
        }
    ],
    "buffers": [
        {
            "byteLength": 2029176,
            "uri": "Bistro_Research_Exterior_Linde_Tree_Large_linde_tree_large_4051_0.bin"
        }
    ],
    "bufferViews": [
        {
            "buffer": 0,
            "byteOffset": 0,
            "byteLength": 395172,
            "target": 34962
        },
        {
            "buffer": 0,
            "byteOffset": 395172,
            "byteLength": 395172,
            "target": 34962
        },
        {
            "buffer": 0,
            "byteOffset": 790344,
            "byteLength": 395172,
            "target": 34962
        },
        {
            "buffer": 0,
            "byteOffset": 1185516,
            "byteLength": 263448,
            "target": 34962
        },
        {
            "buffer": 0,
            "byteOffset": 1448964,
            "byteLength": 263448,
            "target": 34962
        },
        {
            "buffer": 0,
            "byteOffset": 1712412,
            "byteLength": 316764,
            "target": 34963
        }
    ],
    "images": [
        {
            "uri": "Textures\\Foliage_Linde_Tree_Large_Orange_Leaves_BaseColor.dds"
        },
        {
            "uri": "Textures\\Foliage_Linde_Tree_Large_Orange_Leaves_Normal.dds"
        },
        {
            "uri": "Textures\\Foliage_Linde_Tree_Large_Orange_Leaves_Specular.dds"
        }
    ],
    "materials": [
        {
            "name": "Foliage_Linde_Tree_Large_Orange_Leaves.DoubleSided",
            "pbrMetallicRoughness": {
                "baseColorTexture": {
                    "index": 0
                },
                "metallicFactor": 0.0,
                "roughnessFactor": 0.5527864098548889
            },
            "normalTexture": {
                "index": 1
            },
            "extensions": {
                "KHR_materials_specular": {
                    "specularFactor": 1.0,
                    "specularColorFactor": [
                        0.5,
                        0.5,
                        0.5
                    ],
                    "specularTexture": {
                        "index": 2
                    }
                }
            }
        }
    ],
    "meshes": [
        {
            "name": "Bistro_Research_Exterior_Linde_Tree_Large_linde_tree_large_4051",
            "primitives": [
                {
                    "mode": 4,
                    "material": 0,
                    "indices": 5,
                    "attributes": {
                        "POSITION": 0,
                        "NORMAL": 1,
                        "TANGENT": 2,
                        "TEXCOORD_0": 3,
                        "TEXCOORD_1": 4
                    }
                }
            ]
        }
    ],
    "nodes": [
        {
            "name": "Bistro_Research_Exterior_Linde_Tree_Large_linde_tree_large_4051",
            "mesh": 0
        }
    ],
    "samplers": [
        {},
        {},
        {}
    ],
    "scenes": [
        {
            "nodes": [
                0
            ]
        }
    ],
    "textures": [
        {
            "source": 0,
            "sampler": 0
        },
        {
            "source": 1,
            "sampler": 1
        },
        {
            "source": 2,
            "sampler": 2
        }
    ],
    "scene": 0
}