{
    "asset": {
        "version": "2.0",
        "generator": "Open Asset Import Library (assimp v6.0.44188438)"
    },
    "extensionsUsed": [
        "KHR_materials_specular",
        "KHR_materials_volume",
        "FB_ngon_encoding"
    ],
    "accessors": [
        {
            "bufferView": 0,
            "byteOffset": 0,
            "componentType": 5126,
            "count": 272,
            "type": "VEC3",
            "max": [
                2175.9638671875,
                3585.885986328125,
                2364.3642578125
            ],
            "min": [
                2.2250738585072014e-308,
                2.2250738585072014e-308,
                2.2250738585072014e-308
            ]
        },
        {
            "bufferView": 1,
            "byteOffset": 0,
            "componentType": 5126,
            "count": 272,
            "type": "VEC3",
            "max": [
                0.9798367023468018,
                0.994433581829071,
                0.999984622001648
            ],
            "min": [
                -0.9814051389694214,
                -0.9942845702171326,
                -0.999984622001648
            ]
        },
        {
            "bufferView": 2,
            "byteOffset": 0,
            "componentType": 5126,
            "count": 272,
            "type": "VEC3",
            "max": [
                0.9712143540382385,
                0.956594705581665,
                0.9944193363189697
            ],
            "min": [
                -0.9726781249046326,
                -0.9707950353622437,
                -0.9354023337364197
            ]
        },
        {
            "bufferView": 3,
            "byteOffset": 0,
            "componentType": 5126,
            "count": 272,
            "type": "VEC2",
            "max": [
                1.1689453125,
                1.9814453125
            ],
            "min": [
                -0.259521484375,
                2.2250738585072014e-308
            ]
        },
        {
            "bufferView": 4,
            "byteOffset": 0,
            "componentType": 5126,
            "count": 272,
            "type": "VEC2",
            "max": [
                0.98779296875,
                0.9921875
            ],
            "min": [
                2.2250738585072014e-308,
                2.2250738585072014e-308
            ]
        },
        {
            "bufferView": 5,
            "byteOffset": 0,
            "componentType": 5125,
            "count": 714,
            "type": "SCALAR",
            "max": [
                271
            ],
            "min": [
                0
            ]
        }
    ],
    "buffers": [
        {
            "byteLength": 17000,
            "uri": "Bistro_Research_Exterior_Paris_Chimney_02A3_5971.bin"
        }
    ],
    "bufferViews": [
        {
            "buffer": 0,
            "byteOffset": 0,
            "byteLength": 3264,
            "target": 34962
        },
        {
            "buffer": 0,
            "byteOffset": 3264,
            "byteLength": 3264,
            "target": 34962
        },
        {
            "buffer": 0,
            "byteOffset": 6528,
            "byteLength": 3264,
            "target": 34962
        },
        {
            "buffer": 0,
            "byteOffset": 9792,
            "byteLength": 2176,
            "target": 34962
        },
        {
            "buffer": 0,
            "byteOffset": 11968,
            "byteLength": 2176,
            "target": 34962
        },
        {
            "buffer": 0,
            "byteOffset": 14144,
            "byteLength": 2856,
            "target": 34963
        }
    ],
    "images": [
        {
            "uri": "Textures\\Concrete_BaseColor.dds"
        },
        {
            "uri": "Textures\\Concrete_Normal.dds"
        },
        {
            "uri": "Textures\\Concrete_Specular.dds"
        }
    ],
    "materials": [
        {
            "name": "Concrete",
            "pbrMetallicRoughness": {
                "baseColorTexture": {
                    "index": 0
                },
                "metallicFactor": 0.0,
                "roughnessFactor": 0.5527864098548889
            },
            "normalTexture": {
                "index": 1
            },
            "extensions": {
                "KHR_materials_specular": {
                    "specularFactor": 1.0,
                    "specularColorFactor": [
                        0.5,
                        0.5,
                        0.5
                    ],
                    "specularTexture": {
                        "index": 2
                    }
                }
            }
        }
    ],
    "meshes": [
        {
            "name": "Bistro_Research_Exterior_Paris_Chimney_02A3_5971",
            "primitives": [
                {
                    "mode": 4,
                    "material": 0,
                    "indices": 5,
                    "attributes": {
                        "POSITION": 0,
                        "NORMAL": 1,
                        "TANGENT": 2,
                        "TEXCOORD_0": 3,
                        "TEXCOORD_1": 4
                    }
                }
            ]
        }
    ],
    "nodes": [
        {
            "name": "Bistro_Research_Exterior_Paris_Chimney_02A3_5971",
            "mesh": 0
        }
    ],
    "samplers": [
        {},
        {},
        {}
    ],
    "scenes": [
        {
            "nodes": [
                0
            ]
        }
    ],
    "textures": [
        {
            "source": 0,
            "sampler": 0
        },
        {
            "source": 1,
            "sampler": 1
        },
        {
            "source": 2,
            "sampler": 2
        }
    ],
    "scene": 0
}