{
    "asset": {
        "version": "2.0",
        "generator": "Open Asset Import Library (assimp v6.0.44188438)"
    },
    "extensionsUsed": [
        "KHR_materials_specular",
        "KHR_materials_volume",
        "FB_ngon_encoding"
    ],
    "accessors": [
        {
            "bufferView": 0,
            "byteOffset": 0,
            "componentType": 5126,
            "count": 4244,
            "type": "VEC3",
            "max": [
                1868.607666015625,
                4651.283203125,
                1581.8787841796875
            ],
            "min": [
                2.2250738585072014e-308,
                2.2250738585072014e-308,
                2.2250738585072014e-308
            ]
        },
        {
            "bufferView": 1,
            "byteOffset": 0,
            "componentType": 5126,
            "count": 4244,
            "type": "VEC3",
            "max": [
                0.9826404452323914,
                0.9768164157867432,
                0.999984622001648
            ],
            "min": [
                -0.9982666969299316,
                -0.9904097318649292,
                -0.999984622001648
            ]
        },
        {
            "bufferView": 2,
            "byteOffset": 0,
            "componentType": 5126,
            "count": 4244,
            "type": "VEC3",
            "max": [
                0.9966761469841003,
                0.9987834095954895,
                0.9999924302101135
            ],
            "min": [
                -0.997117817401886,
                -0.9982433319091797,
                -0.9999922513961792
            ]
        },
        {
            "bufferView": 3,
            "byteOffset": 0,
            "componentType": 5126,
            "count": 4244,
            "type": "VEC2",
            "max": [
                18.46875,
                148.0
            ],
            "min": [
                -124.0625,
                -69.5
            ]
        },
        {
            "bufferView": 4,
            "byteOffset": 0,
            "componentType": 5126,
            "count": 4244,
            "type": "VEC2",
            "max": [
                0.9892578125,
                0.9921875
            ],
            "min": [
                2.2250738585072014e-308,
                2.2250738585072014e-308
            ]
        },
        {
            "bufferView": 5,
            "byteOffset": 0,
            "componentType": 5125,
            "count": 16032,
            "type": "SCALAR",
            "max": [
                4243
            ],
            "min": [
                0
            ]
        }
    ],
    "buffers": [
        {
            "byteLength": 284816,
            "uri": "Bistro_Research_Exterior_Paris_Building_08_paris_building_08_3__5405.bin"
        }
    ],
    "bufferViews": [
        {
            "buffer": 0,
            "byteOffset": 0,
            "byteLength": 50928,
            "target": 34962
        },
        {
            "buffer": 0,
            "byteOffset": 50928,
            "byteLength": 50928,
            "target": 34962
        },
        {
            "buffer": 0,
            "byteOffset": 101856,
            "byteLength": 50928,
            "target": 34962
        },
        {
            "buffer": 0,
            "byteOffset": 152784,
            "byteLength": 33952,
            "target": 34962
        },
        {
            "buffer": 0,
            "byteOffset": 186736,
            "byteLength": 33952,
            "target": 34962
        },
        {
            "buffer": 0,
            "byteOffset": 220688,
            "byteLength": 64128,
            "target": 34963
        }
    ],
    "images": [
        {
            "uri": "Textures\\MASTER_Wood_Painted_Green_BaseColor.dds"
        },
        {
            "uri": "Textures\\MASTER_Wood_Painted_Green_Normal.dds"
        },
        {
            "uri": "Textures\\MASTER_Wood_Painted_Green_Specular.dds"
        }
    ],
    "materials": [
        {
            "name": "MASTER_Wood_Painted_Green",
            "pbrMetallicRoughness": {
                "baseColorTexture": {
                    "index": 0
                },
                "metallicFactor": 0.0,
                "roughnessFactor": 0.5527864098548889
            },
            "normalTexture": {
                "index": 1
            },
            "extensions": {
                "KHR_materials_specular": {
                    "specularFactor": 1.0,
                    "specularColorFactor": [
                        0.5,
                        0.5,
                        0.5
                    ],
                    "specularTexture": {
                        "index": 2
                    }
                }
            }
        }
    ],
    "meshes": [
        {
            "name": "Bistro_Research_Exterior_Paris_Building_08_paris_building_08_3__5405",
            "primitives": [
                {
                    "mode": 4,
                    "material": 0,
                    "indices": 5,
                    "attributes": {
                        "POSITION": 0,
                        "NORMAL": 1,
                        "TANGENT": 2,
                        "TEXCOORD_0": 3,
                        "TEXCOORD_1": 4
                    }
                }
            ]
        }
    ],
    "nodes": [
        {
            "name": "Bistro_Research_Exterior_Paris_Building_08_paris_building_08_3__5405",
            "mesh": 0
        }
    ],
    "samplers": [
        {},
        {},
        {}
    ],
    "scenes": [
        {
            "nodes": [
                0
            ]
        }
    ],
    "textures": [
        {
            "source": 0,
            "sampler": 0
        },
        {
            "source": 1,
            "sampler": 1
        },
        {
            "source": 2,
            "sampler": 2
        }
    ],
    "scene": 0
}