{
    "asset": {
        "version": "2.0",
        "generator": "Open Asset Import Library (assimp v6.0.44188438)"
    },
    "extensionsUsed": [
        "KHR_materials_specular",
        "KHR_materials_volume",
        "FB_ngon_encoding"
    ],
    "accessors": [
        {
            "bufferView": 0,
            "byteOffset": 0,
            "componentType": 5126,
            "count": 10124,
            "type": "VEC3",
            "max": [
                -389.1441650390625,
                472.0769958496094,
                481.238525390625
            ],
            "min": [
                -477.16632080078125,
                2.2250738585072014e-308,
                2.2250738585072014e-308
            ]
        },
        {
            "bufferView": 1,
            "byteOffset": 0,
            "componentType": 5126,
            "count": 10124,
            "type": "VEC3",
            "max": [
                0.9999219179153442,
                0.9998001456260681,
                0.999984622001648
            ],
            "min": [
                -0.9998001456260681,
                -0.999609649181366,
                -0.999984622001648
            ]
        },
        {
            "bufferView": 2,
            "byteOffset": 0,
            "componentType": 5126,
            "count": 10124,
            "type": "VEC3",
            "max": [
                0.9993468523025513,
                0.9998090863227844,
                0.9999924898147583
            ],
            "min": [
                -0.9999921917915344,
                -0.9999902844429016,
                -0.9999924898147583
            ]
        },
        {
            "bufferView": 3,
            "byteOffset": 0,
            "componentType": 5126,
            "count": 10124,
            "type": "VEC2",
            "max": [
                0.99755859375,
                0.9982328414916992
            ],
            "min": [
                2.2250738585072014e-308,
                2.2250738585072014e-308
            ]
        },
        {
            "bufferView": 4,
            "byteOffset": 0,
            "componentType": 5126,
            "count": 10124,
            "type": "VEC2",
            "max": [
                0.99072265625,
                0.9921875
            ],
            "min": [
                2.2250738585072014e-308,
                2.2250738585072014e-308
            ]
        },
        {
            "bufferView": 5,
            "byteOffset": 0,
            "componentType": 5125,
            "count": 31986,
            "type": "SCALAR",
            "max": [
                10123
            ],
            "min": [
                0
            ]
        }
    ],
    "buffers": [
        {
            "byteLength": 654392,
            "uri": "Bistro_Research_Exterior_Paris_StreetLight_01a_6257.bin"
        }
    ],
    "bufferViews": [
        {
            "buffer": 0,
            "byteOffset": 0,
            "byteLength": 121488,
            "target": 34962
        },
        {
            "buffer": 0,
            "byteOffset": 121488,
            "byteLength": 121488,
            "target": 34962
        },
        {
            "buffer": 0,
            "byteOffset": 242976,
            "byteLength": 121488,
            "target": 34962
        },
        {
            "buffer": 0,
            "byteOffset": 364464,
            "byteLength": 80992,
            "target": 34962
        },
        {
            "buffer": 0,
            "byteOffset": 445456,
            "byteLength": 80992,
            "target": 34962
        },
        {
            "buffer": 0,
            "byteOffset": 526448,
            "byteLength": 127944,
            "target": 34963
        }
    ],
    "images": [
        {
            "uri": "Textures\\Streetlight_Metal_BaseColor.dds"
        },
        {
            "uri": "Textures\\Streetlight_Metal_Normal.dds"
        },
        {
            "uri": "Textures\\Streetlight_Metal_Specular.dds"
        }
    ],
    "materials": [
        {
            "name": "Streetlight_Metal",
            "pbrMetallicRoughness": {
                "baseColorTexture": {
                    "index": 0
                },
                "metallicFactor": 0.0,
                "roughnessFactor": 0.5527864098548889
            },
            "normalTexture": {
                "index": 1
            },
            "extensions": {
                "KHR_materials_specular": {
                    "specularFactor": 1.0,
                    "specularColorFactor": [
                        0.5,
                        0.5,
                        0.5
                    ],
                    "specularTexture": {
                        "index": 2
                    }
                }
            }
        }
    ],
    "meshes": [
        {
            "name": "Bistro_Research_Exterior_Paris_StreetLight_01a_6257",
            "primitives": [
                {
                    "mode": 4,
                    "material": 0,
                    "indices": 5,
                    "attributes": {
                        "POSITION": 0,
                        "NORMAL": 1,
                        "TANGENT": 2,
                        "TEXCOORD_0": 3,
                        "TEXCOORD_1": 4
                    }
                }
            ]
        }
    ],
    "nodes": [
        {
            "name": "Bistro_Research_Exterior_Paris_StreetLight_01a_6257",
            "mesh": 0
        }
    ],
    "samplers": [
        {},
        {},
        {}
    ],
    "scenes": [
        {
            "nodes": [
                0
            ]
        }
    ],
    "textures": [
        {
            "source": 0,
            "sampler": 0
        },
        {
            "source": 1,
            "sampler": 1
        },
        {
            "source": 2,
            "sampler": 2
        }
    ],
    "scene": 0
}