{
    "asset": {
        "version": "2.0",
        "generator": "Open Asset Import Library (assimp v6.0.44188438)"
    },
    "extensionsUsed": [
        "KHR_materials_specular",
        "KHR_materials_volume",
        "FB_ngon_encoding"
    ],
    "accessors": [
        {
            "bufferView": 0,
            "byteOffset": 0,
            "componentType": 5126,
            "count": 4,
            "type": "VEC3",
            "max": [
                109.60003662109375,
                820.52783203125,
                1474.4908447265625
            ],
            "min": [
                2.2250738585072014e-308,
                2.2250738585072014e-308,
                2.2250738585072014e-308
            ]
        },
        {
            "bufferView": 1,
            "byteOffset": 0,
            "componentType": 5126,
            "count": 4,
            "type": "VEC3",
            "max": [
                -0.8807156085968018,
                0.47362926602363586,
                -0.003914231900125742
            ],
            "min": [
                -0.8807156085968018,
                2.2250738585072014e-308,
                -0.003914231900125742
            ]
        },
        {
            "bufferView": 2,
            "byteOffset": 0,
            "componentType": 5126,
            "count": 4,
            "type": "VEC3",
            "max": [
                -0.4736328721046448,
                -0.8807223439216614,
                -0.000001169821189250797
            ],
            "min": [
                -0.47363290190696716,
                -0.8807224035263062,
                -0.0000011700821005433681
            ]
        },
        {
            "bufferView": 3,
            "byteOffset": 0,
            "componentType": 5126,
            "count": 4,
            "type": "VEC2",
            "max": [
                0.57861328125,
                0.48193359375
            ],
            "min": [
                2.2250738585072014e-308,
                2.2250738585072014e-308
            ]
        },
        {
            "bufferView": 4,
            "byteOffset": 0,
            "componentType": 5126,
            "count": 4,
            "type": "VEC2",
            "max": [
                0.9921875,
                0.9921875
            ],
            "min": [
                2.2250738585072014e-308,
                2.2250738585072014e-308
            ]
        },
        {
            "bufferView": 5,
            "byteOffset": 0,
            "componentType": 5125,
            "count": 6,
            "type": "SCALAR",
            "max": [
                3
            ],
            "min": [
                0
            ]
        }
    ],
    "buffers": [
        {
            "byteLength": 232,
            "uri": "Bistro_Research_Exterior_Paris_Building_01_paris_building_01_4255.bin"
        }
    ],
    "bufferViews": [
        {
            "buffer": 0,
            "byteOffset": 0,
            "byteLength": 48,
            "target": 34962
        },
        {
            "buffer": 0,
            "byteOffset": 48,
            "byteLength": 48,
            "target": 34962
        },
        {
            "buffer": 0,
            "byteOffset": 96,
            "byteLength": 48,
            "target": 34962
        },
        {
            "buffer": 0,
            "byteOffset": 144,
            "byteLength": 32,
            "target": 34962
        },
        {
            "buffer": 0,
            "byteOffset": 176,
            "byteLength": 32,
            "target": 34962
        },
        {
            "buffer": 0,
            "byteOffset": 208,
            "byteLength": 24,
            "target": 34963
        }
    ],
    "images": [
        {
            "uri": "Textures\\MASTER_Forge_Metal_BaseColor.dds"
        },
        {
            "uri": "Textures\\MASTER_Forge_Metal_Normal.dds"
        },
        {
            "uri": "Textures\\MASTER_Forge_Metal_Specular.dds"
        }
    ],
    "materials": [
        {
            "name": "MASTER_Forge_Metal",
            "pbrMetallicRoughness": {
                "baseColorTexture": {
                    "index": 0
                },
                "metallicFactor": 0.0,
                "roughnessFactor": 0.5527864098548889
            },
            "normalTexture": {
                "index": 1
            },
            "extensions": {
                "KHR_materials_specular": {
                    "specularFactor": 1.0,
                    "specularColorFactor": [
                        0.5,
                        0.5,
                        0.5
                    ],
                    "specularTexture": {
                        "index": 2
                    }
                }
            }
        }
    ],
    "meshes": [
        {
            "name": "Bistro_Research_Exterior_Paris_Building_01_paris_building_01_4255",
            "primitives": [
                {
                    "mode": 4,
                    "material": 0,
                    "indices": 5,
                    "attributes": {
                        "POSITION": 0,
                        "NORMAL": 1,
                        "TANGENT": 2,
                        "TEXCOORD_0": 3,
                        "TEXCOORD_1": 4
                    }
                }
            ]
        }
    ],
    "nodes": [
        {
            "name": "Bistro_Research_Exterior_Paris_Building_01_paris_building_01_4255",
            "mesh": 0
        }
    ],
    "samplers": [
        {},
        {},
        {}
    ],
    "scenes": [
        {
            "nodes": [
                0
            ]
        }
    ],
    "textures": [
        {
            "source": 0,
            "sampler": 0
        },
        {
            "source": 1,
            "sampler": 1
        },
        {
            "source": 2,
            "sampler": 2
        }
    ],
    "scene": 0
}