{
    "asset": {
        "version": "2.0",
        "generator": "Open Asset Import Library (assimp v6.0.44188438)"
    },
    "extensionsUsed": [
        "KHR_materials_specular",
        "KHR_materials_volume",
        "FB_ngon_encoding"
    ],
    "accessors": [
        {
            "bufferView": 0,
            "byteOffset": 0,
            "componentType": 5126,
            "count": 466,
            "type": "VEC3",
            "max": [
                -313.083740234375,
                532.61767578125,
                110.87106323242188
            ],
            "min": [
                -323.97711181640625,
                2.2250738585072014e-308,
                2.2250738585072014e-308
            ]
        },
        {
            "bufferView": 1,
            "byteOffset": 0,
            "componentType": 5126,
            "count": 466,
            "type": "VEC3",
            "max": [
                0.998239278793335,
                0.9982667565345764,
                0.999984622001648
            ],
            "min": [
                -0.9986953735351563,
                -0.9986746907234192,
                -0.999984622001648
            ]
        },
        {
            "bufferView": 2,
            "byteOffset": 0,
            "componentType": 5126,
            "count": 466,
            "type": "VEC3",
            "max": [
                0.9986706376075745,
                0.9982114434242249,
                0.7439011931419373
            ],
            "min": [
                -0.9982734322547913,
                -0.9987030029296875,
                -0.5832591652870178
            ]
        },
        {
            "bufferView": 3,
            "byteOffset": 0,
            "componentType": 5126,
            "count": 466,
            "type": "VEC2",
            "max": [
                0.9912109375,
                0.9926567077636719
            ],
            "min": [
                2.2250738585072014e-308,
                2.2250738585072014e-308
            ]
        },
        {
            "bufferView": 4,
            "byteOffset": 0,
            "componentType": 5126,
            "count": 466,
            "type": "VEC2",
            "max": [
                0.9892578125,
                0.9921875
            ],
            "min": [
                2.2250738585072014e-308,
                2.2250738585072014e-308
            ]
        },
        {
            "bufferView": 5,
            "byteOffset": 0,
            "componentType": 5125,
            "count": 1464,
            "type": "SCALAR",
            "max": [
                465
            ],
            "min": [
                0
            ]
        }
    ],
    "buffers": [
        {
            "byteLength": 30088,
            "uri": "Bistro_Research_Exterior_Paris_Ashtray_01_mesh___10__4077.bin"
        }
    ],
    "bufferViews": [
        {
            "buffer": 0,
            "byteOffset": 0,
            "byteLength": 5592,
            "target": 34962
        },
        {
            "buffer": 0,
            "byteOffset": 5592,
            "byteLength": 5592,
            "target": 34962
        },
        {
            "buffer": 0,
            "byteOffset": 11184,
            "byteLength": 5592,
            "target": 34962
        },
        {
            "buffer": 0,
            "byteOffset": 16776,
            "byteLength": 3728,
            "target": 34962
        },
        {
            "buffer": 0,
            "byteOffset": 20504,
            "byteLength": 3728,
            "target": 34962
        },
        {
            "buffer": 0,
            "byteOffset": 24232,
            "byteLength": 5856,
            "target": 34963
        }
    ],
    "images": [
        {
            "uri": "Textures\\Ashtray_BaseColor.dds"
        },
        {
            "uri": "Textures\\Ashtray_Normal.dds"
        },
        {
            "uri": "Textures\\Ashtray_Specular.dds"
        }
    ],
    "materials": [
        {
            "name": "Ashtray",
            "pbrMetallicRoughness": {
                "baseColorTexture": {
                    "index": 0
                },
                "metallicFactor": 0.0,
                "roughnessFactor": 0.5527864098548889
            },
            "normalTexture": {
                "index": 1
            },
            "extensions": {
                "KHR_materials_specular": {
                    "specularFactor": 1.0,
                    "specularColorFactor": [
                        0.5,
                        0.5,
                        0.5
                    ],
                    "specularTexture": {
                        "index": 2
                    }
                }
            }
        }
    ],
    "meshes": [
        {
            "name": "Bistro_Research_Exterior_Paris_Ashtray_01_mesh___10__4077",
            "primitives": [
                {
                    "mode": 4,
                    "material": 0,
                    "indices": 5,
                    "attributes": {
                        "POSITION": 0,
                        "NORMAL": 1,
                        "TANGENT": 2,
                        "TEXCOORD_0": 3,
                        "TEXCOORD_1": 4
                    }
                }
            ]
        }
    ],
    "nodes": [
        {
            "name": "Bistro_Research_Exterior_Paris_Ashtray_01_mesh___10__4077",
            "mesh": 0
        }
    ],
    "samplers": [
        {},
        {},
        {}
    ],
    "scenes": [
        {
            "nodes": [
                0
            ]
        }
    ],
    "textures": [
        {
            "source": 0,
            "sampler": 0
        },
        {
            "source": 1,
            "sampler": 1
        },
        {
            "source": 2,
            "sampler": 2
        }
    ],
    "scene": 0
}