{
    "asset": {
        "version": "2.0",
        "generator": "Open Asset Import Library (assimp v6.0.44188438)"
    },
    "extensionsUsed": [
        "KHR_materials_specular",
        "KHR_materials_volume",
        "FB_ngon_encoding"
    ],
    "accessors": [
        {
            "bufferView": 0,
            "byteOffset": 0,
            "componentType": 5126,
            "count": 1246,
            "type": "VEC3",
            "max": [
                1140.9180908203125,
                -1382.83984375,
                2179.5146484375
            ],
            "min": [
                2.2250738585072014e-308,
                -1679.465576171875,
                2.2250738585072014e-308
            ]
        },
        {
            "bufferView": 1,
            "byteOffset": 0,
            "componentType": 5126,
            "count": 1246,
            "type": "VEC3",
            "max": [
                0.9854509830474854,
                0.9998001456260681,
                0.9931195378303528
            ],
            "min": [
                -0.9854509830474854,
                -0.999796986579895,
                -0.4751458764076233
            ]
        },
        {
            "bufferView": 2,
            "byteOffset": 0,
            "componentType": 5126,
            "count": 1246,
            "type": "VEC3",
            "max": [
                0.9889653325080872,
                0.9631337523460388,
                0.9997791051864624
            ],
            "min": [
                -0.9883262515068054,
                -0.9932581782341003,
                -0.9644885063171387
            ]
        },
        {
            "bufferView": 3,
            "byteOffset": 0,
            "componentType": 5126,
            "count": 1246,
            "type": "VEC2",
            "max": [
                1.0537109375,
                2.0126953125
            ],
            "min": [
                2.2250738585072014e-308,
                2.2250738585072014e-308
            ]
        },
        {
            "bufferView": 4,
            "byteOffset": 0,
            "componentType": 5126,
            "count": 1246,
            "type": "VEC2",
            "max": [
                0.98486328125,
                0.508056640625
            ],
            "min": [
                2.2250738585072014e-308,
                2.2250738585072014e-308
            ]
        },
        {
            "bufferView": 5,
            "byteOffset": 0,
            "componentType": 5125,
            "count": 3780,
            "type": "SCALAR",
            "max": [
                1245
            ],
            "min": [
                0
            ]
        }
    ],
    "buffers": [
        {
            "byteLength": 79912,
            "uri": "Bistro_Research_Exterior_Paris_Chimney_02C_5975_2.bin"
        }
    ],
    "bufferViews": [
        {
            "buffer": 0,
            "byteOffset": 0,
            "byteLength": 14952,
            "target": 34962
        },
        {
            "buffer": 0,
            "byteOffset": 14952,
            "byteLength": 14952,
            "target": 34962
        },
        {
            "buffer": 0,
            "byteOffset": 29904,
            "byteLength": 14952,
            "target": 34962
        },
        {
            "buffer": 0,
            "byteOffset": 44856,
            "byteLength": 9968,
            "target": 34962
        },
        {
            "buffer": 0,
            "byteOffset": 54824,
            "byteLength": 9968,
            "target": 34962
        },
        {
            "buffer": 0,
            "byteOffset": 64792,
            "byteLength": 15120,
            "target": 34963
        }
    ],
    "images": [
        {
            "uri": "Textures\\MASTER_Black_Metal_BaseColor.dds"
        },
        {
            "uri": "Textures\\MASTER_Black_Metal_Normal.dds"
        },
        {
            "uri": "Textures\\MASTER_Black_Metal_Specular.dds"
        }
    ],
    "materials": [
        {
            "name": "MASTER_Black_Metal",
            "pbrMetallicRoughness": {
                "baseColorTexture": {
                    "index": 0
                },
                "metallicFactor": 0.0,
                "roughnessFactor": 0.5527864098548889
            },
            "normalTexture": {
                "index": 1
            },
            "extensions": {
                "KHR_materials_specular": {
                    "specularFactor": 1.0,
                    "specularColorFactor": [
                        0.5,
                        0.5,
                        0.5
                    ],
                    "specularTexture": {
                        "index": 2
                    }
                }
            }
        }
    ],
    "meshes": [
        {
            "name": "Bistro_Research_Exterior_Paris_Chimney_02C_5975",
            "primitives": [
                {
                    "mode": 4,
                    "material": 0,
                    "indices": 5,
                    "attributes": {
                        "POSITION": 0,
                        "NORMAL": 1,
                        "TANGENT": 2,
                        "TEXCOORD_0": 3,
                        "TEXCOORD_1": 4
                    }
                }
            ]
        }
    ],
    "nodes": [
        {
            "name": "Bistro_Research_Exterior_Paris_Chimney_02C_5975",
            "mesh": 0
        }
    ],
    "samplers": [
        {},
        {},
        {}
    ],
    "scenes": [
        {
            "nodes": [
                0
            ]
        }
    ],
    "textures": [
        {
            "source": 0,
            "sampler": 0
        },
        {
            "source": 1,
            "sampler": 1
        },
        {
            "source": 2,
            "sampler": 2
        }
    ],
    "scene": 0
}