{
    "asset": {
        "version": "2.0",
        "generator": "Open Asset Import Library (assimp v6.0.44188438)"
    },
    "extensionsUsed": [
        "KHR_materials_specular",
        "KHR_materials_volume",
        "FB_ngon_encoding"
    ],
    "accessors": [
        {
            "bufferView": 0,
            "byteOffset": 0,
            "componentType": 5126,
            "count": 3600,
            "type": "VEC3",
            "max": [
                973.5888061523438,
                2043.1593017578125,
                1494.4739990234375
            ],
            "min": [
                2.2250738585072014e-308,
                2.2250738585072014e-308,
                2.2250738585072014e-308
            ]
        },
        {
            "bufferView": 1,
            "byteOffset": 0,
            "componentType": 5126,
            "count": 3600,
            "type": "VEC3",
            "max": [
                0.999609649181366,
                0.9712715148925781,
                0.999984622001648
            ],
            "min": [
                -0.9993700981140137,
                -0.9726294279098511,
                -0.999984622001648
            ]
        },
        {
            "bufferView": 2,
            "byteOffset": 0,
            "componentType": 5126,
            "count": 3600,
            "type": "VEC3",
            "max": [
                0.7812516093254089,
                0.7074851989746094,
                0.9999924302101135
            ],
            "min": [
                -0.9999399781227112,
                -0.9996174573898315,
                -0.9999923706054688
            ]
        },
        {
            "bufferView": 3,
            "byteOffset": 0,
            "componentType": 5126,
            "count": 3600,
            "type": "VEC2",
            "max": [
                2.650390625,
                2.0791015625
            ],
            "min": [
                -0.402099609375,
                -0.376953125
            ]
        },
        {
            "bufferView": 4,
            "byteOffset": 0,
            "componentType": 5126,
            "count": 3600,
            "type": "VEC2",
            "max": [
                0.99169921875,
                0.9921875
            ],
            "min": [
                2.2250738585072014e-308,
                2.2250738585072014e-308
            ]
        },
        {
            "bufferView": 5,
            "byteOffset": 0,
            "componentType": 5125,
            "count": 14976,
            "type": "SCALAR",
            "max": [
                3599
            ],
            "min": [
                0
            ]
        }
    ],
    "buffers": [
        {
            "byteLength": 247104,
            "uri": "Bistro_Research_Exterior_paris_building_04_5013.bin"
        }
    ],
    "bufferViews": [
        {
            "buffer": 0,
            "byteOffset": 0,
            "byteLength": 43200,
            "target": 34962
        },
        {
            "buffer": 0,
            "byteOffset": 43200,
            "byteLength": 43200,
            "target": 34962
        },
        {
            "buffer": 0,
            "byteOffset": 86400,
            "byteLength": 43200,
            "target": 34962
        },
        {
            "buffer": 0,
            "byteOffset": 129600,
            "byteLength": 28800,
            "target": 34962
        },
        {
            "buffer": 0,
            "byteOffset": 158400,
            "byteLength": 28800,
            "target": 34962
        },
        {
            "buffer": 0,
            "byteOffset": 187200,
            "byteLength": 59904,
            "target": 34963
        }
    ],
    "images": [
        {
            "uri": "Textures\\MASTER_Black_Metal_BaseColor.dds"
        },
        {
            "uri": "Textures\\MASTER_Black_Metal_Normal.dds"
        },
        {
            "uri": "Textures\\MASTER_Black_Metal_Specular.dds"
        }
    ],
    "materials": [
        {
            "name": "MASTER_Black_Metal",
            "pbrMetallicRoughness": {
                "baseColorTexture": {
                    "index": 0
                },
                "metallicFactor": 0.0,
                "roughnessFactor": 0.5527864098548889
            },
            "normalTexture": {
                "index": 1
            },
            "extensions": {
                "KHR_materials_specular": {
                    "specularFactor": 1.0,
                    "specularColorFactor": [
                        0.5,
                        0.5,
                        0.5
                    ],
                    "specularTexture": {
                        "index": 2
                    }
                }
            }
        }
    ],
    "meshes": [
        {
            "name": "Bistro_Research_Exterior_paris_building_04_5013",
            "primitives": [
                {
                    "mode": 4,
                    "material": 0,
                    "indices": 5,
                    "attributes": {
                        "POSITION": 0,
                        "NORMAL": 1,
                        "TANGENT": 2,
                        "TEXCOORD_0": 3,
                        "TEXCOORD_1": 4
                    }
                }
            ]
        }
    ],
    "nodes": [
        {
            "name": "Bistro_Research_Exterior_paris_building_04_5013",
            "mesh": 0
        }
    ],
    "samplers": [
        {},
        {},
        {}
    ],
    "scenes": [
        {
            "nodes": [
                0
            ]
        }
    ],
    "textures": [
        {
            "source": 0,
            "sampler": 0
        },
        {
            "source": 1,
            "sampler": 1
        },
        {
            "source": 2,
            "sampler": 2
        }
    ],
    "scene": 0
}