{
    "asset": {
        "version": "2.0",
        "generator": "Open Asset Import Library (assimp v6.0.44188438)"
    },
    "extensionsUsed": [
        "KHR_materials_specular",
        "KHR_materials_volume",
        "FB_ngon_encoding"
    ],
    "accessors": [
        {
            "bufferView": 0,
            "byteOffset": 0,
            "componentType": 5126,
            "count": 6911,
            "type": "VEC3",
            "max": [
                2874.133544921875,
                -2093.801513671875,
                1266.077880859375
            ],
            "min": [
                2.2250738585072014e-308,
                -2732.327880859375,
                2.2250738585072014e-308
            ]
        },
        {
            "bufferView": 1,
            "byteOffset": 0,
            "componentType": 5126,
            "count": 6911,
            "type": "VEC3",
            "max": [
                0.9870956540107727,
                0.9972280263900757,
                0.999984622001648
            ],
            "min": [
                -0.9966185688972473,
                -0.9965651631355286,
                -0.999984622001648
            ]
        },
        {
            "bufferView": 2,
            "byteOffset": 0,
            "componentType": 5126,
            "count": 6911,
            "type": "VEC3",
            "max": [
                0.9982340931892395,
                0.9836886525154114,
                0.9999923706054688
            ],
            "min": [
                -0.9977554082870483,
                -0.9996504187583923,
                -0.9999923706054688
            ]
        },
        {
            "bufferView": 3,
            "byteOffset": 0,
            "componentType": 5126,
            "count": 6911,
            "type": "VEC2",
            "max": [
                2.1171875,
                1.58447265625
            ],
            "min": [
                -0.59716796875,
                -0.3056640625
            ]
        },
        {
            "bufferView": 4,
            "byteOffset": 0,
            "componentType": 5126,
            "count": 6911,
            "type": "VEC2",
            "max": [
                0.99169921875,
                1.0
            ],
            "min": [
                2.2250738585072014e-308,
                2.2250738585072014e-308
            ]
        },
        {
            "bufferView": 5,
            "byteOffset": 0,
            "componentType": 5125,
            "count": 22188,
            "type": "SCALAR",
            "max": [
                6910
            ],
            "min": [
                0
            ]
        }
    ],
    "buffers": [
        {
            "byteLength": 448124,
            "uri": "Bistro_Research_Exterior_paris_building_10_2__5533.bin"
        }
    ],
    "bufferViews": [
        {
            "buffer": 0,
            "byteOffset": 0,
            "byteLength": 82932,
            "target": 34962
        },
        {
            "buffer": 0,
            "byteOffset": 82932,
            "byteLength": 82932,
            "target": 34962
        },
        {
            "buffer": 0,
            "byteOffset": 165864,
            "byteLength": 82932,
            "target": 34962
        },
        {
            "buffer": 0,
            "byteOffset": 248796,
            "byteLength": 55288,
            "target": 34962
        },
        {
            "buffer": 0,
            "byteOffset": 304084,
            "byteLength": 55288,
            "target": 34962
        },
        {
            "buffer": 0,
            "byteOffset": 359372,
            "byteLength": 88752,
            "target": 34963
        }
    ],
    "images": [
        {
            "uri": "Textures\\MASTER_Concrete_Plaster1_BLENDSHADER_BaseColor.dds"
        },
        {
            "uri": "Textures\\MASTER_Concrete_Plaster1_BLENDSHADER_Normal.dds"
        },
        {
            "uri": "Textures\\MASTER_Concrete_Plaster1_BLENDSHADER_Specular.dds"
        }
    ],
    "materials": [
        {
            "name": "MASTER_Concrete_Plaster1_BLENDSHADER",
            "pbrMetallicRoughness": {
                "baseColorTexture": {
                    "index": 0
                },
                "metallicFactor": 0.0,
                "roughnessFactor": 0.5527864098548889
            },
            "normalTexture": {
                "index": 1
            },
            "extensions": {
                "KHR_materials_specular": {
                    "specularFactor": 1.0,
                    "specularColorFactor": [
                        0.5,
                        0.5,
                        0.5
                    ],
                    "specularTexture": {
                        "index": 2
                    }
                }
            }
        }
    ],
    "meshes": [
        {
            "name": "Bistro_Research_Exterior_paris_building_10_2__5533",
            "primitives": [
                {
                    "mode": 4,
                    "material": 0,
                    "indices": 5,
                    "attributes": {
                        "POSITION": 0,
                        "NORMAL": 1,
                        "TANGENT": 2,
                        "TEXCOORD_0": 3,
                        "TEXCOORD_1": 4
                    }
                }
            ]
        }
    ],
    "nodes": [
        {
            "name": "Bistro_Research_Exterior_paris_building_10_2__5533",
            "mesh": 0
        }
    ],
    "samplers": [
        {},
        {},
        {}
    ],
    "scenes": [
        {
            "nodes": [
                0
            ]
        }
    ],
    "textures": [
        {
            "source": 0,
            "sampler": 0
        },
        {
            "source": 1,
            "sampler": 1
        },
        {
            "source": 2,
            "sampler": 2
        }
    ],
    "scene": 0
}