{
    "asset": {
        "version": "2.0",
        "generator": "Open Asset Import Library (assimp v6.0.44188438)"
    },
    "extensionsUsed": [
        "KHR_materials_specular",
        "KHR_materials_volume",
        "FB_ngon_encoding"
    ],
    "accessors": [
        {
            "bufferView": 0,
            "byteOffset": 0,
            "componentType": 5126,
            "count": 130,
            "type": "VEC3",
            "max": [
                -17.2520809173584,
                567.9642944335938,
                102.51226043701172
            ],
            "min": [
                -144.26071166992188,
                2.2250738585072014e-308,
                2.2250738585072014e-308
            ]
        },
        {
            "bufferView": 1,
            "byteOffset": 0,
            "componentType": 5126,
            "count": 130,
            "type": "VEC3",
            "max": [
                0.47362929582595825,
                0.9164388179779053,
                0.999984622001648
            ],
            "min": [
                -0.9966185092926025,
                -0.8756282329559326,
                -0.999984622001648
            ]
        },
        {
            "bufferView": 2,
            "byteOffset": 0,
            "componentType": 5126,
            "count": 130,
            "type": "VEC3",
            "max": [
                0.698708713054657,
                0.9716060757637024,
                0.8879495859146118
            ],
            "min": [
                -0.9647966027259827,
                -0.99903804063797,
                -0.9999922513961792
            ]
        },
        {
            "bufferView": 3,
            "byteOffset": 0,
            "componentType": 5126,
            "count": 130,
            "type": "VEC2",
            "max": [
                1.654296875,
                1.5478515625
            ],
            "min": [
                -1.2841796875,
                2.2250738585072014e-308
            ]
        },
        {
            "bufferView": 4,
            "byteOffset": 0,
            "componentType": 5126,
            "count": 130,
            "type": "VEC2",
            "max": [
                0.9921875,
                0.9921875
            ],
            "min": [
                2.2250738585072014e-308,
                2.2250738585072014e-308
            ]
        },
        {
            "bufferView": 5,
            "byteOffset": 0,
            "componentType": 5125,
            "count": 558,
            "type": "SCALAR",
            "max": [
                129
            ],
            "min": [
                0
            ]
        }
    ],
    "buffers": [
        {
            "byteLength": 8992,
            "uri": "Bistro_Research_Exterior_Paris_Building_01_paris_building_01_bottom_4737.bin"
        }
    ],
    "bufferViews": [
        {
            "buffer": 0,
            "byteOffset": 0,
            "byteLength": 1560,
            "target": 34962
        },
        {
            "buffer": 0,
            "byteOffset": 1560,
            "byteLength": 1560,
            "target": 34962
        },
        {
            "buffer": 0,
            "byteOffset": 3120,
            "byteLength": 1560,
            "target": 34962
        },
        {
            "buffer": 0,
            "byteOffset": 4680,
            "byteLength": 1040,
            "target": 34962
        },
        {
            "buffer": 0,
            "byteOffset": 5720,
            "byteLength": 1040,
            "target": 34962
        },
        {
            "buffer": 0,
            "byteOffset": 6760,
            "byteLength": 2232,
            "target": 34963
        }
    ],
    "images": [
        {
            "uri": "Textures\\MASTER_Wood_Painted3_BaseColor.dds"
        },
        {
            "uri": "Textures\\MASTER_Wood_Painted3_Normal.dds"
        },
        {
            "uri": "Textures\\MASTER_Wood_Painted3_Specular.dds"
        }
    ],
    "materials": [
        {
            "name": "MASTER_Wood_Painted3",
            "pbrMetallicRoughness": {
                "baseColorTexture": {
                    "index": 0
                },
                "metallicFactor": 0.0,
                "roughnessFactor": 0.5527864098548889
            },
            "normalTexture": {
                "index": 1
            },
            "extensions": {
                "KHR_materials_specular": {
                    "specularFactor": 1.0,
                    "specularColorFactor": [
                        0.5,
                        0.5,
                        0.5
                    ],
                    "specularTexture": {
                        "index": 2
                    }
                }
            }
        }
    ],
    "meshes": [
        {
            "name": "Bistro_Research_Exterior_Paris_Building_01_paris_building_01_bottom_4737",
            "primitives": [
                {
                    "mode": 4,
                    "material": 0,
                    "indices": 5,
                    "attributes": {
                        "POSITION": 0,
                        "NORMAL": 1,
                        "TANGENT": 2,
                        "TEXCOORD_0": 3,
                        "TEXCOORD_1": 4
                    }
                }
            ]
        }
    ],
    "nodes": [
        {
            "name": "Bistro_Research_Exterior_Paris_Building_01_paris_building_01_bottom_4737",
            "mesh": 0
        }
    ],
    "samplers": [
        {},
        {},
        {}
    ],
    "scenes": [
        {
            "nodes": [
                0
            ]
        }
    ],
    "textures": [
        {
            "source": 0,
            "sampler": 0
        },
        {
            "source": 1,
            "sampler": 1
        },
        {
            "source": 2,
            "sampler": 2
        }
    ],
    "scene": 0
}