{
    "asset": {
        "version": "2.0",
        "generator": "Open Asset Import Library (assimp v6.0.44188438)"
    },
    "extensionsUsed": [
        "KHR_materials_specular",
        "KHR_materials_volume",
        "FB_ngon_encoding"
    ],
    "accessors": [
        {
            "bufferView": 0,
            "byteOffset": 0,
            "componentType": 5126,
            "count": 36,
            "type": "VEC3",
            "max": [
                174.80947875976563,
                909.9035034179688,
                1010.294677734375
            ],
            "min": [
                2.2250738585072014e-308,
                2.2250738585072014e-308,
                2.2250738585072014e-308
            ]
        },
        {
            "bufferView": 1,
            "byteOffset": 0,
            "componentType": 5126,
            "count": 36,
            "type": "VEC3",
            "max": [
                0.47362929582595825,
                0.8807156085968018,
                0.999984622001648
            ],
            "min": [
                -0.9814651608467102,
                -0.8756282329559326,
                -0.999984622001648
            ]
        },
        {
            "bufferView": 2,
            "byteOffset": 0,
            "componentType": 5126,
            "count": 36,
            "type": "VEC3",
            "max": [
                0.8729612827301025,
                0.4719933867454529,
                0.3445972204208374
            ],
            "min": [
                -0.996178388595581,
                -0.9809025526046753,
                -0.38090744614601135
            ]
        },
        {
            "bufferView": 3,
            "byteOffset": 0,
            "componentType": 5126,
            "count": 36,
            "type": "VEC2",
            "max": [
                0.73193359375,
                0.71630859375
            ],
            "min": [
                2.2250738585072014e-308,
                -0.263671875
            ]
        },
        {
            "bufferView": 4,
            "byteOffset": 0,
            "componentType": 5126,
            "count": 36,
            "type": "VEC2",
            "max": [
                0.9921875,
                0.9921875
            ],
            "min": [
                2.2250738585072014e-308,
                2.2250738585072014e-308
            ]
        },
        {
            "bufferView": 5,
            "byteOffset": 0,
            "componentType": 5125,
            "count": 186,
            "type": "SCALAR",
            "max": [
                35
            ],
            "min": [
                0
            ]
        }
    ],
    "buffers": [
        {
            "byteLength": 2616,
            "uri": "Bistro_Research_Exterior_Paris_Building_01_paris_building_01_4271.bin"
        }
    ],
    "bufferViews": [
        {
            "buffer": 0,
            "byteOffset": 0,
            "byteLength": 432,
            "target": 34962
        },
        {
            "buffer": 0,
            "byteOffset": 432,
            "byteLength": 432,
            "target": 34962
        },
        {
            "buffer": 0,
            "byteOffset": 864,
            "byteLength": 432,
            "target": 34962
        },
        {
            "buffer": 0,
            "byteOffset": 1296,
            "byteLength": 288,
            "target": 34962
        },
        {
            "buffer": 0,
            "byteOffset": 1584,
            "byteLength": 288,
            "target": 34962
        },
        {
            "buffer": 0,
            "byteOffset": 1872,
            "byteLength": 744,
            "target": 34963
        }
    ],
    "images": [
        {
            "uri": "Textures\\MASTER_Concrete_BaseColor.dds"
        },
        {
            "uri": "Textures\\MASTER_Concrete_Normal.dds"
        },
        {
            "uri": "Textures\\MASTER_Concrete_Specular.dds"
        }
    ],
    "materials": [
        {
            "name": "MASTER_Concrete",
            "pbrMetallicRoughness": {
                "baseColorTexture": {
                    "index": 0
                },
                "metallicFactor": 0.0,
                "roughnessFactor": 0.5527864098548889
            },
            "normalTexture": {
                "index": 1
            },
            "extensions": {
                "KHR_materials_specular": {
                    "specularFactor": 1.0,
                    "specularColorFactor": [
                        0.5,
                        0.5,
                        0.5
                    ],
                    "specularTexture": {
                        "index": 2
                    }
                }
            }
        }
    ],
    "meshes": [
        {
            "name": "Bistro_Research_Exterior_Paris_Building_01_paris_building_01_4271",
            "primitives": [
                {
                    "mode": 4,
                    "material": 0,
                    "indices": 5,
                    "attributes": {
                        "POSITION": 0,
                        "NORMAL": 1,
                        "TANGENT": 2,
                        "TEXCOORD_0": 3,
                        "TEXCOORD_1": 4
                    }
                }
            ]
        }
    ],
    "nodes": [
        {
            "name": "Bistro_Research_Exterior_Paris_Building_01_paris_building_01_4271",
            "mesh": 0
        }
    ],
    "samplers": [
        {},
        {},
        {}
    ],
    "scenes": [
        {
            "nodes": [
                0
            ]
        }
    ],
    "textures": [
        {
            "source": 0,
            "sampler": 0
        },
        {
            "source": 1,
            "sampler": 1
        },
        {
            "source": 2,
            "sampler": 2
        }
    ],
    "scene": 0
}