{
    "asset": {
        "version": "2.0",
        "generator": "Open Asset Import Library (assimp v6.0.44188438)"
    },
    "extensionsUsed": [
        "KHR_materials_specular",
        "KHR_materials_volume",
        "FB_ngon_encoding"
    ],
    "accessors": [
        {
            "bufferView": 0,
            "byteOffset": 0,
            "componentType": 5126,
            "count": 3480,
            "type": "VEC3",
            "max": [
                -2076.467041015625,
                2778.63916015625,
                1024.41845703125
            ],
            "min": [
                -2581.790283203125,
                2.2250738585072014e-308,
                2.2250738585072014e-308
            ]
        },
        {
            "bufferView": 1,
            "byteOffset": 0,
            "componentType": 5126,
            "count": 3480,
            "type": "VEC3",
            "max": [
                0.970824658870697,
                0.961074948310852,
                0.999984622001648
            ],
            "min": [
                -0.969444215297699,
                -0.9625475406646729,
                -0.999984622001648
            ]
        },
        {
            "bufferView": 2,
            "byteOffset": 0,
            "componentType": 5126,
            "count": 3480,
            "type": "VEC3",
            "max": [
                0.9610828757286072,
                0.9708318114280701,
                0.9999924898147583
            ],
            "min": [
                -0.9625555276870728,
                -0.9708326458930969,
                -0.9999924898147583
            ]
        },
        {
            "bufferView": 3,
            "byteOffset": 0,
            "componentType": 5126,
            "count": 3480,
            "type": "VEC2",
            "max": [
                1.6611328125,
                1.74072265625
            ],
            "min": [
                -0.66162109375,
                2.2250738585072014e-308
            ]
        },
        {
            "bufferView": 4,
            "byteOffset": 0,
            "componentType": 5126,
            "count": 3480,
            "type": "VEC2",
            "max": [
                0.98486328125,
                0.9921875
            ],
            "min": [
                2.2250738585072014e-308,
                2.2250738585072014e-308
            ]
        },
        {
            "bufferView": 5,
            "byteOffset": 0,
            "componentType": 5125,
            "count": 10896,
            "type": "SCALAR",
            "max": [
                3479
            ],
            "min": [
                0
            ]
        }
    ],
    "buffers": [
        {
            "byteLength": 224544,
            "uri": "Bistro_Research_Exterior_paris_building_03_mirrored_4949.bin"
        }
    ],
    "bufferViews": [
        {
            "buffer": 0,
            "byteOffset": 0,
            "byteLength": 41760,
            "target": 34962
        },
        {
            "buffer": 0,
            "byteOffset": 41760,
            "byteLength": 41760,
            "target": 34962
        },
        {
            "buffer": 0,
            "byteOffset": 83520,
            "byteLength": 41760,
            "target": 34962
        },
        {
            "buffer": 0,
            "byteOffset": 125280,
            "byteLength": 27840,
            "target": 34962
        },
        {
            "buffer": 0,
            "byteOffset": 153120,
            "byteLength": 27840,
            "target": 34962
        },
        {
            "buffer": 0,
            "byteOffset": 180960,
            "byteLength": 43584,
            "target": 34963
        }
    ],
    "images": [
        {
            "uri": "Textures\\MASTER_Black_Metal_BaseColor.dds"
        },
        {
            "uri": "Textures\\MASTER_Black_Metal_Normal.dds"
        },
        {
            "uri": "Textures\\MASTER_Black_Metal_Specular.dds"
        }
    ],
    "materials": [
        {
            "name": "MASTER_Black_Metal",
            "pbrMetallicRoughness": {
                "baseColorTexture": {
                    "index": 0
                },
                "metallicFactor": 0.0,
                "roughnessFactor": 0.5527864098548889
            },
            "normalTexture": {
                "index": 1
            },
            "extensions": {
                "KHR_materials_specular": {
                    "specularFactor": 1.0,
                    "specularColorFactor": [
                        0.5,
                        0.5,
                        0.5
                    ],
                    "specularTexture": {
                        "index": 2
                    }
                }
            }
        }
    ],
    "meshes": [
        {
            "name": "Bistro_Research_Exterior_paris_building_03_mirrored_4949",
            "primitives": [
                {
                    "mode": 4,
                    "material": 0,
                    "indices": 5,
                    "attributes": {
                        "POSITION": 0,
                        "NORMAL": 1,
                        "TANGENT": 2,
                        "TEXCOORD_0": 3,
                        "TEXCOORD_1": 4
                    }
                }
            ]
        }
    ],
    "nodes": [
        {
            "name": "Bistro_Research_Exterior_paris_building_03_mirrored_4949",
            "mesh": 0
        }
    ],
    "samplers": [
        {},
        {},
        {}
    ],
    "scenes": [
        {
            "nodes": [
                0
            ]
        }
    ],
    "textures": [
        {
            "source": 0,
            "sampler": 0
        },
        {
            "source": 1,
            "sampler": 1
        },
        {
            "source": 2,
            "sampler": 2
        }
    ],
    "scene": 0
}