{
    "asset": {
        "version": "2.0",
        "generator": "Open Asset Import Library (assimp v6.0.44188438)"
    },
    "extensionsUsed": [
        "KHR_materials_specular",
        "KHR_materials_volume",
        "FB_ngon_encoding"
    ],
    "accessors": [
        {
            "bufferView": 0,
            "byteOffset": 0,
            "componentType": 5126,
            "count": 693,
            "type": "VEC3",
            "max": [
                760.8496704101563,
                -1207.5240478515625,
                120.34154510498047
            ],
            "min": [
                -423.0914001464844,
                -1977.7294921875,
                2.2250738585072014e-308
            ]
        },
        {
            "bufferView": 1,
            "byteOffset": 0,
            "componentType": 5126,
            "count": 693,
            "type": "VEC3",
            "max": [
                0.935109555721283,
                0.9368947744369507,
                0.999984622001648
            ],
            "min": [
                -0.9376443028450012,
                -0.9426486492156982,
                -0.999984622001648
            ]
        },
        {
            "bufferView": 2,
            "byteOffset": 0,
            "componentType": 5126,
            "count": 693,
            "type": "VEC3",
            "max": [
                0.997366189956665,
                0.9997968077659607,
                0.8651003241539001
            ],
            "min": [
                -0.9996271133422852,
                -0.9977288842201233,
                -0.8706557154655457
            ]
        },
        {
            "bufferView": 3,
            "byteOffset": 0,
            "componentType": 5126,
            "count": 693,
            "type": "VEC2",
            "max": [
                2.85546875,
                2.5810546875
            ],
            "min": [
                -1.85546875,
                -1.576171875
            ]
        },
        {
            "bufferView": 4,
            "byteOffset": 0,
            "componentType": 5126,
            "count": 693,
            "type": "VEC2",
            "max": [
                0.98779296875,
                0.9921875
            ],
            "min": [
                2.2250738585072014e-308,
                2.2250738585072014e-308
            ]
        },
        {
            "bufferView": 5,
            "byteOffset": 0,
            "componentType": 5125,
            "count": 1302,
            "type": "SCALAR",
            "max": [
                692
            ],
            "min": [
                0
            ]
        }
    ],
    "buffers": [
        {
            "byteLength": 41244,
            "uri": "Bistro_Research_Exterior_paris_building_11_5563.bin"
        }
    ],
    "bufferViews": [
        {
            "buffer": 0,
            "byteOffset": 0,
            "byteLength": 8316,
            "target": 34962
        },
        {
            "buffer": 0,
            "byteOffset": 8316,
            "byteLength": 8316,
            "target": 34962
        },
        {
            "buffer": 0,
            "byteOffset": 16632,
            "byteLength": 8316,
            "target": 34962
        },
        {
            "buffer": 0,
            "byteOffset": 24948,
            "byteLength": 5544,
            "target": 34962
        },
        {
            "buffer": 0,
            "byteOffset": 30492,
            "byteLength": 5544,
            "target": 34962
        },
        {
            "buffer": 0,
            "byteOffset": 36036,
            "byteLength": 5208,
            "target": 34963
        }
    ],
    "images": [
        {
            "uri": "Textures\\MASTER_Concrete_Plaster_BaseColor.dds"
        },
        {
            "uri": "Textures\\MASTER_Concrete_Plaster_Normal.dds"
        },
        {
            "uri": "Textures\\MASTER_Concrete_Plaster_Specular.dds"
        }
    ],
    "materials": [
        {
            "name": "MASTER_Concrete_Plaster",
            "pbrMetallicRoughness": {
                "baseColorTexture": {
                    "index": 0
                },
                "metallicFactor": 0.0,
                "roughnessFactor": 0.5527864098548889
            },
            "normalTexture": {
                "index": 1
            },
            "extensions": {
                "KHR_materials_specular": {
                    "specularFactor": 1.0,
                    "specularColorFactor": [
                        0.5,
                        0.5,
                        0.5
                    ],
                    "specularTexture": {
                        "index": 2
                    }
                }
            }
        }
    ],
    "meshes": [
        {
            "name": "Bistro_Research_Exterior_paris_building_11_5563",
            "primitives": [
                {
                    "mode": 4,
                    "material": 0,
                    "indices": 5,
                    "attributes": {
                        "POSITION": 0,
                        "NORMAL": 1,
                        "TANGENT": 2,
                        "TEXCOORD_0": 3,
                        "TEXCOORD_1": 4
                    }
                }
            ]
        }
    ],
    "nodes": [
        {
            "name": "Bistro_Research_Exterior_paris_building_11_5563",
            "mesh": 0
        }
    ],
    "samplers": [
        {},
        {},
        {}
    ],
    "scenes": [
        {
            "nodes": [
                0
            ]
        }
    ],
    "textures": [
        {
            "source": 0,
            "sampler": 0
        },
        {
            "source": 1,
            "sampler": 1
        },
        {
            "source": 2,
            "sampler": 2
        }
    ],
    "scene": 0
}