{
    "asset": {
        "version": "2.0",
        "generator": "Open Asset Import Library (assimp v6.0.44188438)"
    },
    "extensionsUsed": [
        "KHR_materials_specular",
        "KHR_materials_volume",
        "FB_ngon_encoding"
    ],
    "accessors": [
        {
            "bufferView": 0,
            "byteOffset": 0,
            "componentType": 5126,
            "count": 1078,
            "type": "VEC3",
            "max": [
                -3123.1376953125,
                1997.058349609375,
                2494.949462890625
            ],
            "min": [
                -3162.063232421875,
                2.2250738585072014e-308,
                2.2250738585072014e-308
            ]
        },
        {
            "bufferView": 1,
            "byteOffset": 0,
            "componentType": 5126,
            "count": 1078,
            "type": "VEC3",
            "max": [
                0.9949610233306885,
                0.9946151375770569,
                0.9812965393066406
            ],
            "min": [
                -0.9946151375770569,
                -0.994346022605896,
                -0.9823065996170044
            ]
        },
        {
            "bufferView": 2,
            "byteOffset": 0,
            "componentType": 5126,
            "count": 1078,
            "type": "VEC3",
            "max": [
                0.7577469348907471,
                0.874116837978363,
                0.9998986124992371
            ],
            "min": [
                -0.9710274338722229,
                -0.8819166421890259,
                -0.9998885989189148
            ]
        },
        {
            "bufferView": 3,
            "byteOffset": 0,
            "componentType": 5126,
            "count": 1078,
            "type": "VEC2",
            "max": [
                0.78076171875,
                0.35986328125
            ],
            "min": [
                2.2250738585072014e-308,
                2.2250738585072014e-308
            ]
        },
        {
            "bufferView": 4,
            "byteOffset": 0,
            "componentType": 5126,
            "count": 1078,
            "type": "VEC2",
            "max": [
                0.9033203125,
                0.9921875
            ],
            "min": [
                2.2250738585072014e-308,
                2.2250738585072014e-308
            ]
        },
        {
            "bufferView": 5,
            "byteOffset": 0,
            "componentType": 5125,
            "count": 4638,
            "type": "SCALAR",
            "max": [
                1077
            ],
            "min": [
                0
            ]
        }
    ],
    "buffers": [
        {
            "byteLength": 74608,
            "uri": "Bistro_Research_Exterior_Paris_Aerial_01C5_4067_1.bin"
        }
    ],
    "bufferViews": [
        {
            "buffer": 0,
            "byteOffset": 0,
            "byteLength": 12936,
            "target": 34962
        },
        {
            "buffer": 0,
            "byteOffset": 12936,
            "byteLength": 12936,
            "target": 34962
        },
        {
            "buffer": 0,
            "byteOffset": 25872,
            "byteLength": 12936,
            "target": 34962
        },
        {
            "buffer": 0,
            "byteOffset": 38808,
            "byteLength": 8624,
            "target": 34962
        },
        {
            "buffer": 0,
            "byteOffset": 47432,
            "byteLength": 8624,
            "target": 34962
        },
        {
            "buffer": 0,
            "byteOffset": 56056,
            "byteLength": 18552,
            "target": 34963
        }
    ],
    "images": [
        {
            "uri": "Textures\\Antenna_Plastic_BaseColor.dds"
        },
        {
            "uri": "Textures\\Antenna_Plastic_Normal.dds"
        },
        {
            "uri": "Textures\\Antenna_Plastic_Specular.dds"
        }
    ],
    "materials": [
        {
            "name": "Antenna_Plastic",
            "pbrMetallicRoughness": {
                "baseColorTexture": {
                    "index": 0
                },
                "metallicFactor": 0.0,
                "roughnessFactor": 0.5527864098548889
            },
            "normalTexture": {
                "index": 1
            },
            "extensions": {
                "KHR_materials_specular": {
                    "specularFactor": 1.0,
                    "specularColorFactor": [
                        0.5,
                        0.5,
                        0.5
                    ],
                    "specularTexture": {
                        "index": 2
                    }
                }
            }
        }
    ],
    "meshes": [
        {
            "name": "Bistro_Research_Exterior_Paris_Aerial_01C5_4067",
            "primitives": [
                {
                    "mode": 4,
                    "material": 0,
                    "indices": 5,
                    "attributes": {
                        "POSITION": 0,
                        "NORMAL": 1,
                        "TANGENT": 2,
                        "TEXCOORD_0": 3,
                        "TEXCOORD_1": 4
                    }
                }
            ]
        }
    ],
    "nodes": [
        {
            "name": "Bistro_Research_Exterior_Paris_Aerial_01C5_4067",
            "mesh": 0
        }
    ],
    "samplers": [
        {},
        {},
        {}
    ],
    "scenes": [
        {
            "nodes": [
                0
            ]
        }
    ],
    "textures": [
        {
            "source": 0,
            "sampler": 0
        },
        {
            "source": 1,
            "sampler": 1
        },
        {
            "source": 2,
            "sampler": 2
        }
    ],
    "scene": 0
}