{
    "asset": {
        "version": "2.0",
        "generator": "Open Asset Import Library (assimp v6.0.44188438)"
    },
    "extensionsUsed": [
        "KHR_materials_specular",
        "KHR_materials_volume",
        "FB_ngon_encoding"
    ],
    "accessors": [
        {
            "bufferView": 0,
            "byteOffset": 0,
            "componentType": 5126,
            "count": 11419,
            "type": "VEC3",
            "max": [
                985.63818359375,
                3454.67431640625,
                1371.8900146484375
            ],
            "min": [
                2.2250738585072014e-308,
                2.2250738585072014e-308,
                2.2250738585072014e-308
            ]
        },
        {
            "bufferView": 1,
            "byteOffset": 0,
            "componentType": 5126,
            "count": 11419,
            "type": "VEC3",
            "max": [
                0.9990483522415161,
                0.9990631937980652,
                0.999984622001648
            ],
            "min": [
                -0.9993701577186584,
                -0.9993600845336914,
                -0.999984622001648
            ]
        },
        {
            "bufferView": 2,
            "byteOffset": 0,
            "componentType": 5126,
            "count": 11419,
            "type": "VEC3",
            "max": [
                0.9993609189987183,
                0.9998814463615417,
                0.9999924302101135
            ],
            "min": [
                -0.9998491406440735,
                -0.9993777275085449,
                -0.9999924898147583
            ]
        },
        {
            "bufferView": 3,
            "byteOffset": 0,
            "componentType": 5126,
            "count": 11419,
            "type": "VEC2",
            "max": [
                2.490234375,
                1.865234375
            ],
            "min": [
                -1.2431640625,
                -1.556640625
            ]
        },
        {
            "bufferView": 4,
            "byteOffset": 0,
            "componentType": 5126,
            "count": 11419,
            "type": "VEC2",
            "max": [
                0.9921875,
                0.9921913146972656
            ],
            "min": [
                2.2250738585072014e-308,
                2.2250738585072014e-308
            ]
        },
        {
            "bufferView": 5,
            "byteOffset": 0,
            "componentType": 5125,
            "count": 27258,
            "type": "SCALAR",
            "max": [
                11418
            ],
            "min": [
                0
            ]
        }
    ],
    "buffers": [
        {
            "byteLength": 702820,
            "uri": "Bistro_Research_Exterior_paris_building_10_5489.bin"
        }
    ],
    "bufferViews": [
        {
            "buffer": 0,
            "byteOffset": 0,
            "byteLength": 137028,
            "target": 34962
        },
        {
            "buffer": 0,
            "byteOffset": 137028,
            "byteLength": 137028,
            "target": 34962
        },
        {
            "buffer": 0,
            "byteOffset": 274056,
            "byteLength": 137028,
            "target": 34962
        },
        {
            "buffer": 0,
            "byteOffset": 411084,
            "byteLength": 91352,
            "target": 34962
        },
        {
            "buffer": 0,
            "byteOffset": 502436,
            "byteLength": 91352,
            "target": 34962
        },
        {
            "buffer": 0,
            "byteOffset": 593788,
            "byteLength": 109032,
            "target": 34963
        }
    ],
    "images": [
        {
            "uri": "Textures\\MASTER_Wood_Painted_Green_BaseColor.dds"
        },
        {
            "uri": "Textures\\MASTER_Wood_Painted_Green_Normal.dds"
        },
        {
            "uri": "Textures\\MASTER_Wood_Painted_Green_Specular.dds"
        }
    ],
    "materials": [
        {
            "name": "MASTER_Wood_Painted_Green",
            "pbrMetallicRoughness": {
                "baseColorTexture": {
                    "index": 0
                },
                "metallicFactor": 0.0,
                "roughnessFactor": 0.5527864098548889
            },
            "normalTexture": {
                "index": 1
            },
            "extensions": {
                "KHR_materials_specular": {
                    "specularFactor": 1.0,
                    "specularColorFactor": [
                        0.5,
                        0.5,
                        0.5
                    ],
                    "specularTexture": {
                        "index": 2
                    }
                }
            }
        }
    ],
    "meshes": [
        {
            "name": "Bistro_Research_Exterior_paris_building_10_5489",
            "primitives": [
                {
                    "mode": 4,
                    "material": 0,
                    "indices": 5,
                    "attributes": {
                        "POSITION": 0,
                        "NORMAL": 1,
                        "TANGENT": 2,
                        "TEXCOORD_0": 3,
                        "TEXCOORD_1": 4
                    }
                }
            ]
        }
    ],
    "nodes": [
        {
            "name": "Bistro_Research_Exterior_paris_building_10_5489",
            "mesh": 0
        }
    ],
    "samplers": [
        {},
        {},
        {}
    ],
    "scenes": [
        {
            "nodes": [
                0
            ]
        }
    ],
    "textures": [
        {
            "source": 0,
            "sampler": 0
        },
        {
            "source": 1,
            "sampler": 1
        },
        {
            "source": 2,
            "sampler": 2
        }
    ],
    "scene": 0
}