{
    "asset": {
        "version": "2.0",
        "generator": "Open Asset Import Library (assimp v6.0.44188438)"
    },
    "extensionsUsed": [
        "KHR_materials_specular",
        "KHR_materials_volume",
        "FB_ngon_encoding"
    ],
    "accessors": [
        {
            "bufferView": 0,
            "byteOffset": 0,
            "componentType": 5126,
            "count": 4532,
            "type": "VEC3",
            "max": [
                31.17365264892578,
                -363.0367736816406,
                150.53480529785156
            ],
            "min": [
                -173.59841918945313,
                -461.57257080078125,
                2.2250738585072014e-308
            ]
        },
        {
            "bufferView": 1,
            "byteOffset": 0,
            "componentType": 5126,
            "count": 4532,
            "type": "VEC3",
            "max": [
                0.999609649181366,
                0.9996158480644226,
                0.999984622001648
            ],
            "min": [
                -0.9998001456260681,
                -0.999796986579895,
                -0.999984622001648
            ]
        },
        {
            "bufferView": 2,
            "byteOffset": 0,
            "componentType": 5126,
            "count": 4532,
            "type": "VEC3",
            "max": [
                0.9998762607574463,
                0.9994404315948486,
                0.9999924898147583
            ],
            "min": [
                -0.9994397163391113,
                -0.9994468688964844,
                -0.9999923706054688
            ]
        },
        {
            "bufferView": 3,
            "byteOffset": 0,
            "componentType": 5126,
            "count": 4532,
            "type": "VEC2",
            "max": [
                0.9951171875,
                0.9944305419921875
            ],
            "min": [
                2.2250738585072014e-308,
                2.2250738585072014e-308
            ]
        },
        {
            "bufferView": 4,
            "byteOffset": 0,
            "componentType": 5126,
            "count": 4532,
            "type": "VEC2",
            "max": [
                0.9912109375,
                0.9921875
            ],
            "min": [
                2.2250738585072014e-308,
                2.2250738585072014e-308
            ]
        },
        {
            "bufferView": 5,
            "byteOffset": 0,
            "componentType": 5125,
            "count": 12528,
            "type": "SCALAR",
            "max": [
                4531
            ],
            "min": [
                0
            ]
        }
    ],
    "buffers": [
        {
            "byteLength": 285776,
            "uri": "Bistro_Research_Exterior_Paris_SidewalkBarrier_01A4_6177.bin"
        }
    ],
    "bufferViews": [
        {
            "buffer": 0,
            "byteOffset": 0,
            "byteLength": 54384,
            "target": 34962
        },
        {
            "buffer": 0,
            "byteOffset": 54384,
            "byteLength": 54384,
            "target": 34962
        },
        {
            "buffer": 0,
            "byteOffset": 108768,
            "byteLength": 54384,
            "target": 34962
        },
        {
            "buffer": 0,
            "byteOffset": 163152,
            "byteLength": 36256,
            "target": 34962
        },
        {
            "buffer": 0,
            "byteOffset": 199408,
            "byteLength": 36256,
            "target": 34962
        },
        {
            "buffer": 0,
            "byteOffset": 235664,
            "byteLength": 50112,
            "target": 34963
        }
    ],
    "images": [
        {
            "uri": "Textures\\Sidewalkbarrier_BaseColor.dds"
        },
        {
            "uri": "Textures\\Sidewalkbarrier_Normal.dds"
        },
        {
            "uri": "Textures\\Sidewalkbarrier_Specular.dds"
        }
    ],
    "materials": [
        {
            "name": "Sidewalkbarrier",
            "pbrMetallicRoughness": {
                "baseColorTexture": {
                    "index": 0
                },
                "metallicFactor": 0.0,
                "roughnessFactor": 0.5527864098548889
            },
            "normalTexture": {
                "index": 1
            },
            "extensions": {
                "KHR_materials_specular": {
                    "specularFactor": 1.0,
                    "specularColorFactor": [
                        0.5,
                        0.5,
                        0.5
                    ],
                    "specularTexture": {
                        "index": 2
                    }
                }
            }
        }
    ],
    "meshes": [
        {
            "name": "Bistro_Research_Exterior_Paris_SidewalkBarrier_01A4_6177",
            "primitives": [
                {
                    "mode": 4,
                    "material": 0,
                    "indices": 5,
                    "attributes": {
                        "POSITION": 0,
                        "NORMAL": 1,
                        "TANGENT": 2,
                        "TEXCOORD_0": 3,
                        "TEXCOORD_1": 4
                    }
                }
            ]
        }
    ],
    "nodes": [
        {
            "name": "Bistro_Research_Exterior_Paris_SidewalkBarrier_01A4_6177",
            "mesh": 0
        }
    ],
    "samplers": [
        {},
        {},
        {}
    ],
    "scenes": [
        {
            "nodes": [
                0
            ]
        }
    ],
    "textures": [
        {
            "source": 0,
            "sampler": 0
        },
        {
            "source": 1,
            "sampler": 1
        },
        {
            "source": 2,
            "sampler": 2
        }
    ],
    "scene": 0
}