{
    "asset": {
        "version": "2.0",
        "generator": "Open Asset Import Library (assimp v6.0.44188438)"
    },
    "extensionsUsed": [
        "KHR_materials_specular",
        "KHR_materials_volume",
        "FB_ngon_encoding"
    ],
    "accessors": [
        {
            "bufferView": 0,
            "byteOffset": 0,
            "componentType": 5126,
            "count": 1032,
            "type": "VEC3",
            "max": [
                1871.49658203125,
                4646.35595703125,
                1067.5692138671875
            ],
            "min": [
                2.2250738585072014e-308,
                2.2250738585072014e-308,
                2.2250738585072014e-308
            ]
        },
        {
            "bufferView": 1,
            "byteOffset": 0,
            "componentType": 5126,
            "count": 1032,
            "type": "VEC3",
            "max": [
                0.9914600253105164,
                0.9915927648544312,
                0.9990483522415161
            ],
            "min": [
                -0.9905587434768677,
                -0.9904097318649292,
                -0.999984622001648
            ]
        },
        {
            "bufferView": 2,
            "byteOffset": 0,
            "componentType": 5126,
            "count": 1032,
            "type": "VEC3",
            "max": [
                0.9995905160903931,
                0.9914578199386597,
                0.9982584118843079
            ],
            "min": [
                -0.9915949702262878,
                -0.991462230682373,
                -0.9982635974884033
            ]
        },
        {
            "bufferView": 3,
            "byteOffset": 0,
            "componentType": 5126,
            "count": 1032,
            "type": "VEC2",
            "max": [
                0.83740234375,
                0.9906005859375
            ],
            "min": [
                -0.05474853515625,
                2.2250738585072014e-308
            ]
        },
        {
            "bufferView": 4,
            "byteOffset": 0,
            "componentType": 5126,
            "count": 1032,
            "type": "VEC2",
            "max": [
                0.9814453125,
                0.9921875
            ],
            "min": [
                2.2250738585072014e-308,
                2.2250738585072014e-308
            ]
        },
        {
            "bufferView": 5,
            "byteOffset": 0,
            "componentType": 5125,
            "count": 2250,
            "type": "SCALAR",
            "max": [
                1031
            ],
            "min": [
                0
            ]
        }
    ],
    "buffers": [
        {
            "byteLength": 62664,
            "uri": "Bistro_Research_Exterior_Paris_Building_08_paris_building_08_11__5393.bin"
        }
    ],
    "bufferViews": [
        {
            "buffer": 0,
            "byteOffset": 0,
            "byteLength": 12384,
            "target": 34962
        },
        {
            "buffer": 0,
            "byteOffset": 12384,
            "byteLength": 12384,
            "target": 34962
        },
        {
            "buffer": 0,
            "byteOffset": 24768,
            "byteLength": 12384,
            "target": 34962
        },
        {
            "buffer": 0,
            "byteOffset": 37152,
            "byteLength": 8256,
            "target": 34962
        },
        {
            "buffer": 0,
            "byteOffset": 45408,
            "byteLength": 8256,
            "target": 34962
        },
        {
            "buffer": 0,
            "byteOffset": 53664,
            "byteLength": 9000,
            "target": 34963
        }
    ],
    "images": [
        {
            "uri": "Textures\\MASTER_Black_Metal_BaseColor.dds"
        },
        {
            "uri": "Textures\\MASTER_Black_Metal_Normal.dds"
        },
        {
            "uri": "Textures\\MASTER_Black_Metal_Specular.dds"
        }
    ],
    "materials": [
        {
            "name": "MASTER_Black_Metal",
            "pbrMetallicRoughness": {
                "baseColorTexture": {
                    "index": 0
                },
                "metallicFactor": 0.0,
                "roughnessFactor": 0.5527864098548889
            },
            "normalTexture": {
                "index": 1
            },
            "extensions": {
                "KHR_materials_specular": {
                    "specularFactor": 1.0,
                    "specularColorFactor": [
                        0.5,
                        0.5,
                        0.5
                    ],
                    "specularTexture": {
                        "index": 2
                    }
                }
            }
        }
    ],
    "meshes": [
        {
            "name": "Bistro_Research_Exterior_Paris_Building_08_paris_building_08_11__5393",
            "primitives": [
                {
                    "mode": 4,
                    "material": 0,
                    "indices": 5,
                    "attributes": {
                        "POSITION": 0,
                        "NORMAL": 1,
                        "TANGENT": 2,
                        "TEXCOORD_0": 3,
                        "TEXCOORD_1": 4
                    }
                }
            ]
        }
    ],
    "nodes": [
        {
            "name": "Bistro_Research_Exterior_Paris_Building_08_paris_building_08_11__5393",
            "mesh": 0
        }
    ],
    "samplers": [
        {},
        {},
        {}
    ],
    "scenes": [
        {
            "nodes": [
                0
            ]
        }
    ],
    "textures": [
        {
            "source": 0,
            "sampler": 0
        },
        {
            "source": 1,
            "sampler": 1
        },
        {
            "source": 2,
            "sampler": 2
        }
    ],
    "scene": 0
}