{
    "asset": {
        "version": "2.0",
        "generator": "Open Asset Import Library (assimp v6.0.44188438)"
    },
    "extensionsUsed": [
        "KHR_materials_specular",
        "KHR_materials_volume",
        "FB_ngon_encoding"
    ],
    "accessors": [
        {
            "bufferView": 0,
            "byteOffset": 0,
            "componentType": 5126,
            "count": 611,
            "type": "VEC3",
            "max": [
                -225.4124298095703,
                -1496.1607666015625,
                1113.980712890625
            ],
            "min": [
                -248.14991760253906,
                -1510.801025390625,
                2.2250738585072014e-308
            ]
        },
        {
            "bufferView": 1,
            "byteOffset": 0,
            "componentType": 5126,
            "count": 611,
            "type": "VEC3",
            "max": [
                0.9958854913711548,
                0.9972280263900757,
                0.999422550201416
            ],
            "min": [
                -0.995220959186554,
                -0.9958854913711548,
                -0.9994314908981323
            ]
        },
        {
            "bufferView": 2,
            "byteOffset": 0,
            "componentType": 5126,
            "count": 611,
            "type": "VEC3",
            "max": [
                0.9998152256011963,
                0.9998528361320496,
                0.7545086145401001
            ],
            "min": [
                -0.9977552890777588,
                -0.9992319941520691,
                -0.777362048625946
            ]
        },
        {
            "bufferView": 3,
            "byteOffset": 0,
            "componentType": 5126,
            "count": 611,
            "type": "VEC2",
            "max": [
                1.2861328125,
                3.423828125
            ],
            "min": [
                -0.266845703125,
                -1.689453125
            ]
        },
        {
            "bufferView": 4,
            "byteOffset": 0,
            "componentType": 5126,
            "count": 611,
            "type": "VEC2",
            "max": [
                0.9892578125,
                0.9921875
            ],
            "min": [
                2.2250738585072014e-308,
                2.2250738585072014e-308
            ]
        },
        {
            "bufferView": 5,
            "byteOffset": 0,
            "componentType": 5125,
            "count": 2304,
            "type": "SCALAR",
            "max": [
                610
            ],
            "min": [
                0
            ]
        }
    ],
    "buffers": [
        {
            "byteLength": 40988,
            "uri": "Bistro_Research_Exterior_paris_building_11_5903.bin"
        }
    ],
    "bufferViews": [
        {
            "buffer": 0,
            "byteOffset": 0,
            "byteLength": 7332,
            "target": 34962
        },
        {
            "buffer": 0,
            "byteOffset": 7332,
            "byteLength": 7332,
            "target": 34962
        },
        {
            "buffer": 0,
            "byteOffset": 14664,
            "byteLength": 7332,
            "target": 34962
        },
        {
            "buffer": 0,
            "byteOffset": 21996,
            "byteLength": 4888,
            "target": 34962
        },
        {
            "buffer": 0,
            "byteOffset": 26884,
            "byteLength": 4888,
            "target": 34962
        },
        {
            "buffer": 0,
            "byteOffset": 31772,
            "byteLength": 9216,
            "target": 34963
        }
    ],
    "images": [
        {
            "uri": "Textures\\MASTER_Grain_Metal_BaseColor.dds"
        },
        {
            "uri": "Textures\\MASTER_Grain_Metal_Normal.dds"
        },
        {
            "uri": "Textures\\MASTER_Grain_Metal_Specular.dds"
        }
    ],
    "materials": [
        {
            "name": "MASTER_Grain_Metal",
            "pbrMetallicRoughness": {
                "baseColorTexture": {
                    "index": 0
                },
                "metallicFactor": 0.0,
                "roughnessFactor": 0.5527864098548889
            },
            "normalTexture": {
                "index": 1
            },
            "extensions": {
                "KHR_materials_specular": {
                    "specularFactor": 1.0,
                    "specularColorFactor": [
                        0.5,
                        0.5,
                        0.5
                    ],
                    "specularTexture": {
                        "index": 2
                    }
                }
            }
        }
    ],
    "meshes": [
        {
            "name": "Bistro_Research_Exterior_paris_building_11_5903",
            "primitives": [
                {
                    "mode": 4,
                    "material": 0,
                    "indices": 5,
                    "attributes": {
                        "POSITION": 0,
                        "NORMAL": 1,
                        "TANGENT": 2,
                        "TEXCOORD_0": 3,
                        "TEXCOORD_1": 4
                    }
                }
            ]
        }
    ],
    "nodes": [
        {
            "name": "Bistro_Research_Exterior_paris_building_11_5903",
            "mesh": 0
        }
    ],
    "samplers": [
        {},
        {},
        {}
    ],
    "scenes": [
        {
            "nodes": [
                0
            ]
        }
    ],
    "textures": [
        {
            "source": 0,
            "sampler": 0
        },
        {
            "source": 1,
            "sampler": 1
        },
        {
            "source": 2,
            "sampler": 2
        }
    ],
    "scene": 0
}