{
    "asset": {
        "version": "2.0",
        "generator": "Open Asset Import Library (assimp v6.0.44188438)"
    },
    "extensionsUsed": [
        "KHR_materials_specular",
        "KHR_materials_volume",
        "FB_ngon_encoding"
    ],
    "accessors": [
        {
            "bufferView": 0,
            "byteOffset": 0,
            "componentType": 5126,
            "count": 627,
            "type": "VEC3",
            "max": [
                -25.7862606048584,
                519.8088989257813,
                236.02590942382813
            ],
            "min": [
                -68.32074737548828,
                2.2250738585072014e-308,
                2.2250738585072014e-308
            ]
        },
        {
            "bufferView": 1,
            "byteOffset": 0,
            "componentType": 5126,
            "count": 627,
            "type": "VEC3",
            "max": [
                0.9869124889373779,
                0.9965576529502869,
                0.999984622001648
            ],
            "min": [
                -0.9871147274971008,
                -0.9971842169761658,
                -0.999984622001648
            ]
        },
        {
            "bufferView": 2,
            "byteOffset": 0,
            "componentType": 5126,
            "count": 627,
            "type": "VEC3",
            "max": [
                0.9981928467750549,
                0.9939233660697937,
                0.9999924302101135
            ],
            "min": [
                -0.9048408269882202,
                -0.9150334000587463,
                -0.9999924302101135
            ]
        },
        {
            "bufferView": 3,
            "byteOffset": 0,
            "componentType": 5126,
            "count": 627,
            "type": "VEC2",
            "max": [
                1.11328125,
                1.0616455078125
            ],
            "min": [
                -0.466064453125,
                -0.28125
            ]
        },
        {
            "bufferView": 4,
            "byteOffset": 0,
            "componentType": 5126,
            "count": 627,
            "type": "VEC2",
            "max": [
                0.98046875,
                0.9921875
            ],
            "min": [
                2.2250738585072014e-308,
                2.2250738585072014e-308
            ]
        },
        {
            "bufferView": 5,
            "byteOffset": 0,
            "componentType": 5125,
            "count": 2352,
            "type": "SCALAR",
            "max": [
                626
            ],
            "min": [
                0
            ]
        }
    ],
    "buffers": [
        {
            "byteLength": 42012,
            "uri": "Bistro_Research_Exterior_Paris_Building_01_paris_building_01_bottom_4883.bin"
        }
    ],
    "bufferViews": [
        {
            "buffer": 0,
            "byteOffset": 0,
            "byteLength": 7524,
            "target": 34962
        },
        {
            "buffer": 0,
            "byteOffset": 7524,
            "byteLength": 7524,
            "target": 34962
        },
        {
            "buffer": 0,
            "byteOffset": 15048,
            "byteLength": 7524,
            "target": 34962
        },
        {
            "buffer": 0,
            "byteOffset": 22572,
            "byteLength": 5016,
            "target": 34962
        },
        {
            "buffer": 0,
            "byteOffset": 27588,
            "byteLength": 5016,
            "target": 34962
        },
        {
            "buffer": 0,
            "byteOffset": 32604,
            "byteLength": 9408,
            "target": 34963
        }
    ],
    "images": [
        {
            "uri": "Textures\\MASTER_Wood_Painted3_BaseColor.dds"
        },
        {
            "uri": "Textures\\MASTER_Wood_Painted3_Normal.dds"
        },
        {
            "uri": "Textures\\MASTER_Wood_Painted3_Specular.dds"
        }
    ],
    "materials": [
        {
            "name": "MASTER_Wood_Painted3",
            "pbrMetallicRoughness": {
                "baseColorTexture": {
                    "index": 0
                },
                "metallicFactor": 0.0,
                "roughnessFactor": 0.5527864098548889
            },
            "normalTexture": {
                "index": 1
            },
            "extensions": {
                "KHR_materials_specular": {
                    "specularFactor": 1.0,
                    "specularColorFactor": [
                        0.5,
                        0.5,
                        0.5
                    ],
                    "specularTexture": {
                        "index": 2
                    }
                }
            }
        }
    ],
    "meshes": [
        {
            "name": "Bistro_Research_Exterior_Paris_Building_01_paris_building_01_bottom_4883",
            "primitives": [
                {
                    "mode": 4,
                    "material": 0,
                    "indices": 5,
                    "attributes": {
                        "POSITION": 0,
                        "NORMAL": 1,
                        "TANGENT": 2,
                        "TEXCOORD_0": 3,
                        "TEXCOORD_1": 4
                    }
                }
            ]
        }
    ],
    "nodes": [
        {
            "name": "Bistro_Research_Exterior_Paris_Building_01_paris_building_01_bottom_4883",
            "mesh": 0
        }
    ],
    "samplers": [
        {},
        {},
        {}
    ],
    "scenes": [
        {
            "nodes": [
                0
            ]
        }
    ],
    "textures": [
        {
            "source": 0,
            "sampler": 0
        },
        {
            "source": 1,
            "sampler": 1
        },
        {
            "source": 2,
            "sampler": 2
        }
    ],
    "scene": 0
}