{
    "asset": {
        "version": "2.0",
        "generator": "Open Asset Import Library (assimp v6.0.44188438)"
    },
    "extensionsUsed": [
        "KHR_materials_specular",
        "KHR_materials_volume",
        "FB_ngon_encoding"
    ],
    "accessors": [
        {
            "bufferView": 0,
            "byteOffset": 0,
            "componentType": 5126,
            "count": 1387,
            "type": "VEC3",
            "max": [
                383.2964782714844,
                -184.13624572753906,
                1418.4677734375
            ],
            "min": [
                2.2250738585072014e-308,
                -265.7273254394531,
                2.2250738585072014e-308
            ]
        },
        {
            "bufferView": 1,
            "byteOffset": 0,
            "componentType": 5126,
            "count": 1387,
            "type": "VEC3",
            "max": [
                0.9203593134880066,
                0.995220959186554,
                0.7037705779075623
            ],
            "min": [
                -0.9972280263900757,
                -0.9977423548698425,
                -0.7077064514160156
            ]
        },
        {
            "bufferView": 2,
            "byteOffset": 0,
            "componentType": 5126,
            "count": 1387,
            "type": "VEC3",
            "max": [
                0.9977501630783081,
                0.9210476875305176,
                0.14683733880519867
            ],
            "min": [
                -0.9967509508132935,
                -0.9972357153892517,
                -0.16468346118927002
            ]
        },
        {
            "bufferView": 3,
            "byteOffset": 0,
            "componentType": 5126,
            "count": 1387,
            "type": "VEC2",
            "max": [
                1.6767578125,
                2.025390625
            ],
            "min": [
                2.2250738585072014e-308,
                -1.037109375
            ]
        },
        {
            "bufferView": 4,
            "byteOffset": 0,
            "componentType": 5126,
            "count": 1387,
            "type": "VEC2",
            "max": [
                0.9921875,
                0.9921875
            ],
            "min": [
                2.2250738585072014e-308,
                2.2250738585072014e-308
            ]
        },
        {
            "bufferView": 5,
            "byteOffset": 0,
            "componentType": 5125,
            "count": 6240,
            "type": "SCALAR",
            "max": [
                1386
            ],
            "min": [
                0
            ]
        }
    ],
    "buffers": [
        {
            "byteLength": 97084,
            "uri": "Bistro_Research_Exterior_Paris_Building_01_paris_building_01_4171.bin"
        }
    ],
    "bufferViews": [
        {
            "buffer": 0,
            "byteOffset": 0,
            "byteLength": 16644,
            "target": 34962
        },
        {
            "buffer": 0,
            "byteOffset": 16644,
            "byteLength": 16644,
            "target": 34962
        },
        {
            "buffer": 0,
            "byteOffset": 33288,
            "byteLength": 16644,
            "target": 34962
        },
        {
            "buffer": 0,
            "byteOffset": 49932,
            "byteLength": 11096,
            "target": 34962
        },
        {
            "buffer": 0,
            "byteOffset": 61028,
            "byteLength": 11096,
            "target": 34962
        },
        {
            "buffer": 0,
            "byteOffset": 72124,
            "byteLength": 24960,
            "target": 34963
        }
    ],
    "images": [
        {
            "uri": "Textures\\MASTER_Concrete_Smooth_BaseColor.dds"
        },
        {
            "uri": "Textures\\MASTER_Concrete_Smooth_Normal.dds"
        },
        {
            "uri": "Textures\\MASTER_Concrete_Smooth_Specular.dds"
        }
    ],
    "materials": [
        {
            "name": "MASTER_Concrete_Smooth",
            "pbrMetallicRoughness": {
                "baseColorTexture": {
                    "index": 0
                },
                "metallicFactor": 0.0,
                "roughnessFactor": 0.5527864098548889
            },
            "normalTexture": {
                "index": 1
            },
            "extensions": {
                "KHR_materials_specular": {
                    "specularFactor": 1.0,
                    "specularColorFactor": [
                        0.5,
                        0.5,
                        0.5
                    ],
                    "specularTexture": {
                        "index": 2
                    }
                }
            }
        }
    ],
    "meshes": [
        {
            "name": "Bistro_Research_Exterior_Paris_Building_01_paris_building_01_4171",
            "primitives": [
                {
                    "mode": 4,
                    "material": 0,
                    "indices": 5,
                    "attributes": {
                        "POSITION": 0,
                        "NORMAL": 1,
                        "TANGENT": 2,
                        "TEXCOORD_0": 3,
                        "TEXCOORD_1": 4
                    }
                }
            ]
        }
    ],
    "nodes": [
        {
            "name": "Bistro_Research_Exterior_Paris_Building_01_paris_building_01_4171",
            "mesh": 0
        }
    ],
    "samplers": [
        {},
        {},
        {}
    ],
    "scenes": [
        {
            "nodes": [
                0
            ]
        }
    ],
    "textures": [
        {
            "source": 0,
            "sampler": 0
        },
        {
            "source": 1,
            "sampler": 1
        },
        {
            "source": 2,
            "sampler": 2
        }
    ],
    "scene": 0
}