{
    "asset": {
        "version": "2.0",
        "generator": "Open Asset Import Library (assimp v6.0.44188438)"
    },
    "extensionsUsed": [
        "KHR_materials_specular",
        "KHR_materials_volume",
        "FB_ngon_encoding"
    ],
    "accessors": [
        {
            "bufferView": 0,
            "byteOffset": 0,
            "componentType": 5126,
            "count": 804,
            "type": "VEC3",
            "max": [
                123.373291015625,
                784.9779052734375,
                285.0670166015625
            ],
            "min": [
                2.2250738585072014e-308,
                2.2250738585072014e-308,
                2.2250738585072014e-308
            ]
        },
        {
            "bufferView": 1,
            "byteOffset": 0,
            "componentType": 5126,
            "count": 804,
            "type": "VEC3",
            "max": [
                0.9977423548698425,
                0.9631184935569763,
                0.999984622001648
            ],
            "min": [
                -0.99777752161026,
                -0.9665540456771851,
                -0.999984622001648
            ]
        },
        {
            "bufferView": 2,
            "byteOffset": 0,
            "componentType": 5126,
            "count": 804,
            "type": "VEC3",
            "max": [
                0.6833367347717285,
                0.8231293559074402,
                0.9719341397285461
            ],
            "min": [
                -0.9419810175895691,
                -0.9993086457252502,
                -0.9999924302101135
            ]
        },
        {
            "bufferView": 3,
            "byteOffset": 0,
            "componentType": 5126,
            "count": 804,
            "type": "VEC2",
            "max": [
                0.8251953125,
                1.646484375
            ],
            "min": [
                -1.0224609375,
                -0.0625
            ]
        },
        {
            "bufferView": 4,
            "byteOffset": 0,
            "componentType": 5126,
            "count": 804,
            "type": "VEC2",
            "max": [
                0.9921875,
                0.9921875
            ],
            "min": [
                2.2250738585072014e-308,
                2.2250738585072014e-308
            ]
        },
        {
            "bufferView": 5,
            "byteOffset": 0,
            "componentType": 5125,
            "count": 4188,
            "type": "SCALAR",
            "max": [
                803
            ],
            "min": [
                0
            ]
        }
    ],
    "buffers": [
        {
            "byteLength": 58560,
            "uri": "Bistro_Research_Exterior_Paris_Building_01_paris_building_01_bottom_4871.bin"
        }
    ],
    "bufferViews": [
        {
            "buffer": 0,
            "byteOffset": 0,
            "byteLength": 9648,
            "target": 34962
        },
        {
            "buffer": 0,
            "byteOffset": 9648,
            "byteLength": 9648,
            "target": 34962
        },
        {
            "buffer": 0,
            "byteOffset": 19296,
            "byteLength": 9648,
            "target": 34962
        },
        {
            "buffer": 0,
            "byteOffset": 28944,
            "byteLength": 6432,
            "target": 34962
        },
        {
            "buffer": 0,
            "byteOffset": 35376,
            "byteLength": 6432,
            "target": 34962
        },
        {
            "buffer": 0,
            "byteOffset": 41808,
            "byteLength": 16752,
            "target": 34963
        }
    ],
    "images": [
        {
            "uri": "Textures\\MASTER_Wood_Painted3_BaseColor.dds"
        },
        {
            "uri": "Textures\\MASTER_Wood_Painted3_Normal.dds"
        },
        {
            "uri": "Textures\\MASTER_Wood_Painted3_Specular.dds"
        }
    ],
    "materials": [
        {
            "name": "MASTER_Wood_Painted3",
            "pbrMetallicRoughness": {
                "baseColorTexture": {
                    "index": 0
                },
                "metallicFactor": 0.0,
                "roughnessFactor": 0.5527864098548889
            },
            "normalTexture": {
                "index": 1
            },
            "extensions": {
                "KHR_materials_specular": {
                    "specularFactor": 1.0,
                    "specularColorFactor": [
                        0.5,
                        0.5,
                        0.5
                    ],
                    "specularTexture": {
                        "index": 2
                    }
                }
            }
        }
    ],
    "meshes": [
        {
            "name": "Bistro_Research_Exterior_Paris_Building_01_paris_building_01_bottom_4871",
            "primitives": [
                {
                    "mode": 4,
                    "material": 0,
                    "indices": 5,
                    "attributes": {
                        "POSITION": 0,
                        "NORMAL": 1,
                        "TANGENT": 2,
                        "TEXCOORD_0": 3,
                        "TEXCOORD_1": 4
                    }
                }
            ]
        }
    ],
    "nodes": [
        {
            "name": "Bistro_Research_Exterior_Paris_Building_01_paris_building_01_bottom_4871",
            "mesh": 0
        }
    ],
    "samplers": [
        {},
        {},
        {}
    ],
    "scenes": [
        {
            "nodes": [
                0
            ]
        }
    ],
    "textures": [
        {
            "source": 0,
            "sampler": 0
        },
        {
            "source": 1,
            "sampler": 1
        },
        {
            "source": 2,
            "sampler": 2
        }
    ],
    "scene": 0
}