{
    "asset": {
        "version": "2.0",
        "generator": "Open Asset Import Library (assimp v6.0.44188438)"
    },
    "extensionsUsed": [
        "KHR_materials_specular",
        "KHR_materials_volume",
        "FB_ngon_encoding"
    ],
    "accessors": [
        {
            "bufferView": 0,
            "byteOffset": 0,
            "componentType": 5126,
            "count": 164,
            "type": "VEC3",
            "max": [
                148.36138916015625,
                -1187.91259765625,
                690.2286376953125
            ],
            "min": [
                -14.508490562438965,
                -1277.216796875,
                2.2250738585072014e-308
            ]
        },
        {
            "bufferView": 1,
            "byteOffset": 0,
            "componentType": 5126,
            "count": 164,
            "type": "VEC3",
            "max": [
                0.9454907178878784,
                0.9509981274604797,
                0.999984622001648
            ],
            "min": [
                -0.9227240085601807,
                -0.36797428131103516,
                -0.999984622001648
            ]
        },
        {
            "bufferView": 2,
            "byteOffset": 0,
            "componentType": 5126,
            "count": 164,
            "type": "VEC3",
            "max": [
                0.9312275648117065,
                0.9969755411148071,
                0.7832036018371582
            ],
            "min": [
                -0.9938743710517883,
                -0.9227312207221985,
                -0.7886078953742981
            ]
        },
        {
            "bufferView": 3,
            "byteOffset": 0,
            "componentType": 5126,
            "count": 164,
            "type": "VEC2",
            "max": [
                1.22265625,
                0.576171875
            ],
            "min": [
                -0.2271728515625,
                -0.4501953125
            ]
        },
        {
            "bufferView": 4,
            "byteOffset": 0,
            "componentType": 5126,
            "count": 164,
            "type": "VEC2",
            "max": [
                0.9833984375,
                0.9921875
            ],
            "min": [
                2.2250738585072014e-308,
                2.2250738585072014e-308
            ]
        },
        {
            "bufferView": 5,
            "byteOffset": 0,
            "componentType": 5125,
            "count": 324,
            "type": "SCALAR",
            "max": [
                163
            ],
            "min": [
                0
            ]
        }
    ],
    "buffers": [
        {
            "byteLength": 9824,
            "uri": "Bistro_Research_Exterior_paris_building_11_5591.bin"
        }
    ],
    "bufferViews": [
        {
            "buffer": 0,
            "byteOffset": 0,
            "byteLength": 1968,
            "target": 34962
        },
        {
            "buffer": 0,
            "byteOffset": 1968,
            "byteLength": 1968,
            "target": 34962
        },
        {
            "buffer": 0,
            "byteOffset": 3936,
            "byteLength": 1968,
            "target": 34962
        },
        {
            "buffer": 0,
            "byteOffset": 5904,
            "byteLength": 1312,
            "target": 34962
        },
        {
            "buffer": 0,
            "byteOffset": 7216,
            "byteLength": 1312,
            "target": 34962
        },
        {
            "buffer": 0,
            "byteOffset": 8528,
            "byteLength": 1296,
            "target": 34963
        }
    ],
    "images": [
        {
            "uri": "Textures\\MASTER_Concrete_Plaster_BaseColor.dds"
        },
        {
            "uri": "Textures\\MASTER_Concrete_Plaster_Normal.dds"
        },
        {
            "uri": "Textures\\MASTER_Concrete_Plaster_Specular.dds"
        }
    ],
    "materials": [
        {
            "name": "MASTER_Concrete_Plaster",
            "pbrMetallicRoughness": {
                "baseColorTexture": {
                    "index": 0
                },
                "metallicFactor": 0.0,
                "roughnessFactor": 0.5527864098548889
            },
            "normalTexture": {
                "index": 1
            },
            "extensions": {
                "KHR_materials_specular": {
                    "specularFactor": 1.0,
                    "specularColorFactor": [
                        0.5,
                        0.5,
                        0.5
                    ],
                    "specularTexture": {
                        "index": 2
                    }
                }
            }
        }
    ],
    "meshes": [
        {
            "name": "Bistro_Research_Exterior_paris_building_11_5591",
            "primitives": [
                {
                    "mode": 4,
                    "material": 0,
                    "indices": 5,
                    "attributes": {
                        "POSITION": 0,
                        "NORMAL": 1,
                        "TANGENT": 2,
                        "TEXCOORD_0": 3,
                        "TEXCOORD_1": 4
                    }
                }
            ]
        }
    ],
    "nodes": [
        {
            "name": "Bistro_Research_Exterior_paris_building_11_5591",
            "mesh": 0
        }
    ],
    "samplers": [
        {},
        {},
        {}
    ],
    "scenes": [
        {
            "nodes": [
                0
            ]
        }
    ],
    "textures": [
        {
            "source": 0,
            "sampler": 0
        },
        {
            "source": 1,
            "sampler": 1
        },
        {
            "source": 2,
            "sampler": 2
        }
    ],
    "scene": 0
}