{
    "asset": {
        "version": "2.0",
        "generator": "Open Asset Import Library (assimp v6.0.44188438)"
    },
    "extensionsUsed": [
        "KHR_materials_specular",
        "KHR_materials_volume",
        "FB_ngon_encoding"
    ],
    "accessors": [
        {
            "bufferView": 0,
            "byteOffset": 0,
            "componentType": 5126,
            "count": 7073,
            "type": "VEC3",
            "max": [
                1123.860107421875,
                -539.7203369140625,
                784.7376098632813
            ],
            "min": [
                2.2250738585072014e-308,
                -933.3426513671875,
                2.2250738585072014e-308
            ]
        },
        {
            "bufferView": 1,
            "byteOffset": 0,
            "componentType": 5126,
            "count": 7073,
            "type": "VEC3",
            "max": [
                0.999609649181366,
                0.9998617172241211,
                0.9999843835830688
            ],
            "min": [
                -0.9978997707366943,
                -0.9984881281852722,
                -0.999984622001648
            ]
        },
        {
            "bufferView": 2,
            "byteOffset": 0,
            "componentType": 5126,
            "count": 7073,
            "type": "VEC3",
            "max": [
                0.9997287392616272,
                0.9997311234474182,
                0.9999924302101135
            ],
            "min": [
                -0.9996544718742371,
                -0.9998880624771118,
                -0.9997341632843018
            ]
        },
        {
            "bufferView": 3,
            "byteOffset": 0,
            "componentType": 5126,
            "count": 7073,
            "type": "VEC2",
            "max": [
                1.0,
                105.125
            ],
            "min": [
                0.0,
                0.0
            ]
        },
        {
            "bufferView": 4,
            "byteOffset": 0,
            "componentType": 5126,
            "count": 7073,
            "type": "VEC2",
            "max": [
                0.97998046875,
                0.9921875
            ],
            "min": [
                2.2250738585072014e-308,
                2.2250738585072014e-308
            ]
        },
        {
            "bufferView": 5,
            "byteOffset": 0,
            "componentType": 5125,
            "count": 30279,
            "type": "SCALAR",
            "max": [
                7072
            ],
            "min": [
                0
            ]
        }
    ],
    "buffers": [
        {
            "byteLength": 488912,
            "uri": "Bistro_Research_Exterior_Ivy_Ivy_4025.bin"
        }
    ],
    "bufferViews": [
        {
            "buffer": 0,
            "byteOffset": 0,
            "byteLength": 84876,
            "target": 34962
        },
        {
            "buffer": 0,
            "byteOffset": 84876,
            "byteLength": 84876,
            "target": 34962
        },
        {
            "buffer": 0,
            "byteOffset": 169752,
            "byteLength": 84876,
            "target": 34962
        },
        {
            "buffer": 0,
            "byteOffset": 254628,
            "byteLength": 56584,
            "target": 34962
        },
        {
            "buffer": 0,
            "byteOffset": 311212,
            "byteLength": 56584,
            "target": 34962
        },
        {
            "buffer": 0,
            "byteOffset": 367796,
            "byteLength": 121116,
            "target": 34963
        }
    ],
    "images": [
        {
            "uri": "Textures\\Foliage_Ivy_branches_BaseColor.dds"
        },
        {
            "uri": "Textures\\Foliage_Ivy_branches_Normal.dds"
        },
        {
            "uri": "Textures\\Foliage_Ivy_branches_Specular.dds"
        }
    ],
    "materials": [
        {
            "name": "Foliage_Ivy_branches",
            "pbrMetallicRoughness": {
                "baseColorTexture": {
                    "index": 0
                },
                "metallicFactor": 0.0,
                "roughnessFactor": 0.5527864098548889
            },
            "normalTexture": {
                "index": 1
            },
            "extensions": {
                "KHR_materials_specular": {
                    "specularFactor": 1.0,
                    "specularColorFactor": [
                        0.5,
                        0.5,
                        0.5
                    ],
                    "specularTexture": {
                        "index": 2
                    }
                }
            }
        }
    ],
    "meshes": [
        {
            "name": "Bistro_Research_Exterior_Ivy_Ivy_4025",
            "primitives": [
                {
                    "mode": 4,
                    "material": 0,
                    "indices": 5,
                    "attributes": {
                        "POSITION": 0,
                        "NORMAL": 1,
                        "TANGENT": 2,
                        "TEXCOORD_0": 3,
                        "TEXCOORD_1": 4
                    }
                }
            ]
        }
    ],
    "nodes": [
        {
            "name": "Bistro_Research_Exterior_Ivy_Ivy_4025",
            "mesh": 0
        }
    ],
    "samplers": [
        {},
        {},
        {}
    ],
    "scenes": [
        {
            "nodes": [
                0
            ]
        }
    ],
    "textures": [
        {
            "source": 0,
            "sampler": 0
        },
        {
            "source": 1,
            "sampler": 1
        },
        {
            "source": 2,
            "sampler": 2
        }
    ],
    "scene": 0
}