{
    "asset": {
        "version": "2.0",
        "generator": "Open Asset Import Library (assimp v6.0.44188438)"
    },
    "extensionsUsed": [
        "KHR_materials_specular",
        "KHR_materials_volume",
        "FB_ngon_encoding"
    ],
    "accessors": [
        {
            "bufferView": 0,
            "byteOffset": 0,
            "componentType": 5126,
            "count": 2062,
            "type": "VEC3",
            "max": [
                766.3883666992188,
                -408.34844970703125,
                107.50333404541016
            ],
            "min": [
                2.2250738585072014e-308,
                -524.71533203125,
                2.2250738585072014e-308
            ]
        },
        {
            "bufferView": 1,
            "byteOffset": 0,
            "componentType": 5126,
            "count": 2062,
            "type": "VEC3",
            "max": [
                0.9958854913711548,
                0.9986953735351563,
                0.999984622001648
            ],
            "min": [
                -0.9966185092926025,
                -0.9990483522415161,
                -0.999984622001648
            ]
        },
        {
            "bufferView": 2,
            "byteOffset": 0,
            "componentType": 5126,
            "count": 2062,
            "type": "VEC3",
            "max": [
                0.9975633025169373,
                0.9995990991592407,
                0.9999924898147583
            ],
            "min": [
                -0.9456322193145752,
                -0.9324232339859009,
                -0.9999924898147583
            ]
        },
        {
            "bufferView": 3,
            "byteOffset": 0,
            "componentType": 5126,
            "count": 2062,
            "type": "VEC2",
            "max": [
                0.99560546875,
                0.99078369140625
            ],
            "min": [
                2.2250738585072014e-308,
                2.2250738585072014e-308
            ]
        },
        {
            "bufferView": 4,
            "byteOffset": 0,
            "componentType": 5126,
            "count": 2062,
            "type": "VEC2",
            "max": [
                0.98974609375,
                0.9921875
            ],
            "min": [
                2.2250738585072014e-308,
                2.2250738585072014e-308
            ]
        },
        {
            "bufferView": 5,
            "byteOffset": 0,
            "componentType": 5125,
            "count": 5076,
            "type": "SCALAR",
            "max": [
                2061
            ],
            "min": [
                0
            ]
        }
    ],
    "buffers": [
        {
            "byteLength": 127528,
            "uri": "Bistro_Research_Exterior_Paris_Table_01_6489.bin"
        }
    ],
    "bufferViews": [
        {
            "buffer": 0,
            "byteOffset": 0,
            "byteLength": 24744,
            "target": 34962
        },
        {
            "buffer": 0,
            "byteOffset": 24744,
            "byteLength": 24744,
            "target": 34962
        },
        {
            "buffer": 0,
            "byteOffset": 49488,
            "byteLength": 24744,
            "target": 34962
        },
        {
            "buffer": 0,
            "byteOffset": 74232,
            "byteLength": 16496,
            "target": 34962
        },
        {
            "buffer": 0,
            "byteOffset": 90728,
            "byteLength": 16496,
            "target": 34962
        },
        {
            "buffer": 0,
            "byteOffset": 107224,
            "byteLength": 20304,
            "target": 34963
        }
    ],
    "images": [
        {
            "uri": "Textures\\Paris_Table_Terrace_BaseColor.dds"
        },
        {
            "uri": "Textures\\Paris_Table_Terrace_Normal.dds"
        },
        {
            "uri": "Textures\\Paris_Table_Terrace_Specular.dds"
        }
    ],
    "materials": [
        {
            "name": "Paris_Table_Terrace",
            "pbrMetallicRoughness": {
                "baseColorTexture": {
                    "index": 0
                },
                "metallicFactor": 0.0,
                "roughnessFactor": 0.5527864098548889
            },
            "normalTexture": {
                "index": 1
            },
            "extensions": {
                "KHR_materials_specular": {
                    "specularFactor": 1.0,
                    "specularColorFactor": [
                        0.5,
                        0.5,
                        0.5
                    ],
                    "specularTexture": {
                        "index": 2
                    }
                }
            }
        }
    ],
    "meshes": [
        {
            "name": "Bistro_Research_Exterior_Paris_Table_01_6489",
            "primitives": [
                {
                    "mode": 4,
                    "material": 0,
                    "indices": 5,
                    "attributes": {
                        "POSITION": 0,
                        "NORMAL": 1,
                        "TANGENT": 2,
                        "TEXCOORD_0": 3,
                        "TEXCOORD_1": 4
                    }
                }
            ]
        }
    ],
    "nodes": [
        {
            "name": "Bistro_Research_Exterior_Paris_Table_01_6489",
            "mesh": 0
        }
    ],
    "samplers": [
        {},
        {},
        {}
    ],
    "scenes": [
        {
            "nodes": [
                0
            ]
        }
    ],
    "textures": [
        {
            "source": 0,
            "sampler": 0
        },
        {
            "source": 1,
            "sampler": 1
        },
        {
            "source": 2,
            "sampler": 2
        }
    ],
    "scene": 0
}