{
    "asset": {
        "version": "2.0",
        "generator": "Open Asset Import Library (assimp v6.0.44188438)"
    },
    "extensionsUsed": [
        "KHR_materials_specular",
        "KHR_materials_volume",
        "FB_ngon_encoding"
    ],
    "accessors": [
        {
            "bufferView": 0,
            "byteOffset": 0,
            "componentType": 5126,
            "count": 5475,
            "type": "VEC3",
            "max": [
                4744.6865234375,
                -2119.341552734375,
                135.9930877685547
            ],
            "min": [
                2.2250738585072014e-308,
                -2331.60009765625,
                2.2250738585072014e-308
            ]
        },
        {
            "bufferView": 1,
            "byteOffset": 0,
            "componentType": 5126,
            "count": 5475,
            "type": "VEC3",
            "max": [
                0.9980529546737671,
                0.999984622001648,
                0.999984622001648
            ],
            "min": [
                -0.9996158480644226,
                -0.9999843835830688,
                -0.8992987275123596
            ]
        },
        {
            "bufferView": 2,
            "byteOffset": 0,
            "componentType": 5126,
            "count": 5475,
            "type": "VEC3",
            "max": [
                0.99998939037323,
                0.999799907207489,
                0.5242955088615417
            ],
            "min": [
                -0.9999895691871643,
                -0.999992311000824,
                -0.7461861968040466
            ]
        },
        {
            "bufferView": 3,
            "byteOffset": 0,
            "componentType": 5126,
            "count": 5475,
            "type": "VEC2",
            "max": [
                1.001953125,
                1.001434326171875
            ],
            "min": [
                0.0,
                0.0
            ]
        },
        {
            "bufferView": 4,
            "byteOffset": 0,
            "componentType": 5126,
            "count": 5475,
            "type": "VEC2",
            "max": [
                0.98974609375,
                0.9921875
            ],
            "min": [
                2.2250738585072014e-308,
                2.2250738585072014e-308
            ]
        },
        {
            "bufferView": 5,
            "byteOffset": 0,
            "componentType": 5125,
            "count": 5607,
            "type": "SCALAR",
            "max": [
                5474
            ],
            "min": [
                0
            ]
        }
    ],
    "buffers": [
        {
            "byteLength": 307128,
            "uri": "Bistro_Research_Exterior_bux_hedge_box_long_low_bend3_3993.bin"
        }
    ],
    "bufferViews": [
        {
            "buffer": 0,
            "byteOffset": 0,
            "byteLength": 65700,
            "target": 34962
        },
        {
            "buffer": 0,
            "byteOffset": 65700,
            "byteLength": 65700,
            "target": 34962
        },
        {
            "buffer": 0,
            "byteOffset": 131400,
            "byteLength": 65700,
            "target": 34962
        },
        {
            "buffer": 0,
            "byteOffset": 197100,
            "byteLength": 43800,
            "target": 34962
        },
        {
            "buffer": 0,
            "byteOffset": 240900,
            "byteLength": 43800,
            "target": 34962
        },
        {
            "buffer": 0,
            "byteOffset": 284700,
            "byteLength": 22428,
            "target": 34963
        }
    ],
    "images": [
        {
            "uri": "Textures\\Foliage_Bux_Hedges46_BaseColor.dds"
        },
        {
            "uri": "Textures\\Foliage_Bux_Hedges46_Normal.dds"
        },
        {
            "uri": "Textures\\Foliage_Bux_Hedges46_Specular.dds"
        }
    ],
    "materials": [
        {
            "name": "Foliage_Bux_Hedges46.DoubleSided",
            "pbrMetallicRoughness": {
                "baseColorTexture": {
                    "index": 0
                },
                "metallicFactor": 0.0,
                "roughnessFactor": 0.5527864098548889
            },
            "normalTexture": {
                "index": 1
            },
            "extensions": {
                "KHR_materials_specular": {
                    "specularFactor": 1.0,
                    "specularColorFactor": [
                        0.5,
                        0.5,
                        0.5
                    ],
                    "specularTexture": {
                        "index": 2
                    }
                }
            }
        }
    ],
    "meshes": [
        {
            "name": "Bistro_Research_Exterior_bux_hedge_box_long_low_bend3_3993",
            "primitives": [
                {
                    "mode": 4,
                    "material": 0,
                    "indices": 5,
                    "attributes": {
                        "POSITION": 0,
                        "NORMAL": 1,
                        "TANGENT": 2,
                        "TEXCOORD_0": 3,
                        "TEXCOORD_1": 4
                    }
                }
            ]
        }
    ],
    "nodes": [
        {
            "name": "Bistro_Research_Exterior_bux_hedge_box_long_low_bend3_3993",
            "mesh": 0
        }
    ],
    "samplers": [
        {},
        {},
        {}
    ],
    "scenes": [
        {
            "nodes": [
                0
            ]
        }
    ],
    "textures": [
        {
            "source": 0,
            "sampler": 0
        },
        {
            "source": 1,
            "sampler": 1
        },
        {
            "source": 2,
            "sampler": 2
        }
    ],
    "scene": 0
}