{
    "asset": {
        "version": "2.0",
        "generator": "Open Asset Import Library (assimp v6.0.44188438)"
    },
    "extensionsUsed": [
        "KHR_materials_specular",
        "KHR_materials_volume",
        "FB_ngon_encoding"
    ],
    "accessors": [
        {
            "bufferView": 0,
            "byteOffset": 0,
            "componentType": 5126,
            "count": 2946,
            "type": "VEC3",
            "max": [
                1071.562255859375,
                3513.273681640625,
                1359.03662109375
            ],
            "min": [
                2.2250738585072014e-308,
                2.2250738585072014e-308,
                2.2250738585072014e-308
            ]
        },
        {
            "bufferView": 1,
            "byteOffset": 0,
            "componentType": 5126,
            "count": 2946,
            "type": "VEC3",
            "max": [
                0.9914600253105164,
                0.99777752161026,
                0.999984622001648
            ],
            "min": [
                -0.9998001456260681,
                -0.9907183051109314,
                -0.999984622001648
            ]
        },
        {
            "bufferView": 2,
            "byteOffset": 0,
            "componentType": 5126,
            "count": 2946,
            "type": "VEC3",
            "max": [
                0.997785210609436,
                0.9998078942298889,
                0.9999924898147583
            ],
            "min": [
                -0.997785210609436,
                -0.9998078346252441,
                -0.9982462525367737
            ]
        },
        {
            "bufferView": 3,
            "byteOffset": 0,
            "componentType": 5126,
            "count": 2946,
            "type": "VEC2",
            "max": [
                3.875,
                2.5546875
            ],
            "min": [
                -3.697265625,
                -1.0859375
            ]
        },
        {
            "bufferView": 4,
            "byteOffset": 0,
            "componentType": 5126,
            "count": 2946,
            "type": "VEC2",
            "max": [
                0.9921875,
                0.9921875
            ],
            "min": [
                2.2250738585072014e-308,
                2.2250738585072014e-308
            ]
        },
        {
            "bufferView": 5,
            "byteOffset": 0,
            "componentType": 5125,
            "count": 8022,
            "type": "SCALAR",
            "max": [
                2945
            ],
            "min": [
                0
            ]
        }
    ],
    "buffers": [
        {
            "byteLength": 185280,
            "uri": "Bistro_Research_Exterior_paris_building_10_5507.bin"
        }
    ],
    "bufferViews": [
        {
            "buffer": 0,
            "byteOffset": 0,
            "byteLength": 35352,
            "target": 34962
        },
        {
            "buffer": 0,
            "byteOffset": 35352,
            "byteLength": 35352,
            "target": 34962
        },
        {
            "buffer": 0,
            "byteOffset": 70704,
            "byteLength": 35352,
            "target": 34962
        },
        {
            "buffer": 0,
            "byteOffset": 106056,
            "byteLength": 23568,
            "target": 34962
        },
        {
            "buffer": 0,
            "byteOffset": 129624,
            "byteLength": 23568,
            "target": 34962
        },
        {
            "buffer": 0,
            "byteOffset": 153192,
            "byteLength": 32088,
            "target": 34963
        }
    ],
    "images": [
        {
            "uri": "Textures\\MASTER_Black_Metal_BaseColor.dds"
        },
        {
            "uri": "Textures\\MASTER_Black_Metal_Normal.dds"
        },
        {
            "uri": "Textures\\MASTER_Black_Metal_Specular.dds"
        }
    ],
    "materials": [
        {
            "name": "MASTER_Black_Metal",
            "pbrMetallicRoughness": {
                "baseColorTexture": {
                    "index": 0
                },
                "metallicFactor": 0.0,
                "roughnessFactor": 0.5527864098548889
            },
            "normalTexture": {
                "index": 1
            },
            "extensions": {
                "KHR_materials_specular": {
                    "specularFactor": 1.0,
                    "specularColorFactor": [
                        0.5,
                        0.5,
                        0.5
                    ],
                    "specularTexture": {
                        "index": 2
                    }
                }
            }
        }
    ],
    "meshes": [
        {
            "name": "Bistro_Research_Exterior_paris_building_10_5507",
            "primitives": [
                {
                    "mode": 4,
                    "material": 0,
                    "indices": 5,
                    "attributes": {
                        "POSITION": 0,
                        "NORMAL": 1,
                        "TANGENT": 2,
                        "TEXCOORD_0": 3,
                        "TEXCOORD_1": 4
                    }
                }
            ]
        }
    ],
    "nodes": [
        {
            "name": "Bistro_Research_Exterior_paris_building_10_5507",
            "mesh": 0
        }
    ],
    "samplers": [
        {},
        {},
        {}
    ],
    "scenes": [
        {
            "nodes": [
                0
            ]
        }
    ],
    "textures": [
        {
            "source": 0,
            "sampler": 0
        },
        {
            "source": 1,
            "sampler": 1
        },
        {
            "source": 2,
            "sampler": 2
        }
    ],
    "scene": 0
}