{
    "asset": {
        "version": "2.0",
        "generator": "Open Asset Import Library (assimp v6.0.44188438)"
    },
    "extensionsUsed": [
        "KHR_materials_specular",
        "KHR_materials_volume",
        "FB_ngon_encoding"
    ],
    "accessors": [
        {
            "bufferView": 0,
            "byteOffset": 0,
            "componentType": 5126,
            "count": 652,
            "type": "VEC3",
            "max": [
                1113.697265625,
                -490.5707702636719,
                235.89346313476563
            ],
            "min": [
                2.2250738585072014e-308,
                -639.954345703125,
                2.2250738585072014e-308
            ]
        },
        {
            "bufferView": 1,
            "byteOffset": 0,
            "componentType": 5126,
            "count": 652,
            "type": "VEC3",
            "max": [
                0.8938739895820618,
                0.9990631937980652,
                0.9743835926055908
            ],
            "min": [
                -0.9638808965682983,
                -0.684288501739502,
                -0.8279793858528137
            ]
        },
        {
            "bufferView": 2,
            "byteOffset": 0,
            "componentType": 5126,
            "count": 652,
            "type": "VEC3",
            "max": [
                0.789566159248352,
                0.9115374088287354,
                0.9995386600494385
            ],
            "min": [
                -0.7782676815986633,
                -0.9384476542472839,
                -0.9827353954315186
            ]
        },
        {
            "bufferView": 3,
            "byteOffset": 0,
            "componentType": 5126,
            "count": 652,
            "type": "VEC2",
            "max": [
                0.99951171875,
                1.0000001192092896
            ],
            "min": [
                -1.1920928955078125e-7,
                2.2250738585072014e-308
            ]
        },
        {
            "bufferView": 4,
            "byteOffset": 0,
            "componentType": 5126,
            "count": 652,
            "type": "VEC2",
            "max": [
                0.990234375,
                0.9921875
            ],
            "min": [
                2.2250738585072014e-308,
                2.2250738585072014e-308
            ]
        },
        {
            "bufferView": 5,
            "byteOffset": 0,
            "componentType": 5125,
            "count": 978,
            "type": "SCALAR",
            "max": [
                651
            ],
            "min": [
                0
            ]
        }
    ],
    "buffers": [
        {
            "byteLength": 37816,
            "uri": "Bistro_Research_Exterior_Ivy_Ivy_4035.bin"
        }
    ],
    "bufferViews": [
        {
            "buffer": 0,
            "byteOffset": 0,
            "byteLength": 7824,
            "target": 34962
        },
        {
            "buffer": 0,
            "byteOffset": 7824,
            "byteLength": 7824,
            "target": 34962
        },
        {
            "buffer": 0,
            "byteOffset": 15648,
            "byteLength": 7824,
            "target": 34962
        },
        {
            "buffer": 0,
            "byteOffset": 23472,
            "byteLength": 5216,
            "target": 34962
        },
        {
            "buffer": 0,
            "byteOffset": 28688,
            "byteLength": 5216,
            "target": 34962
        },
        {
            "buffer": 0,
            "byteOffset": 33904,
            "byteLength": 3912,
            "target": 34963
        }
    ],
    "images": [
        {
            "uri": "Textures\\Foliage_Ivy_leaf_a_BaseColor.dds"
        },
        {
            "uri": "Textures\\Foliage_Ivy_leaf_a_Normal.dds"
        },
        {
            "uri": "Textures\\Foliage_Ivy_leaf_a_Specular.dds"
        }
    ],
    "materials": [
        {
            "name": "Foliage_Ivy_leaf_a.DoubleSided",
            "pbrMetallicRoughness": {
                "baseColorTexture": {
                    "index": 0
                },
                "metallicFactor": 0.0,
                "roughnessFactor": 0.5527864098548889
            },
            "normalTexture": {
                "index": 1
            },
            "extensions": {
                "KHR_materials_specular": {
                    "specularFactor": 1.0,
                    "specularColorFactor": [
                        0.5,
                        0.5,
                        0.5
                    ],
                    "specularTexture": {
                        "index": 2
                    }
                }
            }
        }
    ],
    "meshes": [
        {
            "name": "Bistro_Research_Exterior_Ivy_Ivy_4035",
            "primitives": [
                {
                    "mode": 4,
                    "material": 0,
                    "indices": 5,
                    "attributes": {
                        "POSITION": 0,
                        "NORMAL": 1,
                        "TANGENT": 2,
                        "TEXCOORD_0": 3,
                        "TEXCOORD_1": 4
                    }
                }
            ]
        }
    ],
    "nodes": [
        {
            "name": "Bistro_Research_Exterior_Ivy_Ivy_4035",
            "mesh": 0
        }
    ],
    "samplers": [
        {},
        {},
        {}
    ],
    "scenes": [
        {
            "nodes": [
                0
            ]
        }
    ],
    "textures": [
        {
            "source": 0,
            "sampler": 0
        },
        {
            "source": 1,
            "sampler": 1
        },
        {
            "source": 2,
            "sampler": 2
        }
    ],
    "scene": 0
}