{
    "asset": {
        "version": "2.0",
        "generator": "Open Asset Import Library (assimp v6.0.44188438)"
    },
    "extensionsUsed": [
        "KHR_materials_specular",
        "KHR_materials_volume",
        "FB_ngon_encoding"
    ],
    "accessors": [
        {
            "bufferView": 0,
            "byteOffset": 0,
            "componentType": 5126,
            "count": 4139,
            "type": "VEC3",
            "max": [
                2065.01708984375,
                4143.033203125,
                1581.8787841796875
            ],
            "min": [
                2.2250738585072014e-308,
                2.2250738585072014e-308,
                2.2250738585072014e-308
            ]
        },
        {
            "bufferView": 1,
            "byteOffset": 0,
            "componentType": 5126,
            "count": 4139,
            "type": "VEC3",
            "max": [
                0.7850786447525024,
                0.9986953735351563,
                0.999984622001648
            ],
            "min": [
                -0.9972280263900757,
                -0.9915928244590759,
                -0.999984622001648
            ]
        },
        {
            "bufferView": 2,
            "byteOffset": 0,
            "componentType": 5126,
            "count": 4139,
            "type": "VEC3",
            "max": [
                0.998703122138977,
                0.9980929493904114,
                0.9999924898147583
            ],
            "min": [
                -0.9985725283622742,
                -0.9972053170204163,
                -0.9999923706054688
            ]
        },
        {
            "bufferView": 3,
            "byteOffset": 0,
            "componentType": 5126,
            "count": 4139,
            "type": "VEC2",
            "max": [
                18.46875,
                148.0
            ],
            "min": [
                -124.0625,
                -69.5
            ]
        },
        {
            "bufferView": 4,
            "byteOffset": 0,
            "componentType": 5126,
            "count": 4139,
            "type": "VEC2",
            "max": [
                0.9892578125,
                0.9921875
            ],
            "min": [
                2.2250738585072014e-308,
                2.2250738585072014e-308
            ]
        },
        {
            "bufferView": 5,
            "byteOffset": 0,
            "componentType": 5125,
            "count": 15768,
            "type": "SCALAR",
            "max": [
                4138
            ],
            "min": [
                0
            ]
        }
    ],
    "buffers": [
        {
            "byteLength": 278300,
            "uri": "Bistro_Research_Exterior_Paris_Building_08_paris_building_08_3___2__5407.bin"
        }
    ],
    "bufferViews": [
        {
            "buffer": 0,
            "byteOffset": 0,
            "byteLength": 49668,
            "target": 34962
        },
        {
            "buffer": 0,
            "byteOffset": 49668,
            "byteLength": 49668,
            "target": 34962
        },
        {
            "buffer": 0,
            "byteOffset": 99336,
            "byteLength": 49668,
            "target": 34962
        },
        {
            "buffer": 0,
            "byteOffset": 149004,
            "byteLength": 33112,
            "target": 34962
        },
        {
            "buffer": 0,
            "byteOffset": 182116,
            "byteLength": 33112,
            "target": 34962
        },
        {
            "buffer": 0,
            "byteOffset": 215228,
            "byteLength": 63072,
            "target": 34963
        }
    ],
    "images": [
        {
            "uri": "Textures\\MASTER_Wood_Painted3_BaseColor.dds"
        },
        {
            "uri": "Textures\\MASTER_Wood_Painted3_Normal.dds"
        },
        {
            "uri": "Textures\\MASTER_Wood_Painted3_Specular.dds"
        }
    ],
    "materials": [
        {
            "name": "MASTER_Wood_Painted3",
            "pbrMetallicRoughness": {
                "baseColorTexture": {
                    "index": 0
                },
                "metallicFactor": 0.0,
                "roughnessFactor": 0.5527864098548889
            },
            "normalTexture": {
                "index": 1
            },
            "extensions": {
                "KHR_materials_specular": {
                    "specularFactor": 1.0,
                    "specularColorFactor": [
                        0.5,
                        0.5,
                        0.5
                    ],
                    "specularTexture": {
                        "index": 2
                    }
                }
            }
        }
    ],
    "meshes": [
        {
            "name": "Bistro_Research_Exterior_Paris_Building_08_paris_building_08_3___2__5407",
            "primitives": [
                {
                    "mode": 4,
                    "material": 0,
                    "indices": 5,
                    "attributes": {
                        "POSITION": 0,
                        "NORMAL": 1,
                        "TANGENT": 2,
                        "TEXCOORD_0": 3,
                        "TEXCOORD_1": 4
                    }
                }
            ]
        }
    ],
    "nodes": [
        {
            "name": "Bistro_Research_Exterior_Paris_Building_08_paris_building_08_3___2__5407",
            "mesh": 0
        }
    ],
    "samplers": [
        {},
        {},
        {}
    ],
    "scenes": [
        {
            "nodes": [
                0
            ]
        }
    ],
    "textures": [
        {
            "source": 0,
            "sampler": 0
        },
        {
            "source": 1,
            "sampler": 1
        },
        {
            "source": 2,
            "sampler": 2
        }
    ],
    "scene": 0
}