{
    "asset": {
        "version": "2.0",
        "generator": "Open Asset Import Library (assimp v6.0.44188438)"
    },
    "extensionsUsed": [
        "KHR_materials_specular",
        "KHR_materials_volume",
        "FB_ngon_encoding"
    ],
    "accessors": [
        {
            "bufferView": 0,
            "byteOffset": 0,
            "componentType": 5126,
            "count": 1324,
            "type": "VEC3",
            "max": [
                1304.014404296875,
                2578.856689453125,
                342.76690673828125
            ],
            "min": [
                2.2250738585072014e-308,
                2.2250738585072014e-308,
                2.2250738585072014e-308
            ]
        },
        {
            "bufferView": 1,
            "byteOffset": 0,
            "componentType": 5126,
            "count": 1324,
            "type": "VEC3",
            "max": [
                0.9980528354644775,
                0.9814651608467102,
                0.999984622001648
            ],
            "min": [
                -0.9871147274971008,
                -0.9826404452323914,
                -0.999984622001648
            ]
        },
        {
            "bufferView": 2,
            "byteOffset": 0,
            "componentType": 5126,
            "count": 1324,
            "type": "VEC3",
            "max": [
                0.9998053312301636,
                0.9646118879318237,
                0.9999924898147583
            ],
            "min": [
                -0.9119229316711426,
                -0.9923091530799866,
                -0.9999924898147583
            ]
        },
        {
            "bufferView": 3,
            "byteOffset": 0,
            "componentType": 5126,
            "count": 1324,
            "type": "VEC2",
            "max": [
                2.435546875,
                0.9900436401367188
            ],
            "min": [
                2.2250738585072014e-308,
                -0.01171875
            ]
        },
        {
            "bufferView": 4,
            "byteOffset": 0,
            "componentType": 5126,
            "count": 1324,
            "type": "VEC2",
            "max": [
                0.986328125,
                0.9921875
            ],
            "min": [
                2.2250738585072014e-308,
                2.2250738585072014e-308
            ]
        },
        {
            "bufferView": 5,
            "byteOffset": 0,
            "componentType": 5125,
            "count": 3198,
            "type": "SCALAR",
            "max": [
                1323
            ],
            "min": [
                0
            ]
        }
    ],
    "buffers": [
        {
            "byteLength": 81640,
            "uri": "Bistro_Research_Exterior_Paris_ShopSign_01D_6165.bin"
        }
    ],
    "bufferViews": [
        {
            "buffer": 0,
            "byteOffset": 0,
            "byteLength": 15888,
            "target": 34962
        },
        {
            "buffer": 0,
            "byteOffset": 15888,
            "byteLength": 15888,
            "target": 34962
        },
        {
            "buffer": 0,
            "byteOffset": 31776,
            "byteLength": 15888,
            "target": 34962
        },
        {
            "buffer": 0,
            "byteOffset": 47664,
            "byteLength": 10592,
            "target": 34962
        },
        {
            "buffer": 0,
            "byteOffset": 58256,
            "byteLength": 10592,
            "target": 34962
        },
        {
            "buffer": 0,
            "byteOffset": 68848,
            "byteLength": 12792,
            "target": 34963
        }
    ],
    "images": [
        {
            "uri": "Textures\\Banner_Metal_BaseColor.dds"
        },
        {
            "uri": "Textures\\Banner_Metal_Normal.dds"
        },
        {
            "uri": "Textures\\Banner_Metal_Specular.dds"
        }
    ],
    "materials": [
        {
            "name": "Banner_Metal",
            "pbrMetallicRoughness": {
                "baseColorTexture": {
                    "index": 0
                },
                "metallicFactor": 0.0,
                "roughnessFactor": 0.5527864098548889
            },
            "normalTexture": {
                "index": 1
            },
            "extensions": {
                "KHR_materials_specular": {
                    "specularFactor": 1.0,
                    "specularColorFactor": [
                        0.5,
                        0.5,
                        0.5
                    ],
                    "specularTexture": {
                        "index": 2
                    }
                }
            }
        }
    ],
    "meshes": [
        {
            "name": "Bistro_Research_Exterior_Paris_ShopSign_01D_6165",
            "primitives": [
                {
                    "mode": 4,
                    "material": 0,
                    "indices": 5,
                    "attributes": {
                        "POSITION": 0,
                        "NORMAL": 1,
                        "TANGENT": 2,
                        "TEXCOORD_0": 3,
                        "TEXCOORD_1": 4
                    }
                }
            ]
        }
    ],
    "nodes": [
        {
            "name": "Bistro_Research_Exterior_Paris_ShopSign_01D_6165",
            "mesh": 0
        }
    ],
    "samplers": [
        {},
        {},
        {}
    ],
    "scenes": [
        {
            "nodes": [
                0
            ]
        }
    ],
    "textures": [
        {
            "source": 0,
            "sampler": 0
        },
        {
            "source": 1,
            "sampler": 1
        },
        {
            "source": 2,
            "sampler": 2
        }
    ],
    "scene": 0
}