{
    "asset": {
        "version": "2.0",
        "generator": "Open Asset Import Library (assimp v6.0.44188438)"
    },
    "extensionsUsed": [
        "KHR_materials_specular",
        "KHR_materials_volume",
        "FB_ngon_encoding"
    ],
    "accessors": [
        {
            "bufferView": 0,
            "byteOffset": 0,
            "componentType": 5126,
            "count": 10539,
            "type": "VEC3",
            "max": [
                170.6636505126953,
                2968.143310546875,
                1310.908203125
            ],
            "min": [
                -1730.540283203125,
                2.2250738585072014e-308,
                2.2250738585072014e-308
            ]
        },
        {
            "bufferView": 1,
            "byteOffset": 0,
            "componentType": 5126,
            "count": 10539,
            "type": "VEC3",
            "max": [
                0.999609649181366,
                0.9990631937980652,
                0.999984622001648
            ],
            "min": [
                -0.9993701577186584,
                -0.9999843835830688,
                -0.999984622001648
            ]
        },
        {
            "bufferView": 2,
            "byteOffset": 0,
            "componentType": 5126,
            "count": 10539,
            "type": "VEC3",
            "max": [
                0.9999554753303528,
                0.9998586773872375,
                0.9999924898147583
            ],
            "min": [
                -0.9999260902404785,
                -0.9997992515563965,
                -0.9999924302101135
            ]
        },
        {
            "bufferView": 3,
            "byteOffset": 0,
            "componentType": 5126,
            "count": 10539,
            "type": "VEC2",
            "max": [
                239.0,
                4.234375
            ],
            "min": [
                -6.2109375,
                -80.4375
            ]
        },
        {
            "bufferView": 4,
            "byteOffset": 0,
            "componentType": 5126,
            "count": 10539,
            "type": "VEC2",
            "max": [
                0.99072265625,
                0.9921913146972656
            ],
            "min": [
                2.2250738585072014e-308,
                2.2250738585072014e-308
            ]
        },
        {
            "bufferView": 5,
            "byteOffset": 0,
            "componentType": 5125,
            "count": 32184,
            "type": "SCALAR",
            "max": [
                10538
            ],
            "min": [
                0
            ]
        }
    ],
    "buffers": [
        {
            "byteLength": 676764,
            "uri": "Bistro_Research_Exterior_paris_building_09_5467.bin"
        }
    ],
    "bufferViews": [
        {
            "buffer": 0,
            "byteOffset": 0,
            "byteLength": 126468,
            "target": 34962
        },
        {
            "buffer": 0,
            "byteOffset": 126468,
            "byteLength": 126468,
            "target": 34962
        },
        {
            "buffer": 0,
            "byteOffset": 252936,
            "byteLength": 126468,
            "target": 34962
        },
        {
            "buffer": 0,
            "byteOffset": 379404,
            "byteLength": 84312,
            "target": 34962
        },
        {
            "buffer": 0,
            "byteOffset": 463716,
            "byteLength": 84312,
            "target": 34962
        },
        {
            "buffer": 0,
            "byteOffset": 548028,
            "byteLength": 128736,
            "target": 34963
        }
    ],
    "images": [
        {
            "uri": "Textures\\MASTER_Black_Metal_BaseColor.dds"
        },
        {
            "uri": "Textures\\MASTER_Black_Metal_Normal.dds"
        },
        {
            "uri": "Textures\\MASTER_Black_Metal_Specular.dds"
        }
    ],
    "materials": [
        {
            "name": "MASTER_Black_Metal",
            "pbrMetallicRoughness": {
                "baseColorTexture": {
                    "index": 0
                },
                "metallicFactor": 0.0,
                "roughnessFactor": 0.5527864098548889
            },
            "normalTexture": {
                "index": 1
            },
            "extensions": {
                "KHR_materials_specular": {
                    "specularFactor": 1.0,
                    "specularColorFactor": [
                        0.5,
                        0.5,
                        0.5
                    ],
                    "specularTexture": {
                        "index": 2
                    }
                }
            }
        }
    ],
    "meshes": [
        {
            "name": "Bistro_Research_Exterior_paris_building_09_5467",
            "primitives": [
                {
                    "mode": 4,
                    "material": 0,
                    "indices": 5,
                    "attributes": {
                        "POSITION": 0,
                        "NORMAL": 1,
                        "TANGENT": 2,
                        "TEXCOORD_0": 3,
                        "TEXCOORD_1": 4
                    }
                }
            ]
        }
    ],
    "nodes": [
        {
            "name": "Bistro_Research_Exterior_paris_building_09_5467",
            "mesh": 0
        }
    ],
    "samplers": [
        {},
        {},
        {}
    ],
    "scenes": [
        {
            "nodes": [
                0
            ]
        }
    ],
    "textures": [
        {
            "source": 0,
            "sampler": 0
        },
        {
            "source": 1,
            "sampler": 1
        },
        {
            "source": 2,
            "sampler": 2
        }
    ],
    "scene": 0
}