{
    "asset": {
        "version": "2.0",
        "generator": "Open Asset Import Library (assimp v6.0.44188438)"
    },
    "extensionsUsed": [
        "KHR_materials_specular",
        "KHR_materials_volume",
        "FB_ngon_encoding"
    ],
    "accessors": [
        {
            "bufferView": 0,
            "byteOffset": 0,
            "componentType": 5126,
            "count": 70,
            "type": "VEC3",
            "max": [
                262.23785400390625,
                1099.154052734375,
                401.0538024902344
            ],
            "min": [
                -154.35655212402344,
                2.2250738585072014e-308,
                2.2250738585072014e-308
            ]
        },
        {
            "bufferView": 1,
            "byteOffset": 0,
            "componentType": 5126,
            "count": 70,
            "type": "VEC3",
            "max": [
                0.45191964507102966,
                0.9087498784065247,
                0.9997345209121704
            ],
            "min": [
                -0.8807156085968018,
                -0.8670268058776855,
                -0.9997386932373047
            ]
        },
        {
            "bufferView": 2,
            "byteOffset": 0,
            "componentType": 5126,
            "count": 70,
            "type": "VEC3",
            "max": [
                0.5108866691589355,
                0.880217432975769,
                0.9999923706054688
            ],
            "min": [
                -0.8578370809555054,
                -0.8892379999160767,
                -0.9999923706054688
            ]
        },
        {
            "bufferView": 3,
            "byteOffset": 0,
            "componentType": 5126,
            "count": 70,
            "type": "VEC2",
            "max": [
                4.80078125,
                0.1201171875
            ],
            "min": [
                0.0,
                0.0
            ]
        },
        {
            "bufferView": 4,
            "byteOffset": 0,
            "componentType": 5126,
            "count": 70,
            "type": "VEC2",
            "max": [
                0.9853515625,
                0.9921875
            ],
            "min": [
                2.2250738585072014e-308,
                2.2250738585072014e-308
            ]
        },
        {
            "bufferView": 5,
            "byteOffset": 0,
            "componentType": 5125,
            "count": 252,
            "type": "SCALAR",
            "max": [
                69
            ],
            "min": [
                0
            ]
        }
    ],
    "buffers": [
        {
            "byteLength": 4648,
            "uri": "Bistro_Research_Exterior_Paris_Building_01_paris_building_01_bottom_4685.bin"
        }
    ],
    "bufferViews": [
        {
            "buffer": 0,
            "byteOffset": 0,
            "byteLength": 840,
            "target": 34962
        },
        {
            "buffer": 0,
            "byteOffset": 840,
            "byteLength": 840,
            "target": 34962
        },
        {
            "buffer": 0,
            "byteOffset": 1680,
            "byteLength": 840,
            "target": 34962
        },
        {
            "buffer": 0,
            "byteOffset": 2520,
            "byteLength": 560,
            "target": 34962
        },
        {
            "buffer": 0,
            "byteOffset": 3080,
            "byteLength": 560,
            "target": 34962
        },
        {
            "buffer": 0,
            "byteOffset": 3640,
            "byteLength": 1008,
            "target": 34963
        }
    ],
    "images": [
        {
            "uri": "Textures\\MASTER_Metal_BaseColor.dds"
        },
        {
            "uri": "Textures\\MASTER_Metal_Normal.dds"
        },
        {
            "uri": "Textures\\MASTER_Metal_Specular.dds"
        }
    ],
    "materials": [
        {
            "name": "MASTER_Metal",
            "pbrMetallicRoughness": {
                "baseColorTexture": {
                    "index": 0
                },
                "metallicFactor": 0.0,
                "roughnessFactor": 0.5527864098548889
            },
            "normalTexture": {
                "index": 1
            },
            "extensions": {
                "KHR_materials_specular": {
                    "specularFactor": 1.0,
                    "specularColorFactor": [
                        0.5,
                        0.5,
                        0.5
                    ],
                    "specularTexture": {
                        "index": 2
                    }
                }
            }
        }
    ],
    "meshes": [
        {
            "name": "Bistro_Research_Exterior_Paris_Building_01_paris_building_01_bottom_4685",
            "primitives": [
                {
                    "mode": 4,
                    "material": 0,
                    "indices": 5,
                    "attributes": {
                        "POSITION": 0,
                        "NORMAL": 1,
                        "TANGENT": 2,
                        "TEXCOORD_0": 3,
                        "TEXCOORD_1": 4
                    }
                }
            ]
        }
    ],
    "nodes": [
        {
            "name": "Bistro_Research_Exterior_Paris_Building_01_paris_building_01_bottom_4685",
            "mesh": 0
        }
    ],
    "samplers": [
        {},
        {},
        {}
    ],
    "scenes": [
        {
            "nodes": [
                0
            ]
        }
    ],
    "textures": [
        {
            "source": 0,
            "sampler": 0
        },
        {
            "source": 1,
            "sampler": 1
        },
        {
            "source": 2,
            "sampler": 2
        }
    ],
    "scene": 0
}