{
    "asset": {
        "version": "2.0",
        "generator": "Open Asset Import Library (assimp v6.0.44188438)"
    },
    "extensionsUsed": [
        "KHR_materials_specular",
        "KHR_materials_volume",
        "FB_ngon_encoding"
    ],
    "accessors": [
        {
            "bufferView": 0,
            "byteOffset": 0,
            "componentType": 5126,
            "count": 1078,
            "type": "VEC3",
            "max": [
                876.565673828125,
                810.7222900390625,
                2681.101318359375
            ],
            "min": [
                2.2250738585072014e-308,
                2.2250738585072014e-308,
                2.2250738585072014e-308
            ]
        },
        {
            "bufferView": 1,
            "byteOffset": 0,
            "componentType": 5126,
            "count": 1078,
            "type": "VEC3",
            "max": [
                0.9925079941749573,
                0.9926839470863342,
                0.9817235469818115
            ],
            "min": [
                -0.9944337010383606,
                -0.993425726890564,
                -0.9839959740638733
            ]
        },
        {
            "bufferView": 2,
            "byteOffset": 0,
            "componentType": 5126,
            "count": 1078,
            "type": "VEC3",
            "max": [
                0.8611854314804077,
                0.8300053477287292,
                0.9998963475227356
            ],
            "min": [
                -0.7253147959709167,
                -0.9242075681686401,
                -0.9998879432678223
            ]
        },
        {
            "bufferView": 3,
            "byteOffset": 0,
            "componentType": 5126,
            "count": 1078,
            "type": "VEC2",
            "max": [
                0.78076171875,
                0.35986328125
            ],
            "min": [
                2.2250738585072014e-308,
                2.2250738585072014e-308
            ]
        },
        {
            "bufferView": 4,
            "byteOffset": 0,
            "componentType": 5126,
            "count": 1078,
            "type": "VEC2",
            "max": [
                0.93505859375,
                0.9921875
            ],
            "min": [
                2.2250738585072014e-308,
                2.2250738585072014e-308
            ]
        },
        {
            "bufferView": 5,
            "byteOffset": 0,
            "componentType": 5125,
            "count": 4638,
            "type": "SCALAR",
            "max": [
                1077
            ],
            "min": [
                0
            ]
        }
    ],
    "buffers": [
        {
            "byteLength": 74608,
            "uri": "Bistro_Research_Exterior_Paris_Aerial_01C3_4063_1.bin"
        }
    ],
    "bufferViews": [
        {
            "buffer": 0,
            "byteOffset": 0,
            "byteLength": 12936,
            "target": 34962
        },
        {
            "buffer": 0,
            "byteOffset": 12936,
            "byteLength": 12936,
            "target": 34962
        },
        {
            "buffer": 0,
            "byteOffset": 25872,
            "byteLength": 12936,
            "target": 34962
        },
        {
            "buffer": 0,
            "byteOffset": 38808,
            "byteLength": 8624,
            "target": 34962
        },
        {
            "buffer": 0,
            "byteOffset": 47432,
            "byteLength": 8624,
            "target": 34962
        },
        {
            "buffer": 0,
            "byteOffset": 56056,
            "byteLength": 18552,
            "target": 34963
        }
    ],
    "images": [
        {
            "uri": "Textures\\Antenna_Plastic_BaseColor.dds"
        },
        {
            "uri": "Textures\\Antenna_Plastic_Normal.dds"
        },
        {
            "uri": "Textures\\Antenna_Plastic_Specular.dds"
        }
    ],
    "materials": [
        {
            "name": "Antenna_Plastic",
            "pbrMetallicRoughness": {
                "baseColorTexture": {
                    "index": 0
                },
                "metallicFactor": 0.0,
                "roughnessFactor": 0.5527864098548889
            },
            "normalTexture": {
                "index": 1
            },
            "extensions": {
                "KHR_materials_specular": {
                    "specularFactor": 1.0,
                    "specularColorFactor": [
                        0.5,
                        0.5,
                        0.5
                    ],
                    "specularTexture": {
                        "index": 2
                    }
                }
            }
        }
    ],
    "meshes": [
        {
            "name": "Bistro_Research_Exterior_Paris_Aerial_01C3_4063",
            "primitives": [
                {
                    "mode": 4,
                    "material": 0,
                    "indices": 5,
                    "attributes": {
                        "POSITION": 0,
                        "NORMAL": 1,
                        "TANGENT": 2,
                        "TEXCOORD_0": 3,
                        "TEXCOORD_1": 4
                    }
                }
            ]
        }
    ],
    "nodes": [
        {
            "name": "Bistro_Research_Exterior_Paris_Aerial_01C3_4063",
            "mesh": 0
        }
    ],
    "samplers": [
        {},
        {},
        {}
    ],
    "scenes": [
        {
            "nodes": [
                0
            ]
        }
    ],
    "textures": [
        {
            "source": 0,
            "sampler": 0
        },
        {
            "source": 1,
            "sampler": 1
        },
        {
            "source": 2,
            "sampler": 2
        }
    ],
    "scene": 0
}