{
    "asset": {
        "version": "2.0",
        "generator": "Open Asset Import Library (assimp v6.0.44188438)"
    },
    "extensionsUsed": [
        "KHR_materials_specular",
        "KHR_materials_volume",
        "FB_ngon_encoding"
    ],
    "accessors": [
        {
            "bufferView": 0,
            "byteOffset": 0,
            "componentType": 5126,
            "count": 465,
            "type": "VEC3",
            "max": [
                -2016.73876953125,
                3986.31884765625,
                1109.481201171875
            ],
            "min": [
                -3852.524658203125,
                2.2250738585072014e-308,
                2.2250738585072014e-308
            ]
        },
        {
            "bufferView": 1,
            "byteOffset": 0,
            "componentType": 5126,
            "count": 465,
            "type": "VEC3",
            "max": [
                0.9613006711006165,
                0.7225514650344849,
                0.4629933536052704
            ],
            "min": [
                -0.7186593413352966,
                -0.9498869180679321,
                -0.49295559525489807
            ]
        },
        {
            "bufferView": 2,
            "byteOffset": 0,
            "componentType": 5126,
            "count": 465,
            "type": "VEC3",
            "max": [
                0.949531614780426,
                0.9639430642127991,
                0.1902811974287033
            ],
            "min": [
                -0.714876651763916,
                -0.6913114190101624,
                -0.12989461421966553
            ]
        },
        {
            "bufferView": 3,
            "byteOffset": 0,
            "componentType": 5126,
            "count": 465,
            "type": "VEC2",
            "max": [
                3.861328125,
                0.872802734375
            ],
            "min": [
                -19.71875,
                -4.51171875
            ]
        },
        {
            "bufferView": 4,
            "byteOffset": 0,
            "componentType": 5126,
            "count": 465,
            "type": "VEC2",
            "max": [
                0.99169921875,
                0.9921875
            ],
            "min": [
                2.2250738585072014e-308,
                2.2250738585072014e-308
            ]
        },
        {
            "bufferView": 5,
            "byteOffset": 0,
            "componentType": 5125,
            "count": 2247,
            "type": "SCALAR",
            "max": [
                464
            ],
            "min": [
                0
            ]
        }
    ],
    "buffers": [
        {
            "byteLength": 33168,
            "uri": "Bistro_Research_Exterior_paris_building_03_mirrored_4965.bin"
        }
    ],
    "bufferViews": [
        {
            "buffer": 0,
            "byteOffset": 0,
            "byteLength": 5580,
            "target": 34962
        },
        {
            "buffer": 0,
            "byteOffset": 5580,
            "byteLength": 5580,
            "target": 34962
        },
        {
            "buffer": 0,
            "byteOffset": 11160,
            "byteLength": 5580,
            "target": 34962
        },
        {
            "buffer": 0,
            "byteOffset": 16740,
            "byteLength": 3720,
            "target": 34962
        },
        {
            "buffer": 0,
            "byteOffset": 20460,
            "byteLength": 3720,
            "target": 34962
        },
        {
            "buffer": 0,
            "byteOffset": 24180,
            "byteLength": 8988,
            "target": 34963
        }
    ],
    "images": [
        {
            "uri": "Textures\\MASTER_Brick_Large_White_BaseColor.dds"
        },
        {
            "uri": "Textures\\MASTER_Brick_Large_White_Normal.dds"
        },
        {
            "uri": "Textures\\MASTER_Brick_Large_White_Specular.dds"
        }
    ],
    "materials": [
        {
            "name": "MASTER_Brick_Large_White",
            "pbrMetallicRoughness": {
                "baseColorTexture": {
                    "index": 0
                },
                "metallicFactor": 0.0,
                "roughnessFactor": 0.5527864098548889
            },
            "normalTexture": {
                "index": 1
            },
            "extensions": {
                "KHR_materials_specular": {
                    "specularFactor": 1.0,
                    "specularColorFactor": [
                        0.5,
                        0.5,
                        0.5
                    ],
                    "specularTexture": {
                        "index": 2
                    }
                }
            }
        }
    ],
    "meshes": [
        {
            "name": "Bistro_Research_Exterior_paris_building_03_mirrored_4965",
            "primitives": [
                {
                    "mode": 4,
                    "material": 0,
                    "indices": 5,
                    "attributes": {
                        "POSITION": 0,
                        "NORMAL": 1,
                        "TANGENT": 2,
                        "TEXCOORD_0": 3,
                        "TEXCOORD_1": 4
                    }
                }
            ]
        }
    ],
    "nodes": [
        {
            "name": "Bistro_Research_Exterior_paris_building_03_mirrored_4965",
            "mesh": 0
        }
    ],
    "samplers": [
        {},
        {},
        {}
    ],
    "scenes": [
        {
            "nodes": [
                0
            ]
        }
    ],
    "textures": [
        {
            "source": 0,
            "sampler": 0
        },
        {
            "source": 1,
            "sampler": 1
        },
        {
            "source": 2,
            "sampler": 2
        }
    ],
    "scene": 0
}