{
    "asset": {
        "version": "2.0",
        "generator": "Open Asset Import Library (assimp v6.0.44188438)"
    },
    "extensionsUsed": [
        "KHR_materials_specular",
        "KHR_materials_volume",
        "FB_ngon_encoding"
    ],
    "accessors": [
        {
            "bufferView": 0,
            "byteOffset": 0,
            "componentType": 5126,
            "count": 3845,
            "type": "VEC3",
            "max": [
                1118.0992431640625,
                -510.9659423828125,
                939.4647827148438
            ],
            "min": [
                2.2250738585072014e-308,
                -650.7247924804688,
                2.2250738585072014e-308
            ]
        },
        {
            "bufferView": 1,
            "byteOffset": 0,
            "componentType": 5126,
            "count": 3845,
            "type": "VEC3",
            "max": [
                0.9971222281455994,
                0.9999231100082397,
                0.9819067120552063
            ],
            "min": [
                -0.999984622001648,
                -0.9990483522415161,
                -0.9999231100082397
            ]
        },
        {
            "bufferView": 2,
            "byteOffset": 0,
            "componentType": 5126,
            "count": 3845,
            "type": "VEC3",
            "max": [
                0.9969239234924316,
                0.9999917149543762,
                0.9918872714042664
            ],
            "min": [
                -0.9999921917915344,
                -0.9999918937683105,
                -0.9966390132904053
            ]
        },
        {
            "bufferView": 3,
            "byteOffset": 0,
            "componentType": 5126,
            "count": 3845,
            "type": "VEC2",
            "max": [
                1.0,
                105.125
            ],
            "min": [
                0.0,
                0.0
            ]
        },
        {
            "bufferView": 4,
            "byteOffset": 0,
            "componentType": 5126,
            "count": 3845,
            "type": "VEC2",
            "max": [
                0.982421875,
                0.9921875
            ],
            "min": [
                2.2250738585072014e-308,
                2.2250738585072014e-308
            ]
        },
        {
            "bufferView": 5,
            "byteOffset": 0,
            "componentType": 5125,
            "count": 16119,
            "type": "SCALAR",
            "max": [
                3844
            ],
            "min": [
                0
            ]
        }
    ],
    "buffers": [
        {
            "byteLength": 264416,
            "uri": "Bistro_Research_Exterior_Ivy_Ivy_4045.bin"
        }
    ],
    "bufferViews": [
        {
            "buffer": 0,
            "byteOffset": 0,
            "byteLength": 46140,
            "target": 34962
        },
        {
            "buffer": 0,
            "byteOffset": 46140,
            "byteLength": 46140,
            "target": 34962
        },
        {
            "buffer": 0,
            "byteOffset": 92280,
            "byteLength": 46140,
            "target": 34962
        },
        {
            "buffer": 0,
            "byteOffset": 138420,
            "byteLength": 30760,
            "target": 34962
        },
        {
            "buffer": 0,
            "byteOffset": 169180,
            "byteLength": 30760,
            "target": 34962
        },
        {
            "buffer": 0,
            "byteOffset": 199940,
            "byteLength": 64476,
            "target": 34963
        }
    ],
    "images": [
        {
            "uri": "Textures\\Foliage_Ivy_branches_BaseColor.dds"
        },
        {
            "uri": "Textures\\Foliage_Ivy_branches_Normal.dds"
        },
        {
            "uri": "Textures\\Foliage_Ivy_branches_Specular.dds"
        }
    ],
    "materials": [
        {
            "name": "Foliage_Ivy_branches",
            "pbrMetallicRoughness": {
                "baseColorTexture": {
                    "index": 0
                },
                "metallicFactor": 0.0,
                "roughnessFactor": 0.5527864098548889
            },
            "normalTexture": {
                "index": 1
            },
            "extensions": {
                "KHR_materials_specular": {
                    "specularFactor": 1.0,
                    "specularColorFactor": [
                        0.5,
                        0.5,
                        0.5
                    ],
                    "specularTexture": {
                        "index": 2
                    }
                }
            }
        }
    ],
    "meshes": [
        {
            "name": "Bistro_Research_Exterior_Ivy_Ivy_4045",
            "primitives": [
                {
                    "mode": 4,
                    "material": 0,
                    "indices": 5,
                    "attributes": {
                        "POSITION": 0,
                        "NORMAL": 1,
                        "TANGENT": 2,
                        "TEXCOORD_0": 3,
                        "TEXCOORD_1": 4
                    }
                }
            ]
        }
    ],
    "nodes": [
        {
            "name": "Bistro_Research_Exterior_Ivy_Ivy_4045",
            "mesh": 0
        }
    ],
    "samplers": [
        {},
        {},
        {}
    ],
    "scenes": [
        {
            "nodes": [
                0
            ]
        }
    ],
    "textures": [
        {
            "source": 0,
            "sampler": 0
        },
        {
            "source": 1,
            "sampler": 1
        },
        {
            "source": 2,
            "sampler": 2
        }
    ],
    "scene": 0
}