{
    "asset": {
        "version": "2.0",
        "generator": "Open Asset Import Library (assimp v6.0.44188438)"
    },
    "extensionsUsed": [
        "KHR_materials_specular",
        "KHR_materials_volume",
        "FB_ngon_encoding"
    ],
    "accessors": [
        {
            "bufferView": 0,
            "byteOffset": 0,
            "componentType": 5126,
            "count": 66,
            "type": "VEC3",
            "max": [
                2161.05224609375,
                -1879.108642578125,
                431.3185119628906
            ],
            "min": [
                2.2250738585072014e-308,
                -1885.015625,
                2.2250738585072014e-308
            ]
        },
        {
            "bufferView": 1,
            "byteOffset": 0,
            "componentType": 5126,
            "count": 66,
            "type": "VEC3",
            "max": [
                0.9971842169761658,
                0.9712715148925781,
                0.999984622001648
            ],
            "min": [
                -0.99777752161026,
                -0.9689702987670898,
                -0.999984622001648
            ]
        },
        {
            "bufferView": 2,
            "byteOffset": 0,
            "componentType": 5126,
            "count": 66,
            "type": "VEC3",
            "max": [
                0.9901267886161804,
                0.7313669919967651,
                0.7959185838699341
            ],
            "min": [
                -0.7719945907592773,
                -0.9994891881942749,
                -0.8974855542182922
            ]
        },
        {
            "bufferView": 3,
            "byteOffset": 0,
            "componentType": 5126,
            "count": 66,
            "type": "VEC2",
            "max": [
                0.08935546875,
                0.125
            ],
            "min": [
                2.2250738585072014e-308,
                2.2250738585072014e-308
            ]
        },
        {
            "bufferView": 4,
            "byteOffset": 0,
            "componentType": 5126,
            "count": 66,
            "type": "VEC2",
            "max": [
                0.5625,
                0.6328125
            ],
            "min": [
                2.2250738585072014e-308,
                2.2250738585072014e-308
            ]
        },
        {
            "bufferView": 5,
            "byteOffset": 0,
            "componentType": 5125,
            "count": 228,
            "type": "SCALAR",
            "max": [
                65
            ],
            "min": [
                0
            ]
        }
    ],
    "buffers": [
        {
            "byteLength": 4344,
            "uri": "Bistro_Research_Exterior_Paris_StreetLight_01a___7__6275_2.bin"
        }
    ],
    "bufferViews": [
        {
            "buffer": 0,
            "byteOffset": 0,
            "byteLength": 792,
            "target": 34962
        },
        {
            "buffer": 0,
            "byteOffset": 792,
            "byteLength": 792,
            "target": 34962
        },
        {
            "buffer": 0,
            "byteOffset": 1584,
            "byteLength": 792,
            "target": 34962
        },
        {
            "buffer": 0,
            "byteOffset": 2376,
            "byteLength": 528,
            "target": 34962
        },
        {
            "buffer": 0,
            "byteOffset": 2904,
            "byteLength": 528,
            "target": 34962
        },
        {
            "buffer": 0,
            "byteOffset": 3432,
            "byteLength": 912,
            "target": 34963
        }
    ],
    "images": [
        {
            "uri": "Textures\\Streetlight_Support_Bulb_BaseColor.dds"
        },
        {
            "uri": "Textures\\Streetlight_Support_Bulb_Normal.dds"
        },
        {
            "uri": "Textures\\Streetlight_Support_Bulb_Specular.dds"
        }
    ],
    "materials": [
        {
            "name": "Streetlight_Support_Bulb",
            "pbrMetallicRoughness": {
                "baseColorTexture": {
                    "index": 0
                },
                "metallicFactor": 0.0,
                "roughnessFactor": 0.5527864098548889
            },
            "normalTexture": {
                "index": 1
            },
            "extensions": {
                "KHR_materials_specular": {
                    "specularFactor": 1.0,
                    "specularColorFactor": [
                        0.5,
                        0.5,
                        0.5
                    ],
                    "specularTexture": {
                        "index": 2
                    }
                }
            }
        }
    ],
    "meshes": [
        {
            "name": "Bistro_Research_Exterior_Paris_StreetLight_01a___7__6275",
            "primitives": [
                {
                    "mode": 4,
                    "material": 0,
                    "indices": 5,
                    "attributes": {
                        "POSITION": 0,
                        "NORMAL": 1,
                        "TANGENT": 2,
                        "TEXCOORD_0": 3,
                        "TEXCOORD_1": 4
                    }
                }
            ]
        }
    ],
    "nodes": [
        {
            "name": "Bistro_Research_Exterior_Paris_StreetLight_01a___7__6275",
            "mesh": 0
        }
    ],
    "samplers": [
        {},
        {},
        {}
    ],
    "scenes": [
        {
            "nodes": [
                0
            ]
        }
    ],
    "textures": [
        {
            "source": 0,
            "sampler": 0
        },
        {
            "source": 1,
            "sampler": 1
        },
        {
            "source": 2,
            "sampler": 2
        }
    ],
    "scene": 0
}