{
    "asset": {
        "version": "2.0",
        "generator": "Open Asset Import Library (assimp v6.0.44188438)"
    },
    "extensionsUsed": [
        "KHR_materials_specular",
        "KHR_materials_volume",
        "FB_ngon_encoding"
    ],
    "accessors": [
        {
            "bufferView": 0,
            "byteOffset": 0,
            "componentType": 5126,
            "count": 120,
            "type": "VEC3",
            "max": [
                208.1671905517578,
                955.1683349609375,
                261.5195007324219
            ],
            "min": [
                2.2250738585072014e-308,
                2.2250738585072014e-308,
                2.2250738585072014e-308
            ]
        },
        {
            "bufferView": 1,
            "byteOffset": 0,
            "componentType": 5126,
            "count": 120,
            "type": "VEC3",
            "max": [
                0.998239278793335,
                0.9972280263900757,
                -0.003896599868312478
            ],
            "min": [
                -0.9966185092926025,
                -0.994346022605896,
                -0.003957395441830158
            ]
        },
        {
            "bufferView": 2,
            "byteOffset": 0,
            "componentType": 5126,
            "count": 120,
            "type": "VEC3",
            "max": [
                0.003938537091016769,
                0.003907581325620413,
                0.9999924898147583
            ],
            "min": [
                -0.003938545938581228,
                -0.0037213938776403666,
                -0.9999924898147583
            ]
        },
        {
            "bufferView": 3,
            "byteOffset": 0,
            "componentType": 5126,
            "count": 120,
            "type": "VEC2",
            "max": [
                1.376953125,
                0.5244140625
            ],
            "min": [
                -0.37744140625,
                2.2250738585072014e-308
            ]
        },
        {
            "bufferView": 4,
            "byteOffset": 0,
            "componentType": 5126,
            "count": 120,
            "type": "VEC2",
            "max": [
                0.9921875,
                0.9921875
            ],
            "min": [
                2.2250738585072014e-308,
                2.2250738585072014e-308
            ]
        },
        {
            "bufferView": 5,
            "byteOffset": 0,
            "componentType": 5125,
            "count": 228,
            "type": "SCALAR",
            "max": [
                119
            ],
            "min": [
                0
            ]
        }
    ],
    "buffers": [
        {
            "byteLength": 7152,
            "uri": "Bistro_Research_Exterior_Paris_Building_01_paris_building_01_bottom_4745.bin"
        }
    ],
    "bufferViews": [
        {
            "buffer": 0,
            "byteOffset": 0,
            "byteLength": 1440,
            "target": 34962
        },
        {
            "buffer": 0,
            "byteOffset": 1440,
            "byteLength": 1440,
            "target": 34962
        },
        {
            "buffer": 0,
            "byteOffset": 2880,
            "byteLength": 1440,
            "target": 34962
        },
        {
            "buffer": 0,
            "byteOffset": 4320,
            "byteLength": 960,
            "target": 34962
        },
        {
            "buffer": 0,
            "byteOffset": 5280,
            "byteLength": 960,
            "target": 34962
        },
        {
            "buffer": 0,
            "byteOffset": 6240,
            "byteLength": 912,
            "target": 34963
        }
    ],
    "images": [
        {
            "uri": "Textures\\MASTER_Wood_Painted3_BaseColor.dds"
        },
        {
            "uri": "Textures\\MASTER_Wood_Painted3_Normal.dds"
        },
        {
            "uri": "Textures\\MASTER_Wood_Painted3_Specular.dds"
        }
    ],
    "materials": [
        {
            "name": "MASTER_Wood_Painted3",
            "pbrMetallicRoughness": {
                "baseColorTexture": {
                    "index": 0
                },
                "metallicFactor": 0.0,
                "roughnessFactor": 0.5527864098548889
            },
            "normalTexture": {
                "index": 1
            },
            "extensions": {
                "KHR_materials_specular": {
                    "specularFactor": 1.0,
                    "specularColorFactor": [
                        0.5,
                        0.5,
                        0.5
                    ],
                    "specularTexture": {
                        "index": 2
                    }
                }
            }
        }
    ],
    "meshes": [
        {
            "name": "Bistro_Research_Exterior_Paris_Building_01_paris_building_01_bottom_4745",
            "primitives": [
                {
                    "mode": 4,
                    "material": 0,
                    "indices": 5,
                    "attributes": {
                        "POSITION": 0,
                        "NORMAL": 1,
                        "TANGENT": 2,
                        "TEXCOORD_0": 3,
                        "TEXCOORD_1": 4
                    }
                }
            ]
        }
    ],
    "nodes": [
        {
            "name": "Bistro_Research_Exterior_Paris_Building_01_paris_building_01_bottom_4745",
            "mesh": 0
        }
    ],
    "samplers": [
        {},
        {},
        {}
    ],
    "scenes": [
        {
            "nodes": [
                0
            ]
        }
    ],
    "textures": [
        {
            "source": 0,
            "sampler": 0
        },
        {
            "source": 1,
            "sampler": 1
        },
        {
            "source": 2,
            "sampler": 2
        }
    ],
    "scene": 0
}