{
    "asset": {
        "version": "2.0",
        "generator": "Open Asset Import Library (assimp v6.0.44188438)"
    },
    "extensionsUsed": [
        "KHR_materials_specular",
        "KHR_materials_volume",
        "FB_ngon_encoding"
    ],
    "accessors": [
        {
            "bufferView": 0,
            "byteOffset": 0,
            "componentType": 5126,
            "count": 1213,
            "type": "VEC3",
            "max": [
                6953.68896484375,
                -1829.2923583984375,
                1716.9425048828125
            ],
            "min": [
                2.2250738585072014e-308,
                -4372.9609375,
                2.2250738585072014e-308
            ]
        },
        {
            "bufferView": 1,
            "byteOffset": 0,
            "componentType": 5126,
            "count": 1213,
            "type": "VEC3",
            "max": [
                0.9446492791175842,
                0.9532784223556519,
                0.999984622001648
            ],
            "min": [
                -0.9430553317070007,
                -0.9421797394752502,
                -0.999984622001648
            ]
        },
        {
            "bufferView": 2,
            "byteOffset": 0,
            "componentType": 5126,
            "count": 1213,
            "type": "VEC3",
            "max": [
                0.9532864689826965,
                0.9637622237205505,
                0.9999924302101135
            ],
            "min": [
                -0.9968303442001343,
                -0.9968770742416382,
                -0.9999924302101135
            ]
        },
        {
            "bufferView": 3,
            "byteOffset": 0,
            "componentType": 5126,
            "count": 1213,
            "type": "VEC2",
            "max": [
                11.3828125,
                8.59375
            ],
            "min": [
                -10.3828125,
                -3.6875
            ]
        },
        {
            "bufferView": 4,
            "byteOffset": 0,
            "componentType": 5126,
            "count": 1213,
            "type": "VEC2",
            "max": [
                0.990234375,
                0.9921875
            ],
            "min": [
                2.2250738585072014e-308,
                2.2250738585072014e-308
            ]
        },
        {
            "bufferView": 5,
            "byteOffset": 0,
            "componentType": 5125,
            "count": 3969,
            "type": "SCALAR",
            "max": [
                1212
            ],
            "min": [
                0
            ]
        }
    ],
    "buffers": [
        {
            "byteLength": 78952,
            "uri": "Bistro_Research_Exterior_paris_building_07_12__5347.bin"
        }
    ],
    "bufferViews": [
        {
            "buffer": 0,
            "byteOffset": 0,
            "byteLength": 14556,
            "target": 34962
        },
        {
            "buffer": 0,
            "byteOffset": 14556,
            "byteLength": 14556,
            "target": 34962
        },
        {
            "buffer": 0,
            "byteOffset": 29112,
            "byteLength": 14556,
            "target": 34962
        },
        {
            "buffer": 0,
            "byteOffset": 43668,
            "byteLength": 9704,
            "target": 34962
        },
        {
            "buffer": 0,
            "byteOffset": 53372,
            "byteLength": 9704,
            "target": 34962
        },
        {
            "buffer": 0,
            "byteOffset": 63076,
            "byteLength": 15876,
            "target": 34963
        }
    ],
    "images": [
        {
            "uri": "Textures\\MASTER_Concrete_Smooth_BLENDSHADER_BaseColor.dds"
        },
        {
            "uri": "Textures\\MASTER_Concrete_Smooth_BLENDSHADER_Normal.dds"
        },
        {
            "uri": "Textures\\MASTER_Concrete_Smooth_BLENDSHADER_Specular.dds"
        }
    ],
    "materials": [
        {
            "name": "MASTER_Concrete_Smooth_BLENDSHADER",
            "pbrMetallicRoughness": {
                "baseColorTexture": {
                    "index": 0
                },
                "metallicFactor": 0.0,
                "roughnessFactor": 0.5527864098548889
            },
            "normalTexture": {
                "index": 1
            },
            "extensions": {
                "KHR_materials_specular": {
                    "specularFactor": 1.0,
                    "specularColorFactor": [
                        0.5,
                        0.5,
                        0.5
                    ],
                    "specularTexture": {
                        "index": 2
                    }
                }
            }
        }
    ],
    "meshes": [
        {
            "name": "Bistro_Research_Exterior_paris_building_07_12__5347",
            "primitives": [
                {
                    "mode": 4,
                    "material": 0,
                    "indices": 5,
                    "attributes": {
                        "POSITION": 0,
                        "NORMAL": 1,
                        "TANGENT": 2,
                        "TEXCOORD_0": 3,
                        "TEXCOORD_1": 4
                    }
                }
            ]
        }
    ],
    "nodes": [
        {
            "name": "Bistro_Research_Exterior_paris_building_07_12__5347",
            "mesh": 0
        }
    ],
    "samplers": [
        {},
        {},
        {}
    ],
    "scenes": [
        {
            "nodes": [
                0
            ]
        }
    ],
    "textures": [
        {
            "source": 0,
            "sampler": 0
        },
        {
            "source": 1,
            "sampler": 1
        },
        {
            "source": 2,
            "sampler": 2
        }
    ],
    "scene": 0
}