{
    "asset": {
        "version": "2.0",
        "generator": "Open Asset Import Library (assimp v6.0.44188438)"
    },
    "extensionsUsed": [
        "KHR_materials_specular",
        "KHR_materials_volume",
        "FB_ngon_encoding"
    ],
    "accessors": [
        {
            "bufferView": 0,
            "byteOffset": 0,
            "componentType": 5126,
            "count": 678,
            "type": "VEC3",
            "max": [
                385.2344665527344,
                2523.306640625,
                35.425960540771484
            ],
            "min": [
                2.2250738585072014e-308,
                2.2250738585072014e-308,
                2.2250738585072014e-308
            ]
        },
        {
            "bufferView": 1,
            "byteOffset": 0,
            "componentType": 5126,
            "count": 678,
            "type": "VEC3",
            "max": [
                0.9462483525276184,
                0.9409827589988708,
                0.962191104888916
            ],
            "min": [
                -0.9611243009567261,
                -0.9438650608062744,
                -0.8000307679176331
            ]
        },
        {
            "bufferView": 2,
            "byteOffset": 0,
            "componentType": 5126,
            "count": 678,
            "type": "VEC3",
            "max": [
                0.9904652833938599,
                0.9251426458358765,
                0.9690384268760681
            ],
            "min": [
                -0.9812795519828796,
                -0.9924218058586121,
                -0.9919458627700806
            ]
        },
        {
            "bufferView": 3,
            "byteOffset": 0,
            "componentType": 5126,
            "count": 678,
            "type": "VEC2",
            "max": [
                0.994140625,
                1.89794921875
            ],
            "min": [
                2.2250738585072014e-308,
                2.2250738585072014e-308
            ]
        },
        {
            "bufferView": 4,
            "byteOffset": 0,
            "componentType": 5126,
            "count": 678,
            "type": "VEC2",
            "max": [
                0.982421875,
                0.9921875
            ],
            "min": [
                2.2250738585072014e-308,
                2.2250738585072014e-308
            ]
        },
        {
            "bufferView": 5,
            "byteOffset": 0,
            "componentType": 5125,
            "count": 2808,
            "type": "SCALAR",
            "max": [
                677
            ],
            "min": [
                0
            ]
        }
    ],
    "buffers": [
        {
            "byteLength": 46488,
            "uri": "Bistro_Research_Exterior_Paris_Street_6229.bin"
        }
    ],
    "bufferViews": [
        {
            "buffer": 0,
            "byteOffset": 0,
            "byteLength": 8136,
            "target": 34962
        },
        {
            "buffer": 0,
            "byteOffset": 8136,
            "byteLength": 8136,
            "target": 34962
        },
        {
            "buffer": 0,
            "byteOffset": 16272,
            "byteLength": 8136,
            "target": 34962
        },
        {
            "buffer": 0,
            "byteOffset": 24408,
            "byteLength": 5424,
            "target": 34962
        },
        {
            "buffer": 0,
            "byteOffset": 29832,
            "byteLength": 5424,
            "target": 34962
        },
        {
            "buffer": 0,
            "byteOffset": 35256,
            "byteLength": 11232,
            "target": 34963
        }
    ],
    "images": [
        {
            "uri": "Textures\\Pavement_Curbstones_BaseColor.dds"
        },
        {
            "uri": "Textures\\Pavement_Curbstones_Normal.dds"
        },
        {
            "uri": "Textures\\Pavement_Curbstones_Specular.dds"
        }
    ],
    "materials": [
        {
            "name": "Pavement_Curbstones",
            "pbrMetallicRoughness": {
                "baseColorTexture": {
                    "index": 0
                },
                "metallicFactor": 0.0,
                "roughnessFactor": 0.5527864098548889
            },
            "normalTexture": {
                "index": 1
            },
            "extensions": {
                "KHR_materials_specular": {
                    "specularFactor": 1.0,
                    "specularColorFactor": [
                        0.5,
                        0.5,
                        0.5
                    ],
                    "specularTexture": {
                        "index": 2
                    }
                }
            }
        }
    ],
    "meshes": [
        {
            "name": "Bistro_Research_Exterior_Paris_Street_6229",
            "primitives": [
                {
                    "mode": 4,
                    "material": 0,
                    "indices": 5,
                    "attributes": {
                        "POSITION": 0,
                        "NORMAL": 1,
                        "TANGENT": 2,
                        "TEXCOORD_0": 3,
                        "TEXCOORD_1": 4
                    }
                }
            ]
        }
    ],
    "nodes": [
        {
            "name": "Bistro_Research_Exterior_Paris_Street_6229",
            "mesh": 0
        }
    ],
    "samplers": [
        {},
        {},
        {}
    ],
    "scenes": [
        {
            "nodes": [
                0
            ]
        }
    ],
    "textures": [
        {
            "source": 0,
            "sampler": 0
        },
        {
            "source": 1,
            "sampler": 1
        },
        {
            "source": 2,
            "sampler": 2
        }
    ],
    "scene": 0
}