{
    "asset": {
        "version": "2.0",
        "generator": "Open Asset Import Library (assimp v6.0.44188438)"
    },
    "extensionsUsed": [
        "KHR_materials_specular",
        "KHR_materials_volume",
        "FB_ngon_encoding"
    ],
    "accessors": [
        {
            "bufferView": 0,
            "byteOffset": 0,
            "componentType": 5126,
            "count": 525,
            "type": "VEC3",
            "max": [
                -122.23725128173828,
                -1035.318359375,
                35.63410568237305
            ],
            "min": [
                -608.6439208984375,
                -1258.7996826171875,
                2.2250738585072014e-308
            ]
        },
        {
            "bufferView": 1,
            "byteOffset": 0,
            "componentType": 5126,
            "count": 525,
            "type": "VEC3",
            "max": [
                0.942121148109436,
                0.9968622922897339,
                0.9640366435050964
            ],
            "min": [
                -0.9658243060112,
                -0.9981771111488342,
                -0.8193433284759521
            ]
        },
        {
            "bufferView": 2,
            "byteOffset": 0,
            "componentType": 5126,
            "count": 525,
            "type": "VEC3",
            "max": [
                0.9975627660751343,
                0.9706190228462219,
                0.9693357944488525
            ],
            "min": [
                -0.9908083081245422,
                -0.9999710321426392,
                -0.9909281730651855
            ]
        },
        {
            "bufferView": 3,
            "byteOffset": 0,
            "componentType": 5126,
            "count": 525,
            "type": "VEC2",
            "max": [
                0.994140625,
                1.89794921875
            ],
            "min": [
                2.2250738585072014e-308,
                2.2250738585072014e-308
            ]
        },
        {
            "bufferView": 4,
            "byteOffset": 0,
            "componentType": 5126,
            "count": 525,
            "type": "VEC2",
            "max": [
                0.98291015625,
                0.9921875
            ],
            "min": [
                2.2250738585072014e-308,
                2.2250738585072014e-308
            ]
        },
        {
            "bufferView": 5,
            "byteOffset": 0,
            "componentType": 5125,
            "count": 2172,
            "type": "SCALAR",
            "max": [
                524
            ],
            "min": [
                0
            ]
        }
    ],
    "buffers": [
        {
            "byteLength": 35988,
            "uri": "Bistro_Research_Exterior_Paris_Street_6227.bin"
        }
    ],
    "bufferViews": [
        {
            "buffer": 0,
            "byteOffset": 0,
            "byteLength": 6300,
            "target": 34962
        },
        {
            "buffer": 0,
            "byteOffset": 6300,
            "byteLength": 6300,
            "target": 34962
        },
        {
            "buffer": 0,
            "byteOffset": 12600,
            "byteLength": 6300,
            "target": 34962
        },
        {
            "buffer": 0,
            "byteOffset": 18900,
            "byteLength": 4200,
            "target": 34962
        },
        {
            "buffer": 0,
            "byteOffset": 23100,
            "byteLength": 4200,
            "target": 34962
        },
        {
            "buffer": 0,
            "byteOffset": 27300,
            "byteLength": 8688,
            "target": 34963
        }
    ],
    "images": [
        {
            "uri": "Textures\\Pavement_Curbstones_BaseColor.dds"
        },
        {
            "uri": "Textures\\Pavement_Curbstones_Normal.dds"
        },
        {
            "uri": "Textures\\Pavement_Curbstones_Specular.dds"
        }
    ],
    "materials": [
        {
            "name": "Pavement_Curbstones",
            "pbrMetallicRoughness": {
                "baseColorTexture": {
                    "index": 0
                },
                "metallicFactor": 0.0,
                "roughnessFactor": 0.5527864098548889
            },
            "normalTexture": {
                "index": 1
            },
            "extensions": {
                "KHR_materials_specular": {
                    "specularFactor": 1.0,
                    "specularColorFactor": [
                        0.5,
                        0.5,
                        0.5
                    ],
                    "specularTexture": {
                        "index": 2
                    }
                }
            }
        }
    ],
    "meshes": [
        {
            "name": "Bistro_Research_Exterior_Paris_Street_6227",
            "primitives": [
                {
                    "mode": 4,
                    "material": 0,
                    "indices": 5,
                    "attributes": {
                        "POSITION": 0,
                        "NORMAL": 1,
                        "TANGENT": 2,
                        "TEXCOORD_0": 3,
                        "TEXCOORD_1": 4
                    }
                }
            ]
        }
    ],
    "nodes": [
        {
            "name": "Bistro_Research_Exterior_Paris_Street_6227",
            "mesh": 0
        }
    ],
    "samplers": [
        {},
        {},
        {}
    ],
    "scenes": [
        {
            "nodes": [
                0
            ]
        }
    ],
    "textures": [
        {
            "source": 0,
            "sampler": 0
        },
        {
            "source": 1,
            "sampler": 1
        },
        {
            "source": 2,
            "sampler": 2
        }
    ],
    "scene": 0
}