{
    "asset": {
        "version": "2.0",
        "generator": "Open Asset Import Library (assimp v6.0.44188438)"
    },
    "extensionsUsed": [
        "KHR_materials_specular",
        "KHR_materials_volume",
        "FB_ngon_encoding"
    ],
    "accessors": [
        {
            "bufferView": 0,
            "byteOffset": 0,
            "componentType": 5126,
            "count": 128,
            "type": "VEC3",
            "max": [
                -96.43787384033203,
                404.67559814453125,
                553.8973388671875
            ],
            "min": [
                -104.69586944580078,
                2.2250738585072014e-308,
                2.2250738585072014e-308
            ]
        },
        {
            "bufferView": 1,
            "byteOffset": 0,
            "componentType": 5126,
            "count": 128,
            "type": "VEC3",
            "max": [
                0.8616239428520203,
                0.8722991347312927,
                0.999984622001648
            ],
            "min": [
                -0.860221803188324,
                -0.8670268058776855,
                -0.999984622001648
            ]
        },
        {
            "bufferView": 2,
            "byteOffset": 0,
            "componentType": 5126,
            "count": 128,
            "type": "VEC3",
            "max": [
                0.8714885115623474,
                0.9956881403923035,
                0.9999922513961792
            ],
            "min": [
                -0.43697917461395264,
                -0.979013979434967,
                -0.9945453405380249
            ]
        },
        {
            "bufferView": 3,
            "byteOffset": 0,
            "componentType": 5126,
            "count": 128,
            "type": "VEC2",
            "max": [
                9.546875,
                20.515625
            ],
            "min": [
                -9.546875,
                -34.375
            ]
        },
        {
            "bufferView": 4,
            "byteOffset": 0,
            "componentType": 5126,
            "count": 128,
            "type": "VEC2",
            "max": [
                0.9921875,
                0.9921875
            ],
            "min": [
                2.2250738585072014e-308,
                2.2250738585072014e-308
            ]
        },
        {
            "bufferView": 5,
            "byteOffset": 0,
            "componentType": 5125,
            "count": 360,
            "type": "SCALAR",
            "max": [
                127
            ],
            "min": [
                0
            ]
        }
    ],
    "buffers": [
        {
            "byteLength": 8096,
            "uri": "Bistro_Research_Exterior_Paris_Building_01_paris_building_01_4235.bin"
        }
    ],
    "bufferViews": [
        {
            "buffer": 0,
            "byteOffset": 0,
            "byteLength": 1536,
            "target": 34962
        },
        {
            "buffer": 0,
            "byteOffset": 1536,
            "byteLength": 1536,
            "target": 34962
        },
        {
            "buffer": 0,
            "byteOffset": 3072,
            "byteLength": 1536,
            "target": 34962
        },
        {
            "buffer": 0,
            "byteOffset": 4608,
            "byteLength": 1024,
            "target": 34962
        },
        {
            "buffer": 0,
            "byteOffset": 5632,
            "byteLength": 1024,
            "target": 34962
        },
        {
            "buffer": 0,
            "byteOffset": 6656,
            "byteLength": 1440,
            "target": 34963
        }
    ],
    "images": [
        {
            "uri": "Textures\\MASTER_Grain_Metal_BaseColor.dds"
        },
        {
            "uri": "Textures\\MASTER_Grain_Metal_Normal.dds"
        },
        {
            "uri": "Textures\\MASTER_Grain_Metal_Specular.dds"
        }
    ],
    "materials": [
        {
            "name": "MASTER_Grain_Metal",
            "pbrMetallicRoughness": {
                "baseColorTexture": {
                    "index": 0
                },
                "metallicFactor": 0.0,
                "roughnessFactor": 0.5527864098548889
            },
            "normalTexture": {
                "index": 1
            },
            "extensions": {
                "KHR_materials_specular": {
                    "specularFactor": 1.0,
                    "specularColorFactor": [
                        0.5,
                        0.5,
                        0.5
                    ],
                    "specularTexture": {
                        "index": 2
                    }
                }
            }
        }
    ],
    "meshes": [
        {
            "name": "Bistro_Research_Exterior_Paris_Building_01_paris_building_01_4235",
            "primitives": [
                {
                    "mode": 4,
                    "material": 0,
                    "indices": 5,
                    "attributes": {
                        "POSITION": 0,
                        "NORMAL": 1,
                        "TANGENT": 2,
                        "TEXCOORD_0": 3,
                        "TEXCOORD_1": 4
                    }
                }
            ]
        }
    ],
    "nodes": [
        {
            "name": "Bistro_Research_Exterior_Paris_Building_01_paris_building_01_4235",
            "mesh": 0
        }
    ],
    "samplers": [
        {},
        {},
        {}
    ],
    "scenes": [
        {
            "nodes": [
                0
            ]
        }
    ],
    "textures": [
        {
            "source": 0,
            "sampler": 0
        },
        {
            "source": 1,
            "sampler": 1
        },
        {
            "source": 2,
            "sampler": 2
        }
    ],
    "scene": 0
}