{
    "asset": {
        "version": "2.0",
        "generator": "Open Asset Import Library (assimp v6.0.44188438)"
    },
    "extensionsUsed": [
        "KHR_materials_specular",
        "KHR_materials_volume",
        "FB_ngon_encoding"
    ],
    "accessors": [
        {
            "bufferView": 0,
            "byteOffset": 0,
            "componentType": 5126,
            "count": 328,
            "type": "VEC3",
            "max": [
                -2722.28759765625,
                2178.18115234375,
                954.7427368164063
            ],
            "min": [
                -2942.076904296875,
                2.2250738585072014e-308,
                2.2250738585072014e-308
            ]
        },
        {
            "bufferView": 1,
            "byteOffset": 0,
            "componentType": 5126,
            "count": 328,
            "type": "VEC3",
            "max": [
                0.9986746907234192,
                0.9993700385093689,
                0.999984622001648
            ],
            "min": [
                -0.6751891374588013,
                -0.9990483522415161,
                -0.999984622001648
            ]
        },
        {
            "bufferView": 2,
            "byteOffset": 0,
            "componentType": 5126,
            "count": 328,
            "type": "VEC3",
            "max": [
                0.9045956134796143,
                0.7304173707962036,
                0.9999923706054688
            ],
            "min": [
                -0.9224423766136169,
                -0.7304463386535645,
                -0.999992311000824
            ]
        },
        {
            "bufferView": 3,
            "byteOffset": 0,
            "componentType": 5126,
            "count": 328,
            "type": "VEC2",
            "max": [
                0.69580078125,
                0.798828125
            ],
            "min": [
                2.2250738585072014e-308,
                2.2250738585072014e-308
            ]
        },
        {
            "bufferView": 4,
            "byteOffset": 0,
            "componentType": 5126,
            "count": 328,
            "type": "VEC2",
            "max": [
                0.990234375,
                0.9921875
            ],
            "min": [
                2.2250738585072014e-308,
                2.2250738585072014e-308
            ]
        },
        {
            "bufferView": 5,
            "byteOffset": 0,
            "componentType": 5125,
            "count": 1020,
            "type": "SCALAR",
            "max": [
                327
            ],
            "min": [
                0
            ]
        }
    ],
    "buffers": [
        {
            "byteLength": 21136,
            "uri": "Bistro_Research_Exterior_Paris_Building_08_paris_building_08_5383.bin"
        }
    ],
    "bufferViews": [
        {
            "buffer": 0,
            "byteOffset": 0,
            "byteLength": 3936,
            "target": 34962
        },
        {
            "buffer": 0,
            "byteOffset": 3936,
            "byteLength": 3936,
            "target": 34962
        },
        {
            "buffer": 0,
            "byteOffset": 7872,
            "byteLength": 3936,
            "target": 34962
        },
        {
            "buffer": 0,
            "byteOffset": 11808,
            "byteLength": 2624,
            "target": 34962
        },
        {
            "buffer": 0,
            "byteOffset": 14432,
            "byteLength": 2624,
            "target": 34962
        },
        {
            "buffer": 0,
            "byteOffset": 17056,
            "byteLength": 4080,
            "target": 34963
        }
    ],
    "images": [
        {
            "uri": "Textures\\MASTER_Awning_Fabric_Cyan_BaseColor.dds"
        },
        {
            "uri": "Textures\\MASTER_Awning_Fabric_Cyan_Normal.dds"
        },
        {
            "uri": "Textures\\MASTER_Awning_Fabric_Cyan_Specular.dds"
        }
    ],
    "materials": [
        {
            "name": "MASTER_Awning_Fabric_Cyan",
            "pbrMetallicRoughness": {
                "baseColorTexture": {
                    "index": 0
                },
                "metallicFactor": 0.0,
                "roughnessFactor": 0.5527864098548889
            },
            "normalTexture": {
                "index": 1
            },
            "extensions": {
                "KHR_materials_specular": {
                    "specularFactor": 1.0,
                    "specularColorFactor": [
                        0.5,
                        0.5,
                        0.5
                    ],
                    "specularTexture": {
                        "index": 2
                    }
                }
            }
        }
    ],
    "meshes": [
        {
            "name": "Bistro_Research_Exterior_Paris_Building_08_paris_building_08_5383",
            "primitives": [
                {
                    "mode": 4,
                    "material": 0,
                    "indices": 5,
                    "attributes": {
                        "POSITION": 0,
                        "NORMAL": 1,
                        "TANGENT": 2,
                        "TEXCOORD_0": 3,
                        "TEXCOORD_1": 4
                    }
                }
            ]
        }
    ],
    "nodes": [
        {
            "name": "Bistro_Research_Exterior_Paris_Building_08_paris_building_08_5383",
            "mesh": 0
        }
    ],
    "samplers": [
        {},
        {},
        {}
    ],
    "scenes": [
        {
            "nodes": [
                0
            ]
        }
    ],
    "textures": [
        {
            "source": 0,
            "sampler": 0
        },
        {
            "source": 1,
            "sampler": 1
        },
        {
            "source": 2,
            "sampler": 2
        }
    ],
    "scene": 0
}