{
    "asset": {
        "version": "2.0",
        "generator": "Open Asset Import Library (assimp v6.0.44188438)"
    },
    "extensionsUsed": [
        "KHR_materials_specular",
        "KHR_materials_volume",
        "FB_ngon_encoding"
    ],
    "accessors": [
        {
            "bufferView": 0,
            "byteOffset": 0,
            "componentType": 5126,
            "count": 8,
            "type": "VEC3",
            "max": [
                836.6639404296875,
                1687.577392578125,
                275.0765380859375
            ],
            "min": [
                2.2250738585072014e-308,
                2.2250738585072014e-308,
                2.2250738585072014e-308
            ]
        },
        {
            "bufferView": 1,
            "byteOffset": 0,
            "componentType": 5126,
            "count": 8,
            "type": "VEC3",
            "max": [
                -0.76717609167099,
                0.6191928386688232,
                0.16745471954345703
            ],
            "min": [
                -0.76717609167099,
                2.2250738585072014e-308,
                2.2250738585072014e-308
            ]
        },
        {
            "bufferView": 2,
            "byteOffset": 0,
            "componentType": 5126,
            "count": 8,
            "type": "VEC3",
            "max": [
                0.13035914301872253,
                -0.10510747134685516,
                0.9858798384666443
            ],
            "min": [
                2.2250738585072014e-308,
                -0.10510798543691635,
                2.2250738585072014e-308
            ]
        },
        {
            "bufferView": 3,
            "byteOffset": 0,
            "componentType": 5126,
            "count": 8,
            "type": "VEC2",
            "max": [
                -0.146728515625,
                2.9580078125
            ],
            "min": [
                -0.93408203125,
                2.2250738585072014e-308
            ]
        },
        {
            "bufferView": 4,
            "byteOffset": 0,
            "componentType": 5126,
            "count": 8,
            "type": "VEC2",
            "max": [
                0.98974609375,
                0.9921875
            ],
            "min": [
                2.2250738585072014e-308,
                2.2250738585072014e-308
            ]
        },
        {
            "bufferView": 5,
            "byteOffset": 0,
            "componentType": 5125,
            "count": 12,
            "type": "SCALAR",
            "max": [
                7
            ],
            "min": [
                0
            ]
        }
    ],
    "buffers": [
        {
            "byteLength": 464,
            "uri": "Bistro_Research_Exterior_paris_building_04_5009.bin"
        }
    ],
    "bufferViews": [
        {
            "buffer": 0,
            "byteOffset": 0,
            "byteLength": 96,
            "target": 34962
        },
        {
            "buffer": 0,
            "byteOffset": 96,
            "byteLength": 96,
            "target": 34962
        },
        {
            "buffer": 0,
            "byteOffset": 192,
            "byteLength": 96,
            "target": 34962
        },
        {
            "buffer": 0,
            "byteOffset": 288,
            "byteLength": 64,
            "target": 34962
        },
        {
            "buffer": 0,
            "byteOffset": 352,
            "byteLength": 64,
            "target": 34962
        },
        {
            "buffer": 0,
            "byteOffset": 416,
            "byteLength": 48,
            "target": 34963
        }
    ],
    "images": [
        {
            "uri": "Textures\\MASTER_Frosted_Glass_BaseColor.dds"
        },
        {
            "uri": "Textures\\MASTER_Frosted_Glass_Normal.dds"
        },
        {
            "uri": "Textures\\MASTER_Frosted_Glass_Specular.dds"
        }
    ],
    "materials": [
        {
            "name": "MASTER_Frosted_Glass",
            "pbrMetallicRoughness": {
                "baseColorTexture": {
                    "index": 0
                },
                "metallicFactor": 0.0,
                "roughnessFactor": 0.5527864098548889
            },
            "normalTexture": {
                "index": 1
            },
            "extensions": {
                "KHR_materials_specular": {
                    "specularFactor": 1.0,
                    "specularColorFactor": [
                        0.5,
                        0.5,
                        0.5
                    ],
                    "specularTexture": {
                        "index": 2
                    }
                }
            }
        }
    ],
    "meshes": [
        {
            "name": "Bistro_Research_Exterior_paris_building_04_5009",
            "primitives": [
                {
                    "mode": 4,
                    "material": 0,
                    "indices": 5,
                    "attributes": {
                        "POSITION": 0,
                        "NORMAL": 1,
                        "TANGENT": 2,
                        "TEXCOORD_0": 3,
                        "TEXCOORD_1": 4
                    }
                }
            ]
        }
    ],
    "nodes": [
        {
            "name": "Bistro_Research_Exterior_paris_building_04_5009",
            "mesh": 0
        }
    ],
    "samplers": [
        {},
        {},
        {}
    ],
    "scenes": [
        {
            "nodes": [
                0
            ]
        }
    ],
    "textures": [
        {
            "source": 0,
            "sampler": 0
        },
        {
            "source": 1,
            "sampler": 1
        },
        {
            "source": 2,
            "sampler": 2
        }
    ],
    "scene": 0
}