{
    "asset": {
        "version": "2.0",
        "generator": "Open Asset Import Library (assimp v6.0.44188438)"
    },
    "extensionsUsed": [
        "KHR_materials_specular",
        "KHR_materials_volume",
        "FB_ngon_encoding"
    ],
    "accessors": [
        {
            "bufferView": 0,
            "byteOffset": 0,
            "componentType": 5126,
            "count": 160,
            "type": "VEC3",
            "max": [
                2863.5498046875,
                -2071.843505859375,
                1354.945068359375
            ],
            "min": [
                2.2250738585072014e-308,
                -2663.2021484375,
                2.2250738585072014e-308
            ]
        },
        {
            "bufferView": 1,
            "byteOffset": 0,
            "componentType": 5126,
            "count": 160,
            "type": "VEC3",
            "max": [
                0.9203593134880066,
                0.921554446220398,
                -0.003909443039447069
            ],
            "min": [
                -0.9187331199645996,
                -0.3910539448261261,
                -0.003949978854507208
            ]
        },
        {
            "bufferView": 2,
            "byteOffset": 0,
            "componentType": 5126,
            "count": 160,
            "type": "VEC3",
            "max": [
                0.9215614795684814,
                0.9187402129173279,
                0.9999923706054688
            ],
            "min": [
                -0.9215615391731262,
                -0.9203664660453796,
                -0.9999924302101135
            ]
        },
        {
            "bufferView": 3,
            "byteOffset": 0,
            "componentType": 5126,
            "count": 160,
            "type": "VEC2",
            "max": [
                0.58935546875,
                0.98907470703125
            ],
            "min": [
                -0.0018520355224609375,
                2.2250738585072014e-308
            ]
        },
        {
            "bufferView": 4,
            "byteOffset": 0,
            "componentType": 5126,
            "count": 160,
            "type": "VEC2",
            "max": [
                0.98779296875,
                0.9921875
            ],
            "min": [
                2.2250738585072014e-308,
                2.2250738585072014e-308
            ]
        },
        {
            "bufferView": 5,
            "byteOffset": 0,
            "componentType": 5125,
            "count": 258,
            "type": "SCALAR",
            "max": [
                159
            ],
            "min": [
                0
            ]
        }
    ],
    "buffers": [
        {
            "byteLength": 9352,
            "uri": "Bistro_Research_Exterior_paris_building_10_8__5545.bin"
        }
    ],
    "bufferViews": [
        {
            "buffer": 0,
            "byteOffset": 0,
            "byteLength": 1920,
            "target": 34962
        },
        {
            "buffer": 0,
            "byteOffset": 1920,
            "byteLength": 1920,
            "target": 34962
        },
        {
            "buffer": 0,
            "byteOffset": 3840,
            "byteLength": 1920,
            "target": 34962
        },
        {
            "buffer": 0,
            "byteOffset": 5760,
            "byteLength": 1280,
            "target": 34962
        },
        {
            "buffer": 0,
            "byteOffset": 7040,
            "byteLength": 1280,
            "target": 34962
        },
        {
            "buffer": 0,
            "byteOffset": 8320,
            "byteLength": 1032,
            "target": 34963
        }
    ],
    "images": [
        {
            "uri": "Textures\\MASTER_Forge_Metal_BaseColor.dds"
        },
        {
            "uri": "Textures\\MASTER_Forge_Metal_Normal.dds"
        },
        {
            "uri": "Textures\\MASTER_Forge_Metal_Specular.dds"
        }
    ],
    "materials": [
        {
            "name": "MASTER_Forge_Metal",
            "pbrMetallicRoughness": {
                "baseColorTexture": {
                    "index": 0
                },
                "metallicFactor": 0.0,
                "roughnessFactor": 0.5527864098548889
            },
            "normalTexture": {
                "index": 1
            },
            "extensions": {
                "KHR_materials_specular": {
                    "specularFactor": 1.0,
                    "specularColorFactor": [
                        0.5,
                        0.5,
                        0.5
                    ],
                    "specularTexture": {
                        "index": 2
                    }
                }
            }
        }
    ],
    "meshes": [
        {
            "name": "Bistro_Research_Exterior_paris_building_10_8__5545",
            "primitives": [
                {
                    "mode": 4,
                    "material": 0,
                    "indices": 5,
                    "attributes": {
                        "POSITION": 0,
                        "NORMAL": 1,
                        "TANGENT": 2,
                        "TEXCOORD_0": 3,
                        "TEXCOORD_1": 4
                    }
                }
            ]
        }
    ],
    "nodes": [
        {
            "name": "Bistro_Research_Exterior_paris_building_10_8__5545",
            "mesh": 0
        }
    ],
    "samplers": [
        {},
        {},
        {}
    ],
    "scenes": [
        {
            "nodes": [
                0
            ]
        }
    ],
    "textures": [
        {
            "source": 0,
            "sampler": 0
        },
        {
            "source": 1,
            "sampler": 1
        },
        {
            "source": 2,
            "sampler": 2
        }
    ],
    "scene": 0
}