{
    "asset": {
        "version": "2.0",
        "generator": "Open Asset Import Library (assimp v6.0.44188438)"
    },
    "extensionsUsed": [
        "KHR_materials_specular",
        "KHR_materials_volume",
        "FB_ngon_encoding"
    ],
    "accessors": [
        {
            "bufferView": 0,
            "byteOffset": 0,
            "componentType": 5126,
            "count": 1384,
            "type": "VEC3",
            "max": [
                22.80958366394043,
                640.8500366210938,
                1418.4676513671875
            ],
            "min": [
                -17.825544357299805,
                2.2250738585072014e-308,
                2.2250738585072014e-308
            ]
        },
        {
            "bufferView": 1,
            "byteOffset": 0,
            "componentType": 5126,
            "count": 1384,
            "type": "VEC3",
            "max": [
                0.46752306818962097,
                0.9895882606506348,
                0.7045988440513611
            ],
            "min": [
                -0.9972280263900757,
                -0.999796986579895,
                -0.7085301280021667
            ]
        },
        {
            "bufferView": 2,
            "byteOffset": 0,
            "componentType": 5126,
            "count": 1384,
            "type": "VEC3",
            "max": [
                0.9998048543930054,
                0.472232848405838,
                0.12340115755796432
            ],
            "min": [
                -0.9940618872642517,
                -0.9982434511184692,
                -0.10513777285814285
            ]
        },
        {
            "bufferView": 3,
            "byteOffset": 0,
            "componentType": 5126,
            "count": 1384,
            "type": "VEC2",
            "max": [
                2.10546875,
                2.171875
            ],
            "min": [
                2.2250738585072014e-308,
                -0.91796875
            ]
        },
        {
            "bufferView": 4,
            "byteOffset": 0,
            "componentType": 5126,
            "count": 1384,
            "type": "VEC2",
            "max": [
                0.9921875,
                0.9921875
            ],
            "min": [
                2.2250738585072014e-308,
                2.2250738585072014e-308
            ]
        },
        {
            "bufferView": 5,
            "byteOffset": 0,
            "componentType": 5125,
            "count": 6240,
            "type": "SCALAR",
            "max": [
                1383
            ],
            "min": [
                0
            ]
        }
    ],
    "buffers": [
        {
            "byteLength": 96928,
            "uri": "Bistro_Research_Exterior_Paris_Building_01_paris_building_01_4261.bin"
        }
    ],
    "bufferViews": [
        {
            "buffer": 0,
            "byteOffset": 0,
            "byteLength": 16608,
            "target": 34962
        },
        {
            "buffer": 0,
            "byteOffset": 16608,
            "byteLength": 16608,
            "target": 34962
        },
        {
            "buffer": 0,
            "byteOffset": 33216,
            "byteLength": 16608,
            "target": 34962
        },
        {
            "buffer": 0,
            "byteOffset": 49824,
            "byteLength": 11072,
            "target": 34962
        },
        {
            "buffer": 0,
            "byteOffset": 60896,
            "byteLength": 11072,
            "target": 34962
        },
        {
            "buffer": 0,
            "byteOffset": 71968,
            "byteLength": 24960,
            "target": 34963
        }
    ],
    "images": [
        {
            "uri": "Textures\\MASTER_Concrete_Smooth_BaseColor.dds"
        },
        {
            "uri": "Textures\\MASTER_Concrete_Smooth_Normal.dds"
        },
        {
            "uri": "Textures\\MASTER_Concrete_Smooth_Specular.dds"
        }
    ],
    "materials": [
        {
            "name": "MASTER_Concrete_Smooth",
            "pbrMetallicRoughness": {
                "baseColorTexture": {
                    "index": 0
                },
                "metallicFactor": 0.0,
                "roughnessFactor": 0.5527864098548889
            },
            "normalTexture": {
                "index": 1
            },
            "extensions": {
                "KHR_materials_specular": {
                    "specularFactor": 1.0,
                    "specularColorFactor": [
                        0.5,
                        0.5,
                        0.5
                    ],
                    "specularTexture": {
                        "index": 2
                    }
                }
            }
        }
    ],
    "meshes": [
        {
            "name": "Bistro_Research_Exterior_Paris_Building_01_paris_building_01_4261",
            "primitives": [
                {
                    "mode": 4,
                    "material": 0,
                    "indices": 5,
                    "attributes": {
                        "POSITION": 0,
                        "NORMAL": 1,
                        "TANGENT": 2,
                        "TEXCOORD_0": 3,
                        "TEXCOORD_1": 4
                    }
                }
            ]
        }
    ],
    "nodes": [
        {
            "name": "Bistro_Research_Exterior_Paris_Building_01_paris_building_01_4261",
            "mesh": 0
        }
    ],
    "samplers": [
        {},
        {},
        {}
    ],
    "scenes": [
        {
            "nodes": [
                0
            ]
        }
    ],
    "textures": [
        {
            "source": 0,
            "sampler": 0
        },
        {
            "source": 1,
            "sampler": 1
        },
        {
            "source": 2,
            "sampler": 2
        }
    ],
    "scene": 0
}