{
    "asset": {
        "version": "2.0",
        "generator": "Open Asset Import Library (assimp v6.0.44188438)"
    },
    "extensionsUsed": [
        "KHR_materials_specular",
        "KHR_materials_volume",
        "FB_ngon_encoding"
    ],
    "accessors": [
        {
            "bufferView": 0,
            "byteOffset": 0,
            "componentType": 5126,
            "count": 2752,
            "type": "VEC3",
            "max": [
                252.59889221191406,
                -1885.742919921875,
                1687.494384765625
            ],
            "min": [
                2.2250738585072014e-308,
                -1994.6927490234375,
                2.2250738585072014e-308
            ]
        },
        {
            "bufferView": 1,
            "byteOffset": 0,
            "componentType": 5126,
            "count": 2752,
            "type": "VEC3",
            "max": [
                0.9999219179153442,
                0.9972280263900757,
                0.999984622001648
            ],
            "min": [
                -0.9993700981140137,
                -0.9977423548698425,
                -0.999984622001648
            ]
        },
        {
            "bufferView": 2,
            "byteOffset": 0,
            "componentType": 5126,
            "count": 2752,
            "type": "VEC3",
            "max": [
                0.9956609010696411,
                0.994713544845581,
                0.9999924898147583
            ],
            "min": [
                -0.9975016713142395,
                -0.9884267449378967,
                -0.9999924898147583
            ]
        },
        {
            "bufferView": 3,
            "byteOffset": 0,
            "componentType": 5126,
            "count": 2752,
            "type": "VEC2",
            "max": [
                0.98974609375,
                0.9882736206054688
            ],
            "min": [
                2.2250738585072014e-308,
                2.2250738585072014e-308
            ]
        },
        {
            "bufferView": 4,
            "byteOffset": 0,
            "componentType": 5126,
            "count": 2752,
            "type": "VEC2",
            "max": [
                0.98974609375,
                0.9921875
            ],
            "min": [
                2.2250738585072014e-308,
                2.2250738585072014e-308
            ]
        },
        {
            "bufferView": 5,
            "byteOffset": 0,
            "componentType": 5125,
            "count": 6204,
            "type": "SCALAR",
            "max": [
                2751
            ],
            "min": [
                0
            ]
        }
    ],
    "buffers": [
        {
            "byteLength": 167920,
            "uri": "Bistro_Research_Exterior_Paris_Aerial_01C1_4059_0.bin"
        }
    ],
    "bufferViews": [
        {
            "buffer": 0,
            "byteOffset": 0,
            "byteLength": 33024,
            "target": 34962
        },
        {
            "buffer": 0,
            "byteOffset": 33024,
            "byteLength": 33024,
            "target": 34962
        },
        {
            "buffer": 0,
            "byteOffset": 66048,
            "byteLength": 33024,
            "target": 34962
        },
        {
            "buffer": 0,
            "byteOffset": 99072,
            "byteLength": 22016,
            "target": 34962
        },
        {
            "buffer": 0,
            "byteOffset": 121088,
            "byteLength": 22016,
            "target": 34962
        },
        {
            "buffer": 0,
            "byteOffset": 143104,
            "byteLength": 24816,
            "target": 34963
        }
    ],
    "images": [
        {
            "uri": "Textures\\Antenna_Metal_BaseColor.dds"
        },
        {
            "uri": "Textures\\Antenna_Metal_Normal.dds"
        },
        {
            "uri": "Textures\\Antenna_Metal_Specular.dds"
        }
    ],
    "materials": [
        {
            "name": "Antenna_Metal",
            "pbrMetallicRoughness": {
                "baseColorTexture": {
                    "index": 0
                },
                "metallicFactor": 0.0,
                "roughnessFactor": 0.5527864098548889
            },
            "normalTexture": {
                "index": 1
            },
            "extensions": {
                "KHR_materials_specular": {
                    "specularFactor": 1.0,
                    "specularColorFactor": [
                        0.5,
                        0.5,
                        0.5
                    ],
                    "specularTexture": {
                        "index": 2
                    }
                }
            }
        }
    ],
    "meshes": [
        {
            "name": "Bistro_Research_Exterior_Paris_Aerial_01C1_4059",
            "primitives": [
                {
                    "mode": 4,
                    "material": 0,
                    "indices": 5,
                    "attributes": {
                        "POSITION": 0,
                        "NORMAL": 1,
                        "TANGENT": 2,
                        "TEXCOORD_0": 3,
                        "TEXCOORD_1": 4
                    }
                }
            ]
        }
    ],
    "nodes": [
        {
            "name": "Bistro_Research_Exterior_Paris_Aerial_01C1_4059",
            "mesh": 0
        }
    ],
    "samplers": [
        {},
        {},
        {}
    ],
    "scenes": [
        {
            "nodes": [
                0
            ]
        }
    ],
    "textures": [
        {
            "source": 0,
            "sampler": 0
        },
        {
            "source": 1,
            "sampler": 1
        },
        {
            "source": 2,
            "sampler": 2
        }
    ],
    "scene": 0
}