{
    "asset": {
        "version": "2.0",
        "generator": "Open Asset Import Library (assimp v6.0.44188438)"
    },
    "extensionsUsed": [
        "KHR_materials_specular",
        "KHR_materials_volume",
        "FB_ngon_encoding"
    ],
    "accessors": [
        {
            "bufferView": 0,
            "byteOffset": 0,
            "componentType": 5126,
            "count": 49,
            "type": "VEC3",
            "max": [
                -962.6189575195313,
                -206.1676025390625,
                443.2438049316406
            ],
            "min": [
                -967.9141845703125,
                -211.46273803710938,
                2.2250738585072014e-308
            ]
        },
        {
            "bufferView": 1,
            "byteOffset": 0,
            "componentType": 5126,
            "count": 49,
            "type": "VEC3",
            "max": [
                0.9281992316246033,
                0.929271936416626,
                0.9203592538833618
            ],
            "min": [
                -0.9319244027137756,
                -0.9308874607086182,
                -0.003937710076570511
            ]
        },
        {
            "bufferView": 2,
            "byteOffset": 0,
            "componentType": 5126,
            "count": 49,
            "type": "VEC3",
            "max": [
                0.9308947324752808,
                0.9892967343330383,
                0.9085462093353271
            ],
            "min": [
                -0.929279088973999,
                -0.9319314956665039,
                -0.8321139812469482
            ]
        },
        {
            "bufferView": 3,
            "byteOffset": 0,
            "componentType": 5126,
            "count": 49,
            "type": "VEC2",
            "max": [
                0.95849609375,
                0.980499267578125
            ],
            "min": [
                2.2250738585072014e-308,
                2.2250738585072014e-308
            ]
        },
        {
            "bufferView": 4,
            "byteOffset": 0,
            "componentType": 5126,
            "count": 49,
            "type": "VEC2",
            "max": [
                0.171142578125,
                0.7265625
            ],
            "min": [
                2.2250738585072014e-308,
                2.2250738585072014e-308
            ]
        },
        {
            "bufferView": 5,
            "byteOffset": 0,
            "componentType": 5125,
            "count": 192,
            "type": "SCALAR",
            "max": [
                48
            ],
            "min": [
                0
            ]
        }
    ],
    "buffers": [
        {
            "byteLength": 3316,
            "uri": "Bistro_Research_Exterior_Paris_StreetLight_01a___3__6267_1.bin"
        }
    ],
    "bufferViews": [
        {
            "buffer": 0,
            "byteOffset": 0,
            "byteLength": 588,
            "target": 34962
        },
        {
            "buffer": 0,
            "byteOffset": 588,
            "byteLength": 588,
            "target": 34962
        },
        {
            "buffer": 0,
            "byteOffset": 1176,
            "byteLength": 588,
            "target": 34962
        },
        {
            "buffer": 0,
            "byteOffset": 1764,
            "byteLength": 392,
            "target": 34962
        },
        {
            "buffer": 0,
            "byteOffset": 2156,
            "byteLength": 392,
            "target": 34962
        },
        {
            "buffer": 0,
            "byteOffset": 2548,
            "byteLength": 768,
            "target": 34963
        }
    ],
    "images": [
        {
            "uri": "Textures\\Paris_StringLights_01_White_Color_BaseColor.dds"
        },
        {
            "uri": "Textures\\Paris_StringLights_01_White_Color_Normal.dds"
        },
        {
            "uri": "Textures\\Paris_StringLights_01_White_Color_Specular.dds"
        }
    ],
    "materials": [
        {
            "name": "Paris_StringLights_01_White_Color",
            "pbrMetallicRoughness": {
                "baseColorTexture": {
                    "index": 0
                },
                "metallicFactor": 0.0,
                "roughnessFactor": 0.5527864098548889
            },
            "normalTexture": {
                "index": 1
            },
            "extensions": {
                "KHR_materials_specular": {
                    "specularFactor": 1.0,
                    "specularColorFactor": [
                        0.5,
                        0.5,
                        0.5
                    ],
                    "specularTexture": {
                        "index": 2
                    }
                }
            }
        }
    ],
    "meshes": [
        {
            "name": "Bistro_Research_Exterior_Paris_StreetLight_01a___3__6267",
            "primitives": [
                {
                    "mode": 4,
                    "material": 0,
                    "indices": 5,
                    "attributes": {
                        "POSITION": 0,
                        "NORMAL": 1,
                        "TANGENT": 2,
                        "TEXCOORD_0": 3,
                        "TEXCOORD_1": 4
                    }
                }
            ]
        }
    ],
    "nodes": [
        {
            "name": "Bistro_Research_Exterior_Paris_StreetLight_01a___3__6267",
            "mesh": 0
        }
    ],
    "samplers": [
        {},
        {},
        {}
    ],
    "scenes": [
        {
            "nodes": [
                0
            ]
        }
    ],
    "textures": [
        {
            "source": 0,
            "sampler": 0
        },
        {
            "source": 1,
            "sampler": 1
        },
        {
            "source": 2,
            "sampler": 2
        }
    ],
    "scene": 0
}