{
    "asset": {
        "version": "2.0",
        "generator": "Open Asset Import Library (assimp v6.0.44188438)"
    },
    "extensionsUsed": [
        "KHR_materials_specular",
        "KHR_materials_volume",
        "FB_ngon_encoding"
    ],
    "accessors": [
        {
            "bufferView": 0,
            "byteOffset": 0,
            "componentType": 5126,
            "count": 100,
            "type": "VEC3",
            "max": [
                1126.074951171875,
                -240.10467529296875,
                750.531005859375
            ],
            "min": [
                2.2250738585072014e-308,
                -547.0577392578125,
                2.2250738585072014e-308
            ]
        },
        {
            "bufferView": 1,
            "byteOffset": 0,
            "componentType": 5126,
            "count": 100,
            "type": "VEC3",
            "max": [
                0.9308874607086182,
                0.3693758547306061,
                0.999984622001648
            ],
            "min": [
                -0.929271936416626,
                -0.9371253252029419,
                -0.999984622001648
            ]
        },
        {
            "bufferView": 2,
            "byteOffset": 0,
            "componentType": 5126,
            "count": 100,
            "type": "VEC3",
            "max": [
                0.9371330142021179,
                0.9308946132659912,
                0.005088723264634609
            ],
            "min": [
                -0.3693786561489105,
                -0.9292790293693542,
                -0.005095692817121744
            ]
        },
        {
            "bufferView": 3,
            "byteOffset": 0,
            "componentType": 5126,
            "count": 100,
            "type": "VEC2",
            "max": [
                3.251953125,
                3.3671875
            ],
            "min": [
                -0.93505859375,
                -0.248046875
            ]
        },
        {
            "bufferView": 4,
            "byteOffset": 0,
            "componentType": 5126,
            "count": 100,
            "type": "VEC2",
            "max": [
                0.9921875,
                0.9921875
            ],
            "min": [
                2.2250738585072014e-308,
                2.2250738585072014e-308
            ]
        },
        {
            "bufferView": 5,
            "byteOffset": 0,
            "componentType": 5125,
            "count": 270,
            "type": "SCALAR",
            "max": [
                99
            ],
            "min": [
                0
            ]
        }
    ],
    "buffers": [
        {
            "byteLength": 6280,
            "uri": "Bistro_Research_Exterior_Paris_Building_01_paris_building_01_4153.bin"
        }
    ],
    "bufferViews": [
        {
            "buffer": 0,
            "byteOffset": 0,
            "byteLength": 1200,
            "target": 34962
        },
        {
            "buffer": 0,
            "byteOffset": 1200,
            "byteLength": 1200,
            "target": 34962
        },
        {
            "buffer": 0,
            "byteOffset": 2400,
            "byteLength": 1200,
            "target": 34962
        },
        {
            "buffer": 0,
            "byteOffset": 3600,
            "byteLength": 800,
            "target": 34962
        },
        {
            "buffer": 0,
            "byteOffset": 4400,
            "byteLength": 800,
            "target": 34962
        },
        {
            "buffer": 0,
            "byteOffset": 5200,
            "byteLength": 1080,
            "target": 34963
        }
    ],
    "images": [
        {
            "uri": "Textures\\MASTER_Concrete_Grooved_BaseColor.dds"
        },
        {
            "uri": "Textures\\MASTER_Concrete_Grooved_Normal.dds"
        },
        {
            "uri": "Textures\\MASTER_Concrete_Grooved_Specular.dds"
        }
    ],
    "materials": [
        {
            "name": "MASTER_Concrete_Grooved",
            "pbrMetallicRoughness": {
                "baseColorTexture": {
                    "index": 0
                },
                "metallicFactor": 0.0,
                "roughnessFactor": 0.5527864098548889
            },
            "normalTexture": {
                "index": 1
            },
            "extensions": {
                "KHR_materials_specular": {
                    "specularFactor": 1.0,
                    "specularColorFactor": [
                        0.5,
                        0.5,
                        0.5
                    ],
                    "specularTexture": {
                        "index": 2
                    }
                }
            }
        }
    ],
    "meshes": [
        {
            "name": "Bistro_Research_Exterior_Paris_Building_01_paris_building_01_4153",
            "primitives": [
                {
                    "mode": 4,
                    "material": 0,
                    "indices": 5,
                    "attributes": {
                        "POSITION": 0,
                        "NORMAL": 1,
                        "TANGENT": 2,
                        "TEXCOORD_0": 3,
                        "TEXCOORD_1": 4
                    }
                }
            ]
        }
    ],
    "nodes": [
        {
            "name": "Bistro_Research_Exterior_Paris_Building_01_paris_building_01_4153",
            "mesh": 0
        }
    ],
    "samplers": [
        {},
        {},
        {}
    ],
    "scenes": [
        {
            "nodes": [
                0
            ]
        }
    ],
    "textures": [
        {
            "source": 0,
            "sampler": 0
        },
        {
            "source": 1,
            "sampler": 1
        },
        {
            "source": 2,
            "sampler": 2
        }
    ],
    "scene": 0
}