{
    "asset": {
        "version": "2.0",
        "generator": "Open Asset Import Library (assimp v6.0.44188438)"
    },
    "extensionsUsed": [
        "KHR_materials_specular",
        "KHR_materials_volume",
        "FB_ngon_encoding"
    ],
    "accessors": [
        {
            "bufferView": 0,
            "byteOffset": 0,
            "componentType": 5126,
            "count": 6416,
            "type": "VEC3",
            "max": [
                265.82965087890625,
                2331.6923828125,
                162.18324279785156
            ],
            "min": [
                2.2250738585072014e-308,
                2.2250738585072014e-308,
                2.2250738585072014e-308
            ]
        },
        {
            "bufferView": 1,
            "byteOffset": 0,
            "componentType": 5126,
            "count": 6416,
            "type": "VEC3",
            "max": [
                0.9999843835830688,
                0.9998001456260681,
                0.999984622001648
            ],
            "min": [
                -0.9998615980148315,
                -0.9999219179153442,
                -0.999984622001648
            ]
        },
        {
            "bufferView": 2,
            "byteOffset": 0,
            "componentType": 5126,
            "count": 6416,
            "type": "VEC3",
            "max": [
                0.9999656081199646,
                0.9998003244400024,
                0.9999924302101135
            ],
            "min": [
                -0.9999222755432129,
                -0.9999914765357971,
                -0.9999924302101135
            ]
        },
        {
            "bufferView": 3,
            "byteOffset": 0,
            "componentType": 5126,
            "count": 6416,
            "type": "VEC2",
            "max": [
                0.99853515625,
                0.9948005676269531
            ],
            "min": [
                2.2250738585072014e-308,
                2.2250738585072014e-308
            ]
        },
        {
            "bufferView": 4,
            "byteOffset": 0,
            "componentType": 5126,
            "count": 6416,
            "type": "VEC2",
            "max": [
                0.99169921875,
                0.9921875
            ],
            "min": [
                2.2250738585072014e-308,
                2.2250738585072014e-308
            ]
        },
        {
            "bufferView": 5,
            "byteOffset": 0,
            "componentType": 5125,
            "count": 17553,
            "type": "SCALAR",
            "max": [
                6415
            ],
            "min": [
                0
            ]
        }
    ],
    "buffers": [
        {
            "byteLength": 403844,
            "uri": "Bistro_Research_Exterior_Paris_TrashCan_01A_6515.bin"
        }
    ],
    "bufferViews": [
        {
            "buffer": 0,
            "byteOffset": 0,
            "byteLength": 76992,
            "target": 34962
        },
        {
            "buffer": 0,
            "byteOffset": 76992,
            "byteLength": 76992,
            "target": 34962
        },
        {
            "buffer": 0,
            "byteOffset": 153984,
            "byteLength": 76992,
            "target": 34962
        },
        {
            "buffer": 0,
            "byteOffset": 230976,
            "byteLength": 51328,
            "target": 34962
        },
        {
            "buffer": 0,
            "byteOffset": 282304,
            "byteLength": 51328,
            "target": 34962
        },
        {
            "buffer": 0,
            "byteOffset": 333632,
            "byteLength": 70212,
            "target": 34963
        }
    ],
    "images": [
        {
            "uri": "Textures\\Trashcan_BaseColor.dds"
        },
        {
            "uri": "Textures\\Trashcan_Normal.dds"
        },
        {
            "uri": "Textures\\Trashcan_Specular.dds"
        }
    ],
    "materials": [
        {
            "name": "Trashcan",
            "pbrMetallicRoughness": {
                "baseColorTexture": {
                    "index": 0
                },
                "metallicFactor": 0.0,
                "roughnessFactor": 0.5527864098548889
            },
            "normalTexture": {
                "index": 1
            },
            "extensions": {
                "KHR_materials_specular": {
                    "specularFactor": 1.0,
                    "specularColorFactor": [
                        0.5,
                        0.5,
                        0.5
                    ],
                    "specularTexture": {
                        "index": 2
                    }
                }
            }
        }
    ],
    "meshes": [
        {
            "name": "Bistro_Research_Exterior_Paris_TrashCan_01A_6515",
            "primitives": [
                {
                    "mode": 4,
                    "material": 0,
                    "indices": 5,
                    "attributes": {
                        "POSITION": 0,
                        "NORMAL": 1,
                        "TANGENT": 2,
                        "TEXCOORD_0": 3,
                        "TEXCOORD_1": 4
                    }
                }
            ]
        }
    ],
    "nodes": [
        {
            "name": "Bistro_Research_Exterior_Paris_TrashCan_01A_6515",
            "mesh": 0
        }
    ],
    "samplers": [
        {},
        {},
        {}
    ],
    "scenes": [
        {
            "nodes": [
                0
            ]
        }
    ],
    "textures": [
        {
            "source": 0,
            "sampler": 0
        },
        {
            "source": 1,
            "sampler": 1
        },
        {
            "source": 2,
            "sampler": 2
        }
    ],
    "scene": 0
}