{
    "asset": {
        "version": "2.0",
        "generator": "Open Asset Import Library (assimp v6.0.44188438)"
    },
    "extensionsUsed": [
        "KHR_materials_specular",
        "KHR_materials_volume",
        "FB_ngon_encoding"
    ],
    "accessors": [
        {
            "bufferView": 0,
            "byteOffset": 0,
            "componentType": 5126,
            "count": 466,
            "type": "VEC3",
            "max": [
                750.7471923828125,
                -692.7164306640625,
                110.87100982666016
            ],
            "min": [
                2.2250738585072014e-308,
                -703.6056518554688,
                2.2250738585072014e-308
            ]
        },
        {
            "bufferView": 1,
            "byteOffset": 0,
            "componentType": 5126,
            "count": 466,
            "type": "VEC3",
            "max": [
                0.9977423548698425,
                0.99777752161026,
                0.999984622001648
            ],
            "min": [
                -0.9982666969299316,
                -0.998239278793335,
                -0.999984622001648
            ]
        },
        {
            "bufferView": 2,
            "byteOffset": 0,
            "componentType": 5126,
            "count": 466,
            "type": "VEC3",
            "max": [
                0.9981943964958191,
                0.9977811574935913,
                0.7418296337127686
            ],
            "min": [
                -0.9977850914001465,
                -0.9982625842094421,
                -0.5831016898155212
            ]
        },
        {
            "bufferView": 3,
            "byteOffset": 0,
            "componentType": 5126,
            "count": 466,
            "type": "VEC2",
            "max": [
                0.9912109375,
                0.9926567077636719
            ],
            "min": [
                2.2250738585072014e-308,
                2.2250738585072014e-308
            ]
        },
        {
            "bufferView": 4,
            "byteOffset": 0,
            "componentType": 5126,
            "count": 466,
            "type": "VEC2",
            "max": [
                0.9892578125,
                0.9921875
            ],
            "min": [
                2.2250738585072014e-308,
                2.2250738585072014e-308
            ]
        },
        {
            "bufferView": 5,
            "byteOffset": 0,
            "componentType": 5125,
            "count": 1464,
            "type": "SCALAR",
            "max": [
                465
            ],
            "min": [
                0
            ]
        }
    ],
    "buffers": [
        {
            "byteLength": 30088,
            "uri": "Bistro_Research_Exterior_Paris_Ashtray_01_mesh___3__4081.bin"
        }
    ],
    "bufferViews": [
        {
            "buffer": 0,
            "byteOffset": 0,
            "byteLength": 5592,
            "target": 34962
        },
        {
            "buffer": 0,
            "byteOffset": 5592,
            "byteLength": 5592,
            "target": 34962
        },
        {
            "buffer": 0,
            "byteOffset": 11184,
            "byteLength": 5592,
            "target": 34962
        },
        {
            "buffer": 0,
            "byteOffset": 16776,
            "byteLength": 3728,
            "target": 34962
        },
        {
            "buffer": 0,
            "byteOffset": 20504,
            "byteLength": 3728,
            "target": 34962
        },
        {
            "buffer": 0,
            "byteOffset": 24232,
            "byteLength": 5856,
            "target": 34963
        }
    ],
    "images": [
        {
            "uri": "Textures\\Ashtray_BaseColor.dds"
        },
        {
            "uri": "Textures\\Ashtray_Normal.dds"
        },
        {
            "uri": "Textures\\Ashtray_Specular.dds"
        }
    ],
    "materials": [
        {
            "name": "Ashtray",
            "pbrMetallicRoughness": {
                "baseColorTexture": {
                    "index": 0
                },
                "metallicFactor": 0.0,
                "roughnessFactor": 0.5527864098548889
            },
            "normalTexture": {
                "index": 1
            },
            "extensions": {
                "KHR_materials_specular": {
                    "specularFactor": 1.0,
                    "specularColorFactor": [
                        0.5,
                        0.5,
                        0.5
                    ],
                    "specularTexture": {
                        "index": 2
                    }
                }
            }
        }
    ],
    "meshes": [
        {
            "name": "Bistro_Research_Exterior_Paris_Ashtray_01_mesh___3__4081",
            "primitives": [
                {
                    "mode": 4,
                    "material": 0,
                    "indices": 5,
                    "attributes": {
                        "POSITION": 0,
                        "NORMAL": 1,
                        "TANGENT": 2,
                        "TEXCOORD_0": 3,
                        "TEXCOORD_1": 4
                    }
                }
            ]
        }
    ],
    "nodes": [
        {
            "name": "Bistro_Research_Exterior_Paris_Ashtray_01_mesh___3__4081",
            "mesh": 0
        }
    ],
    "samplers": [
        {},
        {},
        {}
    ],
    "scenes": [
        {
            "nodes": [
                0
            ]
        }
    ],
    "textures": [
        {
            "source": 0,
            "sampler": 0
        },
        {
            "source": 1,
            "sampler": 1
        },
        {
            "source": 2,
            "sampler": 2
        }
    ],
    "scene": 0
}