{
    "asset": {
        "version": "2.0",
        "generator": "Open Asset Import Library (assimp v6.0.44188438)"
    },
    "extensionsUsed": [
        "KHR_materials_specular",
        "KHR_materials_volume",
        "FB_ngon_encoding"
    ],
    "accessors": [
        {
            "bufferView": 0,
            "byteOffset": 0,
            "componentType": 5126,
            "count": 433,
            "type": "VEC3",
            "max": [
                -79.7950439453125,
                471.93170166015625,
                550.4365234375
            ],
            "min": [
                -131.0089569091797,
                2.2250738585072014e-308,
                2.2250738585072014e-308
            ]
        },
        {
            "bufferView": 1,
            "byteOffset": 0,
            "componentType": 5126,
            "count": 433,
            "type": "VEC3",
            "max": [
                0.7984765768051147,
                0.9986953735351563,
                0.999609649181366
            ],
            "min": [
                -0.999984622001648,
                -0.9987369775772095,
                -0.1292111575603485
            ]
        },
        {
            "bufferView": 2,
            "byteOffset": 0,
            "componentType": 5126,
            "count": 433,
            "type": "VEC3",
            "max": [
                0.9993687272071838,
                0.9999923706054688,
                0.5754623413085938
            ],
            "min": [
                -0.9996622800827026,
                -0.9997270107269287,
                -0.5538651347160339
            ]
        },
        {
            "bufferView": 3,
            "byteOffset": 0,
            "componentType": 5126,
            "count": 433,
            "type": "VEC2",
            "max": [
                0.394287109375,
                0.9971275329589844
            ],
            "min": [
                2.2250738585072014e-308,
                2.2250738585072014e-308
            ]
        },
        {
            "bufferView": 4,
            "byteOffset": 0,
            "componentType": 5126,
            "count": 433,
            "type": "VEC2",
            "max": [
                0.98779296875,
                0.9921913146972656
            ],
            "min": [
                2.2250738585072014e-308,
                2.2250738585072014e-308
            ]
        },
        {
            "bufferView": 5,
            "byteOffset": 0,
            "componentType": 5125,
            "count": 1524,
            "type": "SCALAR",
            "max": [
                432
            ],
            "min": [
                0
            ]
        }
    ],
    "buffers": [
        {
            "byteLength": 28612,
            "uri": "Bistro_Research_Exterior_Paris_flowers_01c_6045.bin"
        }
    ],
    "bufferViews": [
        {
            "buffer": 0,
            "byteOffset": 0,
            "byteLength": 5196,
            "target": 34962
        },
        {
            "buffer": 0,
            "byteOffset": 5196,
            "byteLength": 5196,
            "target": 34962
        },
        {
            "buffer": 0,
            "byteOffset": 10392,
            "byteLength": 5196,
            "target": 34962
        },
        {
            "buffer": 0,
            "byteOffset": 15588,
            "byteLength": 3464,
            "target": 34962
        },
        {
            "buffer": 0,
            "byteOffset": 19052,
            "byteLength": 3464,
            "target": 34962
        },
        {
            "buffer": 0,
            "byteOffset": 22516,
            "byteLength": 6096,
            "target": 34963
        }
    ],
    "images": [
        {
            "uri": "Textures\\Foliage_Flowers_BaseColor.dds"
        },
        {
            "uri": "Textures\\Foliage_Flowers_Normal.dds"
        },
        {
            "uri": "Textures\\Foliage_Flowers_Specular.dds"
        }
    ],
    "materials": [
        {
            "name": "Foliage_Flowers.DoubleSided",
            "pbrMetallicRoughness": {
                "baseColorTexture": {
                    "index": 0
                },
                "metallicFactor": 0.0,
                "roughnessFactor": 0.5527864098548889
            },
            "normalTexture": {
                "index": 1
            },
            "extensions": {
                "KHR_materials_specular": {
                    "specularFactor": 1.0,
                    "specularColorFactor": [
                        0.5,
                        0.5,
                        0.5
                    ],
                    "specularTexture": {
                        "index": 2
                    }
                }
            }
        }
    ],
    "meshes": [
        {
            "name": "Bistro_Research_Exterior_Paris_flowers_01c_6045",
            "primitives": [
                {
                    "mode": 4,
                    "material": 0,
                    "indices": 5,
                    "attributes": {
                        "POSITION": 0,
                        "NORMAL": 1,
                        "TANGENT": 2,
                        "TEXCOORD_0": 3,
                        "TEXCOORD_1": 4
                    }
                }
            ]
        }
    ],
    "nodes": [
        {
            "name": "Bistro_Research_Exterior_Paris_flowers_01c_6045",
            "mesh": 0
        }
    ],
    "samplers": [
        {},
        {},
        {}
    ],
    "scenes": [
        {
            "nodes": [
                0
            ]
        }
    ],
    "textures": [
        {
            "source": 0,
            "sampler": 0
        },
        {
            "source": 1,
            "sampler": 1
        },
        {
            "source": 2,
            "sampler": 2
        }
    ],
    "scene": 0
}