{
    "asset": {
        "version": "2.0",
        "generator": "Open Asset Import Library (assimp v6.0.44188438)"
    },
    "extensionsUsed": [
        "KHR_materials_specular",
        "KHR_materials_volume",
        "FB_ngon_encoding"
    ],
    "accessors": [
        {
            "bufferView": 0,
            "byteOffset": 0,
            "componentType": 5126,
            "count": 2146,
            "type": "VEC3",
            "max": [
                112.02735900878906,
                773.9481811523438,
                275.5464782714844
            ],
            "min": [
                2.2250738585072014e-308,
                2.2250738585072014e-308,
                2.2250738585072014e-308
            ]
        },
        {
            "bufferView": 1,
            "byteOffset": 0,
            "componentType": 5126,
            "count": 2146,
            "type": "VEC3",
            "max": [
                0.9869124889373779,
                0.9712715148925781,
                0.999984622001648
            ],
            "min": [
                -0.988318920135498,
                -0.9689702987670898,
                -0.999984622001648
            ]
        },
        {
            "bufferView": 2,
            "byteOffset": 0,
            "componentType": 5126,
            "count": 2146,
            "type": "VEC3",
            "max": [
                0.8355924487113953,
                0.9894648790359497,
                0.9999924302101135
            ],
            "min": [
                -0.8331738710403442,
                -0.9834274053573608,
                -0.9999924898147583
            ]
        },
        {
            "bufferView": 3,
            "byteOffset": 0,
            "componentType": 5126,
            "count": 2146,
            "type": "VEC2",
            "max": [
                1.123046875,
                0.9178466796875
            ],
            "min": [
                -0.30908203125,
                2.2250738585072014e-308
            ]
        },
        {
            "bufferView": 4,
            "byteOffset": 0,
            "componentType": 5126,
            "count": 2146,
            "type": "VEC2",
            "max": [
                0.98681640625,
                0.9921875
            ],
            "min": [
                2.2250738585072014e-308,
                2.2250738585072014e-308
            ]
        },
        {
            "bufferView": 5,
            "byteOffset": 0,
            "componentType": 5125,
            "count": 10800,
            "type": "SCALAR",
            "max": [
                2145
            ],
            "min": [
                0
            ]
        }
    ],
    "buffers": [
        {
            "byteLength": 154792,
            "uri": "Bistro_Research_Exterior_Paris_Building_01_paris_building_01_bottom_4869.bin"
        }
    ],
    "bufferViews": [
        {
            "buffer": 0,
            "byteOffset": 0,
            "byteLength": 25752,
            "target": 34962
        },
        {
            "buffer": 0,
            "byteOffset": 25752,
            "byteLength": 25752,
            "target": 34962
        },
        {
            "buffer": 0,
            "byteOffset": 51504,
            "byteLength": 25752,
            "target": 34962
        },
        {
            "buffer": 0,
            "byteOffset": 77256,
            "byteLength": 17168,
            "target": 34962
        },
        {
            "buffer": 0,
            "byteOffset": 94424,
            "byteLength": 17168,
            "target": 34962
        },
        {
            "buffer": 0,
            "byteOffset": 111592,
            "byteLength": 43200,
            "target": 34963
        }
    ],
    "images": [
        {
            "uri": "Textures\\MASTER_Wood_Painted3_BaseColor.dds"
        },
        {
            "uri": "Textures\\MASTER_Wood_Painted3_Normal.dds"
        },
        {
            "uri": "Textures\\MASTER_Wood_Painted3_Specular.dds"
        }
    ],
    "materials": [
        {
            "name": "MASTER_Wood_Painted3",
            "pbrMetallicRoughness": {
                "baseColorTexture": {
                    "index": 0
                },
                "metallicFactor": 0.0,
                "roughnessFactor": 0.5527864098548889
            },
            "normalTexture": {
                "index": 1
            },
            "extensions": {
                "KHR_materials_specular": {
                    "specularFactor": 1.0,
                    "specularColorFactor": [
                        0.5,
                        0.5,
                        0.5
                    ],
                    "specularTexture": {
                        "index": 2
                    }
                }
            }
        }
    ],
    "meshes": [
        {
            "name": "Bistro_Research_Exterior_Paris_Building_01_paris_building_01_bottom_4869",
            "primitives": [
                {
                    "mode": 4,
                    "material": 0,
                    "indices": 5,
                    "attributes": {
                        "POSITION": 0,
                        "NORMAL": 1,
                        "TANGENT": 2,
                        "TEXCOORD_0": 3,
                        "TEXCOORD_1": 4
                    }
                }
            ]
        }
    ],
    "nodes": [
        {
            "name": "Bistro_Research_Exterior_Paris_Building_01_paris_building_01_bottom_4869",
            "mesh": 0
        }
    ],
    "samplers": [
        {},
        {},
        {}
    ],
    "scenes": [
        {
            "nodes": [
                0
            ]
        }
    ],
    "textures": [
        {
            "source": 0,
            "sampler": 0
        },
        {
            "source": 1,
            "sampler": 1
        },
        {
            "source": 2,
            "sampler": 2
        }
    ],
    "scene": 0
}