{
    "asset": {
        "version": "2.0",
        "generator": "Open Asset Import Library (assimp v6.0.44188438)"
    },
    "extensionsUsed": [
        "KHR_materials_specular",
        "KHR_materials_volume",
        "FB_ngon_encoding"
    ],
    "accessors": [
        {
            "bufferView": 0,
            "byteOffset": 0,
            "componentType": 5126,
            "count": 100,
            "type": "VEC3",
            "max": [
                -1831.368408203125,
                591.0924682617188,
                861.4706420898438
            ],
            "min": [
                -1844.442626953125,
                2.2250738585072014e-308,
                2.2250738585072014e-308
            ]
        },
        {
            "bufferView": 1,
            "byteOffset": 0,
            "componentType": 5126,
            "count": 100,
            "type": "VEC3",
            "max": [
                0.9279698729515076,
                0.9392660856246948,
                0.9922654032707214
            ],
            "min": [
                -0.9432286620140076,
                -0.9358090758323669,
                -0.9918366074562073
            ]
        },
        {
            "bufferView": 2,
            "byteOffset": 0,
            "componentType": 5126,
            "count": 100,
            "type": "VEC3",
            "max": [
                0.7878278493881226,
                0.6656458973884583,
                0.8067988753318787
            ],
            "min": [
                -0.6999036073684692,
                -0.8205342292785645,
                -0.8111819624900818
            ]
        },
        {
            "bufferView": 3,
            "byteOffset": 0,
            "componentType": 5126,
            "count": 100,
            "type": "VEC2",
            "max": [
                7.51171875,
                2.3349609375
            ],
            "min": [
                -3.609375,
                -2.33203125
            ]
        },
        {
            "bufferView": 4,
            "byteOffset": 0,
            "componentType": 5126,
            "count": 100,
            "type": "VEC2",
            "max": [
                0.58740234375,
                0.5546875
            ],
            "min": [
                2.2250738585072014e-308,
                2.2250738585072014e-308
            ]
        },
        {
            "bufferView": 5,
            "byteOffset": 0,
            "componentType": 5125,
            "count": 384,
            "type": "SCALAR",
            "max": [
                99
            ],
            "min": [
                0
            ]
        }
    ],
    "buffers": [
        {
            "byteLength": 6736,
            "uri": "Bistro_Research_Exterior_Spotlights_6525_1.bin"
        }
    ],
    "bufferViews": [
        {
            "buffer": 0,
            "byteOffset": 0,
            "byteLength": 1200,
            "target": 34962
        },
        {
            "buffer": 0,
            "byteOffset": 1200,
            "byteLength": 1200,
            "target": 34962
        },
        {
            "buffer": 0,
            "byteOffset": 2400,
            "byteLength": 1200,
            "target": 34962
        },
        {
            "buffer": 0,
            "byteOffset": 3600,
            "byteLength": 800,
            "target": 34962
        },
        {
            "buffer": 0,
            "byteOffset": 4400,
            "byteLength": 800,
            "target": 34962
        },
        {
            "buffer": 0,
            "byteOffset": 5200,
            "byteLength": 1536,
            "target": 34963
        }
    ],
    "images": [
        {
            "uri": "Textures\\Spotlight_Emissive_BaseColor.dds"
        },
        {
            "uri": "Textures\\Spotlight_Emissive_Normal.dds"
        },
        {
            "uri": "Textures\\Spotlight_Emissive_Specular.dds"
        }
    ],
    "materials": [
        {
            "name": "Spotlight_Emissive",
            "pbrMetallicRoughness": {
                "baseColorTexture": {
                    "index": 0
                },
                "metallicFactor": 0.0,
                "roughnessFactor": 0.5527864098548889
            },
            "normalTexture": {
                "index": 1
            },
            "extensions": {
                "KHR_materials_specular": {
                    "specularFactor": 1.0,
                    "specularColorFactor": [
                        0.5,
                        0.5,
                        0.5
                    ],
                    "specularTexture": {
                        "index": 2
                    }
                }
            }
        }
    ],
    "meshes": [
        {
            "name": "Bistro_Research_Exterior_Spotlights_6525",
            "primitives": [
                {
                    "mode": 4,
                    "material": 0,
                    "indices": 5,
                    "attributes": {
                        "POSITION": 0,
                        "NORMAL": 1,
                        "TANGENT": 2,
                        "TEXCOORD_0": 3,
                        "TEXCOORD_1": 4
                    }
                }
            ]
        }
    ],
    "nodes": [
        {
            "name": "Bistro_Research_Exterior_Spotlights_6525",
            "mesh": 0
        }
    ],
    "samplers": [
        {},
        {},
        {}
    ],
    "scenes": [
        {
            "nodes": [
                0
            ]
        }
    ],
    "textures": [
        {
            "source": 0,
            "sampler": 0
        },
        {
            "source": 1,
            "sampler": 1
        },
        {
            "source": 2,
            "sampler": 2
        }
    ],
    "scene": 0
}