{
    "asset": {
        "version": "2.0",
        "generator": "Open Asset Import Library (assimp v6.0.44188438)"
    },
    "extensionsUsed": [
        "KHR_materials_specular",
        "KHR_materials_volume",
        "FB_ngon_encoding"
    ],
    "accessors": [
        {
            "bufferView": 0,
            "byteOffset": 0,
            "componentType": 5126,
            "count": 1980,
            "type": "VEC3",
            "max": [
                816.7804565429688,
                -1378.2144775390625,
                1476.11376953125
            ],
            "min": [
                2.2250738585072014e-308,
                -1802.4085693359375,
                2.2250738585072014e-308
            ]
        },
        {
            "bufferView": 1,
            "byteOffset": 0,
            "componentType": 5126,
            "count": 1980,
            "type": "VEC3",
            "max": [
                0.9886871576309204,
                0.9618908166885376,
                0.998239278793335
            ],
            "min": [
                -0.9993701577186584,
                -0.9826404452323914,
                -0.7681552767753601
            ]
        },
        {
            "bufferView": 2,
            "byteOffset": 0,
            "componentType": 5126,
            "count": 1980,
            "type": "VEC3",
            "max": [
                0.9963127374649048,
                0.9891886115074158,
                0.9383720755577087
            ],
            "min": [
                -0.9096601009368896,
                -0.999710202217102,
                -0.9824905395507813
            ]
        },
        {
            "bufferView": 3,
            "byteOffset": 0,
            "componentType": 5126,
            "count": 1980,
            "type": "VEC2",
            "max": [
                0.99951171875,
                1.0000001192092896
            ],
            "min": [
                -1.1920928955078125e-7,
                2.2250738585072014e-308
            ]
        },
        {
            "bufferView": 4,
            "byteOffset": 0,
            "componentType": 5126,
            "count": 1980,
            "type": "VEC2",
            "max": [
                0.99169921875,
                0.9921875
            ],
            "min": [
                2.2250738585072014e-308,
                2.2250738585072014e-308
            ]
        },
        {
            "bufferView": 5,
            "byteOffset": 0,
            "componentType": 5125,
            "count": 2970,
            "type": "SCALAR",
            "max": [
                1979
            ],
            "min": [
                0
            ]
        }
    ],
    "buffers": [
        {
            "byteLength": 114840,
            "uri": "Bistro_Research_Exterior_Ivy_Ivy_4017.bin"
        }
    ],
    "bufferViews": [
        {
            "buffer": 0,
            "byteOffset": 0,
            "byteLength": 23760,
            "target": 34962
        },
        {
            "buffer": 0,
            "byteOffset": 23760,
            "byteLength": 23760,
            "target": 34962
        },
        {
            "buffer": 0,
            "byteOffset": 47520,
            "byteLength": 23760,
            "target": 34962
        },
        {
            "buffer": 0,
            "byteOffset": 71280,
            "byteLength": 15840,
            "target": 34962
        },
        {
            "buffer": 0,
            "byteOffset": 87120,
            "byteLength": 15840,
            "target": 34962
        },
        {
            "buffer": 0,
            "byteOffset": 102960,
            "byteLength": 11880,
            "target": 34963
        }
    ],
    "images": [
        {
            "uri": "Textures\\Foliage_Ivy_leaf_a_BaseColor.dds"
        },
        {
            "uri": "Textures\\Foliage_Ivy_leaf_a_Normal.dds"
        },
        {
            "uri": "Textures\\Foliage_Ivy_leaf_a_Specular.dds"
        }
    ],
    "materials": [
        {
            "name": "Foliage_Ivy_leaf_a.DoubleSided",
            "pbrMetallicRoughness": {
                "baseColorTexture": {
                    "index": 0
                },
                "metallicFactor": 0.0,
                "roughnessFactor": 0.5527864098548889
            },
            "normalTexture": {
                "index": 1
            },
            "extensions": {
                "KHR_materials_specular": {
                    "specularFactor": 1.0,
                    "specularColorFactor": [
                        0.5,
                        0.5,
                        0.5
                    ],
                    "specularTexture": {
                        "index": 2
                    }
                }
            }
        }
    ],
    "meshes": [
        {
            "name": "Bistro_Research_Exterior_Ivy_Ivy_4017",
            "primitives": [
                {
                    "mode": 4,
                    "material": 0,
                    "indices": 5,
                    "attributes": {
                        "POSITION": 0,
                        "NORMAL": 1,
                        "TANGENT": 2,
                        "TEXCOORD_0": 3,
                        "TEXCOORD_1": 4
                    }
                }
            ]
        }
    ],
    "nodes": [
        {
            "name": "Bistro_Research_Exterior_Ivy_Ivy_4017",
            "mesh": 0
        }
    ],
    "samplers": [
        {},
        {},
        {}
    ],
    "scenes": [
        {
            "nodes": [
                0
            ]
        }
    ],
    "textures": [
        {
            "source": 0,
            "sampler": 0
        },
        {
            "source": 1,
            "sampler": 1
        },
        {
            "source": 2,
            "sampler": 2
        }
    ],
    "scene": 0
}