{
    "asset": {
        "version": "2.0",
        "generator": "Open Asset Import Library (assimp v6.0.44188438)"
    },
    "extensionsUsed": [
        "KHR_materials_specular",
        "KHR_materials_volume",
        "FB_ngon_encoding"
    ],
    "accessors": [
        {
            "bufferView": 0,
            "byteOffset": 0,
            "componentType": 5126,
            "count": 4247,
            "type": "VEC3",
            "max": [
                5415.82763671875,
                -4028.576416015625,
                402.2708740234375
            ],
            "min": [
                2.2250738585072014e-308,
                -4337.4375,
                2.2250738585072014e-308
            ]
        },
        {
            "bufferView": 1,
            "byteOffset": 0,
            "componentType": 5126,
            "count": 4247,
            "type": "VEC3",
            "max": [
                0.9964414834976196,
                0.9972280263900757,
                0.999984622001648
            ],
            "min": [
                -0.9999231100082397,
                -0.9957003593444824,
                -0.812479555606842
            ]
        },
        {
            "bufferView": 2,
            "byteOffset": 0,
            "componentType": 5126,
            "count": 4247,
            "type": "VEC3",
            "max": [
                0.9993641376495361,
                0.9998019337654114,
                0.5863137245178223
            ],
            "min": [
                -0.9997172355651855,
                -0.9999784231185913,
                -0.7526078820228577
            ]
        },
        {
            "bufferView": 3,
            "byteOffset": 0,
            "componentType": 5126,
            "count": 4247,
            "type": "VEC2",
            "max": [
                1.001953125,
                1.001434326171875
            ],
            "min": [
                0.0,
                0.0
            ]
        },
        {
            "bufferView": 4,
            "byteOffset": 0,
            "componentType": 5126,
            "count": 4247,
            "type": "VEC2",
            "max": [
                0.99169921875,
                0.9921875
            ],
            "min": [
                2.2250738585072014e-308,
                2.2250738585072014e-308
            ]
        },
        {
            "bufferView": 5,
            "byteOffset": 0,
            "componentType": 5125,
            "count": 4335,
            "type": "SCALAR",
            "max": [
                4246
            ],
            "min": [
                0
            ]
        }
    ],
    "buffers": [
        {
            "byteLength": 238184,
            "uri": "Bistro_Research_Exterior_bux_hedge_box_high_3957.bin"
        }
    ],
    "bufferViews": [
        {
            "buffer": 0,
            "byteOffset": 0,
            "byteLength": 50964,
            "target": 34962
        },
        {
            "buffer": 0,
            "byteOffset": 50964,
            "byteLength": 50964,
            "target": 34962
        },
        {
            "buffer": 0,
            "byteOffset": 101928,
            "byteLength": 50964,
            "target": 34962
        },
        {
            "buffer": 0,
            "byteOffset": 152892,
            "byteLength": 33976,
            "target": 34962
        },
        {
            "buffer": 0,
            "byteOffset": 186868,
            "byteLength": 33976,
            "target": 34962
        },
        {
            "buffer": 0,
            "byteOffset": 220844,
            "byteLength": 17340,
            "target": 34963
        }
    ],
    "images": [
        {
            "uri": "Textures\\Foliage_Bux_Hedges46_BaseColor.dds"
        },
        {
            "uri": "Textures\\Foliage_Bux_Hedges46_Normal.dds"
        },
        {
            "uri": "Textures\\Foliage_Bux_Hedges46_Specular.dds"
        }
    ],
    "materials": [
        {
            "name": "Foliage_Bux_Hedges46.DoubleSided",
            "pbrMetallicRoughness": {
                "baseColorTexture": {
                    "index": 0
                },
                "metallicFactor": 0.0,
                "roughnessFactor": 0.5527864098548889
            },
            "normalTexture": {
                "index": 1
            },
            "extensions": {
                "KHR_materials_specular": {
                    "specularFactor": 1.0,
                    "specularColorFactor": [
                        0.5,
                        0.5,
                        0.5
                    ],
                    "specularTexture": {
                        "index": 2
                    }
                }
            }
        }
    ],
    "meshes": [
        {
            "name": "Bistro_Research_Exterior_bux_hedge_box_high_3957",
            "primitives": [
                {
                    "mode": 4,
                    "material": 0,
                    "indices": 5,
                    "attributes": {
                        "POSITION": 0,
                        "NORMAL": 1,
                        "TANGENT": 2,
                        "TEXCOORD_0": 3,
                        "TEXCOORD_1": 4
                    }
                }
            ]
        }
    ],
    "nodes": [
        {
            "name": "Bistro_Research_Exterior_bux_hedge_box_high_3957",
            "mesh": 0
        }
    ],
    "samplers": [
        {},
        {},
        {}
    ],
    "scenes": [
        {
            "nodes": [
                0
            ]
        }
    ],
    "textures": [
        {
            "source": 0,
            "sampler": 0
        },
        {
            "source": 1,
            "sampler": 1
        },
        {
            "source": 2,
            "sampler": 2
        }
    ],
    "scene": 0
}