{
    "asset": {
        "version": "2.0",
        "generator": "Open Asset Import Library (assimp v6.0.44188438)"
    },
    "extensionsUsed": [
        "KHR_materials_specular",
        "KHR_materials_volume",
        "FB_ngon_encoding"
    ],
    "accessors": [
        {
            "bufferView": 0,
            "byteOffset": 0,
            "componentType": 5126,
            "count": 1023,
            "type": "VEC3",
            "max": [
                2467.086669921875,
                -1222.5389404296875,
                35.634098052978516
            ],
            "min": [
                2.2250738585072014e-308,
                -1460.9449462890625,
                2.2250738585072014e-308
            ]
        },
        {
            "bufferView": 1,
            "byteOffset": 0,
            "componentType": 5126,
            "count": 1023,
            "type": "VEC3",
            "max": [
                0.9999219179153442,
                0.999984622001648,
                0.9645146131515503
            ],
            "min": [
                -0.9987566471099854,
                -0.9999843835830688,
                -0.8170360922813416
            ]
        },
        {
            "bufferView": 2,
            "byteOffset": 0,
            "componentType": 5126,
            "count": 1023,
            "type": "VEC3",
            "max": [
                0.997559130191803,
                0.9979242086410522,
                0.9692110419273376
            ],
            "min": [
                -0.9981584548950195,
                -0.9967325925827026,
                -0.9909522533416748
            ]
        },
        {
            "bufferView": 3,
            "byteOffset": 0,
            "componentType": 5126,
            "count": 1023,
            "type": "VEC2",
            "max": [
                0.994140625,
                1.89794921875
            ],
            "min": [
                2.2250738585072014e-308,
                2.2250738585072014e-308
            ]
        },
        {
            "bufferView": 4,
            "byteOffset": 0,
            "componentType": 5126,
            "count": 1023,
            "type": "VEC2",
            "max": [
                0.9873046875,
                0.9921875
            ],
            "min": [
                2.2250738585072014e-308,
                2.2250738585072014e-308
            ]
        },
        {
            "bufferView": 5,
            "byteOffset": 0,
            "componentType": 5125,
            "count": 4224,
            "type": "SCALAR",
            "max": [
                1022
            ],
            "min": [
                0
            ]
        }
    ],
    "buffers": [
        {
            "byteLength": 70092,
            "uri": "Bistro_Research_Exterior_Paris_Street_6201.bin"
        }
    ],
    "bufferViews": [
        {
            "buffer": 0,
            "byteOffset": 0,
            "byteLength": 12276,
            "target": 34962
        },
        {
            "buffer": 0,
            "byteOffset": 12276,
            "byteLength": 12276,
            "target": 34962
        },
        {
            "buffer": 0,
            "byteOffset": 24552,
            "byteLength": 12276,
            "target": 34962
        },
        {
            "buffer": 0,
            "byteOffset": 36828,
            "byteLength": 8184,
            "target": 34962
        },
        {
            "buffer": 0,
            "byteOffset": 45012,
            "byteLength": 8184,
            "target": 34962
        },
        {
            "buffer": 0,
            "byteOffset": 53196,
            "byteLength": 16896,
            "target": 34963
        }
    ],
    "images": [
        {
            "uri": "Textures\\Pavement_Curbstones_BaseColor.dds"
        },
        {
            "uri": "Textures\\Pavement_Curbstones_Normal.dds"
        },
        {
            "uri": "Textures\\Pavement_Curbstones_Specular.dds"
        }
    ],
    "materials": [
        {
            "name": "Pavement_Curbstones",
            "pbrMetallicRoughness": {
                "baseColorTexture": {
                    "index": 0
                },
                "metallicFactor": 0.0,
                "roughnessFactor": 0.5527864098548889
            },
            "normalTexture": {
                "index": 1
            },
            "extensions": {
                "KHR_materials_specular": {
                    "specularFactor": 1.0,
                    "specularColorFactor": [
                        0.5,
                        0.5,
                        0.5
                    ],
                    "specularTexture": {
                        "index": 2
                    }
                }
            }
        }
    ],
    "meshes": [
        {
            "name": "Bistro_Research_Exterior_Paris_Street_6201",
            "primitives": [
                {
                    "mode": 4,
                    "material": 0,
                    "indices": 5,
                    "attributes": {
                        "POSITION": 0,
                        "NORMAL": 1,
                        "TANGENT": 2,
                        "TEXCOORD_0": 3,
                        "TEXCOORD_1": 4
                    }
                }
            ]
        }
    ],
    "nodes": [
        {
            "name": "Bistro_Research_Exterior_Paris_Street_6201",
            "mesh": 0
        }
    ],
    "samplers": [
        {},
        {},
        {}
    ],
    "scenes": [
        {
            "nodes": [
                0
            ]
        }
    ],
    "textures": [
        {
            "source": 0,
            "sampler": 0
        },
        {
            "source": 1,
            "sampler": 1
        },
        {
            "source": 2,
            "sampler": 2
        }
    ],
    "scene": 0
}