{
    "asset": {
        "version": "2.0",
        "generator": "Open Asset Import Library (assimp v6.0.44188438)"
    },
    "extensionsUsed": [
        "KHR_materials_specular",
        "KHR_materials_volume",
        "FB_ngon_encoding"
    ],
    "accessors": [
        {
            "bufferView": 0,
            "byteOffset": 0,
            "componentType": 5126,
            "count": 21868,
            "type": "VEC3",
            "max": [
                288.12548828125,
                3073.882080078125,
                1689.5699462890625
            ],
            "min": [
                -1898.65087890625,
                2.2250738585072014e-308,
                2.2250738585072014e-308
            ]
        },
        {
            "bufferView": 1,
            "byteOffset": 0,
            "componentType": 5126,
            "count": 21868,
            "type": "VEC3",
            "max": [
                0.9990483522415161,
                0.9990631937980652,
                0.999984622001648
            ],
            "min": [
                -0.9996158480644226,
                -0.9993600845336914,
                -0.999984622001648
            ]
        },
        {
            "bufferView": 2,
            "byteOffset": 0,
            "componentType": 5126,
            "count": 21868,
            "type": "VEC3",
            "max": [
                0.9999408721923828,
                0.9993302226066589,
                0.9999924302101135
            ],
            "min": [
                -0.9993678331375122,
                -0.9999918341636658,
                -0.9999924302101135
            ]
        },
        {
            "bufferView": 3,
            "byteOffset": 0,
            "componentType": 5126,
            "count": 21868,
            "type": "VEC2",
            "max": [
                9.2265625,
                11.4453125
            ],
            "min": [
                -10.875,
                -1.943359375
            ]
        },
        {
            "bufferView": 4,
            "byteOffset": 0,
            "componentType": 5126,
            "count": 21868,
            "type": "VEC2",
            "max": [
                0.98828125,
                0.9921913146972656
            ],
            "min": [
                2.2250738585072014e-308,
                2.2250738585072014e-308
            ]
        },
        {
            "bufferView": 5,
            "byteOffset": 0,
            "componentType": 5125,
            "count": 68316,
            "type": "SCALAR",
            "max": [
                21867
            ],
            "min": [
                0
            ]
        }
    ],
    "buffers": [
        {
            "byteLength": 1410400,
            "uri": "Bistro_Research_Exterior_paris_building_09_5433.bin"
        }
    ],
    "bufferViews": [
        {
            "buffer": 0,
            "byteOffset": 0,
            "byteLength": 262416,
            "target": 34962
        },
        {
            "buffer": 0,
            "byteOffset": 262416,
            "byteLength": 262416,
            "target": 34962
        },
        {
            "buffer": 0,
            "byteOffset": 524832,
            "byteLength": 262416,
            "target": 34962
        },
        {
            "buffer": 0,
            "byteOffset": 787248,
            "byteLength": 174944,
            "target": 34962
        },
        {
            "buffer": 0,
            "byteOffset": 962192,
            "byteLength": 174944,
            "target": 34962
        },
        {
            "buffer": 0,
            "byteOffset": 1137136,
            "byteLength": 273264,
            "target": 34963
        }
    ],
    "images": [
        {
            "uri": "Textures\\MASTER_Concrete_Smooth_BaseColor.dds"
        },
        {
            "uri": "Textures\\MASTER_Concrete_Smooth_Normal.dds"
        },
        {
            "uri": "Textures\\MASTER_Concrete_Smooth_Specular.dds"
        }
    ],
    "materials": [
        {
            "name": "MASTER_Concrete_Smooth",
            "pbrMetallicRoughness": {
                "baseColorTexture": {
                    "index": 0
                },
                "metallicFactor": 0.0,
                "roughnessFactor": 0.5527864098548889
            },
            "normalTexture": {
                "index": 1
            },
            "extensions": {
                "KHR_materials_specular": {
                    "specularFactor": 1.0,
                    "specularColorFactor": [
                        0.5,
                        0.5,
                        0.5
                    ],
                    "specularTexture": {
                        "index": 2
                    }
                }
            }
        }
    ],
    "meshes": [
        {
            "name": "Bistro_Research_Exterior_paris_building_09_5433",
            "primitives": [
                {
                    "mode": 4,
                    "material": 0,
                    "indices": 5,
                    "attributes": {
                        "POSITION": 0,
                        "NORMAL": 1,
                        "TANGENT": 2,
                        "TEXCOORD_0": 3,
                        "TEXCOORD_1": 4
                    }
                }
            ]
        }
    ],
    "nodes": [
        {
            "name": "Bistro_Research_Exterior_paris_building_09_5433",
            "mesh": 0
        }
    ],
    "samplers": [
        {},
        {},
        {}
    ],
    "scenes": [
        {
            "nodes": [
                0
            ]
        }
    ],
    "textures": [
        {
            "source": 0,
            "sampler": 0
        },
        {
            "source": 1,
            "sampler": 1
        },
        {
            "source": 2,
            "sampler": 2
        }
    ],
    "scene": 0
}