{
    "asset": {
        "version": "2.0",
        "generator": "Open Asset Import Library (assimp v6.0.44188438)"
    },
    "extensionsUsed": [
        "KHR_materials_specular",
        "KHR_materials_volume",
        "FB_ngon_encoding"
    ],
    "accessors": [
        {
            "bufferView": 0,
            "byteOffset": 0,
            "componentType": 5126,
            "count": 24,
            "type": "VEC3",
            "max": [
                -1345.4578857421875,
                1374.722412109375,
                473.1061096191406
            ],
            "min": [
                -1568.0001220703125,
                2.2250738585072014e-308,
                2.2250738585072014e-308
            ]
        },
        {
            "bufferView": 1,
            "byteOffset": 0,
            "componentType": 5126,
            "count": 24,
            "type": "VEC3",
            "max": [
                0.7379669547080994,
                0.6751891374588013,
                -0.003902767552062869
            ],
            "min": [
                -0.9993701577186584,
                -0.9993600845336914,
                -0.003949978854507208
            ]
        },
        {
            "bufferView": 2,
            "byteOffset": 0,
            "componentType": 5126,
            "count": 24,
            "type": "VEC3",
            "max": [
                0.9993672966957092,
                0.7379726767539978,
                0.002898558508604765
            ],
            "min": [
                -0.6751943826675415,
                -0.9993762373924255,
                -0.002009546384215355
            ]
        },
        {
            "bufferView": 3,
            "byteOffset": 0,
            "componentType": 5126,
            "count": 24,
            "type": "VEC2",
            "max": [
                2.60546875,
                0.955474853515625
            ],
            "min": [
                2.2250738585072014e-308,
                -0.1064453125
            ]
        },
        {
            "bufferView": 4,
            "byteOffset": 0,
            "componentType": 5126,
            "count": 24,
            "type": "VEC2",
            "max": [
                0.9765625,
                0.9921875
            ],
            "min": [
                2.2250738585072014e-308,
                2.2250738585072014e-308
            ]
        },
        {
            "bufferView": 5,
            "byteOffset": 0,
            "componentType": 5125,
            "count": 60,
            "type": "SCALAR",
            "max": [
                23
            ],
            "min": [
                0
            ]
        }
    ],
    "buffers": [
        {
            "byteLength": 1488,
            "uri": "Bistro_Research_Exterior_paris_building_09_5435.bin"
        }
    ],
    "bufferViews": [
        {
            "buffer": 0,
            "byteOffset": 0,
            "byteLength": 288,
            "target": 34962
        },
        {
            "buffer": 0,
            "byteOffset": 288,
            "byteLength": 288,
            "target": 34962
        },
        {
            "buffer": 0,
            "byteOffset": 576,
            "byteLength": 288,
            "target": 34962
        },
        {
            "buffer": 0,
            "byteOffset": 864,
            "byteLength": 192,
            "target": 34962
        },
        {
            "buffer": 0,
            "byteOffset": 1056,
            "byteLength": 192,
            "target": 34962
        },
        {
            "buffer": 0,
            "byteOffset": 1248,
            "byteLength": 240,
            "target": 34963
        }
    ],
    "images": [
        {
            "uri": "Textures\\MASTER_Concrete_Grooved_BaseColor.dds"
        },
        {
            "uri": "Textures\\MASTER_Concrete_Grooved_Normal.dds"
        },
        {
            "uri": "Textures\\MASTER_Concrete_Grooved_Specular.dds"
        }
    ],
    "materials": [
        {
            "name": "MASTER_Concrete_Grooved",
            "pbrMetallicRoughness": {
                "baseColorTexture": {
                    "index": 0
                },
                "metallicFactor": 0.0,
                "roughnessFactor": 0.5527864098548889
            },
            "normalTexture": {
                "index": 1
            },
            "extensions": {
                "KHR_materials_specular": {
                    "specularFactor": 1.0,
                    "specularColorFactor": [
                        0.5,
                        0.5,
                        0.5
                    ],
                    "specularTexture": {
                        "index": 2
                    }
                }
            }
        }
    ],
    "meshes": [
        {
            "name": "Bistro_Research_Exterior_paris_building_09_5435",
            "primitives": [
                {
                    "mode": 4,
                    "material": 0,
                    "indices": 5,
                    "attributes": {
                        "POSITION": 0,
                        "NORMAL": 1,
                        "TANGENT": 2,
                        "TEXCOORD_0": 3,
                        "TEXCOORD_1": 4
                    }
                }
            ]
        }
    ],
    "nodes": [
        {
            "name": "Bistro_Research_Exterior_paris_building_09_5435",
            "mesh": 0
        }
    ],
    "samplers": [
        {},
        {},
        {}
    ],
    "scenes": [
        {
            "nodes": [
                0
            ]
        }
    ],
    "textures": [
        {
            "source": 0,
            "sampler": 0
        },
        {
            "source": 1,
            "sampler": 1
        },
        {
            "source": 2,
            "sampler": 2
        }
    ],
    "scene": 0
}