{
    "asset": {
        "version": "2.0",
        "generator": "Open Asset Import Library (assimp v6.0.44188438)"
    },
    "extensionsUsed": [
        "KHR_materials_specular",
        "KHR_materials_volume",
        "FB_ngon_encoding"
    ],
    "accessors": [
        {
            "bufferView": 0,
            "byteOffset": 0,
            "componentType": 5126,
            "count": 42,
            "type": "VEC3",
            "max": [
                1602.052978515625,
                3029.5673828125,
                169.05599975585938
            ],
            "min": [
                2.2250738585072014e-308,
                2.2250738585072014e-308,
                2.2250738585072014e-308
            ]
        },
        {
            "bufferView": 1,
            "byteOffset": 0,
            "componentType": 5126,
            "count": 42,
            "type": "VEC3",
            "max": [
                0.8595761656761169,
                0.8636305928230286,
                -0.003907770849764347
            ],
            "min": [
                -0.858177125453949,
                -0.856090784072876,
                -0.999984622001648
            ]
        },
        {
            "bufferView": 2,
            "byteOffset": 0,
            "componentType": 5126,
            "count": 42,
            "type": "VEC3",
            "max": [
                0.8636370301246643,
                0.5225619077682495,
                0.6657877564430237
            ],
            "min": [
                -0.9696241021156311,
                -0.9695559144020081,
                -0.3472842574119568
            ]
        },
        {
            "bufferView": 3,
            "byteOffset": 0,
            "componentType": 5126,
            "count": 42,
            "type": "VEC2",
            "max": [
                0.81494140625,
                0.4765625
            ],
            "min": [
                2.2250738585072014e-308,
                2.2250738585072014e-308
            ]
        },
        {
            "bufferView": 4,
            "byteOffset": 0,
            "componentType": 5126,
            "count": 42,
            "type": "VEC2",
            "max": [
                0.97705078125,
                0.681396484375
            ],
            "min": [
                2.2250738585072014e-308,
                2.2250738585072014e-308
            ]
        },
        {
            "bufferView": 5,
            "byteOffset": 0,
            "componentType": 5125,
            "count": 120,
            "type": "SCALAR",
            "max": [
                41
            ],
            "min": [
                0
            ]
        }
    ],
    "buffers": [
        {
            "byteLength": 2664,
            "uri": "Bistro_Research_Exterior_paris_building_05_5069.bin"
        }
    ],
    "bufferViews": [
        {
            "buffer": 0,
            "byteOffset": 0,
            "byteLength": 504,
            "target": 34962
        },
        {
            "buffer": 0,
            "byteOffset": 504,
            "byteLength": 504,
            "target": 34962
        },
        {
            "buffer": 0,
            "byteOffset": 1008,
            "byteLength": 504,
            "target": 34962
        },
        {
            "buffer": 0,
            "byteOffset": 1512,
            "byteLength": 336,
            "target": 34962
        },
        {
            "buffer": 0,
            "byteOffset": 1848,
            "byteLength": 336,
            "target": 34962
        },
        {
            "buffer": 0,
            "byteOffset": 2184,
            "byteLength": 480,
            "target": 34963
        }
    ],
    "images": [
        {
            "uri": "Textures\\MASTER_Black_Metal_BaseColor.dds"
        },
        {
            "uri": "Textures\\MASTER_Black_Metal_Normal.dds"
        },
        {
            "uri": "Textures\\MASTER_Black_Metal_Specular.dds"
        }
    ],
    "materials": [
        {
            "name": "MASTER_Black_Metal",
            "pbrMetallicRoughness": {
                "baseColorTexture": {
                    "index": 0
                },
                "metallicFactor": 0.0,
                "roughnessFactor": 0.5527864098548889
            },
            "normalTexture": {
                "index": 1
            },
            "extensions": {
                "KHR_materials_specular": {
                    "specularFactor": 1.0,
                    "specularColorFactor": [
                        0.5,
                        0.5,
                        0.5
                    ],
                    "specularTexture": {
                        "index": 2
                    }
                }
            }
        }
    ],
    "meshes": [
        {
            "name": "Bistro_Research_Exterior_paris_building_05_5069",
            "primitives": [
                {
                    "mode": 4,
                    "material": 0,
                    "indices": 5,
                    "attributes": {
                        "POSITION": 0,
                        "NORMAL": 1,
                        "TANGENT": 2,
                        "TEXCOORD_0": 3,
                        "TEXCOORD_1": 4
                    }
                }
            ]
        }
    ],
    "nodes": [
        {
            "name": "Bistro_Research_Exterior_paris_building_05_5069",
            "mesh": 0
        }
    ],
    "samplers": [
        {},
        {},
        {}
    ],
    "scenes": [
        {
            "nodes": [
                0
            ]
        }
    ],
    "textures": [
        {
            "source": 0,
            "sampler": 0
        },
        {
            "source": 1,
            "sampler": 1
        },
        {
            "source": 2,
            "sampler": 2
        }
    ],
    "scene": 0
}