{
    "asset": {
        "version": "2.0",
        "generator": "Open Asset Import Library (assimp v6.0.44188438)"
    },
    "extensionsUsed": [
        "KHR_materials_specular",
        "KHR_materials_volume",
        "FB_ngon_encoding"
    ],
    "accessors": [
        {
            "bufferView": 0,
            "byteOffset": 0,
            "componentType": 5126,
            "count": 792,
            "type": "VEC3",
            "max": [
                -15.811689376831055,
                -40.65034484863281,
                261.53155517578125
            ],
            "min": [
                -45.12379455566406,
                -95.15044403076172,
                2.2250738585072014e-308
            ]
        },
        {
            "bufferView": 1,
            "byteOffset": 0,
            "componentType": 5126,
            "count": 792,
            "type": "VEC3",
            "max": [
                0.41475415229797363,
                0.893638551235199,
                0.9997345209121704
            ],
            "min": [
                -0.9583555459976196,
                -0.9555162191390991,
                -0.9997386932373047
            ]
        },
        {
            "bufferView": 2,
            "byteOffset": 0,
            "componentType": 5126,
            "count": 792,
            "type": "VEC3",
            "max": [
                0.9815368056297302,
                0.9041515588760376,
                0.9999924898147583
            ],
            "min": [
                -0.981168270111084,
                -0.9021825194358826,
                -0.9999924898147583
            ]
        },
        {
            "bufferView": 3,
            "byteOffset": 0,
            "componentType": 5126,
            "count": 792,
            "type": "VEC2",
            "max": [
                1.1982421875,
                0.66796875
            ],
            "min": [
                -0.6162109375,
                2.2250738585072014e-308
            ]
        },
        {
            "bufferView": 4,
            "byteOffset": 0,
            "componentType": 5126,
            "count": 792,
            "type": "VEC2",
            "max": [
                0.9921875,
                0.9921875
            ],
            "min": [
                2.2250738585072014e-308,
                2.2250738585072014e-308
            ]
        },
        {
            "bufferView": 5,
            "byteOffset": 0,
            "componentType": 5125,
            "count": 2940,
            "type": "SCALAR",
            "max": [
                791
            ],
            "min": [
                0
            ]
        }
    ],
    "buffers": [
        {
            "byteLength": 52944,
            "uri": "Bistro_Research_Exterior_Paris_Building_01_paris_building_01_bottom_4687.bin"
        }
    ],
    "bufferViews": [
        {
            "buffer": 0,
            "byteOffset": 0,
            "byteLength": 9504,
            "target": 34962
        },
        {
            "buffer": 0,
            "byteOffset": 9504,
            "byteLength": 9504,
            "target": 34962
        },
        {
            "buffer": 0,
            "byteOffset": 19008,
            "byteLength": 9504,
            "target": 34962
        },
        {
            "buffer": 0,
            "byteOffset": 28512,
            "byteLength": 6336,
            "target": 34962
        },
        {
            "buffer": 0,
            "byteOffset": 34848,
            "byteLength": 6336,
            "target": 34962
        },
        {
            "buffer": 0,
            "byteOffset": 41184,
            "byteLength": 11760,
            "target": 34963
        }
    ],
    "images": [
        {
            "uri": "Textures\\MASTER_Metal_BaseColor.dds"
        },
        {
            "uri": "Textures\\MASTER_Metal_Normal.dds"
        },
        {
            "uri": "Textures\\MASTER_Metal_Specular.dds"
        }
    ],
    "materials": [
        {
            "name": "MASTER_Metal",
            "pbrMetallicRoughness": {
                "baseColorTexture": {
                    "index": 0
                },
                "metallicFactor": 0.0,
                "roughnessFactor": 0.5527864098548889
            },
            "normalTexture": {
                "index": 1
            },
            "extensions": {
                "KHR_materials_specular": {
                    "specularFactor": 1.0,
                    "specularColorFactor": [
                        0.5,
                        0.5,
                        0.5
                    ],
                    "specularTexture": {
                        "index": 2
                    }
                }
            }
        }
    ],
    "meshes": [
        {
            "name": "Bistro_Research_Exterior_Paris_Building_01_paris_building_01_bottom_4687",
            "primitives": [
                {
                    "mode": 4,
                    "material": 0,
                    "indices": 5,
                    "attributes": {
                        "POSITION": 0,
                        "NORMAL": 1,
                        "TANGENT": 2,
                        "TEXCOORD_0": 3,
                        "TEXCOORD_1": 4
                    }
                }
            ]
        }
    ],
    "nodes": [
        {
            "name": "Bistro_Research_Exterior_Paris_Building_01_paris_building_01_bottom_4687",
            "mesh": 0
        }
    ],
    "samplers": [
        {},
        {},
        {}
    ],
    "scenes": [
        {
            "nodes": [
                0
            ]
        }
    ],
    "textures": [
        {
            "source": 0,
            "sampler": 0
        },
        {
            "source": 1,
            "sampler": 1
        },
        {
            "source": 2,
            "sampler": 2
        }
    ],
    "scene": 0
}