{
    "asset": {
        "version": "2.0",
        "generator": "Open Asset Import Library (assimp v6.0.44188438)"
    },
    "extensionsUsed": [
        "KHR_materials_specular",
        "KHR_materials_volume",
        "FB_ngon_encoding"
    ],
    "accessors": [
        {
            "bufferView": 0,
            "byteOffset": 0,
            "componentType": 5126,
            "count": 5479,
            "type": "VEC3",
            "max": [
                4821.71435546875,
                -2275.35888671875,
                135.99307250976563
            ],
            "min": [
                2.2250738585072014e-308,
                -2687.028076171875,
                2.2250738585072014e-308
            ]
        },
        {
            "bufferView": 1,
            "byteOffset": 0,
            "componentType": 5126,
            "count": 5479,
            "type": "VEC3",
            "max": [
                0.9996097683906555,
                0.9990631937980652,
                0.999984622001648
            ],
            "min": [
                -0.9986953735351563,
                -0.9994224309921265,
                -0.8976941108703613
            ]
        },
        {
            "bufferView": 2,
            "byteOffset": 0,
            "componentType": 5126,
            "count": 5479,
            "type": "VEC3",
            "max": [
                0.9999909996986389,
                0.9999920725822449,
                0.5244014263153076
            ],
            "min": [
                -0.9999919533729553,
                -0.9999308586120605,
                -0.7489850521087646
            ]
        },
        {
            "bufferView": 3,
            "byteOffset": 0,
            "componentType": 5126,
            "count": 5479,
            "type": "VEC2",
            "max": [
                1.001953125,
                1.001434326171875
            ],
            "min": [
                0.0,
                0.0
            ]
        },
        {
            "bufferView": 4,
            "byteOffset": 0,
            "componentType": 5126,
            "count": 5479,
            "type": "VEC2",
            "max": [
                0.98974609375,
                0.9921875
            ],
            "min": [
                2.2250738585072014e-308,
                2.2250738585072014e-308
            ]
        },
        {
            "bufferView": 5,
            "byteOffset": 0,
            "componentType": 5125,
            "count": 5607,
            "type": "SCALAR",
            "max": [
                5478
            ],
            "min": [
                0
            ]
        }
    ],
    "buffers": [
        {
            "byteLength": 307336,
            "uri": "Bistro_Research_Exterior_bux_hedge_box_long_low_bend2_3991.bin"
        }
    ],
    "bufferViews": [
        {
            "buffer": 0,
            "byteOffset": 0,
            "byteLength": 65748,
            "target": 34962
        },
        {
            "buffer": 0,
            "byteOffset": 65748,
            "byteLength": 65748,
            "target": 34962
        },
        {
            "buffer": 0,
            "byteOffset": 131496,
            "byteLength": 65748,
            "target": 34962
        },
        {
            "buffer": 0,
            "byteOffset": 197244,
            "byteLength": 43832,
            "target": 34962
        },
        {
            "buffer": 0,
            "byteOffset": 241076,
            "byteLength": 43832,
            "target": 34962
        },
        {
            "buffer": 0,
            "byteOffset": 284908,
            "byteLength": 22428,
            "target": 34963
        }
    ],
    "images": [
        {
            "uri": "Textures\\Foliage_Bux_Hedges46_BaseColor.dds"
        },
        {
            "uri": "Textures\\Foliage_Bux_Hedges46_Normal.dds"
        },
        {
            "uri": "Textures\\Foliage_Bux_Hedges46_Specular.dds"
        }
    ],
    "materials": [
        {
            "name": "Foliage_Bux_Hedges46.DoubleSided",
            "pbrMetallicRoughness": {
                "baseColorTexture": {
                    "index": 0
                },
                "metallicFactor": 0.0,
                "roughnessFactor": 0.5527864098548889
            },
            "normalTexture": {
                "index": 1
            },
            "extensions": {
                "KHR_materials_specular": {
                    "specularFactor": 1.0,
                    "specularColorFactor": [
                        0.5,
                        0.5,
                        0.5
                    ],
                    "specularTexture": {
                        "index": 2
                    }
                }
            }
        }
    ],
    "meshes": [
        {
            "name": "Bistro_Research_Exterior_bux_hedge_box_long_low_bend2_3991",
            "primitives": [
                {
                    "mode": 4,
                    "material": 0,
                    "indices": 5,
                    "attributes": {
                        "POSITION": 0,
                        "NORMAL": 1,
                        "TANGENT": 2,
                        "TEXCOORD_0": 3,
                        "TEXCOORD_1": 4
                    }
                }
            ]
        }
    ],
    "nodes": [
        {
            "name": "Bistro_Research_Exterior_bux_hedge_box_long_low_bend2_3991",
            "mesh": 0
        }
    ],
    "samplers": [
        {},
        {},
        {}
    ],
    "scenes": [
        {
            "nodes": [
                0
            ]
        }
    ],
    "textures": [
        {
            "source": 0,
            "sampler": 0
        },
        {
            "source": 1,
            "sampler": 1
        },
        {
            "source": 2,
            "sampler": 2
        }
    ],
    "scene": 0
}