{
    "asset": {
        "version": "2.0",
        "generator": "Open Asset Import Library (assimp v6.0.44188438)"
    },
    "extensionsUsed": [
        "KHR_materials_specular",
        "KHR_materials_volume",
        "FB_ngon_encoding"
    ],
    "accessors": [
        {
            "bufferView": 0,
            "byteOffset": 0,
            "componentType": 5126,
            "count": 101,
            "type": "VEC3",
            "max": [
                350.4509582519531,
                599.7943115234375,
                1685.08203125
            ],
            "min": [
                -4.857451438903809,
                2.2250738585072014e-308,
                2.2250738585072014e-308
            ]
        },
        {
            "bufferView": 1,
            "byteOffset": 0,
            "componentType": 5126,
            "count": 101,
            "type": "VEC3",
            "max": [
                0.019758889451622963,
                0.999984622001648,
                0.9931195378303528
            ],
            "min": [
                -0.9191827774047852,
                -0.999984622001648,
                -0.027430256828665733
            ]
        },
        {
            "bufferView": 2,
            "byteOffset": 0,
            "componentType": 5126,
            "count": 101,
            "type": "VEC3",
            "max": [
                0.6238036155700684,
                0.4434542953968048,
                0.9862464070320129
            ],
            "min": [
                -0.7792586088180542,
                -0.9951527714729309,
                -0.999932050704956
            ]
        },
        {
            "bufferView": 3,
            "byteOffset": 0,
            "componentType": 5126,
            "count": 101,
            "type": "VEC2",
            "max": [
                4.078125,
                1.324951171875
            ],
            "min": [
                2.2250738585072014e-308,
                -0.8603515625
            ]
        },
        {
            "bufferView": 4,
            "byteOffset": 0,
            "componentType": 5126,
            "count": 101,
            "type": "VEC2",
            "max": [
                0.98095703125,
                0.9921875
            ],
            "min": [
                2.2250738585072014e-308,
                2.2250738585072014e-308
            ]
        },
        {
            "bufferView": 5,
            "byteOffset": 0,
            "componentType": 5125,
            "count": 300,
            "type": "SCALAR",
            "max": [
                100
            ],
            "min": [
                0
            ]
        }
    ],
    "buffers": [
        {
            "byteLength": 6452,
            "uri": "Bistro_Research_Exterior_Paris_Building_01_paris_building_01_4247.bin"
        }
    ],
    "bufferViews": [
        {
            "buffer": 0,
            "byteOffset": 0,
            "byteLength": 1212,
            "target": 34962
        },
        {
            "buffer": 0,
            "byteOffset": 1212,
            "byteLength": 1212,
            "target": 34962
        },
        {
            "buffer": 0,
            "byteOffset": 2424,
            "byteLength": 1212,
            "target": 34962
        },
        {
            "buffer": 0,
            "byteOffset": 3636,
            "byteLength": 808,
            "target": 34962
        },
        {
            "buffer": 0,
            "byteOffset": 4444,
            "byteLength": 808,
            "target": 34962
        },
        {
            "buffer": 0,
            "byteOffset": 5252,
            "byteLength": 1200,
            "target": 34963
        }
    ],
    "images": [
        {
            "uri": "Textures\\MASTER_Grain_Metal_BaseColor.dds"
        },
        {
            "uri": "Textures\\MASTER_Grain_Metal_Normal.dds"
        },
        {
            "uri": "Textures\\MASTER_Grain_Metal_Specular.dds"
        }
    ],
    "materials": [
        {
            "name": "MASTER_Grain_Metal",
            "pbrMetallicRoughness": {
                "baseColorTexture": {
                    "index": 0
                },
                "metallicFactor": 0.0,
                "roughnessFactor": 0.5527864098548889
            },
            "normalTexture": {
                "index": 1
            },
            "extensions": {
                "KHR_materials_specular": {
                    "specularFactor": 1.0,
                    "specularColorFactor": [
                        0.5,
                        0.5,
                        0.5
                    ],
                    "specularTexture": {
                        "index": 2
                    }
                }
            }
        }
    ],
    "meshes": [
        {
            "name": "Bistro_Research_Exterior_Paris_Building_01_paris_building_01_4247",
            "primitives": [
                {
                    "mode": 4,
                    "material": 0,
                    "indices": 5,
                    "attributes": {
                        "POSITION": 0,
                        "NORMAL": 1,
                        "TANGENT": 2,
                        "TEXCOORD_0": 3,
                        "TEXCOORD_1": 4
                    }
                }
            ]
        }
    ],
    "nodes": [
        {
            "name": "Bistro_Research_Exterior_Paris_Building_01_paris_building_01_4247",
            "mesh": 0
        }
    ],
    "samplers": [
        {},
        {},
        {}
    ],
    "scenes": [
        {
            "nodes": [
                0
            ]
        }
    ],
    "textures": [
        {
            "source": 0,
            "sampler": 0
        },
        {
            "source": 1,
            "sampler": 1
        },
        {
            "source": 2,
            "sampler": 2
        }
    ],
    "scene": 0
}