{
    "asset": {
        "version": "2.0",
        "generator": "Open Asset Import Library (assimp v6.0.44188438)"
    },
    "extensionsUsed": [
        "KHR_materials_specular",
        "KHR_materials_volume",
        "FB_ngon_encoding"
    ],
    "accessors": [
        {
            "bufferView": 0,
            "byteOffset": 0,
            "componentType": 5126,
            "count": 432,
            "type": "VEC3",
            "max": [
                1790.1328125,
                3348.4736328125,
                1486.17041015625
            ],
            "min": [
                2.2250738585072014e-308,
                2.2250738585072014e-308,
                2.2250738585072014e-308
            ]
        },
        {
            "bufferView": 1,
            "byteOffset": 0,
            "componentType": 5126,
            "count": 432,
            "type": "VEC3",
            "max": [
                0.5075320601463318,
                0.9982666969299316,
                -0.0039015794172883034
            ],
            "min": [
                -0.9894671440124512,
                -0.856090784072876,
                -0.00394505774602294
            ]
        },
        {
            "bufferView": 2,
            "byteOffset": 0,
            "componentType": 5126,
            "count": 432,
            "type": "VEC3",
            "max": [
                0.8560975790023804,
                0.5075361132621765,
                0.0009103909833356738
            ],
            "min": [
                -0.9982744455337524,
                -0.9894460439682007,
                -0.0375281497836113
            ]
        },
        {
            "bufferView": 3,
            "byteOffset": 0,
            "componentType": 5126,
            "count": 432,
            "type": "VEC2",
            "max": [
                7.9140625,
                0.569580078125
            ],
            "min": [
                2.2250738585072014e-308,
                -1.2578125
            ]
        },
        {
            "bufferView": 4,
            "byteOffset": 0,
            "componentType": 5126,
            "count": 432,
            "type": "VEC2",
            "max": [
                0.990234375,
                0.9921875
            ],
            "min": [
                2.2250738585072014e-308,
                2.2250738585072014e-308
            ]
        },
        {
            "bufferView": 5,
            "byteOffset": 0,
            "componentType": 5125,
            "count": 1224,
            "type": "SCALAR",
            "max": [
                431
            ],
            "min": [
                0
            ]
        }
    ],
    "buffers": [
        {
            "byteLength": 27360,
            "uri": "Bistro_Research_Exterior_paris_building_05_5129.bin"
        }
    ],
    "bufferViews": [
        {
            "buffer": 0,
            "byteOffset": 0,
            "byteLength": 5184,
            "target": 34962
        },
        {
            "buffer": 0,
            "byteOffset": 5184,
            "byteLength": 5184,
            "target": 34962
        },
        {
            "buffer": 0,
            "byteOffset": 10368,
            "byteLength": 5184,
            "target": 34962
        },
        {
            "buffer": 0,
            "byteOffset": 15552,
            "byteLength": 3456,
            "target": 34962
        },
        {
            "buffer": 0,
            "byteOffset": 19008,
            "byteLength": 3456,
            "target": 34962
        },
        {
            "buffer": 0,
            "byteOffset": 22464,
            "byteLength": 4896,
            "target": 34963
        }
    ],
    "images": [
        {
            "uri": "Textures\\MASTER_Concrete_Grooved_BaseColor.dds"
        },
        {
            "uri": "Textures\\MASTER_Concrete_Grooved_Normal.dds"
        },
        {
            "uri": "Textures\\MASTER_Concrete_Grooved_Specular.dds"
        }
    ],
    "materials": [
        {
            "name": "MASTER_Concrete_Grooved",
            "pbrMetallicRoughness": {
                "baseColorTexture": {
                    "index": 0
                },
                "metallicFactor": 0.0,
                "roughnessFactor": 0.5527864098548889
            },
            "normalTexture": {
                "index": 1
            },
            "extensions": {
                "KHR_materials_specular": {
                    "specularFactor": 1.0,
                    "specularColorFactor": [
                        0.5,
                        0.5,
                        0.5
                    ],
                    "specularTexture": {
                        "index": 2
                    }
                }
            }
        }
    ],
    "meshes": [
        {
            "name": "Bistro_Research_Exterior_paris_building_05_5129",
            "primitives": [
                {
                    "mode": 4,
                    "material": 0,
                    "indices": 5,
                    "attributes": {
                        "POSITION": 0,
                        "NORMAL": 1,
                        "TANGENT": 2,
                        "TEXCOORD_0": 3,
                        "TEXCOORD_1": 4
                    }
                }
            ]
        }
    ],
    "nodes": [
        {
            "name": "Bistro_Research_Exterior_paris_building_05_5129",
            "mesh": 0
        }
    ],
    "samplers": [
        {},
        {},
        {}
    ],
    "scenes": [
        {
            "nodes": [
                0
            ]
        }
    ],
    "textures": [
        {
            "source": 0,
            "sampler": 0
        },
        {
            "source": 1,
            "sampler": 1
        },
        {
            "source": 2,
            "sampler": 2
        }
    ],
    "scene": 0
}