{
    "asset": {
        "version": "2.0",
        "generator": "Open Asset Import Library (assimp v6.0.44188438)"
    },
    "extensionsUsed": [
        "KHR_materials_specular",
        "KHR_materials_volume",
        "FB_ngon_encoding"
    ],
    "accessors": [
        {
            "bufferView": 0,
            "byteOffset": 0,
            "componentType": 5126,
            "count": 2298,
            "type": "VEC3",
            "max": [
                5413.14501953125,
                -4012.427490234375,
                35.633975982666016
            ],
            "min": [
                2.2250738585072014e-308,
                -4340.31005859375,
                2.2250738585072014e-308
            ]
        },
        {
            "bufferView": 1,
            "byteOffset": 0,
            "componentType": 5126,
            "count": 2298,
            "type": "VEC3",
            "max": [
                0.9986746907234192,
                0.99298495054245,
                0.9999843835830688
            ],
            "min": [
                -0.9986953735351563,
                -0.9989860653877258,
                -0.8267266154289246
            ]
        },
        {
            "bufferView": 2,
            "byteOffset": 0,
            "componentType": 5126,
            "count": 2298,
            "type": "VEC3",
            "max": [
                0.9552671313285828,
                0.9944169521331787,
                0.9999923706054688
            ],
            "min": [
                -0.99837327003479,
                -0.9934706091880798,
                -0.9999921321868896
            ]
        },
        {
            "bufferView": 3,
            "byteOffset": 0,
            "componentType": 5126,
            "count": 2298,
            "type": "VEC2",
            "max": [
                0.994140625,
                1.89794921875
            ],
            "min": [
                2.2250738585072014e-308,
                2.2250738585072014e-308
            ]
        },
        {
            "bufferView": 4,
            "byteOffset": 0,
            "componentType": 5126,
            "count": 2298,
            "type": "VEC2",
            "max": [
                0.9873046875,
                0.9921875
            ],
            "min": [
                2.2250738585072014e-308,
                2.2250738585072014e-308
            ]
        },
        {
            "bufferView": 5,
            "byteOffset": 0,
            "componentType": 5125,
            "count": 3708,
            "type": "SCALAR",
            "max": [
                2297
            ],
            "min": [
                0
            ]
        }
    ],
    "buffers": [
        {
            "byteLength": 134328,
            "uri": "Bistro_Research_Exterior_Paris_Street_6193.bin"
        }
    ],
    "bufferViews": [
        {
            "buffer": 0,
            "byteOffset": 0,
            "byteLength": 27576,
            "target": 34962
        },
        {
            "buffer": 0,
            "byteOffset": 27576,
            "byteLength": 27576,
            "target": 34962
        },
        {
            "buffer": 0,
            "byteOffset": 55152,
            "byteLength": 27576,
            "target": 34962
        },
        {
            "buffer": 0,
            "byteOffset": 82728,
            "byteLength": 18384,
            "target": 34962
        },
        {
            "buffer": 0,
            "byteOffset": 101112,
            "byteLength": 18384,
            "target": 34962
        },
        {
            "buffer": 0,
            "byteOffset": 119496,
            "byteLength": 14832,
            "target": 34963
        }
    ],
    "images": [
        {
            "uri": "Textures\\Pavement_Curbstones_BaseColor.dds"
        },
        {
            "uri": "Textures\\Pavement_Curbstones_Normal.dds"
        },
        {
            "uri": "Textures\\Pavement_Curbstones_Specular.dds"
        }
    ],
    "materials": [
        {
            "name": "Pavement_Curbstones",
            "pbrMetallicRoughness": {
                "baseColorTexture": {
                    "index": 0
                },
                "metallicFactor": 0.0,
                "roughnessFactor": 0.5527864098548889
            },
            "normalTexture": {
                "index": 1
            },
            "extensions": {
                "KHR_materials_specular": {
                    "specularFactor": 1.0,
                    "specularColorFactor": [
                        0.5,
                        0.5,
                        0.5
                    ],
                    "specularTexture": {
                        "index": 2
                    }
                }
            }
        }
    ],
    "meshes": [
        {
            "name": "Bistro_Research_Exterior_Paris_Street_6193",
            "primitives": [
                {
                    "mode": 4,
                    "material": 0,
                    "indices": 5,
                    "attributes": {
                        "POSITION": 0,
                        "NORMAL": 1,
                        "TANGENT": 2,
                        "TEXCOORD_0": 3,
                        "TEXCOORD_1": 4
                    }
                }
            ]
        }
    ],
    "nodes": [
        {
            "name": "Bistro_Research_Exterior_Paris_Street_6193",
            "mesh": 0
        }
    ],
    "samplers": [
        {},
        {},
        {}
    ],
    "scenes": [
        {
            "nodes": [
                0
            ]
        }
    ],
    "textures": [
        {
            "source": 0,
            "sampler": 0
        },
        {
            "source": 1,
            "sampler": 1
        },
        {
            "source": 2,
            "sampler": 2
        }
    ],
    "scene": 0
}