{
    "asset": {
        "version": "2.0",
        "generator": "Open Asset Import Library (assimp v6.0.44188438)"
    },
    "extensionsUsed": [
        "KHR_materials_specular",
        "KHR_materials_volume",
        "FB_ngon_encoding"
    ],
    "accessors": [
        {
            "bufferView": 0,
            "byteOffset": 0,
            "componentType": 5126,
            "count": 9724,
            "type": "VEC3",
            "max": [
                2055.747314453125,
                3366.127685546875,
                1908.870361328125
            ],
            "min": [
                2.2250738585072014e-308,
                2.2250738585072014e-308,
                2.2250738585072014e-308
            ]
        },
        {
            "bufferView": 1,
            "byteOffset": 0,
            "componentType": 5126,
            "count": 9724,
            "type": "VEC3",
            "max": [
                0.9217245578765869,
                0.9993700385093689,
                0.999984622001648
            ],
            "min": [
                -0.9877162575721741,
                -0.9853902459144592,
                -0.999984622001648
            ]
        },
        {
            "bufferView": 2,
            "byteOffset": 0,
            "componentType": 5126,
            "count": 9724,
            "type": "VEC3",
            "max": [
                0.9958532452583313,
                0.9953020811080933,
                0.9999923706054688
            ],
            "min": [
                -0.9998993277549744,
                -0.9951440095901489,
                -0.9999922513961792
            ]
        },
        {
            "bufferView": 3,
            "byteOffset": 0,
            "componentType": 5126,
            "count": 9724,
            "type": "VEC2",
            "max": [
                13.46875,
                12.7265625
            ],
            "min": [
                -4.33984375,
                -6.0390625
            ]
        },
        {
            "bufferView": 4,
            "byteOffset": 0,
            "componentType": 5126,
            "count": 9724,
            "type": "VEC2",
            "max": [
                0.98974609375,
                0.9921913146972656
            ],
            "min": [
                2.2250738585072014e-308,
                2.2250738585072014e-308
            ]
        },
        {
            "bufferView": 5,
            "byteOffset": 0,
            "componentType": 5125,
            "count": 32625,
            "type": "SCALAR",
            "max": [
                9723
            ],
            "min": [
                0
            ]
        }
    ],
    "buffers": [
        {
            "byteLength": 636148,
            "uri": "Bistro_Research_Exterior_paris_building_05_5137.bin"
        }
    ],
    "bufferViews": [
        {
            "buffer": 0,
            "byteOffset": 0,
            "byteLength": 116688,
            "target": 34962
        },
        {
            "buffer": 0,
            "byteOffset": 116688,
            "byteLength": 116688,
            "target": 34962
        },
        {
            "buffer": 0,
            "byteOffset": 233376,
            "byteLength": 116688,
            "target": 34962
        },
        {
            "buffer": 0,
            "byteOffset": 350064,
            "byteLength": 77792,
            "target": 34962
        },
        {
            "buffer": 0,
            "byteOffset": 427856,
            "byteLength": 77792,
            "target": 34962
        },
        {
            "buffer": 0,
            "byteOffset": 505648,
            "byteLength": 130500,
            "target": 34963
        }
    ],
    "images": [
        {
            "uri": "Textures\\MASTER_Concrete_BaseColor.dds"
        },
        {
            "uri": "Textures\\MASTER_Concrete_Normal.dds"
        },
        {
            "uri": "Textures\\MASTER_Concrete_Specular.dds"
        }
    ],
    "materials": [
        {
            "name": "MASTER_Concrete",
            "pbrMetallicRoughness": {
                "baseColorTexture": {
                    "index": 0
                },
                "metallicFactor": 0.0,
                "roughnessFactor": 0.5527864098548889
            },
            "normalTexture": {
                "index": 1
            },
            "extensions": {
                "KHR_materials_specular": {
                    "specularFactor": 1.0,
                    "specularColorFactor": [
                        0.5,
                        0.5,
                        0.5
                    ],
                    "specularTexture": {
                        "index": 2
                    }
                }
            }
        }
    ],
    "meshes": [
        {
            "name": "Bistro_Research_Exterior_paris_building_05_5137",
            "primitives": [
                {
                    "mode": 4,
                    "material": 0,
                    "indices": 5,
                    "attributes": {
                        "POSITION": 0,
                        "NORMAL": 1,
                        "TANGENT": 2,
                        "TEXCOORD_0": 3,
                        "TEXCOORD_1": 4
                    }
                }
            ]
        }
    ],
    "nodes": [
        {
            "name": "Bistro_Research_Exterior_paris_building_05_5137",
            "mesh": 0
        }
    ],
    "samplers": [
        {},
        {},
        {}
    ],
    "scenes": [
        {
            "nodes": [
                0
            ]
        }
    ],
    "textures": [
        {
            "source": 0,
            "sampler": 0
        },
        {
            "source": 1,
            "sampler": 1
        },
        {
            "source": 2,
            "sampler": 2
        }
    ],
    "scene": 0
}