{
    "asset": {
        "version": "2.0",
        "generator": "Open Asset Import Library (assimp v6.0.44188438)"
    },
    "extensionsUsed": [
        "KHR_materials_specular",
        "KHR_materials_volume",
        "FB_ngon_encoding"
    ],
    "accessors": [
        {
            "bufferView": 0,
            "byteOffset": 0,
            "componentType": 5126,
            "count": 3316,
            "type": "VEC3",
            "max": [
                115.25270080566406,
                876.748779296875,
                343.9013366699219
            ],
            "min": [
                -99.14183044433594,
                2.2250738585072014e-308,
                2.2250738585072014e-308
            ]
        },
        {
            "bufferView": 1,
            "byteOffset": 0,
            "componentType": 5126,
            "count": 3316,
            "type": "VEC3",
            "max": [
                0.9990483522415161,
                0.9990631937980652,
                0.999984622001648
            ],
            "min": [
                -0.9993701577186584,
                -0.9993600845336914,
                -0.999984622001648
            ]
        },
        {
            "bufferView": 2,
            "byteOffset": 0,
            "componentType": 5126,
            "count": 3316,
            "type": "VEC3",
            "max": [
                0.9993679523468018,
                0.9990562200546265,
                0.9999924898147583
            ],
            "min": [
                -0.999070942401886,
                -0.9993778467178345,
                -0.9999924302101135
            ]
        },
        {
            "bufferView": 3,
            "byteOffset": 0,
            "componentType": 5126,
            "count": 3316,
            "type": "VEC2",
            "max": [
                1.2958984375,
                0.9970684051513672
            ],
            "min": [
                -0.059967041015625,
                2.2250738585072014e-308
            ]
        },
        {
            "bufferView": 4,
            "byteOffset": 0,
            "componentType": 5126,
            "count": 3316,
            "type": "VEC2",
            "max": [
                0.9912109375,
                0.9921875
            ],
            "min": [
                2.2250738585072014e-308,
                2.2250738585072014e-308
            ]
        },
        {
            "bufferView": 5,
            "byteOffset": 0,
            "componentType": 5125,
            "count": 9000,
            "type": "SCALAR",
            "max": [
                3315
            ],
            "min": [
                0
            ]
        }
    ],
    "buffers": [
        {
            "byteLength": 208432,
            "uri": "Bistro_Research_Exterior_paris_Bistroawning_4105_0.bin"
        }
    ],
    "bufferViews": [
        {
            "buffer": 0,
            "byteOffset": 0,
            "byteLength": 39792,
            "target": 34962
        },
        {
            "buffer": 0,
            "byteOffset": 39792,
            "byteLength": 39792,
            "target": 34962
        },
        {
            "buffer": 0,
            "byteOffset": 79584,
            "byteLength": 39792,
            "target": 34962
        },
        {
            "buffer": 0,
            "byteOffset": 119376,
            "byteLength": 26528,
            "target": 34962
        },
        {
            "buffer": 0,
            "byteOffset": 145904,
            "byteLength": 26528,
            "target": 34962
        },
        {
            "buffer": 0,
            "byteOffset": 172432,
            "byteLength": 36000,
            "target": 34963
        }
    ],
    "images": [
        {
            "uri": "Textures\\Awnings_Beams_BaseColor.dds"
        },
        {
            "uri": "Textures\\Awnings_Beams_Normal.dds"
        },
        {
            "uri": "Textures\\Awnings_Beams_Specular.dds"
        }
    ],
    "materials": [
        {
            "name": "Awnings_Beams",
            "pbrMetallicRoughness": {
                "baseColorTexture": {
                    "index": 0
                },
                "metallicFactor": 0.0,
                "roughnessFactor": 0.5527864098548889
            },
            "normalTexture": {
                "index": 1
            },
            "extensions": {
                "KHR_materials_specular": {
                    "specularFactor": 1.0,
                    "specularColorFactor": [
                        0.5,
                        0.5,
                        0.5
                    ],
                    "specularTexture": {
                        "index": 2
                    }
                }
            }
        }
    ],
    "meshes": [
        {
            "name": "Bistro_Research_Exterior_paris_Bistroawning_4105",
            "primitives": [
                {
                    "mode": 4,
                    "material": 0,
                    "indices": 5,
                    "attributes": {
                        "POSITION": 0,
                        "NORMAL": 1,
                        "TANGENT": 2,
                        "TEXCOORD_0": 3,
                        "TEXCOORD_1": 4
                    }
                }
            ]
        }
    ],
    "nodes": [
        {
            "name": "Bistro_Research_Exterior_paris_Bistroawning_4105",
            "mesh": 0
        }
    ],
    "samplers": [
        {},
        {},
        {}
    ],
    "scenes": [
        {
            "nodes": [
                0
            ]
        }
    ],
    "textures": [
        {
            "source": 0,
            "sampler": 0
        },
        {
            "source": 1,
            "sampler": 1
        },
        {
            "source": 2,
            "sampler": 2
        }
    ],
    "scene": 0
}