{
    "asset": {
        "version": "2.0",
        "generator": "Open Asset Import Library (assimp v6.0.44188438)"
    },
    "extensionsUsed": [
        "KHR_materials_specular",
        "KHR_materials_volume",
        "FB_ngon_encoding"
    ],
    "accessors": [
        {
            "bufferView": 0,
            "byteOffset": 0,
            "componentType": 5126,
            "count": 3238,
            "type": "VEC3",
            "max": [
                2551.45947265625,
                136.27740478515625,
                1771.802978515625
            ],
            "min": [
                2.2250738585072014e-308,
                -2055.6376953125,
                2.2250738585072014e-308
            ]
        },
        {
            "bufferView": 1,
            "byteOffset": 0,
            "componentType": 5126,
            "count": 3238,
            "type": "VEC3",
            "max": [
                0.9361594319343567,
                0.9371252059936523,
                0.999984622001648
            ],
            "min": [
                -0.9380699396133423,
                -0.9335412979125977,
                -0.999984622001648
            ]
        },
        {
            "bufferView": 2,
            "byteOffset": 0,
            "componentType": 5126,
            "count": 3238,
            "type": "VEC3",
            "max": [
                0.933548629283905,
                0.9361667633056641,
                0.7058334350585938
            ],
            "min": [
                -0.9371324777603149,
                -0.9380849003791809,
                -0.7058331966400146
            ]
        },
        {
            "bufferView": 3,
            "byteOffset": 0,
            "componentType": 5126,
            "count": 3238,
            "type": "VEC2",
            "max": [
                3.296875,
                3.296875
            ],
            "min": [
                -2.296875,
                -2.203125
            ]
        },
        {
            "bufferView": 4,
            "byteOffset": 0,
            "componentType": 5126,
            "count": 3238,
            "type": "VEC2",
            "max": [
                0.9912109375,
                0.9921913146972656
            ],
            "min": [
                2.2250738585072014e-308,
                2.2250738585072014e-308
            ]
        },
        {
            "bufferView": 5,
            "byteOffset": 0,
            "componentType": 5125,
            "count": 6966,
            "type": "SCALAR",
            "max": [
                3237
            ],
            "min": [
                0
            ]
        }
    ],
    "buffers": [
        {
            "byteLength": 196240,
            "uri": "Bistro_Research_Exterior_paris_building_02_4911.bin"
        }
    ],
    "bufferViews": [
        {
            "buffer": 0,
            "byteOffset": 0,
            "byteLength": 38856,
            "target": 34962
        },
        {
            "buffer": 0,
            "byteOffset": 38856,
            "byteLength": 38856,
            "target": 34962
        },
        {
            "buffer": 0,
            "byteOffset": 77712,
            "byteLength": 38856,
            "target": 34962
        },
        {
            "buffer": 0,
            "byteOffset": 116568,
            "byteLength": 25904,
            "target": 34962
        },
        {
            "buffer": 0,
            "byteOffset": 142472,
            "byteLength": 25904,
            "target": 34962
        },
        {
            "buffer": 0,
            "byteOffset": 168376,
            "byteLength": 27864,
            "target": 34963
        }
    ],
    "images": [
        {
            "uri": "Textures\\MASTER_Wood_Painted3_BaseColor.dds"
        },
        {
            "uri": "Textures\\MASTER_Wood_Painted3_Normal.dds"
        },
        {
            "uri": "Textures\\MASTER_Wood_Painted3_Specular.dds"
        }
    ],
    "materials": [
        {
            "name": "MASTER_Wood_Painted3",
            "pbrMetallicRoughness": {
                "baseColorTexture": {
                    "index": 0
                },
                "metallicFactor": 0.0,
                "roughnessFactor": 0.5527864098548889
            },
            "normalTexture": {
                "index": 1
            },
            "extensions": {
                "KHR_materials_specular": {
                    "specularFactor": 1.0,
                    "specularColorFactor": [
                        0.5,
                        0.5,
                        0.5
                    ],
                    "specularTexture": {
                        "index": 2
                    }
                }
            }
        }
    ],
    "meshes": [
        {
            "name": "Bistro_Research_Exterior_paris_building_02_4911",
            "primitives": [
                {
                    "mode": 4,
                    "material": 0,
                    "indices": 5,
                    "attributes": {
                        "POSITION": 0,
                        "NORMAL": 1,
                        "TANGENT": 2,
                        "TEXCOORD_0": 3,
                        "TEXCOORD_1": 4
                    }
                }
            ]
        }
    ],
    "nodes": [
        {
            "name": "Bistro_Research_Exterior_paris_building_02_4911",
            "mesh": 0
        }
    ],
    "samplers": [
        {},
        {},
        {}
    ],
    "scenes": [
        {
            "nodes": [
                0
            ]
        }
    ],
    "textures": [
        {
            "source": 0,
            "sampler": 0
        },
        {
            "source": 1,
            "sampler": 1
        },
        {
            "source": 2,
            "sampler": 2
        }
    ],
    "scene": 0
}