{
    "asset": {
        "version": "2.0",
        "generator": "Open Asset Import Library (assimp v6.0.44188438)"
    },
    "extensionsUsed": [
        "KHR_materials_specular",
        "KHR_materials_volume",
        "FB_ngon_encoding"
    ],
    "accessors": [
        {
            "bufferView": 0,
            "byteOffset": 0,
            "componentType": 5126,
            "count": 343,
            "type": "VEC3",
            "max": [
                87.78579711914063,
                792.3197631835938,
                521.8328857421875
            ],
            "min": [
                2.2250738585072014e-308,
                2.2250738585072014e-308,
                2.2250738585072014e-308
            ]
        },
        {
            "bufferView": 1,
            "byteOffset": 0,
            "componentType": 5126,
            "count": 343,
            "type": "VEC3",
            "max": [
                0.7225868105888367,
                0.9984503388404846,
                0.999609649181366
            ],
            "min": [
                -0.9995543360710144,
                -0.897197961807251,
                -0.1287226676940918
            ]
        },
        {
            "bufferView": 2,
            "byteOffset": 0,
            "componentType": 5126,
            "count": 343,
            "type": "VEC3",
            "max": [
                0.9341740608215332,
                0.9986787438392639,
                0.5775331854820251
            ],
            "min": [
                -0.9998413920402527,
                -0.9999908208847046,
                -0.5545392632484436
            ]
        },
        {
            "bufferView": 3,
            "byteOffset": 0,
            "componentType": 5126,
            "count": 343,
            "type": "VEC2",
            "max": [
                0.394287109375,
                0.9971275329589844
            ],
            "min": [
                2.2250738585072014e-308,
                2.2250738585072014e-308
            ]
        },
        {
            "bufferView": 4,
            "byteOffset": 0,
            "componentType": 5126,
            "count": 343,
            "type": "VEC2",
            "max": [
                0.97802734375,
                0.9921875
            ],
            "min": [
                2.2250738585072014e-308,
                2.2250738585072014e-308
            ]
        },
        {
            "bufferView": 5,
            "byteOffset": 0,
            "componentType": 5125,
            "count": 1200,
            "type": "SCALAR",
            "max": [
                342
            ],
            "min": [
                0
            ]
        }
    ],
    "buffers": [
        {
            "byteLength": 22636,
            "uri": "Bistro_Research_Exterior_Paris_flowers_01b1_6043.bin"
        }
    ],
    "bufferViews": [
        {
            "buffer": 0,
            "byteOffset": 0,
            "byteLength": 4116,
            "target": 34962
        },
        {
            "buffer": 0,
            "byteOffset": 4116,
            "byteLength": 4116,
            "target": 34962
        },
        {
            "buffer": 0,
            "byteOffset": 8232,
            "byteLength": 4116,
            "target": 34962
        },
        {
            "buffer": 0,
            "byteOffset": 12348,
            "byteLength": 2744,
            "target": 34962
        },
        {
            "buffer": 0,
            "byteOffset": 15092,
            "byteLength": 2744,
            "target": 34962
        },
        {
            "buffer": 0,
            "byteOffset": 17836,
            "byteLength": 4800,
            "target": 34963
        }
    ],
    "images": [
        {
            "uri": "Textures\\Foliage_Flowers_BaseColor.dds"
        },
        {
            "uri": "Textures\\Foliage_Flowers_Normal.dds"
        },
        {
            "uri": "Textures\\Foliage_Flowers_Specular.dds"
        }
    ],
    "materials": [
        {
            "name": "Foliage_Flowers.DoubleSided",
            "pbrMetallicRoughness": {
                "baseColorTexture": {
                    "index": 0
                },
                "metallicFactor": 0.0,
                "roughnessFactor": 0.5527864098548889
            },
            "normalTexture": {
                "index": 1
            },
            "extensions": {
                "KHR_materials_specular": {
                    "specularFactor": 1.0,
                    "specularColorFactor": [
                        0.5,
                        0.5,
                        0.5
                    ],
                    "specularTexture": {
                        "index": 2
                    }
                }
            }
        }
    ],
    "meshes": [
        {
            "name": "Bistro_Research_Exterior_Paris_flowers_01b1_6043",
            "primitives": [
                {
                    "mode": 4,
                    "material": 0,
                    "indices": 5,
                    "attributes": {
                        "POSITION": 0,
                        "NORMAL": 1,
                        "TANGENT": 2,
                        "TEXCOORD_0": 3,
                        "TEXCOORD_1": 4
                    }
                }
            ]
        }
    ],
    "nodes": [
        {
            "name": "Bistro_Research_Exterior_Paris_flowers_01b1_6043",
            "mesh": 0
        }
    ],
    "samplers": [
        {},
        {},
        {}
    ],
    "scenes": [
        {
            "nodes": [
                0
            ]
        }
    ],
    "textures": [
        {
            "source": 0,
            "sampler": 0
        },
        {
            "source": 1,
            "sampler": 1
        },
        {
            "source": 2,
            "sampler": 2
        }
    ],
    "scene": 0
}