{
    "asset": {
        "version": "2.0",
        "generator": "Open Asset Import Library (assimp v6.0.44188438)"
    },
    "extensionsUsed": [
        "KHR_materials_specular",
        "KHR_materials_volume",
        "FB_ngon_encoding"
    ],
    "accessors": [
        {
            "bufferView": 0,
            "byteOffset": 0,
            "componentType": 5126,
            "count": 1971,
            "type": "VEC3",
            "max": [
                -2176.977783203125,
                1322.815185546875,
                859.1024780273438
            ],
            "min": [
                -2622.122314453125,
                2.2250738585072014e-308,
                2.2250738585072014e-308
            ]
        },
        {
            "bufferView": 1,
            "byteOffset": 0,
            "componentType": 5126,
            "count": 1971,
            "type": "VEC3",
            "max": [
                0.9938548803329468,
                0.9934067726135254,
                0.999984622001648
            ],
            "min": [
                -0.9927440881729126,
                -0.993732213973999,
                -0.999984622001648
            ]
        },
        {
            "bufferView": 2,
            "byteOffset": 0,
            "componentType": 5126,
            "count": 1971,
            "type": "VEC3",
            "max": [
                0.757279098033905,
                0.9996362328529358,
                0.9999980926513672
            ],
            "min": [
                -0.9993564486503601,
                -0.7846666574478149,
                -0.9999952912330627
            ]
        },
        {
            "bufferView": 3,
            "byteOffset": 0,
            "componentType": 5126,
            "count": 1971,
            "type": "VEC2",
            "max": [
                0.9951171875,
                0.89434814453125
            ],
            "min": [
                2.2250738585072014e-308,
                2.2250738585072014e-308
            ]
        },
        {
            "bufferView": 4,
            "byteOffset": 0,
            "componentType": 5126,
            "count": 1971,
            "type": "VEC2",
            "max": [
                0.98681640625,
                0.9609375
            ],
            "min": [
                2.2250738585072014e-308,
                2.2250738585072014e-308
            ]
        },
        {
            "bufferView": 5,
            "byteOffset": 0,
            "componentType": 5125,
            "count": 4320,
            "type": "SCALAR",
            "max": [
                1970
            ],
            "min": [
                0
            ]
        }
    ],
    "buffers": [
        {
            "byteLength": 119772,
            "uri": "Bistro_Research_Exterior_Spotlights_6517.bin"
        }
    ],
    "bufferViews": [
        {
            "buffer": 0,
            "byteOffset": 0,
            "byteLength": 23652,
            "target": 34962
        },
        {
            "buffer": 0,
            "byteOffset": 23652,
            "byteLength": 23652,
            "target": 34962
        },
        {
            "buffer": 0,
            "byteOffset": 47304,
            "byteLength": 23652,
            "target": 34962
        },
        {
            "buffer": 0,
            "byteOffset": 70956,
            "byteLength": 15768,
            "target": 34962
        },
        {
            "buffer": 0,
            "byteOffset": 86724,
            "byteLength": 15768,
            "target": 34962
        },
        {
            "buffer": 0,
            "byteOffset": 102492,
            "byteLength": 17280,
            "target": 34963
        }
    ],
    "images": [
        {
            "uri": "Textures\\Banner_Metal_BaseColor.dds"
        },
        {
            "uri": "Textures\\Banner_Metal_Normal.dds"
        },
        {
            "uri": "Textures\\Banner_Metal_Specular.dds"
        }
    ],
    "materials": [
        {
            "name": "Banner_Metal",
            "pbrMetallicRoughness": {
                "baseColorTexture": {
                    "index": 0
                },
                "metallicFactor": 0.0,
                "roughnessFactor": 0.5527864098548889
            },
            "normalTexture": {
                "index": 1
            },
            "extensions": {
                "KHR_materials_specular": {
                    "specularFactor": 1.0,
                    "specularColorFactor": [
                        0.5,
                        0.5,
                        0.5
                    ],
                    "specularTexture": {
                        "index": 2
                    }
                }
            }
        }
    ],
    "meshes": [
        {
            "name": "Bistro_Research_Exterior_Spotlights_6517",
            "primitives": [
                {
                    "mode": 4,
                    "material": 0,
                    "indices": 5,
                    "attributes": {
                        "POSITION": 0,
                        "NORMAL": 1,
                        "TANGENT": 2,
                        "TEXCOORD_0": 3,
                        "TEXCOORD_1": 4
                    }
                }
            ]
        }
    ],
    "nodes": [
        {
            "name": "Bistro_Research_Exterior_Spotlights_6517",
            "mesh": 0
        }
    ],
    "samplers": [
        {},
        {},
        {}
    ],
    "scenes": [
        {
            "nodes": [
                0
            ]
        }
    ],
    "textures": [
        {
            "source": 0,
            "sampler": 0
        },
        {
            "source": 1,
            "sampler": 1
        },
        {
            "source": 2,
            "sampler": 2
        }
    ],
    "scene": 0
}