{
    "asset": {
        "version": "2.0",
        "generator": "Open Asset Import Library (assimp v6.0.44188438)"
    },
    "extensionsUsed": [
        "KHR_materials_specular",
        "KHR_materials_volume",
        "FB_ngon_encoding"
    ],
    "accessors": [
        {
            "bufferView": 0,
            "byteOffset": 0,
            "componentType": 5126,
            "count": 449,
            "type": "VEC3",
            "max": [
                2347.476318359375,
                -979.8436889648438,
                171.1517791748047
            ],
            "min": [
                2.2250738585072014e-308,
                -1044.5142822265625,
                2.2250738585072014e-308
            ]
        },
        {
            "bufferView": 1,
            "byteOffset": 0,
            "componentType": 5126,
            "count": 449,
            "type": "VEC3",
            "max": [
                0.9271028637886047,
                0.9281992316246033,
                0.999984622001648
            ],
            "min": [
                -0.9254776835441589,
                -0.9856333136558533,
                -0.999984622001648
            ]
        },
        {
            "bufferView": 2,
            "byteOffset": 0,
            "componentType": 5126,
            "count": 449,
            "type": "VEC3",
            "max": [
                0.9282063841819763,
                0.9461241364479065,
                0.9999923706054688
            ],
            "min": [
                -0.994114875793457,
                -0.9654926061630249,
                -0.9996945858001709
            ]
        },
        {
            "bufferView": 3,
            "byteOffset": 0,
            "componentType": 5126,
            "count": 449,
            "type": "VEC2",
            "max": [
                0.96435546875,
                0.92138671875
            ],
            "min": [
                2.2250738585072014e-308,
                -0.0185546875
            ]
        },
        {
            "bufferView": 4,
            "byteOffset": 0,
            "componentType": 5126,
            "count": 449,
            "type": "VEC2",
            "max": [
                0.9921875,
                0.9921875
            ],
            "min": [
                2.2250738585072014e-308,
                2.2250738585072014e-308
            ]
        },
        {
            "bufferView": 5,
            "byteOffset": 0,
            "componentType": 5125,
            "count": 1332,
            "type": "SCALAR",
            "max": [
                448
            ],
            "min": [
                0
            ]
        }
    ],
    "buffers": [
        {
            "byteLength": 28676,
            "uri": "Bistro_Research_Exterior_paris_building_05_42__5241.bin"
        }
    ],
    "bufferViews": [
        {
            "buffer": 0,
            "byteOffset": 0,
            "byteLength": 5388,
            "target": 34962
        },
        {
            "buffer": 0,
            "byteOffset": 5388,
            "byteLength": 5388,
            "target": 34962
        },
        {
            "buffer": 0,
            "byteOffset": 10776,
            "byteLength": 5388,
            "target": 34962
        },
        {
            "buffer": 0,
            "byteOffset": 16164,
            "byteLength": 3592,
            "target": 34962
        },
        {
            "buffer": 0,
            "byteOffset": 19756,
            "byteLength": 3592,
            "target": 34962
        },
        {
            "buffer": 0,
            "byteOffset": 23348,
            "byteLength": 5328,
            "target": 34963
        }
    ],
    "images": [
        {
            "uri": "Textures\\MASTER_Black_Metal_BaseColor.dds"
        },
        {
            "uri": "Textures\\MASTER_Black_Metal_Normal.dds"
        },
        {
            "uri": "Textures\\MASTER_Black_Metal_Specular.dds"
        }
    ],
    "materials": [
        {
            "name": "MASTER_Black_Metal",
            "pbrMetallicRoughness": {
                "baseColorTexture": {
                    "index": 0
                },
                "metallicFactor": 0.0,
                "roughnessFactor": 0.5527864098548889
            },
            "normalTexture": {
                "index": 1
            },
            "extensions": {
                "KHR_materials_specular": {
                    "specularFactor": 1.0,
                    "specularColorFactor": [
                        0.5,
                        0.5,
                        0.5
                    ],
                    "specularTexture": {
                        "index": 2
                    }
                }
            }
        }
    ],
    "meshes": [
        {
            "name": "Bistro_Research_Exterior_paris_building_05_42__5241",
            "primitives": [
                {
                    "mode": 4,
                    "material": 0,
                    "indices": 5,
                    "attributes": {
                        "POSITION": 0,
                        "NORMAL": 1,
                        "TANGENT": 2,
                        "TEXCOORD_0": 3,
                        "TEXCOORD_1": 4
                    }
                }
            ]
        }
    ],
    "nodes": [
        {
            "name": "Bistro_Research_Exterior_paris_building_05_42__5241",
            "mesh": 0
        }
    ],
    "samplers": [
        {},
        {},
        {}
    ],
    "scenes": [
        {
            "nodes": [
                0
            ]
        }
    ],
    "textures": [
        {
            "source": 0,
            "sampler": 0
        },
        {
            "source": 1,
            "sampler": 1
        },
        {
            "source": 2,
            "sampler": 2
        }
    ],
    "scene": 0
}