{
    "asset": {
        "version": "2.0",
        "generator": "Open Asset Import Library (assimp v6.0.44188438)"
    },
    "extensionsUsed": [
        "KHR_materials_specular",
        "KHR_materials_volume",
        "FB_ngon_encoding"
    ],
    "accessors": [
        {
            "bufferView": 0,
            "byteOffset": 0,
            "componentType": 5126,
            "count": 723,
            "type": "VEC3",
            "max": [
                1076.959716796875,
                -539.192626953125,
                150.59950256347656
            ],
            "min": [
                2.2250738585072014e-308,
                -640.005126953125,
                2.2250738585072014e-308
            ]
        },
        {
            "bufferView": 1,
            "byteOffset": 0,
            "componentType": 5126,
            "count": 723,
            "type": "VEC3",
            "max": [
                0.9991730451583862,
                0.9950391054153442,
                0.9744443297386169
            ],
            "min": [
                -0.9986340999603271,
                -0.9944074153900146,
                -0.8277947306632996
            ]
        },
        {
            "bufferView": 2,
            "byteOffset": 0,
            "componentType": 5126,
            "count": 723,
            "type": "VEC3",
            "max": [
                0.9995685815811157,
                0.9999288320541382,
                0.9745145440101624
            ],
            "min": [
                -0.9998785257339478,
                -0.9999396800994873,
                -0.9899002909660339
            ]
        },
        {
            "bufferView": 3,
            "byteOffset": 0,
            "componentType": 5126,
            "count": 723,
            "type": "VEC2",
            "max": [
                1.001953125,
                1.001434326171875
            ],
            "min": [
                0.0,
                0.0
            ]
        },
        {
            "bufferView": 4,
            "byteOffset": 0,
            "componentType": 5126,
            "count": 723,
            "type": "VEC2",
            "max": [
                0.99072265625,
                0.9921875
            ],
            "min": [
                2.2250738585072014e-308,
                2.2250738585072014e-308
            ]
        },
        {
            "bufferView": 5,
            "byteOffset": 0,
            "componentType": 5125,
            "count": 1905,
            "type": "SCALAR",
            "max": [
                722
            ],
            "min": [
                0
            ]
        }
    ],
    "buffers": [
        {
            "byteLength": 45216,
            "uri": "Bistro_Research_Exterior_bux_hedge_ball_small_3955.bin"
        }
    ],
    "bufferViews": [
        {
            "buffer": 0,
            "byteOffset": 0,
            "byteLength": 8676,
            "target": 34962
        },
        {
            "buffer": 0,
            "byteOffset": 8676,
            "byteLength": 8676,
            "target": 34962
        },
        {
            "buffer": 0,
            "byteOffset": 17352,
            "byteLength": 8676,
            "target": 34962
        },
        {
            "buffer": 0,
            "byteOffset": 26028,
            "byteLength": 5784,
            "target": 34962
        },
        {
            "buffer": 0,
            "byteOffset": 31812,
            "byteLength": 5784,
            "target": 34962
        },
        {
            "buffer": 0,
            "byteOffset": 37596,
            "byteLength": 7620,
            "target": 34963
        }
    ],
    "images": [
        {
            "uri": "Textures\\Foliage_Bux_Hedges46_BaseColor.dds"
        },
        {
            "uri": "Textures\\Foliage_Bux_Hedges46_Normal.dds"
        },
        {
            "uri": "Textures\\Foliage_Bux_Hedges46_Specular.dds"
        }
    ],
    "materials": [
        {
            "name": "Foliage_Bux_Hedges46.DoubleSided",
            "pbrMetallicRoughness": {
                "baseColorTexture": {
                    "index": 0
                },
                "metallicFactor": 0.0,
                "roughnessFactor": 0.5527864098548889
            },
            "normalTexture": {
                "index": 1
            },
            "extensions": {
                "KHR_materials_specular": {
                    "specularFactor": 1.0,
                    "specularColorFactor": [
                        0.5,
                        0.5,
                        0.5
                    ],
                    "specularTexture": {
                        "index": 2
                    }
                }
            }
        }
    ],
    "meshes": [
        {
            "name": "Bistro_Research_Exterior_bux_hedge_ball_small_3955",
            "primitives": [
                {
                    "mode": 4,
                    "material": 0,
                    "indices": 5,
                    "attributes": {
                        "POSITION": 0,
                        "NORMAL": 1,
                        "TANGENT": 2,
                        "TEXCOORD_0": 3,
                        "TEXCOORD_1": 4
                    }
                }
            ]
        }
    ],
    "nodes": [
        {
            "name": "Bistro_Research_Exterior_bux_hedge_ball_small_3955",
            "mesh": 0
        }
    ],
    "samplers": [
        {},
        {},
        {}
    ],
    "scenes": [
        {
            "nodes": [
                0
            ]
        }
    ],
    "textures": [
        {
            "source": 0,
            "sampler": 0
        },
        {
            "source": 1,
            "sampler": 1
        },
        {
            "source": 2,
            "sampler": 2
        }
    ],
    "scene": 0
}