{
    "asset": {
        "version": "2.0",
        "generator": "Open Asset Import Library (assimp v6.0.44188438)"
    },
    "extensionsUsed": [
        "KHR_materials_specular",
        "KHR_materials_volume",
        "FB_ngon_encoding"
    ],
    "accessors": [
        {
            "bufferView": 0,
            "byteOffset": 0,
            "componentType": 5126,
            "count": 1640,
            "type": "VEC3",
            "max": [
                233.34201049804688,
                1002.3154296875,
                256.29278564453125
            ],
            "min": [
                2.2250738585072014e-308,
                2.2250738585072014e-308,
                2.2250738585072014e-308
            ]
        },
        {
            "bufferView": 1,
            "byteOffset": 0,
            "componentType": 5126,
            "count": 1640,
            "type": "VEC3",
            "max": [
                0.9869124889373779,
                0.9712715148925781,
                0.999984622001648
            ],
            "min": [
                -0.9871147274971008,
                -0.9665540456771851,
                -0.999984622001648
            ]
        },
        {
            "bufferView": 2,
            "byteOffset": 0,
            "componentType": 5126,
            "count": 1640,
            "type": "VEC3",
            "max": [
                0.9598062038421631,
                0.9869163632392883,
                0.9999924898147583
            ],
            "min": [
                -0.9597388505935669,
                -0.987120509147644,
                -0.9999924898147583
            ]
        },
        {
            "bufferView": 3,
            "byteOffset": 0,
            "componentType": 5126,
            "count": 1640,
            "type": "VEC2",
            "max": [
                0.8759765625,
                0.80810546875
            ],
            "min": [
                2.2250738585072014e-308,
                2.2250738585072014e-308
            ]
        },
        {
            "bufferView": 4,
            "byteOffset": 0,
            "componentType": 5126,
            "count": 1640,
            "type": "VEC2",
            "max": [
                0.9765625,
                0.9921875
            ],
            "min": [
                2.2250738585072014e-308,
                2.2250738585072014e-308
            ]
        },
        {
            "bufferView": 5,
            "byteOffset": 0,
            "componentType": 5125,
            "count": 5472,
            "type": "SCALAR",
            "max": [
                1639
            ],
            "min": [
                0
            ]
        }
    ],
    "buffers": [
        {
            "byteLength": 107168,
            "uri": "Bistro_Research_Exterior_Paris_Building_01_paris_building_01_bottom_4753.bin"
        }
    ],
    "bufferViews": [
        {
            "buffer": 0,
            "byteOffset": 0,
            "byteLength": 19680,
            "target": 34962
        },
        {
            "buffer": 0,
            "byteOffset": 19680,
            "byteLength": 19680,
            "target": 34962
        },
        {
            "buffer": 0,
            "byteOffset": 39360,
            "byteLength": 19680,
            "target": 34962
        },
        {
            "buffer": 0,
            "byteOffset": 59040,
            "byteLength": 13120,
            "target": 34962
        },
        {
            "buffer": 0,
            "byteOffset": 72160,
            "byteLength": 13120,
            "target": 34962
        },
        {
            "buffer": 0,
            "byteOffset": 85280,
            "byteLength": 21888,
            "target": 34963
        }
    ],
    "images": [
        {
            "uri": "Textures\\MASTER_Wood_Painted3_BaseColor.dds"
        },
        {
            "uri": "Textures\\MASTER_Wood_Painted3_Normal.dds"
        },
        {
            "uri": "Textures\\MASTER_Wood_Painted3_Specular.dds"
        }
    ],
    "materials": [
        {
            "name": "MASTER_Wood_Painted3",
            "pbrMetallicRoughness": {
                "baseColorTexture": {
                    "index": 0
                },
                "metallicFactor": 0.0,
                "roughnessFactor": 0.5527864098548889
            },
            "normalTexture": {
                "index": 1
            },
            "extensions": {
                "KHR_materials_specular": {
                    "specularFactor": 1.0,
                    "specularColorFactor": [
                        0.5,
                        0.5,
                        0.5
                    ],
                    "specularTexture": {
                        "index": 2
                    }
                }
            }
        }
    ],
    "meshes": [
        {
            "name": "Bistro_Research_Exterior_Paris_Building_01_paris_building_01_bottom_4753",
            "primitives": [
                {
                    "mode": 4,
                    "material": 0,
                    "indices": 5,
                    "attributes": {
                        "POSITION": 0,
                        "NORMAL": 1,
                        "TANGENT": 2,
                        "TEXCOORD_0": 3,
                        "TEXCOORD_1": 4
                    }
                }
            ]
        }
    ],
    "nodes": [
        {
            "name": "Bistro_Research_Exterior_Paris_Building_01_paris_building_01_bottom_4753",
            "mesh": 0
        }
    ],
    "samplers": [
        {},
        {},
        {}
    ],
    "scenes": [
        {
            "nodes": [
                0
            ]
        }
    ],
    "textures": [
        {
            "source": 0,
            "sampler": 0
        },
        {
            "source": 1,
            "sampler": 1
        },
        {
            "source": 2,
            "sampler": 2
        }
    ],
    "scene": 0
}