{
    "asset": {
        "version": "2.0",
        "generator": "Open Asset Import Library (assimp v6.0.44188438)"
    },
    "extensionsUsed": [
        "KHR_materials_specular",
        "KHR_materials_volume",
        "FB_ngon_encoding"
    ],
    "accessors": [
        {
            "bufferView": 0,
            "byteOffset": 0,
            "componentType": 5126,
            "count": 5434,
            "type": "VEC3",
            "max": [
                3022.429931640625,
                4699.537109375,
                1977.1510009765625
            ],
            "min": [
                2.2250738585072014e-308,
                2.2250738585072014e-308,
                2.2250738585072014e-308
            ]
        },
        {
            "bufferView": 1,
            "byteOffset": 0,
            "componentType": 5126,
            "count": 5434,
            "type": "VEC3",
            "max": [
                0.89205002784729,
                0.999984622001648,
                0.999984622001648
            ],
            "min": [
                -0.9883189797401428,
                -0.9999843835830688,
                -0.999984622001648
            ]
        },
        {
            "bufferView": 2,
            "byteOffset": 0,
            "componentType": 5126,
            "count": 5434,
            "type": "VEC3",
            "max": [
                0.9999922513961792,
                0.9816505312919617,
                0.9999925494194031
            ],
            "min": [
                -0.999992311000824,
                -0.9996159672737122,
                -0.9999923706054688
            ]
        },
        {
            "bufferView": 3,
            "byteOffset": 0,
            "componentType": 5126,
            "count": 5434,
            "type": "VEC2",
            "max": [
                7.140625,
                4.849609375
            ],
            "min": [
                -6.140625,
                -6.10546875
            ]
        },
        {
            "bufferView": 4,
            "byteOffset": 0,
            "componentType": 5126,
            "count": 5434,
            "type": "VEC2",
            "max": [
                0.99169921875,
                0.9921913146972656
            ],
            "min": [
                2.2250738585072014e-308,
                2.2250738585072014e-308
            ]
        },
        {
            "bufferView": 5,
            "byteOffset": 0,
            "componentType": 5125,
            "count": 14307,
            "type": "SCALAR",
            "max": [
                5433
            ],
            "min": [
                0
            ]
        }
    ],
    "buffers": [
        {
            "byteLength": 339796,
            "uri": "Bistro_Research_Exterior_Paris_Building_08_paris_building_08_7___2__5423.bin"
        }
    ],
    "bufferViews": [
        {
            "buffer": 0,
            "byteOffset": 0,
            "byteLength": 65208,
            "target": 34962
        },
        {
            "buffer": 0,
            "byteOffset": 65208,
            "byteLength": 65208,
            "target": 34962
        },
        {
            "buffer": 0,
            "byteOffset": 130416,
            "byteLength": 65208,
            "target": 34962
        },
        {
            "buffer": 0,
            "byteOffset": 195624,
            "byteLength": 43472,
            "target": 34962
        },
        {
            "buffer": 0,
            "byteOffset": 239096,
            "byteLength": 43472,
            "target": 34962
        },
        {
            "buffer": 0,
            "byteOffset": 282568,
            "byteLength": 57228,
            "target": 34963
        }
    ],
    "images": [
        {
            "uri": "Textures\\MASTER_Concrete_BaseColor.dds"
        },
        {
            "uri": "Textures\\MASTER_Concrete_Normal.dds"
        },
        {
            "uri": "Textures\\MASTER_Concrete_Specular.dds"
        }
    ],
    "materials": [
        {
            "name": "MASTER_Concrete",
            "pbrMetallicRoughness": {
                "baseColorTexture": {
                    "index": 0
                },
                "metallicFactor": 0.0,
                "roughnessFactor": 0.5527864098548889
            },
            "normalTexture": {
                "index": 1
            },
            "extensions": {
                "KHR_materials_specular": {
                    "specularFactor": 1.0,
                    "specularColorFactor": [
                        0.5,
                        0.5,
                        0.5
                    ],
                    "specularTexture": {
                        "index": 2
                    }
                }
            }
        }
    ],
    "meshes": [
        {
            "name": "Bistro_Research_Exterior_Paris_Building_08_paris_building_08_7___2__5423",
            "primitives": [
                {
                    "mode": 4,
                    "material": 0,
                    "indices": 5,
                    "attributes": {
                        "POSITION": 0,
                        "NORMAL": 1,
                        "TANGENT": 2,
                        "TEXCOORD_0": 3,
                        "TEXCOORD_1": 4
                    }
                }
            ]
        }
    ],
    "nodes": [
        {
            "name": "Bistro_Research_Exterior_Paris_Building_08_paris_building_08_7___2__5423",
            "mesh": 0
        }
    ],
    "samplers": [
        {},
        {},
        {}
    ],
    "scenes": [
        {
            "nodes": [
                0
            ]
        }
    ],
    "textures": [
        {
            "source": 0,
            "sampler": 0
        },
        {
            "source": 1,
            "sampler": 1
        },
        {
            "source": 2,
            "sampler": 2
        }
    ],
    "scene": 0
}