{
    "asset": {
        "version": "2.0",
        "generator": "Open Asset Import Library (assimp v6.0.44188438)"
    },
    "extensionsUsed": [
        "KHR_materials_specular",
        "KHR_materials_volume",
        "FB_ngon_encoding"
    ],
    "accessors": [
        {
            "bufferView": 0,
            "byteOffset": 0,
            "componentType": 5126,
            "count": 505,
            "type": "VEC3",
            "max": [
                156.84999084472656,
                -1166.007080078125,
                524.688232421875
            ],
            "min": [
                -13.794753074645996,
                -1276.927490234375,
                2.2250738585072014e-308
            ]
        },
        {
            "bufferView": 1,
            "byteOffset": 0,
            "componentType": 5126,
            "count": 505,
            "type": "VEC3",
            "max": [
                0.9431769847869873,
                0.9566007852554321,
                0.999984622001648
            ],
            "min": [
                -0.9254776835441589,
                -0.37478625774383545,
                -0.999984622001648
            ]
        },
        {
            "bufferView": 2,
            "byteOffset": 0,
            "componentType": 5126,
            "count": 505,
            "type": "VEC3",
            "max": [
                0.9847739934921265,
                0.9973315000534058,
                0.8227831721305847
            ],
            "min": [
                -0.9958187341690063,
                -0.9257088303565979,
                -0.8254738450050354
            ]
        },
        {
            "bufferView": 3,
            "byteOffset": 0,
            "componentType": 5126,
            "count": 505,
            "type": "VEC2",
            "max": [
                1.1884765625,
                1.6376953125
            ],
            "min": [
                -0.1890869140625,
                2.2250738585072014e-308
            ]
        },
        {
            "bufferView": 4,
            "byteOffset": 0,
            "componentType": 5126,
            "count": 505,
            "type": "VEC2",
            "max": [
                0.9912109375,
                0.9921875
            ],
            "min": [
                2.2250738585072014e-308,
                2.2250738585072014e-308
            ]
        },
        {
            "bufferView": 5,
            "byteOffset": 0,
            "componentType": 5125,
            "count": 1050,
            "type": "SCALAR",
            "max": [
                504
            ],
            "min": [
                0
            ]
        }
    ],
    "buffers": [
        {
            "byteLength": 30460,
            "uri": "Bistro_Research_Exterior_paris_building_11_5579.bin"
        }
    ],
    "bufferViews": [
        {
            "buffer": 0,
            "byteOffset": 0,
            "byteLength": 6060,
            "target": 34962
        },
        {
            "buffer": 0,
            "byteOffset": 6060,
            "byteLength": 6060,
            "target": 34962
        },
        {
            "buffer": 0,
            "byteOffset": 12120,
            "byteLength": 6060,
            "target": 34962
        },
        {
            "buffer": 0,
            "byteOffset": 18180,
            "byteLength": 4040,
            "target": 34962
        },
        {
            "buffer": 0,
            "byteOffset": 22220,
            "byteLength": 4040,
            "target": 34962
        },
        {
            "buffer": 0,
            "byteOffset": 26260,
            "byteLength": 4200,
            "target": 34963
        }
    ],
    "images": [
        {
            "uri": "Textures\\MASTER_Concrete_Plaster_BaseColor.dds"
        },
        {
            "uri": "Textures\\MASTER_Concrete_Plaster_Normal.dds"
        },
        {
            "uri": "Textures\\MASTER_Concrete_Plaster_Specular.dds"
        }
    ],
    "materials": [
        {
            "name": "MASTER_Concrete_Plaster",
            "pbrMetallicRoughness": {
                "baseColorTexture": {
                    "index": 0
                },
                "metallicFactor": 0.0,
                "roughnessFactor": 0.5527864098548889
            },
            "normalTexture": {
                "index": 1
            },
            "extensions": {
                "KHR_materials_specular": {
                    "specularFactor": 1.0,
                    "specularColorFactor": [
                        0.5,
                        0.5,
                        0.5
                    ],
                    "specularTexture": {
                        "index": 2
                    }
                }
            }
        }
    ],
    "meshes": [
        {
            "name": "Bistro_Research_Exterior_paris_building_11_5579",
            "primitives": [
                {
                    "mode": 4,
                    "material": 0,
                    "indices": 5,
                    "attributes": {
                        "POSITION": 0,
                        "NORMAL": 1,
                        "TANGENT": 2,
                        "TEXCOORD_0": 3,
                        "TEXCOORD_1": 4
                    }
                }
            ]
        }
    ],
    "nodes": [
        {
            "name": "Bistro_Research_Exterior_paris_building_11_5579",
            "mesh": 0
        }
    ],
    "samplers": [
        {},
        {},
        {}
    ],
    "scenes": [
        {
            "nodes": [
                0
            ]
        }
    ],
    "textures": [
        {
            "source": 0,
            "sampler": 0
        },
        {
            "source": 1,
            "sampler": 1
        },
        {
            "source": 2,
            "sampler": 2
        }
    ],
    "scene": 0
}