{
    "asset": {
        "version": "2.0",
        "generator": "Open Asset Import Library (assimp v6.0.44188438)"
    },
    "extensionsUsed": [
        "KHR_materials_specular",
        "KHR_materials_volume",
        "FB_ngon_encoding"
    ],
    "accessors": [
        {
            "bufferView": 0,
            "byteOffset": 0,
            "componentType": 5126,
            "count": 1023,
            "type": "VEC3",
            "max": [
                -62.50364303588867,
                1924.7591552734375,
                35.63423156738281
            ],
            "min": [
                -528.7476806640625,
                2.2250738585072014e-308,
                2.2250738585072014e-308
            ]
        },
        {
            "bufferView": 1,
            "byteOffset": 0,
            "componentType": 5126,
            "count": 1023,
            "type": "VEC3",
            "max": [
                0.9713650345802307,
                0.9684464931488037,
                0.9620130658149719
            ],
            "min": [
                -0.9661788940429688,
                -0.9692125916481018,
                -0.8182874917984009
            ]
        },
        {
            "bufferView": 2,
            "byteOffset": 0,
            "componentType": 5126,
            "count": 1023,
            "type": "VEC3",
            "max": [
                0.9332567453384399,
                0.9816687107086182,
                0.9692603945732117
            ],
            "min": [
                -0.9974969625473022,
                -0.9969108700752258,
                -0.9908668994903564
            ]
        },
        {
            "bufferView": 3,
            "byteOffset": 0,
            "componentType": 5126,
            "count": 1023,
            "type": "VEC2",
            "max": [
                0.994140625,
                1.89794921875
            ],
            "min": [
                2.2250738585072014e-308,
                2.2250738585072014e-308
            ]
        },
        {
            "bufferView": 4,
            "byteOffset": 0,
            "componentType": 5126,
            "count": 1023,
            "type": "VEC2",
            "max": [
                0.98828125,
                0.9921875
            ],
            "min": [
                2.2250738585072014e-308,
                2.2250738585072014e-308
            ]
        },
        {
            "bufferView": 5,
            "byteOffset": 0,
            "componentType": 5125,
            "count": 4224,
            "type": "SCALAR",
            "max": [
                1022
            ],
            "min": [
                0
            ]
        }
    ],
    "buffers": [
        {
            "byteLength": 70092,
            "uri": "Bistro_Research_Exterior_Paris_Street_6245.bin"
        }
    ],
    "bufferViews": [
        {
            "buffer": 0,
            "byteOffset": 0,
            "byteLength": 12276,
            "target": 34962
        },
        {
            "buffer": 0,
            "byteOffset": 12276,
            "byteLength": 12276,
            "target": 34962
        },
        {
            "buffer": 0,
            "byteOffset": 24552,
            "byteLength": 12276,
            "target": 34962
        },
        {
            "buffer": 0,
            "byteOffset": 36828,
            "byteLength": 8184,
            "target": 34962
        },
        {
            "buffer": 0,
            "byteOffset": 45012,
            "byteLength": 8184,
            "target": 34962
        },
        {
            "buffer": 0,
            "byteOffset": 53196,
            "byteLength": 16896,
            "target": 34963
        }
    ],
    "images": [
        {
            "uri": "Textures\\Pavement_Curbstones_BaseColor.dds"
        },
        {
            "uri": "Textures\\Pavement_Curbstones_Normal.dds"
        },
        {
            "uri": "Textures\\Pavement_Curbstones_Specular.dds"
        }
    ],
    "materials": [
        {
            "name": "Pavement_Curbstones",
            "pbrMetallicRoughness": {
                "baseColorTexture": {
                    "index": 0
                },
                "metallicFactor": 0.0,
                "roughnessFactor": 0.5527864098548889
            },
            "normalTexture": {
                "index": 1
            },
            "extensions": {
                "KHR_materials_specular": {
                    "specularFactor": 1.0,
                    "specularColorFactor": [
                        0.5,
                        0.5,
                        0.5
                    ],
                    "specularTexture": {
                        "index": 2
                    }
                }
            }
        }
    ],
    "meshes": [
        {
            "name": "Bistro_Research_Exterior_Paris_Street_6245",
            "primitives": [
                {
                    "mode": 4,
                    "material": 0,
                    "indices": 5,
                    "attributes": {
                        "POSITION": 0,
                        "NORMAL": 1,
                        "TANGENT": 2,
                        "TEXCOORD_0": 3,
                        "TEXCOORD_1": 4
                    }
                }
            ]
        }
    ],
    "nodes": [
        {
            "name": "Bistro_Research_Exterior_Paris_Street_6245",
            "mesh": 0
        }
    ],
    "samplers": [
        {},
        {},
        {}
    ],
    "scenes": [
        {
            "nodes": [
                0
            ]
        }
    ],
    "textures": [
        {
            "source": 0,
            "sampler": 0
        },
        {
            "source": 1,
            "sampler": 1
        },
        {
            "source": 2,
            "sampler": 2
        }
    ],
    "scene": 0
}