{
    "asset": {
        "version": "2.0",
        "generator": "Open Asset Import Library (assimp v6.0.44188438)"
    },
    "extensionsUsed": [
        "KHR_materials_specular",
        "KHR_materials_volume",
        "FB_ngon_encoding"
    ],
    "accessors": [
        {
            "bufferView": 0,
            "byteOffset": 0,
            "componentType": 5126,
            "count": 11421,
            "type": "VEC3",
            "max": [
                2889.7451171875,
                -2155.04833984375,
                1371.8897705078125
            ],
            "min": [
                2.2250738585072014e-308,
                -2669.646484375,
                2.2250738585072014e-308
            ]
        },
        {
            "bufferView": 1,
            "byteOffset": 0,
            "componentType": 5126,
            "count": 11421,
            "type": "VEC3",
            "max": [
                0.999796986579895,
                0.9972280263900757,
                0.999984622001648
            ],
            "min": [
                -0.9966185688972473,
                -0.9951457381248474,
                -0.999984622001648
            ]
        },
        {
            "bufferView": 2,
            "byteOffset": 0,
            "componentType": 5126,
            "count": 11421,
            "type": "VEC3",
            "max": [
                0.9982601404190063,
                0.9987480640411377,
                0.9999924898147583
            ],
            "min": [
                -0.9995696544647217,
                -0.9996520280838013,
                -0.9999924302101135
            ]
        },
        {
            "bufferView": 3,
            "byteOffset": 0,
            "componentType": 5126,
            "count": 11421,
            "type": "VEC2",
            "max": [
                2.490234375,
                1.865234375
            ],
            "min": [
                -1.2431640625,
                -1.556640625
            ]
        },
        {
            "bufferView": 4,
            "byteOffset": 0,
            "componentType": 5126,
            "count": 11421,
            "type": "VEC2",
            "max": [
                0.9921875,
                0.9921913146972656
            ],
            "min": [
                2.2250738585072014e-308,
                2.2250738585072014e-308
            ]
        },
        {
            "bufferView": 5,
            "byteOffset": 0,
            "componentType": 5125,
            "count": 27258,
            "type": "SCALAR",
            "max": [
                11420
            ],
            "min": [
                0
            ]
        }
    ],
    "buffers": [
        {
            "byteLength": 702924,
            "uri": "Bistro_Research_Exterior_paris_building_10_12__5513.bin"
        }
    ],
    "bufferViews": [
        {
            "buffer": 0,
            "byteOffset": 0,
            "byteLength": 137052,
            "target": 34962
        },
        {
            "buffer": 0,
            "byteOffset": 137052,
            "byteLength": 137052,
            "target": 34962
        },
        {
            "buffer": 0,
            "byteOffset": 274104,
            "byteLength": 137052,
            "target": 34962
        },
        {
            "buffer": 0,
            "byteOffset": 411156,
            "byteLength": 91368,
            "target": 34962
        },
        {
            "buffer": 0,
            "byteOffset": 502524,
            "byteLength": 91368,
            "target": 34962
        },
        {
            "buffer": 0,
            "byteOffset": 593892,
            "byteLength": 109032,
            "target": 34963
        }
    ],
    "images": [
        {
            "uri": "Textures\\MASTER_Wood_Painted_Green_BaseColor.dds"
        },
        {
            "uri": "Textures\\MASTER_Wood_Painted_Green_Normal.dds"
        },
        {
            "uri": "Textures\\MASTER_Wood_Painted_Green_Specular.dds"
        }
    ],
    "materials": [
        {
            "name": "MASTER_Wood_Painted_Green",
            "pbrMetallicRoughness": {
                "baseColorTexture": {
                    "index": 0
                },
                "metallicFactor": 0.0,
                "roughnessFactor": 0.5527864098548889
            },
            "normalTexture": {
                "index": 1
            },
            "extensions": {
                "KHR_materials_specular": {
                    "specularFactor": 1.0,
                    "specularColorFactor": [
                        0.5,
                        0.5,
                        0.5
                    ],
                    "specularTexture": {
                        "index": 2
                    }
                }
            }
        }
    ],
    "meshes": [
        {
            "name": "Bistro_Research_Exterior_paris_building_10_12__5513",
            "primitives": [
                {
                    "mode": 4,
                    "material": 0,
                    "indices": 5,
                    "attributes": {
                        "POSITION": 0,
                        "NORMAL": 1,
                        "TANGENT": 2,
                        "TEXCOORD_0": 3,
                        "TEXCOORD_1": 4
                    }
                }
            ]
        }
    ],
    "nodes": [
        {
            "name": "Bistro_Research_Exterior_paris_building_10_12__5513",
            "mesh": 0
        }
    ],
    "samplers": [
        {},
        {},
        {}
    ],
    "scenes": [
        {
            "nodes": [
                0
            ]
        }
    ],
    "textures": [
        {
            "source": 0,
            "sampler": 0
        },
        {
            "source": 1,
            "sampler": 1
        },
        {
            "source": 2,
            "sampler": 2
        }
    ],
    "scene": 0
}