{
    "asset": {
        "version": "2.0",
        "generator": "Open Asset Import Library (assimp v6.0.44188438)"
    },
    "extensionsUsed": [
        "KHR_materials_specular",
        "KHR_materials_volume",
        "FB_ngon_encoding"
    ],
    "accessors": [
        {
            "bufferView": 0,
            "byteOffset": 0,
            "componentType": 5126,
            "count": 111,
            "type": "VEC3",
            "max": [
                55.854957580566406,
                54.77114486694336,
                22.90744400024414
            ],
            "min": [
                -55.347679138183594,
                -56.00398254394531,
                2.2250738585072014e-308
            ]
        },
        {
            "bufferView": 1,
            "byteOffset": 0,
            "componentType": 5126,
            "count": 111,
            "type": "VEC3",
            "max": [
                0.7104488611221313,
                0.7110186219215393,
                0.999984622001648
            ],
            "min": [
                -0.7108870148658752,
                -0.7142888307571411,
                2.2250738585072014e-308
            ]
        },
        {
            "bufferView": 2,
            "byteOffset": 0,
            "componentType": 5126,
            "count": 111,
            "type": "VEC3",
            "max": [
                0.9997508525848389,
                0.9999411106109619,
                0.16226600110530853
            ],
            "min": [
                -0.9999815225601196,
                -0.9999909400939941,
                -0.16425801813602448
            ]
        },
        {
            "bufferView": 3,
            "byteOffset": 0,
            "componentType": 5126,
            "count": 111,
            "type": "VEC2",
            "max": [
                1.123046875,
                0.166015625
            ],
            "min": [
                -0.5927734375,
                2.2250738585072014e-308
            ]
        },
        {
            "bufferView": 4,
            "byteOffset": 0,
            "componentType": 5126,
            "count": 111,
            "type": "VEC2",
            "max": [
                1.123046875,
                0.166015625
            ],
            "min": [
                -0.5927734375,
                2.2250738585072014e-308
            ]
        },
        {
            "bufferView": 5,
            "byteOffset": 0,
            "componentType": 5125,
            "count": 432,
            "type": "SCALAR",
            "max": [
                110
            ],
            "min": [
                0
            ]
        }
    ],
    "buffers": [
        {
            "byteLength": 7500,
            "uri": "Manhole6_0.bin"
        }
    ],
    "bufferViews": [
        {
            "buffer": 0,
            "byteOffset": 0,
            "byteLength": 1332,
            "target": 34962
        },
        {
            "buffer": 0,
            "byteOffset": 1332,
            "byteLength": 1332,
            "target": 34962
        },
        {
            "buffer": 0,
            "byteOffset": 2664,
            "byteLength": 1332,
            "target": 34962
        },
        {
            "buffer": 0,
            "byteOffset": 3996,
            "byteLength": 888,
            "target": 34962
        },
        {
            "buffer": 0,
            "byteOffset": 4884,
            "byteLength": 888,
            "target": 34962
        },
        {
            "buffer": 0,
            "byteOffset": 5772,
            "byteLength": 1728,
            "target": 34963
        }
    ],
    "images": [
        {
            "uri": "Textures\\Pavement_Cobblestone_Wet_BLENDSHADER_BaseColor.dds"
        },
        {
            "uri": "Textures\\Pavement_Cobblestone_Wet_BLENDSHADER_Normal.dds"
        },
        {
            "uri": "Textures\\Pavement_Cobblestone_Wet_BLENDSHADER_Specular.dds"
        }
    ],
    "materials": [
        {
            "name": "Pavement_Cobblestone_Wet_BLENDSHADER",
            "pbrMetallicRoughness": {
                "baseColorTexture": {
                    "index": 0
                },
                "metallicFactor": 0.0,
                "roughnessFactor": 0.5527864098548889
            },
            "normalTexture": {
                "index": 1
            },
            "extensions": {
                "KHR_materials_specular": {
                    "specularFactor": 1.0,
                    "specularColorFactor": [
                        0.5,
                        0.5,
                        0.5
                    ],
                    "specularTexture": {
                        "index": 2
                    }
                }
            }
        }
    ],
    "meshes": [
        {
            "name": "Manhole6",
            "primitives": [
                {
                    "mode": 4,
                    "material": 0,
                    "indices": 5,
                    "attributes": {
                        "POSITION": 0,
                        "NORMAL": 1,
                        "TANGENT": 2,
                        "TEXCOORD_0": 3,
                        "TEXCOORD_1": 4
                    }
                }
            ]
        }
    ],
    "nodes": [
        {
            "name": "Manhole6",
            "mesh": 0
        }
    ],
    "samplers": [
        {},
        {},
        {}
    ],
    "scenes": [
        {
            "nodes": [
                0
            ]
        }
    ],
    "textures": [
        {
            "source": 0,
            "sampler": 0
        },
        {
            "source": 1,
            "sampler": 1
        },
        {
            "source": 2,
            "sampler": 2
        }
    ],
    "scene": 0
}