{
    "asset": {
        "version": "2.0",
        "generator": "Open Asset Import Library (assimp v6.0.44188438)"
    },
    "extensionsUsed": [
        "KHR_materials_specular",
        "KHR_materials_volume",
        "FB_ngon_encoding"
    ],
    "accessors": [
        {
            "bufferView": 0,
            "byteOffset": 0,
            "componentType": 5126,
            "count": 544,
            "type": "VEC3",
            "max": [
                3.5518527030944824,
                454.7587585449219,
                -23.381772994995117
            ],
            "min": [
                -3.7633538246154785,
                -438.384521484375,
                -73.50987243652344
            ]
        },
        {
            "bufferView": 1,
            "byteOffset": 0,
            "componentType": 5126,
            "count": 544,
            "type": "VEC3",
            "max": [
                0.9850260019302368,
                0.9949178695678711,
                0.9000762701034546
            ],
            "min": [
                -0.984298586845398,
                -0.9949609637260437,
                -0.996253490447998
            ]
        },
        {
            "bufferView": 2,
            "byteOffset": 0,
            "componentType": 5126,
            "count": 544,
            "type": "VEC3",
            "max": [
                0.876943826675415,
                0.9782888889312744,
                0.998431921005249
            ],
            "min": [
                -0.36006712913513184,
                -0.9439630508422852,
                -0.9979565739631653
            ]
        },
        {
            "bufferView": 3,
            "byteOffset": 0,
            "componentType": 5126,
            "count": 544,
            "type": "VEC2",
            "max": [
                0.9912109375,
                0.31982421875
            ],
            "min": [
                2.2250738585072014e-308,
                2.2250738585072014e-308
            ]
        },
        {
            "bufferView": 4,
            "byteOffset": 0,
            "componentType": 5126,
            "count": 544,
            "type": "VEC2",
            "max": [
                0.93994140625,
                0.9921875
            ],
            "min": [
                2.2250738585072014e-308,
                2.2250738585072014e-308
            ]
        },
        {
            "bufferView": 5,
            "byteOffset": 0,
            "componentType": 5125,
            "count": 2760,
            "type": "SCALAR",
            "max": [
                543
            ],
            "min": [
                0
            ]
        }
    ],
    "buffers": [
        {
            "byteLength": 39328,
            "uri": "StringLight_Wind_19_0.bin"
        }
    ],
    "bufferViews": [
        {
            "buffer": 0,
            "byteOffset": 0,
            "byteLength": 6528,
            "target": 34962
        },
        {
            "buffer": 0,
            "byteOffset": 6528,
            "byteLength": 6528,
            "target": 34962
        },
        {
            "buffer": 0,
            "byteOffset": 13056,
            "byteLength": 6528,
            "target": 34962
        },
        {
            "buffer": 0,
            "byteOffset": 19584,
            "byteLength": 4352,
            "target": 34962
        },
        {
            "buffer": 0,
            "byteOffset": 23936,
            "byteLength": 4352,
            "target": 34962
        },
        {
            "buffer": 0,
            "byteOffset": 28288,
            "byteLength": 11040,
            "target": 34963
        }
    ],
    "images": [
        {
            "uri": "Textures\\Paris_StringLights_01_Orange_Color_Emissive_BaseColor.dds"
        },
        {
            "uri": "Textures\\Paris_StringLights_01_Orange_Color_Emissive_Normal.dds"
        },
        {
            "uri": "Textures\\Paris_StringLights_01_Orange_Color_Emissive_Emissive.dds"
        },
        {
            "uri": "Textures\\Paris_StringLights_01_Orange_Color_Emissive_Specular.dds"
        }
    ],
    "materials": [
        {
            "name": "Paris_StringLights_01_Orange_Color_Emissive",
            "pbrMetallicRoughness": {
                "baseColorTexture": {
                    "index": 0
                },
                "metallicFactor": 0.0,
                "roughnessFactor": 0.5527864098548889
            },
            "normalTexture": {
                "index": 1
            },
            "emissiveTexture": {
                "index": 2
            },
            "emissiveFactor": [
                0.5,
                0.5,
                0.5
            ],
            "extensions": {
                "KHR_materials_specular": {
                    "specularFactor": 1.0,
                    "specularColorFactor": [
                        0.5,
                        0.5,
                        0.5
                    ],
                    "specularTexture": {
                        "index": 3
                    }
                }
            }
        }
    ],
    "meshes": [
        {
            "name": "StringLight_Wind_19",
            "primitives": [
                {
                    "mode": 4,
                    "material": 0,
                    "indices": 5,
                    "attributes": {
                        "POSITION": 0,
                        "NORMAL": 1,
                        "TANGENT": 2,
                        "TEXCOORD_0": 3,
                        "TEXCOORD_1": 4
                    }
                }
            ]
        }
    ],
    "nodes": [
        {
            "name": "StringLight_Wind_19",
            "mesh": 0
        }
    ],
    "samplers": [
        {},
        {},
        {},
        {}
    ],
    "scenes": [
        {
            "nodes": [
                0
            ]
        }
    ],
    "textures": [
        {
            "source": 0,
            "sampler": 0
        },
        {
            "source": 1,
            "sampler": 1
        },
        {
            "source": 2,
            "sampler": 2
        },
        {
            "source": 3,
            "sampler": 3
        }
    ],
    "scene": 0
}