{
    "asset": {
        "version": "2.0",
        "generator": "Open Asset Import Library (assimp v6.0.44188438)"
    },
    "extensionsUsed": [
        "KHR_materials_specular",
        "KHR_materials_volume",
        "FB_ngon_encoding"
    ],
    "accessors": [
        {
            "bufferView": 0,
            "byteOffset": 0,
            "componentType": 5126,
            "count": 136,
            "type": "VEC3",
            "max": [
                3.5499215126037598,
                -47.992374420166016,
                -73.2461166381836
            ],
            "min": [
                -3.7586092948913574,
                -55.31764221191406,
                -80.85479736328125
            ]
        },
        {
            "bufferView": 1,
            "byteOffset": 0,
            "componentType": 5126,
            "count": 136,
            "type": "VEC3",
            "max": [
                0.9826404452323914,
                0.9850773215293884,
                0.8161823153495789
            ],
            "min": [
                -0.984298586845398,
                -0.986546516418457,
                -0.9993700385093689
            ]
        },
        {
            "bufferView": 2,
            "byteOffset": 0,
            "componentType": 5126,
            "count": 136,
            "type": "VEC3",
            "max": [
                0.8215039968490601,
                0.9268591403961182,
                0.9893866181373596
            ],
            "min": [
                -0.3588603138923645,
                -0.8886634111404419,
                -0.9895694255828857
            ]
        },
        {
            "bufferView": 3,
            "byteOffset": 0,
            "componentType": 5126,
            "count": 136,
            "type": "VEC2",
            "max": [
                0.9912109375,
                0.31982421875
            ],
            "min": [
                2.2250738585072014e-308,
                2.2250738585072014e-308
            ]
        },
        {
            "bufferView": 4,
            "byteOffset": 0,
            "componentType": 5126,
            "count": 136,
            "type": "VEC2",
            "max": [
                0.53173828125,
                0.9921875
            ],
            "min": [
                2.2250738585072014e-308,
                2.2250738585072014e-308
            ]
        },
        {
            "bufferView": 5,
            "byteOffset": 0,
            "componentType": 5125,
            "count": 690,
            "type": "SCALAR",
            "max": [
                135
            ],
            "min": [
                0
            ]
        }
    ],
    "buffers": [
        {
            "byteLength": 9832,
            "uri": "StringLight_Wind_15_3.bin"
        }
    ],
    "bufferViews": [
        {
            "buffer": 0,
            "byteOffset": 0,
            "byteLength": 1632,
            "target": 34962
        },
        {
            "buffer": 0,
            "byteOffset": 1632,
            "byteLength": 1632,
            "target": 34962
        },
        {
            "buffer": 0,
            "byteOffset": 3264,
            "byteLength": 1632,
            "target": 34962
        },
        {
            "buffer": 0,
            "byteOffset": 4896,
            "byteLength": 1088,
            "target": 34962
        },
        {
            "buffer": 0,
            "byteOffset": 5984,
            "byteLength": 1088,
            "target": 34962
        },
        {
            "buffer": 0,
            "byteOffset": 7072,
            "byteLength": 2760,
            "target": 34963
        }
    ],
    "images": [
        {
            "uri": "Textures\\Paris_StringLights_01_Pink_Color_Emissive_BaseColor.dds"
        },
        {
            "uri": "Textures\\Paris_StringLights_01_Pink_Color_Emissive_Normal.dds"
        },
        {
            "uri": "Textures\\Paris_StringLights_01_Pink_Color_Emissive_Emissive.dds"
        },
        {
            "uri": "Textures\\Paris_StringLights_01_Pink_Color_Emissive_Specular.dds"
        }
    ],
    "materials": [
        {
            "name": "Paris_StringLights_01_Pink_Color_Emissive",
            "pbrMetallicRoughness": {
                "baseColorTexture": {
                    "index": 0
                },
                "metallicFactor": 0.0,
                "roughnessFactor": 0.5527864098548889
            },
            "normalTexture": {
                "index": 1
            },
            "emissiveTexture": {
                "index": 2
            },
            "emissiveFactor": [
                0.5,
                0.5,
                0.5
            ],
            "extensions": {
                "KHR_materials_specular": {
                    "specularFactor": 1.0,
                    "specularColorFactor": [
                        0.5,
                        0.5,
                        0.5
                    ],
                    "specularTexture": {
                        "index": 3
                    }
                }
            }
        }
    ],
    "meshes": [
        {
            "name": "StringLight_Wind_15",
            "primitives": [
                {
                    "mode": 4,
                    "material": 0,
                    "indices": 5,
                    "attributes": {
                        "POSITION": 0,
                        "NORMAL": 1,
                        "TANGENT": 2,
                        "TEXCOORD_0": 3,
                        "TEXCOORD_1": 4
                    }
                }
            ]
        }
    ],
    "nodes": [
        {
            "name": "StringLight_Wind_15",
            "mesh": 0
        }
    ],
    "samplers": [
        {},
        {},
        {},
        {}
    ],
    "scenes": [
        {
            "nodes": [
                0
            ]
        }
    ],
    "textures": [
        {
            "source": 0,
            "sampler": 0
        },
        {
            "source": 1,
            "sampler": 1
        },
        {
            "source": 2,
            "sampler": 2
        },
        {
            "source": 3,
            "sampler": 3
        }
    ],
    "scene": 0
}