{
    "asset": {
        "version": "2.0",
        "generator": "Open Asset Import Library (assimp v6.0.44188438)"
    },
    "extensionsUsed": [
        "KHR_materials_specular",
        "KHR_materials_volume",
        "FB_ngon_encoding"
    ],
    "accessors": [
        {
            "bufferView": 0,
            "byteOffset": 0,
            "componentType": 5126,
            "count": 136,
            "type": "VEC3",
            "max": [
                3.551614284515381,
                -177.79586791992188,
                -65.84513092041016
            ],
            "min": [
                -3.7633538246154785,
                -185.1846160888672,
                -73.50987243652344
            ]
        },
        {
            "bufferView": 1,
            "byteOffset": 0,
            "componentType": 5126,
            "count": 136,
            "type": "VEC3",
            "max": [
                0.982579231262207,
                0.9949178695678711,
                0.835809051990509
            ],
            "min": [
                -0.9841169714927673,
                -0.9948378801345825,
                -0.994433581829071
            ]
        },
        {
            "bufferView": 2,
            "byteOffset": 0,
            "componentType": 5126,
            "count": 136,
            "type": "VEC3",
            "max": [
                0.7881913185119629,
                0.9468671083450317,
                0.9960116744041443
            ],
            "min": [
                -0.36006709933280945,
                -0.9107851982116699,
                -0.9971396327018738
            ]
        },
        {
            "bufferView": 3,
            "byteOffset": 0,
            "componentType": 5126,
            "count": 136,
            "type": "VEC2",
            "max": [
                0.9912109375,
                0.31982421875
            ],
            "min": [
                2.2250738585072014e-308,
                2.2250738585072014e-308
            ]
        },
        {
            "bufferView": 4,
            "byteOffset": 0,
            "componentType": 5126,
            "count": 136,
            "type": "VEC2",
            "max": [
                0.75048828125,
                0.9921875
            ],
            "min": [
                2.2250738585072014e-308,
                2.2250738585072014e-308
            ]
        },
        {
            "bufferView": 5,
            "byteOffset": 0,
            "componentType": 5125,
            "count": 690,
            "type": "SCALAR",
            "max": [
                135
            ],
            "min": [
                0
            ]
        }
    ],
    "buffers": [
        {
            "byteLength": 9832,
            "uri": "StringLight_Wind_20_0.bin"
        }
    ],
    "bufferViews": [
        {
            "buffer": 0,
            "byteOffset": 0,
            "byteLength": 1632,
            "target": 34962
        },
        {
            "buffer": 0,
            "byteOffset": 1632,
            "byteLength": 1632,
            "target": 34962
        },
        {
            "buffer": 0,
            "byteOffset": 3264,
            "byteLength": 1632,
            "target": 34962
        },
        {
            "buffer": 0,
            "byteOffset": 4896,
            "byteLength": 1088,
            "target": 34962
        },
        {
            "buffer": 0,
            "byteOffset": 5984,
            "byteLength": 1088,
            "target": 34962
        },
        {
            "buffer": 0,
            "byteOffset": 7072,
            "byteLength": 2760,
            "target": 34963
        }
    ],
    "images": [
        {
            "uri": "Textures\\Paris_StringLights_01_Orange_Color_Emissive_BaseColor.dds"
        },
        {
            "uri": "Textures\\Paris_StringLights_01_Orange_Color_Emissive_Normal.dds"
        },
        {
            "uri": "Textures\\Paris_StringLights_01_Orange_Color_Emissive_Emissive.dds"
        },
        {
            "uri": "Textures\\Paris_StringLights_01_Orange_Color_Emissive_Specular.dds"
        }
    ],
    "materials": [
        {
            "name": "Paris_StringLights_01_Orange_Color_Emissive",
            "pbrMetallicRoughness": {
                "baseColorTexture": {
                    "index": 0
                },
                "metallicFactor": 0.0,
                "roughnessFactor": 0.5527864098548889
            },
            "normalTexture": {
                "index": 1
            },
            "emissiveTexture": {
                "index": 2
            },
            "emissiveFactor": [
                0.5,
                0.5,
                0.5
            ],
            "extensions": {
                "KHR_materials_specular": {
                    "specularFactor": 1.0,
                    "specularColorFactor": [
                        0.5,
                        0.5,
                        0.5
                    ],
                    "specularTexture": {
                        "index": 3
                    }
                }
            }
        }
    ],
    "meshes": [
        {
            "name": "StringLight_Wind_20",
            "primitives": [
                {
                    "mode": 4,
                    "material": 0,
                    "indices": 5,
                    "attributes": {
                        "POSITION": 0,
                        "NORMAL": 1,
                        "TANGENT": 2,
                        "TEXCOORD_0": 3,
                        "TEXCOORD_1": 4
                    }
                }
            ]
        }
    ],
    "nodes": [
        {
            "name": "StringLight_Wind_20",
            "mesh": 0
        }
    ],
    "samplers": [
        {},
        {},
        {},
        {}
    ],
    "scenes": [
        {
            "nodes": [
                0
            ]
        }
    ],
    "textures": [
        {
            "source": 0,
            "sampler": 0
        },
        {
            "source": 1,
            "sampler": 1
        },
        {
            "source": 2,
            "sampler": 2
        },
        {
            "source": 3,
            "sampler": 3
        }
    ],
    "scene": 0
}