{
    "asset": {
        "version": "2.0",
        "generator": "Open Asset Import Library (assimp v6.0.44188438)"
    },
    "extensionsUsed": [
        "KHR_materials_specular",
        "KHR_materials_volume",
        "FB_ngon_encoding"
    ],
    "accessors": [
        {
            "bufferView": 0,
            "byteOffset": 0,
            "componentType": 5126,
            "count": 136,
            "type": "VEC3",
            "max": [
                3.548276424407959,
                80.00164031982422,
                -72.4144058227539
            ],
            "min": [
                -3.754723072052002,
                2.2250738585072014e-308,
                -80.0351791381836
            ]
        },
        {
            "bufferView": 1,
            "byteOffset": 0,
            "componentType": 5126,
            "count": 136,
            "type": "VEC3",
            "max": [
                0.984298586845398,
                0.9777052998542786,
                0.8113032579421997
            ],
            "min": [
                -0.9829089641571045,
                -0.9818456172943115,
                -0.9996157288551331
            ]
        },
        {
            "bufferView": 2,
            "byteOffset": 0,
            "componentType": 5126,
            "count": 136,
            "type": "VEC3",
            "max": [
                0.8053768277168274,
                0.9062850475311279,
                0.9826825261116028
            ],
            "min": [
                -0.37645870447158813,
                -0.8988755345344543,
                -0.9897533059120178
            ]
        },
        {
            "bufferView": 3,
            "byteOffset": 0,
            "componentType": 5126,
            "count": 136,
            "type": "VEC2",
            "max": [
                0.9912109375,
                0.31982421875
            ],
            "min": [
                2.2250738585072014e-308,
                2.2250738585072014e-308
            ]
        },
        {
            "bufferView": 4,
            "byteOffset": 0,
            "componentType": 5126,
            "count": 136,
            "type": "VEC2",
            "max": [
                0.95556640625,
                0.9921875
            ],
            "min": [
                2.2250738585072014e-308,
                2.2250738585072014e-308
            ]
        },
        {
            "bufferView": 5,
            "byteOffset": 0,
            "componentType": 5125,
            "count": 690,
            "type": "SCALAR",
            "max": [
                135
            ],
            "min": [
                0
            ]
        }
    ],
    "buffers": [
        {
            "byteLength": 9832,
            "uri": "StringLight_Wind_14_4.bin"
        }
    ],
    "bufferViews": [
        {
            "buffer": 0,
            "byteOffset": 0,
            "byteLength": 1632,
            "target": 34962
        },
        {
            "buffer": 0,
            "byteOffset": 1632,
            "byteLength": 1632,
            "target": 34962
        },
        {
            "buffer": 0,
            "byteOffset": 3264,
            "byteLength": 1632,
            "target": 34962
        },
        {
            "buffer": 0,
            "byteOffset": 4896,
            "byteLength": 1088,
            "target": 34962
        },
        {
            "buffer": 0,
            "byteOffset": 5984,
            "byteLength": 1088,
            "target": 34962
        },
        {
            "buffer": 0,
            "byteOffset": 7072,
            "byteLength": 2760,
            "target": 34963
        }
    ],
    "images": [
        {
            "uri": "Textures\\Paris_StringLights_01_Blue_Color_Emissive_BaseColor.dds"
        },
        {
            "uri": "Textures\\Paris_StringLights_01_Blue_Color_Emissive_Normal.dds"
        },
        {
            "uri": "Textures\\Paris_StringLights_01_Blue_Color_Emissive_Emissive.dds"
        },
        {
            "uri": "Textures\\Paris_StringLights_01_Blue_Color_Emissive_Specular.dds"
        }
    ],
    "materials": [
        {
            "name": "Paris_StringLights_01_Blue_Color_Emissive",
            "pbrMetallicRoughness": {
                "baseColorTexture": {
                    "index": 0
                },
                "metallicFactor": 0.0,
                "roughnessFactor": 0.5527864098548889
            },
            "normalTexture": {
                "index": 1
            },
            "emissiveTexture": {
                "index": 2
            },
            "emissiveFactor": [
                0.5,
                0.5,
                0.5
            ],
            "extensions": {
                "KHR_materials_specular": {
                    "specularFactor": 1.0,
                    "specularColorFactor": [
                        0.5,
                        0.5,
                        0.5
                    ],
                    "specularTexture": {
                        "index": 3
                    }
                }
            }
        }
    ],
    "meshes": [
        {
            "name": "StringLight_Wind_14",
            "primitives": [
                {
                    "mode": 4,
                    "material": 0,
                    "indices": 5,
                    "attributes": {
                        "POSITION": 0,
                        "NORMAL": 1,
                        "TANGENT": 2,
                        "TEXCOORD_0": 3,
                        "TEXCOORD_1": 4
                    }
                }
            ]
        }
    ],
    "nodes": [
        {
            "name": "StringLight_Wind_14",
            "mesh": 0
        }
    ],
    "samplers": [
        {},
        {},
        {},
        {}
    ],
    "scenes": [
        {
            "nodes": [
                0
            ]
        }
    ],
    "textures": [
        {
            "source": 0,
            "sampler": 0
        },
        {
            "source": 1,
            "sampler": 1
        },
        {
            "source": 2,
            "sampler": 2
        },
        {
            "source": 3,
            "sampler": 3
        }
    ],
    "scene": 0
}