{
    "asset": {
        "version": "2.0",
        "generator": "Open Asset Import Library (assimp v6.0.44188438)"
    },
    "extensionsUsed": [
        "KHR_materials_specular",
        "KHR_materials_volume",
        "KHR_materials_ior",
        "FB_ngon_encoding"
    ],
    "accessors": [
        {
            "bufferView": 0,
            "byteOffset": 0,
            "componentType": 5126,
            "count": 320,
            "type": "VEC3",
            "max": [
                -615.6489868164063,
                104.8019027709961,
                146.73159790039063
            ],
            "min": [
                -622.3270263671875,
                2.2250738585072014e-308,
                2.2250738585072014e-308
            ]
        },
        {
            "bufferView": 1,
            "byteOffset": 0,
            "componentType": 5126,
            "count": 320,
            "type": "VEC3",
            "max": [
                0.9971686005592346,
                0.4316155016422272,
                0.9935028553009033
            ],
            "min": [
                -0.9968481063842773,
                -1.0,
                -0.9982882142066956
            ]
        },
        {
            "bufferView": 2,
            "byteOffset": 0,
            "componentType": 5126,
            "count": 320,
            "type": "VEC3",
            "max": [
                0.9979382753372192,
                0.039425261318683624,
                0.9997979402542114
            ],
            "min": [
                -0.9999282360076904,
                -0.12539651989936829,
                -0.9999064803123474
            ]
        },
        {
            "bufferView": 3,
            "byteOffset": 0,
            "componentType": 5126,
            "count": 320,
            "type": "VEC2",
            "max": [
                0.9787999987602234,
                0.9858999848365784
            ],
            "min": [
                2.2250738585072014e-308,
                2.2250738585072014e-308
            ]
        },
        {
            "bufferView": 4,
            "byteOffset": 0,
            "componentType": 5125,
            "count": 1674,
            "type": "SCALAR",
            "max": [
                319
            ],
            "min": [
                0
            ]
        }
    ],
    "buffers": [
        {
            "byteLength": 20776,
            "uri": "sponza_353.bin"
        }
    ],
    "bufferViews": [
        {
            "buffer": 0,
            "byteOffset": 0,
            "byteLength": 3840,
            "target": 34962
        },
        {
            "buffer": 0,
            "byteOffset": 3840,
            "byteLength": 3840,
            "target": 34962
        },
        {
            "buffer": 0,
            "byteOffset": 7680,
            "byteLength": 3840,
            "target": 34962
        },
        {
            "buffer": 0,
            "byteOffset": 11520,
            "byteLength": 2560,
            "target": 34962
        },
        {
            "buffer": 0,
            "byteOffset": 14080,
            "byteLength": 6696,
            "target": 34963
        }
    ],
    "images": [
        {
            "uri": "textures\\vase_hanging.png"
        }
    ],
    "materials": [
        {
            "name": "vase_hanging",
            "pbrMetallicRoughness": {
                "baseColorTexture": {
                    "index": 0
                },
                "metallicFactor": 0.0,
                "roughnessFactor": 0.888196587562561
            },
            "extensions": {
                "KHR_materials_specular": {
                    "specularFactor": 1.0,
                    "specularColorFactor": [
                        0.5,
                        0.5,
                        0.5
                    ],
                    "specularTexture": {
                        "index": 0
                    }
                }
            }
        }
    ],
    "meshes": [
        {
            "name": "sponza_353",
            "primitives": [
                {
                    "extensions": {
                        "FB_ngon_encoding": {}
                    },
                    "mode": 4,
                    "material": 0,
                    "indices": 4,
                    "attributes": {
                        "POSITION": 0,
                        "NORMAL": 1,
                        "TANGENT": 2,
                        "TEXCOORD_0": 3
                    }
                }
            ]
        }
    ],
    "nodes": [
        {
            "name": "sponza_353",
            "mesh": 0
        }
    ],
    "samplers": [
        {}
    ],
    "scenes": [
        {
            "nodes": [
                0
            ]
        }
    ],
    "textures": [
        {
            "source": 0,
            "sampler": 0
        }
    ],
    "scene": 0
}