{
    "asset": {
        "version": "2.0",
        "generator": "Open Asset Import Library (assimp v6.0.ad6e8e21)"
    },
    "extensionsUsed": [
        "KHR_materials_specular",
        "KHR_materials_volume",
        "KHR_materials_ior",
        "FB_ngon_encoding"
    ],
    "accessors": [
        {
            "bufferView": 0,
            "byteOffset": 0,
            "componentType": 5126,
            "count": 4775,
            "type": "VEC3",
            "max": [
                -187.86509704589844,
                210.9434051513672,
                257.5566101074219
            ],
            "min": [
                -306.99249267578125,
                -28.04960060119629,
                2.2250738585072014e-308
            ]
        },
        {
            "bufferView": 1,
            "byteOffset": 0,
            "componentType": 5126,
            "count": 4775,
            "type": "VEC3",
            "max": [
                0.9997492432594299,
                0.9999141693115234,
                0.9978054761886597
            ],
            "min": [
                -0.9999696016311646,
                -0.9996846318244934,
                -0.9998631477355957
            ]
        },
        {
            "bufferView": 2,
            "byteOffset": 0,
            "componentType": 5126,
            "count": 4775,
            "type": "VEC3",
            "max": [
                0.9998788833618164,
                0.9998860359191895,
                0.999674916267395
            ],
            "min": [
                -0.9992207884788513,
                -0.9996703267097473,
                -0.9999808669090271
            ]
        },
        {
            "bufferView": 3,
            "byteOffset": 0,
            "componentType": 5126,
            "count": 4775,
            "type": "VEC2",
            "max": [
                1.0016000270843506,
                0.8116999864578247
            ],
            "min": [
                -0.002899999963119626,
                -0.005399942398071289
            ]
        },
        {
            "bufferView": 4,
            "byteOffset": 0,
            "componentType": 5125,
            "count": 17790,
            "type": "SCALAR",
            "max": [
                4774
            ],
            "min": [
                0
            ]
        }
    ],
    "buffers": [
        {
            "byteLength": 281260,
            "uri": "sponza_275.bin"
        }
    ],
    "bufferViews": [
        {
            "buffer": 0,
            "byteOffset": 0,
            "byteLength": 57300,
            "target": 34962
        },
        {
            "buffer": 0,
            "byteOffset": 57300,
            "byteLength": 57300,
            "target": 34962
        },
        {
            "buffer": 0,
            "byteOffset": 114600,
            "byteLength": 57300,
            "target": 34962
        },
        {
            "buffer": 0,
            "byteOffset": 171900,
            "byteLength": 38200,
            "target": 34962
        },
        {
            "buffer": 0,
            "byteOffset": 210100,
            "byteLength": 71160,
            "target": 34963
        }
    ],
    "images": [
        {
            "uri": "textures\\sponza_thorn_diff.png"
        }
    ],
    "materials": [
        {
            "name": "leaf",
            "pbrMetallicRoughness": {
                "baseColorTexture": {
                    "index": 0
                },
                "metallicFactor": 0.0
            },
            "extensions": {
                "KHR_materials_specular": {
                    "specularFactor": 1.0,
                    "specularColorFactor": [
                        0.0,
                        0.0,
                        0.0
                    ]
                }
            }
        }
    ],
    "meshes": [
        {
            "name": "sponza_275",
            "primitives": [
                {
                    "extensions": {
                        "FB_ngon_encoding": {}
                    },
                    "mode": 4,
                    "material": 0,
                    "indices": 4,
                    "attributes": {
                        "POSITION": 0,
                        "NORMAL": 1,
                        "TANGENT": 2,
                        "TEXCOORD_0": 3
                    }
                }
            ]
        }
    ],
    "nodes": [
        {
            "name": "sponza_275",
            "mesh": 0
        }
    ],
    "samplers": [
        {}
    ],
    "scenes": [
        {
            "nodes": [
                0
            ]
        }
    ],
    "textures": [
        {
            "source": 0,
            "sampler": 0
        }
    ],
    "scene": 0
}