{
    "asset": {
        "version": "2.0",
        "generator": "Open Asset Import Library (assimp v6.0.ad6e8e21)"
    },
    "extensionsUsed": [
        "KHR_materials_specular",
        "KHR_materials_volume",
        "KHR_materials_ior",
        "FB_ngon_encoding"
    ],
    "accessors": [
        {
            "bufferView": 0,
            "byteOffset": 0,
            "componentType": 5126,
            "count": 50,
            "type": "VEC3",
            "max": [
                1746.69287109375,
                1347.19580078125,
                1039.711181640625
            ],
            "min": [
                -1866.98291015625,
                -126.44249725341797,
                -1139.030517578125
            ]
        },
        {
            "bufferView": 1,
            "byteOffset": 0,
            "componentType": 5126,
            "count": 50,
            "type": "VEC3",
            "max": [
                1.0,
                1.0,
                1.0
            ],
            "min": [
                -1.0,
                -1.0,
                -1.0
            ]
        },
        {
            "bufferView": 2,
            "byteOffset": 0,
            "componentType": 5126,
            "count": 50,
            "type": "VEC3",
            "max": [
                1.0,
                0.34178200364112854,
                1.0
            ],
            "min": [
                -1.0,
                -0.33828699588775635,
                -1.0
            ]
        },
        {
            "bufferView": 3,
            "byteOffset": 0,
            "componentType": 5126,
            "count": 50,
            "type": "VEC2",
            "max": [
                23.91550064086914,
                7.5756001472473145
            ],
            "min": [
                -5.452000141143799,
                -1.6856999397277832
            ]
        },
        {
            "bufferView": 4,
            "byteOffset": 0,
            "componentType": 5125,
            "count": 84,
            "type": "SCALAR",
            "max": [
                49
            ],
            "min": [
                0
            ]
        }
    ],
    "buffers": [
        {
            "byteLength": 2536,
            "uri": "sponza_379.bin"
        }
    ],
    "bufferViews": [
        {
            "buffer": 0,
            "byteOffset": 0,
            "byteLength": 600,
            "target": 34962
        },
        {
            "buffer": 0,
            "byteOffset": 600,
            "byteLength": 600,
            "target": 34962
        },
        {
            "buffer": 0,
            "byteOffset": 1200,
            "byteLength": 600,
            "target": 34962
        },
        {
            "buffer": 0,
            "byteOffset": 1800,
            "byteLength": 400,
            "target": 34962
        },
        {
            "buffer": 0,
            "byteOffset": 2200,
            "byteLength": 336,
            "target": 34963
        }
    ],
    "images": [
        {
            "uri": "textures\\spnza_bricks_a_diff.png"
        },
        {
            "uri": "textures\\spnza_bricks_a_spec.png"
        }
    ],
    "materials": [
        {
            "name": "bricks",
            "pbrMetallicRoughness": {
                "baseColorTexture": {
                    "index": 0
                },
                "metallicFactor": 0.0,
                "roughnessFactor": 0.9984999895095825
            },
            "extensions": {
                "KHR_materials_specular": {
                    "specularFactor": 1.0,
                    "specularColorFactor": [
                        0.014999999664723873,
                        0.014999999664723873,
                        0.014999999664723873
                    ],
                    "specularTexture": {
                        "index": 1
                    }
                }
            }
        }
    ],
    "meshes": [
        {
            "name": "sponza_379",
            "primitives": [
                {
                    "extensions": {
                        "FB_ngon_encoding": {}
                    },
                    "mode": 4,
                    "material": 0,
                    "indices": 4,
                    "attributes": {
                        "POSITION": 0,
                        "NORMAL": 1,
                        "TANGENT": 2,
                        "TEXCOORD_0": 3
                    }
                }
            ]
        }
    ],
    "nodes": [
        {
            "name": "sponza_379",
            "mesh": 0
        }
    ],
    "samplers": [
        {},
        {}
    ],
    "scenes": [
        {
            "nodes": [
                0
            ]
        }
    ],
    "textures": [
        {
            "source": 0,
            "sampler": 0
        },
        {
            "source": 1,
            "sampler": 1
        }
    ],
    "scene": 0
}