{
    "asset": {
        "version": "2.0",
        "generator": "Open Asset Import Library (assimp v6.0.44188438)"
    },
    "extensionsUsed": [
        "KHR_materials_specular",
        "KHR_materials_volume",
        "KHR_materials_ior",
        "FB_ngon_encoding"
    ],
    "accessors": [
        {
            "bufferView": 0,
            "byteOffset": 0,
            "componentType": 5126,
            "count": 40,
            "type": "VEC3",
            "max": [
                1302.190673828125,
                403.4479064941406,
                574.0297241210938
            ],
            "min": [
                -1428.51953125,
                -2.6201000213623047,
                -644.3114013671875
            ]
        },
        {
            "bufferView": 1,
            "byteOffset": 0,
            "componentType": 5126,
            "count": 40,
            "type": "VEC3",
            "max": [
                1.0,
                0.0031999831553548574,
                1.0
            ],
            "min": [
                -1.0,
                -0.0031999831553548574,
                -1.0
            ]
        },
        {
            "bufferView": 2,
            "byteOffset": 0,
            "componentType": 5126,
            "count": 40,
            "type": "VEC3",
            "max": [
                1.0,
                0.0001759966107783839,
                1.0
            ],
            "min": [
                -1.0,
                -0.00018706358969211578,
                -1.0
            ]
        },
        {
            "bufferView": 3,
            "byteOffset": 0,
            "componentType": 5126,
            "count": 40,
            "type": "VEC2",
            "max": [
                29.70359992980957,
                0.01230001449584961
            ],
            "min": [
                0.0,
                -1.5151000022888184
            ]
        },
        {
            "bufferView": 4,
            "byteOffset": 0,
            "componentType": 5125,
            "count": 108,
            "type": "SCALAR",
            "max": [
                39
            ],
            "min": [
                0
            ]
        }
    ],
    "buffers": [
        {
            "byteLength": 2192,
            "uri": "sponza_69.bin"
        }
    ],
    "bufferViews": [
        {
            "buffer": 0,
            "byteOffset": 0,
            "byteLength": 480,
            "target": 34962
        },
        {
            "buffer": 0,
            "byteOffset": 480,
            "byteLength": 480,
            "target": 34962
        },
        {
            "buffer": 0,
            "byteOffset": 960,
            "byteLength": 480,
            "target": 34962
        },
        {
            "buffer": 0,
            "byteOffset": 1440,
            "byteLength": 320,
            "target": 34962
        },
        {
            "buffer": 0,
            "byteOffset": 1760,
            "byteLength": 432,
            "target": 34963
        }
    ],
    "images": [
        {
            "uri": "textures\\spnza_bricks_a_diff.png"
        },
        {
            "uri": "textures\\spnza_bricks_a_spec.png"
        }
    ],
    "materials": [
        {
            "name": "bricks",
            "pbrMetallicRoughness": {
                "baseColorTexture": {
                    "index": 0
                },
                "metallicFactor": 0.0,
                "roughnessFactor": 0.9984999895095825
            },
            "extensions": {
                "KHR_materials_specular": {
                    "specularFactor": 1.0,
                    "specularColorFactor": [
                        0.014999999664723873,
                        0.014999999664723873,
                        0.014999999664723873
                    ],
                    "specularTexture": {
                        "index": 1
                    }
                }
            }
        }
    ],
    "meshes": [
        {
            "name": "sponza_69",
            "primitives": [
                {
                    "extensions": {
                        "FB_ngon_encoding": {}
                    },
                    "mode": 4,
                    "material": 0,
                    "indices": 4,
                    "attributes": {
                        "POSITION": 0,
                        "NORMAL": 1,
                        "TANGENT": 2,
                        "TEXCOORD_0": 3
                    }
                }
            ]
        }
    ],
    "nodes": [
        {
            "name": "sponza_69",
            "mesh": 0
        }
    ],
    "samplers": [
        {},
        {}
    ],
    "scenes": [
        {
            "nodes": [
                0
            ]
        }
    ],
    "textures": [
        {
            "source": 0,
            "sampler": 0
        },
        {
            "source": 1,
            "sampler": 1
        }
    ],
    "scene": 0
}