{
    "asset": {
        "version": "2.0",
        "generator": "Open Asset Import Library (assimp v6.0.44188438)"
    },
    "extensionsUsed": [
        "KHR_materials_specular",
        "KHR_materials_volume",
        "KHR_materials_ior",
        "FB_ngon_encoding"
    ],
    "accessors": [
        {
            "bufferView": 0,
            "byteOffset": 0,
            "componentType": 5126,
            "count": 1646,
            "type": "VEC3",
            "max": [
                862.439697265625,
                823.3441772460938,
                231.4344024658203
            ],
            "min": [
                -990.4375,
                2.2250738585072014e-308,
                2.2250738585072014e-308
            ]
        },
        {
            "bufferView": 1,
            "byteOffset": 0,
            "componentType": 5126,
            "count": 1646,
            "type": "VEC3",
            "max": [
                0.9951865673065186,
                1.0,
                1.0
            ],
            "min": [
                -0.9951865673065186,
                -1.0,
                -1.0
            ]
        },
        {
            "bufferView": 2,
            "byteOffset": 0,
            "componentType": 5126,
            "count": 1646,
            "type": "VEC3",
            "max": [
                1.0,
                0.9990300536155701,
                0.07459653913974762
            ],
            "min": [
                -1.0,
                -0.028653867542743683,
                -0.7419375777244568
            ]
        },
        {
            "bufferView": 3,
            "byteOffset": 0,
            "componentType": 5126,
            "count": 1646,
            "type": "VEC2",
            "max": [
                0.7888000011444092,
                0.9952999949455261
            ],
            "min": [
                2.2250738585072014e-308,
                2.2250738585072014e-308
            ]
        },
        {
            "bufferView": 4,
            "byteOffset": 0,
            "componentType": 5125,
            "count": 5580,
            "type": "SCALAR",
            "max": [
                1645
            ],
            "min": [
                0
            ]
        }
    ],
    "buffers": [
        {
            "byteLength": 94744,
            "uri": "sponza_124.bin"
        }
    ],
    "bufferViews": [
        {
            "buffer": 0,
            "byteOffset": 0,
            "byteLength": 19752,
            "target": 34962
        },
        {
            "buffer": 0,
            "byteOffset": 19752,
            "byteLength": 19752,
            "target": 34962
        },
        {
            "buffer": 0,
            "byteOffset": 39504,
            "byteLength": 19752,
            "target": 34962
        },
        {
            "buffer": 0,
            "byteOffset": 59256,
            "byteLength": 13168,
            "target": 34962
        },
        {
            "buffer": 0,
            "byteOffset": 72424,
            "byteLength": 22320,
            "target": 34963
        }
    ],
    "images": [
        {
            "uri": "textures\\sponza_arch_diff.png"
        }
    ],
    "materials": [
        {
            "name": "arch",
            "pbrMetallicRoughness": {
                "baseColorTexture": {
                    "index": 0
                },
                "metallicFactor": 0.0,
                "roughnessFactor": 0.9800000190734863
            },
            "extensions": {
                "KHR_materials_specular": {
                    "specularFactor": 1.0,
                    "specularColorFactor": [
                        0.10000000149011612,
                        0.10000000149011612,
                        0.10000000149011612
                    ]
                }
            }
        }
    ],
    "meshes": [
        {
            "name": "sponza_124",
            "primitives": [
                {
                    "extensions": {
                        "FB_ngon_encoding": {}
                    },
                    "mode": 4,
                    "material": 0,
                    "indices": 4,
                    "attributes": {
                        "POSITION": 0,
                        "NORMAL": 1,
                        "TANGENT": 2,
                        "TEXCOORD_0": 3
                    }
                }
            ]
        }
    ],
    "nodes": [
        {
            "name": "sponza_124",
            "mesh": 0
        }
    ],
    "samplers": [
        {}
    ],
    "scenes": [
        {
            "nodes": [
                0
            ]
        }
    ],
    "textures": [
        {
            "source": 0,
            "sampler": 0
        }
    ],
    "scene": 0
}