{
    "asset": {
        "version": "2.0",
        "generator": "Open Asset Import Library (assimp v6.0.44188438)"
    },
    "extensionsUsed": [
        "KHR_materials_specular",
        "KHR_materials_volume",
        "KHR_materials_ior",
        "FB_ngon_encoding"
    ],
    "accessors": [
        {
            "bufferView": 0,
            "byteOffset": 0,
            "componentType": 5126,
            "count": 625,
            "type": "VEC3",
            "max": [
                917.5026245117188,
                695.3228149414063,
                -217.256103515625
            ],
            "min": [
                2.2250738585072014e-308,
                2.2250738585072014e-308,
                -315.4476013183594
            ]
        },
        {
            "bufferView": 1,
            "byteOffset": 0,
            "componentType": 5126,
            "count": 625,
            "type": "VEC3",
            "max": [
                1.0,
                1.0,
                1.0
            ],
            "min": [
                -1.0,
                -1.0,
                -1.0
            ]
        },
        {
            "bufferView": 2,
            "byteOffset": 0,
            "componentType": 5126,
            "count": 625,
            "type": "VEC3",
            "max": [
                1.0,
                0.529373049736023,
                1.0
            ],
            "min": [
                -1.0,
                -0.48160046339035034,
                -1.0
            ]
        },
        {
            "bufferView": 3,
            "byteOffset": 0,
            "componentType": 5126,
            "count": 625,
            "type": "VEC2",
            "max": [
                0.9907000064849854,
                0.9937999844551086
            ],
            "min": [
                2.2250738585072014e-308,
                2.2250738585072014e-308
            ]
        },
        {
            "bufferView": 4,
            "byteOffset": 0,
            "componentType": 5125,
            "count": 1188,
            "type": "SCALAR",
            "max": [
                624
            ],
            "min": [
                0
            ]
        }
    ],
    "buffers": [
        {
            "byteLength": 32252,
            "uri": "sponza_33.bin"
        }
    ],
    "bufferViews": [
        {
            "buffer": 0,
            "byteOffset": 0,
            "byteLength": 7500,
            "target": 34962
        },
        {
            "buffer": 0,
            "byteOffset": 7500,
            "byteLength": 7500,
            "target": 34962
        },
        {
            "buffer": 0,
            "byteOffset": 15000,
            "byteLength": 7500,
            "target": 34962
        },
        {
            "buffer": 0,
            "byteOffset": 22500,
            "byteLength": 5000,
            "target": 34962
        },
        {
            "buffer": 0,
            "byteOffset": 27500,
            "byteLength": 4752,
            "target": 34963
        }
    ],
    "images": [
        {
            "uri": "textures\\sponza_column_c_diff.png"
        }
    ],
    "materials": [
        {
            "name": "column_c",
            "pbrMetallicRoughness": {
                "baseColorTexture": {
                    "index": 0
                },
                "metallicFactor": 0.0,
                "roughnessFactor": 0.9990000128746033
            },
            "extensions": {
                "KHR_materials_specular": {
                    "specularFactor": 1.0,
                    "specularColorFactor": [
                        0.009999999776482582,
                        0.009999999776482582,
                        0.009999999776482582
                    ]
                }
            }
        }
    ],
    "meshes": [
        {
            "name": "sponza_33",
            "primitives": [
                {
                    "extensions": {
                        "FB_ngon_encoding": {}
                    },
                    "mode": 4,
                    "material": 0,
                    "indices": 4,
                    "attributes": {
                        "POSITION": 0,
                        "NORMAL": 1,
                        "TANGENT": 2,
                        "TEXCOORD_0": 3
                    }
                }
            ]
        }
    ],
    "nodes": [
        {
            "name": "sponza_33",
            "mesh": 0
        }
    ],
    "samplers": [
        {}
    ],
    "scenes": [
        {
            "nodes": [
                0
            ]
        }
    ],
    "textures": [
        {
            "source": 0,
            "sampler": 0
        }
    ],
    "scene": 0
}