{
    "asset": {
        "version": "2.0",
        "generator": "Open Asset Import Library (assimp v6.0.44188438)"
    },
    "extensionsUsed": [
        "KHR_materials_specular",
        "KHR_materials_volume",
        "KHR_materials_ior",
        "FB_ngon_encoding"
    ],
    "accessors": [
        {
            "bufferView": 0,
            "byteOffset": 0,
            "componentType": 5126,
            "count": 624,
            "type": "VEC3",
            "max": [
                522.611572265625,
                137.18829345703125,
                145.46629333496094
            ],
            "min": [
                2.2250738585072014e-308,
                2.2250738585072014e-308,
                2.2250738585072014e-308
            ]
        },
        {
            "bufferView": 1,
            "byteOffset": 0,
            "componentType": 5126,
            "count": 624,
            "type": "VEC3",
            "max": [
                0.9999939203262329,
                0.9999680519104004,
                0.9999943971633911
            ],
            "min": [
                -0.9999939203262329,
                -0.9999680519104004,
                -0.9999940395355225
            ]
        },
        {
            "bufferView": 2,
            "byteOffset": 0,
            "componentType": 5126,
            "count": 624,
            "type": "VEC3",
            "max": [
                0.39224252104759216,
                0.2285873293876648,
                0.9999880194664001
            ],
            "min": [
                -0.3308625817298889,
                -1.0,
                -0.9999989867210388
            ]
        },
        {
            "bufferView": 3,
            "byteOffset": 0,
            "componentType": 5126,
            "count": 624,
            "type": "VEC2",
            "max": [
                0.40059998631477356,
                0.2635999917984009
            ],
            "min": [
                2.2250738585072014e-308,
                2.2250738585072014e-308
            ]
        },
        {
            "bufferView": 4,
            "byteOffset": 0,
            "componentType": 5125,
            "count": 3732,
            "type": "SCALAR",
            "max": [
                623
            ],
            "min": [
                0
            ]
        }
    ],
    "buffers": [
        {
            "byteLength": 42384,
            "uri": "sponza_364.bin"
        }
    ],
    "bufferViews": [
        {
            "buffer": 0,
            "byteOffset": 0,
            "byteLength": 7488,
            "target": 34962
        },
        {
            "buffer": 0,
            "byteOffset": 7488,
            "byteLength": 7488,
            "target": 34962
        },
        {
            "buffer": 0,
            "byteOffset": 14976,
            "byteLength": 7488,
            "target": 34962
        },
        {
            "buffer": 0,
            "byteOffset": 22464,
            "byteLength": 4992,
            "target": 34962
        },
        {
            "buffer": 0,
            "byteOffset": 27456,
            "byteLength": 14928,
            "target": 34963
        }
    ],
    "images": [
        {
            "uri": "textures\\vase_hanging.png"
        }
    ],
    "materials": [
        {
            "name": "vase_hanging",
            "pbrMetallicRoughness": {
                "baseColorTexture": {
                    "index": 0
                },
                "metallicFactor": 0.0,
                "roughnessFactor": 0.888196587562561
            },
            "extensions": {
                "KHR_materials_specular": {
                    "specularFactor": 1.0,
                    "specularColorFactor": [
                        0.5,
                        0.5,
                        0.5
                    ],
                    "specularTexture": {
                        "index": 0
                    }
                }
            }
        }
    ],
    "meshes": [
        {
            "name": "sponza_364",
            "primitives": [
                {
                    "extensions": {
                        "FB_ngon_encoding": {}
                    },
                    "mode": 4,
                    "material": 0,
                    "indices": 4,
                    "attributes": {
                        "POSITION": 0,
                        "NORMAL": 1,
                        "TANGENT": 2,
                        "TEXCOORD_0": 3
                    }
                }
            ]
        }
    ],
    "nodes": [
        {
            "name": "sponza_364",
            "mesh": 0
        }
    ],
    "samplers": [
        {}
    ],
    "scenes": [
        {
            "nodes": [
                0
            ]
        }
    ],
    "textures": [
        {
            "source": 0,
            "sampler": 0
        }
    ],
    "scene": 0
}