{
    "asset": {
        "version": "2.0",
        "generator": "Open Asset Import Library (assimp v6.0.44188438)"
    },
    "extensionsUsed": [
        "KHR_materials_specular",
        "KHR_materials_volume",
        "KHR_materials_ior",
        "FB_ngon_encoding"
    ],
    "accessors": [
        {
            "bufferView": 0,
            "byteOffset": 0,
            "componentType": 5126,
            "count": 1327,
            "type": "VEC3",
            "max": [
                -1127.7216796875,
                133.0167999267578,
                -374.5480041503906
            ],
            "min": [
                -1276.67333984375,
                -0.6934000253677368,
                -523.4995727539063
            ]
        },
        {
            "bufferView": 1,
            "byteOffset": 0,
            "componentType": 5126,
            "count": 1327,
            "type": "VEC3",
            "max": [
                1.0,
                1.0,
                1.0
            ],
            "min": [
                -1.0,
                -0.9954832792282104,
                -1.0
            ]
        },
        {
            "bufferView": 2,
            "byteOffset": 0,
            "componentType": 5126,
            "count": 1327,
            "type": "VEC3",
            "max": [
                1.0,
                0.9963669180870056,
                1.0
            ],
            "min": [
                -1.0,
                -1.0,
                -1.0
            ]
        },
        {
            "bufferView": 3,
            "byteOffset": 0,
            "componentType": 5126,
            "count": 1327,
            "type": "VEC3",
            "max": [
                0.9926000237464905,
                0.9884999990463257,
                0.5411999821662903
            ],
            "min": [
                2.2250738585072014e-308,
                2.2250738585072014e-308,
                0.0
            ]
        },
        {
            "bufferView": 4,
            "byteOffset": 0,
            "componentType": 5125,
            "count": 6888,
            "type": "SCALAR",
            "max": [
                1326
            ],
            "min": [
                0
            ]
        }
    ],
    "buffers": [
        {
            "byteLength": 91248,
            "uri": "sponza_374.bin"
        }
    ],
    "bufferViews": [
        {
            "buffer": 0,
            "byteOffset": 0,
            "byteLength": 15924,
            "target": 34962
        },
        {
            "buffer": 0,
            "byteOffset": 15924,
            "byteLength": 15924,
            "target": 34962
        },
        {
            "buffer": 0,
            "byteOffset": 31848,
            "byteLength": 15924,
            "target": 34962
        },
        {
            "buffer": 0,
            "byteOffset": 47772,
            "byteLength": 15924,
            "target": 34962
        },
        {
            "buffer": 0,
            "byteOffset": 63696,
            "byteLength": 27552,
            "target": 34963
        }
    ],
    "images": [
        {
            "uri": "textures\\vase_dif.png"
        }
    ],
    "materials": [
        {
            "name": "vase",
            "pbrMetallicRoughness": {
                "baseColorTexture": {
                    "index": 0
                },
                "metallicFactor": 0.0
            },
            "extensions": {
                "KHR_materials_specular": {
                    "specularFactor": 1.0,
                    "specularColorFactor": [
                        0.0,
                        0.0,
                        0.0
                    ]
                }
            }
        }
    ],
    "meshes": [
        {
            "name": "sponza_374",
            "primitives": [
                {
                    "extensions": {
                        "FB_ngon_encoding": {}
                    },
                    "mode": 4,
                    "material": 0,
                    "indices": 4,
                    "attributes": {
                        "POSITION": 0,
                        "NORMAL": 1,
                        "TANGENT": 2,
                        "TEXCOORD_0": 3
                    }
                }
            ]
        }
    ],
    "nodes": [
        {
            "name": "sponza_374",
            "mesh": 0
        }
    ],
    "samplers": [
        {}
    ],
    "scenes": [
        {
            "nodes": [
                0
            ]
        }
    ],
    "textures": [
        {
            "source": 0,
            "sampler": 0
        }
    ],
    "scene": 0
}