{
    "asset": {
        "version": "2.0",
        "generator": "Open Asset Import Library (assimp v6.0.ad6e8e21)"
    },
    "extensionsUsed": [
        "KHR_materials_specular",
        "KHR_materials_volume",
        "KHR_materials_ior",
        "FB_ngon_encoding"
    ],
    "accessors": [
        {
            "bufferView": 0,
            "byteOffset": 0,
            "componentType": 5126,
            "count": 313,
            "type": "VEC3",
            "max": [
                132.1143035888672,
                849.470703125,
                -250.38670349121094
            ],
            "min": [
                2.2250738585072014e-308,
                2.2250738585072014e-308,
                -257.7838134765625
            ]
        },
        {
            "bufferView": 1,
            "byteOffset": 0,
            "componentType": 5126,
            "count": 313,
            "type": "VEC3",
            "max": [
                0.971847414970398,
                0.9718529582023621,
                1.0
            ],
            "min": [
                -0.971847414970398,
                -0.9718529582023621,
                2.2250738585072014e-308
            ]
        },
        {
            "bufferView": 2,
            "byteOffset": 0,
            "componentType": 5126,
            "count": 313,
            "type": "VEC3",
            "max": [
                1.0,
                0.2542032301425934,
                0.9718473553657532
            ],
            "min": [
                2.2250738585072014e-308,
                -0.16200800240039825,
                -0.971847414970398
            ]
        },
        {
            "bufferView": 3,
            "byteOffset": 0,
            "componentType": 5126,
            "count": 313,
            "type": "VEC2",
            "max": [
                0.6751000285148621,
                0.6876000165939331
            ],
            "min": [
                2.2250738585072014e-308,
                2.2250738585072014e-308
            ]
        },
        {
            "bufferView": 4,
            "byteOffset": 0,
            "componentType": 5125,
            "count": 1368,
            "type": "SCALAR",
            "max": [
                312
            ],
            "min": [
                0
            ]
        }
    ],
    "buffers": [
        {
            "byteLength": 19244,
            "uri": "sponza_261.bin"
        }
    ],
    "bufferViews": [
        {
            "buffer": 0,
            "byteOffset": 0,
            "byteLength": 3756,
            "target": 34962
        },
        {
            "buffer": 0,
            "byteOffset": 3756,
            "byteLength": 3756,
            "target": 34962
        },
        {
            "buffer": 0,
            "byteOffset": 7512,
            "byteLength": 3756,
            "target": 34962
        },
        {
            "buffer": 0,
            "byteOffset": 11268,
            "byteLength": 2504,
            "target": 34962
        },
        {
            "buffer": 0,
            "byteOffset": 13772,
            "byteLength": 5472,
            "target": 34963
        }
    ],
    "images": [
        {
            "uri": "textures\\sponza_flagpole_diff.png"
        }
    ],
    "materials": [
        {
            "name": "flagpole",
            "pbrMetallicRoughness": {
                "baseColorTexture": {
                    "index": 0
                },
                "metallicFactor": 0.0,
                "roughnessFactor": 0.9950000047683716
            },
            "extensions": {
                "KHR_materials_specular": {
                    "specularFactor": 1.0,
                    "specularColorFactor": [
                        0.05000000074505806,
                        0.05000000074505806,
                        0.05000000074505806
                    ]
                }
            }
        }
    ],
    "meshes": [
        {
            "name": "sponza_261",
            "primitives": [
                {
                    "extensions": {
                        "FB_ngon_encoding": {}
                    },
                    "mode": 4,
                    "material": 0,
                    "indices": 4,
                    "attributes": {
                        "POSITION": 0,
                        "NORMAL": 1,
                        "TANGENT": 2,
                        "TEXCOORD_0": 3
                    }
                }
            ]
        }
    ],
    "nodes": [
        {
            "name": "sponza_261",
            "mesh": 0
        }
    ],
    "samplers": [
        {}
    ],
    "scenes": [
        {
            "nodes": [
                0
            ]
        }
    ],
    "textures": [
        {
            "source": 0,
            "sampler": 0
        }
    ],
    "scene": 0
}