{
    "asset": {
        "version": "2.0",
        "generator": "Open Asset Import Library (assimp v6.0.ad6e8e21)"
    },
    "extensionsUsed": [
        "KHR_materials_specular",
        "KHR_materials_volume",
        "KHR_materials_ior",
        "FB_ngon_encoding"
    ],
    "accessors": [
        {
            "bufferView": 0,
            "byteOffset": 0,
            "componentType": 5126,
            "count": 122,
            "type": "VEC3",
            "max": [
                -1004.9495239257813,
                1263.927978515625,
                -17.29829978942871
            ],
            "min": [
                -1020.4464721679688,
                2.2250738585072014e-308,
                -52.64500045776367
            ]
        },
        {
            "bufferView": 1,
            "byteOffset": 0,
            "componentType": 5126,
            "count": 122,
            "type": "VEC3",
            "max": [
                1.0,
                1.0,
                1.0
            ],
            "min": [
                0.0,
                -1.0,
                -1.0
            ]
        },
        {
            "bufferView": 2,
            "byteOffset": 0,
            "componentType": 5126,
            "count": 122,
            "type": "VEC3",
            "max": [
                1.0,
                0.0,
                0.000012807049643015489
            ],
            "min": [
                0.0,
                -0.5778327584266663,
                -0.8217484951019287
            ]
        },
        {
            "bufferView": 3,
            "byteOffset": 0,
            "componentType": 5126,
            "count": 122,
            "type": "VEC2",
            "max": [
                0.9550999999046326,
                0.977400004863739
            ],
            "min": [
                2.2250738585072014e-308,
                2.2250738585072014e-308
            ]
        },
        {
            "bufferView": 4,
            "byteOffset": 0,
            "componentType": 5125,
            "count": 336,
            "type": "SCALAR",
            "max": [
                121
            ],
            "min": [
                0
            ]
        }
    ],
    "buffers": [
        {
            "byteLength": 6712,
            "uri": "sponza_46.bin"
        }
    ],
    "bufferViews": [
        {
            "buffer": 0,
            "byteOffset": 0,
            "byteLength": 1464,
            "target": 34962
        },
        {
            "buffer": 0,
            "byteOffset": 1464,
            "byteLength": 1464,
            "target": 34962
        },
        {
            "buffer": 0,
            "byteOffset": 2928,
            "byteLength": 1464,
            "target": 34962
        },
        {
            "buffer": 0,
            "byteOffset": 4392,
            "byteLength": 976,
            "target": 34962
        },
        {
            "buffer": 0,
            "byteOffset": 5368,
            "byteLength": 1344,
            "target": 34963
        }
    ],
    "images": [
        {
            "uri": "textures\\sponza_ceiling_a_diff.png"
        }
    ],
    "materials": [
        {
            "name": "ceiling",
            "pbrMetallicRoughness": {
                "baseColorTexture": {
                    "index": 0
                },
                "metallicFactor": 0.0,
                "roughnessFactor": 0.9990000128746033
            },
            "extensions": {
                "KHR_materials_specular": {
                    "specularFactor": 1.0,
                    "specularColorFactor": [
                        0.009999999776482582,
                        0.009999999776482582,
                        0.009999999776482582
                    ]
                }
            }
        }
    ],
    "meshes": [
        {
            "name": "sponza_46",
            "primitives": [
                {
                    "extensions": {
                        "FB_ngon_encoding": {}
                    },
                    "mode": 4,
                    "material": 0,
                    "indices": 4,
                    "attributes": {
                        "POSITION": 0,
                        "NORMAL": 1,
                        "TANGENT": 2,
                        "TEXCOORD_0": 3
                    }
                }
            ]
        }
    ],
    "nodes": [
        {
            "name": "sponza_46",
            "mesh": 0
        }
    ],
    "samplers": [
        {}
    ],
    "scenes": [
        {
            "nodes": [
                0
            ]
        }
    ],
    "textures": [
        {
            "source": 0,
            "sampler": 0
        }
    ],
    "scene": 0
}