{
    "asset": {
        "version": "2.0",
        "generator": "Open Asset Import Library (assimp v6.0.ad6e8e21)"
    },
    "extensionsUsed": [
        "KHR_materials_specular",
        "KHR_materials_volume",
        "KHR_materials_ior",
        "FB_ngon_encoding"
    ],
    "accessors": [
        {
            "bufferView": 0,
            "byteOffset": 0,
            "componentType": 5126,
            "count": 320,
            "type": "VEC3",
            "max": [
                917.6837158203125,
                930.2659301757813,
                243.55810546875
            ],
            "min": [
                -1048.3079833984375,
                2.2250738585072014e-308,
                -318.1059875488281
            ]
        },
        {
            "bufferView": 1,
            "byteOffset": 0,
            "componentType": 5126,
            "count": 320,
            "type": "VEC3",
            "max": [
                1.0,
                1.0,
                1.0
            ],
            "min": [
                -1.0,
                -1.0,
                -1.0
            ]
        },
        {
            "bufferView": 2,
            "byteOffset": 0,
            "componentType": 5126,
            "count": 320,
            "type": "VEC3",
            "max": [
                1.0,
                0.0000025933225060725817,
                1.0
            ],
            "min": [
                -1.0,
                -0.0000018885513100030948,
                -1.0
            ]
        },
        {
            "bufferView": 3,
            "byteOffset": 0,
            "componentType": 5126,
            "count": 320,
            "type": "VEC2",
            "max": [
                0.9897000193595886,
                0.6618000268936157
            ],
            "min": [
                2.2250738585072014e-308,
                2.2250738585072014e-308
            ]
        },
        {
            "bufferView": 4,
            "byteOffset": 0,
            "componentType": 5125,
            "count": 840,
            "type": "SCALAR",
            "max": [
                319
            ],
            "min": [
                0
            ]
        }
    ],
    "buffers": [
        {
            "byteLength": 17440,
            "uri": "sponza_67.bin"
        }
    ],
    "bufferViews": [
        {
            "buffer": 0,
            "byteOffset": 0,
            "byteLength": 3840,
            "target": 34962
        },
        {
            "buffer": 0,
            "byteOffset": 3840,
            "byteLength": 3840,
            "target": 34962
        },
        {
            "buffer": 0,
            "byteOffset": 7680,
            "byteLength": 3840,
            "target": 34962
        },
        {
            "buffer": 0,
            "byteOffset": 11520,
            "byteLength": 2560,
            "target": 34962
        },
        {
            "buffer": 0,
            "byteOffset": 14080,
            "byteLength": 3360,
            "target": 34963
        }
    ],
    "images": [
        {
            "uri": "textures\\sponza_arch_diff.png"
        }
    ],
    "materials": [
        {
            "name": "arch",
            "pbrMetallicRoughness": {
                "baseColorTexture": {
                    "index": 0
                },
                "metallicFactor": 0.0,
                "roughnessFactor": 0.9800000190734863
            },
            "extensions": {
                "KHR_materials_specular": {
                    "specularFactor": 1.0,
                    "specularColorFactor": [
                        0.10000000149011612,
                        0.10000000149011612,
                        0.10000000149011612
                    ]
                }
            }
        }
    ],
    "meshes": [
        {
            "name": "sponza_67",
            "primitives": [
                {
                    "extensions": {
                        "FB_ngon_encoding": {}
                    },
                    "mode": 4,
                    "material": 0,
                    "indices": 4,
                    "attributes": {
                        "POSITION": 0,
                        "NORMAL": 1,
                        "TANGENT": 2,
                        "TEXCOORD_0": 3
                    }
                }
            ]
        }
    ],
    "nodes": [
        {
            "name": "sponza_67",
            "mesh": 0
        }
    ],
    "samplers": [
        {}
    ],
    "scenes": [
        {
            "nodes": [
                0
            ]
        }
    ],
    "textures": [
        {
            "source": 0,
            "sampler": 0
        }
    ],
    "scene": 0
}