{
    "asset": {
        "version": "2.0",
        "generator": "Open Asset Import Library (assimp v6.0.44188438)"
    },
    "extensionsUsed": [
        "KHR_materials_specular",
        "KHR_materials_volume",
        "KHR_materials_ior",
        "FB_ngon_encoding"
    ],
    "accessors": [
        {
            "bufferView": 0,
            "byteOffset": 0,
            "componentType": 5126,
            "count": 195,
            "type": "VEC3",
            "max": [
                -648.8206787109375,
                284.3857116699219,
                -276.8996887207031
            ],
            "min": [
                -958.6978149414063,
                2.2250738585072014e-308,
                -281.4042053222656
            ]
        },
        {
            "bufferView": 1,
            "byteOffset": 0,
            "componentType": 5126,
            "count": 195,
            "type": "VEC3",
            "max": [
                0.0,
                1.0,
                1.0
            ],
            "min": [
                0.0,
                -1.0,
                -1.0
            ]
        },
        {
            "bufferView": 2,
            "byteOffset": 0,
            "componentType": 5126,
            "count": 195,
            "type": "VEC3",
            "max": [
                0.0,
                1.0,
                1.0
            ],
            "min": [
                0.0,
                -1.0,
                -1.0
            ]
        },
        {
            "bufferView": 3,
            "byteOffset": 0,
            "componentType": 5126,
            "count": 195,
            "type": "VEC2",
            "max": [
                0.9876000285148621,
                0.994700014591217
            ],
            "min": [
                2.2250738585072014e-308,
                2.2250738585072014e-308
            ]
        },
        {
            "bufferView": 4,
            "byteOffset": 0,
            "componentType": 5125,
            "count": 576,
            "type": "SCALAR",
            "max": [
                194
            ],
            "min": [
                0
            ]
        }
    ],
    "buffers": [
        {
            "byteLength": 10884,
            "uri": "sponza_303.bin"
        }
    ],
    "bufferViews": [
        {
            "buffer": 0,
            "byteOffset": 0,
            "byteLength": 2340,
            "target": 34962
        },
        {
            "buffer": 0,
            "byteOffset": 2340,
            "byteLength": 2340,
            "target": 34962
        },
        {
            "buffer": 0,
            "byteOffset": 4680,
            "byteLength": 2340,
            "target": 34962
        },
        {
            "buffer": 0,
            "byteOffset": 7020,
            "byteLength": 1560,
            "target": 34962
        },
        {
            "buffer": 0,
            "byteOffset": 8580,
            "byteLength": 2304,
            "target": 34963
        }
    ],
    "images": [
        {
            "uri": "textures\\sponza_flagpole_diff.png"
        }
    ],
    "materials": [
        {
            "name": "flagpole",
            "pbrMetallicRoughness": {
                "baseColorTexture": {
                    "index": 0
                },
                "metallicFactor": 0.0,
                "roughnessFactor": 0.9950000047683716
            },
            "extensions": {
                "KHR_materials_specular": {
                    "specularFactor": 1.0,
                    "specularColorFactor": [
                        0.05000000074505806,
                        0.05000000074505806,
                        0.05000000074505806
                    ]
                }
            }
        }
    ],
    "meshes": [
        {
            "name": "sponza_303",
            "primitives": [
                {
                    "extensions": {
                        "FB_ngon_encoding": {}
                    },
                    "mode": 4,
                    "material": 0,
                    "indices": 4,
                    "attributes": {
                        "POSITION": 0,
                        "NORMAL": 1,
                        "TANGENT": 2,
                        "TEXCOORD_0": 3
                    }
                }
            ]
        }
    ],
    "nodes": [
        {
            "name": "sponza_303",
            "mesh": 0
        }
    ],
    "samplers": [
        {}
    ],
    "scenes": [
        {
            "nodes": [
                0
            ]
        }
    ],
    "textures": [
        {
            "source": 0,
            "sampler": 0
        }
    ],
    "scene": 0
}