{
    "asset": {
        "version": "2.0",
        "generator": "Open Asset Import Library (assimp v6.0.44188438)"
    },
    "extensionsUsed": [
        "KHR_materials_specular",
        "KHR_materials_volume",
        "KHR_materials_ior",
        "FB_ngon_encoding"
    ],
    "accessors": [
        {
            "bufferView": 0,
            "byteOffset": 0,
            "componentType": 5126,
            "count": 84,
            "type": "VEC3",
            "max": [
                1302.1905517578125,
                5.625100135803223,
                574.0297241210938
            ],
            "min": [
                -1428.519775390625,
                -3.3794000148773193,
                -644.3114013671875
            ]
        },
        {
            "bufferView": 1,
            "byteOffset": 0,
            "componentType": 5126,
            "count": 84,
            "type": "VEC3",
            "max": [
                1.0,
                0.819584846496582,
                1.0
            ],
            "min": [
                -1.0,
                -1.0,
                -1.0
            ]
        },
        {
            "bufferView": 2,
            "byteOffset": 0,
            "componentType": 5126,
            "count": 84,
            "type": "VEC3",
            "max": [
                1.0,
                0.36330193281173706,
                1.0
            ],
            "min": [
                -1.0,
                -0.3632580637931824,
                -1.0
            ]
        },
        {
            "bufferView": 3,
            "byteOffset": 0,
            "componentType": 5126,
            "count": 84,
            "type": "VEC2",
            "max": [
                14.92080020904541,
                -0.012799978256225586
            ],
            "min": [
                -27.792400360107422,
                -0.2746999263763428
            ]
        },
        {
            "bufferView": 4,
            "byteOffset": 0,
            "componentType": 5125,
            "count": 150,
            "type": "SCALAR",
            "max": [
                83
            ],
            "min": [
                0
            ]
        }
    ],
    "buffers": [
        {
            "byteLength": 4296,
            "uri": "sponza_116.bin"
        }
    ],
    "bufferViews": [
        {
            "buffer": 0,
            "byteOffset": 0,
            "byteLength": 1008,
            "target": 34962
        },
        {
            "buffer": 0,
            "byteOffset": 1008,
            "byteLength": 1008,
            "target": 34962
        },
        {
            "buffer": 0,
            "byteOffset": 2016,
            "byteLength": 1008,
            "target": 34962
        },
        {
            "buffer": 0,
            "byteOffset": 3024,
            "byteLength": 672,
            "target": 34962
        },
        {
            "buffer": 0,
            "byteOffset": 3696,
            "byteLength": 600,
            "target": 34963
        }
    ],
    "images": [
        {
            "uri": "textures\\spnza_bricks_a_diff.png"
        },
        {
            "uri": "textures\\spnza_bricks_a_spec.png"
        }
    ],
    "materials": [
        {
            "name": "bricks",
            "pbrMetallicRoughness": {
                "baseColorTexture": {
                    "index": 0
                },
                "metallicFactor": 0.0,
                "roughnessFactor": 0.9984999895095825
            },
            "extensions": {
                "KHR_materials_specular": {
                    "specularFactor": 1.0,
                    "specularColorFactor": [
                        0.014999999664723873,
                        0.014999999664723873,
                        0.014999999664723873
                    ],
                    "specularTexture": {
                        "index": 1
                    }
                }
            }
        }
    ],
    "meshes": [
        {
            "name": "sponza_116",
            "primitives": [
                {
                    "extensions": {
                        "FB_ngon_encoding": {}
                    },
                    "mode": 4,
                    "material": 0,
                    "indices": 4,
                    "attributes": {
                        "POSITION": 0,
                        "NORMAL": 1,
                        "TANGENT": 2,
                        "TEXCOORD_0": 3
                    }
                }
            ]
        }
    ],
    "nodes": [
        {
            "name": "sponza_116",
            "mesh": 0
        }
    ],
    "samplers": [
        {},
        {}
    ],
    "scenes": [
        {
            "nodes": [
                0
            ]
        }
    ],
    "textures": [
        {
            "source": 0,
            "sampler": 0
        },
        {
            "source": 1,
            "sampler": 1
        }
    ],
    "scene": 0
}