{
    "asset": {
        "version": "2.0",
        "generator": "Open Asset Import Library (assimp v6.0.44188438)"
    },
    "extensionsUsed": [
        "KHR_materials_specular",
        "KHR_materials_volume",
        "KHR_materials_ior",
        "FB_ngon_encoding"
    ],
    "accessors": [
        {
            "bufferView": 0,
            "byteOffset": 0,
            "componentType": 5126,
            "count": 2313,
            "type": "VEC3",
            "max": [
                176.6826934814453,
                225.1020965576172,
                -214.28709411621094
            ],
            "min": [
                2.2250738585072014e-308,
                2.2250738585072014e-308,
                -333.3700866699219
            ]
        },
        {
            "bufferView": 1,
            "byteOffset": 0,
            "componentType": 5126,
            "count": 2313,
            "type": "VEC3",
            "max": [
                0.9988722801208496,
                0.42401161789894104,
                0.9999887943267822
            ],
            "min": [
                -0.9963774085044861,
                -0.9999297857284546,
                -0.9951112866401672
            ]
        },
        {
            "bufferView": 2,
            "byteOffset": 0,
            "componentType": 5126,
            "count": 2313,
            "type": "VEC3",
            "max": [
                0.999760627746582,
                0.9990671873092651,
                0.9995753169059753
            ],
            "min": [
                -0.9988963603973389,
                -0.9998409152030945,
                -0.9993931651115417
            ]
        },
        {
            "bufferView": 3,
            "byteOffset": 0,
            "componentType": 5126,
            "count": 2313,
            "type": "VEC2",
            "max": [
                0.9225999712944031,
                0.8116999864578247
            ],
            "min": [
                0.0,
                -0.005399942398071289
            ]
        },
        {
            "bufferView": 4,
            "byteOffset": 0,
            "componentType": 5125,
            "count": 9924,
            "type": "SCALAR",
            "max": [
                2312
            ],
            "min": [
                0
            ]
        }
    ],
    "buffers": [
        {
            "byteLength": 141468,
            "uri": "sponza_279.bin"
        }
    ],
    "bufferViews": [
        {
            "buffer": 0,
            "byteOffset": 0,
            "byteLength": 27756,
            "target": 34962
        },
        {
            "buffer": 0,
            "byteOffset": 27756,
            "byteLength": 27756,
            "target": 34962
        },
        {
            "buffer": 0,
            "byteOffset": 55512,
            "byteLength": 27756,
            "target": 34962
        },
        {
            "buffer": 0,
            "byteOffset": 83268,
            "byteLength": 18504,
            "target": 34962
        },
        {
            "buffer": 0,
            "byteOffset": 101772,
            "byteLength": 39696,
            "target": 34963
        }
    ],
    "images": [
        {
            "uri": "textures\\sponza_thorn_diff.png"
        }
    ],
    "materials": [
        {
            "name": "leaf",
            "pbrMetallicRoughness": {
                "baseColorTexture": {
                    "index": 0
                },
                "metallicFactor": 0.0
            },
            "extensions": {
                "KHR_materials_specular": {
                    "specularFactor": 1.0,
                    "specularColorFactor": [
                        0.0,
                        0.0,
                        0.0
                    ]
                }
            }
        }
    ],
    "meshes": [
        {
            "name": "sponza_279",
            "primitives": [
                {
                    "extensions": {
                        "FB_ngon_encoding": {}
                    },
                    "mode": 4,
                    "material": 0,
                    "indices": 4,
                    "attributes": {
                        "POSITION": 0,
                        "NORMAL": 1,
                        "TANGENT": 2,
                        "TEXCOORD_0": 3
                    }
                }
            ]
        }
    ],
    "nodes": [
        {
            "name": "sponza_279",
            "mesh": 0
        }
    ],
    "samplers": [
        {}
    ],
    "scenes": [
        {
            "nodes": [
                0
            ]
        }
    ],
    "textures": [
        {
            "source": 0,
            "sampler": 0
        }
    ],
    "scene": 0
}