{
    "asset": {
        "version": "2.0",
        "generator": "Open Asset Import Library (assimp v6.0.44188438)"
    },
    "extensionsUsed": [
        "KHR_materials_specular",
        "KHR_materials_volume",
        "KHR_materials_ior",
        "FB_ngon_encoding"
    ],
    "accessors": [
        {
            "bufferView": 0,
            "byteOffset": 0,
            "componentType": 5126,
            "count": 212,
            "type": "VEC3",
            "max": [
                892.6567993164063,
                921.728515625,
                225.29530334472656
            ],
            "min": [
                -1022.56689453125,
                2.2250738585072014e-308,
                -295.4941101074219
            ]
        },
        {
            "bufferView": 1,
            "byteOffset": 0,
            "componentType": 5126,
            "count": 212,
            "type": "VEC3",
            "max": [
                1.0,
                0.0,
                1.0
            ],
            "min": [
                -1.0,
                0.0,
                -1.0
            ]
        },
        {
            "bufferView": 2,
            "byteOffset": 0,
            "componentType": 5126,
            "count": 212,
            "type": "VEC3",
            "max": [
                1.0,
                0.00030553070246241987,
                1.0
            ],
            "min": [
                -1.0,
                -0.0002950852212961763,
                -1.0
            ]
        },
        {
            "bufferView": 3,
            "byteOffset": 0,
            "componentType": 5126,
            "count": 212,
            "type": "VEC2",
            "max": [
                32.2869987487793,
                1.0
            ],
            "min": [
                0.0,
                -0.510699987411499
            ]
        },
        {
            "bufferView": 4,
            "byteOffset": 0,
            "componentType": 5125,
            "count": 612,
            "type": "SCALAR",
            "max": [
                211
            ],
            "min": [
                0
            ]
        }
    ],
    "buffers": [
        {
            "byteLength": 11776,
            "uri": "sponza_35.bin"
        }
    ],
    "bufferViews": [
        {
            "buffer": 0,
            "byteOffset": 0,
            "byteLength": 2544,
            "target": 34962
        },
        {
            "buffer": 0,
            "byteOffset": 2544,
            "byteLength": 2544,
            "target": 34962
        },
        {
            "buffer": 0,
            "byteOffset": 5088,
            "byteLength": 2544,
            "target": 34962
        },
        {
            "buffer": 0,
            "byteOffset": 7632,
            "byteLength": 1696,
            "target": 34962
        },
        {
            "buffer": 0,
            "byteOffset": 9328,
            "byteLength": 2448,
            "target": 34963
        }
    ],
    "images": [
        {
            "uri": "textures\\sponza_ceiling_a_diff.png"
        }
    ],
    "materials": [
        {
            "name": "ceiling",
            "pbrMetallicRoughness": {
                "baseColorTexture": {
                    "index": 0
                },
                "metallicFactor": 0.0,
                "roughnessFactor": 0.9990000128746033
            },
            "extensions": {
                "KHR_materials_specular": {
                    "specularFactor": 1.0,
                    "specularColorFactor": [
                        0.009999999776482582,
                        0.009999999776482582,
                        0.009999999776482582
                    ]
                }
            }
        }
    ],
    "meshes": [
        {
            "name": "sponza_35",
            "primitives": [
                {
                    "extensions": {
                        "FB_ngon_encoding": {}
                    },
                    "mode": 4,
                    "material": 0,
                    "indices": 4,
                    "attributes": {
                        "POSITION": 0,
                        "NORMAL": 1,
                        "TANGENT": 2,
                        "TEXCOORD_0": 3
                    }
                }
            ]
        }
    ],
    "nodes": [
        {
            "name": "sponza_35",
            "mesh": 0
        }
    ],
    "samplers": [
        {}
    ],
    "scenes": [
        {
            "nodes": [
                0
            ]
        }
    ],
    "textures": [
        {
            "source": 0,
            "sampler": 0
        }
    ],
    "scene": 0
}