{
    "asset": {
        "version": "2.0",
        "generator": "Open Asset Import Library (assimp v6.0.44188438)"
    },
    "extensionsUsed": [
        "KHR_materials_specular",
        "KHR_materials_volume",
        "KHR_materials_ior",
        "FB_ngon_encoding"
    ],
    "accessors": [
        {
            "bufferView": 0,
            "byteOffset": 0,
            "componentType": 5126,
            "count": 152,
            "type": "VEC3",
            "max": [
                -589.0181274414063,
                217.61180114746094,
                575.4879760742188
            ],
            "min": [
                -649.7213745117188,
                2.2250738585072014e-308,
                2.2250738585072014e-308
            ]
        },
        {
            "bufferView": 1,
            "byteOffset": 0,
            "componentType": 5126,
            "count": 152,
            "type": "VEC3",
            "max": [
                1.0,
                1.0,
                -0.0
            ],
            "min": [
                -1.0,
                -1.0,
                -1.0
            ]
        },
        {
            "bufferView": 2,
            "byteOffset": 0,
            "componentType": 5126,
            "count": 152,
            "type": "VEC3",
            "max": [
                1.0,
                0.564014196395874,
                1.0
            ],
            "min": [
                -1.0,
                -0.3745253086090088,
                -1.0
            ]
        },
        {
            "bufferView": 3,
            "byteOffset": 0,
            "componentType": 5126,
            "count": 152,
            "type": "VEC2",
            "max": [
                0.9958999752998352,
                0.32580000162124634
            ],
            "min": [
                2.2250738585072014e-308,
                2.2250738585072014e-308
            ]
        },
        {
            "bufferView": 4,
            "byteOffset": 0,
            "componentType": 5125,
            "count": 264,
            "type": "SCALAR",
            "max": [
                151
            ],
            "min": [
                0
            ]
        }
    ],
    "buffers": [
        {
            "byteLength": 7744,
            "uri": "sponza_100.bin"
        }
    ],
    "bufferViews": [
        {
            "buffer": 0,
            "byteOffset": 0,
            "byteLength": 1824,
            "target": 34962
        },
        {
            "buffer": 0,
            "byteOffset": 1824,
            "byteLength": 1824,
            "target": 34962
        },
        {
            "buffer": 0,
            "byteOffset": 3648,
            "byteLength": 1824,
            "target": 34962
        },
        {
            "buffer": 0,
            "byteOffset": 5472,
            "byteLength": 1216,
            "target": 34962
        },
        {
            "buffer": 0,
            "byteOffset": 6688,
            "byteLength": 1056,
            "target": 34963
        }
    ],
    "images": [
        {
            "uri": "textures\\sponza_column_c_diff.png"
        }
    ],
    "materials": [
        {
            "name": "column_c",
            "pbrMetallicRoughness": {
                "baseColorTexture": {
                    "index": 0
                },
                "metallicFactor": 0.0,
                "roughnessFactor": 0.9990000128746033
            },
            "extensions": {
                "KHR_materials_specular": {
                    "specularFactor": 1.0,
                    "specularColorFactor": [
                        0.009999999776482582,
                        0.009999999776482582,
                        0.009999999776482582
                    ]
                }
            }
        }
    ],
    "meshes": [
        {
            "name": "sponza_100",
            "primitives": [
                {
                    "extensions": {
                        "FB_ngon_encoding": {}
                    },
                    "mode": 4,
                    "material": 0,
                    "indices": 4,
                    "attributes": {
                        "POSITION": 0,
                        "NORMAL": 1,
                        "TANGENT": 2,
                        "TEXCOORD_0": 3
                    }
                }
            ]
        }
    ],
    "nodes": [
        {
            "name": "sponza_100",
            "mesh": 0
        }
    ],
    "samplers": [
        {}
    ],
    "scenes": [
        {
            "nodes": [
                0
            ]
        }
    ],
    "textures": [
        {
            "source": 0,
            "sampler": 0
        }
    ],
    "scene": 0
}