{
    "asset": {
        "version": "2.0",
        "generator": "Open Asset Import Library (assimp v6.0.44188438)"
    },
    "extensionsUsed": [
        "KHR_materials_specular",
        "KHR_materials_volume",
        "KHR_materials_ior",
        "FB_ngon_encoding"
    ],
    "accessors": [
        {
            "bufferView": 0,
            "byteOffset": 0,
            "componentType": 5126,
            "count": 111,
            "type": "VEC3",
            "max": [
                1303.103515625,
                217.6116943359375,
                575.7254028320313
            ],
            "min": [
                2.2250738585072014e-308,
                2.2250738585072014e-308,
                2.2250738585072014e-308
            ]
        },
        {
            "bufferView": 1,
            "byteOffset": 0,
            "componentType": 5126,
            "count": 111,
            "type": "VEC3",
            "max": [
                0.0,
                1.0,
                -0.0
            ],
            "min": [
                -1.0,
                -1.0,
                -1.0
            ]
        },
        {
            "bufferView": 2,
            "byteOffset": 0,
            "componentType": 5126,
            "count": 111,
            "type": "VEC3",
            "max": [
                1.0,
                0.567872941493988,
                1.0
            ],
            "min": [
                -1.0,
                -0.3586319386959076,
                -1.0
            ]
        },
        {
            "bufferView": 3,
            "byteOffset": 0,
            "componentType": 5126,
            "count": 111,
            "type": "VEC2",
            "max": [
                0.9958999752998352,
                0.32580000162124634
            ],
            "min": [
                2.2250738585072014e-308,
                2.2250738585072014e-308
            ]
        },
        {
            "bufferView": 4,
            "byteOffset": 0,
            "componentType": 5125,
            "count": 222,
            "type": "SCALAR",
            "max": [
                110
            ],
            "min": [
                0
            ]
        }
    ],
    "buffers": [
        {
            "byteLength": 5772,
            "uri": "sponza_97.bin"
        }
    ],
    "bufferViews": [
        {
            "buffer": 0,
            "byteOffset": 0,
            "byteLength": 1332,
            "target": 34962
        },
        {
            "buffer": 0,
            "byteOffset": 1332,
            "byteLength": 1332,
            "target": 34962
        },
        {
            "buffer": 0,
            "byteOffset": 2664,
            "byteLength": 1332,
            "target": 34962
        },
        {
            "buffer": 0,
            "byteOffset": 3996,
            "byteLength": 888,
            "target": 34962
        },
        {
            "buffer": 0,
            "byteOffset": 4884,
            "byteLength": 888,
            "target": 34963
        }
    ],
    "images": [
        {
            "uri": "textures\\sponza_column_c_diff.png"
        }
    ],
    "materials": [
        {
            "name": "column_c",
            "pbrMetallicRoughness": {
                "baseColorTexture": {
                    "index": 0
                },
                "metallicFactor": 0.0,
                "roughnessFactor": 0.9990000128746033
            },
            "extensions": {
                "KHR_materials_specular": {
                    "specularFactor": 1.0,
                    "specularColorFactor": [
                        0.009999999776482582,
                        0.009999999776482582,
                        0.009999999776482582
                    ]
                }
            }
        }
    ],
    "meshes": [
        {
            "name": "sponza_97",
            "primitives": [
                {
                    "extensions": {
                        "FB_ngon_encoding": {}
                    },
                    "mode": 4,
                    "material": 0,
                    "indices": 4,
                    "attributes": {
                        "POSITION": 0,
                        "NORMAL": 1,
                        "TANGENT": 2,
                        "TEXCOORD_0": 3
                    }
                }
            ]
        }
    ],
    "nodes": [
        {
            "name": "sponza_97",
            "mesh": 0
        }
    ],
    "samplers": [
        {}
    ],
    "scenes": [
        {
            "nodes": [
                0
            ]
        }
    ],
    "textures": [
        {
            "source": 0,
            "sampler": 0
        }
    ],
    "scene": 0
}