{
    "asset": {
        "version": "2.0",
        "generator": "Open Asset Import Library (assimp v6.0.ad6e8e21)"
    },
    "extensionsUsed": [
        "KHR_materials_specular",
        "KHR_materials_volume",
        "KHR_materials_ior",
        "FB_ngon_encoding"
    ],
    "accessors": [
        {
            "bufferView": 0,
            "byteOffset": 0,
            "componentType": 5126,
            "count": 184,
            "type": "VEC3",
            "max": [
                -35.787200927734375,
                517.4014892578125,
                -252.23629760742188
            ],
            "min": [
                -90.72720336914063,
                2.2250738585072014e-308,
                -307.1875915527344
            ]
        },
        {
            "bufferView": 1,
            "byteOffset": 0,
            "componentType": 5126,
            "count": 184,
            "type": "VEC3",
            "max": [
                1.0,
                1.0,
                1.0
            ],
            "min": [
                -0.9238766431808472,
                0.0,
                -1.0
            ]
        },
        {
            "bufferView": 2,
            "byteOffset": 0,
            "componentType": 5126,
            "count": 184,
            "type": "VEC3",
            "max": [
                1.0,
                0.6956158876419067,
                0.9238846898078918
            ],
            "min": [
                -1.0,
                -1.0,
                -0.9238846898078918
            ]
        },
        {
            "bufferView": 3,
            "byteOffset": 0,
            "componentType": 5126,
            "count": 184,
            "type": "VEC2",
            "max": [
                0.34880000352859497,
                0.3539000153541565
            ],
            "min": [
                2.2250738585072014e-308,
                2.2250738585072014e-308
            ]
        },
        {
            "bufferView": 4,
            "byteOffset": 0,
            "componentType": 5125,
            "count": 498,
            "type": "SCALAR",
            "max": [
                183
            ],
            "min": [
                0
            ]
        }
    ],
    "buffers": [
        {
            "byteLength": 10088,
            "uri": "sponza_168.bin"
        }
    ],
    "bufferViews": [
        {
            "buffer": 0,
            "byteOffset": 0,
            "byteLength": 2208,
            "target": 34962
        },
        {
            "buffer": 0,
            "byteOffset": 2208,
            "byteLength": 2208,
            "target": 34962
        },
        {
            "buffer": 0,
            "byteOffset": 4416,
            "byteLength": 2208,
            "target": 34962
        },
        {
            "buffer": 0,
            "byteOffset": 6624,
            "byteLength": 1472,
            "target": 34962
        },
        {
            "buffer": 0,
            "byteOffset": 8096,
            "byteLength": 1992,
            "target": 34963
        }
    ],
    "images": [
        {
            "uri": "textures\\sponza_column_b_diff.png"
        }
    ],
    "materials": [
        {
            "name": "column_b",
            "pbrMetallicRoughness": {
                "baseColorTexture": {
                    "index": 0
                },
                "metallicFactor": 0.0
            },
            "extensions": {
                "KHR_materials_specular": {
                    "specularFactor": 1.0,
                    "specularColorFactor": [
                        0.0,
                        0.0,
                        0.0
                    ]
                }
            }
        }
    ],
    "meshes": [
        {
            "name": "sponza_168",
            "primitives": [
                {
                    "extensions": {
                        "FB_ngon_encoding": {}
                    },
                    "mode": 4,
                    "material": 0,
                    "indices": 4,
                    "attributes": {
                        "POSITION": 0,
                        "NORMAL": 1,
                        "TANGENT": 2,
                        "TEXCOORD_0": 3
                    }
                }
            ]
        }
    ],
    "nodes": [
        {
            "name": "sponza_168",
            "mesh": 0
        }
    ],
    "samplers": [
        {}
    ],
    "scenes": [
        {
            "nodes": [
                0
            ]
        }
    ],
    "textures": [
        {
            "source": 0,
            "sampler": 0
        }
    ],
    "scene": 0
}