{
    "asset": {
        "version": "2.0",
        "generator": "Open Asset Import Library (assimp v6.0.44188438)"
    },
    "extensionsUsed": [
        "KHR_materials_specular",
        "KHR_materials_volume",
        "KHR_materials_ior",
        "FB_ngon_encoding"
    ],
    "accessors": [
        {
            "bufferView": 0,
            "byteOffset": 0,
            "componentType": 5126,
            "count": 214,
            "type": "VEC3",
            "max": [
                41.11109924316406,
                243.56430053710938,
                605.0136108398438
            ],
            "min": [
                -170.02490234375,
                -2.1349000930786133,
                2.2250738585072014e-308
            ]
        },
        {
            "bufferView": 1,
            "byteOffset": 0,
            "componentType": 5126,
            "count": 214,
            "type": "VEC3",
            "max": [
                1.0,
                1.0,
                0.02410069853067398
            ],
            "min": [
                -1.0,
                -1.0,
                -1.0
            ]
        },
        {
            "bufferView": 2,
            "byteOffset": 0,
            "componentType": 5126,
            "count": 214,
            "type": "VEC3",
            "max": [
                0.9707093834877014,
                0.9989275932312012,
                1.0
            ],
            "min": [
                -1.0,
                -1.0,
                -1.0
            ]
        },
        {
            "bufferView": 3,
            "byteOffset": 0,
            "componentType": 5126,
            "count": 214,
            "type": "VEC2",
            "max": [
                0.9398000240325928,
                0.9977999925613403
            ],
            "min": [
                2.2250738585072014e-308,
                -0.011399984359741211
            ]
        },
        {
            "bufferView": 4,
            "byteOffset": 0,
            "componentType": 5125,
            "count": 480,
            "type": "SCALAR",
            "max": [
                213
            ],
            "min": [
                0
            ]
        }
    ],
    "buffers": [
        {
            "byteLength": 11336,
            "uri": "sponza_70.bin"
        }
    ],
    "bufferViews": [
        {
            "buffer": 0,
            "byteOffset": 0,
            "byteLength": 2568,
            "target": 34962
        },
        {
            "buffer": 0,
            "byteOffset": 2568,
            "byteLength": 2568,
            "target": 34962
        },
        {
            "buffer": 0,
            "byteOffset": 5136,
            "byteLength": 2568,
            "target": 34962
        },
        {
            "buffer": 0,
            "byteOffset": 7704,
            "byteLength": 1712,
            "target": 34962
        },
        {
            "buffer": 0,
            "byteOffset": 9416,
            "byteLength": 1920,
            "target": 34963
        }
    ],
    "images": [
        {
            "uri": "textures\\sponza_details_diff.png"
        }
    ],
    "materials": [
        {
            "name": "details",
            "pbrMetallicRoughness": {
                "baseColorTexture": {
                    "index": 0
                },
                "metallicFactor": 0.0
            },
            "extensions": {
                "KHR_materials_specular": {
                    "specularFactor": 1.0,
                    "specularColorFactor": [
                        0.0,
                        0.0,
                        0.0
                    ]
                }
            }
        }
    ],
    "meshes": [
        {
            "name": "sponza_70",
            "primitives": [
                {
                    "extensions": {
                        "FB_ngon_encoding": {}
                    },
                    "mode": 4,
                    "material": 0,
                    "indices": 4,
                    "attributes": {
                        "POSITION": 0,
                        "NORMAL": 1,
                        "TANGENT": 2,
                        "TEXCOORD_0": 3
                    }
                }
            ]
        }
    ],
    "nodes": [
        {
            "name": "sponza_70",
            "mesh": 0
        }
    ],
    "samplers": [
        {}
    ],
    "scenes": [
        {
            "nodes": [
                0
            ]
        }
    ],
    "textures": [
        {
            "source": 0,
            "sampler": 0
        }
    ],
    "scene": 0
}