{
    "asset": {
        "version": "2.0",
        "generator": "Open Asset Import Library (assimp v6.0.44188438)"
    },
    "extensionsUsed": [
        "KHR_materials_specular",
        "KHR_materials_volume",
        "KHR_materials_ior",
        "FB_ngon_encoding"
    ],
    "accessors": [
        {
            "bufferView": 0,
            "byteOffset": 0,
            "componentType": 5126,
            "count": 747,
            "type": "VEC3",
            "max": [
                -1401.679931640625,
                758.5531005859375,
                85.7051010131836
            ],
            "min": [
                -1424.663818359375,
                2.2250738585072014e-308,
                -163.38650512695313
            ]
        },
        {
            "bufferView": 1,
            "byteOffset": 0,
            "componentType": 5126,
            "count": 747,
            "type": "VEC3",
            "max": [
                0.9999997615814209,
                0.9717546105384827,
                0.9849668741226196
            ],
            "min": [
                -0.3899024724960327,
                -0.9936175346374512,
                -0.9846128225326538
            ]
        },
        {
            "bufferView": 2,
            "byteOffset": 0,
            "componentType": 5126,
            "count": 747,
            "type": "VEC3",
            "max": [
                0.9975079298019409,
                0.8779937028884888,
                -0.004261546302586794
            ],
            "min": [
                -0.9974117279052734,
                -0.5904879570007324,
                -0.9999691843986511
            ]
        },
        {
            "bufferView": 3,
            "byteOffset": 0,
            "componentType": 5126,
            "count": 747,
            "type": "VEC2",
            "max": [
                0.9911999702453613,
                0.9690999984741211
            ],
            "min": [
                2.2250738585072014e-308,
                2.2250738585072014e-308
            ]
        },
        {
            "bufferView": 4,
            "byteOffset": 0,
            "componentType": 5125,
            "count": 4086,
            "type": "SCALAR",
            "max": [
                746
            ],
            "min": [
                0
            ]
        }
    ],
    "buffers": [
        {
            "byteLength": 49212,
            "uri": "sponza_03.bin"
        }
    ],
    "bufferViews": [
        {
            "buffer": 0,
            "byteOffset": 0,
            "byteLength": 8964,
            "target": 34962
        },
        {
            "buffer": 0,
            "byteOffset": 8964,
            "byteLength": 8964,
            "target": 34962
        },
        {
            "buffer": 0,
            "byteOffset": 17928,
            "byteLength": 8964,
            "target": 34962
        },
        {
            "buffer": 0,
            "byteOffset": 26892,
            "byteLength": 5976,
            "target": 34962
        },
        {
            "buffer": 0,
            "byteOffset": 32868,
            "byteLength": 16344,
            "target": 34963
        }
    ],
    "images": [
        {
            "uri": "textures\\background.png"
        }
    ],
    "materials": [
        {
            "name": "Material__298",
            "pbrMetallicRoughness": {
                "baseColorTexture": {
                    "index": 0
                },
                "metallicFactor": 0.0,
                "roughnessFactor": 0.9990000128746033
            },
            "extensions": {
                "KHR_materials_specular": {
                    "specularFactor": 1.0,
                    "specularColorFactor": [
                        0.009999999776482582,
                        0.009999999776482582,
                        0.009999999776482582
                    ]
                }
            }
        }
    ],
    "meshes": [
        {
            "name": "sponza_03",
            "primitives": [
                {
                    "extensions": {
                        "FB_ngon_encoding": {}
                    },
                    "mode": 4,
                    "material": 0,
                    "indices": 4,
                    "attributes": {
                        "POSITION": 0,
                        "NORMAL": 1,
                        "TANGENT": 2,
                        "TEXCOORD_0": 3
                    }
                }
            ]
        }
    ],
    "nodes": [
        {
            "name": "sponza_03",
            "mesh": 0
        }
    ],
    "samplers": [
        {}
    ],
    "scenes": [
        {
            "nodes": [
                0
            ]
        }
    ],
    "textures": [
        {
            "source": 0,
            "sampler": 0
        }
    ],
    "scene": 0
}