{
    "asset": {
        "version": "2.0",
        "generator": "Open Asset Import Library (assimp v6.0.44188438)"
    },
    "extensionsUsed": [
        "KHR_materials_specular",
        "KHR_materials_volume",
        "KHR_materials_ior",
        "FB_ngon_encoding"
    ],
    "accessors": [
        {
            "bufferView": 0,
            "byteOffset": 0,
            "componentType": 5126,
            "count": 139,
            "type": "VEC3",
            "max": [
                489.53851318359375,
                216.9512939453125,
                170.47560119628906
            ],
            "min": [
                2.2250738585072014e-308,
                2.2250738585072014e-308,
                2.2250738585072014e-308
            ]
        },
        {
            "bufferView": 1,
            "byteOffset": 0,
            "componentType": 5126,
            "count": 139,
            "type": "VEC3",
            "max": [
                0.883045494556427,
                0.9997795224189758,
                0.9987290501594543
            ],
            "min": [
                -0.883045494556427,
                -0.9991956949234009,
                -0.9939541816711426
            ]
        },
        {
            "bufferView": 2,
            "byteOffset": 0,
            "componentType": 5126,
            "count": 139,
            "type": "VEC3",
            "max": [
                0.999231219291687,
                0.38074177503585815,
                -0.0020196158438920975
            ],
            "min": [
                -0.997983455657959,
                -0.3762199580669403,
                -0.9998245239257813
            ]
        },
        {
            "bufferView": 3,
            "byteOffset": 0,
            "componentType": 5126,
            "count": 139,
            "type": "VEC2",
            "max": [
                0.45750001072883606,
                0.22219997644424438
            ],
            "min": [
                2.2250738585072014e-308,
                2.2250738585072014e-308
            ]
        },
        {
            "bufferView": 4,
            "byteOffset": 0,
            "componentType": 5125,
            "count": 810,
            "type": "SCALAR",
            "max": [
                138
            ],
            "min": [
                0
            ]
        }
    ],
    "buffers": [
        {
            "byteLength": 9356,
            "uri": "sponza_365.bin"
        }
    ],
    "bufferViews": [
        {
            "buffer": 0,
            "byteOffset": 0,
            "byteLength": 1668,
            "target": 34962
        },
        {
            "buffer": 0,
            "byteOffset": 1668,
            "byteLength": 1668,
            "target": 34962
        },
        {
            "buffer": 0,
            "byteOffset": 3336,
            "byteLength": 1668,
            "target": 34962
        },
        {
            "buffer": 0,
            "byteOffset": 5004,
            "byteLength": 1112,
            "target": 34962
        },
        {
            "buffer": 0,
            "byteOffset": 6116,
            "byteLength": 3240,
            "target": 34963
        }
    ],
    "images": [
        {
            "uri": "textures\\vase_hanging.png"
        }
    ],
    "materials": [
        {
            "name": "vase_hanging",
            "pbrMetallicRoughness": {
                "baseColorTexture": {
                    "index": 0
                },
                "metallicFactor": 0.0,
                "roughnessFactor": 0.888196587562561
            },
            "extensions": {
                "KHR_materials_specular": {
                    "specularFactor": 1.0,
                    "specularColorFactor": [
                        0.5,
                        0.5,
                        0.5
                    ],
                    "specularTexture": {
                        "index": 0
                    }
                }
            }
        }
    ],
    "meshes": [
        {
            "name": "sponza_365",
            "primitives": [
                {
                    "extensions": {
                        "FB_ngon_encoding": {}
                    },
                    "mode": 4,
                    "material": 0,
                    "indices": 4,
                    "attributes": {
                        "POSITION": 0,
                        "NORMAL": 1,
                        "TANGENT": 2,
                        "TEXCOORD_0": 3
                    }
                }
            ]
        }
    ],
    "nodes": [
        {
            "name": "sponza_365",
            "mesh": 0
        }
    ],
    "samplers": [
        {}
    ],
    "scenes": [
        {
            "nodes": [
                0
            ]
        }
    ],
    "textures": [
        {
            "source": 0,
            "sampler": 0
        }
    ],
    "scene": 0
}