{
    "asset": {
        "version": "2.0",
        "generator": "Open Asset Import Library (assimp v6.0.fb375dd8)"
    },
    "extensionsUsed": [
        "KHR_materials_specular",
        "KHR_materials_volume",
        "KHR_materials_ior",
        "FB_ngon_encoding"
    ],
    "accessors": [
        {
            "bufferView": 0,
            "byteOffset": 0,
            "componentType": 5126,
            "count": 360,
            "type": "VEC3",
            "max": [
                -947.9556274414063,
                220.99710083007813,
                246.61489868164063
            ],
            "min": [
                -1057.22021484375,
                -2.460700035095215,
                2.2250738585072014e-308
            ]
        },
        {
            "bufferView": 1,
            "byteOffset": 0,
            "componentType": 5126,
            "count": 360,
            "type": "VEC3",
            "max": [
                1.0,
                1.0,
                1.0
            ],
            "min": [
                -1.0,
                -1.0,
                -1.0
            ]
        },
        {
            "bufferView": 2,
            "byteOffset": 0,
            "componentType": 5126,
            "count": 360,
            "type": "VEC3",
            "max": [
                1.0,
                0.40237224102020264,
                1.0
            ],
            "min": [
                -1.0,
                -1.0,
                -1.0
            ]
        },
        {
            "bufferView": 3,
            "byteOffset": 0,
            "componentType": 5126,
            "count": 360,
            "type": "VEC3",
            "max": [
                0.9972000122070313,
                0.9908999800682068,
                0.5411999821662903
            ],
            "min": [
                2.2250738585072014e-308,
                2.2250738585072014e-308,
                0.0
            ]
        },
        {
            "bufferView": 4,
            "byteOffset": 0,
            "componentType": 5125,
            "count": 1020,
            "type": "SCALAR",
            "max": [
                359
            ],
            "min": [
                0
            ]
        }
    ],
    "buffers": [
        {
            "byteLength": 21360,
            "uri": "sponza_118.bin"
        }
    ],
    "bufferViews": [
        {
            "buffer": 0,
            "byteOffset": 0,
            "byteLength": 4320,
            "target": 34962
        },
        {
            "buffer": 0,
            "byteOffset": 4320,
            "byteLength": 4320,
            "target": 34962
        },
        {
            "buffer": 0,
            "byteOffset": 8640,
            "byteLength": 4320,
            "target": 34962
        },
        {
            "buffer": 0,
            "byteOffset": 12960,
            "byteLength": 4320,
            "target": 34962
        },
        {
            "buffer": 0,
            "byteOffset": 17280,
            "byteLength": 4080,
            "target": 34963
        }
    ],
    "images": [
        {
            "uri": "textures\\sponza_column_a_diff.png"
        }
    ],
    "materials": [
        {
            "name": "column_a",
            "pbrMetallicRoughness": {
                "baseColorTexture": {
                    "index": 0
                },
                "metallicFactor": 0.0,
                "roughnessFactor": 0.9990000128746033
            },
            "extensions": {
                "KHR_materials_specular": {
                    "specularFactor": 1.0,
                    "specularColorFactor": [
                        0.009999999776482582,
                        0.009999999776482582,
                        0.009999999776482582
                    ]
                }
            }
        }
    ],
    "meshes": [
        {
            "name": "sponza_118",
            "primitives": [
                {
                    "extensions": {
                        "FB_ngon_encoding": {}
                    },
                    "mode": 4,
                    "material": 0,
                    "indices": 4,
                    "attributes": {
                        "POSITION": 0,
                        "NORMAL": 1,
                        "TANGENT": 2,
                        "TEXCOORD_0": 3
                    }
                }
            ]
        }
    ],
    "nodes": [
        {
            "name": "sponza_118",
            "mesh": 0
        }
    ],
    "samplers": [
        {}
    ],
    "scenes": [
        {
            "nodes": [
                0
            ]
        }
    ],
    "textures": [
        {
            "source": 0,
            "sampler": 0
        }
    ],
    "scene": 0
}