{
    "asset": {
        "version": "2.0",
        "generator": "Open Asset Import Library (assimp v6.0.fb375dd8)"
    },
    "extensionsUsed": [
        "KHR_materials_specular",
        "KHR_materials_volume",
        "KHR_materials_ior",
        "FB_ngon_encoding"
    ],
    "accessors": [
        {
            "bufferView": 0,
            "byteOffset": 0,
            "componentType": 5126,
            "count": 54,
            "type": "VEC3",
            "max": [
                -989.3203125,
                680.984619140625,
                -31.900800704956055
            ],
            "min": [
                -1001.5684204101563,
                2.2250738585072014e-308,
                -37.85540008544922
            ]
        },
        {
            "bufferView": 1,
            "byteOffset": 0,
            "componentType": 5126,
            "count": 54,
            "type": "VEC3",
            "max": [
                0.9988808035850525,
                0.6518449783325195,
                1.0
            ],
            "min": [
                -0.8436326384544373,
                -0.9818034172058105,
                -1.0
            ]
        },
        {
            "bufferView": 2,
            "byteOffset": 0,
            "componentType": 5126,
            "count": 54,
            "type": "VEC3",
            "max": [
                0.3401995003223419,
                0.15655267238616943,
                0.9998875856399536
            ],
            "min": [
                -0.9879348278045654,
                -0.9477624893188477,
                0.0
            ]
        },
        {
            "bufferView": 3,
            "byteOffset": 0,
            "componentType": 5126,
            "count": 54,
            "type": "VEC2",
            "max": [
                0.23569999635219574,
                0.8077999949455261
            ],
            "min": [
                2.2250738585072014e-308,
                2.2250738585072014e-308
            ]
        },
        {
            "bufferView": 4,
            "byteOffset": 0,
            "componentType": 5125,
            "count": 132,
            "type": "SCALAR",
            "max": [
                53
            ],
            "min": [
                0
            ]
        }
    ],
    "buffers": [
        {
            "byteLength": 2904,
            "uri": "sponza_129.bin"
        }
    ],
    "bufferViews": [
        {
            "buffer": 0,
            "byteOffset": 0,
            "byteLength": 648,
            "target": 34962
        },
        {
            "buffer": 0,
            "byteOffset": 648,
            "byteLength": 648,
            "target": 34962
        },
        {
            "buffer": 0,
            "byteOffset": 1296,
            "byteLength": 648,
            "target": 34962
        },
        {
            "buffer": 0,
            "byteOffset": 1944,
            "byteLength": 432,
            "target": 34962
        },
        {
            "buffer": 0,
            "byteOffset": 2376,
            "byteLength": 528,
            "target": 34963
        }
    ],
    "images": [
        {
            "uri": "textures\\sponza_column_b_diff.png"
        }
    ],
    "materials": [
        {
            "name": "column_b",
            "pbrMetallicRoughness": {
                "baseColorTexture": {
                    "index": 0
                },
                "metallicFactor": 0.0
            },
            "extensions": {
                "KHR_materials_specular": {
                    "specularFactor": 1.0,
                    "specularColorFactor": [
                        0.0,
                        0.0,
                        0.0
                    ]
                }
            }
        }
    ],
    "meshes": [
        {
            "name": "sponza_129",
            "primitives": [
                {
                    "extensions": {
                        "FB_ngon_encoding": {}
                    },
                    "mode": 4,
                    "material": 0,
                    "indices": 4,
                    "attributes": {
                        "POSITION": 0,
                        "NORMAL": 1,
                        "TANGENT": 2,
                        "TEXCOORD_0": 3
                    }
                }
            ]
        }
    ],
    "nodes": [
        {
            "name": "sponza_129",
            "mesh": 0
        }
    ],
    "samplers": [
        {}
    ],
    "scenes": [
        {
            "nodes": [
                0
            ]
        }
    ],
    "textures": [
        {
            "source": 0,
            "sampler": 0
        }
    ],
    "scene": 0
}