{
    "asset": {
        "version": "2.0",
        "generator": "Open Asset Import Library (assimp v6.0.b447485c)"
    },
    "extensionsUsed": [
        "KHR_materials_specular",
        "KHR_materials_volume",
        "KHR_materials_ior",
        "FB_ngon_encoding"
    ],
    "accessors": [
        {
            "bufferView": 0,
            "byteOffset": 0,
            "componentType": 5126,
            "count": 450,
            "type": "VEC3",
            "max": [
                861.8858032226563,
                70.95819854736328,
                -193.55690002441406
            ],
            "min": [
                2.2250738585072014e-308,
                2.2250738585072014e-308,
                -250.7406005859375
            ]
        },
        {
            "bufferView": 1,
            "byteOffset": 0,
            "componentType": 5126,
            "count": 450,
            "type": "VEC3",
            "max": [
                0.9681245684623718,
                0.9997761845588684,
                0.9530946612358093
            ],
            "min": [
                -0.9192785620689392,
                2.2250738585072014e-308,
                -0.7820765376091003
            ]
        },
        {
            "bufferView": 2,
            "byteOffset": 0,
            "componentType": 5126,
            "count": 450,
            "type": "VEC3",
            "max": [
                1.0,
                0.9914392232894897,
                0.9998758435249329
            ],
            "min": [
                -0.9997134804725647,
                -0.9561859965324402,
                -0.9999932050704956
            ]
        },
        {
            "bufferView": 3,
            "byteOffset": 0,
            "componentType": 5126,
            "count": 450,
            "type": "VEC2",
            "max": [
                0.9966999888420105,
                0.9972000122070313
            ],
            "min": [
                0.0,
                -0.00010001659393310547
            ]
        },
        {
            "bufferView": 4,
            "byteOffset": 0,
            "componentType": 5125,
            "count": 1200,
            "type": "SCALAR",
            "max": [
                449
            ],
            "min": [
                0
            ]
        }
    ],
    "buffers": [
        {
            "byteLength": 24600,
            "uri": "sponza_371.bin"
        }
    ],
    "bufferViews": [
        {
            "buffer": 0,
            "byteOffset": 0,
            "byteLength": 5400,
            "target": 34962
        },
        {
            "buffer": 0,
            "byteOffset": 5400,
            "byteLength": 5400,
            "target": 34962
        },
        {
            "buffer": 0,
            "byteOffset": 10800,
            "byteLength": 5400,
            "target": 34962
        },
        {
            "buffer": 0,
            "byteOffset": 16200,
            "byteLength": 3600,
            "target": 34962
        },
        {
            "buffer": 0,
            "byteOffset": 19800,
            "byteLength": 4800,
            "target": 34963
        }
    ],
    "images": [
        {
            "uri": "textures\\vase_plant.png"
        }
    ],
    "materials": [
        {
            "name": "Material__57",
            "pbrMetallicRoughness": {
                "baseColorTexture": {
                    "index": 0
                },
                "metallicFactor": 0.0
            },
            "extensions": {
                "KHR_materials_specular": {
                    "specularFactor": 1.0,
                    "specularColorFactor": [
                        0.0,
                        0.0,
                        0.0
                    ]
                }
            }
        }
    ],
    "meshes": [
        {
            "name": "sponza_371",
            "primitives": [
                {
                    "extensions": {
                        "FB_ngon_encoding": {}
                    },
                    "mode": 4,
                    "material": 0,
                    "indices": 4,
                    "attributes": {
                        "POSITION": 0,
                        "NORMAL": 1,
                        "TANGENT": 2,
                        "TEXCOORD_0": 3
                    }
                }
            ]
        }
    ],
    "nodes": [
        {
            "name": "sponza_371",
            "mesh": 0
        }
    ],
    "samplers": [
        {}
    ],
    "scenes": [
        {
            "nodes": [
                0
            ]
        }
    ],
    "textures": [
        {
            "source": 0,
            "sampler": 0
        }
    ],
    "scene": 0
}