{
    "asset": {
        "version": "2.0",
        "generator": "Open Asset Import Library (assimp v6.0.fb375dd8)"
    },
    "extensionsUsed": [
        "KHR_materials_specular",
        "KHR_materials_volume",
        "KHR_materials_ior",
        "FB_ngon_encoding"
    ],
    "accessors": [
        {
            "bufferView": 0,
            "byteOffset": 0,
            "componentType": 5126,
            "count": 533,
            "type": "VEC3",
            "max": [
                -209.1302032470703,
                69.36119842529297,
                187.85159301757813
            ],
            "min": [
                -277.3555908203125,
                2.2250738585072014e-308,
                2.2250738585072014e-308
            ]
        },
        {
            "bufferView": 1,
            "byteOffset": 0,
            "componentType": 5126,
            "count": 533,
            "type": "VEC3",
            "max": [
                0.8275108337402344,
                0.9996259808540344,
                0.9830580353736877
            ],
            "min": [
                -0.9425850510597229,
                2.2250738585072014e-308,
                -0.9400492906570435
            ]
        },
        {
            "bufferView": 2,
            "byteOffset": 0,
            "componentType": 5126,
            "count": 533,
            "type": "VEC3",
            "max": [
                0.9999908804893494,
                0.9940471649169922,
                1.0
            ],
            "min": [
                -0.9998880624771118,
                -0.9690702557563782,
                -0.9995862245559692
            ]
        },
        {
            "bufferView": 3,
            "byteOffset": 0,
            "componentType": 5126,
            "count": 533,
            "type": "VEC2",
            "max": [
                1.0016000270843506,
                0.9972000122070313
            ],
            "min": [
                0.0,
                -0.00279998779296875
            ]
        },
        {
            "bufferView": 4,
            "byteOffset": 0,
            "componentType": 5125,
            "count": 1404,
            "type": "SCALAR",
            "max": [
                532
            ],
            "min": [
                0
            ]
        }
    ],
    "buffers": [
        {
            "byteLength": 29068,
            "uri": "sponza_368.bin"
        }
    ],
    "bufferViews": [
        {
            "buffer": 0,
            "byteOffset": 0,
            "byteLength": 6396,
            "target": 34962
        },
        {
            "buffer": 0,
            "byteOffset": 6396,
            "byteLength": 6396,
            "target": 34962
        },
        {
            "buffer": 0,
            "byteOffset": 12792,
            "byteLength": 6396,
            "target": 34962
        },
        {
            "buffer": 0,
            "byteOffset": 19188,
            "byteLength": 4264,
            "target": 34962
        },
        {
            "buffer": 0,
            "byteOffset": 23452,
            "byteLength": 5616,
            "target": 34963
        }
    ],
    "images": [
        {
            "uri": "textures\\vase_plant.png"
        }
    ],
    "materials": [
        {
            "name": "Material__57",
            "pbrMetallicRoughness": {
                "baseColorTexture": {
                    "index": 0
                },
                "metallicFactor": 0.0
            },
            "extensions": {
                "KHR_materials_specular": {
                    "specularFactor": 1.0,
                    "specularColorFactor": [
                        0.0,
                        0.0,
                        0.0
                    ]
                }
            }
        }
    ],
    "meshes": [
        {
            "name": "sponza_368",
            "primitives": [
                {
                    "extensions": {
                        "FB_ngon_encoding": {}
                    },
                    "mode": 4,
                    "material": 0,
                    "indices": 4,
                    "attributes": {
                        "POSITION": 0,
                        "NORMAL": 1,
                        "TANGENT": 2,
                        "TEXCOORD_0": 3
                    }
                }
            ]
        }
    ],
    "nodes": [
        {
            "name": "sponza_368",
            "mesh": 0
        }
    ],
    "samplers": [
        {}
    ],
    "scenes": [
        {
            "nodes": [
                0
            ]
        }
    ],
    "textures": [
        {
            "source": 0,
            "sampler": 0
        }
    ],
    "scene": 0
}