{
    "asset": {
        "version": "2.0",
        "generator": "Open Asset Import Library (assimp v6.0.fb375dd8)"
    },
    "extensionsUsed": [
        "KHR_materials_specular",
        "KHR_materials_volume",
        "KHR_materials_ior",
        "FB_ngon_encoding"
    ],
    "accessors": [
        {
            "bufferView": 0,
            "byteOffset": 0,
            "componentType": 5126,
            "count": 209,
            "type": "VEC3",
            "max": [
                -581.4661254882813,
                220.99710083007813,
                -240.0135040283203
            ],
            "min": [
                -658.3441772460938,
                -2.460700035095215,
                -316.76739501953125
            ]
        },
        {
            "bufferView": 1,
            "byteOffset": 0,
            "componentType": 5126,
            "count": 209,
            "type": "VEC3",
            "max": [
                1.0,
                1.0,
                1.0
            ],
            "min": [
                -1.0,
                -1.0,
                -1.0
            ]
        },
        {
            "bufferView": 2,
            "byteOffset": 0,
            "componentType": 5126,
            "count": 209,
            "type": "VEC3",
            "max": [
                0.9999855160713196,
                0.15531794726848602,
                1.0
            ],
            "min": [
                -1.0,
                -1.0,
                -1.0
            ]
        },
        {
            "bufferView": 3,
            "byteOffset": 0,
            "componentType": 5126,
            "count": 209,
            "type": "VEC3",
            "max": [
                0.9934999942779541,
                0.9939000010490417,
                0.5411999821662903
            ],
            "min": [
                2.2250738585072014e-308,
                2.2250738585072014e-308,
                0.0
            ]
        },
        {
            "bufferView": 4,
            "byteOffset": 0,
            "componentType": 5125,
            "count": 546,
            "type": "SCALAR",
            "max": [
                208
            ],
            "min": [
                0
            ]
        }
    ],
    "buffers": [
        {
            "byteLength": 12216,
            "uri": "sponza_13.bin"
        }
    ],
    "bufferViews": [
        {
            "buffer": 0,
            "byteOffset": 0,
            "byteLength": 2508,
            "target": 34962
        },
        {
            "buffer": 0,
            "byteOffset": 2508,
            "byteLength": 2508,
            "target": 34962
        },
        {
            "buffer": 0,
            "byteOffset": 5016,
            "byteLength": 2508,
            "target": 34962
        },
        {
            "buffer": 0,
            "byteOffset": 7524,
            "byteLength": 2508,
            "target": 34962
        },
        {
            "buffer": 0,
            "byteOffset": 10032,
            "byteLength": 2184,
            "target": 34963
        }
    ],
    "images": [
        {
            "uri": "textures\\sponza_column_a_diff.png"
        }
    ],
    "materials": [
        {
            "name": "column_a",
            "pbrMetallicRoughness": {
                "baseColorTexture": {
                    "index": 0
                },
                "metallicFactor": 0.0,
                "roughnessFactor": 0.9990000128746033
            },
            "extensions": {
                "KHR_materials_specular": {
                    "specularFactor": 1.0,
                    "specularColorFactor": [
                        0.009999999776482582,
                        0.009999999776482582,
                        0.009999999776482582
                    ]
                }
            }
        }
    ],
    "meshes": [
        {
            "name": "sponza_13",
            "primitives": [
                {
                    "extensions": {
                        "FB_ngon_encoding": {}
                    },
                    "mode": 4,
                    "material": 0,
                    "indices": 4,
                    "attributes": {
                        "POSITION": 0,
                        "NORMAL": 1,
                        "TANGENT": 2,
                        "TEXCOORD_0": 3
                    }
                }
            ]
        }
    ],
    "nodes": [
        {
            "name": "sponza_13",
            "mesh": 0
        }
    ],
    "samplers": [
        {}
    ],
    "scenes": [
        {
            "nodes": [
                0
            ]
        }
    ],
    "textures": [
        {
            "source": 0,
            "sampler": 0
        }
    ],
    "scene": 0
}