{
    "asset": {
        "version": "2.0",
        "generator": "Open Asset Import Library (assimp v6.0.fb375dd8)"
    },
    "extensionsUsed": [
        "KHR_materials_specular",
        "KHR_materials_volume",
        "KHR_materials_ior",
        "FB_ngon_encoding"
    ],
    "accessors": [
        {
            "bufferView": 0,
            "byteOffset": 0,
            "componentType": 5126,
            "count": 864,
            "type": "VEC3",
            "max": [
                1299.0263671875,
                264.7611999511719,
                41.46760177612305
            ],
            "min": [
                2.2250738585072014e-308,
                2.2250738585072014e-308,
                -114.69149780273438
            ]
        },
        {
            "bufferView": 1,
            "byteOffset": 0,
            "componentType": 5126,
            "count": 864,
            "type": "VEC3",
            "max": [
                0.6893880367279053,
                0.9957492351531982,
                0.9898309111595154
            ],
            "min": [
                -0.9999991655349731,
                -0.9999133348464966,
                -0.990878701210022
            ]
        },
        {
            "bufferView": 2,
            "byteOffset": 0,
            "componentType": 5126,
            "count": 864,
            "type": "VEC3",
            "max": [
                0.9969164729118347,
                0.8997079730033875,
                0.9999395608901978
            ],
            "min": [
                -0.9963212609291077,
                -0.8021121025085449,
                -0.9859894514083862
            ]
        },
        {
            "bufferView": 3,
            "byteOffset": 0,
            "componentType": 5126,
            "count": 864,
            "type": "VEC2",
            "max": [
                0.9639000296592712,
                0.9860000014305115
            ],
            "min": [
                2.2250738585072014e-308,
                2.2250738585072014e-308
            ]
        },
        {
            "bufferView": 4,
            "byteOffset": 0,
            "componentType": 5125,
            "count": 4563,
            "type": "SCALAR",
            "max": [
                863
            ],
            "min": [
                0
            ]
        }
    ],
    "buffers": [
        {
            "byteLength": 56268,
            "uri": "sponza_377.bin"
        }
    ],
    "bufferViews": [
        {
            "buffer": 0,
            "byteOffset": 0,
            "byteLength": 10368,
            "target": 34962
        },
        {
            "buffer": 0,
            "byteOffset": 10368,
            "byteLength": 10368,
            "target": 34962
        },
        {
            "buffer": 0,
            "byteOffset": 20736,
            "byteLength": 10368,
            "target": 34962
        },
        {
            "buffer": 0,
            "byteOffset": 31104,
            "byteLength": 6912,
            "target": 34962
        },
        {
            "buffer": 0,
            "byteOffset": 38016,
            "byteLength": 18252,
            "target": 34963
        }
    ],
    "images": [
        {
            "uri": "textures\\lion.png"
        }
    ],
    "materials": [
        {
            "name": "Material__25",
            "pbrMetallicRoughness": {
                "baseColorTexture": {
                    "index": 0
                },
                "metallicFactor": 0.0,
                "roughnessFactor": 0.9990000128746033
            },
            "extensions": {
                "KHR_materials_specular": {
                    "specularFactor": 1.0,
                    "specularColorFactor": [
                        0.009999999776482582,
                        0.009999999776482582,
                        0.009999999776482582
                    ]
                }
            }
        }
    ],
    "meshes": [
        {
            "name": "sponza_377",
            "primitives": [
                {
                    "extensions": {
                        "FB_ngon_encoding": {}
                    },
                    "mode": 4,
                    "material": 0,
                    "indices": 4,
                    "attributes": {
                        "POSITION": 0,
                        "NORMAL": 1,
                        "TANGENT": 2,
                        "TEXCOORD_0": 3
                    }
                }
            ]
        }
    ],
    "nodes": [
        {
            "name": "sponza_377",
            "mesh": 0
        }
    ],
    "samplers": [
        {}
    ],
    "scenes": [
        {
            "nodes": [
                0
            ]
        }
    ],
    "textures": [
        {
            "source": 0,
            "sampler": 0
        }
    ],
    "scene": 0
}