{
    "asset": {
        "version": "2.0",
        "generator": "Open Asset Import Library (assimp v6.0.fb375dd8)"
    },
    "extensionsUsed": [
        "KHR_materials_specular",
        "KHR_materials_volume",
        "KHR_materials_ior",
        "FB_ngon_encoding"
    ],
    "accessors": [
        {
            "bufferView": 0,
            "byteOffset": 0,
            "componentType": 5126,
            "count": 56,
            "type": "VEC3",
            "max": [
                997.59619140625,
                1314.490234375,
                318.9007873535156
            ],
            "min": [
                -1086.4228515625,
                2.2250738585072014e-308,
                -408.14678955078125
            ]
        },
        {
            "bufferView": 1,
            "byteOffset": 0,
            "componentType": 5126,
            "count": 56,
            "type": "VEC3",
            "max": [
                1.0,
                1.0,
                1.0
            ],
            "min": [
                -1.0,
                -0.9941622018814087,
                -1.0
            ]
        },
        {
            "bufferView": 2,
            "byteOffset": 0,
            "componentType": 5126,
            "count": 56,
            "type": "VEC3",
            "max": [
                1.0,
                1.0,
                0.00013649214815814048
            ],
            "min": [
                0.0,
                -1.0,
                -0.00009163504728348926
            ]
        },
        {
            "bufferView": 3,
            "byteOffset": 0,
            "componentType": 5126,
            "count": 56,
            "type": "VEC2",
            "max": [
                6.016300201416016,
                1.0
            ],
            "min": [
                0.0,
                -3.6834001541137695
            ]
        },
        {
            "bufferView": 4,
            "byteOffset": 0,
            "componentType": 5125,
            "count": 96,
            "type": "SCALAR",
            "max": [
                55
            ],
            "min": [
                0
            ]
        }
    ],
    "buffers": [
        {
            "byteLength": 2848,
            "uri": "sponza_66.bin"
        }
    ],
    "bufferViews": [
        {
            "buffer": 0,
            "byteOffset": 0,
            "byteLength": 672,
            "target": 34962
        },
        {
            "buffer": 0,
            "byteOffset": 672,
            "byteLength": 672,
            "target": 34962
        },
        {
            "buffer": 0,
            "byteOffset": 1344,
            "byteLength": 672,
            "target": 34962
        },
        {
            "buffer": 0,
            "byteOffset": 2016,
            "byteLength": 448,
            "target": 34962
        },
        {
            "buffer": 0,
            "byteOffset": 2464,
            "byteLength": 384,
            "target": 34963
        }
    ],
    "images": [
        {
            "uri": "textures\\spnza_bricks_a_diff.png"
        },
        {
            "uri": "textures\\spnza_bricks_a_spec.png"
        }
    ],
    "materials": [
        {
            "name": "bricks",
            "pbrMetallicRoughness": {
                "baseColorTexture": {
                    "index": 0
                },
                "metallicFactor": 0.0,
                "roughnessFactor": 0.9984999895095825
            },
            "extensions": {
                "KHR_materials_specular": {
                    "specularFactor": 1.0,
                    "specularColorFactor": [
                        0.014999999664723873,
                        0.014999999664723873,
                        0.014999999664723873
                    ],
                    "specularTexture": {
                        "index": 1
                    }
                }
            }
        }
    ],
    "meshes": [
        {
            "name": "sponza_66",
            "primitives": [
                {
                    "extensions": {
                        "FB_ngon_encoding": {}
                    },
                    "mode": 4,
                    "material": 0,
                    "indices": 4,
                    "attributes": {
                        "POSITION": 0,
                        "NORMAL": 1,
                        "TANGENT": 2,
                        "TEXCOORD_0": 3
                    }
                }
            ]
        }
    ],
    "nodes": [
        {
            "name": "sponza_66",
            "mesh": 0
        }
    ],
    "samplers": [
        {},
        {}
    ],
    "scenes": [
        {
            "nodes": [
                0
            ]
        }
    ],
    "textures": [
        {
            "source": 0,
            "sampler": 0
        },
        {
            "source": 1,
            "sampler": 1
        }
    ],
    "scene": 0
}