{
    "asset": {
        "version": "2.0",
        "generator": "Open Asset Import Library (assimp v6.0.b447485c)"
    },
    "extensionsUsed": [
        "KHR_materials_specular",
        "KHR_materials_volume",
        "KHR_materials_ior",
        "FB_ngon_encoding"
    ],
    "accessors": [
        {
            "bufferView": 0,
            "byteOffset": 0,
            "componentType": 5126,
            "count": 62,
            "type": "VEC3",
            "max": [
                -996.5863037109375,
                1008.83642578125,
                10.976799964904785
            ],
            "min": [
                -1030.053955078125,
                2.2250738585072014e-308,
                -79.35279846191406
            ]
        },
        {
            "bufferView": 1,
            "byteOffset": 0,
            "componentType": 5126,
            "count": 62,
            "type": "VEC3",
            "max": [
                1.0,
                1.0,
                1.0
            ],
            "min": [
                0.0,
                -1.0,
                -1.0
            ]
        },
        {
            "bufferView": 2,
            "byteOffset": 0,
            "componentType": 5126,
            "count": 62,
            "type": "VEC3",
            "max": [
                0.0,
                0.0,
                1.0
            ],
            "min": [
                0.0,
                -1.0,
                -1.0
            ]
        },
        {
            "bufferView": 3,
            "byteOffset": 0,
            "componentType": 5126,
            "count": 62,
            "type": "VEC2",
            "max": [
                0.9965000152587891,
                0.9362000226974487
            ],
            "min": [
                2.2250738585072014e-308,
                2.2250738585072014e-308
            ]
        },
        {
            "bufferView": 4,
            "byteOffset": 0,
            "componentType": 5125,
            "count": 120,
            "type": "SCALAR",
            "max": [
                61
            ],
            "min": [
                0
            ]
        }
    ],
    "buffers": [
        {
            "byteLength": 3208,
            "uri": "sponza_60.bin"
        }
    ],
    "bufferViews": [
        {
            "buffer": 0,
            "byteOffset": 0,
            "byteLength": 744,
            "target": 34962
        },
        {
            "buffer": 0,
            "byteOffset": 744,
            "byteLength": 744,
            "target": 34962
        },
        {
            "buffer": 0,
            "byteOffset": 1488,
            "byteLength": 744,
            "target": 34962
        },
        {
            "buffer": 0,
            "byteOffset": 2232,
            "byteLength": 496,
            "target": 34962
        },
        {
            "buffer": 0,
            "byteOffset": 2728,
            "byteLength": 480,
            "target": 34963
        }
    ],
    "images": [
        {
            "uri": "textures\\sponza_arch_diff.png"
        }
    ],
    "materials": [
        {
            "name": "arch",
            "pbrMetallicRoughness": {
                "baseColorTexture": {
                    "index": 0
                },
                "metallicFactor": 0.0,
                "roughnessFactor": 0.9800000190734863
            },
            "extensions": {
                "KHR_materials_specular": {
                    "specularFactor": 1.0,
                    "specularColorFactor": [
                        0.10000000149011612,
                        0.10000000149011612,
                        0.10000000149011612
                    ]
                }
            }
        }
    ],
    "meshes": [
        {
            "name": "sponza_60",
            "primitives": [
                {
                    "extensions": {
                        "FB_ngon_encoding": {}
                    },
                    "mode": 4,
                    "material": 0,
                    "indices": 4,
                    "attributes": {
                        "POSITION": 0,
                        "NORMAL": 1,
                        "TANGENT": 2,
                        "TEXCOORD_0": 3
                    }
                }
            ]
        }
    ],
    "nodes": [
        {
            "name": "sponza_60",
            "mesh": 0
        }
    ],
    "samplers": [
        {}
    ],
    "scenes": [
        {
            "nodes": [
                0
            ]
        }
    ],
    "textures": [
        {
            "source": 0,
            "sampler": 0
        }
    ],
    "scene": 0
}