{
    "asset": {
        "version": "2.0",
        "generator": "Open Asset Import Library (assimp v6.0.fb375dd8)"
    },
    "extensionsUsed": [
        "KHR_materials_specular",
        "KHR_materials_volume",
        "KHR_materials_ior",
        "FB_ngon_encoding"
    ],
    "accessors": [
        {
            "bufferView": 0,
            "byteOffset": 0,
            "componentType": 5126,
            "count": 10542,
            "type": "VEC3",
            "max": [
                1319.2879638671875,
                1429.4332275390625,
                625.9569091796875
            ],
            "min": [
                -1442.185302734375,
                2.2250738585072014e-308,
                -701.6911010742188
            ]
        },
        {
            "bufferView": 1,
            "byteOffset": 0,
            "componentType": 5126,
            "count": 10542,
            "type": "VEC3",
            "max": [
                0.9992663860321045,
                0.9999995231628418,
                0.9979945421218872
            ],
            "min": [
                -0.9982460737228394,
                -0.9999997615814209,
                -0.9980120658874512
            ]
        },
        {
            "bufferView": 2,
            "byteOffset": 0,
            "componentType": 5126,
            "count": 10542,
            "type": "VEC3",
            "max": [
                0.9999969601631165,
                0.9934468865394592,
                0.9999809861183167
            ],
            "min": [
                -0.9999969601631165,
                -0.9998503923416138,
                -1.0
            ]
        },
        {
            "bufferView": 3,
            "byteOffset": 0,
            "componentType": 5126,
            "count": 10542,
            "type": "VEC2",
            "max": [
                0.996399998664856,
                0.9717999696731567
            ],
            "min": [
                2.2250738585072014e-308,
                0.0
            ]
        },
        {
            "bufferView": 4,
            "byteOffset": 0,
            "componentType": 5125,
            "count": 41964,
            "type": "SCALAR",
            "max": [
                10541
            ],
            "min": [
                0
            ]
        }
    ],
    "buffers": [
        {
            "byteLength": 631704,
            "uri": "sponza_381.bin"
        }
    ],
    "bufferViews": [
        {
            "buffer": 0,
            "byteOffset": 0,
            "byteLength": 126504,
            "target": 34962
        },
        {
            "buffer": 0,
            "byteOffset": 126504,
            "byteLength": 126504,
            "target": 34962
        },
        {
            "buffer": 0,
            "byteOffset": 253008,
            "byteLength": 126504,
            "target": 34962
        },
        {
            "buffer": 0,
            "byteOffset": 379512,
            "byteLength": 84336,
            "target": 34962
        },
        {
            "buffer": 0,
            "byteOffset": 463848,
            "byteLength": 167856,
            "target": 34963
        }
    ],
    "images": [
        {
            "uri": "textures\\sponza_roof_diff.png"
        }
    ],
    "materials": [
        {
            "name": "roof",
            "pbrMetallicRoughness": {
                "baseColorTexture": {
                    "index": 0
                },
                "metallicFactor": 0.0
            },
            "extensions": {
                "KHR_materials_specular": {
                    "specularFactor": 1.0,
                    "specularColorFactor": [
                        0.0,
                        0.0,
                        0.0
                    ]
                }
            }
        }
    ],
    "meshes": [
        {
            "name": "sponza_381",
            "primitives": [
                {
                    "extensions": {
                        "FB_ngon_encoding": {}
                    },
                    "mode": 4,
                    "material": 0,
                    "indices": 4,
                    "attributes": {
                        "POSITION": 0,
                        "NORMAL": 1,
                        "TANGENT": 2,
                        "TEXCOORD_0": 3
                    }
                }
            ]
        }
    ],
    "nodes": [
        {
            "name": "sponza_381",
            "mesh": 0
        }
    ],
    "samplers": [
        {}
    ],
    "scenes": [
        {
            "nodes": [
                0
            ]
        }
    ],
    "textures": [
        {
            "source": 0,
            "sampler": 0
        }
    ],
    "scene": 0
}