{
    "asset": {
        "version": "2.0",
        "generator": "Open Asset Import Library (assimp v6.0.b447485c)"
    },
    "extensionsUsed": [
        "KHR_materials_specular",
        "KHR_materials_volume",
        "KHR_materials_ior",
        "FB_ngon_encoding"
    ],
    "accessors": [
        {
            "bufferView": 0,
            "byteOffset": 0,
            "componentType": 5126,
            "count": 446,
            "type": "VEC3",
            "max": [
                -581.040771484375,
                695.3228149414063,
                243.35009765625
            ],
            "min": [
                -655.6129760742188,
                2.2250738585072014e-308,
                2.2250738585072014e-308
            ]
        },
        {
            "bufferView": 1,
            "byteOffset": 0,
            "componentType": 5126,
            "count": 446,
            "type": "VEC3",
            "max": [
                1.0,
                1.0,
                1.0
            ],
            "min": [
                -1.0,
                -1.0,
                -1.0
            ]
        },
        {
            "bufferView": 2,
            "byteOffset": 0,
            "componentType": 5126,
            "count": 446,
            "type": "VEC3",
            "max": [
                1.0,
                0.5361748337745667,
                1.0
            ],
            "min": [
                -1.0,
                -0.4816110134124756,
                -1.0
            ]
        },
        {
            "bufferView": 3,
            "byteOffset": 0,
            "componentType": 5126,
            "count": 446,
            "type": "VEC2",
            "max": [
                0.9958999752998352,
                0.9937999844551086
            ],
            "min": [
                2.2250738585072014e-308,
                2.2250738585072014e-308
            ]
        },
        {
            "bufferView": 4,
            "byteOffset": 0,
            "componentType": 5125,
            "count": 786,
            "type": "SCALAR",
            "max": [
                445
            ],
            "min": [
                0
            ]
        }
    ],
    "buffers": [
        {
            "byteLength": 22768,
            "uri": "sponza_23.bin"
        }
    ],
    "bufferViews": [
        {
            "buffer": 0,
            "byteOffset": 0,
            "byteLength": 5352,
            "target": 34962
        },
        {
            "buffer": 0,
            "byteOffset": 5352,
            "byteLength": 5352,
            "target": 34962
        },
        {
            "buffer": 0,
            "byteOffset": 10704,
            "byteLength": 5352,
            "target": 34962
        },
        {
            "buffer": 0,
            "byteOffset": 16056,
            "byteLength": 3568,
            "target": 34962
        },
        {
            "buffer": 0,
            "byteOffset": 19624,
            "byteLength": 3144,
            "target": 34963
        }
    ],
    "images": [
        {
            "uri": "textures\\sponza_column_c_diff.png"
        }
    ],
    "materials": [
        {
            "name": "column_c",
            "pbrMetallicRoughness": {
                "baseColorTexture": {
                    "index": 0
                },
                "metallicFactor": 0.0,
                "roughnessFactor": 0.9990000128746033
            },
            "extensions": {
                "KHR_materials_specular": {
                    "specularFactor": 1.0,
                    "specularColorFactor": [
                        0.009999999776482582,
                        0.009999999776482582,
                        0.009999999776482582
                    ]
                }
            }
        }
    ],
    "meshes": [
        {
            "name": "sponza_23",
            "primitives": [
                {
                    "extensions": {
                        "FB_ngon_encoding": {}
                    },
                    "mode": 4,
                    "material": 0,
                    "indices": 4,
                    "attributes": {
                        "POSITION": 0,
                        "NORMAL": 1,
                        "TANGENT": 2,
                        "TEXCOORD_0": 3
                    }
                }
            ]
        }
    ],
    "nodes": [
        {
            "name": "sponza_23",
            "mesh": 0
        }
    ],
    "samplers": [
        {}
    ],
    "scenes": [
        {
            "nodes": [
                0
            ]
        }
    ],
    "textures": [
        {
            "source": 0,
            "sampler": 0
        }
    ],
    "scene": 0
}