{
    "asset": {
        "version": "2.0",
        "generator": "Open Asset Import Library (assimp v6.0.fb375dd8)"
    },
    "extensionsUsed": [
        "KHR_materials_specular",
        "KHR_materials_volume",
        "KHR_materials_ior",
        "FB_ngon_encoding"
    ],
    "accessors": [
        {
            "bufferView": 0,
            "byteOffset": 0,
            "componentType": 5126,
            "count": 111,
            "type": "VEC3",
            "max": [
                -1417.048828125,
                695.3226928710938,
                -629.194091796875
            ],
            "min": [
                -1430.14990234375,
                2.2250738585072014e-308,
                -645.28857421875
            ]
        },
        {
            "bufferView": 1,
            "byteOffset": 0,
            "componentType": 5126,
            "count": 111,
            "type": "VEC3",
            "max": [
                1.0,
                1.0,
                1.0
            ],
            "min": [
                0.0,
                -1.0,
                -0.0
            ]
        },
        {
            "bufferView": 2,
            "byteOffset": 0,
            "componentType": 5126,
            "count": 111,
            "type": "VEC3",
            "max": [
                1.0,
                0.5680345892906189,
                1.0
            ],
            "min": [
                -1.0,
                -0.35871776938438416,
                -1.0
            ]
        },
        {
            "bufferView": 3,
            "byteOffset": 0,
            "componentType": 5126,
            "count": 111,
            "type": "VEC2",
            "max": [
                0.9958999752998352,
                0.32580000162124634
            ],
            "min": [
                2.2250738585072014e-308,
                2.2250738585072014e-308
            ]
        },
        {
            "bufferView": 4,
            "byteOffset": 0,
            "componentType": 5125,
            "count": 222,
            "type": "SCALAR",
            "max": [
                110
            ],
            "min": [
                0
            ]
        }
    ],
    "buffers": [
        {
            "byteLength": 5772,
            "uri": "sponza_94.bin"
        }
    ],
    "bufferViews": [
        {
            "buffer": 0,
            "byteOffset": 0,
            "byteLength": 1332,
            "target": 34962
        },
        {
            "buffer": 0,
            "byteOffset": 1332,
            "byteLength": 1332,
            "target": 34962
        },
        {
            "buffer": 0,
            "byteOffset": 2664,
            "byteLength": 1332,
            "target": 34962
        },
        {
            "buffer": 0,
            "byteOffset": 3996,
            "byteLength": 888,
            "target": 34962
        },
        {
            "buffer": 0,
            "byteOffset": 4884,
            "byteLength": 888,
            "target": 34963
        }
    ],
    "images": [
        {
            "uri": "textures\\sponza_column_c_diff.png"
        }
    ],
    "materials": [
        {
            "name": "column_c",
            "pbrMetallicRoughness": {
                "baseColorTexture": {
                    "index": 0
                },
                "metallicFactor": 0.0,
                "roughnessFactor": 0.9990000128746033
            },
            "extensions": {
                "KHR_materials_specular": {
                    "specularFactor": 1.0,
                    "specularColorFactor": [
                        0.009999999776482582,
                        0.009999999776482582,
                        0.009999999776482582
                    ]
                }
            }
        }
    ],
    "meshes": [
        {
            "name": "sponza_94",
            "primitives": [
                {
                    "extensions": {
                        "FB_ngon_encoding": {}
                    },
                    "mode": 4,
                    "material": 0,
                    "indices": 4,
                    "attributes": {
                        "POSITION": 0,
                        "NORMAL": 1,
                        "TANGENT": 2,
                        "TEXCOORD_0": 3
                    }
                }
            ]
        }
    ],
    "nodes": [
        {
            "name": "sponza_94",
            "mesh": 0
        }
    ],
    "samplers": [
        {}
    ],
    "scenes": [
        {
            "nodes": [
                0
            ]
        }
    ],
    "textures": [
        {
            "source": 0,
            "sampler": 0
        }
    ],
    "scene": 0
}